<?xml version="1.0" encoding="UTF-8"?>
<svg xmlns="http://www.w3.org/2000/svg" xmlns:xlink="http://www.w3.org/1999/xlink" version="1.2" >
<font id="TeleGroteskScreen Ultra">
<font-face  font-family="TeleGroteskScreen" units-per-em="2048" ascent="1880" descent="-369" font-style="normal" font-weight="800" font-stretch="normal" cap-height="1365" x-height="942" underline-position="-203" underline-thickness="187" />
<missing-glyph  horiz-adv-x="390" d="M39 0 L39 1365 L351 1365 L351 0 L39 0 Z M312 39 L312 1326 L78 1326 L78 39 L312 39 Z " />
<glyph glyph-name="space" unicode="&#x20;" horiz-adv-x="390" d="" />
<glyph glyph-name="exclam" unicode="&#x21;" horiz-adv-x="620" d="M445 1365 L445 1001 L378 416 L243 416 L177 997 L177 1365 L445 1365 Z M460 294 L460 0 L160 0 L160 294 L460 294 Z " />
<glyph glyph-name="quotedbl" unicode="&#x22;" horiz-adv-x="836" d="M328 845 L127 845 L71 1365 L384 1365 L328 845 Z M709 845 L508 845 L452 1365 L765 1365 L709 845 Z " />
<glyph glyph-name="numbersign" unicode="&#x23;" horiz-adv-x="1206" d="M98 430 L98 590 L298 590 L328 798 L150 798 L150 958 L350 958 L398 1297 L593 1297 L545 958 L732 958 L780 1297 L975 1297 L928 958 L1108 958 L1108 798 L905 798 L876 590 L1056 590 L1056 430 L853 430 L803 68 L607 68 L658 430 L471 430 L420 68 L225 68 L276 430 L98 430 Z M710 798 L523 798 L494 590 L681 590 L710 798 Z " />
<glyph glyph-name="dollar" unicode="&#x24;" horiz-adv-x="1080" d="M457 1447 L616 1447 L616 1349 Q945 1298 993 1005 L734 1005 Q719 1103 616 1137 L616 816 Q1026 684 1026 392 Q1026 163 808 62 Q727 24 616 12 L616 -82 L457 -82 L457 13 Q292 37 193 131 Q76 242 53 412 L321 412 Q344 280 457 233 L457 595 Q352 634 299 662 Q92 774 92 995 Q92 1117 158 1205 Q207 1271 276.5 1305.5 Q346 1340 457 1353 L457 1447 Z M616 225 Q674 241 706 270 Q760 319 760 389 Q760 491 616 556 L616 225 Z M457 1145 Q335 1110 335 1003 Q335 954 362 921 Q389 888 457 856 L457 1145 Z " />
<glyph glyph-name="percent" unicode="&#x25;" horiz-adv-x="1813" d="M385 1383 Q534 1383 631 1277 Q740 1157 740 956 Q740 782 658 666 Q559 527 385 527 Q206 527 106 669 Q26 783 26 961 Q26 1156 130 1272 Q230 1383 385 1383 Z M384 1211 Q311 1211 271 1144 Q226 1068 226 960 Q226 841 271 766 Q311 699 385 699 Q454 699 492 761 Q540 839 540 958 Q540 1072 497 1141.5 Q454 1211 384 1211 Z M703 0 L524 0 L1112 1365 L1288 1365 L703 0 Z M1432 837 Q1580 837 1678 731 Q1787 613 1787 410 Q1787 236 1705 120 Q1606 -19 1432 -19 Q1254 -19 1153 123 Q1073 237 1073 415 Q1073 610 1177 726 Q1277 837 1432 837 Z M1431 665 Q1358 665 1318 598 Q1273 522 1273 414 Q1273 295 1318 220 Q1358 153 1432 153 Q1501 153 1539 215 Q1587 293 1587 412 Q1587 526 1544 595.5 Q1501 665 1431 665 Z " />
<glyph glyph-name="ampersand" unicode="&#x26;" horiz-adv-x="1143" d="M1126 0 L851 0 L814 51 Q687 -29 510 -29 Q312 -29 189 74 Q53 187 53 366 Q53 448 86.5 527.5 Q120 607 179 666 Q219 707 298 766 Q249 836 231 867 Q172 967 172 1076 Q172 1215 269 1304.5 Q366 1394 518 1394 Q669 1394 764 1308 Q856 1224 856 1101 Q856 1001 802 920.5 Q748 840 603 725 L830 411 Q852 481 855 567 L1089 567 Q1067 357 973 212 L1126 0 Z M427 588 Q330 502 330 384 Q330 284 390 224 Q446 168 536 168 Q617 168 694 217 L427 588 Z M480 898 Q612 1000 612 1106 Q612 1152 584.5 1182.5 Q557 1213 515 1213 Q468 1213 440 1177 Q412 1141 412 1081 Q412 995 480 898 Z " />
<glyph glyph-name="quotesingle" unicode="&#x27;" horiz-adv-x="455" d="M328 845 L127 845 L71 1365 L384 1365 L328 845 Z " />
<glyph glyph-name="parenleft" unicode="&#x28;" horiz-adv-x="604" d="M498 -355 L289 -355 Q182 -164 125.5 56 Q69 276 69 499 Q69 804 171 1102 Q227 1267 287 1365 L495 1365 Q486 1342 447 1247 Q386 1100 352 904 Q318 708 318 507 Q318 36 498 -355 Z " />
<glyph glyph-name="parenright" unicode="&#x29;" horiz-adv-x="604" d="M106 -355 Q285 34 285 507 Q285 840 193 1146 Q189 1159 109 1365 L316 1365 Q414 1206 474.5 966.5 Q535 727 535 499 Q535 276 478.5 56.5 Q422 -163 314 -355 L106 -355 Z " />
<glyph glyph-name="asterisk" unicode="&#x2a;" horiz-adv-x="855" d="M778 1055 L545 982 L692 786 L569 693 L424 895 L280 695 L156 788 L310 982 L77 1055 L125 1201 L353 1118 L349 1365 L506 1365 L498 1118 L727 1201 L778 1055 Z " />
<glyph glyph-name="plus" unicode="&#x2b;" horiz-adv-x="1049" d="M53 783 L427 783 L427 1131 L621 1131 L621 783 L995 783 L995 596 L621 596 L621 248 L427 248 L427 596 L53 596 L53 783 Z " />
<glyph glyph-name="comma" unicode="&#x2c;" horiz-adv-x="620" d="M460 294 L460 66 Q460 -56 431 -128 Q402 -200 333 -251 Q261 -305 160 -319 L160 -176 Q280 -144 287 0 L160 0 L160 294 L460 294 Z " />
<glyph glyph-name="hyphen" unicode="&#x2d;" horiz-adv-x="453" d="M453 633 L453 387 L0 387 L0 633 L453 633 Z " />
<glyph glyph-name="period" unicode="&#x2e;" horiz-adv-x="620" d="M460 294 L460 0 L160 0 L160 294 L460 294 Z " />
<glyph glyph-name="slash" unicode="&#x2f;" horiz-adv-x="802" d="M193 -355 L-34 -355 L496 1365 L717 1365 L193 -355 Z " />
<glyph glyph-name="zero" unicode="0" horiz-adv-x="1041" d="M523 1394 Q655 1394 756 1310 Q953 1148 953 676 Q953 350 845 170 Q727 -29 525 -29 Q296 -29 179 202 Q89 378 89 685 Q89 1018 198 1198 Q318 1394 523 1394 Z M519 1169 Q358 1169 358 683 Q358 434 398.5 315 Q439 196 523 196 Q684 196 684 678 Q684 931 644 1050 Q604 1169 519 1169 Z " />
<glyph glyph-name="one" unicode="1" horiz-adv-x="1157" d="M433 0 L433 960 Q392 924 350 911.5 Q308 899 223 898 L223 1104 Q352 1108 410 1163.5 Q468 1219 496 1365 L701 1365 L701 0 L433 0 Z " />
<glyph glyph-name="two" unicode="2" horiz-adv-x="1043" d="M922 241 L922 0 L77 0 Q81 221 148 357 Q191 446 256.5 511 Q322 576 491 697 Q589 768 632 835.5 Q675 903 675 986 Q675 1062 632.5 1108.5 Q590 1155 520 1155 Q455 1155 415 1105 Q375 1055 368 965 L102 965 Q113 1136 207 1253 Q323 1396 521 1396 Q714 1396 828 1279 Q933 1172 933 1002 Q933 853 860.5 749 Q788 645 585 506 Q458 418 413.5 365.5 Q369 313 360 241 L922 241 Z " />
<glyph glyph-name="three" unicode="3" horiz-adv-x="1038" d="M364 996 L103 996 Q108 1150 184 1249 Q295 1394 513 1394 Q694 1394 802 1289 Q907 1186 907 1022 Q907 914 863 838 Q819 762 735 726 Q815 699 864 642 Q947 545 947 395 Q947 214 827 94 Q704 -29 500 -29 Q307 -29 192 77 Q75 185 75 381 L338 381 Q339 297 380 251 Q421 205 497 205 Q576 205 620 261 Q666 319 666 413 Q666 513 615.5 561.5 Q565 610 461 610 L421 610 L421 807 L484 807 Q555 807 600 861 Q645 915 645 1001 Q645 1079 605.5 1124 Q566 1169 499 1169 Q369 1169 364 996 Z " />
<glyph glyph-name="four" unicode="4" horiz-adv-x="1037" d="M813 0 L552 0 L552 294 L77 294 L77 544 L563 1365 L813 1365 L813 515 L954 515 L954 294 L813 294 L813 0 Z M552 515 L552 988 L300 515 L552 515 Z " />
<glyph glyph-name="five" unicode="5" horiz-adv-x="1038" d="M194 1365 L855 1365 L855 1127 L405 1127 L363 846 Q446 915 559 915 Q718 915 821 810 Q938 691 938 475 Q938 243 797 98 Q674 -29 486 -29 Q301 -29 186.5 71.5 Q72 172 64 342 L333 342 Q341 272 380.5 234 Q420 196 484 196 Q565 196 613 265.5 Q661 335 661 453 Q661 557 624 630 Q582 715 490 715 Q440 715 406 689.5 Q372 664 339 603 L99 603 L194 1365 Z " />
<glyph glyph-name="six" unicode="6" horiz-adv-x="1037" d="M929 1056 L668 1056 Q641 1185 546 1185 Q380 1185 354 799 Q447 916 586 916 Q748 916 852 793 Q962 664 962 457 Q962 229 827 92 Q708 -29 539 -29 Q324 -29 205 149 Q86 327 86 648 Q86 1031 230 1228 Q352 1394 550 1394 Q707 1394 807 1305 Q907 1216 929 1056 Z M530 711 Q454 711 410 624 Q371 547 371 453 Q371 341 417 267.5 Q463 194 534 194 Q602 194 647.5 267.5 Q693 341 693 450 Q693 557 649 631 Q603 711 530 711 Z " />
<glyph glyph-name="seven" unicode="7" horiz-adv-x="1066" d="M141 1365 L924 1365 L924 1140 Q827 1000 775 900 Q723 800 678 666 Q586 392 567 0 L287 0 Q293 322 443 702 Q553 984 663 1115 L141 1115 L141 1365 Z " />
<glyph glyph-name="eight" unicode="8" horiz-adv-x="1035" d="M299 732 Q120 812 120 1033 Q120 1206 246 1305 Q361 1394 520 1394 Q691 1394 808 1291 Q916 1197 916 1036 Q916 929 870 851 Q824 773 737 732 Q961 648 961 387 Q961 199 839 86 Q717 -29 517 -29 Q321 -29 198 79 Q75 187 75 377 Q75 509 134 602 Q193 695 299 732 Z M517 1189 Q455 1189 419 1148 Q373 1096 373 1009 Q373 919 413 866.5 Q453 814 521 814 Q579 814 614 854 Q663 910 663 1008 Q663 1093 624.5 1141 Q586 1189 517 1189 Z M516 630 Q442 630 394.5 567.5 Q347 505 347 407 Q347 304 394.5 242 Q442 180 521 180 Q603 180 647 250 Q689 316 689 402 Q689 497 646 561 Q600 630 516 630 Z " />
<glyph glyph-name="nine" unicode="9" horiz-adv-x="1037" d="M108 309 L369 309 Q396 181 492 181 Q595 181 643 334 Q675 435 683 567 Q591 450 451 450 Q289 450 184 573 Q75 702 75 910 Q75 1137 208 1273 Q325 1394 492 1394 Q709 1394 830 1212 Q951 1030 951 704 Q951 327 807 134 Q686 -29 488 -29 Q330 -29 230 60 Q130 149 108 309 Z M504 1171 Q436 1171 390 1098.5 Q344 1026 344 920 Q344 812 388 735 Q433 655 507 655 Q584 655 627 743 Q666 820 666 916 Q666 1025 619.5 1098 Q573 1171 504 1171 Z " />
<glyph glyph-name="colon" unicode="&#x3a;" horiz-adv-x="620" d="M460 942 L460 648 L160 648 L160 942 L460 942 Z M460 294 L460 0 L160 0 L160 294 L460 294 Z " />
<glyph glyph-name="semicolon" unicode="&#x3b;" horiz-adv-x="620" d="M460 294 L460 66 Q460 -56 431 -128 Q402 -200 333 -251 Q261 -305 160 -319 L160 -176 Q280 -144 287 0 L160 0 L160 294 L460 294 Z M460 942 L460 648 L160 648 L160 942 L460 942 Z " />
<glyph glyph-name="less" unicode="&#x3c;" horiz-adv-x="1065" d="M976 1277 L976 973 L412 683 L976 392 L976 89 L89 556 L89 812 L976 1277 Z " />
<glyph glyph-name="equal" unicode="&#x3d;" horiz-adv-x="1049" d="M53 954 L995 954 L995 767 L53 767 L53 954 Z M53 612 L995 612 L995 425 L53 425 L53 612 Z " />
<glyph glyph-name="greater" unicode="&#x3e;" horiz-adv-x="1065" d="M89 1277 L976 811 L976 556 L89 89 L89 392 L653 683 L89 973 L89 1277 Z " />
<glyph glyph-name="question" unicode="&#x3f;" horiz-adv-x="1003" d="M112 927 L113 942 Q120 1113 189 1222 Q300 1398 524 1398 Q702 1398 807 1288 Q913 1177 913 1006 Q913 902 869.5 822 Q826 742 725 658 Q676 618 656 586.5 Q636 555 626 503 Q622 477 621 414 L387 414 Q388 423 388 430 Q389 585 423 665 Q447 717 558 824 Q609 874 628.5 914.5 Q648 955 648 1010 Q648 1079 613.5 1120.5 Q579 1162 521 1162 Q374 1162 365 927 L112 927 Z M654 294 L654 0 L354 0 L354 294 L654 294 Z " />
<glyph glyph-name="at" unicode="&#x40;" horiz-adv-x="1537" d="M981 982 L1164 982 L1084 579 Q1078 551 1078 500 Q1078 475 1100 475 Q1156 475 1226 549 Q1337 665 1337 843 Q1337 1030 1206 1146 Q1077 1262 876 1262 Q623 1262 446 1075 Q265 883 265 595 Q265 379 383 247 Q513 101 765 101 Q959 101 1125 174 Q1143 182 1230 224 L1283 88 Q1221 58 1201 50 Q1007 -33 757 -33 Q441 -33 266 134 Q85 307 85 592 Q85 823 208 1027 Q322 1216 523 1313 Q691 1396 874 1396 Q1125 1396 1299 1257 Q1498 1098 1498 843 Q1498 669 1401 526 Q1339 436 1254.5 386 Q1170 336 1080 336 Q989 336 933 402 Q840 326 736 326 Q617 326 543 410 Q474 490 474 618 Q474 781 576 898 Q668 1004 810 1004 Q905 1004 974 943 L981 982 Z M835 864 Q757 864 707 781 Q664 711 664 625 Q664 555 692.5 512.5 Q721 470 767 470 Q848 470 896 560 Q934 631 934 721 Q934 787 907.5 825.5 Q881 864 835 864 Z " />
<glyph glyph-name="A" unicode="A" horiz-adv-x="1159" d="M430 1365 L730 1365 L1162 0 L857 0 L772 305 L383 305 L297 0 L-3 0 L430 1365 Z M446 526 L711 526 L579 997 L446 526 Z " />
<glyph glyph-name="B" unicode="B" horiz-adv-x="1195" d="M138 0 L138 1365 L625 1365 Q747 1365 823 1345.5 Q899 1326 955 1280 Q1067 1189 1067 1032 Q1067 831 871 740 Q1120 656 1120 402 Q1120 180 952 69 Q847 0 671 0 L138 0 Z M431 813 L562 813 Q670 813 716 846 Q778 892 778 976 Q778 1070 703 1110 Q663 1132 562 1132 L431 1132 L431 813 Z M431 233 L589 233 Q712 233 763 274 Q827 325 827 422 Q827 535 742 581 Q692 608 577 608 L431 608 L431 233 Z " />
<glyph glyph-name="C" unicode="C" horiz-adv-x="1230" d="M884 529 L1177 529 Q1161 312 1055 166 Q910 -33 647 -33 Q398 -33 252 138 Q75 347 75 679 Q75 1005 246 1209 Q403 1396 654 1396 Q923 1396 1073 1180 Q1158 1057 1169 906 L879 905 Q866 985 836 1035 Q772 1146 650 1146 Q514 1146 442 1017 Q368 883 368 682 Q368 478 445 342 Q515 217 647 217 Q750 217 808 293.5 Q866 370 884 529 Z " />
<glyph glyph-name="D" unicode="D" horiz-adv-x="1266" d="M138 0 L138 1365 L559 1365 Q837 1365 996 1217 Q1191 1037 1191 687 Q1191 345 1007 157 Q907 54 776 23 Q683 0 558 0 L138 0 Z M431 250 L562 250 Q718 250 789 324 Q898 439 898 688 Q898 894 806 1011 Q725 1115 554 1115 L431 1115 L431 250 Z " />
<glyph glyph-name="E" unicode="E" horiz-adv-x="1120" d="M138 0 L138 1365 L1009 1365 L1009 1115 L431 1115 L431 823 L959 823 L959 585 L431 585 L431 250 L1021 250 L1021 0 L138 0 Z " />
<glyph glyph-name="F" unicode="F" horiz-adv-x="1020" d="M138 0 L138 1365 L964 1365 L964 1115 L427 1115 L427 797 L892 797 L892 559 L427 559 L427 0 L138 0 Z " />
<glyph glyph-name="G" unicode="G" horiz-adv-x="1295" d="M1178 0 L964 0 L964 154 Q883 49 808 8 Q733 -33 625 -33 Q368 -33 219 174 Q75 374 75 675 Q75 977 226 1179 Q388 1397 657 1397 Q887 1397 1034 1227 Q1093 1159 1122.5 1088 Q1152 1017 1163 914 L878 913 Q863 998 831 1048 Q768 1147 653 1147 Q515 1147 441 1016 Q368 889 368 679 Q368 455 450 328 Q525 213 660 213 Q771 213 836.5 291.5 Q902 370 914 516 L668 516 L668 737 L1178 737 L1178 0 Z " />
<glyph glyph-name="H" unicode="H" horiz-adv-x="1298" d="M138 0 L138 1365 L431 1365 L431 846 L866 846 L866 1365 L1159 1365 L1159 0 L866 0 L866 596 L431 596 L431 0 L138 0 Z " />
<glyph glyph-name="I" unicode="I" horiz-adv-x="570" d="M138 0 L138 1365 L431 1365 L431 0 L138 0 Z " />
<glyph glyph-name="J" unicode="J" horiz-adv-x="661" d="M0 -19 L0 214 Q60 199 100 199 Q203 199 236 311 Q251 365 251 547 L251 1365 L544 1365 L544 519 Q544 373 528 287 Q512 201 473 137 Q370 -33 129 -33 Q71 -33 0 -19 Z " />
<glyph glyph-name="K" unicode="K" horiz-adv-x="1216" d="M138 0 L138 1365 L431 1365 L431 849 L837 1365 L1164 1365 L699 802 L1202 0 L874 0 L514 576 L431 476 L431 0 L138 0 Z " />
<glyph glyph-name="L" unicode="L" horiz-adv-x="1034" d="M138 0 L138 1365 L431 1365 L431 254 L967 254 L967 0 L138 0 Z " />
<glyph glyph-name="M" unicode="M" horiz-adv-x="1548" d="M138 0 L138 1365 L535 1365 L778 430 L1015 1365 L1409 1365 L1409 0 L1128 0 L1128 949 L895 0 L657 0 L419 937 L419 0 L138 0 Z " />
<glyph glyph-name="N" unicode="N" horiz-adv-x="1282" d="M138 0 L138 1365 L434 1366 L862 487 L862 1365 L1143 1365 L1143 0 L850 0 L419 877 L419 0 L138 0 Z " />
<glyph glyph-name="O" unicode="O" horiz-adv-x="1313" d="M660 1396 Q903 1396 1060 1220 Q1239 1021 1239 682 Q1239 392 1104 197 Q1024 82 902 21 Q793 -33 660 -33 Q370 -33 207 202 Q75 392 75 692 Q75 1018 246 1212 Q408 1396 660 1396 Z M658 1146 Q522 1146 448 1019 Q368 881 368 690 Q368 480 447 344 Q480 287 539 252 Q598 217 661 217 Q721 217 774.5 248.5 Q828 280 861 335 Q946 476 946 686 Q946 884 868 1019 Q794 1146 658 1146 Z " />
<glyph glyph-name="P" unicode="P" horiz-adv-x="1125" d="M138 0 L138 1365 L571 1365 Q733 1365 818 1335 Q943 1289 1012 1176 Q1071 1078 1071 938 Q1071 703 904 578 Q788 490 576 490 L431 490 L431 0 L138 0 Z M431 728 L573 728 Q690 728 735 783 Q778 836 778 924 Q778 1024 717 1075 Q670 1115 559 1115 L431 1115 L431 728 Z " />
<glyph glyph-name="Q" unicode="Q" horiz-adv-x="1313" d="M1213 15 L1073 -123 L914 45 Q784 -33 644 -33 Q465 -33 320 82 Q75 275 75 683 Q75 1015 246 1212 Q406 1396 659 1396 Q904 1396 1060 1220 Q1239 1019 1239 683 Q1239 524 1197 403.5 Q1155 283 1062 172 L1213 15 Z M725 525 L881 362 Q946 507 946 683 Q946 882 868 1019 Q796 1146 658 1146 Q522 1146 448 1019 Q368 882 368 684 Q368 475 447 334 Q480 275 539 239 Q598 203 662 203 Q701 203 748 222 L589 391 L725 525 Z " />
<glyph glyph-name="R" unicode="R" horiz-adv-x="1249" d="M138 0 L138 1365 L663 1365 Q869 1365 982 1275 Q1111 1172 1111 984 Q1111 867 1060.5 779.5 Q1010 692 915 645 Q1001 615 1044 541 Q1071 496 1082 432.5 Q1093 369 1105 194 Q1111 114 1120 76.5 Q1129 39 1152 0 L850 0 Q835 36 831 64.5 Q827 93 816 254 Q808 355 792.5 408.5 Q777 462 747 493 Q704 536 599 536 L431 536 L431 0 L138 0 Z M431 757 L592 757 Q725 757 775 813 Q818 862 818 949 Q818 1044 765 1088 Q712 1132 598 1132 L431 1132 L431 757 Z " />
<glyph glyph-name="S" unicode="S" horiz-adv-x="1066" d="M53 399 L348 399 Q360 319 385 280 Q437 200 535 200 Q614 200 663 247 Q712 294 712 370 Q712 449 645 504 Q617 527 587.5 540.5 Q558 554 463 588 Q295 647 220 706 Q71 824 71 1015 Q71 1179 175 1282 Q291 1396 496 1396 Q693 1396 813 1295 Q933 1194 959 1005 L673 1005 Q663 1084 623 1120 Q575 1162 494 1162 Q422 1162 381.5 1125.5 Q341 1089 341 1024 Q341 952 394.5 910 Q448 868 607 816 Q780 760 875 685 Q1013 575 1013 389 Q1013 203 885 87 Q752 -33 530 -33 Q265 -33 135 166 Q69 268 53 399 Z " />
<glyph glyph-name="T" unicode="T" horiz-adv-x="1047" d="M376 0 L376 1115 L45 1115 L45 1365 L1002 1365 L1002 1115 L669 1115 L669 0 L376 0 Z " />
<glyph glyph-name="U" unicode="U" horiz-adv-x="1250" d="M117 1365 L398 1365 L398 570 Q398 375 452 298 Q510 217 630 217 Q760 217 807 328 Q840 404 840 571 L840 1365 L1133 1365 L1133 586 Q1133 402 1107 307 Q1062 144 945 55 Q829 -33 624 -33 Q330 -33 203 165 Q156 239 136.5 335 Q117 431 117 590 L117 1365 Z " />
<glyph glyph-name="V" unicode="V" horiz-adv-x="1071" d="M696 0 L370 0 L-3 1365 L305 1365 L540 381 L775 1365 L1074 1365 L696 0 Z " />
<glyph glyph-name="W" unicode="W" horiz-adv-x="1542" d="M0 1365 L294 1365 L456 429 L632 1365 L911 1365 L1085 427 L1250 1365 L1542 1365 L1234 0 L941 0 L769 927 L600 0 L304 0 L0 1365 Z " />
<glyph glyph-name="X" unicode="X" horiz-adv-x="1101" d="M20 1365 L352 1365 L556 950 L763 1365 L1079 1365 L714 714 L1113 0 L774 0 L547 450 L314 0 L-11 0 L391 714 L20 1365 Z " />
<glyph glyph-name="Y" unicode="Y" horiz-adv-x="1133" d="M-3 1365 L323 1365 L569 825 L815 1365 L1136 1365 L713 528 L713 0 L420 0 L420 532 L-3 1365 Z " />
<glyph glyph-name="Z" unicode="Z" horiz-adv-x="1077" d="M43 0 L43 238 L656 1115 L87 1115 L87 1365 L1011 1365 L1011 1143 L391 254 L1029 254 L1029 0 L43 0 Z " />
<glyph glyph-name="bracketleft" unicode="&#x5b;" horiz-adv-x="625" d="M545 1365 L545 1168 L342 1168 L342 -158 L545 -158 L545 -355 L112 -355 L112 1365 L545 1365 Z " />
<glyph glyph-name="backslash" unicode="&#x5c;" horiz-adv-x="802" d="M610 -355 L85 1365 L307 1365 L836 -355 L610 -355 Z " />
<glyph glyph-name="bracketright" unicode="&#x5d;" horiz-adv-x="625" d="M79 1365 L512 1365 L512 -355 L79 -355 L79 -158 L282 -158 L282 1168 L79 1168 L79 1365 Z " />
<glyph glyph-name="asciicircum" unicode="&#x5e;" horiz-adv-x="1043" d="M311 718 L41 718 L352 1373 L691 1373 L1002 718 L732 718 L522 1167 L311 718 Z " />
<glyph glyph-name="underscore" unicode="&#x5f;" horiz-adv-x="1049" d="M53 -109 L995 -109 L995 -296 L53 -296 L53 -109 Z " />
<glyph glyph-name="grave" unicode="&#x60;" horiz-adv-x="1210" d="M313 1365 L534 1365 L717 1092 L512 1092 L313 1365 Z " />
<glyph glyph-name="a" unicode="a" horiz-adv-x="1014" d="M1001 189 L1001 12 Q944 -12 881 -12 Q752 -12 686 90 Q637 42 596 19 Q509 -29 382 -29 Q237 -29 151 35 Q47 112 47 247 Q47 350 109 427 Q171 504 278 535 Q385 566 636 572 L636 648 Q636 726 602 760.5 Q568 795 490 795 Q380 795 368 690 L84 690 Q93 823 194 896 Q299 971 480 971 Q742 971 852 863 Q897 819 911 764.5 Q925 710 925 575 L925 260 Q925 214 934.5 196.5 Q944 179 969 179 Q979 179 1001 189 Z M636 429 Q526 425 465 410 Q400 395 364 357.5 Q328 320 328 268 Q328 219 356.5 191.5 Q385 164 435 164 Q540 164 598 252 Q636 309 636 379 L636 429 Z " />
<glyph glyph-name="b" unicode="b" horiz-adv-x="1057" d="M84 0 L84 1365 L365 1365 L365 863 Q469 971 623 971 Q707 971 785 935.5 Q863 900 918 837 Q1030 707 1030 481 Q1030 272 933 134 Q820 -29 625 -29 Q470 -29 376 79 L376 0 L84 0 Z M555 758 Q474 758 425 681 Q376 604 376 477 Q376 358 414 281 Q462 184 557 184 Q635 184 683.5 264 Q732 344 732 473 Q732 604 682 683 Q635 758 555 758 Z " />
<glyph glyph-name="c" unicode="c" horiz-adv-x="957" d="M942 611 L650 610 Q622 774 497 774 Q407 774 358 692 Q308 608 308 468 Q308 328 357 248 Q406 168 492 168 Q560 168 602.5 218.5 Q645 269 657 362 L943 362 Q925 219 848 124 Q724 -29 498 -29 Q293 -29 166 96 Q27 234 27 465 Q27 711 177 851 Q304 971 504 971 Q691 971 808.5 874.5 Q926 778 942 611 Z " />
<glyph glyph-name="d" unicode="d" horiz-adv-x="1057" d="M973 0 L681 0 L681 79 Q587 -29 432 -29 Q237 -29 123 134 Q27 272 27 481 Q27 707 139 837 Q193 899 270 935 Q349 971 434 971 Q588 971 692 863 L692 1365 L973 1365 L973 0 Z M494 758 Q409 758 361 683 Q308 603 308 478 Q308 364 349 282 Q397 184 493 184 Q579 184 630 262.5 Q681 341 681 473 Q681 601 632 678 Q580 758 494 758 Z " />
<glyph glyph-name="e" unicode="e" horiz-adv-x="975" d="M950 403 L324 403 Q328 312 351 258 Q392 159 509 159 Q603 159 644 221 L926 221 Q906 157 851 99 Q729 -29 509 -29 Q290 -29 162 100 Q27 237 27 466 Q27 678 150 819 Q282 971 493 971 Q661 971 778 870 Q863 796 904 685.5 Q945 575 950 403 Z M653 571 Q647 636 628 681 Q585 783 491 783 Q423 783 379 726.5 Q335 670 325 571 L653 571 Z " />
<glyph glyph-name="f" unicode="f" horiz-adv-x="588" d="M140 0 L140 758 L3 758 L3 942 L140 942 L140 1026 Q140 1136 154.5 1196 Q169 1256 207 1300 Q290 1397 478 1397 Q484 1397 599 1390 L599 1186 Q551 1192 519 1192 Q460 1192 440.5 1164 Q421 1136 421 1050 L421 942 L587 942 L587 758 L421 758 L421 0 L140 0 Z " />
<glyph glyph-name="g" unicode="g" horiz-adv-x="1035" d="M57 -134 L355 -134 Q378 -185 480 -185 Q587 -185 630.5 -125 Q674 -65 674 84 L674 126 Q581 16 428 16 Q249 16 140 137 Q27 263 27 487 Q27 710 140 840 Q254 971 435 971 Q585 971 674 858 L674 942 L949 942 L949 135 Q949 5 931.5 -73 Q914 -151 871 -210 Q755 -369 493 -369 Q305 -369 193 -308.5 Q81 -248 57 -134 Z M490 766 Q406 766 359 695 Q308 619 308 499 Q308 369 357 291 Q406 213 488 213 Q574 213 626 290 Q678 367 678 495 Q678 619 628 690 Q576 766 490 766 Z " />
<glyph glyph-name="h" unicode="h" horiz-adv-x="1040" d="M85 0 L85 1365 L366 1365 L366 855 Q471 971 631 971 Q819 971 906 845 Q960 767 960 601 L960 0 L679 0 L679 557 Q679 656 657 695 Q622 758 542 758 Q437 758 390 657 Q366 605 366 464 L366 0 L85 0 Z " />
<glyph glyph-name="i" unicode="i" horiz-adv-x="521" d="M111 1092 L111 1365 L409 1365 L409 1092 L111 1092 Z M111 0 L111 942 L392 942 L392 0 L111 0 Z " />
<glyph glyph-name="j" unicode="j" horiz-adv-x="510" d="M-36 -347 L-36 -134 Q11 -138 25 -138 Q83 -138 100 -110 Q117 -82 117 14 L117 942 L398 942 L398 -23 Q398 -210 314 -287 Q239 -355 81 -355 Q33 -355 -36 -347 Z M100 1092 L100 1365 L398 1365 L398 1092 L100 1092 Z " />
<glyph glyph-name="k" unicode="k" horiz-adv-x="992" d="M87 0 L87 1365 L368 1365 L368 662 L642 942 L968 942 L600 575 L999 0 L676 0 L414 390 L368 345 L368 0 L87 0 Z " />
<glyph glyph-name="l" unicode="l" horiz-adv-x="526" d="M122 0 L122 1365 L403 1365 L403 0 L122 0 Z " />
<glyph glyph-name="m" unicode="m" horiz-adv-x="1516" d="M66 0 L66 942 L347 942 L347 854 Q441 971 600 971 Q686 971 750 936 Q814 901 847 837 Q947 971 1133 971 Q1287 971 1371 884 Q1455 797 1455 637 L1455 0 L1174 0 L1174 565 Q1174 650 1159 688 Q1132 758 1052 758 Q954 758 916 660 Q900 618 900 514 L900 0 L619 0 L619 577 Q619 654 604 693 Q579 758 504 758 Q347 758 347 514 L347 0 L66 0 Z " />
<glyph glyph-name="n" unicode="n" horiz-adv-x="1040" d="M85 0 L85 942 L368 942 L368 855 Q467 971 630 971 Q819 971 906 845 Q960 767 960 601 L960 0 L679 0 L679 557 Q679 655 657 695 Q622 758 542 758 Q438 758 391 657 Q366 605 366 464 L366 0 L85 0 Z " />
<glyph glyph-name="o" unicode="o" horiz-adv-x="1003" d="M503 971 Q715 971 845 838 Q979 703 979 465 Q979 234 837 96 Q708 -29 502 -29 Q283 -29 152 111 Q23 248 23 472 Q23 691 148 825 Q284 971 503 971 Z M491 774 Q405 774 354.5 692.5 Q304 611 304 472 Q304 331 353 251 Q403 168 494 168 Q580 168 628 244 Q681 328 681 468 Q681 608 634 687 Q583 774 491 774 Z " />
<glyph glyph-name="p" unicode="p" horiz-adv-x="1057" d="M84 942 L376 942 L376 863 Q471 971 625 971 Q820 971 933 808 Q1030 670 1030 461 Q1030 235 918 105 Q864 43 787 8 Q708 -29 623 -29 Q469 -29 365 79 L365 -355 L84 -355 L84 942 Z M556 758 Q474 758 425 680 Q376 602 376 472 Q376 343 423 264 Q471 184 555 184 Q636 184 682 259 Q732 340 732 469 Q732 579 693 660 Q645 758 556 758 Z " />
<glyph glyph-name="q" unicode="q" horiz-adv-x="1057" d="M692 -355 L692 79 Q588 -29 434 -29 Q350 -29 272 6.5 Q194 42 139 105 Q27 235 27 462 Q27 670 123 808 Q237 971 432 971 Q586 971 681 863 L681 942 L973 942 L973 -355 L692 -355 Z M493 758 Q398 758 349 660 Q308 578 308 471 Q308 339 361 259 Q409 184 494 184 Q579 184 630 261.5 Q681 339 681 469 Q681 585 641 661 Q590 758 493 758 Z " />
<glyph glyph-name="r" unicode="r" horiz-adv-x="692" d="M85 0 L85 942 L366 942 L366 822 Q465 971 618 971 Q654 971 692 962 L692 718 Q633 733 592 733 Q454 733 397 612 Q366 546 366 396 L366 0 L85 0 Z " />
<glyph glyph-name="s" unicode="s" horiz-adv-x="922" d="M50 284 L325 284 Q343 153 472 153 Q527 153 560 179.5 Q593 206 593 251 Q593 314 520 352 Q489 369 389 401 Q222 455 168 494 Q59 571 59 690 Q59 753 87.5 809.5 Q116 866 165 900 Q265 971 432 971 Q656 971 766 840 Q816 780 832 696 L555 696 Q528 787 441 787 Q397 787 371.5 764.5 Q346 742 346 704 Q346 648 414 614 Q443 599 575 560 Q698 523 767 474 Q873 399 873 268 Q873 132 766.5 51.5 Q660 -29 480 -29 Q350 -29 262.5 6.5 Q175 42 117 119 Q62 192 50 284 Z " />
<glyph glyph-name="t" unicode="t" horiz-adv-x="620" d="M1 766 L1 942 L150 942 L150 1003 L339 1255 L431 1255 L431 942 L612 942 L612 766 L431 766 L431 320 Q431 234 449.5 207 Q468 180 527 180 Q560 180 602 194 L602 -7 Q515 -25 433 -25 Q258 -25 194 66 Q167 104 158.5 154 Q150 204 150 330 L150 766 L1 766 Z " />
<glyph glyph-name="u" unicode="u" horiz-adv-x="1040" d="M954 942 L954 0 L671 0 L671 87 Q573 -29 409 -29 Q219 -29 133 97 Q79 175 79 341 L79 942 L360 942 L360 385 Q360 287 382 247 Q417 184 496 184 Q601 184 647 285 Q672 338 672 478 L672 942 L954 942 Z " />
<glyph glyph-name="v" unicode="v" horiz-adv-x="980" d="M655 1 L329 0 L27 942 L337 942 L496 342 L654 942 L952 942 L655 1 Z " />
<glyph glyph-name="w" unicode="w" horiz-adv-x="1491" d="M626 1 L320 0 L41 942 L353 942 L486 350 L605 942 L895 942 L1017 354 L1150 942 L1450 942 L1179 1 L874 0 L747 582 L626 1 Z " />
<glyph glyph-name="x" unicode="x" horiz-adv-x="1053" d="M69 942 L399 942 L527 721 L653 942 L976 942 L688 503 L1012 0 L680 -1 L524 273 L369 0 L41 0 L359 497 L69 942 Z " />
<glyph glyph-name="y" unicode="y" horiz-adv-x="1040" d="M41 942 L357 942 L528 336 L693 942 L999 941 L678 -15 Q637 -136 599.5 -199 Q562 -262 512 -296 Q424 -355 269 -355 Q205 -355 142 -345 L142 -130 Q194 -142 234 -142 Q362 -142 362 -30 Q362 11 344 63 L41 942 Z " />
<glyph glyph-name="z" unicode="z" horiz-adv-x="864" d="M14 0 L14 194 L467 739 L49 739 L49 942 L827 942 L827 755 L362 203 L858 203 L858 0 L14 0 Z " />
<glyph glyph-name="braceleft" unicode="&#x7b;" horiz-adv-x="590" d="M548 1365 L548 1168 L495 1168 Q403 1168 374 1138 Q345 1108 345 1012 L345 743 Q345 647 319.5 596.5 Q294 546 224 504 Q292 464 318.5 411.5 Q345 359 345 262 L345 0 Q345 -68 354.5 -97 Q364 -126 390 -140 Q425 -159 495 -158 L548 -158 L548 -355 L465 -355 Q280 -357 210 -306 Q159 -270 136.5 -214 Q114 -158 114 -66 L114 252 Q114 335 88.5 375.5 Q63 416 0 430 L0 592 Q61 606 87.5 644 Q114 682 114 756 L114 1087 Q114 1253 211 1318 Q284 1367 465 1365 L548 1365 Z " />
<glyph glyph-name="bar" unicode="&#x7c;" horiz-adv-x="1239" d="M466 1365 L773 1365 L773 -341 L466 -341 L466 1365 Z " />
<glyph glyph-name="braceright" unicode="&#x7d;" horiz-adv-x="590" d="M42 -355 L42 -158 L95 -158 Q187 -159 216 -128.5 Q245 -98 245 0 L245 262 Q245 359 271.5 412 Q298 465 365 504 Q296 546 270.5 596.5 Q245 647 245 743 L245 1012 Q245 1074 237.5 1100.5 Q230 1127 209 1144 Q178 1168 95 1168 L42 1168 L42 1365 L125 1365 Q306 1367 378 1318 Q475 1254 475 1087 L475 756 Q475 682 501.5 644 Q528 606 590 592 L590 430 Q527 416 501 375.5 Q475 335 475 252 L475 -66 Q475 -158 452.5 -214 Q430 -270 380 -306 Q310 -357 125 -355 L42 -355 Z " />
<glyph glyph-name="asciitilde" unicode="&#x7e;" horiz-adv-x="1478" d="M396 1131 L247 1255 Q287 1353 334 1416 Q423 1534 550 1534 Q597 1534 645 1518 Q693 1502 841 1438 Q900 1412 943 1412 Q1019 1412 1088 1539 L1237 1415 Q1189 1303 1143 1246 Q1055 1134 932 1134 Q894 1134 856.5 1146.5 Q819 1159 656 1228 Q583 1258 540 1258 Q499 1258 467.5 1230.5 Q436 1203 396 1131 Z " />
<glyph glyph-name="Adieresis" unicode="&#xc4;" horiz-adv-x="1159" d="M430 1365 L730 1365 L1162 0 L857 0 L772 305 L383 305 L297 0 L-3 0 L430 1365 Z M446 526 L711 526 L579 997 L446 526 Z M869 1693 L869 1447 L631 1447 L631 1693 L869 1693 Z M527 1693 L527 1447 L290 1447 L290 1693 L527 1693 Z " />
<glyph glyph-name="Aring" unicode="&#xc5;" horiz-adv-x="1159" d="M430 1365 L730 1365 L1162 0 L857 0 L772 305 L383 305 L297 0 L-3 0 L430 1365 Z M446 526 L711 526 L579 997 L446 526 Z M581 1710 Q544 1710 519 1684 Q494 1658 494 1621 Q494 1584 518.5 1558 Q543 1532 578 1532 Q614 1532 639 1558 Q664 1584 664 1621 Q664 1657 639.5 1683.5 Q615 1710 581 1710 Z M582 1816 Q663 1816 722 1759 Q781 1702 781 1621 Q781 1541 722 1484 Q663 1427 579 1427 Q494 1427 436 1484 Q377 1541 377 1621 Q377 1702 436.5 1759 Q496 1816 582 1816 Z " />
<glyph glyph-name="Ccedilla" unicode="&#xc7;" horiz-adv-x="1230" d="M618 -32 L591 -104 Q615 -94 644 -94 Q731 -94 784 -135.5 Q837 -177 837 -244 Q837 -319 779.5 -364.5 Q722 -410 627 -410 Q550 -410 498.5 -379.5 Q447 -349 439 -299 L569 -299 Q577 -330 621 -330 Q687 -330 687 -251 Q687 -173 620 -173 Q583 -173 573 -200 L446 -200 L513 -18 Q401 7 314 78 Q199 171 135 337 Q75 491 75 679 Q75 1005 246 1209 Q403 1396 654 1396 Q923 1396 1073 1180 Q1158 1057 1169 906 L879 905 Q866 985 836 1035 Q772 1146 650 1146 Q514 1146 442 1017 Q368 883 368 682 Q368 478 445 342 Q515 217 647 217 Q750 217 808 293.5 Q866 370 884 529 L1177 529 Q1161 312 1055 166 Q910 -33 648 -33 Q633 -33 618 -32 Z " />
<glyph glyph-name="Eacute" unicode="&#xc9;" horiz-adv-x="1120" d="M138 0 L138 1365 L1009 1365 L1009 1115 L431 1115 L431 823 L959 823 L959 585 L431 585 L431 250 L1021 250 L1021 0 L138 0 Z M859 1720 L661 1474 L428 1474 L612 1720 L859 1720 Z " />
<glyph glyph-name="Ntilde" unicode="&#xd1;" horiz-adv-x="1282" d="M138 0 L138 1365 L434 1366 L862 487 L862 1365 L1143 1365 L1143 0 L850 0 L419 877 L419 0 L138 0 Z M949 1734 Q911 1481 745 1481 Q719 1481 705 1485.5 Q691 1490 631 1517 Q539 1557 524 1557 Q481 1557 465 1475 L331 1475 Q332 1485 333 1490 Q348 1593 403 1659.5 Q458 1726 528 1726 Q572 1726 646 1691 Q722 1656 752 1656 Q774 1656 787.5 1672 Q801 1688 816 1734 L949 1734 Z " />
<glyph glyph-name="Odieresis" unicode="&#xd6;" horiz-adv-x="1313" d="M660 1396 Q903 1396 1060 1220 Q1239 1021 1239 682 Q1239 392 1104 197 Q1024 82 902 21 Q793 -33 660 -33 Q370 -33 207 202 Q75 392 75 692 Q75 1018 246 1212 Q408 1396 660 1396 Z M658 1146 Q522 1146 448 1019 Q368 881 368 690 Q368 480 447 344 Q480 287 539 252 Q598 217 661 217 Q721 217 774.5 248.5 Q828 280 861 335 Q946 476 946 686 Q946 884 868 1019 Q794 1146 658 1146 Z M946 1693 L946 1447 L708 1447 L708 1693 L946 1693 Z M604 1693 L604 1447 L367 1447 L367 1693 L604 1693 Z " />
<glyph glyph-name="Udieresis" unicode="&#xdc;" horiz-adv-x="1250" d="M117 1365 L398 1365 L398 570 Q398 375 452 298 Q510 217 630 217 Q760 217 807 328 Q840 404 840 571 L840 1365 L1133 1365 L1133 586 Q1133 402 1107 307 Q1062 144 945 55 Q829 -33 624 -33 Q330 -33 203 165 Q156 239 136.5 335 Q117 431 117 590 L117 1365 Z M915 1693 L915 1447 L677 1447 L677 1693 L915 1693 Z M573 1693 L573 1447 L336 1447 L336 1693 L573 1693 Z " />
<glyph glyph-name="aacute" unicode="&#xe1;" horiz-adv-x="1014" d="M1001 189 L1001 12 Q944 -12 881 -12 Q752 -12 686 90 Q637 42 596 19 Q509 -29 382 -29 Q237 -29 151 35 Q47 112 47 247 Q47 350 109 427 Q171 504 278 535 Q385 566 636 572 L636 648 Q636 726 602 760.5 Q568 795 490 795 Q380 795 368 690 L84 690 Q93 823 194 896 Q299 971 480 971 Q742 971 852 863 Q897 819 911 764.5 Q925 710 925 575 L925 260 Q925 214 934.5 196.5 Q944 179 969 179 Q979 179 1001 189 Z M636 429 Q526 425 465 410 Q400 395 364 357.5 Q328 320 328 268 Q328 219 356.5 191.5 Q385 164 435 164 Q540 164 598 252 Q636 309 636 379 L636 429 Z M802 1365 L591 1092 L374 1092 L568 1365 L802 1365 Z " />
<glyph glyph-name="agrave" unicode="&#xe0;" horiz-adv-x="1014" d="M1001 189 L1001 12 Q944 -12 881 -12 Q752 -12 686 90 Q637 42 596 19 Q509 -29 382 -29 Q237 -29 151 35 Q47 112 47 247 Q47 350 109 427 Q171 504 278 535 Q385 566 636 572 L636 648 Q636 726 602 760.5 Q568 795 490 795 Q380 795 368 690 L84 690 Q93 823 194 896 Q299 971 480 971 Q742 971 852 863 Q897 819 911 764.5 Q925 710 925 575 L925 260 Q925 214 934.5 196.5 Q944 179 969 179 Q979 179 1001 189 Z M636 429 Q526 425 465 410 Q400 395 364 357.5 Q328 320 328 268 Q328 219 356.5 191.5 Q385 164 435 164 Q540 164 598 252 Q636 309 636 379 L636 429 Z M328 1365 L549 1365 L732 1092 L527 1092 L328 1365 Z " />
<glyph glyph-name="acircumflex" unicode="&#xe2;" horiz-adv-x="1014" d="M1001 189 L1001 12 Q944 -12 881 -12 Q752 -12 686 90 Q637 42 596 19 Q509 -29 382 -29 Q237 -29 151 35 Q47 112 47 247 Q47 350 109 427 Q171 504 278 535 Q385 566 636 572 L636 648 Q636 726 602 760.5 Q568 795 490 795 Q380 795 368 690 L84 690 Q93 823 194 896 Q299 971 480 971 Q742 971 852 863 Q897 819 911 764.5 Q925 710 925 575 L925 260 Q925 214 934.5 196.5 Q944 179 969 179 Q979 179 1001 189 Z M636 429 Q526 425 465 410 Q400 395 364 357.5 Q328 320 328 268 Q328 219 356.5 191.5 Q385 164 435 164 Q540 164 598 252 Q636 309 636 379 L636 429 Z M828 1092 L610 1092 L510 1239 L408 1092 L200 1092 L393 1365 L634 1365 L828 1092 Z " />
<glyph glyph-name="adieresis" unicode="&#xe4;" horiz-adv-x="1014" d="M1001 189 L1001 12 Q944 -12 881 -12 Q752 -12 686 90 Q637 42 596 19 Q509 -29 382 -29 Q237 -29 151 35 Q47 112 47 247 Q47 350 109 427 Q171 504 278 535 Q385 566 636 572 L636 648 Q636 726 602 760.5 Q568 795 490 795 Q380 795 368 690 L84 690 Q93 823 194 896 Q299 971 480 971 Q742 971 852 863 Q897 819 911 764.5 Q925 710 925 575 L925 260 Q925 214 934.5 196.5 Q944 179 969 179 Q979 179 1001 189 Z M636 429 Q526 425 465 410 Q400 395 364 357.5 Q328 320 328 268 Q328 219 356.5 191.5 Q385 164 435 164 Q540 164 598 252 Q636 309 636 379 L636 429 Z M821 1324 L821 1078 L568 1078 L568 1324 L821 1324 Z M458 1324 L458 1078 L207 1078 L207 1324 L458 1324 Z " />
<glyph glyph-name="atilde" unicode="&#xe3;" horiz-adv-x="1014" d="M1001 189 L1001 12 Q944 -12 881 -12 Q752 -12 686 90 Q637 42 596 19 Q509 -29 382 -29 Q237 -29 151 35 Q47 112 47 247 Q47 350 109 427 Q171 504 278 535 Q385 566 636 572 L636 648 Q636 726 602 760.5 Q568 795 490 795 Q380 795 368 690 L84 690 Q93 823 194 896 Q299 971 480 971 Q742 971 852 863 Q897 819 911 764.5 Q925 710 925 575 L925 260 Q925 214 934.5 196.5 Q944 179 969 179 Q979 179 1001 189 Z M636 429 Q526 425 465 410 Q400 395 364 357.5 Q328 320 328 268 Q328 219 356.5 191.5 Q385 164 435 164 Q540 164 598 252 Q636 309 636 379 L636 429 Z M820 1359 Q785 1105 622 1105 Q583 1105 553 1116 Q523 1127 445 1169 Q418 1184 398 1184 Q356 1184 341 1099 L207 1099 Q223 1219 275.5 1287 Q328 1355 406 1355 Q452 1355 523 1320 Q600 1281 628 1281 Q649 1281 661 1297.5 Q673 1314 688 1359 L820 1359 Z " />
<glyph glyph-name="aring" unicode="&#xe5;" horiz-adv-x="1014" d="M1001 189 L1001 12 Q944 -12 881 -12 Q752 -12 686 90 Q637 42 596 19 Q509 -29 382 -29 Q237 -29 151 35 Q47 112 47 247 Q47 350 109 427 Q171 504 278 535 Q385 566 636 572 L636 648 Q636 726 602 760.5 Q568 795 490 795 Q380 795 368 690 L84 690 Q93 823 194 896 Q299 971 480 971 Q742 971 852 863 Q897 819 911 764.5 Q925 710 925 575 L925 260 Q925 214 934.5 196.5 Q944 179 969 179 Q979 179 1001 189 Z M636 429 Q526 425 465 410 Q400 395 364 357.5 Q328 320 328 268 Q328 219 356.5 191.5 Q385 164 435 164 Q540 164 598 252 Q636 309 636 379 L636 429 Z M509 1349 Q470 1349 443.5 1323 Q417 1297 417 1258 Q417 1220 443 1194 Q469 1168 507 1168 Q544 1168 570.5 1194.5 Q597 1221 597 1258 Q597 1295 571 1322 Q545 1349 509 1349 Z M511 1460 Q599 1460 662 1402 Q726 1343 726 1258 Q726 1177 663 1118 Q599 1058 508 1058 Q416 1058 353 1117 Q289 1176 289 1258 Q289 1343 353.5 1401.5 Q418 1460 511 1460 Z " />
<glyph glyph-name="ccedilla" unicode="&#xe7;" horiz-adv-x="957" d="M493 -29 L463 -108 Q487 -96 523 -96 Q605 -96 655.5 -137 Q706 -178 706 -244 Q706 -319 649.5 -364.5 Q593 -410 500 -410 Q423 -410 371.5 -379.5 Q320 -349 312 -299 L441 -299 Q449 -330 493 -330 Q561 -330 561 -253 Q561 -216 542.5 -194.5 Q524 -173 493 -173 Q455 -173 445 -200 L315 -200 L380 -17 Q292 1 221 51 Q27 187 27 465 Q27 711 177 851 Q304 971 504 971 Q691 971 808.5 874.5 Q926 778 942 611 L650 610 Q622 774 497 774 Q407 774 358 692 Q308 608 308 468 Q308 328 357 248 Q406 168 492 168 Q560 168 602.5 218.5 Q645 269 657 362 L943 362 Q920 184 806 80 Q688 -29 493 -29 Z " />
<glyph glyph-name="eacute" unicode="&#xe9;" horiz-adv-x="975" d="M950 403 L324 403 Q328 312 351 258 Q392 159 509 159 Q603 159 644 221 L926 221 Q906 157 851 99 Q729 -29 509 -29 Q290 -29 162 100 Q27 237 27 466 Q27 678 150 819 Q282 971 493 971 Q661 971 778 870 Q863 796 904 685.5 Q945 575 950 403 Z M653 571 Q647 636 628 681 Q585 783 491 783 Q423 783 379 726.5 Q335 670 325 571 L653 571 Z M774 1365 L563 1092 L346 1092 L540 1365 L774 1365 Z " />
<glyph glyph-name="egrave" unicode="&#xe8;" horiz-adv-x="975" d="M950 403 L324 403 Q328 312 351 258 Q392 159 509 159 Q603 159 644 221 L926 221 Q906 157 851 99 Q729 -29 509 -29 Q290 -29 162 100 Q27 237 27 466 Q27 678 150 819 Q282 971 493 971 Q661 971 778 870 Q863 796 904 685.5 Q945 575 950 403 Z M653 571 Q647 636 628 681 Q585 783 491 783 Q423 783 379 726.5 Q335 670 325 571 L653 571 Z M302 1365 L523 1365 L706 1092 L501 1092 L302 1365 Z " />
<glyph glyph-name="ecircumflex" unicode="&#xea;" horiz-adv-x="975" d="M950 403 L324 403 Q328 312 351 258 Q392 159 509 159 Q603 159 644 221 L926 221 Q906 157 851 99 Q729 -29 509 -29 Q290 -29 162 100 Q27 237 27 466 Q27 678 150 819 Q282 971 493 971 Q661 971 778 870 Q863 796 904 685.5 Q945 575 950 403 Z M653 571 Q647 636 628 681 Q585 783 491 783 Q423 783 379 726.5 Q335 670 325 571 L653 571 Z M803 1092 L585 1092 L485 1239 L383 1092 L175 1092 L368 1365 L609 1365 L803 1092 Z " />
<glyph glyph-name="edieresis" unicode="&#xeb;" horiz-adv-x="975" d="M950 403 L324 403 Q328 312 351 258 Q392 159 509 159 Q603 159 644 221 L926 221 Q906 157 851 99 Q729 -29 509 -29 Q290 -29 162 100 Q27 237 27 466 Q27 678 150 819 Q282 971 493 971 Q661 971 778 870 Q863 796 904 685.5 Q945 575 950 403 Z M653 571 Q647 636 628 681 Q585 783 491 783 Q423 783 379 726.5 Q335 670 325 571 L653 571 Z M796 1324 L796 1078 L543 1078 L543 1324 L796 1324 Z M433 1324 L433 1078 L182 1078 L182 1324 L433 1324 Z " />
<glyph glyph-name="iacute" unicode="&#xed;" horiz-adv-x="526" d="M122 0 L122 942 L403 942 L403 0 L122 0 Z M548 1365 L337 1092 L120 1092 L314 1365 L548 1365 Z " />
<glyph glyph-name="igrave" unicode="&#xec;" horiz-adv-x="526" d="M122 0 L122 942 L403 942 L403 0 L122 0 Z M76 1365 L297 1365 L480 1092 L275 1092 L76 1365 Z " />
<glyph glyph-name="icircumflex" unicode="&#xee;" horiz-adv-x="526" d="M122 0 L122 942 L403 942 L403 0 L122 0 Z M577 1092 L359 1092 L259 1239 L157 1092 L-51 1092 L142 1365 L383 1365 L577 1092 Z " />
<glyph glyph-name="idieresis" unicode="&#xef;" horiz-adv-x="526" d="M122 0 L122 942 L403 942 L403 0 L122 0 Z M515 1324 L515 1078 L317 1078 L317 1324 L515 1324 Z M207 1324 L207 1078 L11 1078 L11 1324 L207 1324 Z " />
<glyph glyph-name="ntilde" unicode="&#xf1;" horiz-adv-x="1040" d="M85 0 L85 942 L368 942 L368 855 Q467 971 630 971 Q819 971 906 845 Q960 767 960 601 L960 0 L679 0 L679 557 Q679 655 657 695 Q622 758 542 758 Q438 758 391 657 Q366 605 366 464 L366 0 L85 0 Z M829 1359 Q794 1105 631 1105 Q592 1105 562 1116 Q532 1127 454 1169 Q427 1184 407 1184 Q365 1184 350 1099 L216 1099 Q232 1219 284.5 1287 Q337 1355 415 1355 Q461 1355 532 1320 Q609 1281 637 1281 Q658 1281 670 1297.5 Q682 1314 697 1359 L829 1359 Z " />
<glyph glyph-name="oacute" unicode="&#xf3;" horiz-adv-x="1003" d="M503 971 Q715 971 845 838 Q979 703 979 465 Q979 234 837 96 Q708 -29 502 -29 Q283 -29 152 111 Q23 248 23 472 Q23 691 148 825 Q284 971 503 971 Z M491 774 Q405 774 354.5 692.5 Q304 611 304 472 Q304 331 353 251 Q403 168 494 168 Q580 168 628 244 Q681 328 681 468 Q681 608 634 687 Q583 774 491 774 Z M786 1365 L575 1092 L358 1092 L552 1365 L786 1365 Z " />
<glyph glyph-name="ograve" unicode="&#xf2;" horiz-adv-x="1003" d="M503 971 Q715 971 845 838 Q979 703 979 465 Q979 234 837 96 Q708 -29 502 -29 Q283 -29 152 111 Q23 248 23 472 Q23 691 148 825 Q284 971 503 971 Z M491 774 Q405 774 354.5 692.5 Q304 611 304 472 Q304 331 353 251 Q403 168 494 168 Q580 168 628 244 Q681 328 681 468 Q681 608 634 687 Q583 774 491 774 Z M315 1365 L536 1365 L719 1092 L514 1092 L315 1365 Z " />
<glyph glyph-name="ocircumflex" unicode="&#xf4;" horiz-adv-x="1003" d="M503 971 Q715 971 845 838 Q979 703 979 465 Q979 234 837 96 Q708 -29 502 -29 Q283 -29 152 111 Q23 248 23 472 Q23 691 148 825 Q284 971 503 971 Z M491 774 Q405 774 354.5 692.5 Q304 611 304 472 Q304 331 353 251 Q403 168 494 168 Q580 168 628 244 Q681 328 681 468 Q681 608 634 687 Q583 774 491 774 Z M815 1092 L597 1092 L497 1239 L395 1092 L187 1092 L380 1365 L621 1365 L815 1092 Z " />
<glyph glyph-name="odieresis" unicode="&#xf6;" horiz-adv-x="1003" d="M503 971 Q715 971 845 838 Q979 703 979 465 Q979 234 837 96 Q708 -29 502 -29 Q283 -29 152 111 Q23 248 23 472 Q23 691 148 825 Q284 971 503 971 Z M491 774 Q405 774 354.5 692.5 Q304 611 304 472 Q304 331 353 251 Q403 168 494 168 Q580 168 628 244 Q681 328 681 468 Q681 608 634 687 Q583 774 491 774 Z M808 1324 L808 1078 L555 1078 L555 1324 L808 1324 Z M445 1324 L445 1078 L194 1078 L194 1324 L445 1324 Z " />
<glyph glyph-name="otilde" unicode="&#xf5;" horiz-adv-x="1003" d="M503 971 Q715 971 845 838 Q979 703 979 465 Q979 234 837 96 Q708 -29 502 -29 Q283 -29 152 111 Q23 248 23 472 Q23 691 148 825 Q284 971 503 971 Z M491 774 Q405 774 354.5 692.5 Q304 611 304 472 Q304 331 353 251 Q403 168 494 168 Q580 168 628 244 Q681 328 681 468 Q681 608 634 687 Q583 774 491 774 Z M807 1359 Q772 1105 609 1105 Q570 1105 540 1116 Q510 1127 432 1169 Q405 1184 385 1184 Q343 1184 328 1099 L194 1099 Q210 1219 262.5 1287 Q315 1355 393 1355 Q439 1355 510 1320 Q587 1281 615 1281 Q636 1281 648 1297.5 Q660 1314 675 1359 L807 1359 Z " />
<glyph glyph-name="uacute" unicode="&#xfa;" horiz-adv-x="1040" d="M954 942 L954 0 L671 0 L671 87 Q573 -29 409 -29 Q219 -29 133 97 Q79 175 79 341 L79 942 L360 942 L360 385 Q360 287 382 247 Q417 184 496 184 Q601 184 647 285 Q672 338 672 478 L672 942 L954 942 Z M802 1365 L591 1092 L374 1092 L568 1365 L802 1365 Z " />
<glyph glyph-name="ugrave" unicode="&#xf9;" horiz-adv-x="1040" d="M954 942 L954 0 L671 0 L671 87 Q573 -29 409 -29 Q219 -29 133 97 Q79 175 79 341 L79 942 L360 942 L360 385 Q360 287 382 247 Q417 184 496 184 Q601 184 647 285 Q672 338 672 478 L672 942 L954 942 Z M330 1365 L551 1365 L734 1092 L529 1092 L330 1365 Z " />
<glyph glyph-name="ucircumflex" unicode="&#xfb;" horiz-adv-x="1040" d="M954 942 L954 0 L671 0 L671 87 Q573 -29 409 -29 Q219 -29 133 97 Q79 175 79 341 L79 942 L360 942 L360 385 Q360 287 382 247 Q417 184 496 184 Q601 184 647 285 Q672 338 672 478 L672 942 L954 942 Z M831 1092 L613 1092 L513 1239 L411 1092 L203 1092 L396 1365 L637 1365 L831 1092 Z " />
<glyph glyph-name="udieresis" unicode="&#xfc;" horiz-adv-x="1040" d="M954 942 L954 0 L671 0 L671 87 Q573 -29 409 -29 Q219 -29 133 97 Q79 175 79 341 L79 942 L360 942 L360 385 Q360 287 382 247 Q417 184 496 184 Q601 184 647 285 Q672 338 672 478 L672 942 L954 942 Z M824 1324 L824 1078 L571 1078 L571 1324 L824 1324 Z M461 1324 L461 1078 L210 1078 L210 1324 L461 1324 Z " />
<glyph glyph-name="dagger" unicode="&#x2020;" horiz-adv-x="1041" d="M937 992 L937 756 L639 756 L639 -350 L399 -350 L399 756 L105 756 L105 992 L399 992 L399 1365 L639 1365 L639 992 L937 992 Z " />
<glyph glyph-name="degree" unicode="&#xb0;" horiz-adv-x="1139" d="M571 1375 Q707 1375 803 1274 Q890 1183 890 1050 Q890 918 794 824 Q701 732 571 732 Q428 732 332 837 Q249 928 249 1053 Q249 1204 358 1296 Q452 1375 571 1375 Z M568 1229 Q504 1229 457 1183 Q401 1128 401 1054 Q401 981 450.5 929.5 Q500 878 570 878 Q638 878 688.5 929 Q739 980 739 1049 Q739 1125 689.5 1177 Q640 1229 568 1229 Z " />
<glyph glyph-name="cent" unicode="&#xa2;" horiz-adv-x="993" d="M578 997 L578 383 Q676 427 694 581 L951 581 Q928 403 817 298 Q726 212 578 193 L578 41 L446 41 L446 194 Q330 210 247 269 Q59 406 59 685 Q59 894 163 1028.5 Q267 1163 446 1185 L446 1324 L578 1324 L578 1185 Q742 1164 838.5 1071.5 Q935 979 949 830 L687 829 Q666 960 578 997 Z M446 988 Q313 915 313 688 Q313 573 345 500.5 Q377 428 446 389 L446 988 Z " />
<glyph glyph-name="sterling" unicode="&#xa3;" horiz-adv-x="934" d="M24 533 L24 732 L171 732 Q160 749 138 780 Q49 911 49 1041 Q49 1202 174 1303 Q283 1392 452 1392 Q714 1392 812 1211 Q858 1125 861 1013 L608 1013 Q603 1159 453 1159 Q383 1159 346 1120 Q307 1077 307 1016 Q307 941 384 827 Q427 763 446 732 L731 732 L731 533 L494 533 Q486 444 455.5 386.5 Q425 329 315 197 Q406 260 453 260 Q482 260 534 220 Q564 197 592 197 Q672 197 683 317 L899 317 Q890 164 835 78 Q767 -29 638 -29 Q570 -29 482 14 Q413 47 350 47 Q295 47 257.5 34 Q220 21 140 -27 L33 145 Q245 289 245 478 Q245 500 241 533 L24 533 Z " />
<glyph glyph-name="section" unicode="&#xa7;" horiz-adv-x="1048" d="M879 1047 L654 1047 Q646 1198 535 1198 Q484 1198 453 1164.5 Q422 1131 422 1076 Q422 1025 449.5 993.5 Q477 962 571 907 Q813 765 882 697 Q966 616 966 484 Q966 383 922.5 308.5 Q879 234 794 190 Q883 94 883 -28 Q883 -179 778 -276 Q677 -369 516 -369 Q349 -369 255 -271 Q161 -173 162 0 L386 0 Q387 -5 388 -13 Q401 -163 510 -163 Q563 -163 595.5 -125 Q628 -87 628 -24 Q628 28 594 71 Q553 121 366 232 Q184 341 135 418 Q82 502 82 605 Q82 704 128 776 Q174 848 257 880 Q187 963 187 1073 Q187 1204 272 1293 Q371 1396 535 1396 Q689 1396 782.5 1301 Q876 1206 879 1047 Z M377 753 Q304 723 304 630 Q304 590 319.5 563.5 Q335 537 377 505 Q438 458 547 389 Q593 360 607 349 Q647 320 668 310 Q700 325 721 364 Q742 403 742 448 Q742 491 724 518 Q706 545 655 578 Q639 588 596 618 Q546 652 446 712 Q393 745 377 753 Z " />
<glyph glyph-name="bullet" unicode="&#x2022;" horiz-adv-x="1606" d="M806 982 Q919 982 1001 899 Q1084 815 1084 696 Q1084 577 1001 493 Q919 410 803 410 Q686 410 604 493 Q521 577 521 695 Q521 817 604 899 Q688 982 806 982 Z " />
<glyph glyph-name="paragraph" unicode="&#xb6;" horiz-adv-x="1269" d="M495 -232 L495 653 Q477 652 469 652 Q336 652 247 732 Q138 828 138 1003 Q138 1106 178.5 1186.5 Q219 1267 292 1311 Q382 1365 558 1365 L1039 1365 L1039 1250 L946 1250 L946 -232 L785 -232 L785 1250 L656 1250 L656 -232 L495 -232 Z " />
<glyph glyph-name="germandbls" unicode="&#xdf;" horiz-adv-x="1061" d="M395 0 L114 0 L114 758 L-18 758 L-18 942 L114 942 Q116 1091 142 1160 Q190 1291 328 1352 Q430 1397 546 1397 Q704 1397 820 1311 Q930 1230 930 1102 Q930 1012 857 920 Q819 873 806 846 Q793 819 793 789 Q793 751 813 720 Q833 689 891 636 Q1030 508 1030 358 Q1030 240 951 138 Q828 -20 583 -20 Q532 -20 478 -12 L478 209 Q515 199 547 199 Q642 199 697 247.5 Q752 296 752 379 Q752 439 728 482.5 Q704 526 636 587 Q566 651 542 689 Q518 727 518 775 Q518 848 589 942 Q650 1024 650 1085 Q650 1135 617 1167 Q584 1199 533 1199 Q456 1199 417 1121 Q395 1076 395 937 L395 0 Z " />
<glyph glyph-name="registered" unicode="&#xae;" horiz-adv-x="1453" d="M734 1254 Q522 1254 376 1090 Q308 1015 269 912 Q226 800 226 681 Q226 570 264.5 464 Q303 358 372 278 Q517 111 725 111 Q937 111 1084 282 Q1227 448 1227 681 Q1227 919 1081 1087 Q1017 1160 938 1201 Q839 1254 734 1254 Z M736 1386 Q917 1386 1074 1273 Q1218 1169 1296 1000 Q1364 849 1364 681 Q1364 396 1181 190 Q995 -20 725 -20 Q460 -20 276 185 Q191 279 142 403 Q89 538 89 680 Q89 884 188 1059 Q280 1221 437 1309 Q575 1386 736 1386 Z M423 273 L423 1092 L746 1092 Q872 1092 943 1037 Q1024 973 1024 857 Q1024 731 927 662 Q977 632 994 584 Q1011 536 1021 400 Q1024 348 1029.5 330.5 Q1035 313 1059 273 L848 273 Q835 303 832 320 Q829 337 824 432 Q819 520 795 551.5 Q771 583 708 583 L623 583 L623 273 L423 273 Z M623 739 L704 739 Q767 739 795.5 762.5 Q824 786 824 837 Q824 886 797 907.5 Q770 929 708 929 L623 929 L623 739 Z " />
<glyph glyph-name="copyright" unicode="&#xa9;" horiz-adv-x="1453" d="M860 607 L1059 607 Q1052 508 1024 445 Q939 254 731 254 Q579 254 488 358 Q380 483 380 681 Q380 875 484 998 Q581 1111 736 1111 Q870 1111 958 1024.5 Q1046 938 1054 799 L857 798 Q833 939 733 939 Q660 939 622 871 Q580 796 580 683 Q580 566 621 496 Q662 426 730 426 Q788 426 818.5 469 Q849 512 860 607 Z M734 1254 Q522 1254 376 1090 Q308 1015 269 912 Q226 800 226 681 Q226 569 264.5 463.5 Q303 358 372 278 Q517 111 725 111 Q937 111 1084 282 Q1227 448 1227 681 Q1227 919 1081 1087 Q1018 1160 938 1201 Q838 1254 734 1254 Z M736 1386 Q917 1386 1074 1273 Q1218 1169 1296 1000 Q1364 849 1364 681 Q1364 396 1181 190 Q995 -20 725 -20 Q460 -20 276 185 Q191 279 142 403 Q89 538 89 680 Q89 884 188 1059 Q280 1221 437 1309 Q575 1386 736 1386 Z " />
<glyph glyph-name="trademark" unicode="&#x2122;" horiz-adv-x="1498" d="M204 546 L204 1193 L9 1193 L9 1365 L601 1365 L601 1193 L404 1193 L404 546 L204 546 Z M657 546 L657 1365 L915 1365 L1048 863 L1177 1365 L1434 1365 L1434 546 L1241 546 L1241 999 L1128 546 L966 546 L850 996 L850 546 L657 546 Z " />
<glyph glyph-name="acute" unicode="&#xb4;" horiz-adv-x="994" d="M789 1365 L578 1092 L361 1092 L555 1365 L789 1365 Z " />
<glyph glyph-name="dieresis" unicode="&#xa8;" horiz-adv-x="994" d="M809 1324 L809 1078 L556 1078 L556 1324 L809 1324 Z M446 1324 L446 1078 L195 1078 L195 1324 L446 1324 Z " />
<glyph glyph-name="notequal" unicode="&#x2260;" horiz-adv-x="1049" d="M369 235 L208 328 L264 425 L53 425 L53 612 L372 612 L461 767 L53 767 L53 954 L569 954 L679 1144 L841 1051 L785 954 L995 954 L995 767 L677 767 L588 612 L995 612 L995 425 L480 425 L369 235 Z " />
<glyph glyph-name="AE" unicode="&#xc6;" horiz-adv-x="1637" d="M723 305 L392 305 L278 0 L-9 0 L536 1365 L1526 1365 L1526 1115 L989 1115 L989 823 L1476 823 L1476 585 L989 585 L989 250 L1538 250 L1538 0 L723 0 L723 305 Z M723 526 L723 1122 L699 1122 L475 526 L723 526 Z " />
<glyph glyph-name="Oslash" unicode="&#xd8;" horiz-adv-x="1313" d="M331 -33 L125 -33 L240 159 Q75 357 75 682 Q75 1016 246 1213 Q406 1397 658 1397 Q812 1397 940 1321 L986 1397 L1189 1397 L1074 1205 Q1239 1004 1239 682 Q1239 392 1104 197 Q1024 82 902 22 Q793 -33 659 -33 Q506 -33 376 42 L331 -33 Z M797 1101 Q733 1147 659 1147 Q522 1147 448 1020 Q368 882 368 685 Q368 549 410 426 L797 1101 Z M520 265 Q591 217 660 217 Q720 217 774 248.5 Q828 280 861 335 Q946 475 946 687 Q946 822 905 937 L520 265 Z " />
<glyph glyph-name="infinity" unicode="&#x221e;" horiz-adv-x="1387" d="M698 564 Q650 505 610 468 Q505 372 367 372 Q223 372 131 470 Q47 559 47 698 Q47 840 138 929 Q229 1019 366 1019 Q543 1019 689 828 Q835 1018 1020 1018 Q1173 1018 1265 912 Q1340 825 1340 695 Q1340 554 1252 465 Q1161 373 1021 373 Q928 373 853 417.5 Q778 462 698 564 Z M793 696 Q890 552 992 552 Q1052 552 1092.5 593 Q1133 634 1133 695 Q1133 756 1092 797 Q1051 838 991 838 Q890 838 793 696 Z M594 695 Q541 774 495 807 Q449 840 393 840 Q332 840 293 799.5 Q254 759 254 695 Q254 633 294 592.5 Q334 552 395 552 Q450 552 496 585 Q542 618 594 695 Z " />
<glyph glyph-name="plusminus" unicode="&#xb1;" horiz-adv-x="1049" d="M53 870 L427 870 L427 1217 L622 1217 L622 870 L995 870 L995 683 L622 683 L622 335 L427 335 L427 683 L53 683 L53 870 Z M53 187 L995 187 L995 0 L53 0 L53 187 Z " />
<glyph glyph-name="lessequal" unicode="&#x2264;" horiz-adv-x="1065" d="M976 1318 L976 1033 L422 853 L976 675 L976 390 L89 726 L89 982 L976 1318 Z M976 334 L976 67 L89 67 L89 334 L976 334 Z " />
<glyph glyph-name="greaterequal" unicode="&#x2265;" horiz-adv-x="1065" d="M89 1318 L976 982 L976 726 L89 390 L89 675 L643 853 L89 1033 L89 1318 Z M89 334 L976 334 L976 67 L89 67 L89 334 Z " />
<glyph glyph-name="yen" unicode="&#xa5;" horiz-adv-x="1180" d="M724 0 L456 0 L456 227 L164 227 L164 404 L456 404 L456 500 L164 500 L164 677 L456 677 L106 1365 L413 1365 L593 969 L773 1365 L1074 1365 L726 677 L1015 677 L1015 500 L724 500 L724 404 L1015 404 L1015 227 L724 227 L724 0 Z " />
<glyph glyph-name="mu" unicode="&#xb5;" horiz-adv-x="1055" d="M393 -28 L393 -355 L112 -355 L112 942 L393 942 L393 385 Q393 287 412 247 Q441 184 508 184 Q597 184 636 285 Q657 338 657 478 L657 942 L938 942 L938 0 L667 0 L667 87 Q574 -29 423 -29 Q415 -29 393 -28 Z " />
<glyph glyph-name="partialdiff" unicode="&#x2202;" horiz-adv-x="1019" d="M307 1297 L439 1394 Q577 1313 702 1165 Q814 1033 884 854 Q961 657 961 468 Q961 233 827 96 Q705 -29 511 -29 Q305 -29 181 111 Q59 247 59 472 Q59 689 177 825 Q303 971 509 971 Q535 971 561 962 Q465 1165 307 1297 Z M509 774 Q431 774 385.5 692.5 Q340 611 340 472 Q340 332 384 251 Q429 168 511 168 Q589 168 634.5 249 Q680 330 680 468 Q680 608 637 687 Q591 774 509 774 Z " />
<glyph glyph-name="summation" unicode="&#x2211;" horiz-adv-x="1409" d="M1291 1536 L1291 1016 L1030 1016 L999 1270 L414 1270 L910 544 L416 -246 L1018 -246 L1035 17 L1310 17 L1310 -512 L90 -512 L90 -206 L568 544 L90 1230 L90 1536 L1291 1536 Z " />
<glyph glyph-name="product" unicode="&#x220f;" horiz-adv-x="1389" d="M51 1536 L1338 1536 L1338 1304 L1190 1304 L1190 -280 L1338 -280 L1338 -512 L797 -512 L797 -280 L931 -280 L931 1304 L458 1304 L458 -280 L589 -280 L589 -512 L51 -512 L51 -280 L201 -280 L201 1304 L51 1304 L51 1536 Z " />
<glyph glyph-name="integral" unicode="&#x222b;" horiz-adv-x="1084" d="M129 -491 L178 -218 Q228 -238 264 -238 Q303 -238 333.5 -220 Q364 -202 375 -172 Q383 -150 385 -114.5 Q387 -79 387 51 L387 920 Q387 1098 391 1168 Q395 1238 408 1290 Q437 1404 537.5 1470 Q638 1536 782 1536 Q843 1536 955 1515 L906 1242 Q855 1262 817 1262 Q744 1262 715 1208 Q697 1175 697 1067 L697 23 Q697 -182 678 -260 Q651 -367 548 -439 Q448 -510 260 -510 Q205 -510 152 -496 Q139 -493 129 -491 Z " />
<glyph glyph-name="ordfeminine" unicode="&#xaa;" horiz-adv-x="586" d="M587 692 L587 565 Q546 539 505 539 Q438 539 396 591 Q329 529 229 529 Q144 529 92 569 Q29 618 29 702 Q29 765 66 811.5 Q103 858 167 877 Q226 894 357 898 L357 936 Q357 1008 296 1008 Q264 1008 250 991 Q236 974 233 931 L49 931 Q57 1137 297 1137 Q436 1137 500 1070 Q528 1042 536.5 1008.5 Q545 975 545 893 L545 711 Q545 678 559 678 Q569 678 587 692 Z M357 794 Q281 789 251.5 771.5 Q222 754 222 715 Q222 668 265 668 Q303 668 330 700.5 Q357 733 357 780 L357 794 Z " />
<glyph glyph-name="ordmasculine" unicode="&#xba;" horiz-adv-x="593" d="M298 1137 Q422 1137 499 1056 Q577 973 577 829 Q577 690 494 606 Q418 529 298 529 Q170 529 92 615 Q17 698 17 833 Q17 966 90 1048 Q170 1137 298 1137 Z M296 996 Q257 996 233.5 952 Q210 908 210 833 Q210 757 233.5 713.5 Q257 670 298 670 Q337 670 360.5 713.5 Q384 757 384 832 Q384 909 360.5 952.5 Q337 996 296 996 Z " />
<glyph glyph-name="Omega" unicode="&#x2126;" horiz-adv-x="1313" d="M85 0 L85 251 L292 251 Q75 432 75 747 Q75 1028 251 1218 Q416 1396 654 1396 Q899 1396 1066 1215 Q1238 1029 1238 747 Q1238 431 1021 251 L1228 251 L1228 0 L732 0 L732 232 Q820 289 869 380 Q945 521 945 700 Q945 886 863 1017 Q784 1144 660 1144 Q531 1144 449 1017 Q368 890 368 699 Q368 536 422.5 417 Q477 298 581 232 L581 0 L85 0 Z " />
<glyph glyph-name="ae" unicode="&#xe6;" horiz-adv-x="1512" d="M1508 409 L882 409 Q886 316 908 261 Q950 159 1068 159 Q1163 159 1206 221 L1489 221 Q1467 155 1413 99 Q1289 -29 1074 -29 Q833 -29 717 170 Q680 116 645 81 Q534 -29 354 -29 Q216 -29 130 35 Q26 112 26 247 Q26 395 143 480 Q212 529 306.5 547.5 Q401 566 615 572 L615 648 Q615 795 480 795 Q359 795 347 690 L63 690 Q72 825 179.5 898 Q287 971 476 971 Q582 971 653 942.5 Q724 914 781 849 Q895 971 1060 971 Q1217 971 1335 871 Q1421 798 1461.5 689.5 Q1502 581 1508 409 Z M615 429 Q505 424 444 410 Q379 394 343 357 Q307 320 307 268 Q307 219 335.5 191.5 Q364 164 414 164 Q519 164 577 251 Q615 308 615 378 L615 429 Z M1210 570 Q1204 635 1185 680 Q1143 782 1048 782 Q980 782 936 726 Q892 670 883 570 L1210 570 Z " />
<glyph glyph-name="oslash" unicode="&#xf8;" horiz-adv-x="1003" d="M218 -29 L25 -29 L139 125 Q23 264 23 473 Q23 689 148 825 Q282 971 504 971 Q635 971 744 914 L788 971 L977 971 L864 818 Q979 682 979 472 Q979 234 837 97 Q708 -29 503 -29 Q370 -29 261 28 L218 -29 Z M407 204 Q454 168 502 168 Q585 168 633 249 Q681 330 681 472 Q681 524 673 580 L407 204 Z M598 736 Q548 774 495 774 Q403 774 354 689 Q304 603 304 488 Q304 418 330 360 L598 736 Z " />
<glyph glyph-name="questiondown" unicode="&#xbf;" horiz-adv-x="1002" d="M889 15 Q889 8 888 -7 Q880 -164 783 -259 Q671 -369 478 -369 Q301 -369 195 -271 Q89 -172 89 -16 Q89 79 132 152 Q175 225 278 303 Q322 337 339.5 359.5 Q357 382 369 421 Q379 453 381 517 L381 528 L614 528 Q614 520 614 514 Q611 367 578 303 Q563 274 545.5 255 Q528 236 445 161 Q391 112 378 86 Q355 41 355 -5 Q355 -62 389.5 -97 Q424 -132 481 -132 Q628 -132 636 15 L889 15 Z M644 942 L644 648 L344 648 L344 942 L644 942 Z " />
<glyph glyph-name="exclamdown" unicode="&#xa1;" horiz-adv-x="620" d="M176 -355 L176 54 L243 526 L378 526 L444 59 L444 -355 L176 -355 Z M460 942 L460 648 L160 648 L160 942 L460 942 Z " />
<glyph glyph-name="logicalnot" unicode="&#xac;" horiz-adv-x="1065" d="M678 0 L678 327 L89 327 L89 594 L976 594 L976 0 L678 0 Z " />
<glyph glyph-name="radical" unicode="&#x221a;" horiz-adv-x="1365" d="M1365 1693 L1365 1454 L1018 1454 L642 0 L306 0 L180 528 L0 528 L0 767 L345 767 L404 545 Q418 490 448 256 L464 256 Q491 430 518.5 562 Q546 694 602 909 L806 1693 L1365 1693 Z " />
<glyph glyph-name="florin" unicode="&#x192;" horiz-adv-x="662" d="M172 758 L40 758 L40 942 L198 942 L210 1026 Q225 1135 248 1196 Q271 1257 313 1300 Q407 1397 587 1397 Q591 1397 703 1390 L674 1186 Q631 1192 602 1192 Q549 1192 528 1164 Q507 1136 495 1050 L479 942 L632 942 L632 758 L453 758 L316 -218 L35 -218 L172 758 Z " />
<glyph glyph-name="approxequal" unicode="&#x2248;" horiz-adv-x="1034" d="M171 713 L22 817 Q65 919 108 977 Q198 1096 325 1096 Q392 1096 544 1029 Q674 972 718 972 Q761 972 793.5 997 Q826 1022 863 1082 L1012 977 Q962 861 915 804 Q829 697 710 697 Q670 697 630.5 710 Q591 723 435 789 Q359 821 314 821 Q240 821 171 713 Z M171 271 L22 376 Q65 478 108 535 Q198 654 326 654 Q393 654 544 589 Q673 533 720 533 Q761 533 793.5 557.5 Q826 582 863 640 L1012 536 Q961 419 915 362 Q829 255 711 255 Q670 255 631.5 267.5 Q593 280 435 346 Q359 378 314 378 Q240 378 171 271 Z " />
<glyph glyph-name="increment" unicode="&#x2206;" horiz-adv-x="1159" d="M430 1365 L730 1365 L1162 0 L-3 0 L430 1365 Z M579 997 L359 221 L796 221 L579 997 Z " />
<glyph glyph-name="guillemotleft" unicode="&#xab;" horiz-adv-x="825" d="M379 893 L379 644 L232 504 L379 370 L379 127 L106 382 L106 631 L379 893 Z M692 890 L692 642 L547 506 L692 372 L692 131 L420 385 L420 633 L692 890 Z " />
<glyph glyph-name="guillemotright" unicode="&#xbb;" horiz-adv-x="825" d="M445 893 L719 632 L719 383 L445 127 L445 369 L592 504 L445 643 L445 893 Z M133 890 L403 633 L403 385 L133 131 L133 371 L277 506 L133 641 L133 890 Z " />
<glyph glyph-name="ellipsis" unicode="&#x2026;" horiz-adv-x="1704" d="M460 294 L460 0 L160 0 L160 294 L460 294 Z M1002 294 L1002 0 L702 0 L702 294 L1002 294 Z M1544 294 L1544 0 L1244 0 L1244 294 L1544 294 Z " />
<glyph glyph-name="Agrave" unicode="&#xc0;" horiz-adv-x="1159" d="M430 1365 L730 1365 L1162 0 L857 0 L772 305 L383 305 L297 0 L-3 0 L430 1365 Z M446 526 L711 526 L579 997 L446 526 Z M292 1720 L540 1720 L723 1474 L491 1474 L292 1720 Z " />
<glyph glyph-name="Atilde" unicode="&#xc3;" horiz-adv-x="1159" d="M430 1365 L730 1365 L1162 0 L857 0 L772 305 L383 305 L297 0 L-3 0 L430 1365 Z M446 526 L711 526 L579 997 L446 526 Z M888 1734 Q850 1481 684 1481 Q658 1481 644 1485.5 Q630 1490 570 1517 Q478 1557 463 1557 Q420 1557 404 1475 L270 1475 Q271 1485 272 1490 Q287 1593 342 1659.5 Q397 1726 467 1726 Q511 1726 585 1691 Q661 1656 691 1656 Q713 1656 726.5 1672 Q740 1688 755 1734 L888 1734 Z " />
<glyph glyph-name="Otilde" unicode="&#xd5;" horiz-adv-x="1313" d="M660 1396 Q903 1396 1060 1220 Q1239 1021 1239 682 Q1239 392 1104 197 Q1024 82 902 21 Q793 -33 660 -33 Q370 -33 207 202 Q75 392 75 692 Q75 1018 246 1212 Q408 1396 660 1396 Z M658 1146 Q522 1146 448 1019 Q368 881 368 690 Q368 480 447 344 Q480 287 539 252 Q598 217 661 217 Q721 217 774.5 248.5 Q828 280 861 335 Q946 476 946 686 Q946 884 868 1019 Q794 1146 658 1146 Z M966 1734 Q928 1481 762 1481 Q736 1481 722 1485.5 Q708 1490 648 1517 Q556 1557 541 1557 Q498 1557 482 1475 L348 1475 Q349 1485 350 1490 Q365 1593 420 1659.5 Q475 1726 545 1726 Q589 1726 663 1691 Q739 1656 769 1656 Q791 1656 804.5 1672 Q818 1688 833 1734 L966 1734 Z " />
<glyph glyph-name="OE" unicode="&#x152;" horiz-adv-x="1820" d="M1711 1365 L1711 1115 L1160 1115 L1160 823 L1661 823 L1661 585 L1160 585 L1160 250 L1722 250 L1722 0 L908 0 L908 111 Q789 -33 613 -33 Q447 -33 308 82 Q75 276 75 683 Q75 1017 238 1213 Q316 1306 429 1356 Q521 1397 619 1397 Q787 1397 908 1252 L908 1365 L1711 1365 Z M644 1147 Q515 1147 444 1020 Q368 882 368 691 Q368 481 443 344 Q475 287 531 252 Q587 217 647 217 Q704 217 755 248.5 Q806 280 837 335 Q918 476 918 686 Q918 885 844 1019 Q774 1147 644 1147 Z " />
<glyph glyph-name="oe" unicode="&#x153;" horiz-adv-x="1544" d="M1542 403 L917 403 Q921 312 943 258 Q985 159 1103 159 Q1202 159 1246 221 L1528 221 Q1507 156 1452 99 Q1327 -29 1110 -29 Q999 -29 922 8.5 Q845 46 785 129 Q673 -29 471 -29 Q262 -29 131 111 Q2 248 2 472 Q2 689 127 826 Q261 971 473 971 Q675 971 789 809 Q901 971 1095 971 Q1252 971 1370 870 Q1456 796 1496.5 686.5 Q1537 577 1542 403 Z M470 775 Q384 775 333.5 693.5 Q283 612 283 473 Q283 332 332 251 Q382 168 473 168 Q559 168 607 244 Q660 328 660 469 Q660 609 613 689 Q562 775 470 775 Z M1245 571 Q1239 636 1220 681 Q1177 783 1084 783 Q1015 783 971 726.5 Q927 670 918 571 L1245 571 Z " />
<glyph glyph-name="endash" unicode="&#x2013;" horiz-adv-x="1057" d="M925 633 L925 387 L132 387 L132 633 L925 633 Z " />
<glyph glyph-name="emdash" unicode="&#x2014;" horiz-adv-x="1539" d="M1427 633 L1427 387 L117 387 L117 633 L1427 633 Z " />
<glyph glyph-name="quotedblleft" unicode="&#x201c;" horiz-adv-x="1016" d="M160 772 L160 1001 Q160 1122 189 1194 Q218 1266 287 1318 Q359 1372 460 1386 L460 1242 Q340 1209 333 1066 L460 1066 L460 772 L160 772 Z M556 772 L556 1001 Q556 1122 585 1194 Q614 1266 683 1318 Q755 1371 856 1386 L856 1242 Q736 1210 729 1066 L856 1066 L856 772 L556 772 Z " />
<glyph glyph-name="quotedblright" unicode="&#x201d;" horiz-adv-x="1016" d="M460 1365 L460 1137 Q460 1015 431 943 Q402 871 333 819 Q261 766 160 751 L160 895 Q280 927 287 1071 L160 1071 L160 1365 L460 1365 Z M856 1365 L856 1137 Q856 1015 827.5 943 Q799 871 729 819 Q657 766 556 751 L556 895 Q676 927 683 1071 L556 1071 L556 1365 L856 1365 Z " />
<glyph glyph-name="quoteleft" unicode="&#x2018;" horiz-adv-x="620" d="M160 772 L160 1001 Q160 1122 189 1194 Q218 1266 287 1318 Q359 1372 460 1386 L460 1242 Q340 1209 333 1066 L460 1066 L460 772 L160 772 Z " />
<glyph glyph-name="quoteright" unicode="&#x2019;" horiz-adv-x="620" d="M460 1365 L460 1137 Q460 1015 431 943 Q402 871 333 819 Q261 766 160 751 L160 895 Q280 927 287 1071 L160 1071 L160 1365 L460 1365 Z " />
<glyph glyph-name="divide" unicode="&#xf7;" horiz-adv-x="1049" d="M624 1131 L624 902 L424 902 L424 1131 L624 1131 Z M624 477 L624 248 L424 248 L424 477 L624 477 Z M53 783 L995 783 L995 596 L53 596 L53 783 Z " />
<glyph glyph-name="lozenge" unicode="&#x25ca;" horiz-adv-x="1456" d="M728 1419 L1260 683 L728 -53 L196 683 L728 1419 Z M728 1237 L324 683 L728 128 L1131 683 L728 1237 Z " />
<glyph glyph-name="ydieresis" unicode="&#xff;" horiz-adv-x="1040" d="M41 942 L357 942 L528 336 L693 942 L999 941 L678 -15 Q637 -136 599.5 -199 Q562 -262 512 -296 Q424 -355 269 -355 Q205 -355 142 -345 L142 -130 Q194 -142 234 -142 Q362 -142 362 -30 Q362 11 344 63 L41 942 Z M827 1324 L827 1078 L574 1078 L574 1324 L827 1324 Z M464 1324 L464 1078 L213 1078 L213 1324 L464 1324 Z " />
<glyph glyph-name="Ydieresis" unicode="&#x178;" horiz-adv-x="1133" d="M-3 1365 L323 1365 L569 825 L815 1365 L1136 1365 L713 528 L713 0 L420 0 L420 532 L-3 1365 Z M856 1693 L856 1447 L618 1447 L618 1693 L856 1693 Z M514 1693 L514 1447 L277 1447 L277 1693 L514 1693 Z " />
<glyph glyph-name="fraction" unicode="&#x2044;" horiz-adv-x="522" d="M42 0 L-140 0 L483 1365 L662 1365 L42 0 Z " />
<glyph glyph-name="Euro" unicode="&#x20ac;" horiz-adv-x="1236" d="M198 460 L21 460 L99 631 L177 631 Q176 665 176 677 L177 714 L177 721 L33 721 L111 892 L196 892 Q207 947 226 1001 Q297 1202 449 1308 Q573 1394 751 1394 Q964 1394 1144 1266 L1050 1044 Q958 1115 894.5 1142 Q831 1169 753 1169 Q636 1169 571.5 1106 Q507 1043 470 892 L976 892 L904 721 L446 721 Q445 690 445 679 Q445 660 447 631 L866 631 L794 460 L474 460 Q495 382 523 327 Q588 196 750 196 Q819 196 872 218.5 Q925 241 1002 303 L1161 148 Q1108 103 1075 79 Q928 -29 731 -29 Q392 -29 245 307 Q214 378 198 460 Z " />
<glyph glyph-name="guilsinglleft" unicode="&#x2039;" horiz-adv-x="511" d="M377 891 L377 643 L233 507 L377 371 L377 129 L106 381 L106 633 L377 891 Z " />
<glyph glyph-name="guilsinglright" unicode="&#x203a;" horiz-adv-x="511" d="M133 891 L404 634 L404 382 L133 129 L133 370 L277 507 L133 643 L133 891 Z " />
<glyph glyph-name="&amp;#xf001;" unicode="&#xf001;" horiz-adv-x="1076" d="M120 0 L120 758 L-8 758 L-8 942 L120 942 L120 1026 Q120 1136 135 1196 Q150 1256 189 1300 Q274 1397 464 1397 Q471 1397 588 1390 L588 1186 Q538 1192 504 1192 Q442 1192 421.5 1164 Q401 1136 401 1050 L401 942 L576 942 L576 758 L401 758 L401 0 L120 0 Z M690 1092 L690 1365 L988 1365 L988 1092 L690 1092 Z M690 0 L690 942 L971 942 L971 0 L690 0 Z " />
<glyph glyph-name="&amp;#xfb01;" unicode="&#xfb01;" horiz-adv-x="1076" d="M120 0 L120 758 L-8 758 L-8 942 L120 942 L120 1026 Q120 1136 135 1196 Q150 1256 189 1300 Q274 1397 464 1397 Q471 1397 588 1390 L588 1186 Q538 1192 504 1192 Q442 1192 421.5 1164 Q401 1136 401 1050 L401 942 L576 942 L576 758 L401 758 L401 0 L120 0 Z M690 1092 L690 1365 L988 1365 L988 1092 L690 1092 Z M690 0 L690 942 L971 942 L971 0 L690 0 Z " />
<glyph glyph-name="&amp;#xf002;" unicode="&#xf002;" horiz-adv-x="1076" d="M120 0 L120 758 L-8 758 L-8 942 L120 942 L120 1026 Q120 1136 135 1196 Q150 1256 189 1300 Q274 1397 464 1397 Q471 1397 588 1390 L588 1186 Q538 1192 504 1192 Q442 1192 421.5 1164 Q401 1136 401 1050 L401 942 L576 942 L576 758 L401 758 L401 0 L120 0 Z M707 0 L707 1365 L988 1365 L988 0 L707 0 Z " />
<glyph glyph-name="&amp;#xfb02;" unicode="&#xfb02;" horiz-adv-x="1076" d="M120 0 L120 758 L-8 758 L-8 942 L120 942 L120 1026 Q120 1136 135 1196 Q150 1256 189 1300 Q274 1397 464 1397 Q471 1397 588 1390 L588 1186 Q538 1192 504 1192 Q442 1192 421.5 1164 Q401 1136 401 1050 L401 942 L576 942 L576 758 L401 758 L401 0 L120 0 Z M707 0 L707 1365 L988 1365 L988 0 L707 0 Z " />
<glyph glyph-name="daggerdbl" unicode="&#x2021;" horiz-adv-x="1041" d="M937 987 L937 757 L639 757 L639 263 L937 263 L937 33 L639 33 L639 -350 L399 -350 L399 33 L105 33 L105 263 L399 263 L399 757 L105 757 L105 987 L399 987 L399 1365 L639 1365 L639 987 L937 987 Z " />
<glyph glyph-name="periodcentered" unicode="&#xb7;" horiz-adv-x="620" d="M460 625 L460 331 L160 331 L160 625 L460 625 Z " />
<glyph glyph-name="quotesinglbase" unicode="&#x201a;" horiz-adv-x="474" d="M387 294 L387 66 Q387 -56 358 -128 Q329 -200 260 -251 Q188 -305 87 -319 L87 -176 Q207 -144 214 0 L87 0 L87 294 L387 294 Z " />
<glyph glyph-name="quotedblbase" unicode="&#x201e;" horiz-adv-x="870" d="M387 294 L387 66 Q387 -56 358 -128 Q329 -200 260 -251 Q188 -305 87 -319 L87 -176 Q207 -144 214 0 L87 0 L87 294 L387 294 Z M783 294 L783 66 Q783 -56 754.5 -128 Q726 -200 656 -251 Q584 -305 483 -319 L483 -176 Q603 -144 610 0 L483 0 L483 294 L783 294 Z " />
<glyph glyph-name="perthousand" unicode="&#x2030;" horiz-adv-x="2622" d="M385 1383 Q534 1383 631 1277 Q740 1157 740 956 Q740 782 658 666 Q559 527 385 527 Q206 527 106 669 Q26 783 26 961 Q26 1156 130 1272 Q230 1383 385 1383 Z M384 1211 Q311 1211 271 1144 Q226 1068 226 960 Q226 841 271 766 Q311 699 385 699 Q454 699 492 761 Q540 839 540 958 Q540 1072 497 1141.5 Q454 1211 384 1211 Z M703 0 L524 0 L1112 1365 L1288 1365 L703 0 Z M1432 837 Q1580 837 1678 731 Q1787 613 1787 410 Q1787 236 1705 120 Q1606 -19 1432 -19 Q1254 -19 1153 123 Q1073 237 1073 415 Q1073 610 1177 726 Q1277 837 1432 837 Z M1431 665 Q1358 665 1318 598 Q1273 522 1273 414 Q1273 295 1318 220 Q1358 153 1432 153 Q1501 153 1539 215 Q1587 293 1587 412 Q1587 526 1544 595.5 Q1501 665 1431 665 Z M2241 837 Q2390 837 2487 731 Q2596 611 2596 410 Q2596 236 2514 120 Q2415 -19 2241 -19 Q2063 -19 1962 123 Q1882 237 1882 415 Q1882 610 1986 726 Q2086 837 2241 837 Z M2240 665 Q2167 665 2127 598 Q2082 522 2082 414 Q2082 295 2127 220 Q2167 153 2241 153 Q2310 153 2348 215 Q2396 293 2396 412 Q2396 526 2353 595.5 Q2310 665 2240 665 Z " />
<glyph glyph-name="Acircumflex" unicode="&#xc2;" horiz-adv-x="1159" d="M430 1365 L730 1365 L1162 0 L857 0 L772 305 L383 305 L297 0 L-3 0 L430 1365 Z M446 526 L711 526 L579 997 L446 526 Z M887 1475 L662 1475 L576 1596 L488 1475 L272 1475 L463 1734 L696 1734 L887 1475 Z " />
<glyph glyph-name="Ecircumflex" unicode="&#xca;" horiz-adv-x="1120" d="M138 0 L138 1365 L1009 1365 L1009 1115 L431 1115 L431 823 L959 823 L959 585 L431 585 L431 250 L1021 250 L1021 0 L138 0 Z M887 1475 L662 1475 L576 1596 L488 1475 L272 1475 L463 1734 L696 1734 L887 1475 Z " />
<glyph glyph-name="Aacute" unicode="&#xc1;" horiz-adv-x="1159" d="M430 1365 L730 1365 L1162 0 L857 0 L772 305 L383 305 L297 0 L-3 0 L430 1365 Z M446 526 L711 526 L579 997 L446 526 Z M867 1720 L669 1474 L436 1474 L620 1720 L867 1720 Z " />
<glyph glyph-name="Edieresis" unicode="&#xcb;" horiz-adv-x="1120" d="M138 0 L138 1365 L1009 1365 L1009 1115 L431 1115 L431 823 L959 823 L959 585 L431 585 L431 250 L1021 250 L1021 0 L138 0 Z M864 1693 L864 1447 L626 1447 L626 1693 L864 1693 Z M522 1693 L522 1447 L285 1447 L285 1693 L522 1693 Z " />
<glyph glyph-name="Egrave" unicode="&#xc8;" horiz-adv-x="1120" d="M138 0 L138 1365 L1009 1365 L1009 1115 L431 1115 L431 823 L959 823 L959 585 L431 585 L431 250 L1021 250 L1021 0 L138 0 Z M292 1720 L540 1720 L723 1474 L491 1474 L292 1720 Z " />
<glyph glyph-name="Iacute" unicode="&#xcd;" horiz-adv-x="570" d="M138 0 L138 1365 L431 1365 L431 0 L138 0 Z M572 1720 L374 1474 L141 1474 L325 1720 L572 1720 Z " />
<glyph glyph-name="Icircumflex" unicode="&#xce;" horiz-adv-x="570" d="M138 0 L138 1365 L431 1365 L431 0 L138 0 Z M592 1475 L367 1475 L281 1596 L193 1475 L-23 1475 L168 1734 L401 1734 L592 1475 Z " />
<glyph glyph-name="Idieresis" unicode="&#xcf;" horiz-adv-x="570" d="M138 0 L138 1365 L431 1365 L431 0 L138 0 Z M541 1693 L541 1447 L336 1447 L336 1693 L541 1693 Z M233 1693 L233 1447 L29 1447 L29 1693 L233 1693 Z " />
<glyph glyph-name="Igrave" unicode="&#xcc;" horiz-adv-x="570" d="M138 0 L138 1365 L431 1365 L431 0 L138 0 Z M-3 1720 L245 1720 L428 1474 L196 1474 L-3 1720 Z " />
<glyph glyph-name="Oacute" unicode="&#xd3;" horiz-adv-x="1313" d="M660 1396 Q903 1396 1060 1220 Q1239 1021 1239 682 Q1239 392 1104 197 Q1024 82 902 21 Q793 -33 660 -33 Q370 -33 207 202 Q75 392 75 692 Q75 1018 246 1212 Q408 1396 660 1396 Z M658 1146 Q522 1146 448 1019 Q368 881 368 690 Q368 480 447 344 Q480 287 539 252 Q598 217 661 217 Q721 217 774.5 248.5 Q828 280 861 335 Q946 476 946 686 Q946 884 868 1019 Q794 1146 658 1146 Z M944 1720 L746 1474 L513 1474 L697 1720 L944 1720 Z " />
<glyph glyph-name="Ocircumflex" unicode="&#xd4;" horiz-adv-x="1313" d="M660 1396 Q903 1396 1060 1220 Q1239 1021 1239 682 Q1239 392 1104 197 Q1024 82 902 21 Q793 -33 660 -33 Q370 -33 207 202 Q75 392 75 692 Q75 1018 246 1212 Q408 1396 660 1396 Z M658 1146 Q522 1146 448 1019 Q368 881 368 690 Q368 480 447 344 Q480 287 539 252 Q598 217 661 217 Q721 217 774.5 248.5 Q828 280 861 335 Q946 476 946 686 Q946 884 868 1019 Q794 1146 658 1146 Z M964 1475 L739 1475 L653 1596 L565 1475 L349 1475 L540 1734 L773 1734 L964 1475 Z " />
<glyph glyph-name="Ograve" unicode="&#xd2;" horiz-adv-x="1313" d="M660 1396 Q903 1396 1060 1220 Q1239 1021 1239 682 Q1239 392 1104 197 Q1024 82 902 21 Q793 -33 660 -33 Q370 -33 207 202 Q75 392 75 692 Q75 1018 246 1212 Q408 1396 660 1396 Z M658 1146 Q522 1146 448 1019 Q368 881 368 690 Q368 480 447 344 Q480 287 539 252 Q598 217 661 217 Q721 217 774.5 248.5 Q828 280 861 335 Q946 476 946 686 Q946 884 868 1019 Q794 1146 658 1146 Z M369 1720 L617 1720 L800 1474 L568 1474 L369 1720 Z " />
<glyph glyph-name="Uacute" unicode="&#xda;" horiz-adv-x="1250" d="M117 1365 L398 1365 L398 570 Q398 375 452 298 Q510 217 630 217 Q760 217 807 328 Q840 404 840 571 L840 1365 L1133 1365 L1133 586 Q1133 402 1107 307 Q1062 144 945 55 Q829 -33 624 -33 Q330 -33 203 165 Q156 239 136.5 335 Q117 431 117 590 L117 1365 Z M912 1720 L714 1474 L481 1474 L665 1720 L912 1720 Z " />
<glyph glyph-name="Ucircumflex" unicode="&#xdb;" horiz-adv-x="1250" d="M117 1365 L398 1365 L398 570 Q398 375 452 298 Q510 217 630 217 Q760 217 807 328 Q840 404 840 571 L840 1365 L1133 1365 L1133 586 Q1133 402 1107 307 Q1062 144 945 55 Q829 -33 624 -33 Q330 -33 203 165 Q156 239 136.5 335 Q117 431 117 590 L117 1365 Z M933 1475 L708 1475 L622 1596 L534 1475 L318 1475 L509 1734 L742 1734 L933 1475 Z " />
<glyph glyph-name="Ugrave" unicode="&#xd9;" horiz-adv-x="1250" d="M117 1365 L398 1365 L398 570 Q398 375 452 298 Q510 217 630 217 Q760 217 807 328 Q840 404 840 571 L840 1365 L1133 1365 L1133 586 Q1133 402 1107 307 Q1062 144 945 55 Q829 -33 624 -33 Q330 -33 203 165 Q156 239 136.5 335 Q117 431 117 590 L117 1365 Z M337 1720 L585 1720 L768 1474 L536 1474 L337 1720 Z " />
<glyph glyph-name="dotlessi" unicode="&#x131;" horiz-adv-x="526" d="M122 0 L122 942 L403 942 L403 0 L122 0 Z " />
<glyph glyph-name="circumflex" unicode="&#x2c6;" horiz-adv-x="994" d="M816 1092 L598 1092 L498 1239 L396 1092 L188 1092 L381 1365 L622 1365 L816 1092 Z " />
<glyph glyph-name="tilde" unicode="&#x2dc;" horiz-adv-x="994" d="M808 1359 Q773 1105 610 1105 Q571 1105 541 1116 Q511 1127 433 1169 Q406 1184 386 1184 Q344 1184 329 1099 L195 1099 Q211 1219 263.5 1287 Q316 1355 394 1355 Q440 1355 511 1320 Q588 1281 616 1281 Q637 1281 649 1297.5 Q661 1314 676 1359 L808 1359 Z " />
<glyph glyph-name="uni02C9" unicode="&#x2c9;" horiz-adv-x="994" d="M794 1277 L794 1131 L209 1131 L209 1277 L794 1277 Z " />
<glyph glyph-name="breve" unicode="&#x2d8;" horiz-adv-x="994" d="M218 1365 L359 1365 Q387 1245 501 1245 Q616 1245 643 1365 L785 1365 Q782 1292 761 1244 Q696 1092 501 1092 Q288 1092 232 1270 Q220 1307 218 1365 Z " />
<glyph glyph-name="dotaccent" unicode="&#x2d9;" horiz-adv-x="950" d="M603 1324 L603 1078 L352 1078 L352 1324 L603 1324 Z " />
<glyph glyph-name="ring" unicode="&#x2da;" horiz-adv-x="994" d="M503 1349 Q464 1349 437.5 1323 Q411 1297 411 1258 Q411 1220 437 1194 Q463 1168 501 1168 Q538 1168 564.5 1194.5 Q591 1221 591 1258 Q591 1295 565 1322 Q539 1349 503 1349 Z M505 1460 Q593 1460 656 1402 Q720 1343 720 1258 Q720 1177 657 1118 Q593 1058 502 1058 Q410 1058 347 1117 Q283 1176 283 1258 Q283 1343 347.5 1401.5 Q412 1460 505 1460 Z " />
<glyph glyph-name="cedilla" unicode="&#xb8;" horiz-adv-x="1213" d="M468 0 L585 0 L545 -108 Q569 -96 604 -96 Q686 -96 736.5 -137 Q787 -178 787 -244 Q787 -319 730.5 -364.5 Q674 -410 581 -410 Q505 -410 453.5 -379.5 Q402 -349 394 -299 L523 -299 Q530 -330 574 -330 Q642 -330 642 -253 Q642 -216 623.5 -194.5 Q605 -173 574 -173 Q537 -173 526 -200 L397 -200 L468 0 Z " />
<glyph glyph-name="hungarumlaut" unicode="&#x2dd;" horiz-adv-x="1007" d="M571 1365 L360 1092 L143 1092 L337 1365 L571 1365 Z M1005 1365 L795 1092 L577 1092 L771 1365 L1005 1365 Z " />
<glyph glyph-name="ogonek" unicode="&#x2db;" horiz-adv-x="1234" d="M798 3 Q704 -83 704 -165 Q704 -256 798 -256 Q818 -256 869 -240 L869 -359 L859 -362 Q801 -381 753 -381 Q660 -381 602 -331 Q544 -281 544 -201 Q544 -103 664 3 L798 3 Z " />
<glyph glyph-name="caron" unicode="&#x2c7;" horiz-adv-x="994" d="M188 1365 L406 1365 L506 1218 L607 1365 L816 1365 L622 1092 L381 1092 L188 1365 Z " />
<glyph glyph-name="nbspace" unicode="&#xa0;" horiz-adv-x="390" d="" />
<glyph glyph-name="currency" unicode="&#xa4;" horiz-adv-x="1514" d="M117 221 L321 426 Q243 555 243 696 Q243 821 327 969 L116 1177 L274 1335 L487 1123 Q573 1168 630.5 1185 Q688 1202 758 1202 Q827 1202 881.5 1186 Q936 1170 1023 1124 L1235 1333 L1391 1177 L1185 972 Q1271 831 1271 693 Q1271 573 1193 427 L1398 222 L1242 64 L1038 268 Q903 182 768 182 Q631 182 478 268 L273 65 L117 221 Z M761 946 Q656 946 583 873 Q510 801 510 696 Q510 593 583 519 Q655 446 758 446 Q861 446 933 519 Q1006 592 1006 696 Q1006 802 933 873 Q858 946 761 946 Z " />
<glyph glyph-name="brokenbar" unicode="&#xa6;" horiz-adv-x="1239" d="M466 1365 L773 1365 L773 646 L466 646 L466 1365 Z M466 314 L773 314 L773 -341 L466 -341 L466 314 Z " />
<glyph glyph-name="uni00AD" unicode="&#xad;" horiz-adv-x="453" d="M453 633 L453 387 L0 387 L0 633 L453 633 Z " />
<glyph glyph-name="overscore" unicode="&#xaf;" horiz-adv-x="1049" d="M53 1662 L995 1662 L995 1475 L53 1475 L53 1662 Z " />
<glyph glyph-name="twosuperior" unicode="&#xb2;" horiz-adv-x="572" d="M552 713 L552 546 L-5 546 Q-5 686 42 773 Q70 826 114 865 Q158 904 268 975 Q328 1015 354 1051 Q380 1087 380 1132 Q380 1170 356 1193 Q332 1216 292 1216 Q212 1216 205 1106 L9 1106 Q16 1223 80 1296 Q157 1383 287 1383 Q414 1383 489 1311 Q559 1245 559 1141 Q559 1051 512 987.5 Q465 924 335 842 Q219 770 203 713 L552 713 Z " />
<glyph glyph-name="threesuperior" unicode="&#xb3;" horiz-adv-x="588" d="M211 1124 L19 1124 Q21 1231 74 1293 Q148 1382 290 1382 Q409 1382 481 1317 Q551 1254 551 1152 Q551 1040 464 982 Q576 922 576 789 Q576 678 497 605 Q415 529 282 529 Q111 529 38 641 Q1 696 1 774 Q1 779 2 794 L195 794 Q195 740 216.5 716 Q238 692 286 692 Q331 692 357 720.5 Q383 749 383 798 Q383 851 353 875 Q323 899 257 899 L218 899 L218 1042 L272 1042 Q315 1042 342 1069 Q369 1096 369 1140 Q369 1224 287 1224 Q213 1224 211 1124 Z " />
<glyph glyph-name="onesuperior" unicode="&#xb9;" horiz-adv-x="469" d="M140 546 L140 1096 Q99 1066 21 1066 Q13 1066 -2 1067 L-2 1213 Q90 1216 129 1248.5 Q168 1281 180 1365 L326 1365 L326 546 L140 546 Z " />
<glyph glyph-name="onequarter" unicode="&#xbc;" horiz-adv-x="1393" d="M121 546 L121 1096 Q80 1066 2 1066 Q-6 1066 -21 1067 L-21 1213 Q71 1216 110 1249 Q149 1282 161 1365 L307 1365 L307 546 L121 546 Z M424 0 L241 0 L865 1365 L1044 1365 L424 0 Z M1321 0 L1140 0 L1140 171 L832 171 L832 334 L1153 819 L1321 819 L1321 327 L1409 327 L1409 171 L1321 171 L1321 0 Z M1140 327 L1140 533 L1017 327 L1140 327 Z " />
<glyph glyph-name="onehalf" unicode="&#xbd;" horiz-adv-x="1419" d="M120 546 L120 1096 Q79 1066 1 1066 Q-7 1066 -22 1067 L-22 1213 Q70 1216 109 1249 Q148 1282 160 1365 L306 1365 L306 546 L120 546 Z M423 0 L240 0 L864 1365 L1043 1365 L423 0 Z M1423 167 L1423 0 L865 0 Q868 145 913 227 Q942 280 985 319 Q1028 358 1139 430 Q1199 470 1225 506 Q1251 542 1251 587 Q1251 625 1227 648 Q1203 671 1163 671 Q1084 671 1076 560 L880 560 Q887 678 951 750 Q1028 838 1158 838 Q1285 838 1360 766 Q1430 700 1430 596 Q1430 505 1383 442 Q1336 379 1206 296 Q1135 251 1110 226 Q1085 201 1074 167 L1423 167 Z " />
<glyph glyph-name="threequarters" unicode="&#xbe;" horiz-adv-x="1599" d="M634 0 L451 0 L1074 1365 L1253 1365 L634 0 Z M1531 0 L1350 0 L1350 171 L1042 171 L1042 334 L1362 819 L1531 819 L1531 327 L1619 327 L1619 171 L1531 171 L1531 0 Z M1350 327 L1350 533 L1227 327 L1350 327 Z M189 1124 L-3 1124 Q-1 1231 52 1293 Q126 1382 268 1382 Q387 1382 459 1317 Q529 1254 529 1152 Q529 1040 442 982 Q554 922 554 789 Q554 678 475 605 Q393 529 260 529 Q89 529 16 641 Q-21 696 -21 774 Q-21 779 -20 794 L173 794 Q173 740 194.5 716 Q216 692 264 692 Q309 692 335 720.5 Q361 749 361 798 Q361 851 331 875 Q301 899 235 899 L196 899 L196 1042 L250 1042 Q293 1042 320 1069 Q347 1096 347 1140 Q347 1224 265 1224 Q191 1224 189 1124 Z " />
<glyph glyph-name="Eth" unicode="&#xd0;" horiz-adv-x="1234" d="M0 585 L0 823 L107 823 L107 1365 L528 1365 Q805 1365 965 1217 Q1160 1037 1160 687 Q1160 345 976 157 Q876 54 745 23 Q652 0 526 0 L107 0 L107 585 L0 585 Z M400 250 L531 250 Q687 250 758 324 Q867 438 867 688 Q867 894 775 1011 Q693 1115 522 1115 L400 1115 L400 823 L623 823 L623 585 L400 585 L400 250 Z " />
<glyph glyph-name="multiply" unicode="&#xd7;" horiz-adv-x="1092" d="M813 1089 L945 956 L678 689 L945 422 L813 290 L546 557 L279 290 L147 422 L414 689 L147 956 L279 1089 L546 822 L813 1089 Z " />
<glyph glyph-name="Yacute" unicode="&#xdd;" horiz-adv-x="1133" d="M-3 1365 L323 1365 L569 825 L815 1365 L1136 1365 L713 528 L713 0 L420 0 L420 532 L-3 1365 Z M854 1720 L656 1474 L423 1474 L607 1720 L854 1720 Z " />
<glyph glyph-name="Thorn" unicode="&#xde;" horiz-adv-x="1119" d="M138 0 L138 1365 L431 1365 L431 1133 L544 1133 Q706 1133 790 1103 Q916 1057 985 944 Q1044 846 1044 706 Q1044 471 877 346 Q761 258 549 258 L431 258 L431 0 L138 0 Z M431 496 L546 496 Q663 496 708 551 Q751 604 751 692 Q751 792 690 843 Q643 883 532 883 L431 883 L431 496 Z " />
<glyph glyph-name="eth" unicode="&#xf0;" horiz-adv-x="1003" d="M285 1297 L426 1394 Q496 1355 563 1300 L705 1394 L787 1283 L668 1205 Q760 1108 821 1006 Q979 741 979 468 Q979 234 837 96 Q708 -29 502 -29 Q283 -29 152 111 Q23 248 23 472 Q23 689 148 825 Q282 971 500 971 Q527 971 555 962 Q519 1033 485 1084 L355 998 L273 1108 L400 1192 Q353 1242 285 1297 Z M500 774 Q410 774 357 692.5 Q304 611 304 472 Q304 331 355 251 Q408 168 503 168 Q592 168 642 244 Q698 328 698 468 Q698 608 649 687 Q595 774 500 774 Z " />
<glyph glyph-name="yacute" unicode="&#xfd;" horiz-adv-x="1040" d="M41 942 L357 942 L528 336 L693 942 L999 941 L678 -15 Q637 -136 599.5 -199 Q562 -262 512 -296 Q424 -355 269 -355 Q205 -355 142 -345 L142 -130 Q194 -142 234 -142 Q362 -142 362 -30 Q362 11 344 63 L41 942 Z M805 1365 L594 1092 L377 1092 L571 1365 L805 1365 Z " />
<glyph glyph-name="thorn" unicode="&#xfe;" horiz-adv-x="1052" d="M84 1365 L365 1365 L365 863 Q458 971 613 971 Q813 971 930 808 Q1030 670 1030 460 Q1030 235 918 105 Q864 43 787 8 Q708 -29 623 -29 Q470 -29 365 79 L365 -355 L84 -355 L84 1365 Z M544 758 Q459 758 407 680 Q355 602 355 473 Q355 343 405 264 Q455 184 544 184 Q629 184 677 259 Q730 340 730 469 Q730 579 689 660 Q639 758 544 758 Z " />
<glyph glyph-name="Amacron" unicode="&#x100;" horiz-adv-x="1159" d="M430 1365 L730 1365 L1162 0 L857 0 L772 305 L383 305 L297 0 L-3 0 L430 1365 Z M446 526 L711 526 L579 997 L446 526 Z M873 1658 L873 1501 L286 1501 L286 1658 L873 1658 Z " />
<glyph glyph-name="amacron" unicode="&#x101;" horiz-adv-x="1014" d="M1001 189 L1001 12 Q944 -12 881 -12 Q752 -12 686 90 Q637 42 596 19 Q509 -29 382 -29 Q237 -29 151 35 Q47 112 47 247 Q47 350 109 427 Q171 504 278 535 Q385 566 636 572 L636 648 Q636 726 602 760.5 Q568 795 490 795 Q380 795 368 690 L84 690 Q93 823 194 896 Q299 971 480 971 Q742 971 852 863 Q897 819 911 764.5 Q925 710 925 575 L925 260 Q925 214 934.5 196.5 Q944 179 969 179 Q979 179 1001 189 Z M636 429 Q526 425 465 410 Q400 395 364 357.5 Q328 320 328 268 Q328 219 356.5 191.5 Q385 164 435 164 Q540 164 598 252 Q636 309 636 379 L636 429 Z M809 1277 L809 1131 L224 1131 L224 1277 L809 1277 Z " />
<glyph glyph-name="Abreve" unicode="&#x102;" horiz-adv-x="1159" d="M430 1365 L730 1365 L1162 0 L857 0 L772 305 L383 305 L297 0 L-3 0 L430 1365 Z M446 526 L711 526 L579 997 L446 526 Z M287 1720 L426 1720 Q454 1613 580 1613 Q706 1613 733 1720 L872 1720 Q870 1652 848 1608 Q780 1467 580 1467 Q360 1467 302 1631 Q290 1665 287 1720 Z " />
<glyph glyph-name="abreve" unicode="&#x103;" horiz-adv-x="1014" d="M1001 189 L1001 12 Q944 -12 881 -12 Q752 -12 686 90 Q637 42 596 19 Q509 -29 382 -29 Q237 -29 151 35 Q47 112 47 247 Q47 350 109 427 Q171 504 278 535 Q385 566 636 572 L636 648 Q636 726 602 760.5 Q568 795 490 795 Q380 795 368 690 L84 690 Q93 823 194 896 Q299 971 480 971 Q742 971 852 863 Q897 819 911 764.5 Q925 710 925 575 L925 260 Q925 214 934.5 196.5 Q944 179 969 179 Q979 179 1001 189 Z M636 429 Q526 425 465 410 Q400 395 364 357.5 Q328 320 328 268 Q328 219 356.5 191.5 Q385 164 435 164 Q540 164 598 252 Q636 309 636 379 L636 429 Z M238 1365 L379 1365 Q407 1245 521 1245 Q636 1245 663 1365 L805 1365 Q802 1292 781 1244 Q716 1092 521 1092 Q308 1092 252 1270 Q240 1307 238 1365 Z " />
<glyph glyph-name="Aogonek" unicode="&#x104;" horiz-adv-x="1159" d="M1152 0 Q1061 -80 1061 -165 Q1061 -256 1155 -256 Q1175 -256 1226 -240 L1226 -359 L1216 -362 Q1158 -381 1110 -381 Q1017 -381 959 -331 Q901 -281 901 -201 Q901 -148 927.5 -102.5 Q954 -57 1018 0 L857 0 L772 305 L383 305 L297 0 L-3 0 L430 1365 L730 1365 L1162 0 L1152 0 Z M446 526 L711 526 L579 997 L446 526 Z " />
<glyph glyph-name="aogonek" unicode="&#x105;" horiz-adv-x="1014" d="M958 -3 Q871 -76 871 -165 Q871 -256 965 -256 Q985 -256 1036 -240 L1036 -359 L1026 -362 Q968 -381 919 -381 Q827 -381 769 -331 Q711 -281 711 -201 Q711 -103 820 -6 Q736 13 686 90 Q637 42 596 19 Q509 -29 382 -29 Q237 -29 151 35 Q47 112 47 247 Q47 350 109 427 Q171 504 278 535 Q385 566 636 572 L636 648 Q636 726 602 760.5 Q568 795 490 795 Q380 795 368 690 L84 690 Q93 823 194 896 Q299 971 480 971 Q742 971 852 863 Q897 819 911 764.5 Q925 710 925 575 L925 260 Q925 214 934.5 196.5 Q944 179 969 179 Q979 179 1001 189 L1001 12 Q980 3 958 -3 Z M636 429 Q526 425 465 410 Q400 395 364 357.5 Q328 320 328 268 Q328 219 356.5 191.5 Q385 164 435 164 Q540 164 598 252 Q636 309 636 379 L636 429 Z " />
<glyph glyph-name="Cacute" unicode="&#x106;" horiz-adv-x="1230" d="M884 529 L1177 529 Q1161 312 1055 166 Q910 -33 647 -33 Q398 -33 252 138 Q75 347 75 679 Q75 1005 246 1209 Q403 1396 654 1396 Q923 1396 1073 1180 Q1158 1057 1169 906 L879 905 Q866 985 836 1035 Q772 1146 650 1146 Q514 1146 442 1017 Q368 883 368 682 Q368 478 445 342 Q515 217 647 217 Q750 217 808 293.5 Q866 370 884 529 Z M923 1720 L725 1474 L492 1474 L676 1720 L923 1720 Z " />
<glyph glyph-name="cacute" unicode="&#x107;" horiz-adv-x="957" d="M942 611 L650 610 Q622 774 497 774 Q407 774 358 692 Q308 608 308 468 Q308 328 357 248 Q406 168 492 168 Q560 168 602.5 218.5 Q645 269 657 362 L943 362 Q925 219 848 124 Q724 -29 498 -29 Q293 -29 166 96 Q27 234 27 465 Q27 711 177 851 Q304 971 504 971 Q691 971 808.5 874.5 Q926 778 942 611 Z M778 1365 L567 1092 L350 1092 L544 1365 L778 1365 Z " />
<glyph glyph-name="Ccircumflex" unicode="&#x108;" horiz-adv-x="1230" d="M884 529 L1177 529 Q1161 312 1055 166 Q910 -33 647 -33 Q398 -33 252 138 Q75 347 75 679 Q75 1005 246 1209 Q403 1396 654 1396 Q923 1396 1073 1180 Q1158 1057 1169 906 L879 905 Q866 985 836 1035 Q772 1146 650 1146 Q514 1146 442 1017 Q368 883 368 682 Q368 478 445 342 Q515 217 647 217 Q750 217 808 293.5 Q866 370 884 529 Z M953 1475 L728 1475 L642 1596 L554 1475 L338 1475 L529 1734 L762 1734 L953 1475 Z " />
<glyph glyph-name="ccircumflex" unicode="&#x109;" horiz-adv-x="957" d="M942 611 L650 610 Q622 774 497 774 Q407 774 358 692 Q308 608 308 468 Q308 328 357 248 Q406 168 492 168 Q560 168 602.5 218.5 Q645 269 657 362 L943 362 Q925 219 848 124 Q724 -29 498 -29 Q293 -29 166 96 Q27 234 27 465 Q27 711 177 851 Q304 971 504 971 Q691 971 808.5 874.5 Q926 778 942 611 Z M809 1092 L591 1092 L491 1239 L389 1092 L181 1092 L374 1365 L615 1365 L809 1092 Z " />
<glyph glyph-name="Cdotaccent" unicode="&#x10a;" horiz-adv-x="1230" d="M884 529 L1177 529 Q1161 312 1055 166 Q910 -33 647 -33 Q398 -33 252 138 Q75 347 75 679 Q75 1005 246 1209 Q403 1396 654 1396 Q923 1396 1073 1180 Q1158 1057 1169 906 L879 905 Q866 985 836 1035 Q772 1146 650 1146 Q514 1146 442 1017 Q368 883 368 682 Q368 478 445 342 Q515 217 647 217 Q750 217 808 293.5 Q866 370 884 529 Z M766 1693 L766 1447 L529 1447 L529 1693 L766 1693 Z " />
<glyph glyph-name="cdotaccent" unicode="&#x10b;" horiz-adv-x="957" d="M942 611 L650 610 Q622 774 497 774 Q407 774 358 692 Q308 608 308 468 Q308 328 357 248 Q406 168 492 168 Q560 168 602.5 218.5 Q645 269 657 362 L943 362 Q925 219 848 124 Q724 -29 498 -29 Q293 -29 166 96 Q27 234 27 465 Q27 711 177 851 Q304 971 504 971 Q691 971 808.5 874.5 Q926 778 942 611 Z M615 1324 L615 1078 L364 1078 L364 1324 L615 1324 Z " />
<glyph glyph-name="Ccaron" unicode="&#x10c;" horiz-adv-x="1230" d="M884 529 L1177 529 Q1161 312 1055 166 Q910 -33 647 -33 Q398 -33 252 138 Q75 347 75 679 Q75 1005 246 1209 Q403 1396 654 1396 Q923 1396 1073 1180 Q1158 1057 1169 906 L879 905 Q866 985 836 1035 Q772 1146 650 1146 Q514 1146 442 1017 Q368 883 368 682 Q368 478 445 342 Q515 217 647 217 Q750 217 808 293.5 Q866 370 884 529 Z M943 1734 L753 1475 L519 1475 L328 1734 L543 1734 L632 1613 L718 1734 L943 1734 Z " />
<glyph glyph-name="ccaron" unicode="&#x10d;" horiz-adv-x="957" d="M942 611 L650 610 Q622 774 497 774 Q407 774 358 692 Q308 608 308 468 Q308 328 357 248 Q406 168 492 168 Q560 168 602.5 218.5 Q645 269 657 362 L943 362 Q925 219 848 124 Q724 -29 498 -29 Q293 -29 166 96 Q27 234 27 465 Q27 711 177 851 Q304 971 504 971 Q691 971 808.5 874.5 Q926 778 942 611 Z M176 1365 L394 1365 L494 1218 L595 1365 L804 1365 L610 1092 L369 1092 L176 1365 Z " />
<glyph glyph-name="Dcaron" unicode="&#x10e;" horiz-adv-x="1266" d="M138 0 L138 1365 L559 1365 Q837 1365 996 1217 Q1191 1037 1191 687 Q1191 345 1007 157 Q907 54 776 23 Q683 0 558 0 L138 0 Z M431 250 L562 250 Q718 250 789 324 Q898 439 898 688 Q898 894 806 1011 Q725 1115 554 1115 L431 1115 L431 250 Z M877 1734 L687 1475 L453 1475 L262 1734 L477 1734 L566 1613 L652 1734 L877 1734 Z " />
<glyph glyph-name="dcaron" unicode="&#x10f;" horiz-adv-x="1249" d="M973 0 L681 0 L681 79 Q587 -29 432 -29 Q237 -29 123 134 Q27 272 27 481 Q27 707 139 837 Q193 899 270 935 Q349 971 434 971 Q588 971 692 863 L692 1365 L973 1365 L973 0 Z M494 758 Q409 758 361 683 Q308 603 308 478 Q308 364 349 282 Q397 184 493 184 Q579 184 630 262.5 Q681 341 681 473 Q681 601 632 678 Q580 758 494 758 Z M1303 1365 L1303 1218 Q1303 1108 1269 1063 Q1216 991 1066 985 L1066 1074 Q1135 1081 1158 1100 Q1181 1119 1187 1173 L1066 1173 L1066 1365 L1303 1365 Z " />
<glyph glyph-name="Dcroat" unicode="&#x110;" horiz-adv-x="1234" d="M0 585 L0 823 L107 823 L107 1365 L528 1365 Q805 1365 965 1217 Q1160 1037 1160 687 Q1160 345 976 157 Q876 54 745 23 Q652 0 526 0 L107 0 L107 585 L0 585 Z M400 250 L531 250 Q687 250 758 324 Q867 438 867 688 Q867 894 775 1011 Q693 1115 522 1115 L400 1115 L400 823 L623 823 L623 585 L400 585 L400 250 Z " />
<glyph glyph-name="dcroat" unicode="&#x111;" horiz-adv-x="1038" d="M968 0 L681 0 L681 79 Q586 -29 430 -29 Q233 -29 119 134 Q22 272 22 481 Q22 707 134 837 Q188 899 265 934 Q344 971 429 971 Q583 971 687 863 L687 1068 L437 1068 L437 1214 L687 1214 L687 1365 L968 1365 L968 1214 L1049 1214 L1049 1068 L968 1068 L968 0 Z M491 758 Q405 758 356 683 Q303 603 303 478 Q303 364 344 282 Q394 184 491 184 Q578 184 629.5 262.5 Q681 341 681 473 Q681 601 631 678 Q579 758 491 758 Z " />
<glyph glyph-name="Emacron" unicode="&#x112;" horiz-adv-x="1120" d="M138 0 L138 1365 L1009 1365 L1009 1115 L431 1115 L431 823 L959 823 L959 585 L431 585 L431 250 L1021 250 L1021 0 L138 0 Z M873 1658 L873 1501 L286 1501 L286 1658 L873 1658 Z " />
<glyph glyph-name="emacron" unicode="&#x113;" horiz-adv-x="975" d="M950 403 L324 403 Q328 312 351 258 Q392 159 509 159 Q603 159 644 221 L926 221 Q906 157 851 99 Q729 -29 509 -29 Q290 -29 162 100 Q27 237 27 466 Q27 678 150 819 Q282 971 493 971 Q661 971 778 870 Q863 796 904 685.5 Q945 575 950 403 Z M653 571 Q647 636 628 681 Q585 783 491 783 Q423 783 379 726.5 Q335 670 325 571 L653 571 Z M781 1277 L781 1131 L196 1131 L196 1277 L781 1277 Z " />
<glyph glyph-name="Ebreve" unicode="&#x114;" horiz-adv-x="1120" d="M138 0 L138 1365 L1009 1365 L1009 1115 L431 1115 L431 823 L959 823 L959 585 L431 585 L431 250 L1021 250 L1021 0 L138 0 Z M287 1720 L426 1720 Q454 1613 580 1613 Q706 1613 733 1720 L872 1720 Q870 1652 848 1608 Q780 1467 580 1467 Q360 1467 302 1631 Q290 1665 287 1720 Z " />
<glyph glyph-name="ebreve" unicode="&#x115;" horiz-adv-x="975" d="M950 403 L324 403 Q328 312 351 258 Q392 159 509 159 Q603 159 644 221 L926 221 Q906 157 851 99 Q729 -29 509 -29 Q290 -29 162 100 Q27 237 27 466 Q27 678 150 819 Q282 971 493 971 Q661 971 778 870 Q863 796 904 685.5 Q945 575 950 403 Z M653 571 Q647 636 628 681 Q585 783 491 783 Q423 783 379 726.5 Q335 670 325 571 L653 571 Z M205 1365 L346 1365 Q374 1245 488 1245 Q603 1245 630 1365 L772 1365 Q769 1292 748 1244 Q683 1092 488 1092 Q275 1092 219 1270 Q207 1307 205 1365 Z " />
<glyph glyph-name="Edotaccent" unicode="&#x116;" horiz-adv-x="1120" d="M138 0 L138 1365 L1009 1365 L1009 1115 L431 1115 L431 823 L959 823 L959 585 L431 585 L431 250 L1021 250 L1021 0 L138 0 Z M698 1693 L698 1447 L461 1447 L461 1693 L698 1693 Z " />
<glyph glyph-name="edotaccent" unicode="&#x117;" horiz-adv-x="975" d="M950 403 L324 403 Q328 312 351 258 Q392 159 509 159 Q603 159 644 221 L926 221 Q906 157 851 99 Q729 -29 509 -29 Q290 -29 162 100 Q27 237 27 466 Q27 678 150 819 Q282 971 493 971 Q661 971 778 870 Q863 796 904 685.5 Q945 575 950 403 Z M653 571 Q647 636 628 681 Q585 783 491 783 Q423 783 379 726.5 Q335 670 325 571 L653 571 Z M614 1324 L614 1078 L363 1078 L363 1324 L614 1324 Z " />
<glyph glyph-name="Eogonek" unicode="&#x118;" horiz-adv-x="1120" d="M1007 0 Q916 -80 916 -165 Q916 -256 1010 -256 Q1030 -256 1081 -240 L1081 -359 L1071 -362 Q1014 -381 965 -381 Q872 -381 814 -331 Q756 -281 756 -201 Q756 -104 873 0 L138 0 L138 1365 L1009 1365 L1009 1115 L431 1115 L431 823 L959 823 L959 585 L431 585 L431 250 L1021 250 L1021 0 L1007 0 Z " />
<glyph glyph-name="eogonek" unicode="&#x119;" horiz-adv-x="975" d="M643 -14 Q568 -84 568 -164 Q568 -256 662 -256 Q683 -256 732 -240 L733 -359 L722 -362 Q665 -381 617 -381 Q524 -381 466 -331 Q408 -281 408 -201 Q408 -110 493 -29 Q328 -22 224 48 Q129 113 78 224 Q27 334 27 466 Q27 678 150 819 Q282 971 493 971 Q661 971 778 870 Q863 796 904 685.5 Q945 575 950 403 L324 403 Q328 312 351 258 Q392 159 509 159 Q603 159 644 221 L926 221 Q900 136 823 72 Q746 8 643 -14 Z M653 571 Q647 636 628 681 Q585 783 491 783 Q423 783 379 726.5 Q335 670 325 571 L653 571 Z " />
<glyph glyph-name="Ecaron" unicode="&#x11a;" horiz-adv-x="1120" d="M138 0 L138 1365 L1009 1365 L1009 1115 L431 1115 L431 823 L959 823 L959 585 L431 585 L431 250 L1021 250 L1021 0 L138 0 Z M887 1734 L697 1475 L463 1475 L272 1734 L487 1734 L576 1613 L662 1734 L887 1734 Z " />
<glyph glyph-name="ecaron" unicode="&#x11b;" horiz-adv-x="975" d="M950 403 L324 403 Q328 312 351 258 Q392 159 509 159 Q603 159 644 221 L926 221 Q906 157 851 99 Q729 -29 509 -29 Q290 -29 162 100 Q27 237 27 466 Q27 678 150 819 Q282 971 493 971 Q661 971 778 870 Q863 796 904 685.5 Q945 575 950 403 Z M653 571 Q647 636 628 681 Q585 783 491 783 Q423 783 379 726.5 Q335 670 325 571 L653 571 Z M175 1365 L393 1365 L493 1218 L594 1365 L803 1365 L609 1092 L368 1092 L175 1365 Z " />
<glyph glyph-name="Gcircumflex" unicode="&#x11c;" horiz-adv-x="1295" d="M1178 0 L964 0 L964 154 Q883 49 808 8 Q733 -33 625 -33 Q368 -33 219 174 Q75 374 75 675 Q75 977 226 1179 Q388 1397 657 1397 Q887 1397 1034 1227 Q1093 1159 1122.5 1088 Q1152 1017 1163 914 L878 913 Q863 998 831 1048 Q768 1147 653 1147 Q515 1147 441 1016 Q368 889 368 679 Q368 455 450 328 Q525 213 660 213 Q771 213 836.5 291.5 Q902 370 914 516 L668 516 L668 737 L1178 737 L1178 0 Z M949 1475 L724 1475 L638 1596 L550 1475 L334 1475 L525 1734 L758 1734 L949 1475 Z " />
<glyph glyph-name="gcircumflex" unicode="&#x11d;" horiz-adv-x="1035" d="M57 -134 L355 -134 Q378 -185 480 -185 Q587 -185 630.5 -125 Q674 -65 674 84 L674 126 Q581 16 428 16 Q249 16 140 137 Q27 263 27 487 Q27 710 140 840 Q254 971 435 971 Q585 971 674 858 L674 942 L949 942 L949 135 Q949 5 931.5 -73 Q914 -151 871 -210 Q755 -369 493 -369 Q305 -369 193 -308.5 Q81 -248 57 -134 Z M490 766 Q406 766 359 695 Q308 619 308 499 Q308 369 357 291 Q406 213 488 213 Q574 213 626 290 Q678 367 678 495 Q678 619 628 690 Q576 766 490 766 Z M814 1092 L596 1092 L496 1239 L394 1092 L186 1092 L379 1365 L620 1365 L814 1092 Z " />
<glyph glyph-name="Gbreve" unicode="&#x11e;" horiz-adv-x="1295" d="M1178 0 L964 0 L964 154 Q883 49 808 8 Q733 -33 625 -33 Q368 -33 219 174 Q75 374 75 675 Q75 977 226 1179 Q388 1397 657 1397 Q887 1397 1034 1227 Q1093 1159 1122.5 1088 Q1152 1017 1163 914 L878 913 Q863 998 831 1048 Q768 1147 653 1147 Q515 1147 441 1016 Q368 889 368 679 Q368 455 450 328 Q525 213 660 213 Q771 213 836.5 291.5 Q902 370 914 516 L668 516 L668 737 L1178 737 L1178 0 Z M356 1720 L495 1720 Q523 1613 649 1613 Q775 1613 802 1720 L941 1720 Q939 1652 917 1608 Q849 1467 649 1467 Q429 1467 371 1631 Q359 1665 356 1720 Z " />
<glyph glyph-name="gbreve" unicode="&#x11f;" horiz-adv-x="1035" d="M57 -134 L355 -134 Q378 -185 480 -185 Q587 -185 630.5 -125 Q674 -65 674 84 L674 126 Q581 16 428 16 Q249 16 140 137 Q27 263 27 487 Q27 710 140 840 Q254 971 435 971 Q585 971 674 858 L674 942 L949 942 L949 135 Q949 5 931.5 -73 Q914 -151 871 -210 Q755 -369 493 -369 Q305 -369 193 -308.5 Q81 -248 57 -134 Z M490 766 Q406 766 359 695 Q308 619 308 499 Q308 369 357 291 Q406 213 488 213 Q574 213 626 290 Q678 367 678 495 Q678 619 628 690 Q576 766 490 766 Z M207 1365 L348 1365 Q376 1245 490 1245 Q605 1245 632 1365 L774 1365 Q771 1292 750 1244 Q685 1092 490 1092 Q277 1092 221 1270 Q209 1307 207 1365 Z " />
<glyph glyph-name="Gdotaccent" unicode="&#x120;" horiz-adv-x="1295" d="M1178 0 L964 0 L964 154 Q883 49 808 8 Q733 -33 625 -33 Q368 -33 219 174 Q75 374 75 675 Q75 977 226 1179 Q388 1397 657 1397 Q887 1397 1034 1227 Q1093 1159 1122.5 1088 Q1152 1017 1163 914 L878 913 Q863 998 831 1048 Q768 1147 653 1147 Q515 1147 441 1016 Q368 889 368 679 Q368 455 450 328 Q525 213 660 213 Q771 213 836.5 291.5 Q902 370 914 516 L668 516 L668 737 L1178 737 L1178 0 Z M760 1693 L760 1447 L523 1447 L523 1693 L760 1693 Z " />
<glyph glyph-name="gdotaccent" unicode="&#x121;" horiz-adv-x="1035" d="M57 -134 L355 -134 Q378 -185 480 -185 Q587 -185 630.5 -125 Q674 -65 674 84 L674 126 Q581 16 428 16 Q249 16 140 137 Q27 263 27 487 Q27 710 140 840 Q254 971 435 971 Q585 971 674 858 L674 942 L949 942 L949 135 Q949 5 931.5 -73 Q914 -151 871 -210 Q755 -369 493 -369 Q305 -369 193 -308.5 Q81 -248 57 -134 Z M490 766 Q406 766 359 695 Q308 619 308 499 Q308 369 357 291 Q406 213 488 213 Q574 213 626 290 Q678 367 678 495 Q678 619 628 690 Q576 766 490 766 Z M623 1324 L623 1078 L372 1078 L372 1324 L623 1324 Z " />
<glyph glyph-name="Gcommaaccent" unicode="&#x122;" horiz-adv-x="1295" d="M1178 0 L964 0 L964 154 Q883 49 808 8 Q733 -33 625 -33 Q368 -33 219 174 Q75 374 75 675 Q75 977 226 1179 Q388 1397 657 1397 Q887 1397 1034 1227 Q1093 1159 1122.5 1088 Q1152 1017 1163 914 L878 913 Q863 998 831 1048 Q768 1147 653 1147 Q515 1147 441 1016 Q368 889 368 679 Q368 455 450 328 Q525 213 660 213 Q771 213 836.5 291.5 Q902 370 914 516 L668 516 L668 737 L1178 737 L1178 0 Z M746 -95 L746 -242 Q746 -352 714 -397 Q663 -469 522 -475 L522 -386 Q587 -379 609 -360 Q631 -341 637 -287 L522 -287 L522 -95 L746 -95 Z " />
<glyph glyph-name="gcommaaccent" unicode="&#x123;" horiz-adv-x="1035" d="M57 -134 L355 -134 Q378 -185 480 -185 Q587 -185 630.5 -125 Q674 -65 674 84 L674 126 Q581 16 428 16 Q249 16 140 137 Q27 263 27 487 Q27 710 140 840 Q254 971 435 971 Q585 971 674 858 L674 942 L949 942 L949 135 Q949 5 931.5 -73 Q914 -151 871 -210 Q755 -369 493 -369 Q305 -369 193 -308.5 Q81 -248 57 -134 Z M490 766 Q406 766 359 695 Q308 619 308 499 Q308 369 357 291 Q406 213 488 213 Q574 213 626 290 Q678 367 678 495 Q678 619 628 690 Q576 766 490 766 Z M368 1079 L368 1226 Q368 1336 402 1381 Q457 1453 609 1459 L609 1370 Q539 1363 515.5 1344 Q492 1325 486 1271 L609 1271 L609 1079 L368 1079 Z " />
<glyph glyph-name="Hcircumflex" unicode="&#x124;" horiz-adv-x="1298" d="M138 0 L138 1365 L431 1365 L431 846 L866 846 L866 1365 L1159 1365 L1159 0 L866 0 L866 596 L431 596 L431 0 L138 0 Z M956 1475 L731 1475 L645 1596 L557 1475 L341 1475 L532 1734 L765 1734 L956 1475 Z " />
<glyph glyph-name="hcircumflex" unicode="&#x125;" horiz-adv-x="1040" d="M85 0 L85 1365 L366 1365 L366 855 Q471 971 631 971 Q819 971 906 845 Q960 767 960 601 L960 0 L679 0 L679 557 Q679 656 657 695 Q622 758 542 758 Q437 758 390 657 Q366 605 366 464 L366 0 L85 0 Z M564 1475 L339 1475 L253 1596 L165 1475 L-51 1475 L140 1734 L373 1734 L564 1475 Z " />
<glyph glyph-name="Hbar" unicode="&#x126;" horiz-adv-x="1275" d="M127 986 L18 986 L18 1143 L127 1143 L127 1365 L420 1365 L420 1143 L855 1143 L855 1365 L1148 1365 L1148 1143 L1257 1143 L1257 986 L1148 986 L1148 0 L855 0 L855 596 L420 596 L420 0 L127 0 L127 986 Z M420 986 L420 846 L855 846 L855 986 L420 986 Z " />
<glyph glyph-name="hbar" unicode="&#x127;" horiz-adv-x="1040" d="M85 1131 L-13 1131 L-13 1277 L85 1277 L85 1365 L366 1365 L366 1277 L635 1277 L635 1131 L366 1131 L366 855 Q471 971 632 971 Q820 971 907 845 Q961 767 961 601 L961 0 L680 0 L680 557 Q680 656 658 695 Q623 758 542 758 Q437 758 390 657 Q366 605 366 464 L366 0 L85 0 L85 1131 Z " />
<glyph glyph-name="Itilde" unicode="&#x128;" horiz-adv-x="570" d="M139 0 L139 1365 L432 1365 L432 0 L139 0 Z M594 1734 Q556 1481 390 1481 Q364 1481 350 1485.5 Q336 1490 276 1517 Q184 1557 169 1557 Q126 1557 110 1475 L-24 1475 Q-23 1485 -22 1490 Q-7 1593 48 1659.5 Q103 1726 173 1726 Q217 1726 291 1691 Q367 1656 397 1656 Q419 1656 432.5 1672 Q446 1688 461 1734 L594 1734 Z " />
<glyph glyph-name="itilde" unicode="&#x129;" horiz-adv-x="526" d="M122 0 L122 942 L403 942 L403 0 L122 0 Z M569 1359 Q534 1105 371 1105 Q332 1105 302 1116 Q272 1127 194 1169 Q167 1184 147 1184 Q105 1184 90 1099 L-44 1099 Q-28 1219 24.5 1287 Q77 1355 155 1355 Q201 1355 272 1320 Q349 1281 377 1281 Q398 1281 410 1297.5 Q422 1314 437 1359 L569 1359 Z " />
<glyph glyph-name="Imacron" unicode="&#x12a;" horiz-adv-x="570" d="M138 0 L138 1365 L431 1365 L431 0 L138 0 Z M578 1658 L578 1501 L-9 1501 L-9 1658 L578 1658 Z " />
<glyph glyph-name="imacron" unicode="&#x12b;" horiz-adv-x="526" d="M122 0 L122 942 L403 942 L403 0 L122 0 Z M555 1277 L555 1131 L-30 1131 L-30 1277 L555 1277 Z " />
<glyph glyph-name="Ibreve" unicode="&#x12c;" horiz-adv-x="570" d="M138 0 L138 1365 L431 1365 L431 0 L138 0 Z M-8 1720 L131 1720 Q159 1613 285 1613 Q411 1613 438 1720 L577 1720 Q575 1652 553 1608 Q485 1467 285 1467 Q65 1467 7 1631 Q-5 1665 -8 1720 Z " />
<glyph glyph-name="ibreve" unicode="&#x12d;" horiz-adv-x="526" d="M123 0 L123 942 L404 942 L404 0 L123 0 Z M-20 1365 L121 1365 Q149 1245 263 1245 Q378 1245 405 1365 L547 1365 Q544 1292 523 1244 Q458 1092 263 1092 Q50 1092 -6 1270 Q-18 1307 -20 1365 Z " />
<glyph glyph-name="Iogonek" unicode="&#x12e;" horiz-adv-x="570" d="M421 0 Q331 -78 331 -165 Q331 -256 424 -256 Q444 -256 495 -240 L495 -359 L485 -362 Q427 -381 379 -381 Q287 -381 229 -331 Q171 -281 171 -201 Q171 -103 287 0 L139 0 L139 1365 L432 1365 L432 0 L421 0 Z " />
<glyph glyph-name="iogonek" unicode="&#x12f;" horiz-adv-x="521" d="M376 0 Q286 -79 286 -165 Q286 -256 380 -256 Q399 -256 450 -240 L450 -359 L440 -362 Q383 -381 334 -381 Q242 -381 184 -331 Q126 -281 126 -201 Q126 -104 242 0 L111 0 L111 942 L392 942 L392 0 L376 0 Z M111 1092 L111 1365 L409 1365 L409 1092 L111 1092 Z " />
<glyph glyph-name="Idot" unicode="&#x130;" horiz-adv-x="570" d="M138 0 L138 1365 L431 1365 L431 0 L138 0 Z M403 1693 L403 1447 L166 1447 L166 1693 L403 1693 Z " />
<glyph glyph-name="IJ" unicode="&#x132;" horiz-adv-x="1144" d="M138 0 L138 1365 L431 1365 L431 0 L138 0 Z M482 -19 L482 214 Q542 199 582 199 Q685 199 718 311 Q733 365 733 547 L733 1365 L1026 1365 L1026 519 Q1026 373 1010 287 Q994 201 955 137 Q852 -33 611 -33 Q553 -33 482 -19 Z " />
<glyph glyph-name="ij" unicode="&#x133;" horiz-adv-x="982" d="M93 1092 L93 1365 L391 1365 L391 1092 L93 1092 Z M93 0 L93 942 L374 942 L374 0 L93 0 Z M454 -347 L454 -134 Q501 -138 515 -138 Q573 -138 590 -110 Q607 -82 607 14 L607 942 L888 942 L888 -23 Q888 -210 804 -287 Q729 -355 571 -355 Q523 -355 454 -347 Z M590 1092 L590 1365 L888 1365 L888 1092 L590 1092 Z " />
<glyph glyph-name="Jcircumflex" unicode="&#x134;" horiz-adv-x="661" d="M0 -19 L0 214 Q60 199 100 199 Q203 199 236 311 Q251 365 251 547 L251 1365 L544 1365 L544 519 Q544 373 528 287 Q512 201 473 137 Q370 -33 129 -33 Q71 -33 0 -19 Z M704 1475 L479 1475 L393 1596 L305 1475 L89 1475 L280 1734 L513 1734 L704 1475 Z " />
<glyph glyph-name="jcircumflex" unicode="&#x135;" horiz-adv-x="510" d="M-35 -347 L-35 -134 Q12 -138 26 -138 Q84 -138 101 -110 Q118 -82 118 14 L118 942 L399 942 L399 -23 Q399 -210 315 -287 Q240 -355 82 -355 Q34 -355 -35 -347 Z M561 1092 L343 1092 L243 1239 L141 1092 L-67 1092 L126 1365 L367 1365 L561 1092 Z " />
<glyph glyph-name="Kcommaaccent" unicode="&#x136;" horiz-adv-x="1216" d="M138 0 L138 1365 L431 1365 L431 849 L837 1365 L1164 1365 L699 802 L1202 0 L874 0 L514 576 L431 476 L431 0 L138 0 Z M760 -95 L760 -242 Q760 -352 728 -397 Q677 -469 536 -475 L536 -386 Q601 -379 623 -360 Q645 -341 651 -287 L536 -287 L536 -95 L760 -95 Z " />
<glyph glyph-name="kcommaaccent" unicode="&#x137;" horiz-adv-x="992" d="M87 0 L87 1365 L368 1365 L368 662 L642 942 L968 942 L600 575 L999 0 L676 0 L414 390 L368 345 L368 0 L87 0 Z M632 -95 L632 -242 Q632 -352 598 -397 Q545 -469 395 -475 L395 -386 Q464 -379 487.5 -360 Q511 -341 516 -287 L395 -287 L395 -95 L632 -95 Z " />
<glyph glyph-name="kgreenlandic" unicode="&#x138;" horiz-adv-x="978" d="M368 619 L645 942 L965 942 L610 556 L999 0 L676 0 L435 365 L368 292 L368 0 L87 0 L87 942 L368 942 L368 619 Z " />
<glyph glyph-name="Lacute" unicode="&#x139;" horiz-adv-x="1034" d="M138 0 L138 1365 L431 1365 L431 254 L967 254 L967 0 L138 0 Z M696 1720 L498 1474 L265 1474 L449 1720 L696 1720 Z " />
<glyph glyph-name="lacute" unicode="&#x13a;" horiz-adv-x="526" d="M122 0 L122 1365 L403 1365 L403 0 L122 0 Z M564 1729 L353 1456 L136 1456 L330 1729 L564 1729 Z " />
<glyph glyph-name="Lcommaaccent" unicode="&#x13b;" horiz-adv-x="1034" d="M138 0 L138 1365 L431 1365 L431 254 L967 254 L967 0 L138 0 Z M665 -95 L665 -242 Q665 -352 633 -397 Q582 -469 441 -475 L441 -386 Q506 -379 528 -360 Q550 -341 556 -287 L441 -287 L441 -95 L665 -95 Z " />
<glyph glyph-name="lcommaaccent" unicode="&#x13c;" horiz-adv-x="526" d="M122 0 L122 1365 L403 1365 L403 0 L122 0 Z M380 -95 L380 -242 Q380 -352 346 -397 Q293 -469 143 -475 L143 -386 Q212 -379 235.5 -360 Q259 -341 264 -287 L143 -287 L143 -95 L380 -95 Z " />
<glyph glyph-name="Lcaron" unicode="&#x13d;" horiz-adv-x="1034" d="M138 0 L138 1365 L431 1365 L431 254 L967 254 L967 0 L138 0 Z M859 1365 L859 1218 Q859 1108 827 1063 Q776 991 635 985 L635 1074 Q700 1081 722 1100 Q744 1119 750 1173 L635 1173 L635 1365 L859 1365 Z " />
<glyph glyph-name="lcaron" unicode="&#x13e;" horiz-adv-x="677" d="M122 0 L122 1365 L403 1365 L403 0 L122 0 Z M731 1365 L731 1218 Q731 1108 697 1063 Q644 991 494 985 L494 1074 Q563 1081 586 1100 Q609 1119 615 1173 L494 1173 L494 1365 L731 1365 Z " />
<glyph glyph-name="Ldot" unicode="&#x13f;" horiz-adv-x="1019" d="M108 0 L108 1365 L401 1365 L401 254 L987 254 L987 0 L108 0 Z M765 825 L765 579 L514 579 L514 825 L765 825 Z " />
<glyph glyph-name="ldot" unicode="&#x140;" horiz-adv-x="710" d="M103 0 L103 1365 L384 1365 L384 0 L103 0 Z M724 825 L724 579 L473 579 L473 825 L724 825 Z " />
<glyph glyph-name="Lslash" unicode="&#x141;" horiz-adv-x="1002" d="M0 385 L0 619 L106 698 L106 1365 L399 1365 L399 897 L594 1038 L594 804 L399 663 L399 254 L936 254 L936 0 L106 0 L106 464 L0 385 Z " />
<glyph glyph-name="lslash" unicode="&#x142;" horiz-adv-x="495" d="M-10 425 L-10 649 L107 741 L107 1365 L388 1365 L388 975 L505 1066 L505 842 L388 751 L388 0 L107 0 L107 517 L-10 425 Z " />
<glyph glyph-name="Nacute" unicode="&#x143;" horiz-adv-x="1282" d="M138 0 L138 1365 L434 1366 L862 487 L862 1365 L1143 1365 L1143 0 L850 0 L419 877 L419 0 L138 0 Z M928 1720 L730 1474 L497 1474 L681 1720 L928 1720 Z " />
<glyph glyph-name="nacute" unicode="&#x144;" horiz-adv-x="1040" d="M85 0 L85 942 L368 942 L368 855 Q467 971 630 971 Q819 971 906 845 Q960 767 960 601 L960 0 L679 0 L679 557 Q679 655 657 695 Q622 758 542 758 Q438 758 391 657 Q366 605 366 464 L366 0 L85 0 Z M808 1365 L597 1092 L380 1092 L574 1365 L808 1365 Z " />
<glyph glyph-name="Ncommaaccent" unicode="&#x145;" horiz-adv-x="1282" d="M138 0 L138 1365 L434 1366 L862 487 L862 1365 L1143 1365 L1143 0 L850 0 L419 877 L419 0 L138 0 Z M753 -95 L753 -242 Q753 -352 721 -397 Q670 -469 529 -475 L529 -386 Q594 -379 616 -360 Q638 -341 644 -287 L529 -287 L529 -95 L753 -95 Z " />
<glyph glyph-name="ncommaaccent" unicode="&#x146;" horiz-adv-x="1040" d="M85 0 L85 942 L368 942 L368 855 Q467 971 630 971 Q819 971 906 845 Q960 767 960 601 L960 0 L679 0 L679 557 Q679 655 657 695 Q622 758 542 758 Q438 758 391 657 Q366 605 366 464 L366 0 L85 0 Z M641 -95 L641 -242 Q641 -352 607 -397 Q554 -469 404 -475 L404 -386 Q473 -379 496.5 -360 Q520 -341 525 -287 L404 -287 L404 -95 L641 -95 Z " />
<glyph glyph-name="Ncaron" unicode="&#x147;" horiz-adv-x="1282" d="M138 0 L138 1365 L434 1366 L862 487 L862 1365 L1143 1365 L1143 0 L850 0 L419 877 L419 0 L138 0 Z M948 1734 L758 1475 L524 1475 L333 1734 L548 1734 L637 1613 L723 1734 L948 1734 Z " />
<glyph glyph-name="ncaron" unicode="&#x148;" horiz-adv-x="1040" d="M85 0 L85 942 L368 942 L368 855 Q467 971 630 971 Q819 971 906 845 Q960 767 960 601 L960 0 L679 0 L679 557 Q679 655 657 695 Q622 758 542 758 Q438 758 391 657 Q366 605 366 464 L366 0 L85 0 Z M209 1365 L427 1365 L527 1218 L628 1365 L837 1365 L643 1092 L402 1092 L209 1365 Z " />
<glyph glyph-name="napostrophe" unicode="&#x149;" horiz-adv-x="1216" d="M268 0 L268 942 L551 942 L551 855 Q650 971 813 971 Q1002 971 1089 845 Q1143 767 1143 601 L1143 0 L862 0 L862 557 Q862 655 840 695 Q805 758 725 758 Q621 758 574 657 Q549 605 549 464 L549 0 L268 0 Z M212 1144 L212 997 Q212 887 178 842 Q125 770 -25 764 L-25 853 Q44 860 67 879 Q90 898 96 952 L-25 952 L-25 1144 L212 1144 Z " />
<glyph glyph-name="Eng" unicode="&#x14a;" horiz-adv-x="1272" d="M99 1365 L392 1365 L392 1190 Q452 1269 499 1306 Q606 1388 754 1388 Q910 1388 1025 1298 Q1109 1232 1145 1126 Q1181 1020 1181 837 L1181 319 Q1181 93 1101 -6 Q990 -142 777 -142 Q699 -142 602 -113 L602 138 Q663 108 713 108 Q808 108 849 175 Q883 231 883 422 L883 866 Q883 945 875.5 986 Q868 1027 847 1057 Q792 1138 657 1138 Q517 1138 454.5 1044.5 Q392 951 392 742 L392 0 L99 0 L99 1365 Z " />
<glyph glyph-name="eng" unicode="&#x14b;" horiz-adv-x="1040" d="M526 -228 L526 -15 Q572 -19 587 -19 Q645 -19 662 9 Q679 37 679 132 L679 557 Q679 655 657 695 Q622 758 542 758 Q438 758 390 657 Q366 605 366 464 L366 0 L85 0 L85 942 L368 942 L368 855 Q467 971 630 971 Q819 971 906 845 Q960 767 960 601 L960 96 Q960 -91 876 -168 Q801 -236 643 -236 Q598 -236 526 -228 Z " />
<glyph glyph-name="Omacron" unicode="&#x14c;" horiz-adv-x="1313" d="M660 1396 Q903 1396 1060 1220 Q1239 1021 1239 682 Q1239 392 1104 197 Q1024 82 902 21 Q793 -33 660 -33 Q370 -33 207 202 Q75 392 75 692 Q75 1018 246 1212 Q408 1396 660 1396 Z M658 1146 Q522 1146 448 1019 Q368 881 368 690 Q368 480 447 344 Q480 287 539 252 Q598 217 661 217 Q721 217 774.5 248.5 Q828 280 861 335 Q946 476 946 686 Q946 884 868 1019 Q794 1146 658 1146 Z M950 1658 L950 1501 L363 1501 L363 1658 L950 1658 Z " />
<glyph glyph-name="omacron" unicode="&#x14d;" horiz-adv-x="1003" d="M503 971 Q715 971 845 838 Q979 703 979 465 Q979 234 837 96 Q708 -29 502 -29 Q283 -29 152 111 Q23 248 23 472 Q23 691 148 825 Q284 971 503 971 Z M491 774 Q405 774 354.5 692.5 Q304 611 304 472 Q304 331 353 251 Q403 168 494 168 Q580 168 628 244 Q681 328 681 468 Q681 608 634 687 Q583 774 491 774 Z M793 1277 L793 1131 L208 1131 L208 1277 L793 1277 Z " />
<glyph glyph-name="Obreve" unicode="&#x14e;" horiz-adv-x="1313" d="M660 1396 Q903 1396 1060 1220 Q1239 1021 1239 682 Q1239 392 1104 197 Q1024 82 902 21 Q793 -33 660 -33 Q370 -33 207 202 Q75 392 75 692 Q75 1018 246 1212 Q408 1396 660 1396 Z M658 1146 Q522 1146 448 1019 Q368 881 368 690 Q368 480 447 344 Q480 287 539 252 Q598 217 661 217 Q721 217 774.5 248.5 Q828 280 861 335 Q946 476 946 686 Q946 884 868 1019 Q794 1146 658 1146 Z M364 1720 L503 1720 Q531 1613 657 1613 Q783 1613 810 1720 L949 1720 Q947 1652 925 1608 Q857 1467 657 1467 Q437 1467 379 1631 Q367 1665 364 1720 Z " />
<glyph glyph-name="obreve" unicode="&#x14f;" horiz-adv-x="1003" d="M503 971 Q715 971 845 838 Q979 703 979 465 Q979 234 837 96 Q708 -29 502 -29 Q283 -29 152 111 Q23 248 23 472 Q23 691 148 825 Q284 971 503 971 Z M491 774 Q405 774 354.5 692.5 Q304 611 304 472 Q304 331 353 251 Q403 168 494 168 Q580 168 628 244 Q681 328 681 468 Q681 608 634 687 Q583 774 491 774 Z M218 1365 L359 1365 Q387 1245 501 1245 Q616 1245 643 1365 L785 1365 Q782 1292 761 1244 Q696 1092 501 1092 Q288 1092 232 1270 Q220 1307 218 1365 Z " />
<glyph glyph-name="Ohungarumlaut" unicode="&#x150;" horiz-adv-x="1313" d="M660 1396 Q903 1396 1060 1220 Q1239 1021 1239 682 Q1239 392 1104 197 Q1024 82 902 21 Q793 -33 660 -33 Q370 -33 207 202 Q75 392 75 692 Q75 1018 246 1212 Q408 1396 660 1396 Z M658 1146 Q522 1146 448 1019 Q368 881 368 690 Q368 480 447 344 Q480 287 539 252 Q598 217 661 217 Q721 217 774.5 248.5 Q828 280 861 335 Q946 476 946 686 Q946 884 868 1019 Q794 1146 658 1146 Z M735 1720 L537 1474 L304 1474 L488 1720 L735 1720 Z M1145 1720 L946 1474 L714 1474 L897 1720 L1145 1720 Z " />
<glyph glyph-name="ohungarumlaut" unicode="&#x151;" horiz-adv-x="1003" d="M503 971 Q715 971 845 838 Q979 703 979 465 Q979 234 837 96 Q708 -29 502 -29 Q283 -29 152 111 Q23 248 23 472 Q23 691 148 825 Q284 971 503 971 Z M491 774 Q405 774 354.5 692.5 Q304 611 304 472 Q304 331 353 251 Q403 168 494 168 Q580 168 628 244 Q681 328 681 468 Q681 608 634 687 Q583 774 491 774 Z M596 1365 L385 1092 L168 1092 L362 1365 L596 1365 Z M1030 1365 L820 1092 L602 1092 L796 1365 L1030 1365 Z " />
<glyph glyph-name="Racute" unicode="&#x154;" horiz-adv-x="1249" d="M138 0 L138 1365 L663 1365 Q869 1365 982 1275 Q1111 1172 1111 984 Q1111 867 1060.5 779.5 Q1010 692 915 645 Q1001 615 1044 541 Q1071 496 1082 432.5 Q1093 369 1105 194 Q1111 114 1120 76.5 Q1129 39 1152 0 L850 0 Q835 36 831 64.5 Q827 93 816 254 Q808 355 792.5 408.5 Q777 462 747 493 Q704 536 599 536 L431 536 L431 0 L138 0 Z M431 757 L592 757 Q725 757 775 813 Q818 862 818 949 Q818 1044 765 1088 Q712 1132 598 1132 L431 1132 L431 757 Z M880 1720 L682 1474 L449 1474 L633 1720 L880 1720 Z " />
<glyph glyph-name="racute" unicode="&#x155;" horiz-adv-x="692" d="M85 0 L85 942 L366 942 L366 822 Q465 971 618 971 Q654 971 692 962 L692 718 Q633 733 592 733 Q454 733 397 612 Q366 546 366 396 L366 0 L85 0 Z M657 1365 L446 1092 L229 1092 L423 1365 L657 1365 Z " />
<glyph glyph-name="Rcommaaccent" unicode="&#x156;" horiz-adv-x="1249" d="M138 0 L138 1365 L663 1365 Q869 1365 982 1275 Q1111 1172 1111 984 Q1111 867 1060.5 779.5 Q1010 692 915 645 Q1001 615 1044 541 Q1071 496 1082 432.5 Q1093 369 1105 194 Q1111 114 1120 76.5 Q1129 39 1152 0 L850 0 Q835 36 831 64.5 Q827 93 816 254 Q808 355 792.5 408.5 Q777 462 747 493 Q704 536 599 536 L431 536 L431 0 L138 0 Z M431 757 L592 757 Q725 757 775 813 Q818 862 818 949 Q818 1044 765 1088 Q712 1132 598 1132 L431 1132 L431 757 Z M748 -95 L748 -242 Q748 -352 716 -397 Q665 -469 524 -475 L524 -386 Q589 -379 611 -360 Q633 -341 639 -287 L524 -287 L524 -95 L748 -95 Z " />
<glyph glyph-name="rcommaaccent" unicode="&#x157;" horiz-adv-x="692" d="M85 0 L85 942 L366 942 L366 822 Q465 971 618 971 Q654 971 692 962 L692 718 Q633 733 592 733 Q454 733 397 612 Q366 546 366 396 L366 0 L85 0 Z M347 -95 L347 -242 Q347 -352 313 -397 Q260 -469 110 -475 L110 -386 Q179 -379 202.5 -360 Q226 -341 231 -287 L110 -287 L110 -95 L347 -95 Z " />
<glyph glyph-name="Rcaron" unicode="&#x158;" horiz-adv-x="1249" d="M138 0 L138 1365 L663 1365 Q869 1365 982 1275 Q1111 1172 1111 984 Q1111 867 1060.5 779.5 Q1010 692 915 645 Q1001 615 1044 541 Q1071 496 1082 432.5 Q1093 369 1105 194 Q1111 114 1120 76.5 Q1129 39 1152 0 L850 0 Q835 36 831 64.5 Q827 93 816 254 Q808 355 792.5 408.5 Q777 462 747 493 Q704 536 599 536 L431 536 L431 0 L138 0 Z M431 757 L592 757 Q725 757 775 813 Q818 862 818 949 Q818 1044 765 1088 Q712 1132 598 1132 L431 1132 L431 757 Z M889 1734 L699 1475 L465 1475 L274 1734 L489 1734 L578 1613 L664 1734 L889 1734 Z " />
<glyph glyph-name="rcaron" unicode="&#x159;" horiz-adv-x="692" d="M86 0 L86 942 L367 942 L367 822 Q466 971 619 971 Q655 971 693 962 L693 718 Q634 733 593 733 Q455 733 398 612 Q367 546 367 396 L367 0 L86 0 Z M75 1365 L293 1365 L393 1218 L494 1365 L703 1365 L509 1092 L268 1092 L75 1365 Z " />
<glyph glyph-name="Sacute" unicode="&#x15a;" horiz-adv-x="1066" d="M53 399 L348 399 Q360 319 385 280 Q437 200 535 200 Q614 200 663 247 Q712 294 712 370 Q712 449 645 504 Q617 527 587.5 540.5 Q558 554 463 588 Q295 647 220 706 Q71 824 71 1015 Q71 1179 175 1282 Q291 1396 496 1396 Q693 1396 813 1295 Q933 1194 959 1005 L673 1005 Q663 1084 623 1120 Q575 1162 494 1162 Q422 1162 381.5 1125.5 Q341 1089 341 1024 Q341 952 394.5 910 Q448 868 607 816 Q780 760 875 685 Q1013 575 1013 389 Q1013 203 885 87 Q752 -33 530 -33 Q265 -33 135 166 Q69 268 53 399 Z M820 1720 L622 1474 L389 1474 L573 1720 L820 1720 Z " />
<glyph glyph-name="sacute" unicode="&#x15b;" horiz-adv-x="922" d="M50 284 L325 284 Q343 153 472 153 Q527 153 560 179.5 Q593 206 593 251 Q593 314 520 352 Q489 369 389 401 Q222 455 168 494 Q59 571 59 690 Q59 753 87.5 809.5 Q116 866 165 900 Q265 971 432 971 Q656 971 766 840 Q816 780 832 696 L555 696 Q528 787 441 787 Q397 787 371.5 764.5 Q346 742 346 704 Q346 648 414 614 Q443 599 575 560 Q698 523 767 474 Q873 399 873 268 Q873 132 766.5 51.5 Q660 -29 480 -29 Q350 -29 262.5 6.5 Q175 42 117 119 Q62 192 50 284 Z M747 1365 L536 1092 L319 1092 L513 1365 L747 1365 Z " />
<glyph glyph-name="Scircumflex" unicode="&#x15c;" horiz-adv-x="1066" d="M53 399 L348 399 Q360 319 385 280 Q437 200 535 200 Q614 200 663 247 Q712 294 712 370 Q712 449 645 504 Q617 527 587.5 540.5 Q558 554 463 588 Q295 647 220 706 Q71 824 71 1015 Q71 1179 175 1282 Q291 1396 496 1396 Q693 1396 813 1295 Q933 1194 959 1005 L673 1005 Q663 1084 623 1120 Q575 1162 494 1162 Q422 1162 381.5 1125.5 Q341 1089 341 1024 Q341 952 394.5 910 Q448 868 607 816 Q780 760 875 685 Q1013 575 1013 389 Q1013 203 885 87 Q752 -33 530 -33 Q265 -33 135 166 Q69 268 53 399 Z M840 1475 L615 1475 L529 1596 L441 1475 L225 1475 L416 1734 L649 1734 L840 1475 Z " />
<glyph glyph-name="scircumflex" unicode="&#x15d;" horiz-adv-x="922" d="M50 284 L325 284 Q343 153 472 153 Q527 153 560 179.5 Q593 206 593 251 Q593 314 520 352 Q489 369 389 401 Q222 455 168 494 Q59 571 59 690 Q59 753 87.5 809.5 Q116 866 165 900 Q265 971 432 971 Q656 971 766 840 Q816 780 832 696 L555 696 Q528 787 441 787 Q397 787 371.5 764.5 Q346 742 346 704 Q346 648 414 614 Q443 599 575 560 Q698 523 767 474 Q873 399 873 268 Q873 132 766.5 51.5 Q660 -29 480 -29 Q350 -29 262.5 6.5 Q175 42 117 119 Q62 192 50 284 Z M775 1092 L557 1092 L457 1239 L355 1092 L147 1092 L340 1365 L581 1365 L775 1092 Z " />
<glyph glyph-name="Scedilla" unicode="&#x15e;" horiz-adv-x="1066" d="M520 -33 L493 -104 Q517 -94 546 -94 Q633 -94 686 -135.5 Q739 -177 739 -244 Q739 -319 681.5 -364.5 Q624 -410 529 -410 Q452 -410 400.5 -379.5 Q349 -349 341 -299 L471 -299 Q479 -330 523 -330 Q589 -330 589 -251 Q589 -173 522 -173 Q485 -173 475 -200 L348 -200 L413 -22 Q267 6 170 119 Q73 232 53 399 L348 399 Q360 319 385 280 Q437 200 535 200 Q614 200 663 247 Q712 294 712 370 Q712 449 645 504 Q617 527 587.5 540.5 Q558 554 463 588 Q295 647 220 706 Q71 824 71 1015 Q71 1179 175 1282 Q291 1396 496 1396 Q693 1396 813 1295 Q933 1194 959 1005 L673 1005 Q663 1084 623 1120 Q575 1162 494 1162 Q422 1162 381.5 1125.5 Q341 1089 341 1024 Q341 951 394.5 909.5 Q448 868 607 816 Q779 760 875 685 Q1013 575 1013 389 Q1013 203 885 87 Q822 30 730 -1.5 Q638 -33 537 -33 Q533 -33 520 -33 Z " />
<glyph glyph-name="scedilla" unicode="&#x15f;" horiz-adv-x="922" d="M462 -29 L432 -108 Q456 -96 492 -96 Q574 -96 624.5 -137 Q675 -178 675 -244 Q675 -319 618.5 -364.5 Q562 -410 469 -410 Q392 -410 340.5 -379.5 Q289 -349 281 -299 L410 -299 Q418 -330 462 -330 Q530 -330 530 -253 Q530 -216 511.5 -194.5 Q493 -173 462 -173 Q424 -173 413 -200 L284 -200 L349 -18 Q226 5 146 85.5 Q66 166 50 284 L325 284 Q343 153 472 153 Q528 153 561 179.5 Q594 206 594 251 Q594 314 520 352 Q490 369 390 401 Q222 455 168 494 Q59 571 59 690 Q59 752 87.5 809 Q116 866 165 900 Q265 971 432 971 Q656 971 766 840 Q816 780 832 696 L555 696 Q528 787 441 787 Q397 787 371.5 764.5 Q346 742 346 704 Q346 648 414 614 Q443 599 575 560 Q698 523 767 474 Q873 399 873 268 Q873 133 766.5 52 Q660 -29 482 -29 Q477 -29 462 -29 Z " />
<glyph glyph-name="Scaron" unicode="&#x160;" horiz-adv-x="1066" d="M53 399 L348 399 Q360 319 385 280 Q437 200 535 200 Q614 200 663 247 Q712 294 712 370 Q712 449 645 504 Q617 527 587.5 540.5 Q558 554 463 588 Q295 647 220 706 Q71 824 71 1015 Q71 1179 175 1282 Q291 1396 496 1396 Q693 1396 813 1295 Q933 1194 959 1005 L673 1005 Q663 1084 623 1120 Q575 1162 494 1162 Q422 1162 381.5 1125.5 Q341 1089 341 1024 Q341 952 394.5 910 Q448 868 607 816 Q780 760 875 685 Q1013 575 1013 389 Q1013 203 885 87 Q752 -33 530 -33 Q265 -33 135 166 Q69 268 53 399 Z M831 1734 L641 1475 L407 1475 L216 1734 L431 1734 L520 1613 L606 1734 L831 1734 Z " />
<glyph glyph-name="scaron" unicode="&#x161;" horiz-adv-x="922" d="M50 284 L325 284 Q343 153 472 153 Q527 153 560 179.5 Q593 206 593 251 Q593 314 520 352 Q489 369 389 401 Q222 455 168 494 Q59 571 59 690 Q59 753 87.5 809.5 Q116 866 165 900 Q265 971 432 971 Q656 971 766 840 Q816 780 832 696 L555 696 Q528 787 441 787 Q397 787 371.5 764.5 Q346 742 346 704 Q346 648 414 614 Q443 599 575 560 Q698 523 767 474 Q873 399 873 268 Q873 132 766.5 51.5 Q660 -29 480 -29 Q350 -29 262.5 6.5 Q175 42 117 119 Q62 192 50 284 Z M147 1365 L365 1365 L465 1218 L566 1365 L775 1365 L581 1092 L340 1092 L147 1365 Z " />
<glyph glyph-name="Tcommaaccent" unicode="&#x162;" horiz-adv-x="1047" d="M376 0 L376 1115 L45 1115 L45 1365 L1002 1365 L1002 1115 L669 1115 L669 0 L376 0 Z M636 -95 L636 -242 Q636 -352 604 -397 Q553 -469 412 -475 L412 -386 Q477 -379 499 -360 Q521 -341 527 -287 L412 -287 L412 -95 L636 -95 Z " />
<glyph glyph-name="tcommaaccent" unicode="&#x163;" horiz-adv-x="620" d="M1 766 L1 942 L150 942 L150 1003 L339 1255 L431 1255 L431 942 L612 942 L612 766 L431 766 L431 320 Q431 234 449.5 207 Q468 180 527 180 Q560 180 602 194 L602 -7 Q515 -25 433 -25 Q258 -25 194 66 Q167 104 158.5 154 Q150 204 150 330 L150 766 L1 766 Z M425 -95 L425 -242 Q425 -352 391 -397 Q338 -469 188 -475 L188 -386 Q257 -379 280.5 -360 Q304 -341 309 -287 L188 -287 L188 -95 L425 -95 Z " />
<glyph glyph-name="Tcaron" unicode="&#x164;" horiz-adv-x="1047" d="M376 0 L376 1115 L45 1115 L45 1365 L1002 1365 L1002 1115 L669 1115 L669 0 L376 0 Z M831 1734 L641 1475 L407 1475 L216 1734 L431 1734 L520 1613 L606 1734 L831 1734 Z " />
<glyph glyph-name="tcaron" unicode="&#x165;" horiz-adv-x="745" d="M1 766 L1 942 L150 942 L150 1003 L339 1255 L431 1255 L431 942 L612 942 L612 766 L431 766 L431 320 Q431 234 449.5 207 Q468 180 527 180 Q560 180 602 194 L602 -7 Q515 -25 433 -25 Q258 -25 194 66 Q167 104 158.5 154 Q150 204 150 330 L150 766 L1 766 Z M799 1389 L799 1242 Q799 1132 765 1087 Q712 1015 562 1009 L562 1098 Q631 1105 654 1124 Q677 1143 683 1197 L562 1197 L562 1389 L799 1389 Z " />
<glyph glyph-name="Tbar" unicode="&#x166;" horiz-adv-x="1030" d="M367 794 L222 794 L222 940 L367 940 L367 1115 L8 1115 L8 1365 L1022 1365 L1022 1115 L660 1115 L660 940 L808 940 L808 794 L660 794 L660 0 L367 0 L367 794 Z " />
<glyph glyph-name="tbar" unicode="&#x167;" horiz-adv-x="596" d="M418 701 L599 701 L599 525 L418 525 L418 320 Q418 234 436.5 207.5 Q455 181 514 181 Q547 181 589 194 L589 -7 Q502 -25 420 -25 Q245 -25 181 66 Q154 104 145.5 154 Q137 204 137 330 L137 525 L-12 525 L-12 701 L137 701 L137 766 L-12 766 L-12 942 L137 942 L137 1003 L326 1255 L418 1255 L418 942 L599 942 L599 766 L418 766 L418 701 Z " />
<glyph glyph-name="Utilde" unicode="&#x168;" horiz-adv-x="1250" d="M117 1365 L398 1365 L398 570 Q398 375 452 298 Q510 217 630 217 Q760 217 807 328 Q840 404 840 571 L840 1365 L1133 1365 L1133 586 Q1133 402 1107 307 Q1062 144 945 55 Q829 -33 624 -33 Q330 -33 203 165 Q156 239 136.5 335 Q117 431 117 590 L117 1365 Z M934 1734 Q896 1481 730 1481 Q704 1481 690 1485.5 Q676 1490 616 1517 Q524 1557 509 1557 Q466 1557 450 1475 L316 1475 Q317 1485 318 1490 Q333 1593 388 1659.5 Q443 1726 513 1726 Q557 1726 631 1691 Q707 1656 737 1656 Q759 1656 772.5 1672 Q786 1688 801 1734 L934 1734 Z " />
<glyph glyph-name="utilde" unicode="&#x169;" horiz-adv-x="1040" d="M954 942 L954 0 L670 0 L670 87 Q572 -29 409 -29 Q219 -29 133 97 Q79 175 79 341 L79 942 L360 942 L360 385 Q360 287 382 247 Q417 184 496 184 Q600 184 647 285 Q671 338 671 478 L671 942 L954 942 Z M823 1359 Q788 1105 625 1105 Q586 1105 556 1116 Q526 1127 448 1169 Q421 1184 401 1184 Q359 1184 344 1099 L210 1099 Q226 1219 278.5 1287 Q331 1355 409 1355 Q455 1355 526 1320 Q603 1281 631 1281 Q652 1281 664 1297.5 Q676 1314 691 1359 L823 1359 Z " />
<glyph glyph-name="Umacron" unicode="&#x16a;" horiz-adv-x="1250" d="M117 1365 L398 1365 L398 570 Q398 375 452 298 Q510 217 630 217 Q760 217 807 328 Q840 404 840 571 L840 1365 L1133 1365 L1133 586 Q1133 402 1107 307 Q1062 144 945 55 Q829 -33 624 -33 Q330 -33 203 165 Q156 239 136.5 335 Q117 431 117 590 L117 1365 Z M918 1658 L918 1501 L331 1501 L331 1658 L918 1658 Z " />
<glyph glyph-name="umacron" unicode="&#x16b;" horiz-adv-x="1040" d="M954 942 L954 0 L671 0 L671 87 Q573 -29 409 -29 Q219 -29 133 97 Q79 175 79 341 L79 942 L360 942 L360 385 Q360 287 382 247 Q417 184 496 184 Q601 184 647 285 Q672 338 672 478 L672 942 L954 942 Z M809 1277 L809 1131 L224 1131 L224 1277 L809 1277 Z " />
<glyph glyph-name="Ubreve" unicode="&#x16c;" horiz-adv-x="1250" d="M117 1365 L398 1365 L398 570 Q398 375 452 298 Q510 217 630 217 Q760 217 807 328 Q840 404 840 571 L840 1365 L1133 1365 L1133 586 Q1133 402 1107 307 Q1062 144 945 55 Q829 -33 624 -33 Q330 -33 203 165 Q156 239 136.5 335 Q117 431 117 590 L117 1365 Z M332 1720 L471 1720 Q499 1613 625 1613 Q751 1613 778 1720 L917 1720 Q915 1652 893 1608 Q825 1467 625 1467 Q405 1467 347 1631 Q335 1665 332 1720 Z " />
<glyph glyph-name="ubreve" unicode="&#x16d;" horiz-adv-x="1040" d="M954 942 L954 0 L671 0 L671 87 Q573 -29 409 -29 Q219 -29 133 97 Q79 175 79 341 L79 942 L360 942 L360 385 Q360 287 382 247 Q417 184 496 184 Q601 184 647 285 Q672 338 672 478 L672 942 L954 942 Z M233 1365 L374 1365 Q402 1245 516 1245 Q631 1245 658 1365 L800 1365 Q797 1292 776 1244 Q711 1092 516 1092 Q303 1092 247 1270 Q235 1307 233 1365 Z " />
<glyph glyph-name="Uring" unicode="&#x16e;" horiz-adv-x="1250" d="M117 1365 L398 1365 L398 570 Q398 375 452 298 Q510 217 630 217 Q760 217 807 328 Q840 404 840 571 L840 1365 L1133 1365 L1133 586 Q1133 402 1107 307 Q1062 144 945 55 Q829 -33 624 -33 Q330 -33 203 165 Q156 239 136.5 335 Q117 431 117 590 L117 1365 Z M627 1710 Q590 1710 565 1684 Q540 1658 540 1621 Q540 1584 564.5 1558 Q589 1532 624 1532 Q660 1532 685 1558 Q710 1584 710 1621 Q710 1657 685.5 1683.5 Q661 1710 627 1710 Z M628 1816 Q709 1816 768 1759 Q827 1702 827 1621 Q827 1541 768 1484 Q709 1427 625 1427 Q540 1427 482 1484 Q423 1541 423 1621 Q423 1702 482.5 1759 Q542 1816 628 1816 Z " />
<glyph glyph-name="uring" unicode="&#x16f;" horiz-adv-x="1040" d="M954 942 L954 0 L671 0 L671 87 Q573 -29 409 -29 Q219 -29 133 97 Q79 175 79 341 L79 942 L360 942 L360 385 Q360 287 382 247 Q417 184 496 184 Q601 184 647 285 Q672 338 672 478 L672 942 L954 942 Z M518 1349 Q479 1349 452.5 1323 Q426 1297 426 1258 Q426 1220 452 1194 Q478 1168 516 1168 Q553 1168 579.5 1194.5 Q606 1221 606 1258 Q606 1295 580 1322 Q554 1349 518 1349 Z M520 1460 Q608 1460 671 1402 Q735 1343 735 1258 Q735 1177 672 1118 Q608 1058 517 1058 Q425 1058 362 1117 Q298 1176 298 1258 Q298 1343 362.5 1401.5 Q427 1460 520 1460 Z " />
<glyph glyph-name="Uhungarumlaut" unicode="&#x170;" horiz-adv-x="1250" d="M117 1365 L398 1365 L398 570 Q398 375 452 298 Q510 217 630 217 Q760 217 807 328 Q840 404 840 571 L840 1365 L1133 1365 L1133 586 Q1133 402 1107 307 Q1062 144 945 55 Q829 -33 624 -33 Q330 -33 203 165 Q156 239 136.5 335 Q117 431 117 590 L117 1365 Z M706 1720 L508 1474 L275 1474 L459 1720 L706 1720 Z M1116 1720 L917 1474 L685 1474 L868 1720 L1116 1720 Z " />
<glyph glyph-name="uhungarumlaut" unicode="&#x171;" horiz-adv-x="1040" d="M954 942 L954 0 L671 0 L671 87 Q573 -29 409 -29 Q219 -29 133 97 Q79 175 79 341 L79 942 L360 942 L360 385 Q360 287 382 247 Q417 184 496 184 Q601 184 647 285 Q672 338 672 478 L672 942 L954 942 Z M602 1365 L391 1092 L174 1092 L368 1365 L602 1365 Z M1036 1365 L826 1092 L608 1092 L802 1365 L1036 1365 Z " />
<glyph glyph-name="Uogonek" unicode="&#x172;" horiz-adv-x="1250" d="M824 -6 Q822 -8 819 -11 Q741 -81 741 -164 Q741 -256 835 -256 Q854 -256 905 -240 L905 -359 L895 -362 Q838 -381 789 -381 Q697 -381 639 -331.5 Q581 -282 581 -203 Q581 -109 662 -32 Q645 -33 625 -33 Q330 -33 203 165 Q156 239 136.5 335 Q117 431 117 590 L117 1365 L398 1365 L398 570 Q398 375 452 298 Q510 217 630 217 Q760 217 807 328 Q840 404 840 571 L840 1365 L1133 1365 L1133 586 Q1145 102 824 -6 Z " />
<glyph glyph-name="uogonek" unicode="&#x173;" horiz-adv-x="1040" d="M942 0 Q851 -80 851 -165 Q851 -256 945 -256 Q965 -256 1015 -240 L1016 -359 L1006 -362 Q948 -381 900 -381 Q807 -381 749 -331 Q691 -281 691 -201 Q691 -104 807 0 L670 0 L670 87 Q571 -29 409 -29 Q219 -29 133 97 Q79 175 79 341 L79 942 L360 942 L360 385 Q360 287 382 247 Q417 184 496 184 Q600 184 647 285 Q671 338 671 478 L671 942 L954 942 L954 0 L942 0 Z " />
<glyph glyph-name="Wcircumflex" unicode="&#x174;" horiz-adv-x="1542" d="M0 1365 L294 1365 L456 429 L632 1365 L911 1365 L1085 427 L1250 1365 L1542 1365 L1234 0 L941 0 L769 927 L600 0 L304 0 L0 1365 Z M1079 1475 L854 1475 L768 1596 L680 1475 L464 1475 L655 1734 L888 1734 L1079 1475 Z " />
<glyph glyph-name="wcircumflex" unicode="&#x175;" horiz-adv-x="1491" d="M626 1 L320 0 L41 942 L353 942 L486 350 L605 942 L895 942 L1017 354 L1150 942 L1450 942 L1179 1 L874 0 L747 582 L626 1 Z M1060 1092 L842 1092 L742 1239 L640 1092 L432 1092 L625 1365 L866 1365 L1060 1092 Z " />
<glyph glyph-name="Ycircumflex" unicode="&#x176;" horiz-adv-x="1133" d="M-3 1365 L323 1365 L569 825 L815 1365 L1136 1365 L713 528 L713 0 L420 0 L420 532 L-3 1365 Z M874 1475 L649 1475 L563 1596 L475 1475 L259 1475 L450 1734 L683 1734 L874 1475 Z " />
<glyph glyph-name="ycircumflex" unicode="&#x177;" horiz-adv-x="1040" d="M41 942 L357 942 L528 336 L693 942 L999 941 L678 -15 Q637 -136 599.5 -199 Q562 -262 512 -296 Q424 -355 269 -355 Q205 -355 142 -345 L142 -130 Q194 -142 234 -142 Q362 -142 362 -30 Q362 11 344 63 L41 942 Z M834 1092 L616 1092 L516 1239 L414 1092 L206 1092 L399 1365 L640 1365 L834 1092 Z " />
<glyph glyph-name="Zacute" unicode="&#x179;" horiz-adv-x="1077" d="M43 0 L43 238 L656 1115 L87 1115 L87 1365 L1011 1365 L1011 1143 L391 254 L1029 254 L1029 0 L43 0 Z M823 1720 L625 1474 L392 1474 L576 1720 L823 1720 Z " />
<glyph glyph-name="zacute" unicode="&#x17a;" horiz-adv-x="864" d="M14 0 L14 194 L467 739 L49 739 L49 942 L827 942 L827 755 L362 203 L858 203 L858 0 L14 0 Z M721 1365 L510 1092 L293 1092 L487 1365 L721 1365 Z " />
<glyph glyph-name="Zdotaccent" unicode="&#x17b;" horiz-adv-x="1077" d="M43 0 L43 238 L656 1115 L87 1115 L87 1365 L1011 1365 L1011 1143 L391 254 L1029 254 L1029 0 L43 0 Z M655 1693 L655 1447 L418 1447 L418 1693 L655 1693 Z " />
<glyph glyph-name="zdotaccent" unicode="&#x17c;" horiz-adv-x="864" d="M14 0 L14 194 L467 739 L49 739 L49 942 L827 942 L827 755 L362 203 L858 203 L858 0 L14 0 Z M561 1324 L561 1078 L310 1078 L310 1324 L561 1324 Z " />
<glyph glyph-name="Zcaron" unicode="&#x17d;" horiz-adv-x="1077" d="M43 0 L43 238 L656 1115 L87 1115 L87 1365 L1011 1365 L1011 1143 L391 254 L1029 254 L1029 0 L43 0 Z M844 1734 L654 1475 L420 1475 L229 1734 L444 1734 L533 1613 L619 1734 L844 1734 Z " />
<glyph glyph-name="zcaron" unicode="&#x17e;" horiz-adv-x="864" d="M14 0 L14 194 L467 739 L49 739 L49 942 L827 942 L827 755 L362 203 L858 203 L858 0 L14 0 Z M122 1365 L340 1365 L440 1218 L541 1365 L750 1365 L556 1092 L315 1092 L122 1365 Z " />
<glyph glyph-name="longs" unicode="&#x17f;" horiz-adv-x="626" d="M170 0 L170 1026 Q170 1137 185 1196.5 Q200 1256 239 1300 Q324 1397 514 1397 Q519 1397 637 1390 L637 1186 Q586 1192 553 1192 Q491 1192 471 1164 Q451 1136 451 1050 L451 0 L170 0 Z " />
<glyph glyph-name="uni01CD" unicode="&#x1cd;" horiz-adv-x="1159" d="M430 1365 L730 1365 L1162 0 L857 0 L772 305 L383 305 L297 0 L-3 0 L430 1365 Z M446 526 L711 526 L579 997 L446 526 Z M887 1734 L697 1475 L463 1475 L272 1734 L487 1734 L576 1613 L662 1734 L887 1734 Z " />
<glyph glyph-name="uni01CE" unicode="&#x1ce;" horiz-adv-x="1014" d="M1001 189 L1001 12 Q944 -12 881 -12 Q752 -12 686 90 Q637 42 596 19 Q509 -29 382 -29 Q237 -29 151 35 Q47 112 47 247 Q47 350 109 427 Q171 504 278 535 Q385 566 636 572 L636 648 Q636 726 602 760.5 Q568 795 490 795 Q380 795 368 690 L84 690 Q93 823 194 896 Q299 971 480 971 Q742 971 852 863 Q897 819 911 764.5 Q925 710 925 575 L925 260 Q925 214 934.5 196.5 Q944 179 969 179 Q979 179 1001 189 Z M636 429 Q526 425 465 410 Q400 395 364 357.5 Q328 320 328 268 Q328 219 356.5 191.5 Q385 164 435 164 Q540 164 598 252 Q636 309 636 379 L636 429 Z M198 1365 L416 1365 L516 1218 L617 1365 L826 1365 L632 1092 L391 1092 L198 1365 Z " />
<glyph glyph-name="uni01D3" unicode="&#x1d3;" horiz-adv-x="1250" d="M117 1365 L398 1365 L398 570 Q398 375 452 298 Q510 217 630 217 Q760 217 807 328 Q840 404 840 571 L840 1365 L1133 1365 L1133 586 Q1133 402 1107 307 Q1062 144 945 55 Q829 -33 624 -33 Q330 -33 203 165 Q156 239 136.5 335 Q117 431 117 590 L117 1365 Z M933 1734 L743 1475 L509 1475 L318 1734 L533 1734 L622 1613 L708 1734 L933 1734 Z " />
<glyph glyph-name="uni01D4" unicode="&#x1d4;" horiz-adv-x="1040" d="M954 942 L954 0 L671 0 L671 87 Q573 -29 409 -29 Q219 -29 133 97 Q79 175 79 341 L79 942 L360 942 L360 385 Q360 287 382 247 Q417 184 496 184 Q601 184 647 285 Q672 338 672 478 L672 942 L954 942 Z M203 1365 L421 1365 L521 1218 L622 1365 L831 1365 L637 1092 L396 1092 L203 1365 Z " />
<glyph glyph-name="Gcaron" unicode="&#x1e6;" horiz-adv-x="1295" d="M1178 0 L964 0 L964 154 Q883 49 808 8 Q733 -33 625 -33 Q368 -33 219 174 Q75 374 75 675 Q75 977 226 1179 Q388 1397 657 1397 Q887 1397 1034 1227 Q1093 1159 1122.5 1088 Q1152 1017 1163 914 L878 913 Q863 998 831 1048 Q768 1147 653 1147 Q515 1147 441 1016 Q368 889 368 679 Q368 455 450 328 Q525 213 660 213 Q771 213 836.5 291.5 Q902 370 914 516 L668 516 L668 737 L1178 737 L1178 0 Z M958 1734 L768 1475 L534 1475 L343 1734 L558 1734 L647 1613 L733 1734 L958 1734 Z " />
<glyph glyph-name="gcaron" unicode="&#x1e7;" horiz-adv-x="1035" d="M57 -134 L355 -134 Q378 -185 480 -185 Q587 -185 630.5 -125 Q674 -65 674 84 L674 126 Q581 16 428 16 Q249 16 140 137 Q27 263 27 487 Q27 710 140 840 Q254 971 435 971 Q585 971 674 858 L674 942 L949 942 L949 135 Q949 5 931.5 -73 Q914 -151 871 -210 Q755 -369 493 -369 Q305 -369 193 -308.5 Q81 -248 57 -134 Z M490 766 Q406 766 359 695 Q308 619 308 499 Q308 369 357 291 Q406 213 488 213 Q574 213 626 290 Q678 367 678 495 Q678 619 628 690 Q576 766 490 766 Z M179 1365 L397 1365 L497 1218 L598 1365 L807 1365 L613 1092 L372 1092 L179 1365 Z " />
<glyph glyph-name="uni01F5" unicode="&#x1f5;" horiz-adv-x="1035" d="M57 -134 L355 -134 Q378 -185 480 -185 Q587 -185 630.5 -125 Q674 -65 674 84 L674 126 Q581 16 428 16 Q249 16 140 137 Q27 263 27 487 Q27 710 140 840 Q254 971 435 971 Q585 971 674 858 L674 942 L949 942 L949 135 Q949 5 931.5 -73 Q914 -151 871 -210 Q755 -369 493 -369 Q305 -369 193 -308.5 Q81 -248 57 -134 Z M490 766 Q406 766 359 695 Q308 619 308 499 Q308 369 357 291 Q406 213 488 213 Q574 213 626 290 Q678 367 678 495 Q678 619 628 690 Q576 766 490 766 Z M725 1365 L514 1092 L297 1092 L491 1365 L725 1365 Z " />
<glyph glyph-name="Scommaaccent" unicode="&#x218;" horiz-adv-x="1066" d="M53 399 L348 399 Q360 319 385 280 Q437 200 535 200 Q614 200 663 247 Q712 294 712 370 Q712 449 645 504 Q617 527 587.5 540.5 Q558 554 463 588 Q295 647 220 706 Q71 824 71 1015 Q71 1179 175 1282 Q291 1396 496 1396 Q693 1396 813 1295 Q933 1194 959 1005 L673 1005 Q663 1084 623 1120 Q575 1162 494 1162 Q422 1162 381.5 1125.5 Q341 1089 341 1024 Q341 952 394.5 910 Q448 868 607 816 Q780 760 875 685 Q1013 575 1013 389 Q1013 203 885 87 Q752 -33 530 -33 Q265 -33 135 166 Q69 268 53 399 Z M645 -95 L645 -242 Q645 -352 613 -397 Q562 -469 421 -475 L421 -386 Q486 -379 508 -360 Q530 -341 536 -287 L421 -287 L421 -95 L645 -95 Z " />
<glyph glyph-name="scommaaccent" unicode="&#x219;" horiz-adv-x="922" d="M50 284 L325 284 Q343 153 472 153 Q527 153 560 179.5 Q593 206 593 251 Q593 314 520 352 Q489 369 389 401 Q222 455 168 494 Q59 571 59 690 Q59 753 87.5 809.5 Q116 866 165 900 Q265 971 432 971 Q656 971 766 840 Q816 780 832 696 L555 696 Q528 787 441 787 Q397 787 371.5 764.5 Q346 742 346 704 Q346 648 414 614 Q443 599 575 560 Q698 523 767 474 Q873 399 873 268 Q873 132 766.5 51.5 Q660 -29 480 -29 Q350 -29 262.5 6.5 Q175 42 117 119 Q62 192 50 284 Z M580 -95 L580 -242 Q580 -352 546 -397 Q493 -469 343 -475 L343 -386 Q412 -379 435.5 -360 Q459 -341 464 -287 L343 -287 L343 -95 L580 -95 Z " />
<glyph glyph-name="uni021A" unicode="&#x21a;" horiz-adv-x="1047" d="M376 0 L376 1115 L45 1115 L45 1365 L1002 1365 L1002 1115 L669 1115 L669 0 L376 0 Z M636 -95 L636 -242 Q636 -352 604 -397 Q553 -469 412 -475 L412 -386 Q477 -379 499 -360 Q521 -341 527 -287 L412 -287 L412 -95 L636 -95 Z " />
<glyph glyph-name="uni021B" unicode="&#x21b;" horiz-adv-x="620" d="M1 766 L1 942 L150 942 L150 1003 L339 1255 L431 1255 L431 942 L612 942 L612 766 L431 766 L431 320 Q431 234 449.5 207 Q468 180 527 180 Q560 180 602 194 L602 -7 Q515 -25 433 -25 Q258 -25 194 66 Q167 104 158.5 154 Q150 204 150 330 L150 766 L1 766 Z M425 -95 L425 -242 Q425 -352 391 -397 Q338 -469 188 -475 L188 -386 Q257 -379 280.5 -360 Q304 -341 309 -287 L188 -287 L188 -95 L425 -95 Z " />
<glyph glyph-name="dotlessj" unicode="&#x237;" horiz-adv-x="510" d="M-36 -347 L-36 -134 Q11 -138 25 -138 Q83 -138 100 -110 Q117 -82 117 14 L117 942 L398 942 L398 -23 Q398 -210 314 -287 Q239 -355 81 -355 Q33 -355 -36 -347 Z " />
<glyph glyph-name="afii57929" unicode="&#x2bc;" horiz-adv-x="620" d="M460 1365 L460 1137 Q460 1015 431 943 Q402 871 333 819 Q261 766 160 751 L160 895 Q280 927 287 1071 L160 1071 L160 1365 L460 1365 Z " />
<glyph glyph-name="uni037E" unicode="&#x37e;" horiz-adv-x="620" d="M460 294 L460 66 Q460 -56 431 -128 Q402 -200 333 -251 Q261 -305 160 -319 L160 -176 Q280 -144 287 0 L160 0 L160 294 L460 294 Z M460 942 L460 648 L160 648 L160 942 L460 942 Z " />
<glyph glyph-name="anoteleia" unicode="&#x387;" horiz-adv-x="620" d="M460 625 L460 331 L160 331 L160 625 L460 625 Z " />
<glyph glyph-name="afii10023" unicode="&#x401;" horiz-adv-x="1120" d="M138 0 L138 1365 L1009 1365 L1009 1115 L431 1115 L431 823 L959 823 L959 585 L431 585 L431 250 L1021 250 L1021 0 L138 0 Z M869 1693 L869 1447 L631 1447 L631 1693 L869 1693 Z M527 1693 L527 1447 L290 1447 L290 1693 L527 1693 Z " />
<glyph glyph-name="afii10051" unicode="&#x402;" horiz-adv-x="1291" d="M573 855 Q668 971 821 971 Q992 971 1087 845 Q1203 690 1203 424 Q1203 286 1171.5 166 Q1140 46 1085 -31 Q978 -178 795 -178 Q742 -178 670 -160 L670 53 Q717 39 745 39 Q826 39 874 137 Q922 235 922 401 Q922 573 874 667.5 Q826 762 739 762 Q573 762 573 506 L573 0 L280 0 L280 1115 L45 1115 L45 1365 L1002 1365 L1002 1115 L573 1115 L573 855 Z " />
<glyph glyph-name="afii10052" unicode="&#x403;" horiz-adv-x="1021" d="M138 1365 L967 1365 L967 1111 L431 1111 L431 0 L138 0 L138 1365 Z M840 1720 L642 1474 L409 1474 L593 1720 L840 1720 Z " />
<glyph glyph-name="afii10053" unicode="&#x404;" horiz-adv-x="1230" d="M379 823 L802 823 L802 585 L373 585 Q382 487 417 401 Q491 217 648 217 Q750 217 808 293.5 Q866 370 885 529 L1177 529 Q1161 312 1055 166 Q910 -33 647 -33 Q398 -33 252 138 Q75 347 75 679 Q75 1004 246 1209 Q403 1396 654 1396 Q924 1396 1073 1180 Q1159 1056 1169 906 L880 905 Q866 985 837 1035 Q772 1146 650 1146 Q544 1146 474.5 1063 Q405 980 379 823 Z " />
<glyph glyph-name="afii10054" unicode="&#x405;" horiz-adv-x="1066" d="M53 399 L348 399 Q360 319 385 280 Q437 200 535 200 Q614 200 663 247 Q712 294 712 370 Q712 449 645 504 Q617 527 587.5 540.5 Q558 554 463 588 Q295 647 220 706 Q71 824 71 1015 Q71 1179 175 1282 Q291 1396 496 1396 Q693 1396 813 1295 Q933 1194 959 1005 L673 1005 Q663 1084 623 1120 Q575 1162 494 1162 Q422 1162 381.5 1125.5 Q341 1089 341 1024 Q341 952 394.5 910 Q448 868 607 816 Q780 760 875 685 Q1013 575 1013 389 Q1013 203 885 87 Q752 -33 530 -33 Q265 -33 135 166 Q69 268 53 399 Z " />
<glyph glyph-name="afii10055" unicode="&#x406;" horiz-adv-x="570" d="M138 0 L138 1365 L431 1365 L431 0 L138 0 Z " />
<glyph glyph-name="afii10056" unicode="&#x407;" horiz-adv-x="570" d="M138 0 L138 1365 L431 1365 L431 0 L138 0 Z M541 1693 L541 1447 L336 1447 L336 1693 L541 1693 Z M233 1693 L233 1447 L29 1447 L29 1693 L233 1693 Z " />
<glyph glyph-name="afii10057" unicode="&#x408;" horiz-adv-x="661" d="M0 -19 L0 214 Q60 199 100 199 Q203 199 236 311 Q251 365 251 547 L251 1365 L544 1365 L544 519 Q544 373 528 287 Q512 201 473 137 Q370 -33 129 -33 Q71 -33 0 -19 Z " />
<glyph glyph-name="afii10058" unicode="&#x409;" horiz-adv-x="1710" d="M1079 1365 L1079 875 L1197 875 Q1318 875 1402 849.5 Q1486 824 1551 766 Q1692 641 1692 427 Q1692 205 1544 88 Q1483 40 1403.5 20 Q1324 0 1192 0 L786 0 L786 1115 L507 1115 L429 404 Q413 253 384 182 Q336 65 251.5 19.5 Q167 -26 0 -26 L0 206 Q70 210 100 252.5 Q130 295 143 409 L247 1365 L1079 1365 Z M1079 637 L1079 250 L1180 250 Q1246 250 1284 261 Q1322 272 1348 299 Q1399 351 1399 441 Q1399 541 1348.5 589 Q1298 637 1194 637 L1079 637 Z " />
<glyph glyph-name="afii10059" unicode="&#x40a;" horiz-adv-x="1763" d="M839 861 L839 1365 L1132 1365 L1132 861 L1250 861 Q1371 861 1455 836 Q1539 811 1603 755 Q1745 631 1745 420 Q1745 202 1597 86 Q1536 39 1456.5 19.5 Q1377 0 1245 0 L839 0 L839 617 L431 617 L431 0 L138 0 L138 1365 L431 1365 L431 861 L839 861 Z M1132 617 L1132 250 L1233 250 Q1299 250 1337 260.5 Q1375 271 1401 297 Q1452 347 1452 434 Q1452 528 1402 572.5 Q1352 617 1247 617 L1132 617 Z " />
<glyph glyph-name="afii10060" unicode="&#x40b;" horiz-adv-x="1224" d="M573 855 Q668 971 817 971 Q989 971 1069 845 Q1118 767 1118 601 L1118 0 L837 0 L837 557 Q837 656 819 695 Q789 758 722 758 Q672 758 634.5 722.5 Q597 687 584 627 Q573 576 573 468 L573 0 L280 0 L280 1115 L45 1115 L45 1365 L1002 1365 L1002 1115 L573 1115 L573 855 Z " />
<glyph glyph-name="afii10061" unicode="&#x40c;" horiz-adv-x="1223" d="M136 0 L136 1365 L422 1365 L422 794 L468 794 L865 1365 L1171 1365 L715 703 L1220 0 L914 0 L474 601 L422 601 L422 0 L136 0 Z M941 1720 L743 1474 L510 1474 L694 1720 L941 1720 Z " />
<glyph glyph-name="afii10062" unicode="&#x40e;" horiz-adv-x="1114" d="M150 -19 L150 214 Q210 199 250 199 Q307 199 341 230.5 Q375 262 418 355 L0 1365 L326 1365 L566 652 L806 1365 L1126 1365 L687 276 Q617 103 527 35 Q437 -33 278 -33 Q221 -33 150 -19 Z M271 1720 L410 1720 Q438 1613 564 1613 Q690 1613 717 1720 L856 1720 Q854 1652 832 1608 Q764 1467 564 1467 Q344 1467 286 1631 Q274 1665 271 1720 Z " />
<glyph glyph-name="afii10145" unicode="&#x40f;" horiz-adv-x="1298" d="M502 0 L138 0 L138 1365 L431 1365 L431 250 L866 250 L866 1365 L1159 1365 L1159 0 L795 0 L795 -205 L502 -205 L502 0 Z " />
<glyph glyph-name="afii10017" unicode="&#x410;" horiz-adv-x="1159" d="M430 1365 L730 1365 L1162 0 L857 0 L772 305 L383 305 L297 0 L-3 0 L430 1365 Z M446 526 L711 526 L579 997 L446 526 Z " />
<glyph glyph-name="afii10018" unicode="&#x411;" horiz-adv-x="1125" d="M431 1111 L431 875 L576 875 Q698 875 781.5 849.5 Q865 824 930 766 Q1071 641 1071 427 Q1071 205 923 88 Q862 40 782.5 20 Q703 0 571 0 L138 0 L138 1365 L967 1365 L967 1111 L431 1111 Z M431 637 L431 250 L559 250 Q625 250 663 261 Q701 272 728 299 Q778 351 778 441 Q778 541 728 589 Q678 637 573 637 L431 637 Z " />
<glyph glyph-name="afii10019" unicode="&#x412;" horiz-adv-x="1195" d="M138 0 L138 1365 L625 1365 Q747 1365 823 1345.5 Q899 1326 955 1280 Q1067 1189 1067 1032 Q1067 831 871 740 Q1120 656 1120 402 Q1120 180 952 69 Q847 0 671 0 L138 0 Z M431 813 L562 813 Q670 813 716 846 Q778 892 778 976 Q778 1070 703 1110 Q663 1132 562 1132 L431 1132 L431 813 Z M431 233 L589 233 Q712 233 763 274 Q827 325 827 422 Q827 535 742 581 Q692 608 577 608 L431 608 L431 233 Z " />
<glyph glyph-name="afii10020" unicode="&#x413;" horiz-adv-x="1021" d="M138 1365 L967 1365 L967 1111 L431 1111 L431 0 L138 0 L138 1365 Z " />
<glyph glyph-name="afii10021" unicode="&#x414;" horiz-adv-x="1264" d="M1146 250 L1255 250 L1255 -205 L962 -205 L962 0 L283 0 L283 -205 L-10 -205 L-10 250 L39 250 Q106 250 137.5 294.5 Q169 339 182 453 L286 1365 L1146 1365 L1146 250 Z M853 250 L853 1115 L547 1115 L469 449 Q453 315 413 250 L853 250 Z " />
<glyph glyph-name="afii10022" unicode="&#x415;" horiz-adv-x="1120" d="M138 0 L138 1365 L1009 1365 L1009 1115 L431 1115 L431 823 L959 823 L959 585 L431 585 L431 250 L1021 250 L1021 0 L138 0 Z " />
<glyph glyph-name="afii10024" unicode="&#x416;" horiz-adv-x="1863" d="M788 0 L788 601 L736 601 L296 0 L-10 0 L495 703 L39 1365 L344 1365 L741 794 L788 794 L788 1365 L1074 1365 L1074 794 L1120 794 L1517 1365 L1823 1365 L1367 703 L1871 0 L1566 0 L1125 601 L1074 601 L1074 0 L788 0 Z " />
<glyph glyph-name="afii10025" unicode="&#x417;" horiz-adv-x="1178" d="M428 585 L428 823 L582 823 Q680 823 737.5 868 Q795 913 795 989 Q795 1061 743 1103.5 Q691 1146 602 1146 Q392 1146 350 905 L61 906 Q73 1078 181 1213 Q327 1396 625 1396 Q826 1396 952 1303 Q1088 1202 1088 1017 Q1088 897 1018.5 812.5 Q949 728 834 707 Q1089 638 1089 395 Q1089 221 961 99 Q823 -33 600 -33 Q295 -33 150 203 Q67 339 53 529 L345 529 Q366 348 439 276 Q500 217 589 217 Q684 217 740 271 Q796 325 796 410 Q796 585 570 585 L428 585 Z " />
<glyph glyph-name="afii10026" unicode="&#x418;" horiz-adv-x="1282" d="M138 1365 L419 1365 L419 556 L862 1272 L862 1365 L1143 1365 L1143 0 L862 0 L862 810 L419 87 L419 -1 L138 0 L138 1365 Z " />
<glyph glyph-name="afii10027" unicode="&#x419;" horiz-adv-x="1282" d="M138 1365 L419 1365 L419 556 L862 1272 L862 1365 L1143 1365 L1143 0 L862 0 L862 810 L419 87 L419 -1 L138 0 L138 1365 Z M348 1720 L487 1720 Q515 1613 641 1613 Q767 1613 794 1720 L933 1720 Q931 1652 909 1608 Q841 1467 641 1467 Q421 1467 363 1631 Q351 1665 348 1720 Z " />
<glyph glyph-name="afii10028" unicode="&#x41a;" horiz-adv-x="1223" d="M136 0 L136 1365 L422 1365 L422 794 L468 794 L865 1365 L1171 1365 L715 703 L1220 0 L914 0 L474 601 L422 601 L422 0 L136 0 Z " />
<glyph glyph-name="afii10029" unicode="&#x41b;" horiz-adv-x="1245" d="M508 1115 L430 404 Q413 252 384 182 Q336 65 251.5 19.5 Q167 -26 0 -26 L0 205 Q70 209 100.5 252 Q131 295 143 409 L247 1365 L1107 1365 L1107 0 L814 0 L814 1115 L508 1115 Z " />
<glyph glyph-name="afii10030" unicode="&#x41c;" horiz-adv-x="1548" d="M138 0 L138 1365 L535 1365 L778 430 L1015 1365 L1409 1365 L1409 0 L1128 0 L1128 949 L895 0 L657 0 L419 937 L419 0 L138 0 Z " />
<glyph glyph-name="afii10031" unicode="&#x41d;" horiz-adv-x="1298" d="M138 0 L138 1365 L431 1365 L431 846 L866 846 L866 1365 L1159 1365 L1159 0 L866 0 L866 596 L431 596 L431 0 L138 0 Z " />
<glyph glyph-name="afii10032" unicode="&#x41e;" horiz-adv-x="1313" d="M660 1396 Q903 1396 1060 1220 Q1239 1021 1239 682 Q1239 392 1104 197 Q1024 82 902 21 Q793 -33 660 -33 Q370 -33 207 202 Q75 392 75 692 Q75 1018 246 1212 Q408 1396 660 1396 Z M658 1146 Q522 1146 448 1019 Q368 881 368 690 Q368 480 447 344 Q480 287 539 252 Q598 217 661 217 Q721 217 774.5 248.5 Q828 280 861 335 Q946 476 946 686 Q946 884 868 1019 Q794 1146 658 1146 Z " />
<glyph glyph-name="afii10033" unicode="&#x41f;" horiz-adv-x="1298" d="M1159 1365 L1159 0 L866 0 L866 1115 L431 1115 L431 0 L138 0 L138 1365 L1159 1365 Z " />
<glyph glyph-name="afii10034" unicode="&#x420;" horiz-adv-x="1125" d="M138 0 L138 1365 L571 1365 Q733 1365 818 1335 Q943 1289 1012 1176 Q1071 1078 1071 938 Q1071 703 904 578 Q788 490 576 490 L431 490 L431 0 L138 0 Z M431 728 L573 728 Q690 728 735 783 Q778 836 778 924 Q778 1024 717 1075 Q670 1115 559 1115 L431 1115 L431 728 Z " />
<glyph glyph-name="afii10035" unicode="&#x421;" horiz-adv-x="1230" d="M884 529 L1177 529 Q1161 312 1055 166 Q910 -33 647 -33 Q398 -33 252 138 Q75 347 75 679 Q75 1005 246 1209 Q403 1396 654 1396 Q923 1396 1073 1180 Q1158 1057 1169 906 L879 905 Q866 985 836 1035 Q772 1146 650 1146 Q514 1146 442 1017 Q368 883 368 682 Q368 478 445 342 Q515 217 647 217 Q750 217 808 293.5 Q866 370 884 529 Z " />
<glyph glyph-name="afii10036" unicode="&#x422;" horiz-adv-x="1047" d="M376 0 L376 1115 L45 1115 L45 1365 L1002 1365 L1002 1115 L669 1115 L669 0 L376 0 Z " />
<glyph glyph-name="afii10037" unicode="&#x423;" horiz-adv-x="1114" d="M150 -19 L150 214 Q210 199 250 199 Q307 199 341 230.5 Q375 262 418 355 L0 1365 L326 1365 L566 652 L806 1365 L1126 1365 L687 276 Q617 103 527 35 Q437 -33 278 -33 Q221 -33 150 -19 Z " />
<glyph glyph-name="afii10038" unicode="&#x424;" horiz-adv-x="1682" d="M987 1365 L987 1216 Q1196 1204 1326 1138 Q1466 1067 1537 942 Q1601 829 1601 682 Q1601 480 1481 344 Q1326 167 987 147 L987 0 L694 0 L694 147 Q485 160 355 226 Q215 297 144 422 Q80 535 80 682 Q80 884 200 1020 Q355 1196 694 1216 L694 1365 L987 1365 Z M694 398 L694 966 Q373 941 373 682 Q373 423 694 398 Z M987 398 Q1308 423 1308 682 Q1308 941 987 966 L987 398 Z " />
<glyph glyph-name="afii10039" unicode="&#x425;" horiz-adv-x="1101" d="M20 1365 L352 1365 L556 950 L763 1365 L1079 1365 L714 714 L1113 0 L774 0 L547 450 L314 0 L-11 0 L391 714 L20 1365 Z " />
<glyph glyph-name="afii10040" unicode="&#x426;" horiz-adv-x="1278" d="M1159 250 L1268 250 L1268 -205 L975 -205 L975 0 L138 0 L138 1365 L431 1365 L431 250 L866 250 L866 1365 L1159 1365 L1159 250 Z " />
<glyph glyph-name="afii10041" unicode="&#x427;" horiz-adv-x="1313" d="M881 467 Q777 409 625 409 Q419 409 280 510 Q151 604 125 779 Q117 830 117 915 L117 1365 L398 1365 L398 881 Q398 770 458 718 Q528 659 661 659 Q818 659 861 769 Q881 819 881 912 L881 1365 L1174 1365 L1174 0 L881 0 L881 467 Z " />
<glyph glyph-name="afii10042" unicode="&#x428;" horiz-adv-x="1807" d="M1669 0 L138 0 L138 1365 L431 1365 L431 250 L757 250 L757 1365 L1050 1365 L1050 250 L1376 250 L1376 1365 L1669 1365 L1669 0 Z " />
<glyph glyph-name="afii10043" unicode="&#x429;" horiz-adv-x="1787" d="M1669 250 L1778 250 L1778 -205 L1485 -205 L1485 0 L138 0 L138 1365 L431 1365 L431 250 L757 250 L757 1365 L1050 1365 L1050 250 L1376 250 L1376 1365 L1669 1365 L1669 250 Z " />
<glyph glyph-name="afii10044" unicode="&#x42a;" horiz-adv-x="1254" d="M268 1111 L18 1111 L18 1365 L561 1365 L561 875 L706 875 Q828 875 912 849.5 Q996 824 1060 766 Q1201 641 1201 427 Q1201 205 1053 88 Q993 40 913 20 Q833 0 701 0 L268 0 L268 1111 Z M561 637 L561 250 L689 250 Q755 250 793 261 Q831 272 858 299 Q908 351 908 441 Q908 541 858 589 Q808 637 703 637 L561 637 Z " />
<glyph glyph-name="afii10045" unicode="&#x42b;" horiz-adv-x="1582" d="M138 1365 L431 1365 L431 875 L576 875 Q698 875 782 849.5 Q866 824 930 766 Q1071 641 1071 427 Q1071 205 923 88 Q862 40 782.5 20 Q703 0 571 0 L138 0 L138 1365 Z M431 637 L431 250 L559 250 Q625 250 663 261 Q701 272 728 299 Q778 351 778 441 Q778 541 728 589 Q678 637 573 637 L431 637 Z M1150 0 L1150 1365 L1443 1365 L1443 0 L1150 0 Z " />
<glyph glyph-name="afii10046" unicode="&#x42c;" horiz-adv-x="1125" d="M138 1365 L431 1365 L431 875 L576 875 Q698 875 782 849.5 Q866 824 930 766 Q1071 641 1071 427 Q1071 205 923 88 Q862 40 782.5 20 Q703 0 571 0 L138 0 L138 1365 Z M431 637 L431 250 L559 250 Q625 250 663 261 Q701 272 728 299 Q778 351 778 441 Q778 541 728 589 Q678 637 573 637 L431 637 Z " />
<glyph glyph-name="afii10047" unicode="&#x42d;" horiz-adv-x="1230" d="M851 823 Q837 906 810 970 Q736 1146 580 1146 Q488 1146 429.5 1084.5 Q371 1023 350 905 L61 906 Q73 1078 181 1213 Q329 1396 576 1396 Q827 1396 984 1209 Q1155 1004 1155 679 Q1155 347 977 138 Q832 -33 583 -33 Q296 -33 150 203 Q67 339 53 529 L345 529 Q361 392 408 316 Q469 217 582 217 Q693 217 767 316 Q841 415 857 585 L428 585 L428 823 L851 823 Z " />
<glyph glyph-name="afii10048" unicode="&#x42e;" horiz-adv-x="1804" d="M577 846 Q604 1014 670 1123 Q754 1263 891 1335 Q1008 1396 1149 1396 Q1394 1396 1550 1220 Q1729 1020 1729 683 Q1729 392 1594 197 Q1514 82 1392 21 Q1283 -33 1149 -33 Q924 -33 768 118 Q593 288 568 596 L431 596 L431 0 L138 0 L138 1365 L431 1365 L431 846 L577 846 Z M1148 1146 Q1012 1146 938 1019 Q858 881 858 691 Q858 481 937 344 Q970 287 1029 252 Q1088 217 1151 217 Q1211 217 1264.5 248.5 Q1318 280 1351 335 Q1436 476 1436 686 Q1436 885 1358 1019 Q1284 1146 1148 1146 Z " />
<glyph glyph-name="afii10049" unicode="&#x42f;" horiz-adv-x="1249" d="M1110 0 L817 0 L817 536 L649 536 Q572 536 531.5 515.5 Q491 495 468 443 Q451 407 443.5 352 Q436 297 422 116 Q417 47 398 0 L96 0 Q119 39 128 77 Q137 115 143 194 Q156 378 168.5 444 Q181 510 214 557 Q256 618 333 645 Q259 682 214 741 Q137 843 137 984 Q137 1165 254.5 1265 Q372 1365 585 1365 L1110 1365 L1110 0 Z M817 757 L817 1132 L650 1132 Q538 1132 493 1096 Q430 1046 430 949 Q430 849 484 803 Q538 757 656 757 L817 757 Z " />
<glyph glyph-name="afii10065" unicode="&#x430;" horiz-adv-x="994" d="M1001 189 L1001 12 Q944 -12 881 -12 Q752 -12 686 90 Q637 42 596 19 Q509 -29 382 -29 Q237 -29 151 35 Q47 112 47 247 Q47 350 109 427 Q171 504 278 535 Q385 566 636 572 L636 648 Q636 726 602 760.5 Q568 795 490 795 Q380 795 368 690 L84 690 Q93 823 194 896 Q299 971 480 971 Q742 971 852 863 Q897 819 911 764.5 Q925 710 925 575 L925 260 Q925 214 934.5 196.5 Q944 179 969 179 Q979 179 1001 189 Z M636 429 Q526 425 465 410 Q400 395 364 357.5 Q328 320 328 268 Q328 219 356.5 191.5 Q385 164 435 164 Q540 164 598 252 Q636 309 636 379 L636 429 Z " />
<glyph glyph-name="afii10066" unicode="&#x431;" horiz-adv-x="1009" d="M625 1403 L841 1403 L842 1345 Q844 1209 818 1156 Q799 1118 754 1097 Q709 1076 612 1059 Q493 1039 455 1022 Q417 1005 375 953 Q445 972 514 972 Q741 972 874 811 Q985 677 985 471 Q985 257 868 124 Q735 -29 509 -29 Q272 -29 143 133 Q36 267 36 500 Q36 832 161 1030 Q274 1209 533 1248 Q598 1258 611 1273 Q624 1289 624 1356 L625 1403 Z M499 774 Q417 774 369 702 Q310 615 310 476 Q310 336 361 249 Q408 168 499 168 Q582 168 630 239 Q689 325 689 472 Q689 618 629 703 Q579 774 499 774 Z " />
<glyph glyph-name="afii10067" unicode="&#x432;" horiz-adv-x="954" d="M88 0 L88 942 L607 942 Q714 942 786 906 Q899 849 899 714 Q899 561 732 510 Q933 455 933 274 Q933 122 802 46 Q722 0 570 0 L88 0 Z M365 399 L365 197 L495 197 Q643 197 643 298 Q643 399 495 399 L365 399 Z M365 745 L365 589 L495 589 Q553 589 586.5 610.5 Q620 632 620 668 Q620 745 495 745 L365 745 Z " />
<glyph glyph-name="afii10068" unicode="&#x433;" horiz-adv-x="758" d="M376 739 L376 0 L95 0 L95 942 L763 942 L763 739 L376 739 Z " />
<glyph glyph-name="afii10069" unicode="&#x434;" horiz-adv-x="1068" d="M984 203 L1085 203 L1085 -205 L804 -205 L804 0 L254 0 L254 -205 L-27 -205 L-27 203 L8 203 Q107 203 121 333 L188 942 L984 942 L984 203 Z M703 203 L703 739 L464 739 L407 319 Q399 254 371 203 L703 203 Z " />
<glyph glyph-name="afii10070" unicode="&#x435;" horiz-adv-x="972" d="M948 403 L322 403 Q326 312 349 258 Q390 159 507 159 Q601 159 642 221 L924 221 Q904 157 849 99 Q727 -29 507 -29 Q288 -29 160 100 Q25 237 25 466 Q25 678 148 819 Q280 971 491 971 Q659 971 776 870 Q861 796 902 685.5 Q943 575 948 403 Z M651 571 Q645 636 626 681 Q583 783 489 783 Q421 783 377 726.5 Q333 670 323 571 L651 571 Z " />
<glyph glyph-name="afii10072" unicode="&#x436;" horiz-adv-x="1508" d="M620 404 L573 404 L239 0 L-34 0 L375 500 L-6 942 L267 942 L569 584 L620 584 L620 942 L894 942 L894 584 L940 584 L1244 943 L1517 943 L1134 500 L1542 0 L1269 0 L936 404 L894 404 L894 0 L620 0 L620 404 Z " />
<glyph glyph-name="afii10073" unicode="&#x437;" horiz-adv-x="909" d="M413 582 L478 582 Q539 582 573.5 606.5 Q608 631 608 674 Q608 721 572.5 747.5 Q537 774 475 774 Q332 774 304 610 L12 611 Q28 790 162 888 Q277 971 472 971 Q621 971 718 927 Q796 890 837 828 Q875 769 875 703 Q875 625 828 569 Q781 513 697 492 Q898 435 898 265 Q898 133 788 51 Q681 -29 489 -29 Q300 -29 195 42 Q38 148 10 362 L297 362 Q320 167 483 167 Q551 167 591 197 Q631 227 631 279 Q631 326 589 352.5 Q547 379 471 379 L413 379 L413 582 Z " />
<glyph glyph-name="afii10074" unicode="&#x438;" horiz-adv-x="1045" d="M367 0 L85 0 L85 942 L367 942 L367 493 L678 859 L678 942 L960 942 L960 0 L678 0 L678 449 L367 85 L367 0 Z " />
<glyph glyph-name="afii10075" unicode="&#x439;" horiz-adv-x="1045" d="M367 0 L85 0 L85 942 L367 942 L367 493 L678 859 L678 942 L960 942 L960 0 L678 0 L678 449 L367 85 L367 0 Z M239 1365 L380 1365 Q408 1245 522 1245 Q637 1245 664 1365 L806 1365 Q803 1292 782 1244 Q717 1092 522 1092 Q309 1092 253 1270 Q241 1307 239 1365 Z " />
<glyph glyph-name="afii10076" unicode="&#x43a;" horiz-adv-x="987" d="M81 0 L81 942 L355 942 L355 584 L402 584 L710 943 L986 943 L599 500 L1012 0 L735 0 L398 404 L355 404 L355 0 L81 0 Z " />
<glyph glyph-name="afii10077" unicode="&#x43b;" horiz-adv-x="1043" d="M439 739 L387 310 Q360 97 218 23 Q139 -18 -16 -17 L-16 195 Q95 194 107 344 L176 942 L958 942 L958 0 L660 0 L660 739 L439 739 Z " />
<glyph glyph-name="afii10078" unicode="&#x43c;" horiz-adv-x="1260" d="M732 0 L526 0 L345 570 L345 0 L76 0 L76 942 L440 942 L629 322 L818 942 L1182 942 L1182 0 L913 0 L913 570 L732 0 Z " />
<glyph glyph-name="afii10079" unicode="&#x43d;" horiz-adv-x="1045" d="M366 393 L366 0 L85 0 L85 942 L366 942 L366 596 L679 596 L679 942 L960 942 L960 0 L679 0 L679 393 L366 393 Z " />
<glyph glyph-name="afii10080" unicode="&#x43e;" horiz-adv-x="1003" d="M503 971 Q715 971 845 838 Q979 703 979 465 Q979 234 837 96 Q708 -29 502 -29 Q283 -29 152 111 Q23 248 23 472 Q23 691 148 825 Q284 971 503 971 Z M491 774 Q405 774 354.5 692.5 Q304 611 304 472 Q304 331 353 251 Q403 168 494 168 Q580 168 628 244 Q681 328 681 468 Q681 608 634 687 Q583 774 491 774 Z " />
<glyph glyph-name="afii10081" unicode="&#x43f;" horiz-adv-x="1045" d="M960 942 L960 0 L678 0 L678 739 L366 739 L366 0 L85 0 L85 942 L960 942 Z " />
<glyph glyph-name="afii10082" unicode="&#x440;" horiz-adv-x="1052" d="M84 942 L376 942 L376 863 Q471 971 625 971 Q820 971 933 808 Q1030 670 1030 461 Q1030 235 918 105 Q864 43 787 8 Q708 -29 623 -29 Q469 -29 365 79 L365 -355 L84 -355 L84 942 Z M556 758 Q474 758 425 680 Q376 602 376 472 Q376 343 423 264 Q471 184 555 184 Q636 184 682 259 Q732 340 732 469 Q732 579 693 660 Q645 758 556 758 Z " />
<glyph glyph-name="afii10083" unicode="&#x441;" horiz-adv-x="950" d="M941 611 L649 610 Q621 774 496 774 Q406 774 357 692 Q307 608 307 468 Q307 328 356 248 Q405 168 491 168 Q559 168 601.5 218.5 Q644 269 656 362 L942 362 Q924 219 847 124 Q723 -29 497 -29 Q292 -29 165 96 Q26 234 26 465 Q26 711 176 851 Q303 971 503 971 Q690 971 807.5 874.5 Q925 778 941 611 Z " />
<glyph glyph-name="afii10084" unicode="&#x442;" horiz-adv-x="703" d="M493 766 L493 0 L212 0 L212 766 L-14 766 L-14 942 L718 942 L718 766 L493 766 Z " />
<glyph glyph-name="afii10085" unicode="&#x443;" horiz-adv-x="897" d="M-30 942 L286 942 L457 336 L622 942 L928 941 L607 -15 Q566 -136 528.5 -199 Q491 -262 441 -296 Q353 -355 198 -355 Q134 -355 71 -345 L71 -130 Q123 -142 163 -142 Q291 -142 291 -30 Q291 11 273 63 L-30 942 Z " />
<glyph glyph-name="afii10086" unicode="&#x444;" horiz-adv-x="1341" d="M817 1365 L817 896 Q881 971 992 971 Q1149 971 1244 828 Q1338 686 1338 472 Q1338 251 1241 107 Q1148 -30 991 -30 Q883 -30 817 47 L817 -355 L526 -355 L526 47 Q460 -30 350 -30 Q195 -30 102 107 Q5 251 5 472 Q5 686 99 828 Q194 971 352 971 Q462 971 526 896 L526 1365 L817 1365 Z M404 774 Q358 774 327 722 Q282 645 282 471 Q282 168 407 168 Q526 168 526 469 Q526 774 404 774 Z M930 774 Q817 774 817 469 Q817 324 845.5 246 Q874 168 926 168 Q1045 168 1045 470 Q1045 616 1015 695 Q985 774 930 774 Z " />
<glyph glyph-name="afii10087" unicode="&#x445;" horiz-adv-x="892" d="M-11 942 L319 942 L447 721 L573 942 L896 942 L608 503 L932 0 L600 -1 L444 273 L289 0 L-39 0 L279 497 L-11 942 Z " />
<glyph glyph-name="afii10088" unicode="&#x446;" horiz-adv-x="1045" d="M966 203 L1062 203 L1062 -205 L781 -205 L781 0 L85 0 L85 942 L366 942 L366 203 L668 203 L668 942 L966 942 L966 203 Z " />
<glyph glyph-name="afii10089" unicode="&#x447;" horiz-adv-x="1057" d="M337 942 L337 654 Q337 582 368 552 Q413 508 511 508 Q643 508 679 613 Q692 652 692 739 L692 942 L973 942 L973 0 L692 0 L692 344 Q599 295 441 295 Q216 295 117 401 Q83 438 68.5 485.5 Q54 533 54 610 L54 942 L337 942 Z " />
<glyph glyph-name="afii10090" unicode="&#x448;" horiz-adv-x="1393" d="M1321 0 L71 0 L71 942 L352 942 L352 203 L545 203 L545 942 L847 942 L847 203 L1040 203 L1040 942 L1321 942 L1321 0 Z " />
<glyph glyph-name="afii10091" unicode="&#x449;" horiz-adv-x="1399" d="M1320 203 L1422 203 L1422 -205 L1141 -205 L1141 0 L71 0 L71 942 L352 942 L352 203 L546 203 L546 942 L844 942 L844 203 L1038 203 L1038 942 L1320 942 L1320 203 Z " />
<glyph glyph-name="afii10092" unicode="&#x44a;" horiz-adv-x="1026" d="M-16 942 L503 942 L503 608 L637 608 Q1028 608 1028 311 Q1028 156 913 72 Q858 31 796 15.5 Q734 0 628 0 L226 0 L226 739 L-16 739 L-16 942 Z M503 411 L503 197 L578 197 Q737 197 737 304 Q737 411 578 411 L503 411 Z " />
<glyph glyph-name="afii10093" unicode="&#x44b;" horiz-adv-x="1308" d="M75 0 L75 942 L352 942 L352 607 L486 607 Q875 607 875 310 Q875 156 761 72 Q706 31 644 15.5 Q582 0 477 0 L75 0 Z M957 0 L957 942 L1234 942 L1234 0 L957 0 Z M374 411 L374 197 L449 197 Q602 197 602 304 Q602 411 449 411 L374 411 Z " />
<glyph glyph-name="afii10094" unicode="&#x44c;" horiz-adv-x="900" d="M90 0 L90 942 L367 942 L367 608 L503 608 Q897 608 897 311 Q897 156 781 72 Q726 31 663 15.5 Q600 0 494 0 L90 0 Z M367 411 L367 197 L443 197 Q624 197 624 304 Q624 411 443 411 L367 411 Z " />
<glyph glyph-name="afii10095" unicode="&#x44d;" horiz-adv-x="950" d="M617 582 Q578 774 447 774 Q328 774 302 610 L10 611 Q23 753 114 848 Q234 971 448 971 Q647 971 775 851 Q925 711 925 465 Q925 234 786 96 Q659 -29 453 -29 Q267 -29 149.5 74 Q32 177 8 362 L295 362 Q318 168 452 168 Q519 168 564.5 224.5 Q610 281 621 379 L411 379 L411 582 L617 582 Z " />
<glyph glyph-name="afii10096" unicode="&#x44e;" horiz-adv-x="1421" d="M447 393 L351 393 L351 0 L70 0 L70 942 L351 942 L351 596 L455 596 Q474 691 522 765 Q656 971 931 971 Q1146 971 1278 838 Q1414 702 1414 473 Q1414 234 1270 96 Q1139 -29 929 -29 Q756 -29 636 57 Q478 169 447 393 Z M937 774 Q849 774 797 692.5 Q745 611 745 472 Q745 331 795 251 Q847 168 940 168 Q1028 168 1077 244 Q1132 328 1132 468 Q1132 608 1084 687 Q1031 774 937 774 Z " />
<glyph glyph-name="afii10097" unicode="&#x44f;" horiz-adv-x="937" d="M254 442 Q164 462 119 499 Q42 563 42 672 Q42 807 158 880 Q214 915 275.5 928.5 Q337 942 445 942 L848 942 L848 0 L571 0 L571 335 L520 335 Q417 335 382 297.5 Q347 260 338 139 Q333 65 328 41 Q323 17 311 0 L2 0 Q27 25 35.5 61.5 Q44 98 56 230 Q63 310 82 350 Q101 390 143 414 Q183 436 254 442 Z M571 532 L571 745 L495 745 Q317 745 317 639 Q317 532 495 532 L571 532 Z " />
<glyph glyph-name="afii10071" unicode="&#x451;" horiz-adv-x="972" d="M948 403 L322 403 Q326 312 349 258 Q390 159 507 159 Q601 159 642 221 L924 221 Q904 157 849 99 Q727 -29 507 -29 Q288 -29 160 100 Q25 237 25 466 Q25 678 148 819 Q280 971 491 971 Q659 971 776 870 Q861 796 902 685.5 Q943 575 948 403 Z M651 571 Q645 636 626 681 Q583 783 489 783 Q421 783 377 726.5 Q333 670 323 571 L651 571 Z M794 1324 L794 1078 L541 1078 L541 1324 L794 1324 Z M431 1324 L431 1078 L180 1078 L180 1324 L431 1324 Z " />
<glyph glyph-name="afii10099" unicode="&#x452;" horiz-adv-x="1033" d="M378 0 L89 0 L89 1131 L-35 1131 L-35 1277 L89 1277 L89 1365 L370 1365 L370 1277 L550 1277 L550 1131 L370 1131 L370 855 Q455 971 609 971 Q777 971 872 845 Q988 690 988 423 Q988 287 957 166.5 Q926 46 872 -31 Q767 -178 583 -178 Q529 -178 453 -160 L453 53 Q506 39 536 39 Q627 39 672 161 Q707 258 707 401 Q707 573 662 667 Q617 761 534 761 Q457 761 417.5 696.5 Q378 632 378 506 L378 0 Z " />
<glyph glyph-name="afii10100" unicode="&#x453;" horiz-adv-x="758" d="M376 739 L376 0 L95 0 L95 942 L763 942 L763 739 L376 739 Z M714 1365 L503 1092 L286 1092 L480 1365 L714 1365 Z " />
<glyph glyph-name="afii10101" unicode="&#x454;" horiz-adv-x="950" d="M334 582 L540 582 L540 379 L330 379 Q344 277 387.5 222.5 Q431 168 499 168 Q564 168 604.5 218.5 Q645 269 656 362 L943 362 Q924 219 847 124 Q724 -29 497 -29 Q292 -29 165 96 Q26 234 26 465 Q26 711 176 851 Q303 971 503 971 Q690 971 807.5 874.5 Q925 778 941 611 L649 610 Q623 774 503 774 Q368 774 334 582 Z " />
<glyph glyph-name="afii10102" unicode="&#x455;" horiz-adv-x="913" d="M50 284 L325 284 Q343 153 472 153 Q528 153 561 179.5 Q594 206 594 251 Q594 314 520 352 Q490 369 390 401 Q222 455 168 494 Q59 571 59 690 Q59 752 87.5 809 Q116 866 165 900 Q265 971 432 971 Q656 971 766 840 Q816 780 832 696 L555 696 Q528 787 441 787 Q397 787 371.5 764.5 Q346 742 346 704 Q346 648 414 614 Q443 599 575 560 Q698 523 767 474 Q873 399 873 268 Q873 132 766.5 51.5 Q660 -29 480 -29 Q350 -29 262.5 6.5 Q175 42 117 119 Q62 192 50 284 Z " />
<glyph glyph-name="afii10103" unicode="&#x456;" horiz-adv-x="521" d="M111 1092 L111 1365 L409 1365 L409 1092 L111 1092 Z M111 0 L111 942 L392 942 L392 0 L111 0 Z " />
<glyph glyph-name="afii10104" unicode="&#x457;" horiz-adv-x="526" d="M122 0 L122 942 L403 942 L403 0 L122 0 Z M515 1324 L515 1078 L317 1078 L317 1324 L515 1324 Z M207 1324 L207 1078 L11 1078 L11 1324 L207 1324 Z " />
<glyph glyph-name="afii10105" unicode="&#x458;" horiz-adv-x="510" d="M-36 -347 L-36 -134 Q6 -138 18 -138 Q70 -138 85 -110 Q100 -82 100 14 L100 942 L398 942 L398 -23 Q398 -210 314 -287 Q239 -355 81 -355 Q33 -355 -36 -347 Z M100 1092 L100 1365 L398 1365 L398 1092 L100 1092 Z " />
<glyph glyph-name="afii10106" unicode="&#x459;" horiz-adv-x="1374" d="M634 0 L634 739 L439 739 L386 310 Q359 97 215 23 Q135 -18 -23 -17 L-23 195 Q90 195 102 344 L171 942 L911 942 L911 607 L1015 607 Q1403 607 1403 310 Q1403 156 1289 72 Q1234 31 1172.5 15.5 Q1111 0 1006 0 L634 0 Z M911 410 L911 197 L956 197 Q1130 197 1130 303 Q1130 410 956 410 L911 410 Z " />
<glyph glyph-name="afii10107" unicode="&#x45a;" horiz-adv-x="1371" d="M629 411 L353 411 L353 0 L72 0 L72 942 L353 942 L353 602 L629 602 L629 942 L906 942 L906 602 L1010 602 Q1398 602 1398 308 Q1398 155 1284 71 Q1229 31 1167.5 15.5 Q1106 0 1001 0 L629 0 L629 411 Z M906 411 L906 197 L951 197 Q1125 197 1125 303 Q1125 411 951 411 L906 411 Z " />
<glyph glyph-name="afii10108" unicode="&#x45b;" horiz-adv-x="1035" d="M92 1131 L-35 1131 L-35 1277 L92 1277 L92 1365 L373 1365 L373 1277 L556 1277 L556 1131 L373 1131 L373 855 Q480 971 633 971 Q818 971 903 845 Q956 767 956 601 L956 0 L675 0 L675 557 Q675 656 655 695 Q622 758 547 758 Q449 758 406 657 Q383 605 383 464 L383 0 L92 0 L92 1131 Z " />
<glyph glyph-name="afii10109" unicode="&#x45c;" horiz-adv-x="987" d="M81 0 L81 942 L355 942 L355 584 L402 584 L710 943 L986 943 L599 500 L1012 0 L735 0 L398 404 L355 404 L355 0 L81 0 Z M832 1365 L621 1092 L404 1092 L598 1365 L832 1365 Z " />
<glyph glyph-name="afii10110" unicode="&#x45e;" horiz-adv-x="897" d="M-30 942 L286 942 L457 336 L622 942 L928 941 L607 -15 Q566 -136 528.5 -199 Q491 -262 441 -296 Q353 -355 198 -355 Q134 -355 71 -345 L71 -130 Q123 -142 163 -142 Q291 -142 291 -30 Q291 11 273 63 L-30 942 Z M166 1365 L307 1365 Q335 1245 449 1245 Q564 1245 591 1365 L733 1365 Q730 1292 709 1244 Q644 1092 449 1092 Q236 1092 180 1270 Q168 1307 166 1365 Z " />
<glyph glyph-name="afii10193" unicode="&#x45f;" horiz-adv-x="1045" d="M367 0 L85 0 L85 942 L366 942 L366 203 L659 203 L659 942 L960 942 L960 0 L668 0 L668 -205 L367 -205 L367 0 Z " />
<glyph glyph-name="afii10050" unicode="&#x490;" horiz-adv-x="1021" d="M967 1488 L967 1111 L431 1111 L431 0 L138 0 L138 1365 L674 1365 L674 1488 L967 1488 Z " />
<glyph glyph-name="afii10098" unicode="&#x491;" horiz-adv-x="758" d="M763 1051 L763 739 L376 739 L376 0 L95 0 L95 942 L474 942 L474 1051 L763 1051 Z " />
<glyph glyph-name="uni04C0" unicode="&#x4c0;" horiz-adv-x="570" d="M138 0 L138 1365 L431 1365 L431 0 L138 0 Z " />
<glyph glyph-name="Wgrave" unicode="&#x1e80;" horiz-adv-x="1542" d="M0 1365 L294 1365 L456 429 L632 1365 L911 1365 L1085 427 L1250 1365 L1542 1365 L1234 0 L941 0 L769 927 L600 0 L304 0 L0 1365 Z M483 1720 L731 1720 L914 1474 L682 1474 L483 1720 Z " />
<glyph glyph-name="wgrave" unicode="&#x1e81;" horiz-adv-x="1491" d="M626 1 L320 0 L41 942 L353 942 L486 350 L605 942 L895 942 L1017 354 L1150 942 L1450 942 L1179 1 L874 0 L747 582 L626 1 Z M559 1365 L780 1365 L963 1092 L758 1092 L559 1365 Z " />
<glyph glyph-name="Wacute" unicode="&#x1e82;" horiz-adv-x="1542" d="M0 1365 L294 1365 L456 429 L632 1365 L911 1365 L1085 427 L1250 1365 L1542 1365 L1234 0 L941 0 L769 927 L600 0 L304 0 L0 1365 Z M1058 1720 L860 1474 L627 1474 L811 1720 L1058 1720 Z " />
<glyph glyph-name="wacute" unicode="&#x1e83;" horiz-adv-x="1491" d="M626 1 L320 0 L41 942 L353 942 L486 350 L605 942 L895 942 L1017 354 L1150 942 L1450 942 L1179 1 L874 0 L747 582 L626 1 Z M1031 1365 L820 1092 L603 1092 L797 1365 L1031 1365 Z " />
<glyph glyph-name="Wdieresis" unicode="&#x1e84;" horiz-adv-x="1542" d="M0 1365 L294 1365 L456 429 L632 1365 L911 1365 L1085 427 L1250 1365 L1542 1365 L1234 0 L941 0 L769 927 L600 0 L304 0 L0 1365 Z M1061 1693 L1061 1447 L823 1447 L823 1693 L1061 1693 Z M719 1693 L719 1447 L482 1447 L482 1693 L719 1693 Z " />
<glyph glyph-name="wdieresis" unicode="&#x1e85;" horiz-adv-x="1491" d="M626 1 L320 0 L41 942 L353 942 L486 350 L605 942 L895 942 L1017 354 L1150 942 L1450 942 L1179 1 L874 0 L747 582 L626 1 Z M1052 1324 L1052 1078 L799 1078 L799 1324 L1052 1324 Z M690 1324 L690 1078 L439 1078 L439 1324 L690 1324 Z " />
<glyph glyph-name="uni1E9E" unicode="&#x1e9e;" horiz-adv-x="1215" d="M1077 1157 L806 832 Q903 822 974 778 Q1064 723 1112.5 630.5 Q1161 538 1161 422 Q1161 190 989 78 Q935 43 850 21.5 Q765 0 682 0 Q566 0 473 41 L583 266 Q649 251 694 251 Q766 251 817.5 311 Q869 371 869 455 Q869 560 799.5 609 Q730 658 581 658 L536 658 L536 857 L761 1131 L604 1130 Q513 1129 461 1074 Q409 1019 409 923 L409 0 L117 0 L117 978 Q117 1204 329 1310 Q439 1365 569 1365 L1077 1365 L1077 1157 Z " />
<glyph glyph-name="Ygrave" unicode="&#x1ef2;" horiz-adv-x="1133" d="M-3 1365 L323 1365 L569 825 L815 1365 L1136 1365 L713 528 L713 0 L420 0 L420 532 L-3 1365 Z M279 1720 L527 1720 L710 1474 L478 1474 L279 1720 Z " />
<glyph glyph-name="ygrave" unicode="&#x1ef3;" horiz-adv-x="1040" d="M41 942 L357 942 L528 336 L693 942 L999 941 L678 -15 Q637 -136 599.5 -199 Q562 -262 512 -296 Q424 -355 269 -355 Q205 -355 142 -345 L142 -130 Q194 -142 234 -142 Q362 -142 362 -30 Q362 11 344 63 L41 942 Z M334 1365 L555 1365 L738 1092 L533 1092 L334 1365 Z " />
<glyph glyph-name="uni2000" unicode="&#x2000;" horiz-adv-x="1331" d="" />
<glyph glyph-name="uni2001" unicode="&#x2001;" horiz-adv-x="2662" d="" />
<glyph glyph-name="uni2002" unicode="&#x2002;" horiz-adv-x="1331" d="" />
<glyph glyph-name="uni2003" unicode="&#x2003;" horiz-adv-x="2662" d="" />
<glyph glyph-name="uni2004" unicode="&#x2004;" horiz-adv-x="888" d="" />
<glyph glyph-name="uni2005" unicode="&#x2005;" horiz-adv-x="666" d="" />
<glyph glyph-name="uni2006" unicode="&#x2006;" horiz-adv-x="443" d="" />
<glyph glyph-name="uni2007" unicode="&#x2007;" horiz-adv-x="1467" d="" />
<glyph glyph-name="uni2008" unicode="&#x2008;" horiz-adv-x="714" d="" />
<glyph glyph-name="uni2009" unicode="&#x2009;" horiz-adv-x="533" d="" />
<glyph glyph-name="uni200A" unicode="&#x200a;" horiz-adv-x="266" d="" />
<glyph glyph-name="uni200B" unicode="&#x200b;" d="" />
<glyph glyph-name="uni2010" unicode="&#x2010;" horiz-adv-x="453" d="M453 633 L453 387 L0 387 L0 633 L453 633 Z " />
<glyph glyph-name="uni2011" unicode="&#x2011;" horiz-adv-x="453" d="M453 633 L453 387 L0 387 L0 633 L453 633 Z " />
<glyph glyph-name="figuredash" unicode="&#x2012;" horiz-adv-x="1057" d="M925 633 L925 387 L132 387 L132 633 L925 633 Z " />
<glyph glyph-name="afii00208" unicode="&#x2015;" horiz-adv-x="1539" d="M1427 633 L1427 387 L117 387 L117 633 L1427 633 Z " />
<glyph glyph-name="quotereversed" unicode="&#x201b;" horiz-adv-x="390" d="" />
<glyph glyph-name="uni203E" unicode="&#x203e;" horiz-adv-x="1049" d="M53 1662 L995 1662 L995 1475 L53 1475 L53 1662 Z " />
<glyph glyph-name="zerosuperior" unicode="&#x2070;" horiz-adv-x="626" d="M315 1382 Q449 1382 521.5 1270 Q594 1158 594 951 Q594 760 526 651 Q449 529 316 529 Q182 529 107.5 641.5 Q33 754 33 958 Q33 1154 103 1262 Q181 1382 315 1382 Z M314 1222 Q219 1222 219 956 Q219 689 313 689 Q408 689 408 953 Q408 1222 314 1222 Z " />
<glyph glyph-name="foursuperior" unicode="&#x2074;" horiz-adv-x="581" d="M487 546 L306 546 L306 716 L4 716 L4 880 L319 1365 L487 1365 L487 874 L573 874 L573 716 L487 716 L487 546 Z M306 874 L306 1072 L190 874 L306 874 Z " />
<glyph glyph-name="fivesuperior" unicode="&#x2075;" horiz-adv-x="615" d="M96 1365 L531 1365 L531 1198 L253 1198 L235 1083 Q282 1105 335 1105 Q438 1105 506 1040 Q582 966 582 835 Q582 696 491 608 Q411 530 290 530 Q206 530 140 563.5 Q74 597 41 656 Q17 700 14 774 L209 774 Q211 763 212 757 Q221 690 294 690 Q339 690 365.5 726 Q392 762 392 823 Q392 886 366.5 922.5 Q341 959 297 959 Q267 959 249.5 946 Q232 933 209 894 L34 894 L96 1365 Z " />
<glyph glyph-name="sixsuperior" unicode="&#x2076;" horiz-adv-x="633" d="M583 1157 L392 1157 Q390 1167 388 1172 Q375 1231 330 1231 Q256 1231 232 1065 Q288 1106 355 1106 Q460 1106 530 1029 Q601 952 601 825 Q601 687 514 604 Q436 529 326 529 Q187 529 109.5 636 Q32 743 32 935 Q32 1163 124 1280 Q203 1382 332 1382 Q490 1382 555 1258 Q573 1223 583 1157 Z M320 957 Q281 957 254 918 Q227 879 227 823 Q227 765 254 726.5 Q281 688 322 688 Q361 688 388 726.5 Q415 765 415 822 Q415 879 387.5 918 Q360 957 320 957 Z " />
<glyph glyph-name="sevensuperior" unicode="&#x2077;" horiz-adv-x="545" d="M17 1365 L528 1365 L528 1216 Q522 1208 516 1199 Q382 1016 338 798 Q316 691 309 546 L106 546 Q109 701 167 877 Q225 1053 320 1191 L17 1191 L17 1365 Z " />
<glyph glyph-name="eightsuperior" unicode="&#x2078;" horiz-adv-x="639" d="M147 986 Q60 1042 60 1158 Q60 1266 143 1327 Q219 1382 321 1382 Q435 1382 507 1320 Q579 1258 579 1160 Q579 1049 490 986 Q606 924 606 785 Q606 670 526 600 Q447 530 319 530 Q193 530 113 596 Q32 663 32 780 Q32 920 147 986 Z M324 1234 Q289 1234 268 1210 Q247 1186 247 1145 Q247 1099 268.5 1073 Q290 1047 327 1047 Q362 1047 382.5 1073 Q403 1099 403 1144 Q403 1234 324 1234 Z M317 910 Q274 910 246.5 878.5 Q219 847 219 797 Q219 744 246.5 712.5 Q274 681 321 681 Q364 681 391.5 712 Q419 743 419 793 Q419 846 391 878 Q363 910 317 910 Z " />
<glyph glyph-name="ninesuperior" unicode="&#x2079;" horiz-adv-x="633" d="M50 754 L241 754 Q243 744 244 739 Q257 680 303 680 Q375 680 401 846 Q345 806 277 806 Q173 806 103 883 Q32 961 32 1087 Q32 1225 118 1308 Q195 1382 304 1382 Q444 1382 522.5 1272.5 Q601 1163 601 968 Q601 744 509 629 Q430 529 301 529 Q142 529 78 653 Q60 688 50 754 Z M311 1223 Q272 1223 245 1185 Q218 1147 218 1092 Q218 1034 245 994.5 Q272 955 313 955 Q352 955 379 994.5 Q406 1034 406 1091 Q406 1147 378.5 1185 Q351 1223 311 1223 Z " />
<glyph glyph-name="parenleftsuperior" unicode="&#x207d;" horiz-adv-x="406" d="M355 341 L192 341 Q51 581 51 850 Q51 987 90 1129 Q129 1271 192 1365 L351 1365 Q336 1332 309 1276 Q270 1194 247.5 1081 Q225 968 225 854 Q225 578 355 341 Z " />
<glyph glyph-name="parenrightsuperior" unicode="&#x207e;" horiz-adv-x="405" d="M51 341 Q180 585 180 853 Q180 988 155.5 1094.5 Q131 1201 70 1329 Q69 1332 54 1365 L213 1365 Q276 1271 315 1129 Q354 987 354 849 Q354 577 213 341 L51 341 Z " />
<glyph glyph-name="nsuperior" unicode="&#x207f;" horiz-adv-x="605" d="M34 546 L34 1121 L230 1121 L230 1093 Q293 1138 366 1138 Q572 1138 572 909 L572 546 L378 546 L378 883 Q378 940 364 962.5 Q350 985 314 985 Q264 985 240 936 Q227 909 227 829 L227 546 L34 546 Z " />
<glyph glyph-name="zeroinferior" unicode="&#x2080;" horiz-adv-x="626" d="M315 836 Q449 836 521.5 724 Q594 612 594 405 Q594 214 526 105 Q449 -17 316 -17 Q182 -17 107.5 95.5 Q33 208 33 412 Q33 608 103 716 Q181 836 315 836 Z M314 676 Q219 676 219 410 Q219 143 313 143 Q408 143 408 407 Q408 676 314 676 Z " />
<glyph glyph-name="oneinferior" unicode="&#x2081;" horiz-adv-x="469" d="M140 0 L140 550 Q99 520 21 520 Q13 520 -2 521 L-2 667 Q89 670 128.5 703 Q168 736 180 819 L326 819 L326 0 L140 0 Z " />
<glyph glyph-name="twoinferior" unicode="&#x2082;" horiz-adv-x="572" d="M552 167 L552 0 L-5 0 Q-5 140 42 227 Q70 280 113.5 319 Q157 358 268 430 Q328 469 354 505.5 Q380 542 380 587 Q380 625 356 648 Q332 671 292 671 Q212 671 205 560 L9 560 Q16 677 80 750 Q157 838 287 838 Q414 838 489 766 Q559 700 559 596 Q559 505 512 442 Q465 379 335 296 Q264 251 238.5 226 Q213 201 203 167 L552 167 Z " />
<glyph glyph-name="threeinferior" unicode="&#x2083;" horiz-adv-x="588" d="M211 577 L19 577 Q21 684 74 746 Q147 835 290 835 Q409 835 481 770 Q551 707 551 605 Q551 492 464 436 Q576 375 576 243 Q576 132 497 59 Q415 -17 282 -17 Q112 -17 38 95 Q1 150 1 228 Q1 233 2 248 L195 248 Q195 194 216.5 170 Q238 146 286 146 Q331 146 357 174.5 Q383 203 383 252 Q383 305 353 329 Q323 353 257 353 L218 353 L218 495 L272 495 Q316 495 342.5 522 Q369 549 369 593 Q369 677 287 677 Q213 677 211 577 Z " />
<glyph glyph-name="fourinferior" unicode="&#x2084;" horiz-adv-x="578" d="M488 0 L307 0 L307 171 L-1 171 L-1 334 L320 819 L488 819 L488 327 L576 327 L576 171 L488 171 L488 0 Z M307 327 L307 533 L184 327 L307 327 Z " />
<glyph glyph-name="fiveinferior" unicode="&#x2085;" horiz-adv-x="615" d="M96 819 L531 819 L531 652 L253 652 L235 537 Q282 559 335 559 Q438 559 506 493 Q582 420 582 289 Q582 149 491 61 Q411 -17 290 -17 Q206 -17 140 17 Q74 51 41 110 Q17 154 14 228 L209 228 Q211 217 212 211 Q221 143 294 143 Q339 143 365.5 179 Q392 215 392 277 Q392 340 366.5 376.5 Q341 413 297 413 Q268 413 249.5 399.5 Q231 386 209 348 L34 348 L96 819 Z " />
<glyph glyph-name="sixinferior" unicode="&#x2086;" horiz-adv-x="633" d="M583 610 L392 610 Q390 620 388 625 Q375 684 330 684 Q256 684 232 518 Q287 559 355 559 Q460 559 530 483 Q601 405 601 279 Q601 141 514 58 Q436 -17 326 -17 Q187 -17 109.5 90 Q32 197 32 389 Q32 615 124 733 Q203 835 332 835 Q490 835 555 711 Q573 676 583 610 Z M320 411 Q281 411 254 372 Q227 333 227 277 Q227 219 254 180.5 Q281 142 322 142 Q361 142 388 180.5 Q415 219 415 276 Q415 333 387.5 372 Q360 411 320 411 Z " />
<glyph glyph-name="seveninferior" unicode="&#x2087;" horiz-adv-x="554" d="M35 819 L518 819 L518 670 L511 660 Q411 518 360 347 Q321 206 311 0 L119 0 Q122 156 177 331.5 Q232 507 321 645 L35 645 L35 819 Z " />
<glyph glyph-name="eightinferior" unicode="&#x2088;" horiz-adv-x="639" d="M147 440 Q60 496 60 612 Q60 720 143 781 Q219 836 321 836 Q435 836 507 774 Q579 712 579 614 Q579 503 490 440 Q606 378 606 238 Q606 124 526 54 Q446 -17 319 -17 Q193 -17 113 49 Q32 116 32 233 Q32 374 147 440 Z M319 688 Q281 688 258.5 664 Q236 640 236 599 Q236 553 259 527 Q282 501 322 501 Q359 501 381 527 Q403 553 403 598 Q403 688 319 688 Z M317 364 Q274 364 246.5 332 Q219 300 219 250 Q219 197 247 165.5 Q275 134 321 134 Q364 134 391.5 165.5 Q419 197 419 247 Q419 299 391 331.5 Q363 364 317 364 Z " />
<glyph glyph-name="nineinferior" unicode="&#x2089;" horiz-adv-x="633" d="M50 208 L241 208 Q243 198 244 193 Q257 134 303 134 Q375 134 401 300 Q344 260 277 260 Q172 260 103 336 Q32 414 32 541 Q32 679 118 762 Q195 836 304 836 Q444 836 522.5 726.5 Q601 617 601 421 Q601 198 509 83 Q431 -17 301 -17 Q142 -17 78 107 Q60 142 50 208 Z M311 677 Q272 677 245 639 Q218 601 218 546 Q218 487 245 448 Q272 409 313 409 Q352 409 379 448.5 Q406 488 406 545 Q406 601 379 639 Q352 677 311 677 Z " />
<glyph glyph-name="franc" unicode="&#x20a3;" horiz-adv-x="1448" d="M138 0 L138 1365 L957 1365 L957 1129 L420 1129 L420 865 L763 865 L763 641 L420 641 L420 0 L138 0 Z M872 0 L872 865 L1143 865 L1143 746 Q1236 894 1376 894 Q1410 894 1444 885 L1444 641 Q1391 656 1355 656 Q1232 656 1181 534 Q1153 468 1153 320 L1153 0 L872 0 Z " />
<glyph glyph-name="lira" unicode="&#x20a4;" horiz-adv-x="934" d="M391 816 L731 816 L731 617 L488 617 Q493 591 494 564 L731 564 L731 365 L444 365 Q421 324 315 197 Q406 260 453 260 Q482 260 534 220 Q564 197 592 197 Q672 197 683 317 L899 317 Q890 164 835 78 Q767 -29 638 -29 Q570 -29 482 14 Q413 47 350 47 Q295 47 257.5 34 Q220 21 140 -27 L33 145 Q171 239 224 365 L24 365 L24 564 L236 564 Q231 587 222 617 L24 617 L24 816 L115 816 Q49 929 49 1041 Q49 1202 174 1303 Q283 1392 452 1392 Q714 1392 812 1211 Q858 1125 861 1013 L608 1013 Q603 1159 453 1159 Q383 1159 346 1120 Q307 1077 307 1016 Q307 939 391 816 Z " />
<glyph glyph-name="peseta" unicode="&#x20a7;" horiz-adv-x="2238" d="M138 0 L138 1365 L571 1365 Q733 1365 818 1335 Q943 1289 1012 1176 Q1071 1078 1071 938 Q1071 703 904 578 Q788 490 576 490 L431 490 L431 0 L138 0 Z M431 728 L573 728 Q690 728 735 783 Q778 836 778 924 Q778 1024 717 1075 Q670 1115 559 1115 L431 1115 L431 728 Z M1082 610 L1082 752 L1189 752 L1189 801 L1341 1003 L1415 1003 L1415 752 L1546 752 L1546 610 L1415 610 L1415 252 Q1417 192 1421 175 Q1431 140 1484 140 Q1506 140 1538 150 L1538 -11 Q1469 -25 1408 -25 Q1272 -25 1223 48 Q1202 78 1195.5 118.5 Q1189 159 1189 259 L1189 610 L1082 610 Z M1577 223 L1787 223 Q1800 118 1898 118 Q1940 118 1965 139 Q1990 160 1990 197 Q1990 238 1960 261.5 Q1930 285 1835 317 Q1708 361 1667 391 Q1584 453 1584 549 Q1584 653 1660 714 Q1736 775 1867 775 Q2038 775 2121 670 Q2159 622 2171 554 L1961 554 Q1941 627 1874 627 Q1802 627 1802 560 Q1802 515 1853 488 Q1877 476 1976 444 Q2070 414 2121 376 Q2202 315 2202 210 Q2202 101 2121.5 36 Q2041 -29 1904 -29 Q1713 -29 1628 90 Q1587 149 1577 223 Z " />
<glyph glyph-name="uni2101" unicode="&#x2101;" horiz-adv-x="1686" d="M260 1365 L455 1365 L714 546 L507 546 L457 723 L255 723 L205 546 L0 546 L260 1365 Z M300 881 L413 881 L357 1082 L300 881 Z M1046 260 L1246 260 Q1248 248 1249 242 Q1265 145 1341 145 Q1381 145 1405 167.5 Q1429 190 1429 228 Q1429 267 1402.5 289 Q1376 311 1295 340 Q1196 375 1151 411 Q1059 484 1059 601 Q1059 703 1124 767 Q1195 837 1319 837 Q1500 837 1572 700 Q1593 660 1604 581 L1408 581 Q1403 623 1394 637 Q1372 672 1318 672 Q1245 672 1245 607 Q1245 571 1273.5 550 Q1302 529 1388 501 Q1490 468 1548 422 Q1633 354 1633 239 Q1633 126 1554 54 Q1472 -19 1338 -19 Q1212 -19 1137.5 52 Q1063 123 1046 260 Z M722 0 L550 0 L1138 1365 L1307 1365 L722 0 Z " />
<glyph glyph-name="afii61352" unicode="&#x2116;" horiz-adv-x="1818" d="M138 0 L138 1365 L434 1366 L862 487 L862 1365 L1143 1365 L1143 0 L850 0 L419 877 L419 0 L138 0 Z M1515 979 Q1642 979 1720 895 Q1800 810 1800 659 Q1800 512 1715 425 Q1638 346 1515 346 Q1385 346 1306 434 Q1229 521 1229 663 Q1229 801 1304 887 Q1384 979 1515 979 Z M1514 792 Q1481 792 1461.5 757 Q1442 722 1442 663 Q1442 602 1461.5 567.5 Q1481 533 1515 533 Q1548 533 1567.5 568 Q1587 603 1587 662 Q1587 723 1567.5 757.5 Q1548 792 1514 792 Z M1229 278 L1800 278 L1800 67 L1229 67 L1229 278 Z " />
<glyph glyph-name="estimated" unicode="&#x212e;" horiz-adv-x="975" d="M950 403 L324 403 Q328 312 351 258 Q392 159 509 159 Q603 159 644 221 L926 221 Q906 157 851 99 Q729 -29 509 -29 Q290 -29 162 100 Q27 237 27 466 Q27 678 150 819 Q282 971 493 971 Q661 971 778 870 Q863 796 904 685.5 Q945 575 950 403 Z M653 571 Q647 636 628 681 Q585 783 491 783 Q423 783 379 726.5 Q335 670 325 571 L653 571 Z " />
<glyph glyph-name="onethird" unicode="&#x2153;" horiz-adv-x="1414" d="M120 546 L120 1096 Q79 1066 1 1066 Q-7 1066 -22 1067 L-22 1213 Q70 1216 109 1249 Q148 1282 160 1365 L306 1365 L306 546 L120 546 Z M423 0 L240 0 L864 1365 L1043 1365 L423 0 Z M1048 577 L856 577 Q858 683 911 746 Q984 835 1127 835 Q1246 835 1318 770 Q1388 707 1388 605 Q1388 493 1301 436 Q1413 375 1413 242 Q1413 132 1334 59 Q1252 -17 1118 -17 Q949 -17 875 95 Q838 150 838 228 Q838 233 839 248 L1032 248 Q1032 146 1117 146 Q1159 146 1183.5 174.5 Q1208 203 1208 252 Q1208 353 1094 353 L1055 353 L1055 495 L1109 495 Q1152 495 1179 522 Q1206 549 1206 593 Q1206 677 1124 677 Q1050 677 1048 577 Z " />
<glyph glyph-name="twothirds" unicode="&#x2154;" horiz-adv-x="1524" d="M535 0 L352 0 L975 1365 L1155 1365 L535 0 Z M1160 577 L968 577 Q970 684 1023 746 Q1096 835 1239 835 Q1358 835 1430 770 Q1500 707 1500 605 Q1500 492 1413 436 Q1525 375 1525 243 Q1525 132 1446 59 Q1364 -17 1231 -17 Q1061 -17 987 95 Q950 150 950 228 Q950 233 951 248 L1144 248 Q1144 146 1229 146 Q1271 146 1295.5 174.5 Q1320 203 1320 252 Q1320 353 1206 353 L1167 353 L1167 495 L1221 495 Q1265 495 1291.5 522 Q1318 549 1318 593 Q1318 677 1236 677 Q1162 677 1160 577 Z M548 713 L548 546 L-9 546 Q-9 686 38 773 Q66 826 110 865 Q154 904 264 975 Q324 1015 350 1051 Q376 1087 376 1132 Q376 1170 352 1193 Q328 1216 288 1216 Q208 1216 201 1106 L5 1106 Q12 1223 76 1296 Q153 1383 283 1383 Q410 1383 485 1311 Q555 1245 555 1141 Q555 1051 508 987.5 Q461 924 331 842 Q215 770 199 713 L548 713 Z " />
<glyph glyph-name="oneeighth" unicode="&#x215b;" horiz-adv-x="1414" d="M120 546 L120 1096 Q79 1066 1 1066 Q-7 1066 -22 1067 L-22 1213 Q70 1216 109 1249 Q148 1282 160 1365 L306 1365 L306 546 L120 546 Z M423 0 L240 0 L864 1365 L1043 1365 L423 0 Z M954 440 Q866 497 866 612 Q866 720 950 781 Q1025 836 1127 836 Q1241 836 1313.5 774 Q1386 712 1386 614 Q1386 502 1297 440 Q1413 378 1413 238 Q1413 124 1334 54 Q1254 -17 1126 -17 Q996 -17 917.5 51.5 Q839 120 839 233 Q839 374 954 440 Z M1120 688 Q1084 688 1063 664 Q1042 640 1042 599 Q1042 553 1063.5 527 Q1085 501 1123 501 Q1158 501 1178.5 527 Q1199 553 1199 598 Q1199 688 1120 688 Z M1124 364 Q1081 364 1053.5 332 Q1026 300 1026 250 Q1026 197 1054 165.5 Q1082 134 1128 134 Q1171 134 1198.5 165.5 Q1226 197 1226 247 Q1226 299 1198 331.5 Q1170 364 1124 364 Z " />
<glyph glyph-name="threeeighths" unicode="&#x215c;" horiz-adv-x="1506" d="M517 0 L335 0 L958 1365 L1137 1365 L517 0 Z M1048 440 Q961 497 961 612 Q961 721 1044 781 Q1119 836 1222 836 Q1336 836 1408 774 Q1480 712 1480 614 Q1480 502 1391 440 Q1507 378 1507 239 Q1507 124 1428 54 Q1348 -17 1220 -17 Q1094 -17 1014 49 Q933 116 933 233 Q933 374 1048 440 Z M1220 688 Q1182 688 1159.5 664 Q1137 640 1137 599 Q1137 554 1160 527.5 Q1183 501 1223 501 Q1260 501 1282 527 Q1304 553 1304 598 Q1304 688 1220 688 Z M1218 364 Q1175 364 1147.5 332 Q1120 300 1120 250 Q1120 198 1148 166 Q1176 134 1222 134 Q1265 134 1292.5 165 Q1320 196 1320 246 Q1320 299 1292 331.5 Q1264 364 1218 364 Z M204 1124 L12 1124 Q14 1231 67 1293 Q141 1382 283 1382 Q402 1382 474 1317 Q544 1254 544 1152 Q544 1040 457 982 Q569 922 569 789 Q569 678 490 605 Q408 529 275 529 Q104 529 31 641 Q-6 696 -6 774 Q-6 779 -5 794 L188 794 Q188 740 209.5 716 Q231 692 279 692 Q324 692 350 720.5 Q376 749 376 798 Q376 851 346 875 Q316 899 250 899 L211 899 L211 1042 L265 1042 Q308 1042 335 1069 Q362 1096 362 1140 Q362 1224 280 1224 Q206 1224 204 1124 Z " />
<glyph glyph-name="fiveeighths" unicode="&#x215d;" horiz-adv-x="1496" d="M507 0 L324 0 L947 1365 L1126 1365 L507 0 Z M1038 440 Q950 497 950 611 Q950 720 1033 781 Q1108 836 1211 836 Q1325 836 1397 774 Q1469 712 1469 614 Q1469 503 1380 440 Q1497 378 1497 239 Q1497 124 1417 54 Q1337 -17 1209 -17 Q1083 -17 1003 49 Q922 116 922 233 Q922 375 1038 440 Z M1209 688 Q1171 688 1148.5 664 Q1126 640 1126 599 Q1126 553 1149 527 Q1172 501 1211 501 Q1249 501 1271 527 Q1293 553 1293 598 Q1293 688 1209 688 Z M1208 364 Q1164 364 1136.5 332.5 Q1109 301 1109 251 Q1109 198 1136.5 166 Q1164 134 1211 134 Q1255 134 1282.5 165.5 Q1310 197 1310 247 Q1310 299 1282 331.5 Q1254 364 1208 364 Z M80 1365 L515 1365 L515 1198 L237 1198 L219 1083 Q266 1105 319 1105 Q422 1105 490 1040 Q566 966 566 835 Q566 696 475 608 Q395 530 274 530 Q190 530 124 563.5 Q58 597 25 656 Q1 700 -2 774 L193 774 Q195 763 196 757 Q205 690 278 690 Q323 690 349.5 726 Q376 762 376 823 Q376 886 350.5 922.5 Q325 959 281 959 Q251 959 233.5 946 Q216 933 193 894 L18 894 L80 1365 Z " />
<glyph glyph-name="seveneighths" unicode="&#x215e;" horiz-adv-x="1374" d="M382 0 L199 0 L822 1365 L1001 1365 L382 0 Z M912 440 Q825 497 825 612 Q825 721 908 781 Q983 836 1086 836 Q1200 836 1272 774 Q1344 712 1344 614 Q1344 502 1255 440 Q1371 378 1371 238 Q1371 124 1291 54 Q1211 -17 1084 -17 Q958 -17 878 49 Q797 116 797 233 Q797 374 912 440 Z M1078 688 Q1043 688 1022 664 Q1001 640 1001 599 Q1001 553 1022.5 527 Q1044 501 1081 501 Q1116 501 1136.5 527 Q1157 553 1157 598 Q1157 688 1078 688 Z M1082 364 Q1039 364 1011.5 332 Q984 300 984 250 Q984 197 1012 165.5 Q1040 134 1086 134 Q1129 134 1156.5 165.5 Q1184 197 1184 247 Q1184 299 1156 331.5 Q1128 364 1082 364 Z M1 1365 L512 1365 L512 1216 Q506 1208 500 1199 Q366 1016 322 798 Q300 691 293 546 L90 546 Q93 701 151 877 Q209 1053 304 1191 L1 1191 L1 1365 Z " />
<glyph glyph-name="minus" unicode="&#x2212;" horiz-adv-x="1049" d="M53 783 L995 783 L995 596 L53 596 L53 783 Z " />
<glyph glyph-name="fraction005" unicode="&#x2215;" horiz-adv-x="522" d="M42 0 L-140 0 L483 1365 L662 1365 L42 0 Z " />
<glyph glyph-name="middot" unicode="&#x2219;" horiz-adv-x="620" d="M460 625 L460 331 L160 331 L160 625 L460 625 Z " />
<glyph glyph-name="uni2236" unicode="&#x2236;" horiz-adv-x="1451" d="M726 528 Q766 528 794 500 Q822 472 822 432 Q822 392 794 363.5 Q766 335 726 335 Q685 335 657 363.5 Q629 392 629 433 Q629 472 657.5 500 Q686 528 726 528 Z M726 1059 Q766 1059 794 1031 Q822 1003 822 963 Q822 923 794 894.5 Q766 866 726 866 Q685 866 657 894.5 Q629 923 629 964 Q629 1003 657.5 1031 Q686 1059 726 1059 Z " />
<glyph glyph-name="dotmath" unicode="&#x22c5;" horiz-adv-x="620" d="M460 625 L460 331 L160 331 L160 625 L460 625 Z " />
<glyph glyph-name="uniEA31" unicode="&#xea31;" horiz-adv-x="1005" d="M562 1103 L682 1103 Q678 1041 662 1005 Q615 896 497 896 Q411 896 360 956 Q300 1027 300 1138 Q300 1246 356 1313.5 Q412 1381 501 1381 Q578 1381 626 1331.5 Q674 1282 680 1197 L561 1197 Q559 1206 558 1211 Q547 1273 498 1273 Q463 1273 442 1236.5 Q421 1200 421 1138 Q421 1077 442 1040 Q463 1003 497 1003 Q550 1003 562 1103 Z M502 1554 Q674 1554 795 1433 Q916 1312 916 1140 Q916 969 795 847 Q674 726 503 726 Q330 726 210 847 Q89 970 89 1145 Q89 1222 122 1300 Q155 1378 210 1433 Q333 1554 502 1554 Z M502 1487 Q358 1487 257 1385 Q156 1283 156 1144 Q156 998 257 895 Q358 793 503 793 Q646 793 748 895 Q849 997 849 1140 Q849 1286 748 1385 Q643 1487 502 1487 Z " />
<glyph glyph-name="uniEA32" unicode="&#xea32;" horiz-adv-x="1005" d="M345 907 L345 1372 L527 1372 Q599 1372 641.5 1335.5 Q684 1299 684 1236 Q684 1169 636 1128 Q660 1110 669 1082 Q678 1054 682 983 Q684 954 687 945 Q690 936 707 907 L578 907 Q567 932 562 1001 Q559 1049 548.5 1063.5 Q538 1078 506 1078 L466 1078 L466 907 L345 907 Z M466 1176 L504 1176 Q563 1176 563 1224 Q563 1269 506 1269 L466 1269 L466 1176 Z M502 1554 Q674 1554 795 1433 Q916 1312 916 1140 Q916 969 795 847 Q674 726 503 726 Q330 726 210 847 Q89 970 89 1145 Q89 1222 122 1300 Q155 1378 210 1433 Q333 1554 502 1554 Z M502 1487 Q358 1487 257 1385 Q156 1283 156 1144 Q156 998 257 895 Q358 793 503 793 Q646 793 748 895 Q849 997 849 1140 Q849 1286 748 1385 Q643 1487 502 1487 Z " />
<glyph glyph-name="uniEA3F" unicode="&#xea3f;" horiz-adv-x="576" d="M763 1365 L763 1218 Q763 1108 729 1063 Q676 991 526 985 L526 1074 Q595 1081 618 1100 Q641 1119 647 1173 L526 1173 L526 1365 L763 1365 Z " />
<glyph glyph-name="uniEA4F" unicode="&#xea4f;" horiz-adv-x="1031" d="M319 1079 L319 1226 Q319 1336 353 1381 Q408 1453 560 1459 L560 1370 Q490 1363 466.5 1344 Q443 1325 437 1271 L560 1271 L560 1079 L319 1079 Z " />
<glyph glyph-name="uniEA66" unicode="&#xea66;" horiz-adv-x="1047" d="M638 -95 L638 -242 Q638 -352 606 -397 Q555 -469 414 -475 L414 -386 Q479 -379 501 -360 Q523 -341 529 -287 L414 -287 L414 -95 L638 -95 Z " />
<glyph glyph-name="uniEA67" unicode="&#xea67;" horiz-adv-x="1034" d="M861 1365 L861 1218 Q861 1108 829 1063 Q778 991 637 985 L637 1074 Q702 1081 724 1100 Q746 1119 752 1173 L637 1173 L637 1365 L861 1365 Z " />
<glyph glyph-name="uniEA68" unicode="&#xea68;" horiz-adv-x="512" d="M512 1693 L512 1447 L307 1447 L307 1693 L512 1693 Z M204 1693 L204 1447 L0 1447 L0 1693 L204 1693 Z " />
<glyph glyph-name="uniEA69" unicode="&#xea69;" horiz-adv-x="913" d="M580 -95 L580 -242 Q580 -352 546 -397 Q493 -469 343 -475 L343 -386 Q412 -379 435.5 -360 Q459 -341 464 -287 L343 -287 L343 -95 L580 -95 Z " />
<glyph glyph-name="uniEA6A" unicode="&#xea6a;" horiz-adv-x="484" d="M494 1324 L494 1078 L296 1078 L296 1324 L494 1324 Z M186 1324 L186 1078 L-10 1078 L-10 1324 L186 1324 Z " />
<glyph glyph-name="uniEA71" unicode="&#xea71;" horiz-adv-x="1096" d="M110 842 L15 842 L15 988 L110 988 L110 1365 L543 1365 Q657 1365 724.5 1352.5 Q792 1340 851 1307 Q1019 1213 1041 988 L1096 988 L1096 842 L1035 842 Q1015 729 947 646 Q880 564 785.5 527 Q691 490 548 490 L403 490 L403 0 L110 0 L110 842 Z M403 842 L403 728 L545 728 Q630 728 673.5 754 Q717 780 737 842 L403 842 Z M403 988 L742 988 Q722 1058 675 1086.5 Q628 1115 531 1115 L403 1115 L403 988 Z " />
<glyph glyph-name="uniEA72" unicode="&#xea72;" horiz-adv-x="572" d="M234 806 L234 1173 Q201 1159 163 1159 Q155 1159 137 1160 L137 1273 Q210 1274 232 1299 Q254 1324 262 1376 L374 1376 L374 806 L234 806 Z M474 127 L474 0 L80 0 L80 12 L80 16 Q80 116 117.5 173 Q155 230 270 305 Q343 352 343 406 Q343 456 291 456 Q244 456 237 381 L90 381 Q95 447 115 484 Q168 583 287 583 Q373 583 426 535.5 Q479 488 479 411 Q479 348 446.5 304 Q414 260 323 202 Q254 157 239 127 L474 127 Z M16 724 L557 724 L557 646 L16 646 L16 724 Z " />
<glyph glyph-name="uniEA73" unicode="&#xea73;" horiz-adv-x="572" d="M236 806 L236 1173 Q206 1159 171 1159 Q163 1159 147 1160 L147 1273 Q209 1274 233 1294.5 Q257 1315 265 1376 L384 1376 L384 806 L236 806 Z M414 0 L277 0 L277 116 L67 116 L67 236 L289 571 L414 571 L414 236 L474 236 L474 116 L414 116 L414 0 Z M277 236 L277 343 L213 236 L277 236 Z M16 724 L557 724 L557 646 L16 646 L16 724 Z " />
<glyph glyph-name="uniEA74" unicode="&#xea74;" horiz-adv-x="572" d="M243 1198 L98 1198 Q100 1258 116 1291 Q163 1387 290 1387 Q372 1387 423.5 1342 Q475 1297 475 1224 Q475 1151 422 1109 Q492 1066 492 978 Q492 896 434.5 845 Q377 794 285 794 Q142 794 99 900 Q87 929 87 988 L233 988 Q233 948 243.5 933 Q254 918 283 918 Q338 918 338 984 Q338 1046 268 1046 L234 1046 L234 1156 L278 1156 Q338 1156 338 1216 Q338 1266 288 1266 Q263 1266 253.5 1251.5 Q244 1237 243 1198 Z M417 0 L280 0 L280 116 L70 116 L70 236 L292 571 L417 571 L417 236 L477 236 L477 116 L417 116 L417 0 Z M280 236 L280 343 L216 236 L280 236 Z M16 724 L557 724 L557 646 L16 646 L16 724 Z " />
<glyph glyph-name="Dotaccent" unicode="&#xefed;" horiz-adv-x="1159" d="M698 1693 L698 1447 L461 1447 L461 1693 L698 1693 Z " />
<glyph glyph-name="Breve" unicode="&#xefee;" horiz-adv-x="1159" d="M287 1720 L426 1720 Q454 1613 580 1613 Q706 1613 733 1720 L872 1720 Q870 1652 848 1608 Q780 1467 580 1467 Q360 1467 302 1631 Q290 1665 287 1720 Z " />
<glyph glyph-name="Ogonek" unicode="&#xeff1;" horiz-adv-x="1180" d="M1024 0 L1158 0 Q1067 -80 1067 -165 Q1067 -256 1161 -256 Q1181 -256 1232 -240 L1232 -359 L1222 -362 Q1164 -381 1116 -381 Q1023 -381 965 -331 Q907 -281 907 -201 Q907 -104 1024 0 Z " />
<glyph glyph-name="Cedilla" unicode="&#xeff2;" horiz-adv-x="1230" d="M448 -200 L529 21 L635 7 L593 -104 Q617 -94 646 -94 Q733 -94 786 -135.5 Q839 -177 839 -244 Q839 -319 781.5 -364.5 Q724 -410 629 -410 Q552 -410 500.5 -379.5 Q449 -349 441 -299 L571 -299 Q579 -330 622 -330 Q689 -330 689 -251 Q689 -173 622 -173 Q585 -173 574 -200 L448 -200 Z " />
<glyph glyph-name="Ring" unicode="&#xeff3;" horiz-adv-x="1159" d="M582 1710 Q545 1710 520 1684 Q495 1658 495 1621 Q495 1584 519.5 1558 Q544 1532 579 1532 Q615 1532 640 1558 Q665 1584 665 1621 Q665 1657 640.5 1683.5 Q616 1710 582 1710 Z M583 1816 Q664 1816 723 1759 Q782 1702 782 1621 Q782 1541 723 1484 Q664 1427 580 1427 Q495 1427 437 1484 Q378 1541 378 1621 Q378 1702 437.5 1759 Q497 1816 583 1816 Z " />
<glyph glyph-name="Tilde" unicode="&#xeff5;" horiz-adv-x="1159" d="M889 1734 Q851 1481 685 1481 Q659 1481 645 1485.5 Q631 1490 571 1517 Q479 1557 464 1557 Q421 1557 405 1475 L271 1475 Q272 1485 273 1490 Q288 1593 343 1659.5 Q398 1726 468 1726 Q512 1726 586 1691 Q662 1656 692 1656 Q714 1656 727.5 1672 Q741 1688 756 1734 L889 1734 Z " />
<glyph glyph-name="Circumflex" unicode="&#xeff7;" horiz-adv-x="1159" d="M887 1475 L662 1475 L576 1596 L488 1475 L272 1475 L463 1734 L696 1734 L887 1475 Z " />
<glyph glyph-name="Acute" unicode="&#xf6c9;" horiz-adv-x="1159" d="M864 1720 L666 1474 L433 1474 L617 1720 L864 1720 Z " />
<glyph glyph-name="Caron" unicode="&#xf6ca;" horiz-adv-x="1087" d="M851 1734 L661 1475 L427 1475 L236 1734 L451 1734 L540 1613 L626 1734 L851 1734 Z " />
<glyph glyph-name="Dieresis" unicode="&#xf6cb;" horiz-adv-x="1159" d="M869 1693 L869 1447 L631 1447 L631 1693 L869 1693 Z M527 1693 L527 1447 L290 1447 L290 1693 L527 1693 Z " />
<glyph glyph-name="Grave" unicode="&#xf6ce;" horiz-adv-x="1159" d="M295 1720 L543 1720 L726 1474 L494 1474 L295 1720 Z " />
<glyph glyph-name="Hungarumlaut" unicode="&#xf6cf;" horiz-adv-x="1250" d="M705 1720 L507 1474 L274 1474 L458 1720 L705 1720 Z M1115 1720 L916 1474 L684 1474 L867 1720 L1115 1720 Z " />
<glyph glyph-name="Macron" unicode="&#xf6d0;" horiz-adv-x="1159" d="M873 1658 L873 1501 L286 1501 L286 1658 L873 1658 Z " />
<glyph glyph-name="uniFEFF" unicode="&#xfeff;" d="" />
<glyph glyph-name="uniFFFC" unicode="&#xfffc;" horiz-adv-x="2048" d="M2048 1150 L1948 1150 L1948 1373 L1725 1373 L1725 1473 L2048 1473 L2048 1150 Z M1473 1373 L1150 1373 L1150 1473 L1473 1473 L1473 1373 Z M2048 575 L1948 575 L1948 898 L2048 898 L2048 575 Z M898 1388 L575 1388 L575 1488 L898 1488 L898 1388 Z M2048 0 L1725 0 L1725 100 L1948 100 L1948 323 L2048 323 L2048 0 Z M323 1373 L100 1373 L100 1150 L0 1150 L0 1473 L323 1473 L323 1373 Z M1473 0 L1150 0 L1150 100 L1473 100 L1473 0 Z M100 575 L0 575 L0 898 L100 898 L100 575 Z M898 0 L575 0 L575 100 L898 100 L898 0 Z M323 0 L0 0 L0 323 L100 323 L100 100 L323 100 L323 0 Z M555 1096 Q689 1096 770 991 Q854 882 854 712 Q854 560 789 455 Q708 324 555 324 Q417 324 336 430.5 Q255 537 255 716 Q255 888 338 991 Q423 1096 555 1096 Z M554 1017 Q463 1017 406 936 Q348 853 348 717 Q348 582 397 497 Q423 453 466 427 Q509 401 556 401 Q643 401 696 472 Q761 562 761 711 Q761 847 704 933 Q649 1017 554 1017 Z M963 357 L963 1094 L1196 1094 Q1297 1094 1343 1065 Q1421 1014 1421 912 Q1421 803 1320 752 Q1448 715 1448 568 Q1448 468 1392 412.5 Q1336 357 1235 357 L963 357 Z M1053 780 L1177 780 Q1259 780 1286 800 Q1330 830 1330 896 Q1330 979 1275 1004 Q1253 1015 1184 1015 L1053 1015 L1053 780 Z M1053 436 L1193 436 Q1280 436 1309 455 Q1357 487 1357 569 Q1357 661 1292 692 Q1265 705 1179 705 L1053 705 L1053 436 Z M1493 346 L1493 426 Q1518 416 1544 416 Q1616 416 1642 483 Q1655 516 1655 624 L1655 1094 L1745 1094 L1745 609 Q1745 530 1738 490 Q1731 450 1713 421 Q1661 339 1550 339 Q1524 339 1493 346 Z " />
<glyph glyph-name="uniFFFD" unicode="&#xfffd;" horiz-adv-x="2099" d="M1046 1556 L1986 618 L1046 -319 L109 618 L1046 1556 Z M711 779 L925 779 Q934 978 1057 978 Q1106 978 1135 943 Q1164 908 1164 850 Q1164 798 1140 754 Q1130 734 1043 647 Q983 586 965 534.5 Q947 483 944 359 L944 353 L944 345 L1142 345 L1142 355 Q1141 487 1230 552 Q1316 623 1352.5 690.5 Q1389 758 1389 846 Q1389 1004 1285 1100 Q1198 1179 1059 1179 Q899 1179 808 1074.5 Q717 970 711 779 Z M1170 243 L916 243 L916 -5 L1170 -5 L1170 243 Z " />
</font>
</svg>
