<?xml version="1.0" encoding="UTF-8"?>
<svg xmlns="http://www.w3.org/2000/svg" xmlns:xlink="http://www.w3.org/1999/xlink" version="1.2" >
<font id="TeleGroteskScreen Italic">
<font-face  font-family="TeleGroteskScreen" units-per-em="2048" ascent="1880" descent="-369" font-style="italic" font-weight="400" font-stretch="normal" slope="-12" cap-height="1365" x-height="942" underline-position="-162" underline-thickness="105" />
<missing-glyph  horiz-adv-x="515" d="M52 0 L52 1365 L463 1365 L463 0 L52 0 Z M411 52 L411 1313 L104 1313 L104 52 L411 52 Z " />
<glyph glyph-name="space" unicode="&#x20;" horiz-adv-x="515" d="" />
<glyph glyph-name="exclam" unicode="&#x21;" horiz-adv-x="555" d="M629 1365 L544 965 L384 342 L317 342 L422 965 L507 1365 L629 1365 Z M391 205 L347 0 L208 0 L252 205 L391 205 Z " />
<glyph glyph-name="quotedbl" unicode="&#x22;" horiz-adv-x="584" d="M385 846 L302 846 L396 1365 L512 1365 L385 846 Z M641 846 L558 846 L652 1365 L767 1365 L641 846 Z " />
<glyph glyph-name="numbersign" unicode="&#x23;" horiz-adv-x="1311" d="M768 1297 L874 1297 L743 924 L1018 924 L1150 1297 L1256 1297 L1125 924 L1327 924 L1307 832 L1093 832 L995 556 L1197 556 L1177 464 L962 464 L823 68 L716 68 L856 464 L580 464 L440 68 L334 68 L473 464 L274 464 L294 556 L506 556 L604 832 L404 832 L424 924 L636 924 L768 1297 Z M986 832 L710 832 L612 556 L888 556 L986 832 Z " />
<glyph glyph-name="dollar" unicode="&#x24;" horiz-adv-x="1047" d="M843 1346 Q1111 1297 1111 1052 Q1111 1038 1110 1012 L991 1012 Q991 1020 991 1048 Q991 1206 821 1243 L714 742 L784 717 Q1024 627 1024 403 Q1024 234 892 123 Q760 12 559 12 L539 -82 L440 -82 L461 20 Q385 33 326 66 Q254 107 214 178 Q174 249 174 336 Q174 363 177 403 L287 403 Q285 374 285 355 Q285 261 336 200.5 Q387 140 483 121 L599 667 L566 679 Q317 772 317 997 Q317 1229 535 1318 Q626 1354 745 1354 L765 1447 L864 1447 L843 1346 Z M691 633 L581 114 Q693 118 774 173 Q900 257 900 404 Q900 485 860 534.5 Q820 584 726 620 L691 633 Z M622 777 L723 1253 Q642 1252 579 1225 Q434 1162 434 1004 Q434 844 622 777 Z " />
<glyph glyph-name="percent" unicode="&#x25;" horiz-adv-x="1722" d="M667 1384 Q825 1384 896 1266 Q942 1190 942 1069 Q942 868 837 711 Q714 526 530 526 Q382 526 308 629 Q246 715 246 839 Q246 947 278 1050.5 Q310 1154 366 1226 Q489 1384 667 1384 Z M659 1293 Q524 1293 430 1144 Q346 1013 346 836 Q346 725 401 667 Q448 617 525 617 Q669 617 762 775 Q842 909 842 1072 Q842 1175 793 1234 Q744 1293 659 1293 Z M618 0 L519 0 L1398 1365 L1493 1365 L618 0 Z M1490 838 Q1647 838 1719 720 Q1765 644 1765 523 Q1765 322 1660 165 Q1537 -20 1353 -20 Q1205 -20 1131 83 Q1069 169 1069 293 Q1069 401 1101 504.5 Q1133 608 1189 680 Q1312 838 1490 838 Z M1482 747 Q1347 747 1253 598 Q1169 467 1169 290 Q1169 179 1224 121 Q1271 71 1348 71 Q1491 71 1585 229 Q1665 363 1665 526 Q1665 629 1616 688 Q1567 747 1482 747 Z " />
<glyph glyph-name="ampersand" unicode="&#x26;" horiz-adv-x="1074" d="M992 0 L860 0 L809 112 Q731 35 658 3 Q585 -29 484 -29 Q313 -29 232 73 Q167 154 167 273 Q167 443 301 579 Q355 633 524 748 Q517 769 498 817 Q440 967 440 1081 Q440 1232 530 1315 Q616 1396 749 1396 Q886 1396 959 1307 Q1010 1244 1010 1157 Q1010 1045 932 950 Q854 855 661 733 L853 308 Q920 416 958 567 L1070 567 Q1006 352 896 209 L992 0 Z M562 665 Q436 582 380 519 Q285 411 285 290 Q285 187 340.5 126.5 Q396 66 491 66 Q641 66 769 202 L562 665 Z M622 817 Q752 905 807 964 Q890 1055 890 1149 Q890 1295 745 1295 Q660 1295 608 1237 Q556 1179 556 1085 Q556 1025 567 980 Q578 935 622 817 Z " />
<glyph glyph-name="quotesingle" unicode="&#x27;" horiz-adv-x="328" d="M385 846 L302 846 L396 1365 L512 1365 L385 846 Z " />
<glyph glyph-name="parenleft" unicode="&#x28;" horiz-adv-x="563" d="M713 1365 Q506 1086 395 766 Q284 446 284 129 Q284 -125 347 -355 L261 -355 Q179 -54 179 175 Q179 539 345 906 Q458 1154 627 1365 L713 1365 Z " />
<glyph glyph-name="parenright" unicode="&#x29;" horiz-adv-x="563" d="M65 -355 Q272 -75 383 244.5 Q494 564 494 881 Q494 1134 431 1365 L516 1365 Q599 1066 599 835 Q599 472 433 104 Q321 -143 151 -355 L65 -355 Z " />
<glyph glyph-name="asterisk" unicode="&#x2a;" horiz-adv-x="846" d="M974 1133 L734 1058 L858 866 L798 823 L674 1017 L503 823 L451 866 L622 1058 L400 1133 L430 1200 L649 1122 L674 1365 L748 1365 L720 1122 L958 1200 L974 1133 Z " />
<glyph glyph-name="plus" unicode="&#x2b;" horiz-adv-x="1065" d="M246 742 L634 742 L711 1103 L823 1103 L746 742 L1134 742 L1111 637 L724 637 L647 276 L535 276 L611 637 L224 637 L246 742 Z " />
<glyph glyph-name="comma" unicode="&#x2c;" horiz-adv-x="487" d="M355 205 L323 57 Q292 -90 243 -162 Q194 -234 103 -266 L120 -184 Q200 -143 226 -23 L231 0 L172 0 L215 205 L355 205 Z " />
<glyph glyph-name="hyphen" unicode="&#x2d;" horiz-adv-x="408" d="M516 560 L494 454 L107 454 L130 560 L516 560 Z " />
<glyph glyph-name="period" unicode="&#x2e;" horiz-adv-x="491" d="M359 205 L315 0 L176 0 L220 205 L359 205 Z " />
<glyph glyph-name="slash" unicode="&#x2f;" horiz-adv-x="740" d="M-16 -355 L-113 -355 L841 1365 L935 1365 L-16 -355 Z " />
<glyph glyph-name="zero" unicode="0" horiz-adv-x="1056" d="M817 1392 Q975 1392 1055 1274 Q1126 1170 1126 992 Q1126 844 1085 653.5 Q1044 463 981 319 Q907 147 800.5 59 Q694 -29 562 -29 Q374 -29 298 120 Q247 221 247 367 Q247 508 288 697.5 Q329 887 389 1029 Q545 1392 817 1392 Z M806 1290 Q653 1290 551 1108 Q476 975 421.5 752.5 Q367 530 367 356 Q367 213 427 139 Q480 73 572 73 Q670 73 751 153.5 Q832 234 889 389 Q942 530 974.5 696.5 Q1007 863 1007 991 Q1007 1135 955 1212.5 Q903 1290 806 1290 Z " />
<glyph glyph-name="one" unicode="1" horiz-adv-x="682" d="M300 0 L534 1100 Q482 1056 439 1042 Q396 1028 307 1025 L326 1118 Q452 1123 522 1193 Q569 1240 618 1365 L709 1365 L419 0 L300 0 Z " />
<glyph glyph-name="two" unicode="2" horiz-adv-x="1039" d="M894 106 L872 0 L140 0 Q184 211 290 345 Q352 424 424 478.5 Q496 533 708 662 Q836 740 911.5 852.5 Q987 965 987 1077 Q987 1195 905 1252 Q845 1293 750 1293 Q606 1293 527 1184 Q488 1130 471 1016 L353 1016 Q369 1118 393 1176 Q417 1234 462 1281 Q572 1396 760 1396 Q937 1396 1032 1296 Q1108 1214 1108 1087 Q1108 900 953 736 Q896 675 844.5 638 Q793 601 595 478 Q464 397 393.5 310 Q323 223 295 106 L894 106 Z " />
<glyph glyph-name="three" unicode="3" horiz-adv-x="1030" d="M190 389 L299 389 Q288 329 288 293 Q288 192 351.5 132.5 Q415 73 523 73 Q686 73 778 199 Q856 305 856 433 Q856 556 785 621 Q723 679 623 679 Q601 679 567 676 L589 778 Q615 777 628 777 Q787 777 874 866 Q956 949 956 1079 Q956 1178 896 1234 Q836 1290 729 1290 Q614 1290 544 1221 Q474 1152 459 1024 L352 1024 Q373 1185 446 1270 Q550 1392 739 1392 Q906 1392 1002 1293 Q1078 1213 1078 1081 Q1078 921 968 817 Q912 765 798 729 Q978 652 978 437 Q978 240 860 114 Q727 -29 515 -29 Q349 -29 256 65 Q173 149 173 279 Q173 328 190 389 Z " />
<glyph glyph-name="four" unicode="4" horiz-adv-x="1027" d="M624 0 L702 369 L187 369 L211 482 L923 1365 L1018 1365 L828 470 L996 470 L975 369 L806 369 L728 0 L624 0 Z M724 470 L869 1152 L313 470 L724 470 Z " />
<glyph glyph-name="five" unicode="5" horiz-adv-x="1033" d="M561 1365 L1129 1365 L1106 1259 L623 1259 L446 790 Q561 911 712 911 Q844 911 920 831 Q960 788 983.5 717 Q1007 646 1007 567 Q1007 449 964 333.5 Q921 218 845 130 Q772 47 692.5 9 Q613 -29 513 -29 Q359 -29 273 53 Q189 133 189 256 Q189 286 199 332 L310 332 Q304 297 304 274 Q304 189 351 137 Q408 73 512 73 Q675 73 790 247 Q885 392 885 567 Q885 696 816 759 Q761 809 668 809 Q517 809 396 650 L304 665 L561 1365 Z " />
<glyph glyph-name="six" unicode="6" horiz-adv-x="1058" d="M1133 1081 L1021 1081 Q1021 1092 1021 1111 Q1021 1185 985 1231 Q938 1290 851 1290 Q568 1290 411 671 Q536 891 746 891 Q894 891 978 785 Q1051 694 1051 545 Q1051 332 928 164 Q786 -29 583 -29 Q433 -29 345 67 Q257 162 257 326 Q257 505 318 739.5 Q379 974 464 1121 Q621 1392 859 1392 Q992 1392 1066 1316 Q1135 1246 1135 1131 Q1135 1112 1133 1081 Z M722 790 Q644 790 572 742 Q500 694 448 607 Q371 477 371 328 Q371 202 436 133 Q491 74 584 74 Q744 74 849 254 Q929 391 929 544 Q929 663 867 732 Q813 790 722 790 Z " />
<glyph glyph-name="seven" unicode="7" horiz-adv-x="920" d="M382 0 L262 0 Q416 715 971 1254 L372 1254 L396 1365 L1123 1365 L1100 1257 Q811 975 650 694 Q465 369 382 0 Z " />
<glyph glyph-name="eight" unicode="8" horiz-adv-x="1038" d="M542 760 Q394 834 394 1016 Q394 1172 497 1281 Q603 1392 779 1392 Q940 1392 1030 1296 Q1102 1219 1102 1105 Q1102 968 1035 876.5 Q968 785 843 749 Q920 703 957 640 Q1004 559 1004 453 Q1004 264 884 119 Q762 -29 551 -29 Q358 -29 269 90 Q203 176 203 302 Q203 495 329 631 Q375 681 421 709 Q467 737 542 760 Z M775 1290 Q646 1290 572 1197 Q506 1114 506 1002 Q506 910 563.5 855 Q621 800 716 800 Q849 800 925 906 Q985 988 985 1094 Q985 1163 952 1209 Q896 1290 775 1290 Z M662 699 Q502 699 404 566 Q323 455 323 318 Q323 213 375 145 Q435 67 553 67 Q719 67 815 212 Q886 320 886 460 Q886 588 814 649 Q755 699 662 699 Z " />
<glyph glyph-name="nine" unicode="9" horiz-adv-x="1028" d="M215 283 L328 283 Q327 266 327 253 Q327 179 363 132 Q410 73 497 73 Q780 73 937 692 Q812 473 603 473 Q454 473 370 579 Q297 670 297 819 Q297 1031 420 1200 Q562 1393 765 1393 Q916 1393 1004 1297 Q1092 1202 1092 1038 Q1092 858 1031 624 Q970 390 884 242 Q728 -29 489 -29 Q356 -29 282 47 Q213 118 213 233 Q213 251 215 283 Z M765 1290 Q604 1290 499 1110 Q419 973 419 820 Q419 700 481 632 Q535 574 626 574 Q705 574 776.5 622 Q848 670 901 757 Q978 887 978 1036 Q978 1162 913 1231 Q857 1290 765 1290 Z " />
<glyph glyph-name="colon" unicode="&#x3a;" horiz-adv-x="491" d="M516 942 L472 737 L333 737 L376 942 L516 942 Z M359 205 L315 0 L176 0 L220 205 L359 205 Z " />
<glyph glyph-name="semicolon" unicode="&#x3b;" horiz-adv-x="487" d="M355 205 L323 57 Q292 -90 243 -162 Q194 -234 103 -266 L120 -184 Q200 -143 226 -23 L231 0 L172 0 L215 205 L355 205 Z M511 942 L468 737 L329 737 L372 942 L511 942 Z " />
<glyph glyph-name="less" unicode="&#x3c;" horiz-adv-x="1065" d="M1220 1143 L1194 1022 L365 683 L1050 344 L1024 222 L223 630 L246 736 L1220 1143 Z " />
<glyph glyph-name="equal" unicode="&#x3d;" horiz-adv-x="1065" d="M275 879 L1163 879 L1140 774 L253 774 L275 879 Z M217 606 L1105 606 L1082 501 L195 501 L217 606 Z " />
<glyph glyph-name="greater" unicode="&#x3e;" horiz-adv-x="1065" d="M333 1143 L1133 736 L1110 629 L137 222 L163 344 L991 683 L307 1022 L333 1143 Z " />
<glyph glyph-name="question" unicode="&#x3f;" horiz-adv-x="879" d="M268 1017 Q287 1161 358 1253 Q467 1394 658 1394 Q809 1394 902 1316 Q1006 1229 1006 1084 Q1006 975 947.5 879 Q889 783 754 668 Q674 601 644 565.5 Q614 530 592 479 Q574 437 556 340 L444 340 Q456 469 514 561 Q540 602 568 632 Q596 662 686 743 Q796 843 840 917.5 Q884 992 884 1077 Q884 1172 824 1229 Q763 1288 658 1288 Q544 1288 468 1214.5 Q392 1141 379 1017 L268 1017 Z M539 205 L496 0 L356 0 L400 205 L539 205 Z " />
<glyph glyph-name="at" unicode="&#x40;" horiz-adv-x="1569" d="M1216 966 L1316 966 L1160 582 Q1130 494 1130 479 Q1130 434 1176 434 Q1240 434 1311.5 473 Q1383 512 1436 575 Q1565 728 1565 913 Q1565 1072 1468 1177 Q1344 1312 1087 1312 Q881 1312 712 1220 Q485 1097 384 867 Q319 719 319 550 Q319 338 439 208 Q584 52 835 52 Q1071 52 1280 151 L1288 66 Q1085 -33 839 -33 Q522 -33 351 164 Q220 314 220 541 Q220 722 294 890 Q404 1139 656 1281 Q863 1397 1099 1397 Q1291 1397 1431 1320 Q1576 1239 1629 1082 Q1653 1011 1653 929 Q1653 790 1588 660 Q1499 484 1346 402 Q1249 350 1157 350 Q1106 350 1073 375.5 Q1040 401 1040 440 Q1040 452 1043 470 Q940 339 813 339 Q727 339 677 397 Q629 452 629 544 Q629 697 740 837 Q860 989 1016 989 Q1151 989 1164 839 L1216 966 Z M1006 899 Q951 899 897.5 867 Q844 835 803 778 Q728 672 728 557 Q728 495 756.5 460.5 Q785 426 836 426 Q893 426 949.5 463.5 Q1006 501 1043 564 Q1114 682 1114 785 Q1114 835 1084 867 Q1054 899 1006 899 Z " />
<glyph glyph-name="A" unicode="A" horiz-adv-x="1099" d="M776 1365 L909 1365 L1073 0 L944 0 L900 430 L389 430 L159 0 L27 0 L776 1365 Z M445 535 L889 535 L816 1230 L445 535 Z " />
<glyph glyph-name="B" unicode="B" horiz-adv-x="1188" d="M192 0 L482 1365 L875 1365 Q1260 1365 1260 1072 Q1260 931 1178.5 839 Q1097 747 940 710 Q1168 649 1168 439 Q1168 343 1129.5 258 Q1091 173 1021 115 Q882 0 606 0 L192 0 Z M476 760 L701 760 Q884 760 984 817 Q1133 903 1133 1066 Q1133 1166 1065 1212.5 Q997 1259 852 1259 L582 1259 L476 760 Z M337 106 L635 106 Q824 106 927 184 Q1042 269 1042 435 Q1042 560 944 618 Q877 658 712 658 L454 658 L337 106 Z " />
<glyph glyph-name="C" unicode="C" horiz-adv-x="1229" d="M1107 451 L1231 451 Q1184 287 1090 173 Q920 -33 671 -33 Q471 -33 357 99 Q230 245 230 476 Q230 675 309 885 Q403 1135 584 1275 Q742 1397 935 1397 Q1128 1397 1236 1281 Q1333 1178 1333 1013 Q1333 1007 1333 997 L1208 997 Q1204 1102 1164 1169 Q1093 1290 928 1290 Q680 1290 505 1004 Q436 892 396.5 746.5 Q357 601 357 459 Q357 367 384.5 286 Q412 205 459 157 Q542 73 673 73 Q840 73 974 218 Q1060 311 1107 451 Z " />
<glyph glyph-name="D" unicode="D" horiz-adv-x="1241" d="M192 0 L482 1365 L826 1365 Q936 1365 1012 1344 Q1088 1323 1147 1277 Q1216 1223 1251 1142 Q1301 1027 1301 894 Q1301 635 1182 389 Q994 0 543 0 L192 0 Z M337 106 L567 106 Q848 106 994 303 Q1085 426 1133 597 Q1177 753 1177 892 Q1177 1030 1115 1125 Q1028 1259 822 1259 L582 1259 L337 106 Z " />
<glyph glyph-name="E" unicode="E" horiz-adv-x="1084" d="M192 0 L482 1365 L1269 1365 L1247 1259 L582 1259 L476 760 L1098 760 L1075 654 L453 654 L337 106 L1009 106 L986 0 L192 0 Z " />
<glyph glyph-name="F" unicode="F" horiz-adv-x="976" d="M192 0 L482 1365 L1214 1365 L1191 1259 L582 1259 L476 761 L1017 761 L994 655 L453 655 L314 0 L192 0 Z " />
<glyph glyph-name="G" unicode="G" horiz-adv-x="1315" d="M1155 0 L1053 0 L1101 228 Q1030 133 969 81 Q837 -33 670 -33 Q472 -33 357 99 Q230 245 230 476 Q230 675 309 885 Q403 1135 584 1275 Q743 1397 940 1397 Q1092 1397 1195 1325 Q1272 1271 1306 1198 Q1340 1125 1346 1004 L1222 1004 Q1214 1139 1138.5 1214.5 Q1063 1290 936 1290 Q680 1290 505 1004 Q436 892 396.5 746.5 Q357 601 357 459 Q357 367 384.5 286 Q412 205 459 157 Q542 73 677 73 Q814 73 934 175 Q1024 251 1075.5 342.5 Q1127 434 1168 588 L784 588 L807 694 L1303 694 L1155 0 Z " />
<glyph glyph-name="H" unicode="H" horiz-adv-x="1295" d="M192 0 L482 1365 L605 1365 L478 769 L1145 769 L1272 1365 L1394 1365 L1104 0 L981 0 L1122 663 L455 663 L314 0 L192 0 Z " />
<glyph glyph-name="I" unicode="I" horiz-adv-x="506" d="M192 0 L482 1365 L605 1365 L314 0 L192 0 Z " />
<glyph glyph-name="J" unicode="J" horiz-adv-x="628" d="M626 1365 L749 1365 L558 467 Q524 306 501.5 243.5 Q479 181 436 121 Q378 41 299.5 4 Q221 -33 111 -33 Q63 -33 9 -20 L32 89 Q82 73 132 73 Q282 73 355 209 Q397 286 441 495 L626 1365 Z " />
<glyph glyph-name="K" unicode="K" horiz-adv-x="1135" d="M482 1365 L605 1365 L458 674 L1250 1365 L1390 1365 L725 785 L1122 0 L985 0 L629 701 L426 524 L314 0 L192 0 L482 1365 Z " />
<glyph glyph-name="L" unicode="L" horiz-adv-x="995" d="M192 0 L482 1365 L605 1365 L337 106 L968 106 L945 0 L192 0 Z " />
<glyph glyph-name="M" unicode="M" horiz-adv-x="1504" d="M192 0 L482 1365 L641 1365 L793 174 L1443 1365 L1603 1365 L1313 0 L1196 0 L1445 1170 L810 0 L702 0 L556 1162 L308 0 L192 0 Z " />
<glyph glyph-name="N" unicode="N" horiz-adv-x="1293" d="M192 0 L482 1365 L614 1365 L1027 196 L1276 1365 L1392 1365 L1102 0 L970 0 L556 1163 L308 0 L192 0 Z " />
<glyph glyph-name="O" unicode="O" horiz-adv-x="1311" d="M929 1396 Q1127 1396 1247 1260 Q1304 1196 1336.5 1096 Q1369 996 1369 886 Q1369 729 1323 570 Q1277 411 1196 286 Q1096 133 962 51 Q826 -33 670 -33 Q448 -33 330 131 Q231 267 231 466 Q231 677 308 884 Q399 1129 582 1272 Q741 1396 929 1396 Z M931 1290 Q787 1290 654 1182 Q506 1062 427 844 Q357 652 357 458 Q357 271 454 165 Q537 73 669 73 Q817 73 947 179 Q1102 305 1184 547 Q1243 722 1243 896 Q1243 1096 1142 1204 Q1061 1290 931 1290 Z " />
<glyph glyph-name="P" unicode="P" horiz-adv-x="1117" d="M192 0 L482 1365 L826 1365 Q1048 1365 1145 1269 Q1230 1185 1230 1054 Q1230 951 1189 858.5 Q1148 766 1076 703 Q935 582 650 582 L438 582 L314 0 L192 0 Z M461 688 L683 688 Q794 688 864.5 708 Q935 728 988 775 Q1040 822 1071 892.5 Q1102 963 1102 1035 Q1102 1153 1027 1206 Q952 1259 786 1259 L582 1259 L461 688 Z " />
<glyph glyph-name="Q" unicode="Q" horiz-adv-x="1311" d="M1054 120 L1165 -31 L1082 -100 L968 55 Q826 -33 671 -33 Q448 -33 330 131 Q231 267 231 469 Q231 647 286.5 822 Q342 997 439 1125 Q644 1396 929 1396 Q1129 1396 1247 1261 Q1304 1196 1336.5 1096 Q1369 996 1369 886 Q1369 663 1283.5 455.5 Q1198 248 1054 120 Z M985 214 Q1052 283 1099 362 Q1167 476 1205 617.5 Q1243 759 1243 897 Q1243 991 1216 1072.5 Q1189 1154 1142 1204 Q1060 1290 930 1290 Q786 1290 654 1182 Q506 1061 427 844 Q357 652 357 460 Q357 271 454 165 Q537 73 668 73 Q792 73 901 147 L781 311 L865 379 L985 214 Z " />
<glyph glyph-name="R" unicode="R" horiz-adv-x="1220" d="M192 0 L482 1365 L919 1365 Q1088 1365 1184 1283 Q1280 1201 1280 1057 Q1280 894 1192 788.5 Q1104 683 941 651 Q997 632 1027 610 Q1112 551 1112 441 Q1112 390 1091 251 Q1072 129 1072 75 Q1072 35 1087 0 L949 0 Q937 36 937 69 Q937 112 963 277 Q977 369 977 427 Q977 522 901.5 566.5 Q826 611 667 611 L444 611 L314 0 L192 0 Z M466 714 L746 714 Q854 714 919.5 731.5 Q985 749 1035 791 Q1089 836 1121 906.5 Q1153 977 1153 1050 Q1153 1259 899 1259 L582 1259 L466 714 Z " />
<glyph glyph-name="S" unicode="S" horiz-adv-x="1076" d="M170 383 L287 383 Q285 351 285 334 Q285 230 345 161 Q421 75 578 75 Q754 75 857 179 Q941 264 941 384 Q941 470 898 523.5 Q855 577 755 614 L584 677 Q319 776 319 1016 Q319 1208 464 1310 Q586 1397 772 1397 Q959 1397 1062 1312.5 Q1165 1228 1165 1075 Q1165 1060 1164 1032 L1037 1032 Q1038 1140 1005 1190 Q938 1290 759 1290 Q641 1290 559 1239 Q443 1167 443 1024 Q443 937 492 878.5 Q541 820 647 780 L816 717 Q1073 622 1073 383 Q1073 220 948 101 Q809 -33 580 -33 Q389 -33 280 58 Q167 154 167 312 Q167 340 170 383 Z " />
<glyph glyph-name="T" unicode="T" horiz-adv-x="1006" d="M565 0 L443 0 L710 1259 L313 1259 L336 1365 L1251 1365 L1229 1259 L833 1259 L565 0 Z " />
<glyph glyph-name="U" unicode="U" horiz-adv-x="1241" d="M461 1365 L584 1365 L410 551 Q381 412 381 343 Q381 234 435 168 Q512 73 675 73 Q877 73 970 222 Q998 267 1013.5 319.5 Q1029 372 1066 552 L1239 1365 L1361 1365 L1188 551 Q1150 346 1129 288 Q1069 117 952 41 Q840 -33 671 -33 Q463 -33 350 74 Q257 164 257 322 Q257 405 289 555 L461 1365 Z " />
<glyph glyph-name="V" unicode="V" horiz-adv-x="1040" d="M591 0 L453 0 L317 1365 L448 1365 L555 156 L1176 1365 L1304 1365 L591 0 Z " />
<glyph glyph-name="W" unicode="W" horiz-adv-x="1518" d="M346 0 L322 1365 L446 1365 L456 193 L981 1365 L1116 1365 L1146 193 L1655 1365 L1776 1365 L1171 0 L1042 0 L1010 1183 L475 0 L346 0 Z " />
<glyph glyph-name="X" unicode="X" horiz-adv-x="1017" d="M27 0 L591 702 L342 1365 L477 1365 L676 801 L1124 1365 L1258 1365 L726 702 L990 0 L853 0 L639 598 L165 0 L27 0 Z " />
<glyph glyph-name="Y" unicode="Y" horiz-adv-x="1018" d="M449 0 L569 565 L289 1365 L426 1365 L654 683 L1171 1365 L1310 1365 L691 565 L571 0 L449 0 Z " />
<glyph glyph-name="Z" unicode="Z" horiz-adv-x="1034" d="M75 0 L100 115 L1087 1259 L397 1259 L420 1365 L1244 1365 L1220 1253 L232 106 L990 106 L968 0 L75 0 Z " />
<glyph glyph-name="bracketleft" unicode="&#x5b;" horiz-adv-x="578" d="M737 1365 L717 1271 L553 1271 L228 -261 L391 -261 L371 -355 L105 -355 L471 1365 L737 1365 Z " />
<glyph glyph-name="backslash" unicode="&#x5c;" horiz-adv-x="628" d="M493 -355 L274 1365 L368 1365 L590 -355 L493 -355 Z " />
<glyph glyph-name="bracketright" unicode="&#x5d;" horiz-adv-x="578" d="M55 -355 L75 -261 L239 -261 L564 1271 L401 1271 L421 1365 L687 1365 L321 -355 L55 -355 Z " />
<glyph glyph-name="asciicircum" unicode="&#x5e;" horiz-adv-x="1068" d="M380 779 L261 779 L755 1368 L895 1368 L1139 779 L1019 779 L805 1283 L380 779 Z " />
<glyph glyph-name="underscore" unicode="&#x5f;" horiz-adv-x="1065" d="M65 -109 L953 -109 L930 -214 L43 -214 L65 -109 Z " />
<glyph glyph-name="grave" unicode="&#x60;" horiz-adv-x="1247" d="M674 1365 L792 1365 L897 1092 L794 1092 L674 1365 Z " />
<glyph glyph-name="a" unicode="a" horiz-adv-x="931" d="M916 88 L897 -1 Q865 -10 839 -10 Q783 -10 748 20.5 Q713 51 713 100 Q713 121 722 166 Q575 -29 378 -29 Q259 -29 188 41 Q125 104 125 210 Q125 421 372 508 Q446 534 531.5 544 Q617 554 804 559 L831 696 Q836 719 836 739 Q836 877 627 877 Q451 877 398 761 L284 761 Q294 819 352 876 Q450 971 636 971 Q787 971 867.5 912 Q948 853 948 742 Q948 709 938 660 L844 219 Q829 153 829 138 Q829 86 884 86 Q889 86 916 88 Z M786 477 Q571 468 460 443 Q357 419 298.5 359.5 Q240 300 240 220 Q240 148 282.5 106.5 Q325 65 398 65 Q466 65 537.5 105 Q609 145 667 216 Q703 260 734 319 Q765 378 774 420 L786 477 Z " />
<glyph glyph-name="b" unicode="b" horiz-adv-x="1042" d="M150 0 L440 1365 L553 1365 L430 786 Q485 871 573.5 921 Q662 971 758 971 Q899 971 987 882 Q1080 788 1080 627 Q1080 501 1039 373 Q998 245 931 160 Q781 -29 572 -29 Q465 -29 393.5 24 Q322 77 299 173 L263 0 L150 0 Z M746 877 Q659 877 583 831 Q507 785 453 701 Q347 534 347 324 Q347 182 427 115 Q486 65 572 65 Q747 65 863 247 Q910 321 937.5 421.5 Q965 522 965 620 Q965 747 900 816 Q842 877 746 877 Z " />
<glyph glyph-name="c" unicode="c" horiz-adv-x="911" d="M791 302 L911 302 Q880 197 806 114 Q677 -29 489 -29 Q331 -29 245 65 Q159 158 159 325 Q159 441 194.5 557 Q230 673 294 762 Q443 971 679 971 Q817 971 897 898 Q944 854 963 805 Q982 756 982 679 L861 679 Q858 753 831 796 Q781 877 667 877 Q487 877 370 686 Q273 527 273 323 Q273 181 350 114 Q406 65 494 65 Q592 65 670.5 127.5 Q749 190 791 302 Z " />
<glyph glyph-name="d" unicode="d" horiz-adv-x="1042" d="M891 0 L783 0 L819 173 Q770 108 735 75 Q628 -29 477 -29 Q342 -29 255 58 Q161 153 161 314 Q161 440 202 569.5 Q243 699 310 782 Q461 971 675 971 Q775 971 850 920 Q925 869 946 786 L1069 1365 L1181 1365 L891 0 Z M671 877 Q560 877 466 797 Q373 718 322 575 Q276 446 276 320 Q276 190 347 121 Q405 65 495 65 Q675 65 792 248 Q894 410 894 616 Q894 762 816 827 Q756 877 671 877 Z " />
<glyph glyph-name="e" unicode="e" horiz-adv-x="943" d="M963 445 L289 445 Q274 372 274 325 Q274 199 347 126 Q408 65 512 65 Q577 65 640.5 93 Q704 121 741 165 L866 165 Q810 76 711.5 23.5 Q613 -29 501 -29 Q339 -29 247 72 Q158 170 158 339 Q158 464 198 583.5 Q238 703 310 791 Q455 971 657 971 Q818 971 903 876 Q986 783 986 627 Q986 547 963 445 Z M861 535 Q871 597 871 633 Q871 742 814 811 Q759 879 666 879 Q546 879 452.5 789 Q359 699 308 535 L861 535 Z " />
<glyph glyph-name="f" unicode="f" horiz-adv-x="496" d="M187 0 L367 848 L218 848 L238 942 L387 942 L419 1092 Q441 1196 454 1233 Q467 1270 492 1305 Q560 1397 684 1397 Q732 1397 791 1376 L770 1276 Q723 1296 679 1296 Q616 1296 587.5 1258 Q559 1220 534 1106 L500 942 L677 942 L657 848 L480 848 L300 0 L187 0 Z " />
<glyph glyph-name="g" unicode="g" horiz-adv-x="1038" d="M974 942 L1087 942 L915 133 Q886 -16 867 -67 Q813 -215 703 -285 Q593 -355 415 -355 Q283 -355 202 -311 Q94 -253 94 -161 Q94 -157 95 -148 L219 -148 Q230 -261 421 -261 Q575 -261 661 -178 Q747 -95 787 92 L810 201 Q758 112 675.5 62 Q593 12 497 12 Q357 12 269 99 Q177 191 177 359 Q177 482 215.5 599.5 Q254 717 321 797 Q467 971 670 971 Q881 971 940 784 L974 942 Z M671 877 Q499 877 390 712 Q345 645 319 550 Q293 455 293 357 Q293 234 353 167 Q409 106 501 106 Q585 106 660 151.5 Q735 197 788 280 Q835 354 863 449.5 Q891 545 891 633 Q891 769 811 832 Q754 877 671 877 Z " />
<glyph glyph-name="h" unicode="h" horiz-adv-x="1019" d="M152 0 L442 1365 L555 1365 L433 794 Q567 971 760 971 Q895 971 965 896 Q1020 838 1020 745 Q1020 680 1002 593 L875 0 L763 0 L881 555 Q902 655 902 716 Q902 776 879 811 Q836 877 734 877 Q653 877 579 836 Q505 795 457 723 Q400 639 365 472 L265 0 L152 0 Z " />
<glyph glyph-name="i" unicode="i" horiz-adv-x="441" d="M400 1174 L440 1365 L553 1365 L512 1174 L400 1174 Z M150 0 L350 942 L463 942 L263 0 L150 0 Z " />
<glyph glyph-name="j" unicode="j" horiz-adv-x="467" d="M375 942 L488 942 L278 -44 Q244 -207 199 -266 Q132 -355 2 -355 Q-30 -355 -60 -347 L-39 -250 Q-15 -256 9 -256 Q80 -256 108.5 -218 Q137 -180 165 -48 L375 942 Z M424 1174 L465 1365 L578 1365 L537 1174 L424 1174 Z " />
<glyph glyph-name="k" unicode="k" horiz-adv-x="925" d="M617 584 L917 0 L789 0 L525 515 L345 381 L265 0 L152 0 L442 1365 L555 1365 L375 519 L939 942 L1095 942 L617 584 Z " />
<glyph glyph-name="l" unicode="l" horiz-adv-x="417" d="M152 0 L442 1365 L555 1365 L265 0 L152 0 Z " />
<glyph glyph-name="m" unicode="m" horiz-adv-x="1494" d="M150 0 L350 942 L457 942 L423 783 Q462 841 495 874 Q594 971 726 971 Q923 971 955 773 Q1089 971 1274 971 Q1398 971 1464 896 Q1514 839 1514 750 Q1514 685 1495 593 L1368 0 L1256 0 L1374 555 Q1397 663 1397 723 Q1397 777 1378 811 Q1360 841 1324.5 859 Q1289 877 1248 877 Q1176 877 1111 836 Q1046 795 1002 723 Q951 639 916 472 L815 0 L703 0 L821 555 Q844 664 844 722 Q844 777 824 811 Q807 841 771.5 859 Q736 877 695 877 Q623 877 558 836 Q493 795 449 723 Q398 639 363 472 L262 0 L150 0 Z " />
<glyph glyph-name="n" unicode="n" horiz-adv-x="1019" d="M152 0 L352 942 L459 942 L425 783 Q564 971 761 971 Q895 971 965 896 Q1020 837 1020 745 Q1020 680 1002 593 L875 0 L763 0 L881 555 Q902 654 902 716 Q902 776 879 811 Q837 877 734 877 Q653 877 579 836 Q505 795 457 723 Q401 639 365 472 L265 0 L152 0 Z " />
<glyph glyph-name="o" unicode="o" horiz-adv-x="984" d="M686 971 Q851 971 943 869 Q1027 775 1027 612 Q1027 495 989.5 378.5 Q952 262 885 172 Q734 -29 498 -29 Q338 -29 248 64 Q157 159 157 327 Q157 444 193 559 Q229 674 293 762 Q446 971 686 971 Z M679 877 Q588 877 508 827 Q428 777 370 686 Q271 529 271 329 Q271 183 356 114 Q416 65 506 65 Q691 65 809 247 Q857 321 885 418.5 Q913 516 913 609 Q913 752 831 824 Q770 877 679 877 Z " />
<glyph glyph-name="p" unicode="p" horiz-adv-x="1039" d="M75 -355 L351 942 L455 942 L420 776 Q475 870 564 920.5 Q653 971 763 971 Q914 971 999 877 Q1086 781 1086 624 Q1086 499 1046.5 373.5 Q1007 248 939 161 Q793 -29 575 -29 Q467 -29 393 20 Q319 69 296 156 L188 -355 L75 -355 Z M747 877 Q659 877 580.5 829 Q502 781 447 694 Q399 619 371 519.5 Q343 420 343 324 Q343 183 425 115 Q485 65 573 65 Q757 65 874 255 Q971 414 971 610 Q971 750 898 821 Q840 877 747 877 Z " />
<glyph glyph-name="q" unicode="q" horiz-adv-x="1041" d="M703 -355 L812 156 Q757 69 669 20 Q581 -29 480 -29 Q337 -29 251 58 Q161 150 161 313 Q161 440 201.5 567.5 Q242 695 311 783 Q457 971 671 971 Q782 971 853.5 919.5 Q925 868 943 776 L979 942 L1091 942 L816 -355 L703 -355 Z M670 877 Q495 877 380 694 Q277 531 277 322 Q277 194 342 126 Q401 65 497 65 Q674 65 789 241 Q837 316 865.5 417 Q894 518 894 616 Q894 759 814 827 Q756 877 670 877 Z " />
<glyph glyph-name="r" unicode="r" horiz-adv-x="588" d="M152 0 L352 942 L465 942 L422 738 Q490 860 577 915.5 Q664 971 787 971 Q791 971 801 971 L777 853 Q762 853 754 853 Q610 853 501 744 Q444 687 411 610 Q378 533 347 386 L265 0 L152 0 Z " />
<glyph glyph-name="s" unicode="s" horiz-adv-x="856" d="M129 265 L247 265 Q246 247 246 234 Q246 155 303.5 110 Q361 65 461 65 Q566 65 632 116 Q704 171 704 257 Q704 312 675.5 345 Q647 378 576 406 L432 464 Q330 505 282.5 562 Q235 619 235 702 Q235 832 339 906 Q429 971 568 971 Q733 971 823 889 Q881 836 881 748 Q881 736 879 713 L761 713 Q761 724 761 737 Q761 803 710 841 Q659 879 570 879 Q485 879 425 842 Q350 795 350 703 Q350 608 460 566 L630 501 Q819 429 819 263 Q819 141 734 61 Q637 -29 457 -29 Q315 -29 226 30 Q179 60 152.5 110.5 Q126 161 126 218 Q126 235 129 265 Z " />
<glyph glyph-name="t" unicode="t" horiz-adv-x="536" d="M201 848 L221 942 L374 942 L412 1119 L530 1242 L550 1242 L486 942 L668 942 L648 848 L466 848 L338 244 Q322 169 322 142 Q322 70 407 70 Q442 70 486 87 L466 -8 Q416 -25 378 -25 Q301 -25 254.5 17 Q208 59 208 128 Q208 162 228 255 L354 848 L201 848 Z " />
<glyph glyph-name="u" unicode="u" horiz-adv-x="1019" d="M1068 942 L867 0 L761 0 L795 159 Q723 59 645 15 Q567 -29 462 -29 Q328 -29 258 48 Q201 110 201 211 Q201 268 218 349 L344 942 L457 942 L339 387 Q317 285 317 223 Q317 165 342 129 Q386 65 487 65 Q569 65 642 106 Q715 147 763 219 Q819 303 855 470 L955 942 L1068 942 Z " />
<glyph glyph-name="v" unicode="v" horiz-adv-x="839" d="M364 0 L228 942 L352 942 L460 151 L889 942 L1012 942 L491 0 L364 0 Z " />
<glyph glyph-name="w" unicode="w" horiz-adv-x="1323" d="M325 0 L241 942 L369 942 L426 160 L799 942 L929 942 L972 162 L1360 942 L1482 942 L999 0 L872 0 L826 770 L455 0 L325 0 Z " />
<glyph glyph-name="x" unicode="x" horiz-adv-x="847" d="M14 0 L456 495 L240 942 L381 942 L543 592 L861 942 L999 942 L596 503 L834 0 L693 0 L508 404 L153 0 L14 0 Z " />
<glyph glyph-name="y" unicode="y" horiz-adv-x="820" d="M29 -340 L49 -244 Q59 -246 64 -248 Q96 -257 123 -257 Q178 -257 215 -227.5 Q252 -198 296 -119 L366 7 L214 942 L339 942 L455 160 L883 942 L1007 942 L394 -145 Q331 -256 282 -298 Q215 -355 115 -355 Q71 -355 29 -340 Z " />
<glyph glyph-name="z" unicode="z" horiz-adv-x="784" d="M956 942 L939 862 L199 94 L798 94 L778 0 L38 0 L58 92 L789 848 L259 848 L279 942 L956 942 Z " />
<glyph glyph-name="braceleft" unicode="&#x7b;" horiz-adv-x="617" d="M776 1365 L756 1271 L735 1271 Q659 1271 617 1228.5 Q575 1186 554 1089 L477 727 Q457 634 422 585 Q387 536 316 503 Q357 479 374.5 448.5 Q392 418 392 369 Q392 327 381 274 L301 -99 Q292 -143 292 -180 Q292 -222 321 -241.5 Q350 -261 413 -261 L430 -261 L410 -355 L381 -355 Q187 -355 187 -201 Q187 -155 201 -87 L278 274 Q288 321 288 352 Q288 437 201 464 L219 548 Q287 567 322.5 608.5 Q358 650 375 732 L453 1096 Q483 1237 553 1301 Q623 1365 748 1365 L776 1365 Z " />
<glyph glyph-name="bar" unicode="&#x7c;" horiz-adv-x="1295" d="M877 1365 L998 1365 L635 -341 L514 -341 L877 1365 Z " />
<glyph glyph-name="braceright" unicode="&#x7d;" horiz-adv-x="531" d="M-54 -355 L-34 -261 L-16 -261 Q64 -261 104.5 -224.5 Q145 -188 164 -99 L243 274 Q263 368 299.5 419 Q336 470 405 503 Q361 528 345 555.5 Q329 583 329 632 Q329 676 340 727 L417 1089 Q428 1143 428 1176 Q428 1271 313 1271 L292 1271 L312 1365 L340 1365 Q534 1365 534 1202 Q534 1159 521 1096 L443 732 Q434 688 434 655 Q434 574 522 548 L504 464 Q434 445 399 403 Q364 361 346 274 L269 -87 Q239 -230 174 -291 Q106 -355 -25 -355 L-54 -355 Z " />
<glyph glyph-name="asciitilde" unicode="&#x7e;" horiz-adv-x="1482" d="M577 1203 L519 1256 Q602 1370 676.5 1421 Q751 1472 833 1472 Q914 1472 1054 1390 Q1133 1344 1168.5 1330 Q1204 1316 1242 1316 Q1300 1316 1353.5 1353 Q1407 1390 1475 1477 L1533 1424 Q1475 1343 1425 1297 Q1325 1206 1217 1206 Q1174 1206 1129 1223.5 Q1084 1241 994 1293 Q921 1335 884 1349 Q847 1363 807 1363 Q750 1363 697.5 1327 Q645 1291 577 1203 Z " />
<glyph glyph-name="Adieresis" unicode="&#xc4;" horiz-adv-x="1099" d="M776 1365 L909 1365 L1073 0 L944 0 L900 430 L389 430 L159 0 L27 0 L776 1365 Z M445 535 L889 535 L816 1230 L445 535 Z M956 1488 L997 1679 L1115 1679 L1075 1488 L956 1488 Z M638 1488 L679 1679 L797 1679 L757 1488 L638 1488 Z " />
<glyph glyph-name="Aring" unicode="&#xc5;" horiz-adv-x="1099" d="M776 1365 L909 1365 L1073 0 L944 0 L900 430 L389 430 L159 0 L27 0 L776 1365 Z M445 535 L889 535 L816 1230 L445 535 Z M873 1727 Q828 1727 797 1695 Q766 1663 766 1617 Q766 1573 797 1541 Q828 1509 871 1509 Q915 1509 945.5 1540.5 Q976 1572 976 1618 Q976 1663 945.5 1695 Q915 1727 873 1727 Z M873 1803 Q949 1803 1003.5 1748.5 Q1058 1694 1058 1618 Q1058 1541 1003 1487.5 Q948 1434 870 1434 Q793 1434 738 1488 Q683 1542 683 1617 Q683 1695 738 1749 Q793 1803 873 1803 Z " />
<glyph glyph-name="Ccedilla" unicode="&#xc7;" horiz-adv-x="1229" d="M654 -32 L605 -108 Q628 -100 653 -100 Q711 -100 747 -133 Q783 -166 783 -220 Q783 -293 728.5 -341.5 Q674 -390 592 -390 Q528 -390 487.5 -363.5 Q447 -337 447 -295 Q447 -292 447 -286 L540 -286 Q541 -327 592 -327 Q630 -327 657 -296.5 Q684 -266 684 -222 Q684 -163 625 -163 Q585 -163 563 -194 L474 -194 L578 -24 Q479 -4 408 51 Q324 116 277 228 Q230 340 230 476 Q230 675 309 885 Q403 1135 584 1275 Q742 1397 935 1397 Q1128 1397 1236 1281 Q1333 1178 1333 1013 Q1333 1007 1333 997 L1208 997 Q1204 1102 1164 1169 Q1093 1290 928 1290 Q680 1290 505 1004 Q436 892 396.5 746.5 Q357 601 357 459 Q357 367 384.5 286 Q412 205 459 157 Q542 73 673 73 Q840 73 974 218 Q1060 311 1107 451 L1231 451 Q1184 286 1090 173 Q920 -33 674 -33 Q664 -33 654 -32 Z " />
<glyph glyph-name="Eacute" unicode="&#xc9;" horiz-adv-x="1084" d="M192 0 L482 1365 L1269 1365 L1247 1259 L582 1259 L476 760 L1098 760 L1075 654 L453 654 L337 106 L1009 106 L986 0 L192 0 Z M1177 1737 L920 1479 L815 1479 L1050 1737 L1177 1737 Z " />
<glyph glyph-name="Ntilde" unicode="&#xd1;" horiz-adv-x="1293" d="M192 0 L482 1365 L614 1365 L1027 196 L1276 1365 L1392 1365 L1102 0 L970 0 L556 1163 L308 0 L192 0 Z M1285 1703 Q1249 1600 1207 1555 Q1165 1510 1103 1510 Q1066 1510 1039.5 1521.5 Q1013 1533 972 1566 Q920 1608 885 1608 Q822 1608 780 1509 L700 1509 Q729 1603 778.5 1653 Q828 1703 892 1703 Q949 1703 1011 1653 Q1069 1605 1098 1605 Q1160 1605 1203 1703 L1285 1703 Z " />
<glyph glyph-name="Odieresis" unicode="&#xd6;" horiz-adv-x="1311" d="M929 1396 Q1127 1396 1247 1260 Q1304 1196 1336.5 1096 Q1369 996 1369 886 Q1369 729 1323 570 Q1277 411 1196 286 Q1096 133 962 51 Q826 -33 670 -33 Q448 -33 330 131 Q231 267 231 466 Q231 677 308 884 Q399 1129 582 1272 Q741 1396 929 1396 Z M931 1290 Q787 1290 654 1182 Q506 1062 427 844 Q357 652 357 458 Q357 271 454 165 Q537 73 669 73 Q817 73 947 179 Q1102 305 1184 547 Q1243 722 1243 896 Q1243 1096 1142 1204 Q1061 1290 931 1290 Z M1085 1488 L1126 1679 L1244 1679 L1204 1488 L1085 1488 Z M767 1488 L808 1679 L926 1679 L886 1488 L767 1488 Z " />
<glyph glyph-name="Udieresis" unicode="&#xdc;" horiz-adv-x="1241" d="M461 1365 L584 1365 L410 551 Q381 412 381 343 Q381 234 435 168 Q512 73 675 73 Q877 73 970 222 Q998 267 1013.5 319.5 Q1029 372 1066 552 L1239 1365 L1361 1365 L1188 551 Q1150 346 1129 288 Q1069 117 952 41 Q840 -33 671 -33 Q463 -33 350 74 Q257 164 257 322 Q257 405 289 555 L461 1365 Z M1036 1488 L1077 1679 L1195 1679 L1155 1488 L1036 1488 Z M718 1488 L759 1679 L877 1679 L837 1488 L718 1488 Z " />
<glyph glyph-name="aacute" unicode="&#xe1;" horiz-adv-x="931" d="M916 88 L897 -1 Q865 -10 839 -10 Q783 -10 748 20.5 Q713 51 713 100 Q713 121 722 166 Q575 -29 378 -29 Q259 -29 188 41 Q125 104 125 210 Q125 421 372 508 Q446 534 531.5 544 Q617 554 804 559 L831 696 Q836 719 836 739 Q836 877 627 877 Q451 877 398 761 L284 761 Q294 819 352 876 Q450 971 636 971 Q787 971 867.5 912 Q948 853 948 742 Q948 709 938 660 L844 219 Q829 153 829 138 Q829 86 884 86 Q889 86 916 88 Z M786 477 Q571 468 460 443 Q357 419 298.5 359.5 Q240 300 240 220 Q240 148 282.5 106.5 Q325 65 398 65 Q466 65 537.5 105 Q609 145 667 216 Q703 260 734 319 Q765 378 774 420 L786 477 Z M967 1365 L731 1092 L628 1092 L849 1365 L967 1365 Z " />
<glyph glyph-name="agrave" unicode="&#xe0;" horiz-adv-x="931" d="M916 88 L897 -1 Q865 -10 839 -10 Q783 -10 748 20.5 Q713 51 713 100 Q713 121 722 166 Q575 -29 378 -29 Q259 -29 188 41 Q125 104 125 210 Q125 421 372 508 Q446 534 531.5 544 Q617 554 804 559 L831 696 Q836 719 836 739 Q836 877 627 877 Q451 877 398 761 L284 761 Q294 819 352 876 Q450 971 636 971 Q787 971 867.5 912 Q948 853 948 742 Q948 709 938 660 L844 219 Q829 153 829 138 Q829 86 884 86 Q889 86 916 88 Z M786 477 Q571 468 460 443 Q357 419 298.5 359.5 Q240 300 240 220 Q240 148 282.5 106.5 Q325 65 398 65 Q466 65 537.5 105 Q609 145 667 216 Q703 260 734 319 Q765 378 774 420 L786 477 Z M580 1365 L698 1365 L803 1092 L700 1092 L580 1365 Z " />
<glyph glyph-name="acircumflex" unicode="&#xe2;" horiz-adv-x="931" d="M916 88 L897 -1 Q865 -10 839 -10 Q783 -10 748 20.5 Q713 51 713 100 Q713 121 722 166 Q575 -29 378 -29 Q259 -29 188 41 Q125 104 125 210 Q125 421 372 508 Q446 534 531.5 544 Q617 554 804 559 L831 696 Q836 719 836 739 Q836 877 627 877 Q451 877 398 761 L284 761 Q294 819 352 876 Q450 971 636 971 Q787 971 867.5 912 Q948 853 948 742 Q948 709 938 660 L844 219 Q829 153 829 138 Q829 86 884 86 Q889 86 916 88 Z M786 477 Q571 468 460 443 Q357 419 298.5 359.5 Q240 300 240 220 Q240 148 282.5 106.5 Q325 65 398 65 Q466 65 537.5 105 Q609 145 667 216 Q703 260 734 319 Q765 378 774 420 L786 477 Z M910 1092 L807 1092 L726 1289 L558 1092 L454 1092 L685 1365 L794 1365 L910 1092 Z " />
<glyph glyph-name="adieresis" unicode="&#xe4;" horiz-adv-x="931" d="M916 88 L897 -1 Q865 -10 839 -10 Q783 -10 748 20.5 Q713 51 713 100 Q713 121 722 166 Q575 -29 378 -29 Q259 -29 188 41 Q125 104 125 210 Q125 421 372 508 Q446 534 531.5 544 Q617 554 804 559 L831 696 Q836 719 836 739 Q836 877 627 877 Q451 877 398 761 L284 761 Q294 819 352 876 Q450 971 636 971 Q787 971 867.5 912 Q948 853 948 742 Q948 709 938 660 L844 219 Q829 153 829 138 Q829 86 884 86 Q889 86 916 88 Z M786 477 Q571 468 460 443 Q357 419 298.5 359.5 Q240 300 240 220 Q240 148 282.5 106.5 Q325 65 398 65 Q466 65 537.5 105 Q609 145 667 216 Q703 260 734 319 Q765 378 774 420 L786 477 Z M785 1106 L825 1297 L940 1297 L899 1106 L785 1106 Z M490 1106 L531 1297 L645 1297 L605 1106 L490 1106 Z " />
<glyph glyph-name="atilde" unicode="&#xe3;" horiz-adv-x="931" d="M916 88 L897 -1 Q865 -10 839 -10 Q783 -10 748 20.5 Q713 51 713 100 Q713 121 722 166 Q575 -29 378 -29 Q259 -29 188 41 Q125 104 125 210 Q125 421 372 508 Q446 534 531.5 544 Q617 554 804 559 L831 696 Q836 719 836 739 Q836 877 627 877 Q451 877 398 761 L284 761 Q294 819 352 876 Q450 971 636 971 Q787 971 867.5 912 Q948 853 948 742 Q948 709 938 660 L844 219 Q829 153 829 138 Q829 86 884 86 Q889 86 916 88 Z M786 477 Q571 468 460 443 Q357 419 298.5 359.5 Q240 300 240 220 Q240 148 282.5 106.5 Q325 65 398 65 Q466 65 537.5 105 Q609 145 667 216 Q703 260 734 319 Q765 378 774 420 L786 477 Z M1004 1318 Q969 1207 928.5 1159.5 Q888 1112 829 1112 Q792 1112 767 1123.5 Q742 1135 702 1171 Q652 1216 619 1216 Q557 1216 517 1111 L440 1111 Q467 1210 515 1264 Q563 1318 625 1318 Q680 1318 739 1265 Q796 1214 824 1214 Q884 1214 925 1318 L1004 1318 Z " />
<glyph glyph-name="aring" unicode="&#xe5;" horiz-adv-x="931" d="M916 88 L897 -1 Q865 -10 839 -10 Q783 -10 748 20.5 Q713 51 713 100 Q713 121 722 166 Q575 -29 378 -29 Q259 -29 188 41 Q125 104 125 210 Q125 421 372 508 Q446 534 531.5 544 Q617 554 804 559 L831 696 Q836 719 836 739 Q836 877 627 877 Q451 877 398 761 L284 761 Q294 819 352 876 Q450 971 636 971 Q787 971 867.5 912 Q948 853 948 742 Q948 709 938 660 L844 219 Q829 153 829 138 Q829 86 884 86 Q889 86 916 88 Z M786 477 Q571 468 460 443 Q357 419 298.5 359.5 Q240 300 240 220 Q240 148 282.5 106.5 Q325 65 398 65 Q466 65 537.5 105 Q609 145 667 216 Q703 260 734 319 Q765 378 774 420 L786 477 Z M726 1358 Q682 1358 652 1326.5 Q622 1295 622 1249 Q622 1204 652 1172 Q682 1140 724 1140 Q766 1140 796 1171.5 Q826 1203 826 1248 Q826 1293 796.5 1325.5 Q767 1358 726 1358 Z M727 1434 Q802 1434 855.5 1379.5 Q909 1325 909 1249 Q909 1173 855 1119 Q801 1065 724 1065 Q647 1065 593 1119 Q539 1173 539 1249 Q539 1327 593.5 1380.5 Q648 1434 727 1434 Z " />
<glyph glyph-name="ccedilla" unicode="&#xe7;" horiz-adv-x="911" d="M504 -28 L457 -108 Q480 -100 503 -100 Q555 -100 586.5 -131 Q618 -162 618 -214 Q618 -288 564 -339 Q510 -390 431 -390 Q373 -390 336 -363.5 Q299 -337 299 -295 Q299 -290 299 -286 L385 -286 Q385 -327 442 -327 Q480 -327 505 -296 Q530 -265 530 -220 Q530 -163 476 -163 Q431 -163 408 -194 L326 -194 L427 -24 Q371 -15 331 3 Q246 42 205 123 Q159 213 159 325 Q159 441 195 557 Q231 673 294 762 Q443 971 679 971 Q817 971 897 898 Q944 854 963 805 Q982 756 982 679 L861 679 Q858 753 831 796 Q781 877 667 877 Q487 877 370 686 Q273 527 273 324 Q273 182 350 115 Q406 66 494 66 Q592 66 671 128.5 Q750 191 791 302 L911 302 Q868 159 755 66 Q646 -23 504 -28 Z " />
<glyph glyph-name="eacute" unicode="&#xe9;" horiz-adv-x="943" d="M963 445 L289 445 Q274 372 274 325 Q274 199 347 126 Q408 65 512 65 Q577 65 640.5 93 Q704 121 741 165 L866 165 Q810 76 711.5 23.5 Q613 -29 501 -29 Q339 -29 247 72 Q158 170 158 339 Q158 464 198 583.5 Q238 703 310 791 Q455 971 657 971 Q818 971 903 876 Q986 783 986 627 Q986 547 963 445 Z M861 535 Q871 597 871 633 Q871 742 814 811 Q759 879 666 879 Q546 879 452.5 789 Q359 699 308 535 L861 535 Z M967 1365 L731 1092 L628 1092 L849 1365 L967 1365 Z " />
<glyph glyph-name="egrave" unicode="&#xe8;" horiz-adv-x="943" d="M963 445 L289 445 Q274 372 274 325 Q274 199 347 126 Q408 65 512 65 Q577 65 640.5 93 Q704 121 741 165 L866 165 Q810 76 711.5 23.5 Q613 -29 501 -29 Q339 -29 247 72 Q158 170 158 339 Q158 464 198 583.5 Q238 703 310 791 Q455 971 657 971 Q818 971 903 876 Q986 783 986 627 Q986 547 963 445 Z M861 535 Q871 597 871 633 Q871 742 814 811 Q759 879 666 879 Q546 879 452.5 789 Q359 699 308 535 L861 535 Z M552 1365 L670 1365 L775 1092 L672 1092 L552 1365 Z " />
<glyph glyph-name="ecircumflex" unicode="&#xea;" horiz-adv-x="943" d="M963 445 L289 445 Q274 372 274 325 Q274 199 347 126 Q408 65 512 65 Q577 65 640.5 93 Q704 121 741 165 L866 165 Q810 76 711.5 23.5 Q613 -29 501 -29 Q339 -29 247 72 Q158 170 158 339 Q158 464 198 583.5 Q238 703 310 791 Q455 971 657 971 Q818 971 903 876 Q986 783 986 627 Q986 547 963 445 Z M861 535 Q871 597 871 633 Q871 742 814 811 Q759 879 666 879 Q546 879 452.5 789 Q359 699 308 535 L861 535 Z M923 1092 L820 1092 L739 1289 L571 1092 L467 1092 L698 1365 L807 1365 L923 1092 Z " />
<glyph glyph-name="edieresis" unicode="&#xeb;" horiz-adv-x="943" d="M963 445 L289 445 Q274 372 274 325 Q274 199 347 126 Q408 65 512 65 Q577 65 640.5 93 Q704 121 741 165 L866 165 Q810 76 711.5 23.5 Q613 -29 501 -29 Q339 -29 247 72 Q158 170 158 339 Q158 464 198 583.5 Q238 703 310 791 Q455 971 657 971 Q818 971 903 876 Q986 783 986 627 Q986 547 963 445 Z M861 535 Q871 597 871 633 Q871 742 814 811 Q759 879 666 879 Q546 879 452.5 789 Q359 699 308 535 L861 535 Z M798 1106 L838 1297 L953 1297 L912 1106 L798 1106 Z M503 1106 L544 1297 L658 1297 L618 1106 L503 1106 Z " />
<glyph glyph-name="iacute" unicode="&#xed;" horiz-adv-x="446" d="M150 0 L350 942 L463 942 L263 0 L150 0 Z M721 1365 L485 1092 L382 1092 L603 1365 L721 1365 Z " />
<glyph glyph-name="igrave" unicode="&#xec;" horiz-adv-x="446" d="M150 0 L350 942 L463 942 L263 0 L150 0 Z M283 1365 L401 1365 L506 1092 L403 1092 L283 1365 Z " />
<glyph glyph-name="icircumflex" unicode="&#xee;" horiz-adv-x="446" d="M150 0 L350 942 L463 942 L263 0 L150 0 Z M664 1092 L561 1092 L480 1289 L312 1092 L208 1092 L439 1365 L548 1365 L664 1092 Z " />
<glyph glyph-name="idieresis" unicode="&#xef;" horiz-adv-x="446" d="M150 0 L350 942 L463 942 L263 0 L150 0 Z M502 1106 L543 1297 L658 1297 L617 1106 L502 1106 Z M255 1106 L295 1297 L410 1297 L369 1106 L255 1106 Z " />
<glyph glyph-name="ntilde" unicode="&#xf1;" horiz-adv-x="1019" d="M152 0 L352 942 L459 942 L425 783 Q564 971 761 971 Q895 971 965 896 Q1020 837 1020 745 Q1020 680 1002 593 L875 0 L763 0 L881 555 Q902 654 902 716 Q902 776 879 811 Q837 877 734 877 Q653 877 579 836 Q505 795 457 723 Q401 639 365 472 L265 0 L152 0 Z M1050 1318 Q1015 1207 974.5 1159.5 Q934 1112 875 1112 Q838 1112 813 1123.5 Q788 1135 748 1171 Q698 1216 665 1216 Q603 1216 563 1111 L486 1111 Q513 1210 561 1264 Q609 1318 671 1318 Q726 1318 785 1265 Q842 1214 870 1214 Q930 1214 971 1318 L1050 1318 Z " />
<glyph glyph-name="oacute" unicode="&#xf3;" horiz-adv-x="984" d="M686 971 Q851 971 943 869 Q1027 775 1027 612 Q1027 495 989.5 378.5 Q952 262 885 172 Q734 -29 498 -29 Q338 -29 248 64 Q157 159 157 327 Q157 444 193 559 Q229 674 293 762 Q446 971 686 971 Z M679 877 Q588 877 508 827 Q428 777 370 686 Q271 529 271 329 Q271 183 356 114 Q416 65 506 65 Q691 65 809 247 Q857 321 885 418.5 Q913 516 913 609 Q913 752 831 824 Q770 877 679 877 Z M1023 1365 L787 1092 L684 1092 L905 1365 L1023 1365 Z " />
<glyph glyph-name="ograve" unicode="&#xf2;" horiz-adv-x="984" d="M686 971 Q851 971 943 869 Q1027 775 1027 612 Q1027 495 989.5 378.5 Q952 262 885 172 Q734 -29 498 -29 Q338 -29 248 64 Q157 159 157 327 Q157 444 193 559 Q229 674 293 762 Q446 971 686 971 Z M679 877 Q588 877 508 827 Q428 777 370 686 Q271 529 271 329 Q271 183 356 114 Q416 65 506 65 Q691 65 809 247 Q857 321 885 418.5 Q913 516 913 609 Q913 752 831 824 Q770 877 679 877 Z M604 1365 L722 1365 L827 1092 L724 1092 L604 1365 Z " />
<glyph glyph-name="ocircumflex" unicode="&#xf4;" horiz-adv-x="984" d="M686 971 Q851 971 943 869 Q1027 775 1027 612 Q1027 495 989.5 378.5 Q952 262 885 172 Q734 -29 498 -29 Q338 -29 248 64 Q157 159 157 327 Q157 444 193 559 Q229 674 293 762 Q446 971 686 971 Z M679 877 Q588 877 508 827 Q428 777 370 686 Q271 529 271 329 Q271 183 356 114 Q416 65 506 65 Q691 65 809 247 Q857 321 885 418.5 Q913 516 913 609 Q913 752 831 824 Q770 877 679 877 Z M965 1092 L862 1092 L781 1289 L613 1092 L509 1092 L740 1365 L849 1365 L965 1092 Z " />
<glyph glyph-name="odieresis" unicode="&#xf6;" horiz-adv-x="984" d="M686 971 Q851 971 943 869 Q1027 775 1027 612 Q1027 495 989.5 378.5 Q952 262 885 172 Q734 -29 498 -29 Q338 -29 248 64 Q157 159 157 327 Q157 444 193 559 Q229 674 293 762 Q446 971 686 971 Z M679 877 Q588 877 508 827 Q428 777 370 686 Q271 529 271 329 Q271 183 356 114 Q416 65 506 65 Q691 65 809 247 Q857 321 885 418.5 Q913 516 913 609 Q913 752 831 824 Q770 877 679 877 Z M811 1106 L852 1297 L967 1297 L926 1106 L811 1106 Z M517 1106 L557 1297 L672 1297 L632 1106 L517 1106 Z " />
<glyph glyph-name="otilde" unicode="&#xf5;" horiz-adv-x="984" d="M686 971 Q851 971 943 869 Q1027 775 1027 612 Q1027 495 989.5 378.5 Q952 262 885 172 Q734 -29 498 -29 Q338 -29 248 64 Q157 159 157 327 Q157 444 193 559 Q229 674 293 762 Q446 971 686 971 Z M679 877 Q588 877 508 827 Q428 777 370 686 Q271 529 271 329 Q271 183 356 114 Q416 65 506 65 Q691 65 809 247 Q857 321 885 418.5 Q913 516 913 609 Q913 752 831 824 Q770 877 679 877 Z M1040 1318 Q1005 1207 964.5 1159.5 Q924 1112 865 1112 Q828 1112 803 1123.5 Q778 1135 738 1171 Q688 1216 655 1216 Q593 1216 553 1111 L476 1111 Q503 1210 551 1264 Q599 1318 661 1318 Q716 1318 775 1265 Q832 1214 860 1214 Q920 1214 961 1318 L1040 1318 Z " />
<glyph glyph-name="uacute" unicode="&#xfa;" horiz-adv-x="1019" d="M1068 942 L867 0 L761 0 L795 159 Q723 59 645 15 Q567 -29 462 -29 Q328 -29 258 48 Q201 110 201 211 Q201 268 218 349 L344 942 L457 942 L339 387 Q317 285 317 223 Q317 165 342 129 Q386 65 487 65 Q569 65 642 106 Q715 147 763 219 Q819 303 855 470 L955 942 L1068 942 Z M1010 1365 L774 1092 L671 1092 L892 1365 L1010 1365 Z " />
<glyph glyph-name="ugrave" unicode="&#xf9;" horiz-adv-x="1019" d="M1068 942 L867 0 L761 0 L795 159 Q723 59 645 15 Q567 -29 462 -29 Q328 -29 258 48 Q201 110 201 211 Q201 268 218 349 L344 942 L457 942 L339 387 Q317 285 317 223 Q317 165 342 129 Q386 65 487 65 Q569 65 642 106 Q715 147 763 219 Q819 303 855 470 L955 942 L1068 942 Z M595 1365 L713 1365 L818 1092 L715 1092 L595 1365 Z " />
<glyph glyph-name="ucircumflex" unicode="&#xfb;" horiz-adv-x="1019" d="M1068 942 L867 0 L761 0 L795 159 Q723 59 645 15 Q567 -29 462 -29 Q328 -29 258 48 Q201 110 201 211 Q201 268 218 349 L344 942 L457 942 L339 387 Q317 285 317 223 Q317 165 342 129 Q386 65 487 65 Q569 65 642 106 Q715 147 763 219 Q819 303 855 470 L955 942 L1068 942 Z M969 1092 L866 1092 L785 1289 L617 1092 L513 1092 L744 1365 L853 1365 L969 1092 Z " />
<glyph glyph-name="udieresis" unicode="&#xfc;" horiz-adv-x="1019" d="M1068 942 L867 0 L761 0 L795 159 Q723 59 645 15 Q567 -29 462 -29 Q328 -29 258 48 Q201 110 201 211 Q201 268 218 349 L344 942 L457 942 L339 387 Q317 285 317 223 Q317 165 342 129 Q386 65 487 65 Q569 65 642 106 Q715 147 763 219 Q819 303 855 470 L955 942 L1068 942 Z M831 1106 L872 1297 L986 1297 L946 1106 L831 1106 Z M537 1106 L577 1297 L692 1297 L651 1106 L537 1106 Z " />
<glyph glyph-name="dagger" unicode="&#x2020;" horiz-adv-x="1032" d="M1088 943 L1066 841 L743 841 L489 -355 L386 -355 L640 841 L322 841 L344 943 L662 943 L752 1365 L854 1365 L765 943 L1088 943 Z " />
<glyph glyph-name="degree" unicode="&#xb0;" horiz-adv-x="948" d="M668 1365 Q742 1365 805.5 1330 Q869 1295 908 1234 Q950 1168 950 1091 Q950 977 868 896 Q785 815 668 815 Q550 815 468 896 Q386 977 386 1093 Q386 1206 468 1285 Q553 1365 668 1365 Z M668 1286 Q587 1286 530 1228 Q473 1171 473 1093 Q473 1026 510 975 Q569 894 668 894 Q749 894 806 952 Q863 1009 863 1090 Q863 1154 826 1205 Q768 1286 668 1286 Z " />
<glyph glyph-name="cent" unicode="&#xa2;" horiz-adv-x="913" d="M476 190 Q423 199 386 218 Q309 258 273 338 Q232 429 232 540 Q232 677 277 808 Q322 939 402 1034 Q514 1167 687 1183 L717 1324 L817 1324 L786 1180 Q899 1161 960 1086.5 Q1021 1012 1021 893 L900 893 Q894 1050 765 1084 L596 287 Q673 305 734.5 366 Q796 427 830 517 L950 517 Q910 382 806.5 291.5 Q703 201 575 188 L544 41 L444 41 L476 190 Z M496 284 L667 1087 Q566 1069 493 983 Q424 902 385 783.5 Q346 665 346 537 Q346 430 385 364 Q424 298 496 284 Z " />
<glyph glyph-name="sterling" unicode="&#xa3;" horiz-adv-x="951" d="M845 655 L824 555 L553 555 Q531 330 309 142 Q393 194 450 194 Q483 194 506.5 181.5 Q530 169 583 124 Q630 84 674 84 Q769 84 813 235 L920 235 Q886 106 819 38.5 Q752 -29 658 -29 Q614 -29 584.5 -17 Q555 -5 506 32 Q442 80 391 80 Q345 80 297 60 Q249 40 163 -14 L127 63 Q264 166 342.5 294.5 Q421 423 426 555 L246 555 L267 655 L415 655 Q407 686 372 792 Q340 890 340 986 Q340 1167 453 1280 Q565 1392 750 1392 Q904 1392 995 1315.5 Q1086 1239 1086 1110 Q1086 1071 1075 1013 L958 1013 Q967 1060 967 1092 Q967 1295 746 1295 Q588 1295 511 1177 Q465 1106 465 995 Q465 928 502 816 Q542 694 549 655 L845 655 Z " />
<glyph glyph-name="section" unicode="&#xa7;" horiz-adv-x="1023" d="M1035 1079 L928 1079 Q934 1113 934 1145 Q934 1297 760 1297 Q693 1297 646 1268 Q565 1216 565 1109 Q565 1049 595.5 997 Q626 945 696 886 L858 750 Q998 633 998 502 Q998 396 931 299.5 Q864 203 746 139 Q805 50 805 -41 Q805 -176 732 -262 Q641 -369 480 -369 Q355 -369 279 -308 Q187 -235 187 -108 Q187 -76 197 -29 L306 -29 Q300 -63 300 -92 Q300 -175 347.5 -221.5 Q395 -268 480 -268 Q572 -268 631.5 -212 Q691 -156 691 -69 Q691 50 577 145 L400 293 Q249 420 249 580 Q249 706 334 796 Q378 841 499 916 Q453 1006 453 1103 Q453 1244 547 1324 Q632 1396 768 1396 Q895 1396 971 1329 Q1046 1262 1046 1151 Q1046 1116 1035 1079 Z M547 856 Q362 767 362 601 Q362 493 478 393 L643 250 Q662 233 694 199 Q759 227 806 277 Q884 360 884 464 Q884 563 762 668 L606 801 Q560 841 547 856 Z " />
<glyph glyph-name="bullet" unicode="&#x2022;" horiz-adv-x="1205" d="M763 982 Q877 982 959 898 Q1041 814 1041 697 Q1041 577 958 493 Q876 410 760 410 Q686 410 622 446 Q558 482 520 546 Q478 615 478 695 Q478 817 561 899 Q645 982 763 982 Z " />
<glyph glyph-name="paragraph" unicode="&#xb6;" horiz-adv-x="1121" d="M419 -206 L598 640 Q467 642 394.5 717 Q322 792 322 925 Q322 1034 361.5 1128.5 Q401 1223 470 1277 Q581 1365 787 1365 L1226 1365 L1207 1275 L1093 1275 L778 -206 L678 -206 L993 1275 L833 1275 L518 -206 L419 -206 Z " />
<glyph glyph-name="germandbls" unicode="&#xdf;" horiz-adv-x="979" d="M295 0 L182 0 L362 848 L225 848 L245 942 L382 942 Q411 1098 436.5 1166.5 Q462 1235 508 1285 Q611 1396 771 1396 Q913 1396 996 1315 Q1062 1251 1062 1158 Q1062 1089 1028 1030.5 Q994 972 899 877 Q821 798 821 736 Q821 675 883 590 Q937 516 959 460 Q981 404 981 342 Q981 186 864 81 Q752 -20 568 -20 Q485 -20 417 0 L439 101 Q498 74 569 74 Q709 74 796 169 Q866 244 866 346 Q866 395 849 435.5 Q832 476 780 552 Q705 661 705 728 Q705 778 731.5 823.5 Q758 869 829 944 Q945 1065 945 1156 Q945 1225 898 1263.5 Q851 1302 767 1302 Q637 1302 572 1198 Q549 1161 536 1116.5 Q523 1072 495 944 L295 0 Z " />
<glyph glyph-name="registered" unicode="&#xae;" horiz-adv-x="1475" d="M524 266 L702 1102 L983 1102 Q1094 1102 1151.5 1056 Q1209 1010 1209 921 Q1209 835 1163 770.5 Q1117 706 1031 669 Q1107 644 1107 549 Q1107 512 1097 445 Q1083 353 1083 323 Q1083 295 1098 266 L990 266 Q980 292 980 311 Q980 354 993 423 Q1003 479 1003 525 Q1003 581 960 605 Q917 629 819 629 L697 629 L620 266 L524 266 Z M715 711 L875 711 Q991 711 1043 754 Q1110 810 1110 903 Q1110 1017 963 1017 L780 1017 L715 711 Z M875 1313 Q637 1313 473 1132 Q397 1049 353 935 Q305 812 305 680 Q305 477 414 309 Q495 183 618 115 Q733 52 864 52 Q1101 52 1265 240 Q1426 424 1426 680 Q1426 885 1320 1051 Q1247 1167 1138 1235 Q1012 1313 875 1313 Z M876 1397 Q1084 1397 1256 1253 Q1417 1120 1480 910 Q1514 796 1514 678 Q1514 390 1328 181 Q1138 -33 864 -33 Q654 -33 487 100 Q322 232 254 446 Q217 562 217 680 Q217 887 318 1064 Q411 1230 571 1319 Q712 1397 876 1397 Z " />
<glyph glyph-name="copyright" unicode="&#xa9;" horiz-adv-x="1475" d="M1051 550 L1148 550 Q1113 442 1046 367 Q934 243 778 243 Q659 243 589 320 Q514 404 514 543 Q514 650 551 760 Q588 870 650 951 Q782 1121 967 1121 Q1083 1121 1150 1049 Q1208 986 1208 894 Q1208 885 1206 864 L1110 864 Q1100 1036 947 1036 Q802 1036 700 871 Q613 730 613 552 Q613 436 673 376 Q721 328 798 328 Q882 328 949.5 387.5 Q1017 447 1051 550 Z M875 1313 Q637 1313 473 1133 Q397 1049 353 935 Q305 812 305 681 Q305 477 414 309 Q495 183 618 115 Q733 52 864 52 Q1101 52 1265 240 Q1426 424 1426 681 Q1426 886 1320 1052 Q1247 1167 1138 1235 Q1012 1313 875 1313 Z M876 1397 Q1084 1397 1256 1253 Q1417 1120 1480 910 Q1514 796 1514 678 Q1514 390 1328 181 Q1138 -33 864 -33 Q654 -33 487 100 Q322 232 254 446 Q217 562 217 680 Q217 887 318 1064 Q411 1230 571 1319 Q712 1397 876 1397 Z " />
<glyph glyph-name="trademark" unicode="&#x2122;" horiz-adv-x="1566" d="M463 546 L369 546 L526 1282 L291 1282 L309 1365 L872 1365 L854 1282 L620 1282 L463 546 Z M786 546 L961 1365 L1081 1365 L1168 686 L1539 1365 L1660 1365 L1486 546 L1396 546 L1535 1201 L1179 546 L1098 546 L1015 1198 L877 546 L786 546 Z " />
<glyph glyph-name="acute" unicode="&#xb4;" horiz-adv-x="1247" d="M1153 1365 L917 1092 L814 1092 L1035 1365 L1153 1365 Z " />
<glyph glyph-name="dieresis" unicode="&#xa8;" horiz-adv-x="1209" d="M930 1106 L970 1297 L1085 1297 L1044 1106 L930 1106 Z M635 1106 L676 1297 L790 1297 L750 1106 L635 1106 Z " />
<glyph glyph-name="notequal" unicode="&#x2260;" horiz-adv-x="1065" d="M415 279 L335 332 L469 501 L195 501 L217 606 L552 606 L685 774 L253 774 L275 879 L768 879 L943 1100 L1022 1048 L889 879 L1163 879 L1140 774 L806 774 L673 606 L1105 606 L1082 501 L590 501 L415 279 Z " />
<glyph glyph-name="AE" unicode="&#xc6;" horiz-adv-x="1521" d="M1445 106 L1423 0 L711 0 L802 430 L397 430 L123 0 L-10 0 L874 1365 L1706 1365 L1684 1259 L1101 1259 L995 760 L1534 760 L1512 654 L972 654 L856 106 L1445 106 Z M824 535 L978 1259 L923 1259 L463 535 L824 535 Z " />
<glyph glyph-name="Oslash" unicode="&#xd8;" horiz-adv-x="1371" d="M374 153 Q291 284 291 473 Q291 648 346.5 823 Q402 998 498 1125 Q598 1257 728 1329 Q852 1397 986 1397 Q1170 1397 1285 1284 L1375 1397 L1496 1397 L1345 1209 Q1429 1072 1429 883 Q1429 728 1383 569 Q1337 410 1256 286 Q1157 134 1022 51 Q885 -33 731 -33 Q551 -33 436 76 L348 -33 L224 -33 L374 153 Z M456 256 L1211 1193 Q1128 1290 990 1290 Q846 1290 714 1182 Q566 1061 487 844 Q417 652 417 462 Q417 350 456 256 Z M1263 1106 L510 169 Q594 74 729 74 Q875 74 1006 180 Q1162 305 1244 548 Q1303 724 1303 893 Q1303 1005 1263 1106 Z " />
<glyph glyph-name="infinity" unicode="&#x221e;" horiz-adv-x="1389" d="M837 634 Q782 556 739 509 Q632 392 486 392 Q356 392 274 478.5 Q192 565 192 703 Q192 829 269 911 Q354 1002 487 1002 Q587 1002 667.5 945.5 Q748 889 834 760 Q886 837 930 884 Q1040 1001 1184 1001 Q1326 1001 1409 901 Q1478 817 1478 694 Q1478 561 1396 478 Q1312 393 1183 393 Q1083 393 1003 449 Q923 505 837 634 Z M886 697 Q962 578 1028 528 Q1094 478 1176 478 Q1266 478 1323.5 539.5 Q1381 601 1381 696 Q1381 779 1339 834 Q1278 916 1174 916 Q1093 916 1030 868 Q967 820 886 697 Z M785 696 Q708 817 641.5 867 Q575 917 492 917 Q403 917 345.5 855.5 Q288 794 288 698 Q288 611 332 555 Q393 477 496 477 Q577 477 639.5 524 Q702 571 785 696 Z " />
<glyph glyph-name="plusminus" unicode="&#xb1;" horiz-adv-x="1065" d="M260 803 L648 803 L724 1165 L837 1165 L760 803 L1148 803 L1125 698 L738 698 L661 337 L548 337 L625 698 L238 698 L260 803 Z M141 245 L1029 245 L1006 140 L119 140 L141 245 Z " />
<glyph glyph-name="lessequal" unicode="&#x2264;" horiz-adv-x="1065" d="M1229 1190 L1204 1074 L385 769 L1075 464 L1050 348 L241 716 L263 823 L1229 1190 Z M1037 288 L1014 181 L127 181 L150 288 L1037 288 Z " />
<glyph glyph-name="greaterequal" unicode="&#x2265;" horiz-adv-x="1065" d="M341 1190 L1151 823 L1128 716 L162 348 L187 464 L1006 769 L317 1074 L341 1190 Z M150 288 L1037 288 L1014 181 L127 181 L150 288 Z " />
<glyph glyph-name="yen" unicode="&#xa5;" horiz-adv-x="1003" d="M540 0 L422 0 L486 304 L216 304 L238 408 L508 408 L538 550 L268 550 L290 654 L558 654 L309 1365 L443 1365 L644 765 L1098 1365 L1232 1365 L682 654 L949 654 L926 550 L657 550 L627 408 L896 408 L874 304 L605 304 L540 0 Z " />
<glyph glyph-name="mu" unicode="&#xb5;" horiz-adv-x="1026" d="M272 41 L188 -355 L75 -355 L351 942 L463 942 L345 387 Q323 282 323 223 Q323 165 348 129 Q393 65 493 65 Q575 65 648.5 106 Q722 147 770 219 Q826 303 861 470 L962 942 L1074 942 L874 0 L767 0 L801 159 Q729 59 651.5 15 Q574 -29 468 -29 Q344 -29 272 41 Z " />
<glyph glyph-name="partialdiff" unicode="&#x2202;" horiz-adv-x="1003" d="M879 922 Q830 1045 789 1108 Q709 1232 579 1331 L639 1394 Q752 1337 846 1228 Q928 1134 975 1014 Q1048 828 1048 635 Q1048 364 904 172 Q754 -29 518 -29 Q358 -29 268 64 Q177 159 177 329 Q177 445 213 559 Q249 673 313 762 Q387 863 490 917 Q590 971 702 971 Q807 971 879 922 Z M699 877 Q608 877 528 827 Q448 777 390 686 Q291 529 291 329 Q291 183 376 114 Q436 65 526 65 Q711 65 829 247 Q877 321 905 418.5 Q933 516 933 609 Q933 752 851 824 Q790 877 699 877 Z " />
<glyph glyph-name="summation" unicode="&#x2211;" horiz-adv-x="1428" d="M1557 1536 L1461 1082 L1354 1082 L1418 1428 L523 1428 L852 554 L134 -406 L1047 -406 L1126 -59 L1237 -59 L1141 -512 L-17 -512 L9 -388 L716 554 L393 1416 L418 1536 L1557 1536 Z " />
<glyph glyph-name="product" unicode="&#x220f;" horiz-adv-x="1373" d="M379 1536 L1645 1536 L1621 1419 L1468 1419 L1083 -395 L1235 -395 L1210 -512 L769 -512 L794 -395 L956 -395 L1342 1419 L634 1419 L248 -395 L407 -395 L383 -512 L-56 -512 L-31 -395 L122 -395 L507 1419 L355 1419 L379 1536 Z " />
<glyph glyph-name="integral" unicode="&#x222b;" horiz-adv-x="1162" d="M195 -490 L246 -383 Q283 -404 327 -404 Q406 -404 440 -348 Q455 -325 462 -300 Q469 -275 493 -160 L775 1165 Q812 1352 835 1402 Q864 1465 921.5 1500.5 Q979 1536 1054 1536 Q1101 1536 1186 1513 L1135 1406 Q1095 1427 1053 1427 Q979 1427 944 1374 Q920 1339 893 1212 L600 -166 Q573 -309 561.5 -346 Q550 -383 520 -422 Q452 -512 314 -512 Q255 -512 195 -490 Z " />
<glyph glyph-name="ordfeminine" unicode="&#xaa;" horiz-adv-x="555" d="M667 623 L651 549 Q620 537 591 537 Q533 537 533 594 Q533 607 538 634 Q452 526 346 526 Q279 526 237 568.5 Q195 611 195 680 Q195 742 234.5 791 Q274 840 344 865 Q412 888 580 893 L589 935 Q593 953 593 971 Q593 1060 491 1060 Q366 1060 353 927 L270 927 Q281 1030 338 1083 Q395 1136 494 1136 Q582 1136 631 1093.5 Q680 1051 680 975 Q680 948 668 892 L623 682 Q614 638 614 628 Q614 614 628 614 Q638 614 667 623 Z M566 824 Q407 817 352 785 Q285 747 285 675 Q285 642 306.5 622 Q328 602 365 602 Q429 602 486 660 Q543 718 561 801 L566 824 Z " />
<glyph glyph-name="ordmasculine" unicode="&#xba;" horiz-adv-x="593" d="M521 1136 Q625 1136 680 1071 Q730 1013 730 913 Q730 765 651 650 Q566 526 421 526 Q323 526 268 585 Q215 643 215 752 Q215 900 291 1011 Q377 1136 521 1136 Z M516 1060 Q414 1060 355 957 Q304 868 304 745 Q304 677 337 639.5 Q370 602 430 602 Q527 602 586 703 Q641 796 641 914 Q641 983 608 1021.5 Q575 1060 516 1060 Z " />
<glyph glyph-name="Omega" unicode="&#x2126;" horiz-adv-x="1311" d="M126 0 L148 102 L439 102 Q248 282 248 595 Q248 949 444 1182 Q541 1299 679 1355 Q784 1397 898 1397 Q1058 1397 1178 1317 Q1375 1185 1375 880 Q1375 602 1221 372 Q1115 213 930 102 L1207 102 L1186 0 L754 0 L774 96 Q954 199 1054 322 Q1145 432 1196 577.5 Q1247 723 1247 868 Q1247 1039 1185 1146 Q1145 1214 1073 1254 Q995 1296 900 1296 Q773 1296 660 1225 Q527 1141 449 972 Q371 803 371 598 Q371 430 419.5 313 Q468 196 579 96 L558 0 L126 0 Z " />
<glyph glyph-name="ae" unicode="&#xe6;" horiz-adv-x="1524" d="M773 232 Q605 -29 363 -29 Q242 -29 172 41 Q109 105 109 208 Q109 407 353 487 Q427 512 511 521 Q595 530 781 535 L815 696 Q820 718 820 738 Q820 877 612 877 Q435 877 382 761 L268 761 Q278 819 336 876 Q434 971 620 971 Q746 971 825 928.5 Q904 886 925 806 Q1063 971 1251 971 Q1410 971 1494 877 Q1578 784 1578 627 Q1578 548 1555 445 L881 445 Q867 372 867 325 Q867 199 939 126 Q1001 65 1105 65 Q1169 65 1233 93 Q1297 121 1333 165 L1458 165 Q1402 76 1304 23.5 Q1206 -29 1094 -29 Q965 -29 882 38.5 Q799 106 773 232 Z M762 448 Q582 448 441 418 Q338 395 281.5 342.5 Q225 290 225 217 Q225 148 268 106.5 Q311 65 383 65 Q510 65 621 177 Q732 289 762 448 Z M1454 535 Q1463 596 1463 633 Q1463 743 1406 812 Q1351 880 1258 880 Q1138 880 1044.5 789.5 Q951 699 900 535 L1454 535 Z " />
<glyph glyph-name="oslash" unicode="&#xf8;" horiz-adv-x="1045" d="M259 94 Q193 192 193 333 Q193 445 229.5 559.5 Q266 674 329 761 Q403 862 506 917 Q607 971 721 971 Q847 971 934 909 L986 971 L1099 971 L997 847 Q1063 754 1063 607 Q1063 494 1025 377.5 Q987 261 921 173 Q770 -29 536 -29 Q412 -29 323 31 L274 -29 L157 -29 L259 94 Z M336 188 L865 825 Q805 876 714 876 Q625 876 544 826 Q463 776 406 685 Q360 613 333.5 518.5 Q307 424 307 335 Q307 258 336 188 Z M919 753 L392 114 Q453 66 543 66 Q727 66 845 248 Q893 321 921 418.5 Q949 516 949 607 Q949 685 919 753 Z " />
<glyph glyph-name="questiondown" unicode="&#xbf;" horiz-adv-x="928" d="M838 14 Q818 -133 746 -226 Q636 -369 440 -369 Q294 -369 198 -297 Q149 -261 121.5 -203.5 Q94 -146 94 -83 Q94 17 152.5 106 Q211 195 346 300 Q426 362 456 394.5 Q486 427 508 474 Q526 512 543 602 L656 602 Q644 488 598.5 417.5 Q553 347 414 231 Q304 139 260 71 Q216 3 216 -76 Q216 -162 276 -210 Q339 -262 440 -262 Q558 -262 636 -187 Q714 -112 727 14 L838 14 Z M560 737 L604 942 L743 942 L700 737 L560 737 Z " />
<glyph glyph-name="exclamdown" unicode="&#xa1;" horiz-adv-x="555" d="M140 -355 L232 79 L371 599 L438 599 L355 79 L262 -355 L140 -355 Z M547 942 L503 737 L364 737 L407 942 L547 942 Z " />
<glyph glyph-name="logicalnot" unicode="&#xac;" horiz-adv-x="1065" d="M858 0 L955 454 L185 454 L208 561 L1095 561 L976 0 L858 0 Z " />
<glyph glyph-name="radical" unicode="&#x221a;" horiz-adv-x="1365" d="M1726 1693 L1704 1595 L1296 1595 L468 0 L348 0 L291 625 L133 625 L154 723 L384 723 L432 147 L1231 1693 L1726 1693 Z " />
<glyph glyph-name="florin" unicode="&#x192;" horiz-adv-x="605" d="M303 848 L323 942 L470 942 L523 1092 Q559 1199 575.5 1235 Q592 1271 621 1305 Q696 1397 819 1397 Q866 1397 920 1376 L898 1273 Q861 1296 819 1296 Q735 1296 693 1229 Q672 1195 640 1106 L582 942 L737 942 L717 848 L549 848 L173 -218 L60 -218 L437 848 L303 848 Z " />
<glyph glyph-name="approxequal" unicode="&#x2248;" horiz-adv-x="1038" d="M250 712 L191 759 Q348 975 506 975 Q584 975 725 893 Q803 847 839.5 833 Q876 819 915 819 Q973 819 1026 854.5 Q1079 890 1146 974 L1205 927 Q1146 846 1095 800 Q998 710 892 710 Q847 710 802 727 Q757 744 668 796 Q595 837 556.5 851.5 Q518 866 478 866 Q373 866 250 712 Z M181 388 L122 435 Q278 651 437 651 Q516 651 656 570 Q734 524 770.5 510 Q807 496 846 496 Q904 496 956.5 530.5 Q1009 565 1077 650 L1136 603 Q981 386 823 386 Q778 386 732 403.5 Q686 421 599 472 Q525 514 487.5 528 Q450 542 409 542 Q353 542 301 507 Q249 472 181 388 Z " />
<glyph glyph-name="increment" unicode="&#x2206;" horiz-adv-x="1099" d="M27 0 L776 1365 L909 1365 L1073 0 L27 0 Z M816 1230 L214 105 L933 105 L816 1230 Z " />
<glyph glyph-name="guillemotleft" unicode="&#xab;" horiz-adv-x="766" d="M381 198 L213 449 L237 564 L512 813 L484 680 L296 506 L411 336 L381 198 Z M639 199 L471 447 L495 562 L769 812 L741 680 L553 505 L667 333 L639 199 Z " />
<glyph glyph-name="guillemotright" unicode="&#xbb;" horiz-adv-x="766" d="M599 813 L769 561 L745 447 L469 198 L497 330 L686 504 L570 675 L599 813 Z M343 811 L511 564 L487 449 L213 199 L241 330 L429 505 L315 678 L343 811 Z " />
<glyph glyph-name="ellipsis" unicode="&#x2026;" horiz-adv-x="1302" d="M359 205 L315 0 L176 0 L220 205 L359 205 Z M764 205 L721 0 L582 0 L625 205 L764 205 Z M1170 205 L1126 0 L987 0 L1031 205 L1170 205 Z " />
<glyph glyph-name="Agrave" unicode="&#xc0;" horiz-adv-x="1099" d="M776 1365 L909 1365 L1073 0 L944 0 L900 430 L389 430 L159 0 L27 0 L776 1365 Z M445 535 L889 535 L816 1230 L445 535 Z M669 1737 L795 1737 L921 1479 L816 1479 L669 1737 Z " />
<glyph glyph-name="Atilde" unicode="&#xc3;" horiz-adv-x="1099" d="M776 1365 L909 1365 L1073 0 L944 0 L900 430 L389 430 L159 0 L27 0 L776 1365 Z M445 535 L889 535 L816 1230 L445 535 Z M1181 1703 Q1145 1600 1103 1555 Q1061 1510 999 1510 Q962 1510 935.5 1521.5 Q909 1533 868 1566 Q816 1608 781 1608 Q718 1608 676 1509 L596 1509 Q625 1603 674.5 1653 Q724 1703 788 1703 Q845 1703 907 1653 Q965 1605 994 1605 Q1056 1605 1099 1703 L1181 1703 Z " />
<glyph glyph-name="Otilde" unicode="&#xd5;" horiz-adv-x="1311" d="M929 1396 Q1127 1396 1247 1260 Q1304 1196 1336.5 1096 Q1369 996 1369 886 Q1369 729 1323 570 Q1277 411 1196 286 Q1096 133 962 51 Q826 -33 670 -33 Q448 -33 330 131 Q231 267 231 466 Q231 677 308 884 Q399 1129 582 1272 Q741 1396 929 1396 Z M931 1290 Q787 1290 654 1182 Q506 1062 427 844 Q357 652 357 458 Q357 271 454 165 Q537 73 669 73 Q817 73 947 179 Q1102 305 1184 547 Q1243 722 1243 896 Q1243 1096 1142 1204 Q1061 1290 931 1290 Z M1312 1703 Q1276 1600 1234 1555 Q1192 1510 1130 1510 Q1093 1510 1066.5 1521.5 Q1040 1533 999 1566 Q947 1608 912 1608 Q849 1608 807 1509 L727 1509 Q756 1603 805.5 1653 Q855 1703 919 1703 Q976 1703 1038 1653 Q1096 1605 1125 1605 Q1187 1605 1230 1703 L1312 1703 Z " />
<glyph glyph-name="OE" unicode="&#x152;" horiz-adv-x="1834" d="M2019 1365 L1997 1259 L1359 1259 L1253 760 L1847 760 L1825 654 L1231 654 L1114 106 L1758 106 L1736 0 L969 0 L990 94 Q957 64 934 47 Q828 -33 672 -33 Q448 -33 330 130 Q231 267 231 469 Q231 646 286.5 821.5 Q342 997 438 1125 Q643 1396 928 1396 Q1034 1396 1105.5 1360 Q1177 1324 1233 1242 L1259 1365 L2019 1365 Z M1204 1105 Q1127 1290 930 1290 Q785 1290 654 1182 Q506 1061 427 844 Q357 652 357 460 Q357 271 454 165 Q537 73 668 73 Q867 73 1023 255 L1204 1105 Z " />
<glyph glyph-name="oe" unicode="&#x153;" horiz-adv-x="1552" d="M849 198 Q712 -29 481 -29 Q332 -29 245 65 Q157 159 157 330 Q157 445 192 559 Q227 673 288 761 Q436 971 667 971 Q856 971 933 829 Q946 804 956 770 Q1098 971 1297 971 Q1449 971 1528 876 Q1606 783 1606 626 Q1606 548 1585 445 L952 445 Q939 374 939 325 Q939 199 1007 127 Q1064 65 1162 65 Q1223 65 1282.5 93 Q1342 121 1376 165 L1494 165 Q1442 76 1349 23.5 Q1256 -29 1152 -29 Q920 -29 849 198 Z M1480 535 Q1489 596 1489 634 Q1489 741 1437 810 Q1386 879 1301 879 Q1190 879 1103.5 789 Q1017 699 970 535 L1480 535 Z M650 877 Q566 877 491.5 827.5 Q417 778 363 685 Q271 529 271 330 Q271 183 350 114 Q406 65 489 65 Q661 65 772 248 Q868 408 868 609 Q868 752 792 824 Q736 877 650 877 Z " />
<glyph glyph-name="endash" unicode="&#x2013;" horiz-adv-x="1038" d="M999 560 L977 454 L252 454 L275 560 L999 560 Z " />
<glyph glyph-name="emdash" unicode="&#x2014;" horiz-adv-x="1512" d="M1455 560 L1432 454 L280 454 L303 560 L1455 560 Z " />
<glyph glyph-name="quotedblleft" unicode="&#x201c;" horiz-adv-x="739" d="M370 915 L402 1063 Q433 1209 482 1281 Q531 1353 622 1386 L604 1304 Q524 1263 499 1143 L494 1119 L553 1119 L509 915 L370 915 Z M622 915 L653 1063 Q684 1209 733 1281 Q782 1353 873 1386 L856 1304 Q776 1263 751 1143 L746 1119 L804 1119 L761 915 L622 915 Z " />
<glyph glyph-name="quotedblright" unicode="&#x201d;" horiz-adv-x="739" d="M602 1365 L570 1217 Q539 1070 490 998 Q441 926 350 894 L367 976 Q447 1017 473 1137 L478 1160 L419 1160 L463 1365 L602 1365 Z M853 1365 L822 1217 Q791 1070 741.5 998 Q692 926 602 894 L619 976 Q698 1017 724 1137 L729 1160 L671 1160 L714 1365 L853 1365 Z " />
<glyph glyph-name="quoteleft" unicode="&#x2018;" horiz-adv-x="487" d="M370 915 L402 1063 Q433 1209 482 1281 Q531 1353 622 1386 L604 1304 Q524 1263 499 1143 L494 1119 L553 1119 L509 915 L370 915 Z " />
<glyph glyph-name="quoteright" unicode="&#x2019;" horiz-adv-x="487" d="M602 1365 L570 1217 Q539 1070 490 998 Q441 926 350 894 L367 976 Q447 1017 473 1137 L478 1160 L419 1160 L463 1365 L602 1365 Z " />
<glyph glyph-name="divide" unicode="&#xf7;" horiz-adv-x="1065" d="M246 742 L1134 742 L1111 637 L224 637 L246 742 Z M823 1090 L786 916 L668 916 L705 1090 L823 1090 Z M690 462 L653 288 L534 288 L571 462 L690 462 Z " />
<glyph glyph-name="lozenge" unicode="&#x25ca;" horiz-adv-x="1456" d="M1029 1419 L1405 683 L716 -53 L341 683 L1029 1419 Z M991 1237 L469 683 L755 128 L1276 683 L991 1237 Z " />
<glyph glyph-name="ydieresis" unicode="&#xff;" horiz-adv-x="820" d="M29 -340 L49 -244 Q59 -246 64 -248 Q96 -257 123 -257 Q178 -257 215 -227.5 Q252 -198 296 -119 L366 7 L214 942 L339 942 L455 160 L883 942 L1007 942 L394 -145 Q331 -256 282 -298 Q215 -355 115 -355 Q71 -355 29 -340 Z M724 1106 L765 1297 L880 1297 L839 1106 L724 1106 Z M430 1106 L470 1297 L585 1297 L545 1106 L430 1106 Z " />
<glyph glyph-name="Ydieresis" unicode="&#x178;" horiz-adv-x="1018" d="M449 0 L569 565 L289 1365 L426 1365 L654 683 L1171 1365 L1310 1365 L691 565 L571 0 L449 0 Z M927 1488 L968 1679 L1087 1679 L1046 1488 L927 1488 Z M609 1488 L650 1679 L769 1679 L728 1488 L609 1488 Z " />
<glyph glyph-name="fraction" unicode="&#x2044;" horiz-adv-x="637" d="M103 0 L0 0 L913 1365 L1013 1365 L103 0 Z " />
<glyph glyph-name="Euro" unicode="&#x20ac;" horiz-adv-x="1154" d="M283 512 L147 512 L205 612 L296 612 Q308 676 328 751 L198 751 L256 851 L359 851 Q407 1001 491 1118 Q690 1392 981 1392 Q1201 1392 1328 1256 L1268 1151 Q1201 1224 1143 1252 Q1066 1290 974 1290 Q719 1290 547 1005 Q504 934 475 851 L1093 851 L1034 751 L445 751 Q427 682 415 612 L954 612 L896 512 L404 512 Q401 480 401 450 Q401 363 427.5 284.5 Q454 206 500 158 Q580 73 716 73 Q816 73 891 112 Q966 151 1064 252 L1136 187 Q1055 95 995 55 Q870 -29 708 -29 Q515 -29 402 95 Q280 229 280 440 Q280 471 283 512 Z " />
<glyph glyph-name="guilsinglleft" unicode="&#x2039;" horiz-adv-x="508" d="M380 199 L212 446 L236 561 L510 811 L482 680 L294 505 L408 332 L380 199 Z " />
<glyph glyph-name="guilsinglright" unicode="&#x203a;" horiz-adv-x="508" d="M343 811 L511 564 L487 449 L213 199 L241 330 L429 505 L315 678 L343 811 Z " />
<glyph glyph-name="&amp;#xf001;" unicode="&#xf001;" horiz-adv-x="935" d="M910 1174 L951 1365 L1064 1365 L1023 1174 L910 1174 Z M661 0 L861 942 L974 942 L773 0 L661 0 Z M187 0 L367 848 L218 848 L238 942 L387 942 L419 1092 Q441 1196 454 1233 Q467 1270 492 1305 Q560 1397 684 1397 Q732 1397 791 1376 L770 1276 Q723 1296 679 1296 Q616 1296 587.5 1258 Q559 1220 534 1106 L500 942 L677 942 L657 848 L480 848 L300 0 L187 0 Z " />
<glyph glyph-name="&amp;#xfb01;" unicode="&#xfb01;" horiz-adv-x="935" d="M910 1174 L951 1365 L1064 1365 L1023 1174 L910 1174 Z M661 0 L861 942 L974 942 L773 0 L661 0 Z M187 0 L367 848 L218 848 L238 942 L387 942 L419 1092 Q441 1196 454 1233 Q467 1270 492 1305 Q560 1397 684 1397 Q732 1397 791 1376 L770 1276 Q723 1296 679 1296 Q616 1296 587.5 1258 Q559 1220 534 1106 L500 942 L677 942 L657 848 L480 848 L300 0 L187 0 Z " />
<glyph glyph-name="&amp;#xf002;" unicode="&#xf002;" horiz-adv-x="935" d="M662 0 L952 1365 L1064 1365 L774 0 L662 0 Z M187 0 L367 848 L218 848 L238 942 L387 942 L419 1092 Q441 1196 454 1233 Q467 1270 492 1305 Q560 1397 684 1397 Q732 1397 791 1376 L770 1276 Q723 1296 679 1296 Q616 1296 587.5 1258 Q559 1220 534 1106 L500 942 L677 942 L657 848 L480 848 L300 0 L187 0 Z " />
<glyph glyph-name="&amp;#xfb02;" unicode="&#xfb02;" horiz-adv-x="935" d="M662 0 L952 1365 L1064 1365 L774 0 L662 0 Z M187 0 L367 848 L218 848 L238 942 L387 942 L419 1092 Q441 1196 454 1233 Q467 1270 492 1305 Q560 1397 684 1397 Q732 1397 791 1376 L770 1276 Q723 1296 679 1296 Q616 1296 587.5 1258 Q559 1220 534 1106 L500 942 L677 942 L657 848 L480 848 L300 0 L187 0 Z " />
<glyph glyph-name="daggerdbl" unicode="&#x2021;" horiz-adv-x="1032" d="M1092 960 L1070 858 L748 858 L602 168 L923 168 L902 66 L580 66 L490 -355 L388 -355 L477 66 L159 66 L181 168 L499 168 L646 858 L327 858 L349 960 L667 960 L754 1365 L856 1365 L770 960 L1092 960 Z " />
<glyph glyph-name="periodcentered" unicode="&#xb7;" horiz-adv-x="476" d="M435 608 L391 403 L256 403 L300 608 L435 608 Z " />
<glyph glyph-name="quotesinglbase" unicode="&#x201a;" horiz-adv-x="487" d="M355 205 L323 57 Q292 -90 243 -162 Q194 -234 103 -266 L120 -184 Q200 -143 226 -23 L231 0 L172 0 L215 205 L355 205 Z " />
<glyph glyph-name="quotedblbase" unicode="&#x201e;" horiz-adv-x="739" d="M355 205 L323 57 Q292 -90 243 -162 Q194 -234 103 -266 L120 -184 Q200 -143 226 -23 L231 0 L172 0 L215 205 L355 205 Z M606 205 L575 57 Q543 -90 494.5 -162 Q446 -234 355 -266 L372 -184 Q452 -143 477 -23 L482 0 L423 0 L467 205 L606 205 Z " />
<glyph glyph-name="perthousand" unicode="&#x2030;" horiz-adv-x="2478" d="M667 1384 Q825 1384 896 1266 Q942 1190 942 1069 Q942 868 837 711 Q714 526 530 526 Q382 526 308 629 Q246 715 246 839 Q246 947 278 1050.5 Q310 1154 366 1226 Q489 1384 667 1384 Z M659 1293 Q524 1293 430 1144 Q346 1013 346 836 Q346 725 401 667 Q448 617 525 617 Q669 617 762 775 Q842 909 842 1072 Q842 1175 793 1234 Q744 1293 659 1293 Z M618 0 L519 0 L1398 1365 L1493 1365 L618 0 Z M1490 838 Q1647 838 1719 720 Q1765 644 1765 523 Q1765 322 1660 165 Q1537 -20 1353 -20 Q1205 -20 1131 83 Q1069 169 1069 293 Q1069 401 1101 504.5 Q1133 608 1189 680 Q1312 838 1490 838 Z M1482 747 Q1347 747 1253 598 Q1169 467 1169 290 Q1169 179 1224 121 Q1271 71 1348 71 Q1491 71 1585 229 Q1665 363 1665 526 Q1665 629 1616 688 Q1567 747 1482 747 Z M2246 838 Q2404 838 2475 720 Q2521 644 2521 523 Q2521 322 2416 165 Q2293 -20 2109 -20 Q1961 -20 1887 83 Q1825 169 1825 293 Q1825 401 1857 504.5 Q1889 608 1945 680 Q2068 838 2246 838 Z M2238 747 Q2103 747 2009 598 Q1925 467 1925 290 Q1925 179 1980 121 Q2027 71 2104 71 Q2247 71 2341 229 Q2421 363 2421 526 Q2421 629 2372 688 Q2323 747 2238 747 Z " />
<glyph glyph-name="Acircumflex" unicode="&#xc2;" horiz-adv-x="1099" d="M776 1365 L909 1365 L1073 0 L944 0 L900 430 L389 430 L159 0 L27 0 L776 1365 Z M445 535 L889 535 L816 1230 L445 535 Z M1111 1475 L1003 1475 L896 1664 L705 1475 L596 1475 L851 1734 L964 1734 L1111 1475 Z " />
<glyph glyph-name="Ecircumflex" unicode="&#xca;" horiz-adv-x="1084" d="M192 0 L482 1365 L1269 1365 L1247 1259 L582 1259 L476 760 L1098 760 L1075 654 L453 654 L337 106 L1009 106 L986 0 L192 0 Z M1151 1475 L1043 1475 L936 1664 L745 1475 L636 1475 L891 1734 L1004 1734 L1151 1475 Z " />
<glyph glyph-name="Aacute" unicode="&#xc1;" horiz-adv-x="1099" d="M776 1365 L909 1365 L1073 0 L944 0 L900 430 L389 430 L159 0 L27 0 L776 1365 Z M445 535 L889 535 L816 1230 L445 535 Z M1170 1737 L913 1479 L808 1479 L1043 1737 L1170 1737 Z " />
<glyph glyph-name="Edieresis" unicode="&#xcb;" horiz-adv-x="1084" d="M192 0 L482 1365 L1269 1365 L1247 1259 L582 1259 L476 760 L1098 760 L1075 654 L453 654 L337 106 L1009 106 L986 0 L192 0 Z M987 1488 L1028 1679 L1146 1679 L1106 1488 L987 1488 Z M669 1488 L710 1679 L828 1679 L788 1488 L669 1488 Z " />
<glyph glyph-name="Egrave" unicode="&#xc8;" horiz-adv-x="1084" d="M192 0 L482 1365 L1269 1365 L1247 1259 L582 1259 L476 760 L1098 760 L1075 654 L453 654 L337 106 L1009 106 L986 0 L192 0 Z M731 1737 L857 1737 L983 1479 L878 1479 L731 1737 Z " />
<glyph glyph-name="Iacute" unicode="&#xcd;" horiz-adv-x="506" d="M192 0 L482 1365 L605 1365 L314 0 L192 0 Z M867 1737 L610 1479 L505 1479 L740 1737 L867 1737 Z " />
<glyph glyph-name="Icircumflex" unicode="&#xce;" horiz-adv-x="506" d="M192 0 L482 1365 L605 1365 L314 0 L192 0 Z M812 1475 L704 1475 L597 1664 L406 1475 L297 1475 L552 1734 L665 1734 L812 1475 Z " />
<glyph glyph-name="Idieresis" unicode="&#xcf;" horiz-adv-x="506" d="M192 0 L482 1365 L605 1365 L314 0 L192 0 Z M627 1488 L667 1679 L786 1679 L745 1488 L627 1488 Z M383 1488 L424 1679 L542 1679 L502 1488 L383 1488 Z " />
<glyph glyph-name="Igrave" unicode="&#xcc;" horiz-adv-x="506" d="M192 0 L482 1365 L605 1365 L314 0 L192 0 Z M361 1737 L487 1737 L613 1479 L508 1479 L361 1737 Z " />
<glyph glyph-name="Oacute" unicode="&#xd3;" horiz-adv-x="1311" d="M929 1396 Q1127 1396 1247 1260 Q1304 1196 1336.5 1096 Q1369 996 1369 886 Q1369 729 1323 570 Q1277 411 1196 286 Q1096 133 962 51 Q826 -33 670 -33 Q448 -33 330 131 Q231 267 231 466 Q231 677 308 884 Q399 1129 582 1272 Q741 1396 929 1396 Z M931 1290 Q787 1290 654 1182 Q506 1062 427 844 Q357 652 357 458 Q357 271 454 165 Q537 73 669 73 Q817 73 947 179 Q1102 305 1184 547 Q1243 722 1243 896 Q1243 1096 1142 1204 Q1061 1290 931 1290 Z M1272 1737 L1015 1479 L910 1479 L1145 1737 L1272 1737 Z " />
<glyph glyph-name="Ocircumflex" unicode="&#xd4;" horiz-adv-x="1311" d="M929 1396 Q1127 1396 1247 1260 Q1304 1196 1336.5 1096 Q1369 996 1369 886 Q1369 729 1323 570 Q1277 411 1196 286 Q1096 133 962 51 Q826 -33 670 -33 Q448 -33 330 131 Q231 267 231 466 Q231 677 308 884 Q399 1129 582 1272 Q741 1396 929 1396 Z M931 1290 Q787 1290 654 1182 Q506 1062 427 844 Q357 652 357 458 Q357 271 454 165 Q537 73 669 73 Q817 73 947 179 Q1102 305 1184 547 Q1243 722 1243 896 Q1243 1096 1142 1204 Q1061 1290 931 1290 Z M1240 1475 L1132 1475 L1025 1664 L834 1475 L725 1475 L980 1734 L1093 1734 L1240 1475 Z " />
<glyph glyph-name="Ograve" unicode="&#xd2;" horiz-adv-x="1311" d="M929 1396 Q1127 1396 1247 1260 Q1304 1196 1336.5 1096 Q1369 996 1369 886 Q1369 729 1323 570 Q1277 411 1196 286 Q1096 133 962 51 Q826 -33 670 -33 Q448 -33 330 131 Q231 267 231 466 Q231 677 308 884 Q399 1129 582 1272 Q741 1396 929 1396 Z M931 1290 Q787 1290 654 1182 Q506 1062 427 844 Q357 652 357 458 Q357 271 454 165 Q537 73 669 73 Q817 73 947 179 Q1102 305 1184 547 Q1243 722 1243 896 Q1243 1096 1142 1204 Q1061 1290 931 1290 Z M807 1737 L933 1737 L1059 1479 L954 1479 L807 1737 Z " />
<glyph glyph-name="Uacute" unicode="&#xda;" horiz-adv-x="1241" d="M461 1365 L584 1365 L410 551 Q381 412 381 343 Q381 234 435 168 Q512 73 675 73 Q877 73 970 222 Q998 267 1013.5 319.5 Q1029 372 1066 552 L1239 1365 L1361 1365 L1188 551 Q1150 346 1129 288 Q1069 117 952 41 Q840 -33 671 -33 Q463 -33 350 74 Q257 164 257 322 Q257 405 289 555 L461 1365 Z M1221 1737 L964 1479 L859 1479 L1094 1737 L1221 1737 Z " />
<glyph glyph-name="Ucircumflex" unicode="&#xdb;" horiz-adv-x="1241" d="M461 1365 L584 1365 L410 551 Q381 412 381 343 Q381 234 435 168 Q512 73 675 73 Q877 73 970 222 Q998 267 1013.5 319.5 Q1029 372 1066 552 L1239 1365 L1361 1365 L1188 551 Q1150 346 1129 288 Q1069 117 952 41 Q840 -33 671 -33 Q463 -33 350 74 Q257 164 257 322 Q257 405 289 555 L461 1365 Z M1194 1475 L1086 1475 L979 1664 L788 1475 L679 1475 L934 1734 L1047 1734 L1194 1475 Z " />
<glyph glyph-name="Ugrave" unicode="&#xd9;" horiz-adv-x="1241" d="M461 1365 L584 1365 L410 551 Q381 412 381 343 Q381 234 435 168 Q512 73 675 73 Q877 73 970 222 Q998 267 1013.5 319.5 Q1029 372 1066 552 L1239 1365 L1361 1365 L1188 551 Q1150 346 1129 288 Q1069 117 952 41 Q840 -33 671 -33 Q463 -33 350 74 Q257 164 257 322 Q257 405 289 555 L461 1365 Z M765 1737 L891 1737 L1017 1479 L912 1479 L765 1737 Z " />
<glyph glyph-name="dotlessi" unicode="&#x131;" horiz-adv-x="446" d="M150 0 L350 942 L463 942 L263 0 L150 0 Z " />
<glyph glyph-name="circumflex" unicode="&#x2c6;" horiz-adv-x="1195" d="M1057 1092 L954 1092 L873 1289 L705 1092 L601 1092 L832 1365 L941 1365 L1057 1092 Z " />
<glyph glyph-name="tilde" unicode="&#x2dc;" horiz-adv-x="1191" d="M1136 1318 Q1101 1207 1060.5 1159.5 Q1020 1112 961 1112 Q924 1112 899 1123.5 Q874 1135 834 1171 Q784 1216 751 1216 Q689 1216 649 1111 L572 1111 Q599 1210 647 1264 Q695 1318 757 1318 Q812 1318 871 1265 Q928 1214 956 1214 Q1016 1214 1057 1318 L1136 1318 Z " />
<glyph glyph-name="uni02C9" unicode="&#x2c9;" horiz-adv-x="1192" d="M1091 1237 L1072 1147 L608 1147 L627 1237 L1091 1237 Z " />
<glyph glyph-name="breve" unicode="&#x2d8;" horiz-adv-x="1211" d="M1115 1365 Q1107 1281 1079 1226 Q1013 1092 864 1092 Q768 1092 716 1144.5 Q664 1197 664 1294 Q664 1322 669 1365 L747 1365 Q745 1340 745 1326 Q745 1186 872 1186 Q939 1186 976.5 1226.5 Q1014 1267 1038 1365 L1115 1365 Z " />
<glyph glyph-name="dotaccent" unicode="&#x2d9;" horiz-adv-x="1297" d="M826 1106 L867 1297 L981 1297 L941 1106 L826 1106 Z " />
<glyph glyph-name="ring" unicode="&#x2da;" horiz-adv-x="1220" d="M874 1358 Q830 1358 800 1326.5 Q770 1295 770 1249 Q770 1204 800 1172 Q830 1140 872 1140 Q914 1140 944 1171.5 Q974 1203 974 1248 Q974 1293 944.5 1325.5 Q915 1358 874 1358 Z M875 1434 Q950 1434 1003.5 1379.5 Q1057 1325 1057 1249 Q1057 1173 1003 1119 Q949 1065 872 1065 Q795 1065 741 1119 Q687 1173 687 1249 Q687 1327 741.5 1380.5 Q796 1434 875 1434 Z " />
<glyph glyph-name="cedilla" unicode="&#xb8;" horiz-adv-x="1241" d="M574 0 L654 0 L590 -108 Q613 -100 637 -100 Q688 -100 719.5 -131 Q751 -162 751 -214 Q751 -288 697 -339 Q643 -390 564 -390 Q506 -390 469 -363.5 Q432 -337 432 -295 Q432 -292 432 -286 L519 -286 Q519 -327 575 -327 Q613 -327 638 -296 Q663 -265 663 -220 Q663 -163 609 -163 Q565 -163 541 -194 L459 -194 L574 0 Z " />
<glyph glyph-name="hungarumlaut" unicode="&#x2dd;" horiz-adv-x="1180" d="M1004 1365 L768 1092 L669 1092 L890 1365 L1004 1365 Z M1232 1365 L996 1092 L897 1092 L1118 1365 L1232 1365 Z " />
<glyph glyph-name="ogonek" unicode="&#x2db;" horiz-adv-x="1265" d="M836 0 Q758 -65 726.5 -111 Q695 -157 695 -205 Q695 -275 778 -275 Q808 -275 858 -257 L843 -329 Q783 -351 733 -351 Q596 -351 596 -229 Q596 -98 760 0 L836 0 Z " />
<glyph glyph-name="caron" unicode="&#x2c7;" horiz-adv-x="1195" d="M659 1365 L762 1365 L844 1168 L1012 1365 L1115 1365 L885 1092 L775 1092 L659 1365 Z " />
<glyph glyph-name="nbspace" unicode="&#xa0;" horiz-adv-x="515" d="" />
<glyph glyph-name="currency" unicode="&#xa4;" horiz-adv-x="1391" d="M267 243 L452 432 Q345 566 345 726 Q345 877 452 1017 L261 1206 L327 1272 L515 1084 Q656 1194 814 1194 Q973 1194 1110 1084 L1300 1272 L1365 1206 L1176 1019 Q1283 879 1283 725 Q1283 570 1177 432 L1367 243 L1302 177 L1112 366 Q975 259 817 259 Q665 259 520 366 L331 177 L267 243 Z M819 1092 Q664 1092 556 984 Q451 877 451 725 Q451 607 521 511 Q572 440 650 401 Q727 361 814 361 Q964 361 1071 468 Q1177 574 1177 725 Q1177 845 1109 940 Q1059 1010 980.5 1051 Q902 1092 819 1092 Z " />
<glyph glyph-name="brokenbar" unicode="&#xa6;" horiz-adv-x="1295" d="M877 1365 L998 1365 L854 690 L733 690 L877 1365 Z M653 314 L774 314 L635 -341 L514 -341 L653 314 Z " />
<glyph glyph-name="uni00AD" unicode="&#xad;" horiz-adv-x="408" d="M516 560 L494 454 L107 454 L130 560 L516 560 Z " />
<glyph glyph-name="overscore" unicode="&#xaf;" horiz-adv-x="1065" d="M424 1580 L1312 1580 L1289 1475 L402 1475 L424 1580 Z " />
<glyph glyph-name="twosuperior" unicode="&#xb2;" horiz-adv-x="593" d="M673 628 L654 546 L161 546 Q187 661 236 730 Q277 789 330.5 829 Q384 869 534 952 Q614 995 661.5 1059 Q709 1123 709 1185 Q709 1303 567 1303 Q459 1303 418 1221 Q405 1195 396 1141 L299 1141 Q314 1226 336 1264 Q404 1383 574 1383 Q692 1383 756 1321 Q808 1271 808 1192 Q808 1079 705 980 Q668 944 633.5 921.5 Q599 899 473 828 Q323 744 287 628 L673 628 Z " />
<glyph glyph-name="threesuperior" unicode="&#xb3;" horiz-adv-x="600" d="M205 793 L296 793 Q286 749 286 726 Q286 672 324 640 Q362 608 427 608 Q526 608 583 678 Q631 737 631 809 Q631 872 593.5 908 Q556 944 489 944 Q478 944 442 941 L461 1021 Q472 1021 478 1021 Q490 1021 494 1021 Q587 1021 641.5 1066 Q696 1111 696 1188 Q696 1242 660 1272 Q624 1302 560 1302 Q417 1302 395 1146 L305 1146 Q337 1381 566 1381 Q671 1381 733 1329 Q795 1277 795 1190 Q795 1037 633 981 Q731 927 731 811 Q731 692 652 615 Q563 529 422 529 Q311 529 247 587 Q191 638 191 718 Q191 750 205 793 Z " />
<glyph glyph-name="onesuperior" unicode="&#xb9;" horiz-adv-x="446" d="M286 546 L421 1179 Q389 1158 363.5 1152 Q338 1146 274 1144 L290 1219 Q432 1218 479 1365 L553 1365 L378 546 L286 546 Z " />
<glyph glyph-name="onequarter" unicode="&#xbc;" horiz-adv-x="1305" d="M307 546 L442 1179 Q410 1158 383.5 1152 Q357 1146 294 1144 L310 1219 Q453 1218 499 1365 L573 1365 L399 546 L307 546 Z M324 0 L221 0 L1134 1365 L1234 1365 L324 0 Z M1027 0 L1077 216 L745 216 L764 296 L1227 819 L1307 819 L1184 294 L1293 294 L1275 216 L1166 216 L1116 0 L1027 0 Z M1095 294 L1178 648 L861 294 L1095 294 Z " />
<glyph glyph-name="onehalf" unicode="&#xbd;" horiz-adv-x="1442" d="M322 546 L456 1179 Q424 1158 398 1152 Q372 1146 309 1144 L325 1219 Q467 1218 514 1365 L588 1365 L413 546 L322 546 Z M333 0 L230 0 L1143 1365 L1243 1365 L333 0 Z M1368 82 L1349 0 L856 0 Q882 115 931 184 Q973 243 1026.5 283 Q1080 323 1230 406 Q1310 450 1357.5 513.5 Q1405 577 1405 639 Q1405 757 1262 757 Q1154 757 1113 675 Q1100 649 1092 595 L994 595 Q1009 680 1031 718 Q1099 837 1270 837 Q1387 837 1452 775 Q1504 725 1504 646 Q1504 533 1401 434 Q1364 398 1329.5 375.5 Q1295 353 1168 282 Q1018 198 983 82 L1368 82 Z " />
<glyph glyph-name="threequarters" unicode="&#xbe;" horiz-adv-x="1451" d="M532 0 L429 0 L1342 1365 L1442 1365 L532 0 Z M220 793 L311 793 Q301 749 301 726 Q301 672 339 640 Q377 608 442 608 Q541 608 598 678 Q646 737 646 809 Q646 872 608.5 908 Q571 944 504 944 Q493 944 457 941 L476 1021 Q487 1021 493 1021 Q505 1021 509 1021 Q602 1021 656.5 1066 Q711 1111 711 1188 Q711 1242 675 1272 Q639 1302 575 1302 Q432 1302 410 1146 L320 1146 Q352 1381 581 1381 Q686 1381 748 1329 Q810 1277 810 1190 Q810 1037 648 981 Q746 927 746 811 Q746 692 667 615 Q578 529 437 529 Q326 529 262 587 Q206 638 206 718 Q206 750 220 793 Z M1222 0 L1272 216 L940 216 L959 296 L1423 819 L1502 819 L1379 294 L1488 294 L1470 216 L1361 216 L1311 0 L1222 0 Z M1290 294 L1373 648 L1057 294 L1290 294 Z " />
<glyph glyph-name="Eth" unicode="&#xd0;" horiz-adv-x="1248" d="M361 760 L490 1365 L833 1365 Q943 1365 1019 1344 Q1095 1323 1155 1277 Q1224 1223 1259 1142 Q1309 1027 1309 893 Q1309 635 1190 389 Q1001 0 551 0 L199 0 L338 654 L191 654 L214 760 L361 760 Z M484 760 L805 760 L783 654 L461 654 L345 106 L575 106 Q762 106 883 187 Q1015 276 1098 474 Q1185 680 1185 892 Q1185 1030 1123 1125 Q1036 1259 830 1259 L590 1259 L484 760 Z " />
<glyph glyph-name="multiply" unicode="&#xd7;" horiz-adv-x="1121" d="M424 973 L498 1036 L716 759 L1058 1040 L1116 966 L775 684 L993 408 L918 345 L700 622 L355 339 L297 413 L641 697 L424 973 Z " />
<glyph glyph-name="Yacute" unicode="&#xdd;" horiz-adv-x="1018" d="M449 0 L569 565 L289 1365 L426 1365 L654 683 L1171 1365 L1310 1365 L691 565 L571 0 L449 0 Z M1121 1737 L864 1479 L759 1479 L994 1737 L1121 1737 Z " />
<glyph glyph-name="Thorn" unicode="&#xde;" horiz-adv-x="1082" d="M547 1092 L768 1092 Q991 1092 1087 996 Q1172 912 1172 781 Q1172 678 1131 585.5 Q1090 493 1018 430 Q876 309 592 309 L380 309 L314 0 L192 0 L482 1365 L605 1365 L547 1092 Z M403 415 L625 415 Q736 415 806.5 435.5 Q877 456 930 502 Q982 549 1013 619.5 Q1044 690 1044 762 Q1044 880 969 933 Q894 986 727 986 L524 986 L403 415 Z " />
<glyph glyph-name="eth" unicode="&#xf0;" horiz-adv-x="1020" d="M879 922 Q810 1092 729 1191 L530 1094 L501 1167 L674 1252 Q635 1288 579 1331 L639 1394 Q710 1358 775 1301 L964 1394 L994 1320 L834 1242 Q888 1181 921 1125 Q979 1027 1013.5 895 Q1048 763 1048 636 Q1048 364 904 172 Q754 -29 518 -29 Q358 -29 268 64 Q177 159 177 330 Q177 445 213 559 Q249 673 313 762 Q387 863 490 917 Q590 971 702 971 Q807 971 879 922 Z M699 877 Q608 877 528 827 Q448 777 390 686 Q291 529 291 329 Q291 183 376 114 Q436 65 526 65 Q711 65 829 247 Q877 321 905 418.5 Q933 516 933 609 Q933 752 851 824 Q790 877 699 877 Z " />
<glyph glyph-name="yacute" unicode="&#xfd;" horiz-adv-x="820" d="M29 -340 L49 -244 Q59 -246 64 -248 Q96 -257 123 -257 Q178 -257 215 -227.5 Q252 -198 296 -119 L366 7 L214 942 L339 942 L455 160 L883 942 L1007 942 L394 -145 Q331 -256 282 -298 Q215 -355 115 -355 Q71 -355 29 -340 Z M916 1365 L680 1092 L577 1092 L798 1365 L916 1365 Z " />
<glyph glyph-name="thorn" unicode="&#xfe;" horiz-adv-x="1039" d="M432 797 Q484 878 572.5 924.5 Q661 971 763 971 Q914 971 999 877 Q1086 781 1086 624 Q1086 499 1046.5 373.5 Q1007 248 939 161 Q793 -29 575 -29 Q467 -29 399 15.5 Q331 60 296 153 L188 -355 L75 -355 L441 1365 L553 1365 L432 797 Z M747 877 Q659 877 580.5 829 Q502 781 447 694 Q399 619 371 519.5 Q343 420 343 324 Q343 183 425 115 Q485 65 573 65 Q757 65 874 255 Q971 414 971 610 Q971 750 898 821 Q840 877 747 877 Z " />
<glyph glyph-name="Amacron" unicode="&#x100;" horiz-adv-x="1099" d="M776 1365 L909 1365 L1073 0 L944 0 L900 430 L389 430 L159 0 L27 0 L776 1365 Z M445 535 L889 535 L816 1230 L445 535 Z M1145 1588 L1127 1502 L592 1502 L610 1588 L1145 1588 Z " />
<glyph glyph-name="amacron" unicode="&#x101;" horiz-adv-x="931" d="M916 88 L897 -1 Q865 -10 839 -10 Q783 -10 748 20.5 Q713 51 713 100 Q713 121 722 166 Q575 -29 378 -29 Q259 -29 188 41 Q125 104 125 210 Q125 421 372 508 Q446 534 531.5 544 Q617 554 804 559 L831 696 Q836 719 836 739 Q836 877 627 877 Q451 877 398 761 L284 761 Q294 819 352 876 Q450 971 636 971 Q787 971 867.5 912 Q948 853 948 742 Q948 709 938 660 L844 219 Q829 153 829 138 Q829 86 884 86 Q889 86 916 88 Z M786 477 Q571 468 460 443 Q357 419 298.5 359.5 Q240 300 240 220 Q240 148 282.5 106.5 Q325 65 398 65 Q466 65 537.5 105 Q609 145 667 216 Q703 260 734 319 Q765 378 774 420 L786 477 Z M967 1237 L948 1147 L484 1147 L503 1237 L967 1237 Z " />
<glyph glyph-name="Abreve" unicode="&#x102;" horiz-adv-x="1099" d="M776 1365 L909 1365 L1073 0 L944 0 L900 430 L389 430 L159 0 L27 0 L776 1365 Z M445 535 L889 535 L816 1230 L445 535 Z M1136 1734 Q1128 1655 1098 1601 Q1029 1475 869 1475 Q765 1475 709 1525 Q653 1575 653 1667 Q653 1691 658 1734 L742 1734 Q740 1709 740 1698 Q740 1569 876 1569 Q949 1569 988.5 1605.5 Q1028 1642 1053 1734 L1136 1734 Z " />
<glyph glyph-name="abreve" unicode="&#x103;" horiz-adv-x="931" d="M916 88 L897 -1 Q865 -10 839 -10 Q783 -10 748 20.5 Q713 51 713 100 Q713 121 722 166 Q575 -29 378 -29 Q259 -29 188 41 Q125 104 125 210 Q125 421 372 508 Q446 534 531.5 544 Q617 554 804 559 L831 696 Q836 719 836 739 Q836 877 627 877 Q451 877 398 761 L284 761 Q294 819 352 876 Q450 971 636 971 Q787 971 867.5 912 Q948 853 948 742 Q948 709 938 660 L844 219 Q829 153 829 138 Q829 86 884 86 Q889 86 916 88 Z M786 477 Q571 468 460 443 Q357 419 298.5 359.5 Q240 300 240 220 Q240 148 282.5 106.5 Q325 65 398 65 Q466 65 537.5 105 Q609 145 667 216 Q703 260 734 319 Q765 378 774 420 L786 477 Z M966 1365 Q958 1281 930 1226 Q864 1092 715 1092 Q619 1092 567 1144.5 Q515 1197 515 1294 Q515 1322 520 1365 L598 1365 Q596 1340 596 1326 Q596 1186 723 1186 Q790 1186 827.5 1226.5 Q865 1267 889 1365 L966 1365 Z " />
<glyph glyph-name="Aogonek" unicode="&#x104;" horiz-adv-x="1099" d="M1073 0 L1067 -5 Q926 -118 926 -205 Q926 -237 949.5 -256 Q973 -275 1013 -275 Q1045 -275 1096 -257 L1081 -329 Q1018 -351 966 -351 Q823 -351 823 -229 Q823 -99 994 0 L944 0 L900 430 L389 430 L159 0 L27 0 L776 1365 L909 1365 L1073 0 Z M445 535 L889 535 L816 1230 L445 535 Z " />
<glyph glyph-name="aogonek" unicode="&#x105;" horiz-adv-x="931" d="M871 -8 Q740 -115 740 -205 Q740 -237 762.5 -256 Q785 -275 823 -275 Q853 -275 903 -257 L888 -329 Q828 -351 778 -351 Q641 -351 641 -229 Q641 -102 797 -5 Q713 19 713 100 Q713 121 722 166 Q575 -29 378 -29 Q259 -29 188 41 Q125 104 125 210 Q125 421 372 508 Q446 534 531.5 544 Q617 554 804 559 L831 696 Q836 719 836 739 Q836 877 627 877 Q451 877 398 761 L284 761 Q294 819 352 876 Q450 971 636 971 Q787 971 867.5 912 Q948 853 948 742 Q948 709 938 660 L844 219 Q829 153 829 138 Q829 86 884 86 Q889 86 916 88 L897 -1 Q881 -5 871 -8 Z M786 477 Q571 468 460 443 Q357 419 298.5 359.5 Q240 300 240 220 Q240 148 282.5 106.5 Q325 65 398 65 Q466 65 537.5 105 Q609 145 667 216 Q703 260 734 319 Q765 378 774 420 L786 477 Z " />
<glyph glyph-name="Cacute" unicode="&#x106;" horiz-adv-x="1229" d="M1107 451 L1231 451 Q1184 287 1090 173 Q920 -33 671 -33 Q471 -33 357 99 Q230 245 230 476 Q230 675 309 885 Q403 1135 584 1275 Q742 1397 935 1397 Q1128 1397 1236 1281 Q1333 1178 1333 1013 Q1333 1007 1333 997 L1208 997 Q1204 1102 1164 1169 Q1093 1290 928 1290 Q680 1290 505 1004 Q436 892 396.5 746.5 Q357 601 357 459 Q357 367 384.5 286 Q412 205 459 157 Q542 73 673 73 Q840 73 974 218 Q1060 311 1107 451 Z M1260 1737 L1003 1479 L898 1479 L1133 1737 L1260 1737 Z " />
<glyph glyph-name="cacute" unicode="&#x107;" horiz-adv-x="911" d="M791 302 L911 302 Q880 197 806 114 Q677 -29 489 -29 Q331 -29 245 65 Q159 158 159 325 Q159 441 194.5 557 Q230 673 294 762 Q443 971 679 971 Q817 971 897 898 Q944 854 963 805 Q982 756 982 679 L861 679 Q858 753 831 796 Q781 877 667 877 Q487 877 370 686 Q273 527 273 323 Q273 181 350 114 Q406 65 494 65 Q592 65 670.5 127.5 Q749 190 791 302 Z M972 1365 L736 1092 L633 1092 L854 1365 L972 1365 Z " />
<glyph glyph-name="Ccircumflex" unicode="&#x108;" horiz-adv-x="1229" d="M1107 451 L1231 451 Q1184 287 1090 173 Q920 -33 671 -33 Q471 -33 357 99 Q230 245 230 476 Q230 675 309 885 Q403 1135 584 1275 Q742 1397 935 1397 Q1128 1397 1236 1281 Q1333 1178 1333 1013 Q1333 1007 1333 997 L1208 997 Q1204 1102 1164 1169 Q1093 1290 928 1290 Q680 1290 505 1004 Q436 892 396.5 746.5 Q357 601 357 459 Q357 367 384.5 286 Q412 205 459 157 Q542 73 673 73 Q840 73 974 218 Q1060 311 1107 451 Z M1218 1475 L1110 1475 L1002 1664 L812 1475 L703 1475 L958 1734 L1071 1734 L1218 1475 Z " />
<glyph glyph-name="ccircumflex" unicode="&#x109;" horiz-adv-x="911" d="M791 302 L911 302 Q880 197 806 114 Q677 -29 489 -29 Q331 -29 245 65 Q159 158 159 325 Q159 441 194.5 557 Q230 673 294 762 Q443 971 679 971 Q817 971 897 898 Q944 854 963 805 Q982 756 982 679 L861 679 Q858 753 831 796 Q781 877 667 877 Q487 877 370 686 Q273 527 273 323 Q273 181 350 114 Q406 65 494 65 Q592 65 670.5 127.5 Q749 190 791 302 Z M951 1092 L848 1092 L767 1289 L599 1092 L495 1092 L726 1365 L835 1365 L951 1092 Z " />
<glyph glyph-name="Cdotaccent" unicode="&#x10a;" horiz-adv-x="1229" d="M1107 451 L1231 451 Q1184 287 1090 173 Q920 -33 671 -33 Q471 -33 357 99 Q230 245 230 476 Q230 675 309 885 Q403 1135 584 1275 Q742 1397 935 1397 Q1128 1397 1236 1281 Q1333 1178 1333 1013 Q1333 1007 1333 997 L1208 997 Q1204 1102 1164 1169 Q1093 1290 928 1290 Q680 1290 505 1004 Q436 892 396.5 746.5 Q357 601 357 459 Q357 367 384.5 286 Q412 205 459 157 Q542 73 673 73 Q840 73 974 218 Q1060 311 1107 451 Z M926 1488 L967 1679 L1086 1679 L1045 1488 L926 1488 Z " />
<glyph glyph-name="cdotaccent" unicode="&#x10b;" horiz-adv-x="911" d="M791 302 L911 302 Q880 197 806 114 Q677 -29 489 -29 Q331 -29 245 65 Q159 158 159 325 Q159 441 194.5 557 Q230 673 294 762 Q443 971 679 971 Q817 971 897 898 Q944 854 963 805 Q982 756 982 679 L861 679 Q858 753 831 796 Q781 877 667 877 Q487 877 370 686 Q273 527 273 323 Q273 181 350 114 Q406 65 494 65 Q592 65 670.5 127.5 Q749 190 791 302 Z M649 1106 L690 1297 L804 1297 L764 1106 L649 1106 Z " />
<glyph glyph-name="Ccaron" unicode="&#x10c;" horiz-adv-x="1229" d="M1107 451 L1231 451 Q1184 287 1090 173 Q920 -33 671 -33 Q471 -33 357 99 Q230 245 230 476 Q230 675 309 885 Q403 1135 584 1275 Q742 1397 935 1397 Q1128 1397 1236 1281 Q1333 1178 1333 1013 Q1333 1007 1333 997 L1208 997 Q1204 1102 1164 1169 Q1093 1290 928 1290 Q680 1290 505 1004 Q436 892 396.5 746.5 Q357 601 357 459 Q357 367 384.5 286 Q412 205 459 157 Q542 73 673 73 Q840 73 974 218 Q1060 311 1107 451 Z M777 1734 L885 1734 L993 1544 L1183 1734 L1292 1734 L1037 1475 L924 1475 L777 1734 Z " />
<glyph glyph-name="ccaron" unicode="&#x10d;" horiz-adv-x="911" d="M791 302 L911 302 Q880 197 806 114 Q677 -29 489 -29 Q331 -29 245 65 Q159 158 159 325 Q159 441 194.5 557 Q230 673 294 762 Q443 971 679 971 Q817 971 897 898 Q944 854 963 805 Q982 756 982 679 L861 679 Q858 753 831 796 Q781 877 667 877 Q487 877 370 686 Q273 527 273 323 Q273 181 350 114 Q406 65 494 65 Q592 65 670.5 127.5 Q749 190 791 302 Z M530 1365 L633 1365 L715 1168 L883 1365 L986 1365 L756 1092 L646 1092 L530 1365 Z " />
<glyph glyph-name="Dcaron" unicode="&#x10e;" horiz-adv-x="1241" d="M192 0 L482 1365 L826 1365 Q936 1365 1012 1344 Q1088 1323 1147 1277 Q1216 1223 1251 1142 Q1301 1027 1301 894 Q1301 635 1182 389 Q994 0 543 0 L192 0 Z M337 106 L567 106 Q848 106 994 303 Q1085 426 1133 597 Q1177 753 1177 892 Q1177 1030 1115 1125 Q1028 1259 822 1259 L582 1259 L337 106 Z M672 1734 L780 1734 L888 1544 L1078 1734 L1187 1734 L932 1475 L819 1475 L672 1734 Z " />
<glyph glyph-name="dcaron" unicode="&#x10f;" horiz-adv-x="1130" d="M891 0 L783 0 L819 173 Q770 108 735 75 Q628 -29 477 -29 Q342 -29 255 58 Q161 153 161 314 Q161 440 202 569.5 Q243 699 310 782 Q461 971 675 971 Q775 971 850 920 Q925 869 946 786 L1069 1365 L1181 1365 L891 0 Z M671 877 Q560 877 466 797 Q373 718 322 575 Q276 446 276 320 Q276 190 347 121 Q405 65 495 65 Q675 65 792 248 Q894 410 894 616 Q894 762 816 827 Q756 877 671 877 Z M1430 1365 L1407 1255 Q1387 1165 1344 1120.5 Q1301 1076 1213 1056 L1226 1117 Q1301 1137 1314 1196 L1317 1213 L1259 1213 L1291 1365 L1430 1365 Z " />
<glyph glyph-name="Dcroat" unicode="&#x110;" horiz-adv-x="1248" d="M361 760 L490 1365 L833 1365 Q943 1365 1019 1344 Q1095 1323 1155 1277 Q1224 1223 1259 1142 Q1309 1027 1309 893 Q1309 635 1190 389 Q1001 0 551 0 L199 0 L338 654 L191 654 L214 760 L361 760 Z M484 760 L805 760 L783 654 L461 654 L345 106 L575 106 Q762 106 883 187 Q1015 276 1098 474 Q1185 680 1185 892 Q1185 1030 1123 1125 Q1036 1259 830 1259 L590 1259 L484 760 Z " />
<glyph glyph-name="dcroat" unicode="&#x111;" horiz-adv-x="1014" d="M1032 1192 L1069 1365 L1181 1365 L1144 1192 L1288 1192 L1269 1102 L1125 1102 L891 0 L783 0 L819 173 Q770 108 735 75 Q628 -29 477 -29 Q342 -29 255 58 Q161 153 161 314 Q161 440 202 569.5 Q243 699 310 782 Q461 971 675 971 Q775 971 850 919.5 Q925 868 946 786 L1013 1102 L714 1102 L733 1192 L1032 1192 Z M671 877 Q560 877 466 797 Q373 718 322 575 Q276 446 276 320 Q276 190 347 121 Q405 65 495 65 Q675 65 792 248 Q894 410 894 616 Q894 762 816 827 Q756 877 671 877 Z " />
<glyph glyph-name="Emacron" unicode="&#x112;" horiz-adv-x="1084" d="M192 0 L482 1365 L1269 1365 L1247 1259 L582 1259 L476 760 L1098 760 L1075 654 L453 654 L337 106 L1009 106 L986 0 L192 0 Z M1175 1588 L1157 1502 L622 1502 L640 1588 L1175 1588 Z " />
<glyph glyph-name="emacron" unicode="&#x113;" horiz-adv-x="943" d="M963 445 L289 445 Q274 372 274 325 Q274 199 347 126 Q408 65 512 65 Q577 65 640.5 93 Q704 121 741 165 L866 165 Q810 76 711.5 23.5 Q613 -29 501 -29 Q339 -29 247 72 Q158 170 158 339 Q158 464 198 583.5 Q238 703 310 791 Q455 971 657 971 Q818 971 903 876 Q986 783 986 627 Q986 547 963 445 Z M861 535 Q871 597 871 633 Q871 742 814 811 Q759 879 666 879 Q546 879 452.5 789 Q359 699 308 535 L861 535 Z M983 1237 L964 1147 L500 1147 L519 1237 L983 1237 Z " />
<glyph glyph-name="Ebreve" unicode="&#x114;" horiz-adv-x="1084" d="M192 0 L482 1365 L1269 1365 L1247 1259 L582 1259 L476 760 L1098 760 L1075 654 L453 654 L337 106 L1009 106 L986 0 L192 0 Z M1183 1734 Q1174 1655 1145 1601 Q1075 1475 915 1475 Q811 1475 755 1525 Q699 1575 699 1667 Q699 1691 705 1734 L788 1734 Q786 1711 786 1698 Q786 1569 922 1569 Q996 1569 1035.5 1605.5 Q1075 1642 1100 1734 L1183 1734 Z " />
<glyph glyph-name="ebreve" unicode="&#x115;" horiz-adv-x="943" d="M963 445 L289 445 Q274 372 274 325 Q274 199 347 126 Q408 65 512 65 Q577 65 640.5 93 Q704 121 741 165 L866 165 Q810 76 711.5 23.5 Q613 -29 501 -29 Q339 -29 247 72 Q158 170 158 339 Q158 464 198 583.5 Q238 703 310 791 Q455 971 657 971 Q818 971 903 876 Q986 783 986 627 Q986 547 963 445 Z M861 535 Q871 597 871 633 Q871 742 814 811 Q759 879 666 879 Q546 879 452.5 789 Q359 699 308 535 L861 535 Z M980 1365 Q971 1281 943 1226 Q877 1092 728 1092 Q632 1092 580 1144.5 Q528 1197 528 1294 Q528 1322 534 1365 L611 1365 Q609 1341 609 1326 Q609 1186 736 1186 Q804 1186 841.5 1226.5 Q879 1267 902 1365 L980 1365 Z " />
<glyph glyph-name="Edotaccent" unicode="&#x116;" horiz-adv-x="1084" d="M192 0 L482 1365 L1269 1365 L1247 1259 L582 1259 L476 760 L1098 760 L1075 654 L453 654 L337 106 L1009 106 L986 0 L192 0 Z M844 1488 L885 1679 L1003 1679 L963 1488 L844 1488 Z " />
<glyph glyph-name="edotaccent" unicode="&#x117;" horiz-adv-x="943" d="M963 445 L289 445 Q274 372 274 325 Q274 199 347 126 Q408 65 512 65 Q577 65 640.5 93 Q704 121 741 165 L866 165 Q810 76 711.5 23.5 Q613 -29 501 -29 Q339 -29 247 72 Q158 170 158 339 Q158 464 198 583.5 Q238 703 310 791 Q455 971 657 971 Q818 971 903 876 Q986 783 986 627 Q986 547 963 445 Z M861 535 Q871 597 871 633 Q871 742 814 811 Q759 879 666 879 Q546 879 452.5 789 Q359 699 308 535 L861 535 Z M644 1106 L685 1297 L799 1297 L759 1106 L644 1106 Z " />
<glyph glyph-name="Eogonek" unicode="&#x118;" horiz-adv-x="1084" d="M986 0 L980 -5 Q839 -118 839 -205 Q839 -237 862.5 -256 Q886 -275 926 -275 Q958 -275 1009 -257 L994 -329 Q931 -351 879 -351 Q736 -351 736 -229 Q736 -99 907 0 L192 0 L482 1365 L1269 1365 L1247 1259 L582 1259 L476 760 L1098 760 L1075 654 L453 654 L337 106 L1009 106 L986 0 Z " />
<glyph glyph-name="eogonek" unicode="&#x119;" horiz-adv-x="943" d="M675 0 Q598 -65 566.5 -111 Q535 -157 535 -205 Q535 -237 557 -256 Q579 -275 618 -275 Q648 -275 698 -257 L683 -329 Q623 -351 573 -351 Q436 -351 436 -229 Q436 -112 560 -25 Q529 -29 502 -29 Q339 -29 247 72 Q158 170 158 339 Q158 464 198 583.5 Q238 703 310 791 Q455 971 657 971 Q818 971 903 876 Q986 783 986 627 Q986 547 963 445 L289 445 Q274 372 274 325 Q274 199 347 126 Q408 65 512 65 Q577 65 640.5 93 Q704 121 741 165 L866 165 Q813 81 675 0 Z M861 535 Q871 597 871 633 Q871 742 814 811 Q759 879 666 879 Q546 879 452.5 789 Q359 699 308 535 L861 535 Z " />
<glyph glyph-name="Ecaron" unicode="&#x11a;" horiz-adv-x="1084" d="M192 0 L482 1365 L1269 1365 L1247 1259 L582 1259 L476 760 L1098 760 L1075 654 L453 654 L337 106 L1009 106 L986 0 L192 0 Z M697 1734 L805 1734 L913 1544 L1103 1734 L1212 1734 L957 1475 L844 1475 L697 1734 Z " />
<glyph glyph-name="ecaron" unicode="&#x11b;" horiz-adv-x="943" d="M963 445 L289 445 Q274 372 274 325 Q274 199 347 126 Q408 65 512 65 Q577 65 640.5 93 Q704 121 741 165 L866 165 Q810 76 711.5 23.5 Q613 -29 501 -29 Q339 -29 247 72 Q158 170 158 339 Q158 464 198 583.5 Q238 703 310 791 Q455 971 657 971 Q818 971 903 876 Q986 783 986 627 Q986 547 963 445 Z M861 535 Q871 597 871 633 Q871 742 814 811 Q759 879 666 879 Q546 879 452.5 789 Q359 699 308 535 L861 535 Z M522 1365 L625 1365 L707 1168 L875 1365 L978 1365 L748 1092 L638 1092 L522 1365 Z " />
<glyph glyph-name="Gcircumflex" unicode="&#x11c;" horiz-adv-x="1315" d="M1155 0 L1053 0 L1101 228 Q1030 133 969 81 Q837 -33 670 -33 Q472 -33 357 99 Q230 245 230 476 Q230 675 309 885 Q403 1135 584 1275 Q743 1397 940 1397 Q1092 1397 1195 1325 Q1272 1271 1306 1198 Q1340 1125 1346 1004 L1222 1004 Q1214 1139 1138.5 1214.5 Q1063 1290 936 1290 Q680 1290 505 1004 Q436 892 396.5 746.5 Q357 601 357 459 Q357 367 384.5 286 Q412 205 459 157 Q542 73 677 73 Q814 73 934 175 Q1024 251 1075.5 342.5 Q1127 434 1168 588 L784 588 L807 694 L1303 694 L1155 0 Z M1234 1475 L1126 1475 L1019 1664 L828 1475 L719 1475 L974 1734 L1087 1734 L1234 1475 Z " />
<glyph glyph-name="gcircumflex" unicode="&#x11d;" horiz-adv-x="1038" d="M974 942 L1087 942 L915 133 Q886 -16 867 -67 Q813 -215 703 -285 Q593 -355 415 -355 Q283 -355 202 -311 Q94 -253 94 -161 Q94 -157 95 -148 L219 -148 Q230 -261 421 -261 Q575 -261 661 -178 Q747 -95 787 92 L810 201 Q758 112 675.5 62 Q593 12 497 12 Q357 12 269 99 Q177 191 177 359 Q177 482 215.5 599.5 Q254 717 321 797 Q467 971 670 971 Q881 971 940 784 L974 942 Z M671 877 Q499 877 390 712 Q345 645 319 550 Q293 455 293 357 Q293 234 353 167 Q409 106 501 106 Q585 106 660 151.5 Q735 197 788 280 Q835 354 863 449.5 Q891 545 891 633 Q891 769 811 832 Q754 877 671 877 Z M967 1092 L864 1092 L783 1289 L615 1092 L511 1092 L742 1365 L851 1365 L967 1092 Z " />
<glyph glyph-name="Gbreve" unicode="&#x11e;" horiz-adv-x="1315" d="M1155 0 L1053 0 L1101 228 Q1030 133 969 81 Q837 -33 670 -33 Q472 -33 357 99 Q230 245 230 476 Q230 675 309 885 Q403 1135 584 1275 Q743 1397 940 1397 Q1092 1397 1195 1325 Q1272 1271 1306 1198 Q1340 1125 1346 1004 L1222 1004 Q1214 1139 1138.5 1214.5 Q1063 1290 936 1290 Q680 1290 505 1004 Q436 892 396.5 746.5 Q357 601 357 459 Q357 367 384.5 286 Q412 205 459 157 Q542 73 677 73 Q814 73 934 175 Q1024 251 1075.5 342.5 Q1127 434 1168 588 L784 588 L807 694 L1303 694 L1155 0 Z M1262 1734 Q1254 1655 1224 1601 Q1155 1475 995 1475 Q891 1475 835 1525 Q779 1575 779 1667 Q779 1691 784 1734 L868 1734 Q866 1709 866 1698 Q866 1569 1002 1569 Q1075 1569 1114.5 1605.5 Q1154 1642 1179 1734 L1262 1734 Z " />
<glyph glyph-name="gbreve" unicode="&#x11f;" horiz-adv-x="1038" d="M974 942 L1087 942 L915 133 Q886 -16 867 -67 Q813 -215 703 -285 Q593 -355 415 -355 Q283 -355 202 -311 Q94 -253 94 -161 Q94 -157 95 -148 L219 -148 Q230 -261 421 -261 Q575 -261 661 -178 Q747 -95 787 92 L810 201 Q758 112 675.5 62 Q593 12 497 12 Q357 12 269 99 Q177 191 177 359 Q177 482 215.5 599.5 Q254 717 321 797 Q467 971 670 971 Q881 971 940 784 L974 942 Z M671 877 Q499 877 390 712 Q345 645 319 550 Q293 455 293 357 Q293 234 353 167 Q409 106 501 106 Q585 106 660 151.5 Q735 197 788 280 Q835 354 863 449.5 Q891 545 891 633 Q891 769 811 832 Q754 877 671 877 Z M994 1365 Q986 1281 958 1226 Q892 1092 743 1092 Q647 1092 595 1144.5 Q543 1197 543 1294 Q543 1322 548 1365 L626 1365 Q624 1340 624 1326 Q624 1186 751 1186 Q818 1186 855.5 1226.5 Q893 1267 917 1365 L994 1365 Z " />
<glyph glyph-name="Gdotaccent" unicode="&#x120;" horiz-adv-x="1315" d="M1155 0 L1053 0 L1101 228 Q1030 133 969 81 Q837 -33 670 -33 Q472 -33 357 99 Q230 245 230 476 Q230 675 309 885 Q403 1135 584 1275 Q743 1397 940 1397 Q1092 1397 1195 1325 Q1272 1271 1306 1198 Q1340 1125 1346 1004 L1222 1004 Q1214 1139 1138.5 1214.5 Q1063 1290 936 1290 Q680 1290 505 1004 Q436 892 396.5 746.5 Q357 601 357 459 Q357 367 384.5 286 Q412 205 459 157 Q542 73 677 73 Q814 73 934 175 Q1024 251 1075.5 342.5 Q1127 434 1168 588 L784 588 L807 694 L1303 694 L1155 0 Z M927 1488 L967 1679 L1086 1679 L1045 1488 L927 1488 Z " />
<glyph glyph-name="gdotaccent" unicode="&#x121;" horiz-adv-x="1038" d="M974 942 L1087 942 L915 133 Q886 -16 867 -67 Q813 -215 703 -285 Q593 -355 415 -355 Q283 -355 202 -311 Q94 -253 94 -161 Q94 -157 95 -148 L219 -148 Q230 -261 421 -261 Q575 -261 661 -178 Q747 -95 787 92 L810 201 Q758 112 675.5 62 Q593 12 497 12 Q357 12 269 99 Q177 191 177 359 Q177 482 215.5 599.5 Q254 717 321 797 Q467 971 670 971 Q881 971 940 784 L974 942 Z M671 877 Q499 877 390 712 Q345 645 319 550 Q293 455 293 357 Q293 234 353 167 Q409 106 501 106 Q585 106 660 151.5 Q735 197 788 280 Q835 354 863 449.5 Q891 545 891 633 Q891 769 811 832 Q754 877 671 877 Z M666 1106 L706 1297 L821 1297 L780 1106 L666 1106 Z " />
<glyph glyph-name="Gcommaaccent" unicode="&#x122;" horiz-adv-x="1315" d="M1155 0 L1053 0 L1101 228 Q1030 133 969 81 Q837 -33 670 -33 Q472 -33 357 99 Q230 245 230 476 Q230 675 309 885 Q403 1135 584 1275 Q743 1397 940 1397 Q1092 1397 1195 1325 Q1272 1271 1306 1198 Q1340 1125 1346 1004 L1222 1004 Q1214 1139 1138.5 1214.5 Q1063 1290 936 1290 Q680 1290 505 1004 Q436 892 396.5 746.5 Q357 601 357 459 Q357 367 384.5 286 Q412 205 459 157 Q542 73 677 73 Q814 73 934 175 Q1024 251 1075.5 342.5 Q1127 434 1168 588 L784 588 L807 694 L1303 694 L1155 0 Z M701 -95 L678 -205 Q659 -296 615.5 -340.5 Q572 -385 484 -404 L497 -343 Q572 -324 585 -265 L588 -247 L530 -247 L562 -95 L701 -95 Z " />
<glyph glyph-name="gcommaaccent" unicode="&#x123;" horiz-adv-x="1038" d="M974 942 L1087 942 L915 133 Q886 -16 867 -67 Q813 -215 703 -285 Q593 -355 415 -355 Q283 -355 202 -311 Q94 -253 94 -161 Q94 -157 95 -148 L219 -148 Q230 -261 421 -261 Q575 -261 661 -178 Q747 -95 787 92 L810 201 Q758 112 675.5 62 Q593 12 497 12 Q357 12 269 99 Q177 191 177 359 Q177 482 215.5 599.5 Q254 717 321 797 Q467 971 670 971 Q881 971 940 784 L974 942 Z M671 877 Q499 877 390 712 Q345 645 319 550 Q293 455 293 357 Q293 234 353 167 Q409 106 501 106 Q585 106 660 151.5 Q735 197 788 280 Q835 354 863 449.5 Q891 545 891 633 Q891 769 811 832 Q754 877 671 877 Z M648 1057 L671 1167 Q690 1257 733.5 1301.5 Q777 1346 865 1366 L852 1305 Q777 1285 764 1226 L761 1209 L819 1209 L787 1057 L648 1057 Z " />
<glyph glyph-name="Hcircumflex" unicode="&#x124;" horiz-adv-x="1295" d="M192 0 L482 1365 L605 1365 L478 769 L1145 769 L1272 1365 L1394 1365 L1104 0 L981 0 L1122 663 L455 663 L314 0 L192 0 Z M1217 1475 L1109 1475 L1001 1664 L810 1475 L701 1475 L957 1734 L1069 1734 L1217 1475 Z " />
<glyph glyph-name="hcircumflex" unicode="&#x125;" horiz-adv-x="1019" d="M152 0 L442 1365 L555 1365 L433 794 Q567 971 760 971 Q895 971 965 896 Q1020 838 1020 745 Q1020 680 1002 593 L875 0 L763 0 L881 555 Q902 655 902 716 Q902 776 879 811 Q836 877 734 877 Q653 877 579 836 Q505 795 457 723 Q400 639 365 472 L265 0 L152 0 Z M795 1475 L687 1475 L579 1664 L389 1475 L280 1475 L535 1734 L648 1734 L795 1475 Z " />
<glyph glyph-name="Hbar" unicode="&#x126;" horiz-adv-x="1281" d="M405 980 L296 980 L319 1086 L428 1086 L487 1365 L610 1365 L550 1086 L1217 1086 L1277 1365 L1399 1365 L1340 1086 L1449 1086 L1426 980 L1317 980 L1109 0 L986 0 L1127 663 L460 663 L319 0 L197 0 L405 980 Z M528 980 L483 769 L1150 769 L1194 980 L528 980 Z " />
<glyph glyph-name="hbar" unicode="&#x127;" horiz-adv-x="1017" d="M413 1237 L440 1365 L553 1365 L525 1237 L791 1237 L772 1147 L506 1147 L431 794 Q565 971 758 971 Q892 971 963 896 Q1018 838 1018 745 Q1018 680 1000 593 L873 0 L761 0 L879 555 Q900 655 900 716 Q900 776 877 811 Q834 877 732 877 Q651 877 577 836 Q503 795 455 723 Q398 639 363 472 L263 0 L150 0 L394 1147 L278 1147 L297 1237 L413 1237 Z " />
<glyph glyph-name="Itilde" unicode="&#x128;" horiz-adv-x="506" d="M192 0 L482 1365 L605 1365 L314 0 L192 0 Z M891 1703 Q855 1600 813 1555 Q771 1510 709 1510 Q672 1510 645.5 1521.5 Q619 1533 578 1566 Q526 1608 491 1608 Q428 1608 386 1509 L306 1509 Q335 1603 384.5 1653 Q434 1703 498 1703 Q555 1703 617 1653 Q675 1605 704 1605 Q766 1605 809 1703 L891 1703 Z " />
<glyph glyph-name="itilde" unicode="&#x129;" horiz-adv-x="446" d="M150 0 L350 942 L463 942 L263 0 L150 0 Z M751 1318 Q716 1207 675.5 1159.5 Q635 1112 576 1112 Q539 1112 514 1123.5 Q489 1135 449 1171 Q399 1216 366 1216 Q304 1216 264 1111 L187 1111 Q214 1210 262 1264 Q310 1318 372 1318 Q427 1318 486 1265 Q543 1214 571 1214 Q631 1214 672 1318 L751 1318 Z " />
<glyph glyph-name="Imacron" unicode="&#x12a;" horiz-adv-x="506" d="M192 0 L482 1365 L605 1365 L314 0 L192 0 Z M840 1588 L822 1502 L319 1502 L337 1588 L840 1588 Z " />
<glyph glyph-name="imacron" unicode="&#x12b;" horiz-adv-x="446" d="M150 0 L350 942 L463 942 L263 0 L150 0 Z M661 1237 L641 1147 L241 1147 L260 1237 L661 1237 Z " />
<glyph glyph-name="Ibreve" unicode="&#x12c;" horiz-adv-x="506" d="M192 0 L482 1365 L605 1365 L314 0 L192 0 Z M844 1734 Q836 1655 806 1601 Q736 1475 576 1475 Q473 1475 416.5 1525 Q360 1575 360 1667 Q360 1691 366 1734 L450 1734 Q447 1709 447 1698 Q447 1569 583 1569 Q657 1569 696.5 1605.5 Q736 1642 761 1734 L844 1734 Z " />
<glyph glyph-name="ibreve" unicode="&#x12d;" horiz-adv-x="446" d="M150 0 L350 942 L463 942 L263 0 L150 0 Z M704 1365 Q696 1281 668 1226 Q602 1092 453 1092 Q357 1092 305 1144.5 Q253 1197 253 1294 Q253 1321 258 1365 L336 1365 Q334 1341 334 1326 Q334 1186 461 1186 Q529 1186 566.5 1226.5 Q604 1267 627 1365 L704 1365 Z " />
<glyph glyph-name="Iogonek" unicode="&#x12e;" horiz-adv-x="506" d="M314 0 Q309 -4 302 -10 Q167 -115 167 -205 Q167 -237 190.5 -256 Q214 -275 254 -275 Q286 -275 337 -257 L322 -329 Q258 -351 207 -351 Q64 -351 64 -229 Q64 -100 235 0 L192 0 L482 1365 L604 1365 L314 0 Z " />
<glyph glyph-name="iogonek" unicode="&#x12f;" horiz-adv-x="441" d="M263 0 L257 -5 Q122 -118 122 -205 Q122 -275 205 -275 Q237 -275 285 -257 L270 -329 Q209 -351 160 -351 Q23 -351 23 -229 Q23 -99 187 0 L150 0 L351 942 L463 942 L263 0 Z M400 1174 L441 1365 L553 1365 L512 1174 L400 1174 Z " />
<glyph glyph-name="Idot" unicode="&#x130;" horiz-adv-x="506" d="M192 0 L482 1365 L605 1365 L314 0 L192 0 Z M502 1488 L543 1679 L661 1679 L621 1488 L502 1488 Z " />
<glyph glyph-name="IJ" unicode="&#x132;" horiz-adv-x="1025" d="M192 0 L482 1365 L605 1365 L314 0 L192 0 Z M1023 1365 L1146 1365 L955 467 Q921 306 898.5 243.5 Q876 181 833 121 Q775 41 696.5 4 Q618 -33 508 -33 Q460 -33 406 -20 L429 89 Q479 73 529 73 Q679 73 752 209 Q794 286 838 495 L1023 1365 Z " />
<glyph glyph-name="ij" unicode="&#x133;" horiz-adv-x="870" d="M400 1174 L440 1365 L553 1365 L512 1174 L400 1174 Z M150 0 L350 942 L463 942 L263 0 L150 0 Z M778 942 L891 942 L681 -44 Q647 -207 602 -266 Q535 -355 405 -355 Q373 -355 343 -347 L364 -250 Q388 -256 412 -256 Q483 -256 511.5 -218 Q540 -180 568 -48 L778 942 Z M827 1174 L868 1365 L981 1365 L940 1174 L827 1174 Z " />
<glyph glyph-name="Jcircumflex" unicode="&#x134;" horiz-adv-x="628" d="M626 1365 L749 1365 L558 467 Q524 306 501.5 243.5 Q479 181 436 121 Q378 41 299.5 4 Q221 -33 111 -33 Q63 -33 9 -20 L32 89 Q82 73 132 73 Q282 73 355 209 Q397 286 441 495 L626 1365 Z M963 1475 L855 1475 L747 1664 L556 1475 L448 1475 L703 1734 L815 1734 L963 1475 Z " />
<glyph glyph-name="jcircumflex" unicode="&#x135;" horiz-adv-x="467" d="M375 942 L488 942 L278 -44 Q244 -207 199 -266 Q132 -355 2 -355 Q-30 -355 -60 -347 L-39 -250 Q-15 -256 9 -256 Q80 -256 108.5 -218 Q137 -180 165 -48 L375 942 Z M674 1092 L571 1092 L489 1289 L321 1092 L218 1092 L448 1365 L558 1365 L674 1092 Z " />
<glyph glyph-name="Kcommaaccent" unicode="&#x136;" horiz-adv-x="1135" d="M482 1365 L605 1365 L458 674 L1250 1365 L1390 1365 L725 785 L1122 0 L985 0 L629 701 L426 524 L314 0 L192 0 L482 1365 Z M710 -95 L687 -205 Q668 -296 624.5 -340.5 Q581 -385 493 -404 L506 -343 Q581 -324 594 -265 L597 -247 L539 -247 L571 -95 L710 -95 Z " />
<glyph glyph-name="kcommaaccent" unicode="&#x137;" horiz-adv-x="925" d="M617 584 L917 0 L789 0 L525 515 L345 381 L265 0 L152 0 L442 1365 L555 1365 L375 519 L939 942 L1095 942 L617 584 Z M562 -95 L539 -205 Q520 -296 476.5 -340.5 Q433 -385 345 -404 L358 -343 Q433 -324 446 -265 L449 -247 L391 -247 L423 -95 L562 -95 Z " />
<glyph glyph-name="kgreenlandic" unicode="&#x138;" horiz-adv-x="927" d="M362 451 L954 942 L1097 942 L607 536 L919 0 L788 0 L518 463 L332 309 L266 0 L154 0 L354 942 L467 942 L362 451 Z " />
<glyph glyph-name="Lacute" unicode="&#x139;" horiz-adv-x="995" d="M192 0 L482 1365 L605 1365 L337 106 L968 106 L945 0 L192 0 Z M895 1737 L638 1479 L533 1479 L768 1737 L895 1737 Z " />
<glyph glyph-name="lacute" unicode="&#x13a;" horiz-adv-x="417" d="M152 0 L442 1365 L555 1365 L265 0 L152 0 Z M825 1737 L569 1479 L463 1479 L699 1737 L825 1737 Z " />
<glyph glyph-name="Lcommaaccent" unicode="&#x13b;" horiz-adv-x="995" d="M192 0 L482 1365 L605 1365 L337 106 L968 106 L945 0 L192 0 Z M627 -95 L604 -205 Q585 -296 541.5 -340.5 Q498 -385 410 -404 L423 -343 Q498 -324 511 -265 L514 -247 L456 -247 L488 -95 L627 -95 Z " />
<glyph glyph-name="lcommaaccent" unicode="&#x13c;" horiz-adv-x="417" d="M152 0 L442 1365 L555 1365 L265 0 L152 0 Z M273 -95 L250 -205 Q231 -296 187.5 -340.5 Q144 -385 56 -404 L69 -343 Q144 -324 157 -265 L160 -247 L102 -247 L134 -95 L273 -95 Z " />
<glyph glyph-name="Lcaron" unicode="&#x13d;" horiz-adv-x="995" d="M192 0 L482 1365 L605 1365 L337 106 L968 106 L945 0 L192 0 Z M1050 1365 L1027 1255 Q1007 1165 964 1120.5 Q921 1076 833 1056 L846 1117 Q921 1137 934 1196 L937 1213 L879 1213 L911 1365 L1050 1365 Z " />
<glyph glyph-name="lcaron" unicode="&#x13e;" horiz-adv-x="527" d="M152 0 L442 1365 L555 1365 L265 0 L152 0 Z M827 1365 L804 1255 Q784 1165 741 1120.5 Q698 1076 610 1056 L623 1117 Q698 1137 711 1196 L714 1213 L656 1213 L688 1365 L827 1365 Z " />
<glyph glyph-name="Ldot" unicode="&#x13f;" horiz-adv-x="995" d="M192 0 L482 1365 L605 1365 L337 106 L968 106 L945 0 L192 0 Z M690 587 L731 778 L845 778 L805 587 L690 587 Z " />
<glyph glyph-name="ldot" unicode="&#x140;" horiz-adv-x="518" d="M152 0 L442 1365 L555 1365 L265 0 L152 0 Z M493 529 L533 720 L648 720 L607 529 L493 529 Z " />
<glyph glyph-name="Lslash" unicode="&#x141;" horiz-adv-x="1011" d="M177 473 L204 600 L356 698 L498 1365 L620 1365 L494 774 L773 950 L746 823 L467 647 L352 106 L983 106 L960 0 L207 0 L329 571 L177 473 Z " />
<glyph glyph-name="lslash" unicode="&#x142;" horiz-adv-x="456" d="M130 501 L157 628 L337 753 L467 1365 L579 1365 L467 839 L647 963 L620 837 L440 712 L289 0 L177 0 L310 626 L130 501 Z " />
<glyph glyph-name="Nacute" unicode="&#x143;" horiz-adv-x="1293" d="M192 0 L482 1365 L614 1365 L1027 196 L1276 1365 L1392 1365 L1102 0 L970 0 L556 1163 L308 0 L192 0 Z M1255 1737 L998 1479 L893 1479 L1128 1737 L1255 1737 Z " />
<glyph glyph-name="nacute" unicode="&#x144;" horiz-adv-x="1019" d="M152 0 L352 942 L459 942 L425 783 Q564 971 761 971 Q895 971 965 896 Q1020 837 1020 745 Q1020 680 1002 593 L875 0 L763 0 L881 555 Q902 654 902 716 Q902 776 879 811 Q837 877 734 877 Q653 877 579 836 Q505 795 457 723 Q401 639 365 472 L265 0 L152 0 Z M1039 1365 L803 1092 L700 1092 L921 1365 L1039 1365 Z " />
<glyph glyph-name="Ncommaaccent" unicode="&#x145;" horiz-adv-x="1293" d="M192 0 L482 1365 L614 1365 L1027 196 L1276 1365 L1392 1365 L1102 0 L970 0 L556 1163 L308 0 L192 0 Z M702 -95 L679 -205 Q660 -296 616.5 -340.5 Q573 -385 485 -404 L498 -343 Q573 -324 586 -265 L589 -247 L531 -247 L563 -95 L702 -95 Z " />
<glyph glyph-name="ncommaaccent" unicode="&#x146;" horiz-adv-x="1019" d="M152 0 L352 942 L459 942 L425 783 Q564 971 761 971 Q895 971 965 896 Q1020 837 1020 745 Q1020 680 1002 593 L875 0 L763 0 L881 555 Q902 654 902 716 Q902 776 879 811 Q837 877 734 877 Q653 877 579 836 Q505 795 457 723 Q401 639 365 472 L265 0 L152 0 Z M563 -95 L540 -205 Q521 -296 477.5 -340.5 Q434 -385 346 -404 L359 -343 Q434 -324 447 -265 L450 -247 L392 -247 L424 -95 L563 -95 Z " />
<glyph glyph-name="Ncaron" unicode="&#x147;" horiz-adv-x="1293" d="M192 0 L482 1365 L614 1365 L1027 196 L1276 1365 L1392 1365 L1102 0 L970 0 L556 1163 L308 0 L192 0 Z M762 1734 L870 1734 L978 1544 L1168 1734 L1277 1734 L1022 1475 L909 1475 L762 1734 Z " />
<glyph glyph-name="ncaron" unicode="&#x148;" horiz-adv-x="1019" d="M152 0 L352 942 L459 942 L425 783 Q564 971 761 971 Q895 971 965 896 Q1020 837 1020 745 Q1020 680 1002 593 L875 0 L763 0 L881 555 Q902 654 902 716 Q902 776 879 811 Q837 877 734 877 Q653 877 579 836 Q505 795 457 723 Q401 639 365 472 L265 0 L152 0 Z M565 1365 L668 1365 L750 1168 L918 1365 L1021 1365 L791 1092 L681 1092 L565 1365 Z " />
<glyph glyph-name="napostrophe" unicode="&#x149;" horiz-adv-x="1092" d="M419 1138 L396 1028 Q377 938 331.5 893.5 Q286 849 193 829 L206 890 Q286 910 298 969 L302 986 L239 986 L272 1138 L419 1138 Z M226 0 L426 942 L533 942 L499 783 Q638 971 834 971 Q969 971 1039 896 Q1094 837 1094 745 Q1094 681 1075 593 L949 0 L837 0 L955 555 Q976 655 976 716 Q976 776 953 811 Q911 877 808 877 Q727 877 653 836 Q579 795 531 723 Q475 639 439 472 L339 0 L226 0 Z " />
<glyph glyph-name="Eng" unicode="&#x14a;" horiz-adv-x="1319" d="M482 1365 L605 1365 L565 1176 Q634 1262 688 1300 Q805 1382 967 1382 Q1130 1382 1223 1294 Q1315 1207 1315 1066 Q1315 993 1297 909 L1180 358 Q1149 214 1122.5 142 Q1096 70 1051 11 Q935 -142 732 -142 Q685 -142 631 -130 L654 -20 Q705 -36 754 -36 Q904 -36 977 100 Q1019 177 1063 386 L1175 909 Q1191 986 1191 1047 Q1191 1143 1141 1203 Q1075 1282 947 1282 Q822 1282 714 1204 Q623 1139 567 1031 Q511 923 472 742 L314 0 L192 0 L482 1365 Z " />
<glyph glyph-name="eng" unicode="&#x14b;" horiz-adv-x="1019" d="M564 -180 L585 -83 Q611 -89 633 -89 Q703 -89 731.5 -50.5 Q760 -12 788 119 L881 555 Q902 654 902 716 Q902 777 879 811 Q835 877 734 877 Q653 877 579 836 Q505 795 457 723 Q401 639 365 472 L265 0 L152 0 L352 942 L459 942 L425 783 Q466 841 503 874 Q609 971 758 971 Q891 971 962 898 Q1020 839 1020 745 Q1020 680 1002 593 L901 123 Q867 -41 822 -99 Q755 -188 626 -188 Q594 -188 564 -180 Z " />
<glyph glyph-name="Omacron" unicode="&#x14c;" horiz-adv-x="1311" d="M929 1396 Q1127 1396 1247 1260 Q1304 1196 1336.5 1096 Q1369 996 1369 886 Q1369 729 1323 570 Q1277 411 1196 286 Q1096 133 962 51 Q826 -33 670 -33 Q448 -33 330 131 Q231 267 231 466 Q231 677 308 884 Q399 1129 582 1272 Q741 1396 929 1396 Z M931 1290 Q787 1290 654 1182 Q506 1062 427 844 Q357 652 357 458 Q357 271 454 165 Q537 73 669 73 Q817 73 947 179 Q1102 305 1184 547 Q1243 722 1243 896 Q1243 1096 1142 1204 Q1061 1290 931 1290 Z M1264 1588 L1246 1502 L711 1502 L729 1588 L1264 1588 Z " />
<glyph glyph-name="omacron" unicode="&#x14d;" horiz-adv-x="984" d="M686 971 Q851 971 943 869 Q1027 775 1027 612 Q1027 495 989.5 378.5 Q952 262 885 172 Q734 -29 498 -29 Q338 -29 248 64 Q157 159 157 327 Q157 444 193 559 Q229 674 293 762 Q446 971 686 971 Z M679 877 Q588 877 508 827 Q428 777 370 686 Q271 529 271 329 Q271 183 356 114 Q416 65 506 65 Q691 65 809 247 Q857 321 885 418.5 Q913 516 913 609 Q913 752 831 824 Q770 877 679 877 Z M987 1237 L968 1147 L504 1147 L523 1237 L987 1237 Z " />
<glyph glyph-name="Obreve" unicode="&#x14e;" horiz-adv-x="1311" d="M929 1396 Q1127 1396 1247 1260 Q1304 1196 1336.5 1096 Q1369 996 1369 886 Q1369 729 1323 570 Q1277 411 1196 286 Q1096 133 962 51 Q826 -33 670 -33 Q448 -33 330 131 Q231 267 231 466 Q231 677 308 884 Q399 1129 582 1272 Q741 1396 929 1396 Z M931 1290 Q787 1290 654 1182 Q506 1062 427 844 Q357 652 357 458 Q357 271 454 165 Q537 73 669 73 Q817 73 947 179 Q1102 305 1184 547 Q1243 722 1243 896 Q1243 1096 1142 1204 Q1061 1290 931 1290 Z M1268 1734 Q1260 1655 1230 1601 Q1161 1475 1001 1475 Q897 1475 841 1525 Q785 1575 785 1667 Q785 1691 790 1734 L874 1734 Q872 1709 872 1698 Q872 1569 1008 1569 Q1081 1569 1120.5 1605.5 Q1160 1642 1185 1734 L1268 1734 Z " />
<glyph glyph-name="obreve" unicode="&#x14f;" horiz-adv-x="984" d="M686 971 Q851 971 943 869 Q1027 775 1027 612 Q1027 495 989.5 378.5 Q952 262 885 172 Q734 -29 498 -29 Q338 -29 248 64 Q157 159 157 327 Q157 444 193 559 Q229 674 293 762 Q446 971 686 971 Z M679 877 Q588 877 508 827 Q428 777 370 686 Q271 529 271 329 Q271 183 356 114 Q416 65 506 65 Q691 65 809 247 Q857 321 885 418.5 Q913 516 913 609 Q913 752 831 824 Q770 877 679 877 Z M999 1365 Q991 1281 963 1226 Q897 1092 748 1092 Q652 1092 600 1144.5 Q548 1197 548 1294 Q548 1322 553 1365 L631 1365 Q629 1340 629 1326 Q629 1186 756 1186 Q823 1186 860.5 1226.5 Q898 1267 922 1365 L999 1365 Z " />
<glyph glyph-name="Ohungarumlaut" unicode="&#x150;" horiz-adv-x="1311" d="M929 1396 Q1127 1396 1247 1260 Q1304 1196 1336.5 1096 Q1369 996 1369 886 Q1369 729 1323 570 Q1277 411 1196 286 Q1096 133 962 51 Q826 -33 670 -33 Q448 -33 330 131 Q231 267 231 466 Q231 677 308 884 Q399 1129 582 1272 Q741 1396 929 1396 Z M931 1290 Q787 1290 654 1182 Q506 1062 427 844 Q357 652 357 458 Q357 271 454 165 Q537 73 669 73 Q817 73 947 179 Q1102 305 1184 547 Q1243 722 1243 896 Q1243 1096 1142 1204 Q1061 1290 931 1290 Z M1135 1737 L878 1479 L773 1479 L1008 1737 L1135 1737 Z M1380 1737 L1124 1479 L1019 1479 L1254 1737 L1380 1737 Z " />
<glyph glyph-name="ohungarumlaut" unicode="&#x151;" horiz-adv-x="984" d="M686 971 Q851 971 943 869 Q1027 775 1027 612 Q1027 495 989.5 378.5 Q952 262 885 172 Q734 -29 498 -29 Q338 -29 248 64 Q157 159 157 327 Q157 444 193 559 Q229 674 293 762 Q446 971 686 971 Z M679 877 Q588 877 508 827 Q428 777 370 686 Q271 529 271 329 Q271 183 356 114 Q416 65 506 65 Q691 65 809 247 Q857 321 885 418.5 Q913 516 913 609 Q913 752 831 824 Q770 877 679 877 Z M894 1365 L658 1092 L559 1092 L780 1365 L894 1365 Z M1122 1365 L886 1092 L787 1092 L1008 1365 L1122 1365 Z " />
<glyph glyph-name="Racute" unicode="&#x154;" horiz-adv-x="1220" d="M192 0 L482 1365 L919 1365 Q1088 1365 1184 1283 Q1280 1201 1280 1057 Q1280 894 1192 788.5 Q1104 683 941 651 Q997 632 1027 610 Q1112 551 1112 441 Q1112 390 1091 251 Q1072 129 1072 75 Q1072 35 1087 0 L949 0 Q937 36 937 69 Q937 112 963 277 Q977 369 977 427 Q977 522 901.5 566.5 Q826 611 667 611 L444 611 L314 0 L192 0 Z M466 714 L746 714 Q854 714 919.5 731.5 Q985 749 1035 791 Q1089 836 1121 906.5 Q1153 977 1153 1050 Q1153 1259 899 1259 L582 1259 L466 714 Z M1163 1737 L906 1479 L801 1479 L1036 1737 L1163 1737 Z " />
<glyph glyph-name="racute" unicode="&#x155;" horiz-adv-x="588" d="M152 0 L352 942 L465 942 L422 738 Q490 860 577 915.5 Q664 971 787 971 Q791 971 801 971 L777 853 Q762 853 754 853 Q610 853 501 744 Q444 687 411 610 Q378 533 347 386 L265 0 L152 0 Z M879 1365 L643 1092 L540 1092 L761 1365 L879 1365 Z " />
<glyph glyph-name="Rcommaaccent" unicode="&#x156;" horiz-adv-x="1220" d="M192 0 L482 1365 L919 1365 Q1088 1365 1184 1283 Q1280 1201 1280 1057 Q1280 894 1192 788.5 Q1104 683 941 651 Q997 632 1027 610 Q1112 551 1112 441 Q1112 390 1091 251 Q1072 129 1072 75 Q1072 35 1087 0 L949 0 Q937 36 937 69 Q937 112 963 277 Q977 369 977 427 Q977 522 901.5 566.5 Q826 611 667 611 L444 611 L314 0 L192 0 Z M466 714 L746 714 Q854 714 919.5 731.5 Q985 749 1035 791 Q1089 836 1121 906.5 Q1153 977 1153 1050 Q1153 1259 899 1259 L582 1259 L466 714 Z M671 -95 L648 -205 Q629 -296 585.5 -340.5 Q542 -385 454 -404 L467 -343 Q542 -324 555 -265 L558 -247 L500 -247 L532 -95 L671 -95 Z " />
<glyph glyph-name="rcommaaccent" unicode="&#x157;" horiz-adv-x="588" d="M152 0 L352 942 L465 942 L422 738 Q490 860 577 915.5 Q664 971 787 971 Q791 971 801 971 L777 853 Q762 853 754 853 Q610 853 501 744 Q444 687 411 610 Q378 533 347 386 L265 0 L152 0 Z M271 -95 L248 -205 Q229 -296 185.5 -340.5 Q142 -385 54 -404 L67 -343 Q142 -324 155 -265 L158 -247 L100 -247 L132 -95 L271 -95 Z " />
<glyph glyph-name="Rcaron" unicode="&#x158;" horiz-adv-x="1220" d="M192 0 L482 1365 L919 1365 Q1088 1365 1184 1283 Q1280 1201 1280 1057 Q1280 894 1192 788.5 Q1104 683 941 651 Q997 632 1027 610 Q1112 551 1112 441 Q1112 390 1091 251 Q1072 129 1072 75 Q1072 35 1087 0 L949 0 Q937 36 937 69 Q937 112 963 277 Q977 369 977 427 Q977 522 901.5 566.5 Q826 611 667 611 L444 611 L314 0 L192 0 Z M466 714 L746 714 Q854 714 919.5 731.5 Q985 749 1035 791 Q1089 836 1121 906.5 Q1153 977 1153 1050 Q1153 1259 899 1259 L582 1259 L466 714 Z M658 1734 L766 1734 L874 1544 L1064 1734 L1173 1734 L918 1475 L805 1475 L658 1734 Z " />
<glyph glyph-name="rcaron" unicode="&#x159;" horiz-adv-x="588" d="M152 0 L352 942 L465 942 L422 738 Q490 860 577 915.5 Q664 971 787 971 Q791 971 801 971 L777 853 Q762 853 754 853 Q610 853 501 744 Q444 687 411 610 Q378 533 347 386 L265 0 L152 0 Z M423 1365 L526 1365 L608 1168 L776 1365 L879 1365 L649 1092 L539 1092 L423 1365 Z " />
<glyph glyph-name="Sacute" unicode="&#x15a;" horiz-adv-x="1076" d="M170 383 L287 383 Q285 351 285 334 Q285 230 345 161 Q421 75 578 75 Q754 75 857 179 Q941 264 941 384 Q941 470 898 523.5 Q855 577 755 614 L584 677 Q319 776 319 1016 Q319 1208 464 1310 Q586 1397 772 1397 Q959 1397 1062 1312.5 Q1165 1228 1165 1075 Q1165 1060 1164 1032 L1037 1032 Q1038 1140 1005 1190 Q938 1290 759 1290 Q641 1290 559 1239 Q443 1167 443 1024 Q443 937 492 878.5 Q541 820 647 780 L816 717 Q1073 622 1073 383 Q1073 220 948 101 Q809 -33 580 -33 Q389 -33 280 58 Q167 154 167 312 Q167 340 170 383 Z M1093 1737 L836 1479 L731 1479 L966 1737 L1093 1737 Z " />
<glyph glyph-name="sacute" unicode="&#x15b;" horiz-adv-x="856" d="M129 265 L247 265 Q246 247 246 234 Q246 155 303.5 110 Q361 65 461 65 Q566 65 632 116 Q704 171 704 257 Q704 312 675.5 345 Q647 378 576 406 L432 464 Q330 505 282.5 562 Q235 619 235 702 Q235 832 339 906 Q429 971 568 971 Q733 971 823 889 Q881 836 881 748 Q881 736 879 713 L761 713 Q761 724 761 737 Q761 803 710 841 Q659 879 570 879 Q485 879 425 842 Q350 795 350 703 Q350 608 460 566 L630 501 Q819 429 819 263 Q819 141 734 61 Q637 -29 457 -29 Q315 -29 226 30 Q179 60 152.5 110.5 Q126 161 126 218 Q126 235 129 265 Z M883 1365 L647 1092 L544 1092 L765 1365 L883 1365 Z " />
<glyph glyph-name="Scircumflex" unicode="&#x15c;" horiz-adv-x="1076" d="M170 383 L287 383 Q285 351 285 334 Q285 230 345 161 Q421 75 578 75 Q754 75 857 179 Q941 264 941 384 Q941 470 898 523.5 Q855 577 755 614 L584 677 Q319 776 319 1016 Q319 1208 464 1310 Q586 1397 772 1397 Q959 1397 1062 1312.5 Q1165 1228 1165 1075 Q1165 1060 1164 1032 L1037 1032 Q1038 1140 1005 1190 Q938 1290 759 1290 Q641 1290 559 1239 Q443 1167 443 1024 Q443 937 492 878.5 Q541 820 647 780 L816 717 Q1073 622 1073 383 Q1073 220 948 101 Q809 -33 580 -33 Q389 -33 280 58 Q167 154 167 312 Q167 340 170 383 Z M1074 1475 L966 1475 L858 1664 L668 1475 L559 1475 L814 1734 L926 1734 L1074 1475 Z " />
<glyph glyph-name="scircumflex" unicode="&#x15d;" horiz-adv-x="856" d="M129 265 L247 265 Q246 247 246 234 Q246 155 303.5 110 Q361 65 461 65 Q566 65 632 116 Q704 171 704 257 Q704 312 675.5 345 Q647 378 576 406 L432 464 Q330 505 282.5 562 Q235 619 235 702 Q235 832 339 906 Q429 971 568 971 Q733 971 823 889 Q881 836 881 748 Q881 736 879 713 L761 713 Q761 724 761 737 Q761 803 710 841 Q659 879 570 879 Q485 879 425 842 Q350 795 350 703 Q350 608 460 566 L630 501 Q819 429 819 263 Q819 141 734 61 Q637 -29 457 -29 Q315 -29 226 30 Q179 60 152.5 110.5 Q126 161 126 218 Q126 235 129 265 Z M855 1092 L752 1092 L670 1289 L502 1092 L398 1092 L629 1365 L738 1365 L855 1092 Z " />
<glyph glyph-name="Scedilla" unicode="&#x15e;" horiz-adv-x="1076" d="M592 -32 L545 -108 Q567 -100 592 -100 Q650 -100 686 -133 Q722 -166 722 -220 Q722 -293 667.5 -341.5 Q613 -390 531 -390 Q467 -390 426.5 -363.5 Q386 -337 386 -295 Q386 -292 387 -286 L480 -286 Q480 -327 531 -327 Q569 -327 596 -296.5 Q623 -266 623 -222 Q623 -163 564 -163 Q524 -163 502 -194 L413 -194 L514 -29 Q398 -15 329 25 Q252 69 209.5 144.5 Q167 220 167 312 Q167 340 170 383 L287 383 Q285 351 285 334 Q285 230 345 162 Q421 76 578 76 Q754 76 857 179 Q941 265 941 384 Q941 471 898 524 Q855 577 755 614 L584 677 Q319 776 319 1016 Q319 1208 464 1310 Q586 1397 772 1397 Q959 1397 1062 1312.5 Q1165 1228 1165 1075 Q1165 1060 1164 1032 L1037 1032 Q1038 1140 1005 1190 Q938 1290 759 1290 Q641 1290 559 1239 Q443 1167 443 1024 Q443 937 492 878.5 Q541 820 647 780 L816 717 Q1073 622 1073 383 Q1073 207 936.5 89 Q800 -29 592 -32 Z " />
<glyph glyph-name="scedilla" unicode="&#x15f;" horiz-adv-x="856" d="M459 -29 L412 -108 Q435 -100 458 -100 Q510 -100 541.5 -131 Q573 -162 573 -214 Q573 -288 519 -339 Q465 -390 386 -390 Q328 -390 291 -363.5 Q254 -337 254 -295 Q254 -291 254 -286 L340 -286 Q340 -327 397 -327 Q435 -327 460 -296 Q485 -265 485 -220 Q485 -163 431 -163 Q387 -163 363 -194 L281 -194 L382 -24 Q323 -17 272 5 Q202 36 164 91.5 Q126 147 126 218 Q126 235 129 265 L247 265 Q246 247 246 234 Q246 156 303.5 111 Q361 66 461 66 Q566 66 632 117 Q704 172 704 257 Q704 312 676 345 Q648 378 576 406 L432 464 Q330 505 282.5 562 Q235 619 235 702 Q235 832 339 906 Q429 971 568 971 Q733 971 823 889 Q881 836 881 748 Q881 736 879 713 L761 713 Q761 724 761 737 Q761 803 710 841 Q659 879 570 879 Q485 879 425 842 Q350 795 350 703 Q350 608 460 566 L630 501 Q819 429 819 263 Q819 131 724 52.5 Q629 -26 466 -29 L459 -29 Z " />
<glyph glyph-name="Scaron" unicode="&#x160;" horiz-adv-x="1076" d="M170 383 L287 383 Q285 351 285 334 Q285 230 345 161 Q421 75 578 75 Q754 75 857 179 Q941 264 941 384 Q941 470 898 523.5 Q855 577 755 614 L584 677 Q319 776 319 1016 Q319 1208 464 1310 Q586 1397 772 1397 Q959 1397 1062 1312.5 Q1165 1228 1165 1075 Q1165 1060 1164 1032 L1037 1032 Q1038 1140 1005 1190 Q938 1290 759 1290 Q641 1290 559 1239 Q443 1167 443 1024 Q443 937 492 878.5 Q541 820 647 780 L816 717 Q1073 622 1073 383 Q1073 220 948 101 Q809 -33 580 -33 Q389 -33 280 58 Q167 154 167 312 Q167 340 170 383 Z M601 1734 L709 1734 L817 1544 L1007 1734 L1116 1734 L861 1475 L748 1475 L601 1734 Z " />
<glyph glyph-name="scaron" unicode="&#x161;" horiz-adv-x="856" d="M129 265 L247 265 Q246 247 246 234 Q246 155 303.5 110 Q361 65 461 65 Q566 65 632 116 Q704 171 704 257 Q704 312 675.5 345 Q647 378 576 406 L432 464 Q330 505 282.5 562 Q235 619 235 702 Q235 832 339 906 Q429 971 568 971 Q733 971 823 889 Q881 836 881 748 Q881 736 879 713 L761 713 Q761 724 761 737 Q761 803 710 841 Q659 879 570 879 Q485 879 425 842 Q350 795 350 703 Q350 608 460 566 L630 501 Q819 429 819 263 Q819 141 734 61 Q637 -29 457 -29 Q315 -29 226 30 Q179 60 152.5 110.5 Q126 161 126 218 Q126 235 129 265 Z M444 1365 L547 1365 L629 1168 L797 1365 L900 1365 L670 1092 L560 1092 L444 1365 Z " />
<glyph glyph-name="Tcommaaccent" unicode="&#x162;" horiz-adv-x="1006" d="M565 0 L443 0 L710 1259 L313 1259 L336 1365 L1251 1365 L1229 1259 L833 1259 L565 0 Z M554 -95 L531 -205 Q512 -296 468.5 -340.5 Q425 -385 337 -404 L350 -343 Q425 -324 438 -265 L441 -247 L383 -247 L415 -95 L554 -95 Z " />
<glyph glyph-name="tcommaaccent" unicode="&#x163;" horiz-adv-x="536" d="M200 848 L220 942 L373 942 L411 1119 L529 1242 L549 1242 L485 942 L667 942 L647 848 L465 848 L337 244 Q321 169 321 142 Q321 70 406 70 Q441 70 485 87 L465 -8 Q415 -25 377 -25 Q300 -25 253.5 17 Q207 59 207 128 Q207 162 227 255 L353 848 L200 848 Z M382 -95 L359 -205 Q340 -296 296.5 -340.5 Q253 -385 165 -404 L178 -343 Q253 -324 266 -265 L269 -247 L211 -247 L243 -95 L382 -95 Z " />
<glyph glyph-name="Tcaron" unicode="&#x164;" horiz-adv-x="1006" d="M565 0 L443 0 L710 1259 L313 1259 L336 1365 L1251 1365 L1229 1259 L833 1259 L565 0 Z M608 1734 L716 1734 L824 1544 L1014 1734 L1123 1734 L868 1475 L755 1475 L608 1734 Z " />
<glyph glyph-name="tcaron" unicode="&#x165;" horiz-adv-x="561" d="M201 848 L221 942 L374 942 L412 1119 L530 1242 L550 1242 L486 942 L668 942 L648 848 L466 848 L338 244 Q322 169 322 142 Q322 70 407 70 Q442 70 486 87 L466 -8 Q416 -25 378 -25 Q301 -25 254.5 17 Q208 59 208 128 Q208 162 228 255 L354 848 L201 848 Z M834 1371 L811 1261 Q791 1171 748 1126.5 Q705 1082 617 1062 L630 1123 Q705 1143 718 1202 L721 1219 L663 1219 L695 1371 L834 1371 Z " />
<glyph glyph-name="Tbar" unicode="&#x166;" horiz-adv-x="1006" d="M629 878 L431 878 L450 968 L648 968 L710 1259 L313 1259 L336 1365 L1251 1365 L1229 1259 L833 1259 L771 968 L969 968 L950 878 L752 878 L565 0 L443 0 L629 878 Z " />
<glyph glyph-name="tbar" unicode="&#x167;" horiz-adv-x="560" d="M429 669 L339 244 Q323 170 323 142 Q323 70 409 70 Q444 70 487 87 L467 -8 Q417 -25 379 -25 Q302 -25 255.5 17 Q209 59 209 128 Q209 163 229 255 L317 669 L164 669 L184 763 L337 763 L355 848 L202 848 L222 942 L375 942 L413 1119 L531 1242 L551 1242 L487 942 L669 942 L649 848 L467 848 L449 763 L631 763 L611 669 L429 669 Z " />
<glyph glyph-name="Utilde" unicode="&#x168;" horiz-adv-x="1241" d="M461 1365 L584 1365 L410 551 Q381 412 381 343 Q381 234 435 168 Q512 73 675 73 Q877 73 970 222 Q998 267 1013.5 319.5 Q1029 372 1066 552 L1239 1365 L1361 1365 L1188 551 Q1150 346 1129 288 Q1069 117 952 41 Q840 -33 671 -33 Q463 -33 350 74 Q257 164 257 322 Q257 405 289 555 L461 1365 Z M1257 1703 Q1221 1600 1179 1555 Q1137 1510 1075 1510 Q1038 1510 1011.5 1521.5 Q985 1533 944 1566 Q892 1608 857 1608 Q794 1608 752 1509 L672 1509 Q701 1603 750.5 1653 Q800 1703 864 1703 Q921 1703 983 1653 Q1041 1605 1070 1605 Q1132 1605 1175 1703 L1257 1703 Z " />
<glyph glyph-name="utilde" unicode="&#x169;" horiz-adv-x="1019" d="M1068 942 L867 0 L761 0 L795 159 Q723 59 645 15 Q567 -29 462 -29 Q328 -29 258 48 Q201 110 201 211 Q201 268 218 349 L344 942 L457 942 L339 387 Q317 285 317 223 Q317 165 342 129 Q386 65 487 65 Q569 65 642 106 Q715 147 763 219 Q819 303 855 470 L955 942 L1068 942 Z M1047 1318 Q1012 1207 972 1159.5 Q932 1112 872 1112 Q836 1112 811 1123.5 Q786 1135 745 1171 Q695 1216 662 1216 Q601 1216 561 1111 L483 1111 Q510 1210 558.5 1264 Q607 1318 668 1318 Q723 1318 783 1265 Q839 1214 867 1214 Q927 1214 968 1318 L1047 1318 Z " />
<glyph glyph-name="Umacron" unicode="&#x16a;" horiz-adv-x="1241" d="M461 1365 L584 1365 L410 551 Q381 412 381 343 Q381 234 435 168 Q512 73 675 73 Q877 73 970 222 Q998 267 1013.5 319.5 Q1029 372 1066 552 L1239 1365 L1361 1365 L1188 551 Q1150 346 1129 288 Q1069 117 952 41 Q840 -33 671 -33 Q463 -33 350 74 Q257 164 257 322 Q257 405 289 555 L461 1365 Z M1222 1588 L1204 1502 L669 1502 L687 1588 L1222 1588 Z " />
<glyph glyph-name="umacron" unicode="&#x16b;" horiz-adv-x="1019" d="M1068 942 L867 0 L761 0 L795 159 Q723 59 645 15 Q567 -29 462 -29 Q328 -29 258 48 Q201 110 201 211 Q201 268 218 349 L344 942 L457 942 L339 387 Q317 285 317 223 Q317 165 342 129 Q386 65 487 65 Q569 65 642 106 Q715 147 763 219 Q819 303 855 470 L955 942 L1068 942 Z M1004 1237 L985 1147 L521 1147 L540 1237 L1004 1237 Z " />
<glyph glyph-name="Ubreve" unicode="&#x16c;" horiz-adv-x="1241" d="M461 1365 L584 1365 L410 551 Q381 412 381 343 Q381 234 435 168 Q512 73 675 73 Q877 73 970 222 Q998 267 1013.5 319.5 Q1029 372 1066 552 L1239 1365 L1361 1365 L1188 551 Q1150 346 1129 288 Q1069 117 952 41 Q840 -33 671 -33 Q463 -33 350 74 Q257 164 257 322 Q257 405 289 555 L461 1365 Z M1213 1734 Q1205 1655 1175 1601 Q1106 1475 946 1475 Q842 1475 786 1525 Q730 1575 730 1667 Q730 1691 735 1734 L819 1734 Q817 1709 817 1698 Q817 1569 953 1569 Q1026 1569 1065.5 1605.5 Q1105 1642 1130 1734 L1213 1734 Z " />
<glyph glyph-name="ubreve" unicode="&#x16d;" horiz-adv-x="1019" d="M1068 942 L867 0 L761 0 L795 159 Q723 59 645 15 Q567 -29 462 -29 Q328 -29 258 48 Q201 110 201 211 Q201 268 218 349 L344 942 L457 942 L339 387 Q317 285 317 223 Q317 165 342 129 Q386 65 487 65 Q569 65 642 106 Q715 147 763 219 Q819 303 855 470 L955 942 L1068 942 Z M1007 1365 Q998 1281 971 1226 Q904 1092 755 1092 Q659 1092 607 1144.5 Q555 1197 555 1294 Q555 1322 561 1365 L638 1365 Q636 1341 636 1326 Q636 1186 763 1186 Q831 1186 868.5 1226.5 Q906 1267 929 1365 L1007 1365 Z " />
<glyph glyph-name="Uring" unicode="&#x16e;" horiz-adv-x="1241" d="M461 1365 L584 1365 L410 551 Q381 412 381 343 Q381 234 435 168 Q512 73 675 73 Q877 73 970 222 Q998 267 1013.5 319.5 Q1029 372 1066 552 L1239 1365 L1361 1365 L1188 551 Q1150 346 1129 288 Q1069 117 952 41 Q840 -33 671 -33 Q463 -33 350 74 Q257 164 257 322 Q257 405 289 555 L461 1365 Z M949 1727 Q904 1727 873 1695 Q842 1663 842 1617 Q842 1573 873 1541 Q904 1509 947 1509 Q991 1509 1021.5 1540.5 Q1052 1572 1052 1618 Q1052 1663 1021.5 1695 Q991 1727 949 1727 Z M949 1803 Q1025 1803 1079.5 1748.5 Q1134 1694 1134 1618 Q1134 1541 1079 1487.5 Q1024 1434 946 1434 Q869 1434 814 1488 Q759 1542 759 1617 Q759 1695 814 1749 Q869 1803 949 1803 Z " />
<glyph glyph-name="uring" unicode="&#x16f;" horiz-adv-x="1019" d="M1068 942 L867 0 L761 0 L795 159 Q723 59 645 15 Q567 -29 462 -29 Q328 -29 258 48 Q201 110 201 211 Q201 268 218 349 L344 942 L457 942 L339 387 Q317 285 317 223 Q317 165 342 129 Q386 65 487 65 Q569 65 642 106 Q715 147 763 219 Q819 303 855 470 L955 942 L1068 942 Z M760 1358 Q716 1358 686 1326.5 Q656 1295 656 1249 Q656 1204 686 1172 Q716 1140 758 1140 Q800 1140 830 1171.5 Q860 1203 860 1248 Q860 1293 830.5 1325.5 Q801 1358 760 1358 Z M761 1434 Q836 1434 889.5 1379.5 Q943 1325 943 1249 Q943 1173 889 1119 Q835 1065 758 1065 Q681 1065 627 1119 Q573 1173 573 1249 Q573 1327 627.5 1380.5 Q682 1434 761 1434 Z " />
<glyph glyph-name="Uhungarumlaut" unicode="&#x170;" horiz-adv-x="1241" d="M461 1365 L584 1365 L410 551 Q381 412 381 343 Q381 234 435 168 Q512 73 675 73 Q877 73 970 222 Q998 267 1013.5 319.5 Q1029 372 1066 552 L1239 1365 L1361 1365 L1188 551 Q1150 346 1129 288 Q1069 117 952 41 Q840 -33 671 -33 Q463 -33 350 74 Q257 164 257 322 Q257 405 289 555 L461 1365 Z M1089 1737 L832 1479 L727 1479 L962 1737 L1089 1737 Z M1334 1737 L1078 1479 L973 1479 L1208 1737 L1334 1737 Z " />
<glyph glyph-name="uhungarumlaut" unicode="&#x171;" horiz-adv-x="1019" d="M1068 942 L867 0 L761 0 L795 159 Q723 59 645 15 Q567 -29 462 -29 Q328 -29 258 48 Q201 110 201 211 Q201 268 218 349 L344 942 L457 942 L339 387 Q317 285 317 223 Q317 165 342 129 Q386 65 487 65 Q569 65 642 106 Q715 147 763 219 Q819 303 855 470 L955 942 L1068 942 Z M914 1365 L678 1092 L579 1092 L800 1365 L914 1365 Z M1142 1365 L906 1092 L807 1092 L1028 1365 L1142 1365 Z " />
<glyph glyph-name="Uogonek" unicode="&#x172;" horiz-adv-x="1241" d="M856 -5 Q777 -69 746 -113.5 Q715 -158 715 -205 Q715 -237 738.5 -256 Q762 -275 802 -275 Q834 -275 885 -257 L870 -329 Q808 -351 755 -351 Q612 -351 612 -229 Q612 -117 735 -30 Q693 -33 666 -33 Q465 -33 350 74 Q257 162 257 322 Q257 405 289 555 L461 1365 L584 1365 L410 551 Q381 412 381 344 Q381 234 435 168 Q512 74 675 74 Q877 74 970 223 Q998 268 1013.5 320 Q1029 372 1066 552 L1239 1365 L1361 1365 L1188 551 Q1151 352 1127 278.5 Q1103 205 1053 138 Q977 35 856 -5 Z " />
<glyph glyph-name="uogonek" unicode="&#x173;" horiz-adv-x="1019" d="M867 0 L861 -5 Q727 -118 727 -205 Q727 -275 810 -275 Q840 -275 890 -257 L875 -329 Q815 -351 765 -351 Q628 -351 628 -229 Q628 -99 791 0 L761 0 L795 159 Q723 59 645 15 Q567 -29 462 -29 Q328 -29 258 48 Q201 110 201 211 Q201 268 218 349 L344 942 L457 942 L339 387 Q317 285 317 223 Q317 165 342 129 Q386 65 487 65 Q569 65 642 106 Q715 147 763 219 Q819 303 855 470 L955 942 L1068 942 L867 0 Z " />
<glyph glyph-name="Wcircumflex" unicode="&#x174;" horiz-adv-x="1518" d="M346 0 L322 1365 L446 1365 L456 193 L981 1365 L1116 1365 L1146 193 L1655 1365 L1776 1365 L1171 0 L1042 0 L1010 1183 L475 0 L346 0 Z M1310 1475 L1201 1475 L1094 1664 L903 1475 L794 1475 L1050 1734 L1162 1734 L1310 1475 Z " />
<glyph glyph-name="wcircumflex" unicode="&#x175;" horiz-adv-x="1323" d="M325 0 L241 942 L369 942 L426 160 L799 942 L929 942 L972 162 L1360 942 L1482 942 L999 0 L872 0 L826 770 L455 0 L325 0 Z M1095 1092 L992 1092 L910 1289 L742 1092 L638 1092 L869 1365 L978 1365 L1095 1092 Z " />
<glyph glyph-name="Ycircumflex" unicode="&#x176;" horiz-adv-x="1018" d="M449 0 L569 565 L289 1365 L426 1365 L654 683 L1171 1365 L1310 1365 L691 565 L571 0 L449 0 Z M1076 1475 L968 1475 L860 1664 L670 1475 L561 1475 L816 1734 L929 1734 L1076 1475 Z " />
<glyph glyph-name="ycircumflex" unicode="&#x177;" horiz-adv-x="820" d="M29 -340 L49 -244 Q59 -246 64 -248 Q96 -257 123 -257 Q178 -257 215 -227.5 Q252 -198 296 -119 L366 7 L214 942 L339 942 L455 160 L883 942 L1007 942 L394 -145 Q331 -256 282 -298 Q215 -355 115 -355 Q71 -355 29 -340 Z M860 1092 L757 1092 L675 1289 L507 1092 L403 1092 L634 1365 L743 1365 L860 1092 Z " />
<glyph glyph-name="Zacute" unicode="&#x179;" horiz-adv-x="1034" d="M75 0 L100 115 L1087 1259 L397 1259 L420 1365 L1244 1365 L1220 1253 L232 106 L990 106 L968 0 L75 0 Z M1122 1737 L865 1479 L760 1479 L995 1737 L1122 1737 Z " />
<glyph glyph-name="zacute" unicode="&#x17a;" horiz-adv-x="784" d="M956 942 L939 862 L199 94 L798 94 L778 0 L38 0 L58 92 L789 848 L259 848 L279 942 L956 942 Z M928 1365 L692 1092 L589 1092 L810 1365 L928 1365 Z " />
<glyph glyph-name="Zdotaccent" unicode="&#x17b;" horiz-adv-x="1034" d="M75 0 L100 115 L1087 1259 L397 1259 L420 1365 L1244 1365 L1220 1253 L232 106 L990 106 L968 0 L75 0 Z M782 1488 L823 1679 L941 1679 L901 1488 L782 1488 Z " />
<glyph glyph-name="zdotaccent" unicode="&#x17c;" horiz-adv-x="784" d="M956 942 L939 862 L199 94 L798 94 L778 0 L38 0 L58 92 L789 848 L259 848 L279 942 L956 942 Z M592 1106 L633 1297 L747 1297 L707 1106 L592 1106 Z " />
<glyph glyph-name="Zcaron" unicode="&#x17d;" horiz-adv-x="1034" d="M75 0 L100 115 L1087 1259 L397 1259 L420 1365 L1244 1365 L1220 1253 L232 106 L990 106 L968 0 L75 0 Z M636 1734 L744 1734 L852 1544 L1042 1734 L1151 1734 L896 1475 L783 1475 L636 1734 Z " />
<glyph glyph-name="zcaron" unicode="&#x17e;" horiz-adv-x="784" d="M956 942 L939 862 L199 94 L798 94 L778 0 L38 0 L58 92 L789 848 L259 848 L279 942 L956 942 Z M466 1365 L569 1365 L651 1168 L819 1365 L922 1365 L692 1092 L582 1092 L466 1365 Z " />
<glyph glyph-name="longs" unicode="&#x17f;" horiz-adv-x="463" d="M150 0 L382 1092 Q405 1198 417.5 1234 Q430 1270 455 1305 Q523 1397 647 1397 Q695 1397 754 1376 L733 1276 Q686 1296 642 1296 Q579 1296 550.5 1258 Q522 1220 497 1105 L263 0 L150 0 Z " />
<glyph glyph-name="uni01CD" unicode="&#x1cd;" horiz-adv-x="1099" d="M776 1365 L909 1365 L1073 0 L944 0 L900 430 L389 430 L159 0 L27 0 L776 1365 Z M445 535 L889 535 L816 1230 L445 535 Z M651 1734 L760 1734 L867 1544 L1058 1734 L1167 1734 L911 1475 L799 1475 L651 1734 Z " />
<glyph glyph-name="uni01CE" unicode="&#x1ce;" horiz-adv-x="931" d="M916 88 L897 -1 Q865 -10 839 -10 Q783 -10 748 20.5 Q713 51 713 100 Q713 121 722 166 Q575 -29 378 -29 Q259 -29 188 41 Q125 104 125 210 Q125 421 372 508 Q446 534 531.5 544 Q617 554 804 559 L831 696 Q836 719 836 739 Q836 877 627 877 Q451 877 398 761 L284 761 Q294 819 352 876 Q450 971 636 971 Q787 971 867.5 912 Q948 853 948 742 Q948 709 938 660 L844 219 Q829 153 829 138 Q829 86 884 86 Q889 86 916 88 Z M786 477 Q571 468 460 443 Q357 419 298.5 359.5 Q240 300 240 220 Q240 148 282.5 106.5 Q325 65 398 65 Q466 65 537.5 105 Q609 145 667 216 Q703 260 734 319 Q765 378 774 420 L786 477 Z M528 1365 L631 1365 L713 1168 L881 1365 L985 1365 L754 1092 L645 1092 L528 1365 Z " />
<glyph glyph-name="uni01D2" unicode="&#x1d2;" horiz-adv-x="984" d="M686 971 Q851 971 943 869 Q1027 775 1027 612 Q1027 495 989.5 378.5 Q952 262 885 172 Q734 -29 498 -29 Q338 -29 248 64 Q157 159 157 327 Q157 444 193 559 Q229 674 293 762 Q446 971 686 971 Z M679 877 Q588 877 508 827 Q428 777 370 686 Q271 529 271 329 Q271 183 356 114 Q416 65 506 65 Q691 65 809 247 Q857 321 885 418.5 Q913 516 913 609 Q913 752 831 824 Q770 877 679 877 Z M558 1365 L661 1365 L743 1168 L911 1365 L1014 1365 L784 1092 L674 1092 L558 1365 Z " />
<glyph glyph-name="uni01D3" unicode="&#x1d3;" horiz-adv-x="1241" d="M461 1365 L584 1365 L410 551 Q381 412 381 343 Q381 234 435 168 Q512 73 675 73 Q877 73 970 222 Q998 267 1013.5 319.5 Q1029 372 1066 552 L1239 1365 L1361 1365 L1188 551 Q1150 346 1129 288 Q1069 117 952 41 Q840 -33 671 -33 Q463 -33 350 74 Q257 164 257 322 Q257 405 289 555 L461 1365 Z M728 1734 L836 1734 L944 1544 L1134 1734 L1243 1734 L988 1475 L875 1475 L728 1734 Z " />
<glyph glyph-name="uni01D4" unicode="&#x1d4;" horiz-adv-x="1019" d="M1068 942 L867 0 L761 0 L795 159 Q723 59 645 15 Q567 -29 462 -29 Q328 -29 258 48 Q201 110 201 211 Q201 268 218 349 L344 942 L457 942 L339 387 Q317 285 317 223 Q317 165 342 129 Q386 65 487 65 Q569 65 642 106 Q715 147 763 219 Q819 303 855 470 L955 942 L1068 942 Z M565 1365 L668 1365 L750 1168 L918 1365 L1021 1365 L791 1092 L681 1092 L565 1365 Z " />
<glyph glyph-name="Gcaron" unicode="&#x1e6;" horiz-adv-x="1315" d="M1155 0 L1053 0 L1101 228 Q1030 133 969 81 Q837 -33 670 -33 Q472 -33 357 99 Q230 245 230 476 Q230 675 309 885 Q403 1135 584 1275 Q743 1397 940 1397 Q1092 1397 1195 1325 Q1272 1271 1306 1198 Q1340 1125 1346 1004 L1222 1004 Q1214 1139 1138.5 1214.5 Q1063 1290 936 1290 Q680 1290 505 1004 Q436 892 396.5 746.5 Q357 601 357 459 Q357 367 384.5 286 Q412 205 459 157 Q542 73 677 73 Q814 73 934 175 Q1024 251 1075.5 342.5 Q1127 434 1168 588 L784 588 L807 694 L1303 694 L1155 0 Z M781 1734 L889 1734 L996 1544 L1187 1734 L1296 1734 L1040 1475 L928 1475 L781 1734 Z " />
<glyph glyph-name="gcaron" unicode="&#x1e7;" horiz-adv-x="1038" d="M974 942 L1087 942 L915 133 Q886 -16 867 -67 Q813 -215 703 -285 Q593 -355 415 -355 Q283 -355 202 -311 Q94 -253 94 -161 Q94 -157 95 -148 L219 -148 Q230 -261 421 -261 Q575 -261 661 -178 Q747 -95 787 92 L810 201 Q758 112 675.5 62 Q593 12 497 12 Q357 12 269 99 Q177 191 177 359 Q177 482 215.5 599.5 Q254 717 321 797 Q467 971 670 971 Q881 971 940 784 L974 942 Z M671 877 Q499 877 390 712 Q345 645 319 550 Q293 455 293 357 Q293 234 353 167 Q409 106 501 106 Q585 106 660 151.5 Q735 197 788 280 Q835 354 863 449.5 Q891 545 891 633 Q891 769 811 832 Q754 877 671 877 Z M540 1365 L643 1365 L725 1168 L893 1365 L997 1365 L766 1092 L657 1092 L540 1365 Z " />
<glyph glyph-name="uni01F5" unicode="&#x1f5;" horiz-adv-x="1038" d="M974 942 L1087 942 L915 133 Q886 -16 867 -67 Q813 -215 703 -285 Q593 -355 415 -355 Q283 -355 202 -311 Q94 -253 94 -161 Q94 -157 95 -148 L219 -148 Q230 -261 421 -261 Q575 -261 661 -178 Q747 -95 787 92 L810 201 Q758 112 675.5 62 Q593 12 497 12 Q357 12 269 99 Q177 191 177 359 Q177 482 215.5 599.5 Q254 717 321 797 Q467 971 670 971 Q881 971 940 784 L974 942 Z M671 877 Q499 877 390 712 Q345 645 319 550 Q293 455 293 357 Q293 234 353 167 Q409 106 501 106 Q585 106 660 151.5 Q735 197 788 280 Q835 354 863 449.5 Q891 545 891 633 Q891 769 811 832 Q754 877 671 877 Z M998 1365 L762 1092 L659 1092 L880 1365 L998 1365 Z " />
<glyph glyph-name="Scommaaccent" unicode="&#x218;" horiz-adv-x="1076" d="M170 383 L287 383 Q285 351 285 334 Q285 230 345 161 Q421 75 578 75 Q754 75 857 179 Q941 264 941 384 Q941 470 898 523.5 Q855 577 755 614 L584 677 Q319 776 319 1016 Q319 1208 464 1310 Q586 1397 772 1397 Q959 1397 1062 1312.5 Q1165 1228 1165 1075 Q1165 1060 1164 1032 L1037 1032 Q1038 1140 1005 1190 Q938 1290 759 1290 Q641 1290 559 1239 Q443 1167 443 1024 Q443 937 492 878.5 Q541 820 647 780 L816 717 Q1073 622 1073 383 Q1073 220 948 101 Q809 -33 580 -33 Q389 -33 280 58 Q167 154 167 312 Q167 340 170 383 Z M614 -95 L591 -205 Q572 -296 528.5 -340.5 Q485 -385 397 -404 L410 -343 Q485 -324 498 -265 L501 -247 L443 -247 L475 -95 L614 -95 Z " />
<glyph glyph-name="scommaaccent" unicode="&#x219;" horiz-adv-x="856" d="M129 265 L247 265 Q246 247 246 234 Q246 155 303.5 110 Q361 65 461 65 Q566 65 632 116 Q704 171 704 257 Q704 312 675.5 345 Q647 378 576 406 L432 464 Q330 505 282.5 562 Q235 619 235 702 Q235 832 339 906 Q429 971 568 971 Q733 971 823 889 Q881 836 881 748 Q881 736 879 713 L761 713 Q761 724 761 737 Q761 803 710 841 Q659 879 570 879 Q485 879 425 842 Q350 795 350 703 Q350 608 460 566 L630 501 Q819 429 819 263 Q819 141 734 61 Q637 -29 457 -29 Q315 -29 226 30 Q179 60 152.5 110.5 Q126 161 126 218 Q126 235 129 265 Z M503 -95 L480 -205 Q461 -296 417.5 -340.5 Q374 -385 286 -404 L299 -343 Q374 -324 387 -265 L390 -247 L332 -247 L364 -95 L503 -95 Z " />
<glyph glyph-name="uni021A" unicode="&#x21a;" horiz-adv-x="1006" d="M565 0 L443 0 L710 1259 L313 1259 L336 1365 L1251 1365 L1229 1259 L833 1259 L565 0 Z M554 -95 L531 -205 Q512 -296 468.5 -340.5 Q425 -385 337 -404 L350 -343 Q425 -324 438 -265 L441 -247 L383 -247 L415 -95 L554 -95 Z " />
<glyph glyph-name="uni021B" unicode="&#x21b;" horiz-adv-x="536" d="M200 848 L220 942 L373 942 L411 1119 L529 1242 L549 1242 L485 942 L667 942 L647 848 L465 848 L337 244 Q321 169 321 142 Q321 70 406 70 Q441 70 485 87 L465 -8 Q415 -25 377 -25 Q300 -25 253.5 17 Q207 59 207 128 Q207 162 227 255 L353 848 L200 848 Z M382 -95 L359 -205 Q340 -296 296.5 -340.5 Q253 -385 165 -404 L178 -343 Q253 -324 266 -265 L269 -247 L211 -247 L243 -95 L382 -95 Z " />
<glyph glyph-name="dotlessj" unicode="&#x237;" horiz-adv-x="467" d="M375 942 L488 942 L278 -44 Q244 -207 199 -266 Q132 -355 2 -355 Q-30 -355 -60 -347 L-39 -250 Q-15 -256 9 -256 Q80 -256 108.5 -218 Q137 -180 165 -48 L375 942 Z " />
<glyph glyph-name="afii57929" unicode="&#x2bc;" horiz-adv-x="487" d="M602 1365 L570 1217 Q539 1070 490 998 Q441 926 350 894 L367 976 Q447 1017 473 1137 L478 1160 L419 1160 L463 1365 L602 1365 Z " />
<glyph glyph-name="uni037E" unicode="&#x37e;" horiz-adv-x="487" d="M355 205 L323 57 Q292 -90 243 -162 Q194 -234 103 -266 L120 -184 Q200 -143 226 -23 L231 0 L172 0 L215 205 L355 205 Z M511 942 L468 737 L329 737 L372 942 L511 942 Z " />
<glyph glyph-name="anoteleia" unicode="&#x387;" horiz-adv-x="476" d="M435 608 L391 403 L256 403 L300 608 L435 608 Z " />
<glyph glyph-name="afii10023" unicode="&#x401;" horiz-adv-x="1084" d="M192 0 L482 1365 L1269 1365 L1247 1259 L582 1259 L476 760 L1098 760 L1075 654 L453 654 L337 106 L1009 106 L986 0 L192 0 Z M999 1488 L1040 1679 L1158 1679 L1118 1488 L999 1488 Z M681 1488 L722 1679 L840 1679 L800 1488 L681 1488 Z " />
<glyph glyph-name="afii10051" unicode="&#x402;" horiz-adv-x="1116" d="M576 -56 Q605 -70 632 -70 Q748 -70 843 71 Q918 184 964 339 Q1010 494 1010 634 Q1010 877 839 877 Q715 877 628 773 Q541 669 499 472 L399 0 L276 0 L544 1259 L246 1259 L269 1365 L1184 1365 L1162 1259 L666 1259 L567 794 Q689 971 861 971 Q979 971 1046 898 Q1128 809 1128 649 Q1128 481 1074 304 Q1020 127 932 6 Q810 -160 633 -160 Q598 -160 557 -145 L576 -56 Z " />
<glyph glyph-name="afii10052" unicode="&#x403;" horiz-adv-x="995" d="M482 1365 L1235 1365 L1212 1259 L582 1259 L314 0 L192 0 L482 1365 Z M1166 1737 L909 1479 L804 1479 L1039 1737 L1166 1737 Z " />
<glyph glyph-name="afii10053" unicode="&#x404;" horiz-adv-x="1229" d="M400 760 L906 760 L883 654 L375 654 Q357 554 357 460 Q357 367 384.5 286 Q412 205 459 157 Q542 73 673 73 Q840 73 974 218 Q1060 311 1107 451 L1231 451 Q1184 287 1090 173 Q920 -33 671 -33 Q471 -33 357 99 Q230 245 230 476 Q230 675 309 884 Q403 1135 584 1275 Q742 1397 935 1397 Q1128 1397 1236 1281 Q1333 1178 1333 1013 Q1333 1007 1333 997 L1208 997 Q1204 1102 1164 1169 Q1093 1290 928 1290 Q756 1290 613 1146.5 Q470 1003 400 760 Z " />
<glyph glyph-name="afii10054" unicode="&#x405;" horiz-adv-x="1076" d="M170 383 L287 383 Q285 351 285 334 Q285 230 345 161 Q421 75 578 75 Q754 75 857 179 Q941 264 941 384 Q941 470 898 523.5 Q855 577 755 614 L584 677 Q319 776 319 1016 Q319 1208 464 1310 Q586 1397 772 1397 Q959 1397 1062 1312.5 Q1165 1228 1165 1075 Q1165 1060 1164 1032 L1037 1032 Q1038 1140 1005 1190 Q938 1290 759 1290 Q641 1290 559 1239 Q443 1167 443 1024 Q443 937 492 878.5 Q541 820 647 780 L816 717 Q1073 622 1073 383 Q1073 220 948 101 Q809 -33 580 -33 Q389 -33 280 58 Q167 154 167 312 Q167 340 170 383 Z " />
<glyph glyph-name="afii10055" unicode="&#x406;" horiz-adv-x="506" d="M192 0 L482 1365 L605 1365 L314 0 L192 0 Z " />
<glyph glyph-name="afii10056" unicode="&#x407;" horiz-adv-x="471" d="M191 0 L481 1365 L604 1365 L313 0 L191 0 Z M631 1488 L671 1679 L790 1679 L749 1488 L631 1488 Z M387 1488 L428 1679 L546 1679 L506 1488 L387 1488 Z " />
<glyph glyph-name="afii10057" unicode="&#x408;" horiz-adv-x="628" d="M626 1365 L749 1365 L558 467 Q524 306 501.5 243.5 Q479 181 436 121 Q378 41 299.5 4 Q221 -33 111 -33 Q63 -33 9 -20 L32 89 Q82 73 132 73 Q282 73 355 209 Q397 286 441 495 L626 1365 Z " />
<glyph glyph-name="afii10058" unicode="&#x409;" horiz-adv-x="1661" d="M1112 784 L1298 784 Q1521 784 1617 688 Q1702 604 1702 473 Q1702 370 1661 277 Q1620 184 1548 121 Q1407 0 1122 0 L823 0 L1091 1259 L697 1259 L399 345 Q357 215 316 150 Q275 85 209 43 Q126 -9 7 -10 L30 96 Q200 95 271 312 L610 1365 L1236 1365 L1112 784 Z M968 106 L1155 106 Q1266 106 1336.5 126.5 Q1407 147 1460 194 Q1512 240 1543 311 Q1574 382 1574 454 Q1574 572 1499 625 Q1424 678 1258 678 L1090 678 L968 106 Z " />
<glyph glyph-name="afii10059" unicode="&#x40a;" horiz-adv-x="1790" d="M1242 777 L1427 777 Q1650 777 1747 682 Q1832 598 1832 468 Q1832 366 1791.5 274 Q1751 182 1678 120 Q1537 0 1253 0 L954 0 L1097 671 L457 671 L314 0 L192 0 L482 1365 L605 1365 L480 777 L1119 777 L1244 1365 L1367 1365 L1242 777 Z M1099 106 L1286 106 Q1492 106 1590 193 Q1642 239 1673 308.5 Q1704 378 1704 449 Q1704 566 1629 618.5 Q1554 671 1387 671 L1219 671 L1099 106 Z " />
<glyph glyph-name="afii10060" unicode="&#x40b;" horiz-adv-x="1139" d="M399 0 L276 0 L544 1259 L246 1259 L269 1365 L1184 1365 L1162 1259 L666 1259 L567 794 Q700 971 885 971 Q1007 971 1069 896 Q1115 839 1115 751 Q1115 688 1095 593 L969 0 L856 0 L974 555 Q998 667 998 722 Q998 778 979 811 Q961 841 925 859 Q889 877 846 877 Q771 877 702.5 836 Q634 795 588 723 Q534 639 499 472 L399 0 Z " />
<glyph glyph-name="afii10061" unicode="&#x40c;" horiz-adv-x="1128" d="M481 1365 L600 1365 L474 773 L628 773 L1226 1365 L1365 1365 L709 723 L1123 0 L985 0 L603 675 L453 675 L309 0 L191 0 L481 1365 Z M1203 1737 L946 1479 L841 1479 L1076 1737 L1203 1737 Z " />
<glyph glyph-name="afii10062" unicode="&#x40e;" horiz-adv-x="999" d="M622 492 L1175 1365 L1303 1365 L530 155 Q465 53 402.5 10 Q340 -33 257 -33 Q218 -33 171 -20 L194 89 Q234 73 271 73 Q319 73 354.5 99.5 Q390 126 432 192 L532 349 L292 1365 L429 1365 L622 492 Z M1101 1734 Q1093 1655 1063 1601 Q994 1475 834 1475 Q730 1475 674 1525 Q618 1575 618 1667 Q618 1691 623 1734 L707 1734 Q705 1709 705 1698 Q705 1569 841 1569 Q914 1569 953.5 1605.5 Q993 1642 1018 1734 L1101 1734 Z " />
<glyph glyph-name="afii10145" unicode="&#x40f;" horiz-adv-x="1295" d="M587 0 L192 0 L482 1365 L605 1365 L337 106 L1004 106 L1272 1365 L1394 1365 L1104 0 L709 0 L665 -205 L543 -205 L587 0 Z " />
<glyph glyph-name="afii10017" unicode="&#x410;" horiz-adv-x="1099" d="M776 1365 L909 1365 L1073 0 L944 0 L900 430 L389 430 L159 0 L27 0 L776 1365 Z M445 535 L889 535 L816 1230 L445 535 Z " />
<glyph glyph-name="afii10018" unicode="&#x411;" horiz-adv-x="1100" d="M481 784 L702 784 Q925 784 1021 688 Q1106 604 1106 473 Q1106 370 1065 277 Q1024 184 952 121 Q811 0 527 0 L192 0 L482 1365 L1235 1365 L1212 1259 L582 1259 L481 784 Z M337 106 L559 106 Q670 106 740.5 126.5 Q811 147 864 194 Q916 240 947 311 Q978 382 978 454 Q978 572 903 625 Q828 678 662 678 L459 678 L337 106 Z " />
<glyph glyph-name="afii10019" unicode="&#x412;" horiz-adv-x="1188" d="M192 0 L482 1365 L875 1365 Q1260 1365 1260 1072 Q1260 931 1178.5 839 Q1097 747 940 710 Q1168 649 1168 439 Q1168 343 1129.5 258 Q1091 173 1021 115 Q882 0 606 0 L192 0 Z M476 760 L701 760 Q884 760 984 817 Q1133 903 1133 1066 Q1133 1166 1065 1212.5 Q997 1259 852 1259 L582 1259 L476 760 Z M337 106 L635 106 Q824 106 927 184 Q1042 269 1042 435 Q1042 560 944 618 Q877 658 712 658 L454 658 L337 106 Z " />
<glyph glyph-name="afii10020" unicode="&#x413;" horiz-adv-x="995" d="M482 1365 L1235 1365 L1212 1259 L582 1259 L314 0 L192 0 L482 1365 Z " />
<glyph glyph-name="afii10021" unicode="&#x414;" horiz-adv-x="1173" d="M616 1365 L1269 1365 L1001 106 L1124 106 L1058 -205 L935 -205 L979 0 L122 0 L78 -205 L-44 -205 L22 106 L39 106 Q210 106 276 312 L616 1365 Z M268 106 L879 106 L1124 1259 L703 1259 L405 345 Q375 252 344.5 199 Q314 146 268 106 Z " />
<glyph glyph-name="afii10022" unicode="&#x415;" horiz-adv-x="1084" d="M192 0 L482 1365 L1269 1365 L1247 1259 L582 1259 L476 760 L1098 760 L1075 654 L453 654 L337 106 L1009 106 L986 0 L192 0 Z " />
<glyph glyph-name="afii10024" unicode="&#x416;" horiz-adv-x="1724" d="M1838 1365 L1976 1365 L1331 729 L1735 0 L1597 0 L1222 675 L1065 675 L921 0 L803 0 L947 675 L796 675 L134 0 L-11 0 L704 729 L328 1365 L466 1365 L810 773 L967 773 L1093 1365 L1211 1365 L1085 773 L1240 773 L1838 1365 Z " />
<glyph glyph-name="afii10025" unicode="&#x417;" horiz-adv-x="1125" d="M646 760 L715 760 Q819 760 882 775 Q945 790 1002 827 Q1126 910 1126 1065 Q1126 1148 1081 1202 Q1007 1291 852 1291 Q715 1291 615.5 1219.5 Q516 1148 444 997 L320 997 Q385 1184 531.5 1290.5 Q678 1397 869 1397 Q1067 1397 1175 1283 Q1255 1199 1255 1077 Q1255 931 1155 831 Q1055 731 883 705 Q986 673 1039 617 Q1115 535 1115 406 Q1115 239 1003 119 Q860 -33 611 -33 Q370 -33 259 120 Q185 223 185 375 Q185 400 190 451 L313 451 Q309 403 309 378 Q309 240 395 152 Q473 73 608 73 Q699 73 779.5 105.5 Q860 138 909 195 Q990 288 990 415 Q990 531 913 592.5 Q836 654 692 654 L624 654 L646 760 Z " />
<glyph glyph-name="afii10026" unicode="&#x418;" horiz-adv-x="1293" d="M482 1365 L599 1365 L377 325 L1247 1229 L1276 1365 L1392 1365 L1102 0 L986 0 L1208 1046 L339 145 L308 0 L192 0 L482 1365 Z " />
<glyph glyph-name="afii10027" unicode="&#x419;" horiz-adv-x="1293" d="M482 1365 L599 1365 L377 325 L1247 1229 L1276 1365 L1392 1365 L1102 0 L986 0 L1208 1046 L339 145 L308 0 L192 0 L482 1365 Z M1241 1734 Q1233 1655 1203 1601 Q1134 1475 974 1475 Q870 1475 814 1525 Q758 1575 758 1667 Q758 1691 763 1734 L847 1734 Q845 1709 845 1698 Q845 1569 981 1569 Q1054 1569 1093.5 1605.5 Q1133 1642 1158 1734 L1241 1734 Z " />
<glyph glyph-name="afii10028" unicode="&#x41a;" horiz-adv-x="1128" d="M481 1365 L600 1365 L474 773 L628 773 L1226 1365 L1365 1365 L709 723 L1123 0 L985 0 L603 675 L453 675 L309 0 L191 0 L481 1365 Z " />
<glyph glyph-name="afii10029" unicode="&#x41b;" horiz-adv-x="1164" d="M1263 1365 L973 0 L851 0 L1118 1259 L697 1259 L399 345 Q357 216 316 151 Q275 86 209 43 Q127 -9 7 -10 L30 96 Q200 95 271 312 L610 1365 L1263 1365 Z " />
<glyph glyph-name="afii10030" unicode="&#x41c;" horiz-adv-x="1504" d="M192 0 L482 1365 L641 1365 L793 174 L1443 1365 L1603 1365 L1313 0 L1196 0 L1445 1170 L810 0 L702 0 L556 1162 L308 0 L192 0 Z " />
<glyph glyph-name="afii10031" unicode="&#x41d;" horiz-adv-x="1295" d="M192 0 L482 1365 L605 1365 L478 769 L1145 769 L1272 1365 L1394 1365 L1104 0 L981 0 L1122 663 L455 663 L314 0 L192 0 Z " />
<glyph glyph-name="afii10032" unicode="&#x41e;" horiz-adv-x="1311" d="M929 1396 Q1127 1396 1247 1260 Q1304 1196 1336.5 1096 Q1369 996 1369 886 Q1369 729 1323 570 Q1277 411 1196 286 Q1096 133 962 51 Q826 -33 670 -33 Q448 -33 330 131 Q231 267 231 466 Q231 677 308 884 Q399 1129 582 1272 Q741 1396 929 1396 Z M931 1290 Q787 1290 654 1182 Q506 1062 427 844 Q357 652 357 458 Q357 271 454 165 Q537 73 669 73 Q817 73 947 179 Q1102 305 1184 547 Q1243 722 1243 896 Q1243 1096 1142 1204 Q1061 1290 931 1290 Z " />
<glyph glyph-name="afii10033" unicode="&#x41f;" horiz-adv-x="1295" d="M1394 1365 L1104 0 L981 0 L1249 1259 L582 1259 L314 0 L192 0 L482 1365 L1394 1365 Z " />
<glyph glyph-name="afii10034" unicode="&#x420;" horiz-adv-x="1117" d="M192 0 L482 1365 L826 1365 Q1048 1365 1145 1269 Q1230 1185 1230 1054 Q1230 951 1189 858.5 Q1148 766 1076 703 Q935 582 650 582 L438 582 L314 0 L192 0 Z M461 688 L683 688 Q794 688 864.5 708 Q935 728 988 775 Q1040 822 1071 892.5 Q1102 963 1102 1035 Q1102 1153 1027 1206 Q952 1259 786 1259 L582 1259 L461 688 Z " />
<glyph glyph-name="afii10035" unicode="&#x421;" horiz-adv-x="1229" d="M1107 451 L1231 451 Q1184 287 1090 173 Q920 -33 671 -33 Q471 -33 357 99 Q230 245 230 476 Q230 675 309 885 Q403 1135 584 1275 Q742 1397 935 1397 Q1128 1397 1236 1281 Q1333 1178 1333 1013 Q1333 1007 1333 997 L1208 997 Q1204 1102 1164 1169 Q1093 1290 928 1290 Q680 1290 505 1004 Q436 892 396.5 746.5 Q357 601 357 459 Q357 367 384.5 286 Q412 205 459 157 Q542 73 673 73 Q840 73 974 218 Q1060 311 1107 451 Z " />
<glyph glyph-name="afii10036" unicode="&#x422;" horiz-adv-x="1006" d="M565 0 L443 0 L710 1259 L313 1259 L336 1365 L1251 1365 L1229 1259 L833 1259 L565 0 Z " />
<glyph glyph-name="afii10037" unicode="&#x423;" horiz-adv-x="999" d="M622 492 L1175 1365 L1303 1365 L530 155 Q465 53 402.5 10 Q340 -33 257 -33 Q218 -33 171 -20 L194 89 Q234 73 271 73 Q319 73 354.5 99.5 Q390 126 432 192 L532 349 L292 1365 L429 1365 L622 492 Z " />
<glyph glyph-name="afii10038" unicode="&#x424;" horiz-adv-x="1525" d="M1078 1205 Q1216 1201 1349 1142 Q1482 1084 1545 965 Q1595 872 1595 750 Q1595 594 1514 464 Q1336 180 856 161 L822 0 L703 0 L737 160 Q524 169 391 261 Q306 321 261 420 Q220 511 220 618 Q220 779 309 912 Q435 1100 693 1169 Q813 1201 959 1205 L993 1365 L1112 1365 L1078 1205 Z M877 263 Q1022 272 1105.5 294 Q1189 316 1270 367 Q1364 427 1418 527.5 Q1472 628 1472 743 Q1472 906 1365.5 999 Q1259 1092 1057 1105 L877 263 Z M759 263 L938 1106 Q701 1101 546 1001 Q430 926 378 800 Q342 711 342 616 Q342 289 759 263 Z " />
<glyph glyph-name="afii10039" unicode="&#x425;" horiz-adv-x="1017" d="M27 0 L591 702 L342 1365 L477 1365 L676 801 L1124 1365 L1258 1365 L726 702 L990 0 L853 0 L639 598 L165 0 L27 0 Z " />
<glyph glyph-name="afii10040" unicode="&#x426;" horiz-adv-x="1298" d="M1126 106 L1249 106 L1183 -205 L1060 -205 L1104 0 L192 0 L482 1365 L605 1365 L337 106 L1004 106 L1272 1365 L1394 1365 L1126 106 Z " />
<glyph glyph-name="afii10041" unicode="&#x427;" horiz-adv-x="1248" d="M1067 628 Q1005 566 911 530.5 Q817 495 713 495 Q536 495 426 588 Q328 670 328 802 Q328 874 349 974 L432 1365 L555 1365 L471 969 Q451 877 451 823 Q451 733 510 675 Q585 601 726 601 Q836 601 924 647 Q1012 693 1064 778 Q1118 865 1149 1014 L1224 1365 L1346 1365 L1056 0 L934 0 L1067 628 Z " />
<glyph glyph-name="afii10042" unicode="&#x428;" horiz-adv-x="1729" d="M1538 0 L192 0 L482 1365 L605 1365 L337 106 L826 106 L1094 1365 L1217 1365 L949 106 L1438 106 L1706 1365 L1828 1365 L1538 0 Z " />
<glyph glyph-name="afii10043" unicode="&#x429;" horiz-adv-x="1732" d="M1561 106 L1683 106 L1617 -205 L1495 -205 L1538 0 L192 0 L482 1365 L605 1365 L337 106 L826 106 L1094 1365 L1217 1365 L949 106 L1438 106 L1706 1365 L1828 1365 L1561 106 Z " />
<glyph glyph-name="afii10044" unicode="&#x42a;" horiz-adv-x="1285" d="M644 1259 L285 1259 L308 1365 L790 1365 L666 784 L887 784 Q1110 784 1206 688 Q1291 604 1291 473 Q1291 369 1250 276.5 Q1209 184 1137 121 Q996 0 712 0 L377 0 L644 1259 Z M522 106 L744 106 Q855 106 925.5 126.5 Q996 147 1049 194 Q1101 240 1132 311 Q1163 382 1163 454 Q1163 572 1088 625 Q1013 678 847 678 L643 678 L522 106 Z " />
<glyph glyph-name="afii10045" unicode="&#x42b;" horiz-adv-x="1486" d="M1172 0 L1463 1365 L1585 1365 L1295 0 L1172 0 Z M482 1365 L605 1365 L481 784 L702 784 Q925 784 1021 688 Q1106 604 1106 473 Q1106 370 1065 277 Q1024 184 952 121 Q811 0 527 0 L192 0 L482 1365 Z M337 106 L559 106 Q670 106 740.5 126.5 Q811 147 864 194 Q916 240 947 311 Q978 382 978 454 Q978 572 903 625 Q828 678 662 678 L459 678 L337 106 Z " />
<glyph glyph-name="afii10046" unicode="&#x42c;" horiz-adv-x="1100" d="M482 1365 L605 1365 L481 784 L702 784 Q925 784 1021 688 Q1106 604 1106 473 Q1106 370 1065 277 Q1024 184 952 121 Q811 0 527 0 L192 0 L482 1365 Z M337 106 L559 106 Q670 106 740.5 126.5 Q811 147 864 194 Q916 240 947 311 Q978 382 978 454 Q978 572 903 625 Q828 678 662 678 L459 678 L337 106 Z " />
<glyph glyph-name="afii10047" unicode="&#x42d;" horiz-adv-x="1229" d="M1152 760 Q1161 829 1161 892 Q1161 993 1130 1081 Q1099 1169 1047 1219 Q971 1290 843 1290 Q705 1290 609.5 1219.5 Q514 1149 444 997 L320 997 Q366 1129 463 1229 Q625 1396 848 1396 Q1042 1396 1162 1272 Q1230 1203 1262 1089 Q1286 1004 1286 911 Q1286 743 1237 574.5 Q1188 406 1101 277 Q989 109 836 28 Q721 -33 589 -33 Q366 -33 259 121 Q185 227 185 375 Q185 400 190 451 L313 451 Q309 405 309 380 Q309 243 393 151 Q464 73 585 73 Q772 73 919.5 230 Q1067 387 1131 654 L624 654 L646 760 L1152 760 Z " />
<glyph glyph-name="afii10048" unicode="&#x42e;" horiz-adv-x="1814" d="M751 663 L455 663 L314 0 L192 0 L482 1365 L605 1365 L478 769 L775 769 Q832 980 942 1125 Q1147 1396 1432 1396 Q1632 1396 1750 1261 Q1807 1196 1839.5 1096 Q1872 996 1872 886 Q1872 729 1826 570 Q1780 411 1699 286 Q1599 134 1465 51 Q1329 -33 1173 -33 Q951 -33 833 131 Q734 268 734 467 Q734 558 751 663 Z M1434 1290 Q1290 1290 1157 1182 Q1009 1062 930 845 Q860 653 860 459 Q860 272 957 166 Q1040 74 1172 74 Q1319 74 1449 180 Q1605 306 1687 548 Q1746 724 1746 897 Q1746 1096 1645 1204 Q1564 1290 1434 1290 Z " />
<glyph glyph-name="afii10049" unicode="&#x42f;" horiz-adv-x="1220" d="M1028 0 L906 0 L1036 611 L813 611 Q620 611 525 550 Q472 515 440 456.5 Q408 398 376 277 Q338 135 320 88 Q302 41 271 0 L133 0 Q166 38 186 89 Q206 140 247 286 Q301 483 361.5 558.5 Q422 634 545 659 Q489 677 456 708 Q367 791 367 933 Q367 1023 403 1106 Q439 1189 504 1247 Q574 1309 661.5 1337 Q749 1365 875 1365 L1318 1365 L1028 0 Z M1057 714 L1173 1259 L856 1259 Q763 1259 703.5 1242 Q644 1225 597 1185 Q492 1096 492 939 Q492 870 519 817.5 Q546 765 593 743 Q655 714 778 714 L1057 714 Z " />
<glyph glyph-name="afii10065" unicode="&#x430;" horiz-adv-x="921" d="M916 88 L897 -1 Q865 -10 839 -10 Q783 -10 748 20.5 Q713 51 713 100 Q713 121 722 166 Q575 -29 378 -29 Q259 -29 188 41 Q125 104 125 210 Q125 421 372 508 Q446 534 531.5 544 Q617 554 804 559 L831 696 Q836 719 836 739 Q836 877 627 877 Q451 877 398 761 L284 761 Q294 819 352 876 Q450 971 636 971 Q787 971 867.5 912 Q948 853 948 742 Q948 709 938 660 L844 219 Q829 153 829 138 Q829 86 884 86 Q889 86 916 88 Z M786 477 Q571 468 460 443 Q357 419 298.5 359.5 Q240 300 240 220 Q240 148 282.5 106.5 Q325 65 398 65 Q466 65 537.5 105 Q609 145 667 216 Q703 260 734 319 Q765 378 774 420 L786 477 Z " />
<glyph glyph-name="afii10066" unicode="&#x431;" horiz-adv-x="1016" d="M1033 1458 L1122 1458 Q1111 1320 1033 1258 Q1000 1232 959 1218 Q918 1204 784 1171 Q666 1144 585.5 1069.5 Q505 995 424 840 Q475 901 555.5 936 Q636 971 725 971 Q884 971 976 869 Q1060 775 1060 612 Q1060 495 1022.5 378.5 Q985 262 918 172 Q767 -29 531 -29 Q372 -29 281 64 Q190 159 190 328 Q190 449 239.5 622.5 Q289 796 365 939 Q458 1115 611 1203 Q658 1230 697.5 1243.5 Q737 1257 835 1281 Q968 1312 1002 1360 Q1018 1383 1033 1458 Z M712 877 Q621 877 541 827 Q461 777 403 686 Q304 529 304 329 Q304 183 389 114 Q449 65 539 65 Q724 65 842 247 Q890 321 918 418.5 Q946 516 946 609 Q946 752 864 824 Q803 877 712 877 Z " />
<glyph glyph-name="afii10067" unicode="&#x432;" horiz-adv-x="857" d="M350 942 L627 942 Q789 942 859 891 Q933 839 933 739 Q933 639 877.5 580 Q822 521 706 496 Q875 456 875 295 Q875 220 836.5 157 Q798 94 729 55 Q629 0 433 0 L150 0 L350 942 Z M443 848 L377 541 L521 541 Q816 541 816 720 Q816 799 745 830 Q704 848 606 848 L443 848 Z M358 447 L282 94 L479 94 Q602 94 671 135 Q763 190 763 299 Q763 405 649 436 Q610 447 501 447 L358 447 Z " />
<glyph glyph-name="afii10068" unicode="&#x433;" horiz-adv-x="741" d="M443 848 L262 0 L150 0 L350 942 L940 942 L920 848 L443 848 Z " />
<glyph glyph-name="afii10069" unicode="&#x434;" horiz-adv-x="970" d="M447 942 L1017 942 L837 94 L957 94 L893 -205 L781 -205 L824 0 L93 0 L49 -205 L-63 -205 L1 94 L38 94 Q160 94 217 260 L447 942 Z M234 94 L725 94 L885 848 L539 848 L330 239 Q299 149 234 94 Z " />
<glyph glyph-name="afii10070" unicode="&#x435;" horiz-adv-x="943" d="M963 445 L289 445 Q274 372 274 325 Q274 199 347 126 Q408 65 512 65 Q577 65 640.5 93 Q704 121 741 165 L866 165 Q810 76 711.5 23.5 Q613 -29 501 -29 Q339 -29 247 72 Q158 170 158 339 Q158 464 198 583.5 Q238 703 310 791 Q455 971 657 971 Q818 971 903 876 Q986 783 986 627 Q986 547 963 445 Z M861 535 Q871 597 871 633 Q871 742 814 811 Q759 879 666 879 Q546 879 452.5 789 Q359 699 308 535 L861 535 Z " />
<glyph glyph-name="afii10072" unicode="&#x436;" horiz-adv-x="1248" d="M678 0 L570 0 L666 453 L576 453 L108 0 L-20 0 L492 501 L208 942 L326 942 L584 537 L684 537 L770 942 L878 942 L792 537 L892 537 L1321 943 L1442 943 L968 501 L1267 0 L1148 0 L874 453 L774 453 L678 0 Z " />
<glyph glyph-name="afii10073" unicode="&#x437;" horiz-adv-x="858" d="M465 541 L561 541 Q670 541 738 581 Q831 637 831 734 Q831 803 782.5 840 Q734 877 644 877 Q532 877 461 830.5 Q390 784 341 679 L219 679 Q281 830 402 905 Q507 971 645 971 Q784 971 865 911 Q947 852 947 743 Q947 651 885 587.5 Q823 524 705 493 Q778 471 813 436 Q867 381 867 293 Q867 187 793 100 Q685 -29 473 -29 Q285 -29 196 67 Q127 143 127 257 Q127 275 130 302 L250 302 Q249 282 249 274 Q249 183 298 127 Q353 65 469 65 Q590 65 671.5 130.5 Q753 196 753 294 Q753 447 547 447 L445 447 L465 541 Z " />
<glyph glyph-name="afii10074" unicode="&#x438;" horiz-adv-x="1025" d="M961 942 L1074 942 L873 0 L761 0 L909 696 L282 93 L263 0 L150 0 L350 942 L463 942 L315 246 L940 845 L961 942 Z " />
<glyph glyph-name="afii10075" unicode="&#x439;" horiz-adv-x="1026" d="M961 942 L1074 942 L873 0 L761 0 L909 696 L282 93 L263 0 L150 0 L350 942 L463 942 L315 246 L940 845 L961 942 Z M1003 1365 Q995 1281 967 1226 Q901 1092 752 1092 Q656 1092 604 1144.5 Q552 1197 552 1294 Q552 1322 557 1365 L635 1365 Q633 1340 633 1326 Q633 1186 760 1186 Q827 1186 864.5 1226.5 Q902 1267 926 1365 L1003 1365 Z " />
<glyph glyph-name="afii10076" unicode="&#x43a;" horiz-adv-x="920" d="M150 0 L350 942 L463 942 L376 537 L525 537 L956 943 L1091 943 L608 497 L915 0 L790 0 L510 453 L359 453 L262 0 L150 0 Z " />
<glyph glyph-name="afii10077" unicode="&#x43b;" horiz-adv-x="944" d="M516 848 L307 239 Q222 -11 -16 -10 L4 84 Q136 84 196 260 L425 942 L990 942 L790 0 L678 0 L858 848 L516 848 Z " />
<glyph glyph-name="afii10078" unicode="&#x43c;" horiz-adv-x="1216" d="M631 136 L1110 942 L1271 942 L1071 0 L965 0 L1134 795 L656 0 L550 0 L425 795 L256 0 L150 0 L350 942 L505 942 L631 136 Z " />
<glyph glyph-name="afii10079" unicode="&#x43d;" horiz-adv-x="1026" d="M358 447 L262 0 L150 0 L350 942 L463 942 L377 541 L876 541 L961 942 L1074 942 L873 0 L761 0 L856 447 L358 447 Z " />
<glyph glyph-name="afii10080" unicode="&#x43e;" horiz-adv-x="984" d="M686 971 Q851 971 943 869 Q1027 775 1027 612 Q1027 495 989.5 378.5 Q952 262 885 172 Q734 -29 498 -29 Q338 -29 248 64 Q157 159 157 327 Q157 444 193 559 Q229 674 293 762 Q446 971 686 971 Z M679 877 Q588 877 508 827 Q428 777 370 686 Q271 529 271 329 Q271 183 356 114 Q416 65 506 65 Q691 65 809 247 Q857 321 885 418.5 Q913 516 913 609 Q913 752 831 824 Q770 877 679 877 Z " />
<glyph glyph-name="afii10081" unicode="&#x43f;" horiz-adv-x="1026" d="M443 848 L262 0 L150 0 L350 942 L1074 942 L873 0 L761 0 L941 848 L443 848 Z " />
<glyph glyph-name="afii10082" unicode="&#x440;" horiz-adv-x="1039" d="M75 -355 L351 942 L455 942 L420 776 Q475 870 564 920.5 Q653 971 763 971 Q914 971 999 877 Q1086 781 1086 624 Q1086 499 1046.5 373.5 Q1007 248 939 161 Q793 -29 575 -29 Q467 -29 393 20 Q319 69 296 156 L188 -355 L75 -355 Z M747 877 Q659 877 580.5 829 Q502 781 447 694 Q399 619 371 519.5 Q343 420 343 324 Q343 183 425 115 Q485 65 573 65 Q757 65 874 255 Q971 414 971 610 Q971 750 898 821 Q840 877 747 877 Z " />
<glyph glyph-name="afii10083" unicode="&#x441;" horiz-adv-x="911" d="M791 302 L911 302 Q880 197 806 114 Q677 -29 489 -29 Q331 -29 245 65 Q159 158 159 325 Q159 441 194.5 557 Q230 673 294 762 Q443 971 679 971 Q817 971 897 898 Q944 854 963 805 Q982 756 982 679 L861 679 Q858 753 831 796 Q781 877 667 877 Q487 877 370 686 Q273 527 273 323 Q273 181 350 114 Q406 65 494 65 Q592 65 670.5 127.5 Q749 190 791 302 Z " />
<glyph glyph-name="afii10084" unicode="&#x442;" horiz-adv-x="652" d="M563 848 L383 0 L270 0 L450 848 L172 848 L192 942 L861 942 L841 848 L563 848 Z " />
<glyph glyph-name="afii10085" unicode="&#x443;" horiz-adv-x="820" d="M29 -340 L49 -244 Q59 -246 64 -248 Q96 -257 123 -257 Q178 -257 215 -227.5 Q252 -198 296 -119 L366 7 L214 942 L339 942 L455 160 L883 942 L1007 942 L394 -145 Q331 -256 282 -298 Q215 -355 115 -355 Q71 -355 29 -340 Z " />
<glyph glyph-name="afii10086" unicode="&#x444;" horiz-adv-x="1375" d="M931 815 Q1025 971 1176 971 Q1270 971 1337 910 Q1430 824 1430 656 Q1430 514 1384.5 367 Q1339 220 1266 126 Q1144 -29 988 -29 Q831 -29 783 127 L679 -355 L576 -355 L682 130 Q586 -29 431 -29 Q336 -29 269 32 Q176 118 176 286 Q176 429 221.5 575.5 Q267 722 341 816 Q463 971 621 971 Q779 971 820 806 L942 1365 L1045 1365 L931 815 Z M613 883 Q502 883 414 752 Q356 666 319.5 536.5 Q283 407 283 289 Q283 183 325 121 Q367 59 440 59 Q546 59 627 168 Q691 254 731.5 389 Q772 524 772 653 Q772 760 729.5 821.5 Q687 883 613 883 Z M1166 884 Q1059 884 979 775 Q909 680 869 536 Q834 405 834 293 Q834 183 876 121 Q918 59 993 59 Q1104 59 1192 190 Q1250 276 1286.5 406 Q1323 536 1323 654 Q1323 772 1270 836 Q1230 884 1166 884 Z " />
<glyph glyph-name="afii10087" unicode="&#x445;" horiz-adv-x="847" d="M14 0 L456 495 L240 942 L381 942 L543 592 L861 942 L999 942 L596 503 L834 0 L693 0 L508 404 L153 0 L14 0 Z " />
<glyph glyph-name="afii10088" unicode="&#x446;" horiz-adv-x="1026" d="M1074 942 L894 94 L1014 94 L950 -205 L838 -205 L881 0 L152 0 L352 942 L465 942 L284 94 L782 94 L962 942 L1074 942 Z " />
<glyph glyph-name="afii10089" unicode="&#x447;" horiz-adv-x="958" d="M787 438 Q682 351 522 351 Q403 351 323 400 Q218 465 218 593 Q218 637 227 678 L283 942 L402 942 L348 686 Q338 639 338 606 Q338 519 404 477 Q454 445 534 445 Q679 445 763 539 Q823 605 843 698 L894 942 L1007 942 L806 0 L694 0 L787 438 Z " />
<glyph glyph-name="afii10090" unicode="&#x448;" horiz-adv-x="1385" d="M774 94 L1154 94 L1334 942 L1446 942 L1246 0 L150 0 L350 942 L463 942 L282 94 L662 94 L842 942 L955 942 L774 94 Z " />
<glyph glyph-name="afii10091" unicode="&#x449;" horiz-adv-x="1405" d="M1452 942 L1272 94 L1391 94 L1328 -205 L1215 -205 L1259 0 L150 0 L350 942 L463 942 L282 94 L661 94 L841 942 L954 942 L774 94 L1153 94 L1333 942 L1452 942 Z " />
<glyph glyph-name="afii10092" unicode="&#x44a;" horiz-adv-x="937" d="M264 0 L444 848 L153 848 L173 942 L576 942 L495 561 L681 561 Q989 561 989 325 Q989 255 960.5 191.5 Q932 128 882 87 Q777 0 592 0 L264 0 Z M475 467 L396 94 L560 94 Q698 94 766 136 Q867 199 867 314 Q867 396 817 431.5 Q767 467 651 467 L475 467 Z " />
<glyph glyph-name="afii10093" unicode="&#x44b;" horiz-adv-x="1215" d="M958 0 L1159 942 L1272 942 L1071 0 L958 0 Z M152 0 L352 942 L465 942 L384 561 L555 561 Q863 561 863 325 Q863 255 834.5 191.5 Q806 128 756 87 Q652 0 467 0 L152 0 Z M364 467 L284 94 L435 94 Q572 94 641 136 Q741 199 741 314 Q741 396 691 431.5 Q641 467 526 467 L364 467 Z " />
<glyph glyph-name="afii10094" unicode="&#x44c;" horiz-adv-x="825" d="M152 0 L352 942 L465 942 L384 561 L569 561 Q877 561 877 325 Q877 255 848.5 191.5 Q820 128 770 87 Q665 0 480 0 L152 0 Z M364 467 L284 94 L449 94 Q586 94 654 136 Q755 199 755 314 Q755 396 705 431.5 Q655 467 540 467 L364 467 Z " />
<glyph glyph-name="afii10095" unicode="&#x44d;" horiz-adv-x="911" d="M828 541 Q832 583 832 614 Q832 754 759 824 Q703 877 614 877 Q430 877 339 679 L217 679 Q261 787 336 857 Q458 971 621 971 Q786 971 873 869 Q952 776 952 618 Q952 497 916 378 Q880 259 817 172 Q671 -29 433 -29 Q273 -29 192 66 Q125 145 125 257 Q125 275 128 302 L248 302 Q247 282 247 273 Q247 178 300 121.5 Q353 65 442 65 Q571 65 667 165 Q763 265 811 447 L443 447 L463 541 L828 541 Z " />
<glyph glyph-name="afii10096" unicode="&#x44e;" horiz-adv-x="1411" d="M595 447 L360 447 L264 0 L152 0 L352 942 L465 942 L379 541 L616 541 Q651 664 722 761 Q874 971 1114 971 Q1280 971 1371 869 Q1455 774 1455 611 Q1455 494 1417 377.5 Q1379 261 1313 172 Q1162 -29 926 -29 Q766 -29 676 64 Q585 158 585 332 Q585 389 595 447 Z M1107 877 Q1016 877 936 827 Q856 777 798 685 Q699 529 699 329 Q699 182 784 114 Q844 65 934 65 Q1119 65 1237 247 Q1285 321 1313 418 Q1341 515 1341 609 Q1341 752 1259 824 Q1198 877 1107 877 Z " />
<glyph glyph-name="afii10097" unicode="&#x44f;" horiz-adv-x="919" d="M402 426 Q239 463 239 628 Q239 770 344 856 Q448 942 636 942 L964 942 L764 0 L652 0 L733 381 L547 381 Q424 381 368 337.5 Q312 294 279 173 Q255 83 243.5 54 Q232 25 212 0 L89 0 Q125 38 163 180 Q198 305 249.5 358 Q301 411 402 426 Z M753 475 L832 848 L652 848 Q534 848 462 806 Q416 779 388.5 730.5 Q361 682 361 628 Q361 546 411 510.5 Q461 475 576 475 L753 475 Z " />
<glyph glyph-name="afii10071" unicode="&#x451;" horiz-adv-x="943" d="M802 1106 L842 1297 L964 1297 L924 1106 L802 1106 Z M490 1106 L530 1297 L645 1297 L604 1106 L490 1106 Z M963 445 L289 445 Q274 372 274 325 Q274 199 347 126 Q408 65 512 65 Q577 65 640.5 93 Q704 121 741 165 L866 165 Q810 76 711.5 23.5 Q613 -29 501 -29 Q339 -29 247 72 Q158 170 158 339 Q158 464 198 583.5 Q238 703 310 791 Q455 971 657 971 Q818 971 903 876 Q986 783 986 627 Q986 547 963 445 Z M861 535 Q871 597 871 633 Q871 742 814 811 Q759 879 666 879 Q546 879 452.5 789 Q359 699 308 535 L861 535 Z " />
<glyph glyph-name="afii10099" unicode="&#x452;" horiz-adv-x="961" d="M262 0 L150 0 L394 1147 L275 1147 L294 1237 L413 1237 L440 1365 L553 1365 L525 1237 L786 1237 L766 1147 L506 1147 L431 794 Q554 971 727 971 Q843 971 909 898 Q988 810 988 651 Q988 489 931 312.5 Q874 136 782 13 Q653 -160 472 -160 Q436 -160 392 -145 L411 -56 Q443 -70 472 -70 Q532 -70 593 -32.5 Q654 5 700 71 Q777 180 824 336.5 Q871 493 871 639 Q871 876 707 876 Q582 876 493 772 Q404 668 363 472 L262 0 Z " />
<glyph glyph-name="afii10100" unicode="&#x453;" horiz-adv-x="741" d="M443 848 L262 0 L150 0 L350 942 L940 942 L920 848 L443 848 Z M938 1365 L702 1092 L599 1092 L820 1365 L938 1365 Z " />
<glyph glyph-name="afii10101" unicode="&#x454;" horiz-adv-x="911" d="M307 541 L678 541 L658 447 L284 447 Q273 381 273 321 Q273 181 350 114 Q406 65 494 65 Q592 65 670.5 127.5 Q749 190 791 302 L911 302 Q880 197 806 114 Q677 -29 489 -29 Q331 -29 245 65 Q159 158 159 325 Q159 441 195 557 Q231 673 294 762 Q443 971 679 971 Q817 971 897 898 Q944 854 963 805 Q982 756 982 679 L861 679 Q858 753 831 796 Q781 877 667 877 Q487 877 370 685 Q331 622 307 541 Z " />
<glyph glyph-name="afii10102" unicode="&#x455;" horiz-adv-x="879" d="M152 265 L270 265 Q269 247 269 234 Q269 155 326.5 110 Q384 65 484 65 Q589 65 655 116 Q727 171 727 257 Q727 312 698.5 345 Q670 378 599 406 L455 464 Q353 505 305.5 562 Q258 619 258 702 Q258 832 362 906 Q452 971 591 971 Q756 971 846 889 Q904 836 904 748 Q904 736 902 713 L784 713 Q784 724 784 737 Q784 803 733 841 Q682 879 593 879 Q508 879 448 842 Q373 795 373 703 Q373 608 483 566 L653 501 Q842 429 842 263 Q842 141 757 61 Q660 -29 480 -29 Q338 -29 249 30 Q202 60 175.5 110.5 Q149 161 149 218 Q149 235 152 265 Z " />
<glyph glyph-name="afii10103" unicode="&#x456;" horiz-adv-x="446" d="M400 1174 L440 1365 L553 1365 L512 1174 L400 1174 Z M150 0 L350 942 L463 942 L262 0 L150 0 Z " />
<glyph glyph-name="afii10104" unicode="&#x457;" horiz-adv-x="446" d="M150 0 L350 942 L463 942 L263 0 L150 0 Z M502 1106 L543 1297 L658 1297 L617 1106 L502 1106 Z M255 1106 L295 1297 L410 1297 L369 1106 L255 1106 Z " />
<glyph glyph-name="afii10105" unicode="&#x458;" horiz-adv-x="467" d="M375 942 L488 942 L278 -44 Q244 -207 199 -266 Q132 -355 2 -355 Q-30 -355 -60 -347 L-39 -250 Q-15 -256 9 -256 Q80 -256 108.5 -218 Q137 -180 165 -48 L375 942 Z M424 1174 L465 1365 L578 1365 L537 1174 L424 1174 Z " />
<glyph glyph-name="afii10106" unicode="&#x459;" horiz-adv-x="1278" d="M842 848 L530 848 L322 239 Q237 -11 0 -10 L20 84 Q152 83 211 260 L440 942 L974 942 L893 561 L1051 561 Q1359 561 1359 325 Q1359 255 1330.5 191.5 Q1302 128 1252 87 Q1148 0 963 0 L662 0 L842 848 Z M873 467 L794 94 L931 94 Q1068 94 1137 136 Q1237 199 1237 314 Q1237 396 1187 431.5 Q1137 467 1022 467 L873 467 Z " />
<glyph glyph-name="afii10107" unicode="&#x45a;" horiz-adv-x="1344" d="M846 551 L929 942 L1042 942 L958 551 L1117 551 Q1425 551 1425 318 Q1425 250 1396.5 188 Q1368 126 1319 85 Q1215 0 1030 0 L729 0 L826 457 L359 457 L262 0 L150 0 L350 942 L463 942 L380 551 L846 551 Z M938 457 L861 94 L998 94 Q1135 94 1204 135 Q1303 195 1303 307 Q1303 387 1253 422 Q1203 457 1087 457 L938 457 Z " />
<glyph glyph-name="afii10108" unicode="&#x45b;" horiz-adv-x="1017" d="M413 1237 L440 1365 L553 1365 L525 1237 L791 1237 L772 1147 L506 1147 L431 794 Q565 971 758 971 Q892 971 963 896 Q1018 838 1018 745 Q1018 680 1000 593 L873 0 L761 0 L879 555 Q900 655 900 716 Q900 776 877 811 Q834 877 732 877 Q651 877 577 836 Q503 795 455 723 Q398 639 363 472 L263 0 L150 0 L394 1147 L278 1147 L297 1237 L413 1237 Z " />
<glyph glyph-name="afii10109" unicode="&#x45c;" horiz-adv-x="920" d="M1038 1365 L789 1092 L679 1092 L911 1365 L1038 1365 Z M150 0 L350 942 L463 942 L376 537 L525 537 L956 943 L1091 943 L608 497 L915 0 L790 0 L510 453 L359 453 L262 0 L150 0 Z " />
<glyph glyph-name="afii10110" unicode="&#x45e;" horiz-adv-x="820" d="M29 -340 L49 -244 Q59 -246 64 -248 Q96 -257 123 -257 Q178 -257 215 -227.5 Q252 -198 296 -119 L366 7 L214 942 L339 942 L455 160 L883 942 L1007 942 L394 -145 Q331 -256 282 -298 Q215 -355 115 -355 Q71 -355 29 -340 Z M891 1365 Q883 1281 855 1226 Q789 1092 640 1092 Q544 1092 492 1144.5 Q440 1197 440 1294 Q440 1322 445 1365 L523 1365 Q521 1340 521 1326 Q521 1186 648 1186 Q715 1186 752.5 1226.5 Q790 1267 814 1365 L891 1365 Z " />
<glyph glyph-name="afii10193" unicode="&#x45f;" horiz-adv-x="1025" d="M568 0 L524 -205 L412 -205 L456 0 L150 0 L350 942 L463 942 L283 94 L781 94 L961 942 L1074 942 L873 0 L568 0 Z " />
<glyph glyph-name="afii10050" unicode="&#x490;" horiz-adv-x="995" d="M1261 1488 L1212 1259 L582 1259 L314 0 L192 0 L482 1365 L1113 1365 L1139 1488 L1261 1488 Z " />
<glyph glyph-name="afii10098" unicode="&#x491;" horiz-adv-x="741" d="M963 1051 L920 848 L443 848 L262 0 L150 0 L350 942 L828 942 L851 1051 L963 1051 Z " />
<glyph glyph-name="uni0492" unicode="&#x492;" horiz-adv-x="1022" d="M380 760 L508 1365 L1261 1365 L1238 1259 L608 1259 L502 760 L873 760 L852 660 L481 660 L340 0 L218 0 L358 660 L230 660 L251 760 L380 760 Z " />
<glyph glyph-name="uni0493" unicode="&#x493;" horiz-adv-x="741" d="M266 546 L350 942 L940 942 L920 848 L443 848 L379 546 L669 546 L649 452 L359 452 L263 0 L150 0 L246 452 L123 452 L143 546 L266 546 Z " />
<glyph glyph-name="uni0496" unicode="&#x496;" horiz-adv-x="1730" d="M1651 0 L1597 0 L1222 675 L1065 675 L921 0 L803 0 L947 675 L796 675 L134 0 L-11 0 L704 729 L328 1365 L466 1365 L810 773 L967 773 L1093 1365 L1211 1365 L1085 773 L1240 773 L1838 1365 L1976 1365 L1331 729 L1676 106 L1796 106 L1730 -205 L1608 -205 L1651 0 Z " />
<glyph glyph-name="uni0497" unicode="&#x497;" horiz-adv-x="1265" d="M1211 94 L1341 94 L1278 -205 L1165 -205 L1209 0 L1148 0 L874 453 L774 453 L678 0 L570 0 L666 453 L576 453 L108 0 L-20 0 L492 501 L208 942 L326 942 L584 537 L684 537 L770 942 L878 942 L792 537 L892 537 L1321 942 L1442 942 L968 501 L1211 94 Z " />
<glyph glyph-name="uni049A" unicode="&#x49a;" horiz-adv-x="1144" d="M1068 106 L1185 106 L1119 -205 L997 -205 L1040 0 L985 0 L629 700 L426 523 L314 0 L192 0 L482 1365 L605 1365 L458 674 L1250 1365 L1390 1365 L725 785 L1068 106 Z " />
<glyph glyph-name="uni049B" unicode="&#x49b;" horiz-adv-x="941" d="M858 94 L978 94 L915 -205 L802 -205 L846 0 L790 0 L510 453 L359 453 L262 0 L150 0 L350 942 L463 942 L376 537 L525 537 L956 942 L1091 942 L608 497 L858 94 Z " />
<glyph glyph-name="uni049C" unicode="&#x49c;" horiz-adv-x="1279" d="M720 773 L795 773 L1394 1365 L1532 1365 L886 729 L1291 0 L1152 0 L777 675 L700 675 L629 342 L520 342 L590 675 L454 675 L310 0 L192 0 L482 1365 L601 1365 L475 773 L611 773 L682 1107 L791 1107 L720 773 Z " />
<glyph glyph-name="uni049D" unicode="&#x49d;" horiz-adv-x="989" d="M481 537 L532 774 L627 774 L577 537 L633 537 L1062 943 L1183 943 L709 501 L1007 0 L889 0 L615 453 L559 453 L508 211 L412 211 L464 453 L354 453 L258 0 L150 0 L350 942 L458 942 L372 537 L481 537 Z " />
<glyph glyph-name="uni04A2" unicode="&#x4a2;" horiz-adv-x="1298" d="M192 0 L482 1365 L605 1365 L478 769 L1145 769 L1272 1365 L1394 1365 L1126 106 L1249 106 L1183 -205 L1060 -205 L1104 0 L981 0 L1122 663 L455 663 L314 0 L192 0 Z " />
<glyph glyph-name="uni04A3" unicode="&#x4a3;" horiz-adv-x="1026" d="M358 447 L262 0 L150 0 L350 942 L463 942 L377 541 L876 541 L961 942 L1074 942 L893 94 L1013 94 L949 -205 L837 -205 L880 0 L761 0 L856 447 L358 447 Z " />
<glyph glyph-name="uni04AE" unicode="&#x4ae;" horiz-adv-x="1018" d="M449 0 L569 565 L289 1365 L426 1365 L654 683 L1171 1365 L1310 1365 L691 565 L571 0 L449 0 Z " />
<glyph glyph-name="uni04AF" unicode="&#x4af;" horiz-adv-x="820" d="M478 5 L402 -355 L289 -355 L366 6 L214 942 L339 942 L448 133 L883 942 L1007 942 L478 5 Z " />
<glyph glyph-name="uni04B0" unicode="&#x4b0;" horiz-adv-x="1018" d="M548 466 L307 466 L328 566 L569 566 L289 1365 L426 1365 L654 684 L1171 1365 L1310 1365 L691 566 L950 566 L929 466 L670 466 L571 0 L449 0 L548 466 Z " />
<glyph glyph-name="uni04B1" unicode="&#x4b1;" horiz-adv-x="820" d="M458 -89 L402 -355 L289 -355 L346 -89 L97 -89 L117 5 L366 5 L214 942 L339 942 L448 133 L883 942 L1007 942 L478 5 L739 5 L719 -89 L458 -89 Z " />
<glyph glyph-name="uni04B2" unicode="&#x4b2;" horiz-adv-x="1026" d="M950 106 L1068 106 L1001 -205 L879 -205 L922 0 L853 0 L639 598 L165 0 L27 0 L591 702 L342 1365 L477 1365 L676 800 L1124 1365 L1258 1365 L726 702 L950 106 Z " />
<glyph glyph-name="uni04B3" unicode="&#x4b3;" horiz-adv-x="862" d="M789 94 L903 94 L839 -205 L727 -205 L770 0 L693 0 L508 404 L153 0 L14 0 L456 495 L240 942 L381 942 L543 592 L861 942 L999 942 L596 502 L789 94 Z " />
<glyph glyph-name="uni04B8" unicode="&#x4b8;" horiz-adv-x="1248" d="M764 497 L704 216 L595 216 L655 498 Q547 511 475 553 Q328 639 328 801 Q328 874 349 974 L432 1365 L555 1365 L471 969 Q451 877 451 823 Q451 697 559 639 Q609 612 677 604 L735 876 L844 876 L787 605 Q934 623 1021 720.5 Q1108 818 1149 1014 L1224 1365 L1346 1365 L1056 0 L934 0 L1067 628 Q1014 574 932.5 539 Q851 504 764 497 Z " />
<glyph glyph-name="uni04B9" unicode="&#x4b9;" horiz-adv-x="958" d="M567 353 L524 149 L428 149 L472 354 Q410 359 357 383 Q218 444 218 593 Q218 637 227 678 L283 942 L402 942 L348 685 Q338 639 338 605 Q338 469 492 448 L536 658 L632 658 L587 449 Q686 462 753 528 Q820 594 843 698 L894 942 L1007 942 L806 0 L694 0 L787 438 Q701 366 567 353 Z " />
<glyph glyph-name="uni04BA" unicode="&#x4ba;" horiz-adv-x="1210" d="M471 737 Q533 800 627 835 Q721 870 825 870 Q1003 870 1113 777 Q1211 695 1211 563 Q1211 494 1189 391 L1106 0 L983 0 L1068 396 Q1088 491 1088 542 Q1088 632 1029 690 Q954 764 812 764 Q703 764 615 718 Q527 672 474 587 Q421 500 389 351 L314 0 L192 0 L482 1365 L605 1365 L471 737 Z " />
<glyph glyph-name="uni04BB" unicode="&#x4bb;" horiz-adv-x="1019" d="M152 0 L442 1365 L555 1365 L433 794 Q567 971 760 971 Q895 971 965 896 Q1020 838 1020 745 Q1020 680 1002 593 L875 0 L763 0 L881 555 Q902 655 902 716 Q902 776 879 811 Q836 877 734 877 Q653 877 579 836 Q505 795 457 723 Q400 639 365 472 L265 0 L152 0 Z " />
<glyph glyph-name="uni04C0" unicode="&#x4c0;" horiz-adv-x="506" d="M192 0 L482 1365 L605 1365 L314 0 L192 0 Z " />
<glyph glyph-name="uni04D8" unicode="&#x4d8;" horiz-adv-x="1311" d="M436 1121 Q613 1396 916 1396 Q1130 1396 1248 1261 Q1304 1196 1336.5 1095.5 Q1369 995 1369 886 Q1369 729 1323 570 Q1277 411 1196 286 Q1096 134 962 51 Q826 -33 670 -33 Q448 -33 330 131 Q231 267 231 477 Q231 596 263 735 L1230 735 Q1243 815 1243 891 Q1243 989 1216 1072.5 Q1189 1156 1141 1205 Q1057 1290 905 1290 Q688 1290 590 1121 L436 1121 Z M1208 629 L371 629 Q357 530 357 456 Q357 273 454 166 Q538 74 668 74 Q848 74 996.5 226.5 Q1145 379 1208 629 Z " />
<glyph glyph-name="afii10846" unicode="&#x4d9;" horiz-adv-x="943" d="M181 497 L856 497 Q870 569 870 617 Q870 743 797 816 Q736 877 632 877 Q567 877 503.5 849 Q440 821 403 777 L278 777 Q334 866 432.5 918.5 Q531 971 643 971 Q805 971 897 870 Q986 772 986 603 Q986 478 946 358.5 Q906 239 835 151 Q689 -29 487 -29 Q326 -29 241 66 Q158 159 158 315 Q158 394 181 497 Z M283 407 Q273 346 273 309 Q273 200 330 131 Q385 63 478 63 Q598 63 691.5 153 Q785 243 836 407 L283 407 Z " />
<glyph glyph-name="uni04E8" unicode="&#x4e8;" horiz-adv-x="1311" d="M393 735 L1230 735 Q1243 815 1243 890 Q1243 988 1216.5 1071 Q1190 1154 1142 1204 Q1060 1290 930 1290 Q786 1290 654 1182 Q475 1035 393 735 Z M1208 629 L371 629 Q357 530 357 456 Q357 273 454 166 Q538 74 668 74 Q848 74 996.5 226.5 Q1145 379 1208 629 Z M929 1396 Q1127 1396 1247 1260 Q1304 1196 1336.5 1096 Q1369 996 1369 886 Q1369 729 1323 570 Q1277 411 1196 286 Q1096 133 962 51 Q826 -33 670 -33 Q448 -33 330 131 Q231 267 231 466 Q231 677 308 884 Q399 1129 582 1272 Q741 1396 929 1396 Z " />
<glyph glyph-name="uni04E9" unicode="&#x4e9;" horiz-adv-x="984" d="M296 518 L908 518 Q916 562 916 605 Q916 754 833 826 Q771 879 679 879 Q549 879 447 783 Q345 687 296 518 Z M888 424 L276 424 Q268 366 268 325 Q268 182 355 112 Q415 63 505 63 Q637 63 737.5 157.5 Q838 252 888 424 Z M686 971 Q851 971 943 869 Q1027 775 1027 612 Q1027 495 989.5 378.5 Q952 262 885 172 Q734 -29 498 -29 Q338 -29 248 64 Q157 159 157 327 Q157 444 193 559 Q229 674 293 762 Q446 971 686 971 Z " />
<glyph glyph-name="Wgrave" unicode="&#x1e80;" horiz-adv-x="1518" d="M346 0 L322 1365 L446 1365 L456 193 L981 1365 L1116 1365 L1146 193 L1655 1365 L1776 1365 L1171 0 L1042 0 L1010 1183 L475 0 L346 0 Z M900 1737 L1026 1737 L1152 1479 L1047 1479 L900 1737 Z " />
<glyph glyph-name="wgrave" unicode="&#x1e81;" horiz-adv-x="1323" d="M670 1365 L796 1365 L910 1092 L801 1092 L670 1365 Z M325 0 L241 942 L369 942 L426 160 L799 942 L929 942 L972 162 L1360 942 L1482 942 L999 0 L872 0 L826 770 L455 0 L325 0 Z " />
<glyph glyph-name="Wacute" unicode="&#x1e82;" horiz-adv-x="1518" d="M346 0 L322 1365 L446 1365 L456 193 L981 1365 L1116 1365 L1146 193 L1655 1365 L1776 1365 L1171 0 L1042 0 L1010 1183 L475 0 L346 0 Z M1356 1737 L1099 1479 L994 1479 L1229 1737 L1356 1737 Z " />
<glyph glyph-name="wacute" unicode="&#x1e83;" horiz-adv-x="1323" d="M325 0 L241 942 L369 942 L426 160 L799 942 L929 942 L972 162 L1360 942 L1482 942 L999 0 L872 0 L826 770 L455 0 L325 0 Z M1113 1365 L877 1092 L774 1092 L995 1365 L1113 1365 Z " />
<glyph glyph-name="Wdieresis" unicode="&#x1e84;" horiz-adv-x="1518" d="M346 0 L322 1365 L446 1365 L456 193 L981 1365 L1116 1365 L1146 193 L1655 1365 L1776 1365 L1171 0 L1042 0 L1010 1183 L475 0 L346 0 Z M1161 1488 L1202 1679 L1320 1679 L1280 1488 L1161 1488 Z M843 1488 L883 1679 L1002 1679 L962 1488 L843 1488 Z " />
<glyph glyph-name="wdieresis" unicode="&#x1e85;" horiz-adv-x="1323" d="M325 0 L241 942 L369 942 L426 160 L799 942 L929 942 L972 162 L1360 942 L1482 942 L999 0 L872 0 L826 770 L455 0 L325 0 Z M982 1106 L1022 1297 L1137 1297 L1096 1106 L982 1106 Z M687 1106 L728 1297 L842 1297 L802 1106 L687 1106 Z " />
<glyph glyph-name="uni1E9E" unicode="&#x1e9e;" horiz-adv-x="1153" d="M817 763 Q963 757 1035 718 Q1166 647 1166 481 Q1166 274 1009 134 Q858 0 614 0 Q485 0 385 39 L474 131 Q549 106 621 106 Q811 106 914 190 Q972 236 1005 307 Q1038 378 1038 456 Q1038 563 949 617 Q880 658 709 658 L632 658 L646 728 L1106 1259 L846 1259 Q711 1259 618 1189 Q525 1119 499 998 L287 0 L164 0 L377 1002 Q409 1153 528 1252 Q666 1365 845 1365 L1263 1365 L1239 1253 L817 763 Z " />
<glyph glyph-name="Ygrave" unicode="&#x1ef2;" horiz-adv-x="1018" d="M449 0 L569 565 L289 1365 L426 1365 L654 683 L1171 1365 L1310 1365 L691 565 L571 0 L449 0 Z M651 1737 L777 1737 L903 1479 L798 1479 L651 1737 Z " />
<glyph glyph-name="ygrave" unicode="&#x1ef3;" horiz-adv-x="820" d="M449 1365 L575 1365 L689 1092 L580 1092 L449 1365 Z M29 -340 L49 -244 Q59 -246 64 -248 Q96 -257 123 -257 Q178 -257 215 -227.5 Q252 -198 296 -119 L366 7 L214 942 L339 942 L455 160 L883 942 L1007 942 L394 -145 Q331 -256 282 -298 Q215 -355 115 -355 Q71 -355 29 -340 Z " />
<glyph glyph-name="uni2000" unicode="&#x2000;" horiz-adv-x="1331" d="" />
<glyph glyph-name="uni2001" unicode="&#x2001;" horiz-adv-x="2662" d="" />
<glyph glyph-name="uni2002" unicode="&#x2002;" horiz-adv-x="1331" d="" />
<glyph glyph-name="uni2003" unicode="&#x2003;" horiz-adv-x="2662" d="" />
<glyph glyph-name="uni2004" unicode="&#x2004;" horiz-adv-x="888" d="" />
<glyph glyph-name="uni2005" unicode="&#x2005;" horiz-adv-x="666" d="" />
<glyph glyph-name="uni2006" unicode="&#x2006;" horiz-adv-x="443" d="" />
<glyph glyph-name="uni2007" unicode="&#x2007;" horiz-adv-x="1467" d="" />
<glyph glyph-name="uni2008" unicode="&#x2008;" horiz-adv-x="714" d="" />
<glyph glyph-name="uni2009" unicode="&#x2009;" horiz-adv-x="533" d="" />
<glyph glyph-name="uni200A" unicode="&#x200a;" horiz-adv-x="266" d="" />
<glyph glyph-name="uni200B" unicode="&#x200b;" d="" />
<glyph glyph-name="uni2010" unicode="&#x2010;" horiz-adv-x="408" d="M516 560 L494 454 L107 454 L130 560 L516 560 Z " />
<glyph glyph-name="uni2011" unicode="&#x2011;" horiz-adv-x="408" d="M516 560 L494 454 L107 454 L130 560 L516 560 Z " />
<glyph glyph-name="figuredash" unicode="&#x2012;" horiz-adv-x="1038" d="M999 560 L977 454 L252 454 L275 560 L999 560 Z " />
<glyph glyph-name="afii00208" unicode="&#x2015;" horiz-adv-x="1512" d="M1455 560 L1432 454 L280 454 L303 560 L1455 560 Z " />
<glyph glyph-name="quotereversed" unicode="&#x201b;" horiz-adv-x="515" d="" />
<glyph glyph-name="uni203E" unicode="&#x203e;" horiz-adv-x="1065" d="M424 1580 L1312 1580 L1289 1475 L402 1475 L424 1580 Z " />
<glyph glyph-name="zerosuperior" unicode="&#x2070;" horiz-adv-x="655" d="M628 1381 Q726 1381 780.5 1316.5 Q835 1252 835 1137 Q835 1049 808.5 936.5 Q782 824 741 738 Q641 529 461 529 Q359 529 303.5 592 Q248 655 248 771 Q248 854 274.5 966 Q301 1078 341 1163 Q443 1381 628 1381 Z M622 1302 Q556 1302 509 1258.5 Q462 1215 422 1117 Q346 931 346 764 Q346 608 469 608 Q589 608 662 787 Q737 971 737 1137 Q737 1215 707 1258.5 Q677 1302 622 1302 Z " />
<glyph glyph-name="foursuperior" unicode="&#x2074;" horiz-adv-x="553" d="M456 546 L506 762 L174 762 L193 842 L656 1365 L736 1365 L613 840 L722 840 L704 762 L595 762 L545 546 L456 546 Z M524 840 L607 1194 L290 840 L524 840 Z " />
<glyph glyph-name="fivesuperior" unicode="&#x2075;" horiz-adv-x="613" d="M440 1365 L827 1365 L808 1283 L495 1283 L399 1053 Q472 1099 546 1099 Q634 1099 685 1050 Q745 992 745 887 Q745 737 638 626 Q545 530 417 530 Q313 530 255 580 Q198 631 198 707 Q198 722 206 760 L297 760 Q293 727 293 715 Q293 667 326.5 638 Q360 609 416 609 Q515 609 585 706 Q645 789 645 889 Q645 1020 516 1020 Q426 1020 346 926 L268 938 L440 1365 Z " />
<glyph glyph-name="sixsuperior" unicode="&#x2076;" horiz-adv-x="649" d="M831 1180 L738 1180 Q739 1197 739 1206 Q739 1302 640 1302 Q482 1302 382 1003 Q469 1088 572 1088 Q666 1088 722.5 1030 Q779 972 779 875 Q779 735 686 632 Q593 529 467 529 Q365 529 305 589 Q246 647 246 746 Q246 853 286 992.5 Q326 1132 381 1218 Q486 1381 645 1381 Q731 1381 782 1336.5 Q833 1292 833 1217 Q833 1205 831 1180 Z M559 1010 Q456 1010 389 907 Q340 833 340 748 Q340 683 374 645.5 Q408 608 467 608 Q565 608 630 709 Q680 787 680 875 Q680 937 647 973.5 Q614 1010 559 1010 Z " />
<glyph glyph-name="sevensuperior" unicode="&#x2077;" horiz-adv-x="545" d="M346 546 L248 546 Q342 964 692 1281 L319 1281 L339 1365 L829 1365 L811 1287 L797 1275 Q619 1117 511 942 Q403 767 346 546 Z " />
<glyph glyph-name="eightsuperior" unicode="&#x2078;" horiz-adv-x="646" d="M431 1004 Q352 1051 352 1151 Q352 1251 425 1316 Q498 1381 610 1381 Q708 1381 768.5 1332 Q829 1283 829 1203 Q829 1127 788.5 1070.5 Q748 1014 677 992 Q766 936 766 821 Q766 707 686 619 Q605 529 463 529 Q354 529 291.5 583.5 Q229 638 229 733 Q229 826 284 899.5 Q339 973 431 1004 Z M610 1302 Q530 1302 485 1251 Q445 1205 445 1145 Q445 1094 478.5 1064.5 Q512 1035 570 1035 Q640 1035 686.5 1081 Q733 1127 733 1197 Q733 1245 700 1273.5 Q667 1302 610 1302 Z M537 956 Q439 956 378 882 Q328 820 328 742 Q328 678 364.5 641 Q401 604 465 604 Q552 604 610.5 667.5 Q669 731 669 825 Q669 887 634 921.5 Q599 956 537 956 Z " />
<glyph glyph-name="ninesuperior" unicode="&#x2079;" horiz-adv-x="649" d="M245 731 L338 731 Q337 707 337 703 Q337 659 363.5 633.5 Q390 608 436 608 Q594 608 694 908 Q607 823 504 823 Q410 823 353.5 880.5 Q297 938 297 1035 Q297 1175 390 1278 Q483 1381 609 1381 Q711 1381 771 1322 Q830 1263 830 1164 Q830 1058 790 918.5 Q750 779 695 693 Q590 529 431 529 Q345 529 294 573.5 Q243 618 243 694 Q243 705 245 731 Z M608 1302 Q511 1302 446 1201 Q396 1123 396 1035 Q396 974 428.5 937.5 Q461 901 517 901 Q619 901 687 1004 Q736 1078 736 1162 Q736 1227 702 1264.5 Q668 1302 608 1302 Z " />
<glyph glyph-name="parenleftsuperior" unicode="&#x207d;" horiz-adv-x="422" d="M616 1377 Q606 1364 585 1337 Q476 1200 411 1017.5 Q346 835 346 666 Q346 511 398 351 L317 351 Q260 533 260 676 Q260 851 329 1030 Q398 1209 525 1364 L536 1377 L616 1377 Z " />
<glyph glyph-name="parenrightsuperior" unicode="&#x207e;" horiz-adv-x="422" d="M173 351 Q182 363 204 390 Q314 530 378.5 711.5 Q443 893 443 1062 Q443 1207 391 1377 L471 1377 Q529 1191 529 1052 Q529 873 457.5 692 Q386 511 253 351 L173 351 Z " />
<glyph glyph-name="nsuperior" unicode="&#x207f;" horiz-adv-x="698" d="M242 546 L364 1119 L452 1119 L439 1057 Q519 1136 622 1136 Q693 1136 734.5 1098 Q776 1060 776 995 Q776 958 764 904 L688 546 L600 546 L671 881 Q684 943 684 975 Q684 1058 594 1058 Q500 1058 444 975 Q412 929 392 833 L331 546 L242 546 Z " />
<glyph glyph-name="zeroinferior" unicode="&#x2080;" horiz-adv-x="679" d="M524 835 Q622 835 676.5 770.5 Q731 706 731 591 Q731 503 704.5 390.5 Q678 278 637 192 Q537 -17 357 -17 Q255 -17 199.5 46 Q144 109 144 225 Q144 308 170.5 420 Q197 532 237 617 Q339 835 524 835 Z M518 756 Q452 756 405 712.5 Q358 669 318 571 Q242 385 242 218 Q242 62 365 62 Q485 62 558 241 Q633 425 633 591 Q633 669 603 712.5 Q573 756 518 756 Z " />
<glyph glyph-name="oneinferior" unicode="&#x2081;" horiz-adv-x="472" d="M196 0 L331 633 Q299 612 273.5 606 Q248 600 184 598 L200 673 Q343 672 388 819 L462 819 L288 0 L196 0 Z " />
<glyph glyph-name="twoinferior" unicode="&#x2082;" horiz-adv-x="643" d="M574 82 L555 0 L62 0 Q80 80 104 129 Q167 258 347 356 Q449 413 482.5 436 Q516 459 550 497 Q610 565 610 639 Q610 757 468 757 Q360 757 319 675 Q306 649 298 595 L200 595 Q215 680 237 718 Q305 837 475 837 Q593 837 657 775 Q709 725 709 646 Q709 533 606 434 Q569 398 535 376 Q501 354 374 282 Q224 198 188 82 L574 82 Z " />
<glyph glyph-name="threeinferior" unicode="&#x2083;" horiz-adv-x="620" d="M94 247 L185 247 Q175 203 175 180 Q175 126 213 94 Q251 62 316 62 Q415 62 472 132 Q520 191 520 263 Q520 326 482.5 361.5 Q445 397 378 397 Q370 397 331 395 L350 475 Q373 474 383 474 Q476 474 530.5 519 Q585 564 585 642 Q585 696 549 726 Q513 756 449 756 Q306 756 284 600 L194 600 Q226 835 455 835 Q560 835 622 783 Q684 731 684 643 Q684 492 522 435 Q620 381 620 265 Q620 146 541 69 Q452 -17 311 -17 Q200 -17 136 41 Q80 92 80 172 Q80 204 94 247 Z " />
<glyph glyph-name="fourinferior" unicode="&#x2084;" horiz-adv-x="553" d="M331 0 L381 216 L49 216 L68 296 L531 819 L611 819 L488 294 L597 294 L579 216 L470 216 L420 0 L331 0 Z M399 294 L482 648 L165 294 L399 294 Z " />
<glyph glyph-name="fiveinferior" unicode="&#x2085;" horiz-adv-x="631" d="M325 819 L712 819 L693 737 L380 737 L284 507 Q357 553 431 553 Q520 553 571 503 Q631 446 631 341 Q631 191 524 80 Q430 -17 302 -17 Q199 -17 141 34 Q83 84 83 160 Q83 176 91 214 L182 214 Q178 181 178 169 Q178 120 211.5 91 Q245 62 301 62 Q401 62 471 159 Q531 242 531 342 Q531 474 402 474 Q311 474 231 380 L153 392 L325 819 Z " />
<glyph glyph-name="sixinferior" unicode="&#x2086;" horiz-adv-x="649" d="M700 634 L607 634 Q608 652 608 660 Q608 757 509 757 Q351 757 251 457 Q339 542 441 542 Q535 542 591.5 484 Q648 426 648 329 Q648 189 555 86 Q462 -17 336 -17 Q234 -17 174 43 Q115 102 115 201 Q115 307 155 446.5 Q195 586 250 672 Q354 836 514 836 Q600 836 651 791.5 Q702 747 702 671 Q702 661 700 634 Z M428 464 Q325 464 258 361 Q209 287 209 202 Q209 137 243 99.5 Q277 62 336 62 Q434 62 499 163 Q549 241 549 329 Q549 391 516.5 427.5 Q484 464 428 464 Z " />
<glyph glyph-name="seveninferior" unicode="&#x2087;" horiz-adv-x="545" d="M228 0 L130 0 Q224 417 574 735 L201 735 L221 819 L711 819 L693 741 L679 729 Q501 571 393 396 Q285 221 228 0 Z " />
<glyph glyph-name="eightinferior" unicode="&#x2088;" horiz-adv-x="658" d="M312 458 Q233 505 233 605 Q233 705 306 770 Q379 835 491 835 Q589 835 649.5 786 Q710 737 710 657 Q710 581 669.5 524.5 Q629 468 558 446 Q647 390 647 275 Q647 161 567 73 Q486 -17 344 -17 Q235 -17 172.5 37.5 Q110 92 110 187 Q110 280 165 353.5 Q220 427 312 458 Z M491 756 Q411 756 366 705 Q326 659 326 599 Q326 548 359.5 518.5 Q393 489 451 489 Q521 489 567.5 535 Q614 581 614 651 Q614 700 581 728 Q548 756 491 756 Z M418 410 Q320 410 259 336 Q209 274 209 196 Q209 132 245.5 95 Q282 58 346 58 Q433 58 491.5 121.5 Q550 185 550 279 Q550 341 515 375.5 Q480 410 418 410 Z " />
</font>
</svg>
