<?xml version="1.0" encoding="UTF-8"?>
<svg xmlns="http://www.w3.org/2000/svg" xmlns:xlink="http://www.w3.org/1999/xlink" version="1.2" >
<font id="TeleGroteskScreen Thin">
<font-face  font-family="TeleGroteskScreen" units-per-em="2048" ascent="1880" descent="-369" font-style="normal" font-weight="300" font-stretch="normal" cap-height="1365" x-height="942" underline-position="-145" underline-thickness="71" />
<missing-glyph  horiz-adv-x="512" d="M51 0 L51 1365 L461 1365 L461 0 L51 0 Z M410 51 L410 1314 L102 1314 L102 51 L410 51 Z " />
<glyph glyph-name="space" unicode="&#x20;" horiz-adv-x="512" d="" />
<glyph glyph-name="exclam" unicode="&#x21;" horiz-adv-x="428" d="M249 1365 L249 965 L234 342 L189 342 L170 965 L170 1365 L249 1365 Z M268 195 L268 0 L160 0 L160 195 L268 195 Z " />
<glyph glyph-name="quotedbl" unicode="&#x22;" horiz-adv-x="507" d="M170 1365 L154 845 L98 845 L82 1365 L170 1365 Z M426 1365 L410 845 L354 845 L338 1365 L426 1365 Z " />
<glyph glyph-name="numbersign" unicode="&#x23;" horiz-adv-x="1229" d="M467 1297 L542 1297 L490 911 L797 911 L850 1297 L925 1297 L872 911 L1090 911 L1090 845 L859 845 L820 543 L1038 543 L1038 477 L807 477 L752 68 L677 68 L733 477 L425 477 L370 68 L295 68 L350 477 L135 477 L135 543 L363 543 L402 845 L187 845 L187 911 L415 911 L467 1297 Z M784 845 L477 845 L438 543 L746 543 L784 845 Z " />
<glyph glyph-name="dollar" unicode="&#x24;" horiz-adv-x="1053" d="M484 79 L484 669 Q344 709 277 751 Q117 853 117 1023 Q117 1141 193 1231 Q291 1347 484 1355 L484 1447 L566 1447 L566 1352 Q862 1310 899 1032 L821 1032 Q797 1157 730 1214 Q670 1265 566 1281 L566 723 L575 721 Q682 692 739 669 Q848 625 906 542 Q961 464 961 363 Q961 239 881 142 Q780 20 566 5 L566 -82 L484 -82 L484 7 Q132 50 92 383 L169 383 Q195 208 327 128 Q384 94 484 79 Z M566 77 Q674 84 754 131 Q812 165 845 225 Q879 287 879 364 Q879 509 752 584 Q703 613 566 648 L566 77 Z M484 1285 Q390 1279 338 1253 Q198 1182 198 1025 Q198 876 345 798 Q379 779 484 745 L484 1285 Z " />
<glyph glyph-name="percent" unicode="&#x25;" horiz-adv-x="1695" d="M378 1384 Q554 1384 648 1220 Q711 1110 711 954 Q711 798 647 687 Q555 526 378 526 Q201 526 108 688 Q45 798 45 961 Q45 1114 105 1218 Q202 1384 378 1384 Z M379 1318 Q245 1318 171 1188 Q119 1097 119 952 Q119 860 147.5 778 Q176 696 224 653 Q291 592 378 592 Q511 592 582 717 Q637 814 637 954 Q637 1096 582 1192 Q508 1318 379 1318 Z M598 -3 L519 -3 L1107 1365 L1183 1365 L598 -3 Z M1318 838 Q1493 838 1588 674 Q1651 565 1651 408 Q1651 252 1587 142 Q1494 -19 1317 -19 Q1140 -19 1048 142 Q984 253 984 416 Q984 568 1044 672 Q1141 838 1318 838 Z M1318 772 Q1184 772 1110 642 Q1058 551 1058 406 Q1058 315 1087 232.5 Q1116 150 1163 108 Q1230 47 1318 47 Q1450 47 1522 172 Q1577 269 1577 408 Q1577 551 1521 646 Q1448 772 1318 772 Z " />
<glyph glyph-name="ampersand" unicode="&#x26;" horiz-adv-x="1041" d="M769 152 Q721 95 695 70 Q594 -29 434 -29 Q268 -29 170 81 Q83 178 83 316 Q83 484 205 611 Q257 666 353 739 L338 760 Q250 883 220 952.5 Q190 1022 190 1102 Q190 1239 285 1325 Q364 1396 470 1396 Q590 1396 669 1308 Q740 1228 740 1115 Q740 1011 681.5 931 Q623 851 454 724 L771 287 Q823 402 835 567 L907 567 Q887 352 816 224 L978 0 L878 0 L769 152 Z M728 210 L395 679 Q163 515 163 315 Q163 185 251 107 Q327 38 439 38 Q528 38 594.5 77 Q661 116 728 210 Z M411 785 Q495 850 532 882 Q660 991 660 1115 Q660 1204 605 1265.5 Q550 1327 470 1327 Q383 1327 327 1263 Q269 1197 269 1100 Q269 1029 295 971 Q321 913 411 785 Z " />
<glyph glyph-name="quotesingle" unicode="&#x27;" horiz-adv-x="252" d="M170 1365 L154 845 L98 845 L82 1365 L170 1365 Z " />
<glyph glyph-name="parenleft" unicode="&#x28;" horiz-adv-x="492" d="M384 1365 Q162 967 162 504 Q162 48 384 -355 L326 -355 Q247 -208 200 -90 Q85 195 85 505 Q85 846 236 1191 Q277 1286 325 1365 L384 1365 Z " />
<glyph glyph-name="parenright" unicode="&#x29;" horiz-adv-x="492" d="M108 -355 Q329 44 329 504 Q329 960 108 1365 L166 1365 Q245 1217 292 1099 Q407 815 407 504 Q407 163 256 -182 Q215 -276 166 -355 L108 -355 Z " />
<glyph glyph-name="asterisk" unicode="&#x2a;" horiz-adv-x="817" d="M695 1137 L458 1060 L606 863 L556 825 L408 1024 L255 825 L204 863 L358 1059 L123 1137 L143 1197 L377 1117 L376 1365 L440 1365 L439 1117 L674 1197 L695 1137 Z " />
<glyph glyph-name="plus" unicode="&#x2b;" horiz-adv-x="1024" d="M68 725 L473 725 L473 1103 L552 1103 L552 725 L955 725 L955 654 L552 654 L552 276 L473 276 L473 654 L68 654 L68 725 Z " />
<glyph glyph-name="comma" unicode="&#x2c;" horiz-adv-x="373" d="M237 195 L237 56 Q237 -81 212 -147 Q187 -213 123 -246 L123 -182 Q180 -141 180 -24 L180 0 L129 0 L129 195 L237 195 Z " />
<glyph glyph-name="hyphen" unicode="&#x2d;" horiz-adv-x="403" d="M395 560 L395 493 L8 493 L8 560 L395 560 Z " />
<glyph glyph-name="period" unicode="&#x2e;" horiz-adv-x="379" d="M243 195 L243 0 L135 0 L135 195 L243 195 Z " />
<glyph glyph-name="slash" unicode="&#x2f;" horiz-adv-x="679" d="M21 -355 L-54 -355 L534 1365 L605 1365 L21 -355 Z " />
<glyph glyph-name="zero" unicode="0" horiz-adv-x="968" d="M485 1392 Q698 1392 801 1166 Q878 998 878 667 Q878 333 778 155 Q674 -29 484 -29 Q289 -29 189 150 Q89 329 89 676 Q89 994 169 1166 Q273 1392 485 1392 Z M484 1322 Q336 1322 263 1191 Q228 1127 212 1057 Q170 877 170 680 Q170 473 204.5 328.5 Q239 184 304 116 Q376 41 487 41 Q628 41 704 174 Q797 337 797 682 Q797 850 772.5 981.5 Q748 1113 703 1190 Q626 1322 484 1322 Z " />
<glyph glyph-name="one" unicode="1" horiz-adv-x="968" d="M476 0 L476 1140 Q431 1087 393 1072 Q347 1055 260 1052 L260 1118 Q387 1122 440 1199 Q474 1247 494 1365 L555 1365 L555 0 L476 0 Z " />
<glyph glyph-name="two" unicode="2" horiz-adv-x="968" d="M828 71 L828 0 L112 0 Q115 234 226 375 Q264 422 310 461 Q356 500 469 581 Q615 685 677 762 Q766 874 766 1016 Q766 1171 670 1255 Q593 1323 477 1323 Q345 1323 270 1244 Q195 1165 185 1016 L107 1016 Q119 1161 182 1249 Q283 1393 478 1393 Q647 1393 750 1283 Q847 1180 847 1018 Q847 895 796 805 Q723 675 578 572 L436 470 Q314 383 257.5 289.5 Q201 196 195 71 L828 71 Z " />
<glyph glyph-name="three" unicode="3" horiz-adv-x="968" d="M91 389 L167 389 Q170 256 217 171 Q251 110 313 77 Q382 40 466 40 Q611 40 695 134 Q774 223 774 369 Q774 531 679 614 Q591 691 453 691 Q427 691 393 689 L393 768 Q424 767 446 767 Q532 767 594 803 Q737 884 737 1056 Q737 1147 689 1218 Q617 1323 472 1323 Q343 1323 271 1246 Q199 1169 192 1024 L116 1024 Q122 1159 174 1243 Q215 1311 289 1349 Q374 1393 472 1393 Q664 1393 758 1255 Q817 1168 817 1056 Q817 827 598 734 Q690 708 746 655 Q855 554 855 376 Q855 189 743 76 Q641 -29 468 -29 Q262 -29 161 114 Q91 213 91 370 Q91 377 91 389 Z " />
<glyph glyph-name="four" unicode="4" horiz-adv-x="968" d="M616 0 L616 386 L87 386 L87 466 L621 1365 L695 1365 L695 454 L875 454 L875 386 L695 386 L695 0 L616 0 Z M616 454 L616 1232 L157 454 L616 454 Z " />
<glyph glyph-name="five" unicode="5" horiz-adv-x="968" d="M156 681 L262 1365 L808 1365 L808 1294 L326 1294 L241 779 Q338 901 492 901 Q638 901 736 804 Q797 745 831 650.5 Q865 556 865 448 Q865 282 783 144 Q680 -29 466 -29 Q306 -29 213.5 66.5 Q121 162 116 331 L191 331 Q196 224 238 157 Q313 39 467 39 Q635 39 721 188 Q785 299 785 445 Q785 567 743 659 Q663 831 485 831 Q313 831 225 667 L156 681 Z " />
<glyph glyph-name="six" unicode="6" horiz-adv-x="968" d="M825 1081 L747 1081 Q734 1174 691 1234 Q627 1322 506 1322 Q368 1322 297 1205 Q241 1113 214.5 983.5 Q188 854 181 640 Q222 742 278 795 Q371 882 503 882 Q705 882 808 702 Q872 589 872 440 Q872 280 801 149 Q756 65 671 16 Q593 -29 498 -29 Q301 -29 201 145 Q152 232 129.5 346 Q107 460 107 626 Q107 1038 227 1229 Q329 1392 506 1392 Q666 1392 755 1274 Q808 1205 825 1081 Z M498 813 Q369 813 287 713 Q200 608 200 435 Q200 341 233 251.5 Q266 162 320 112 Q396 41 500 41 Q652 41 732 178 Q792 282 792 434 Q792 580 735 676 Q655 813 498 813 Z " />
<glyph glyph-name="seven" unicode="7" horiz-adv-x="968" d="M414 0 L334 0 Q335 510 554 936 Q657 1138 787 1294 L138 1294 L138 1365 L865 1365 L865 1296 Q562 914 471 490 Q417 243 414 0 Z " />
<glyph glyph-name="eight" unicode="8" horiz-adv-x="968" d="M337 757 Q264 787 221 835 Q139 925 139 1055 Q139 1212 246 1310 Q334 1392 483 1392 Q653 1392 747 1286 Q828 1196 828 1067 Q828 958 777.5 878 Q727 798 632 757 Q728 711 778 652 Q874 540 874 378 Q874 254 813 148 Q712 -29 485 -29 Q301 -29 196 90 Q95 204 95 374 Q95 465 128 546.5 Q161 628 220 683 Q261 721 337 757 Z M484 1322 Q361 1322 287 1245 Q217 1173 217 1050 Q217 921 298 849 Q370 785 484 785 Q616 785 685 865 Q750 939 750 1055 Q750 1188 670 1259 Q600 1322 484 1322 Z M482 717 Q344 717 259 623 Q176 531 176 371 Q176 295 203.5 225.5 Q231 156 278 113 Q360 38 487 38 Q632 38 715 137 Q793 230 793 380 Q793 550 691 643 Q609 717 482 717 Z " />
<glyph glyph-name="nine" unicode="9" horiz-adv-x="968" d="M134 283 L211 283 Q224 190 268 130 Q333 41 455 41 Q593 41 664 158 Q720 250 746 378 Q772 506 780 724 Q739 622 683 569 Q590 482 458 482 Q256 482 153 662 Q89 774 89 923 Q89 1084 160 1215 Q205 1299 288 1347 Q366 1392 461 1392 Q659 1392 760 1217 Q809 1130 831.5 1016.5 Q854 903 854 737 Q854 327 734 134 Q632 -29 454 -29 Q294 -29 203 90 Q151 159 134 283 Z M459 1322 Q309 1322 230 1186 Q169 1082 169 930 Q169 786 226 688 Q305 551 462 551 Q622 551 707 698 Q761 791 761 928 Q761 1023 728 1111.5 Q695 1200 640 1251 Q563 1322 459 1322 Z " />
<glyph glyph-name="colon" unicode="&#x3a;" horiz-adv-x="379" d="M243 195 L243 0 L135 0 L135 195 L243 195 Z M243 934 L243 739 L135 739 L135 934 L243 934 Z " />
<glyph glyph-name="semicolon" unicode="&#x3b;" horiz-adv-x="373" d="M237 195 L237 56 Q237 -81 212 -147 Q187 -213 123 -246 L123 -182 Q180 -140 180 -24 L180 0 L129 0 L129 195 L237 195 Z M237 934 L237 739 L129 739 L129 934 L237 934 Z " />
<glyph glyph-name="less" unicode="&#x3c;" horiz-adv-x="1024" d="M955 1125 L955 1039 L159 683 L955 326 L955 240 L68 647 L68 719 L955 1125 Z " />
<glyph glyph-name="equal" unicode="&#x3d;" horiz-adv-x="1024" d="M68 879 L955 879 L955 808 L68 808 L68 879 Z M68 571 L955 571 L955 500 L68 500 L68 571 Z " />
<glyph glyph-name="greater" unicode="&#x3e;" horiz-adv-x="1024" d="M69 1125 L956 718 L956 647 L69 240 L69 326 L865 683 L69 1039 L69 1125 Z " />
<glyph glyph-name="question" unicode="&#x3f;" horiz-adv-x="856" d="M70 1017 Q74 1153 129 1244 Q221 1394 425 1394 Q604 1394 697 1287 Q776 1195 776 1064 Q776 982 749 920 Q704 816 602 707 Q512 611 495 563 Q467 486 466 340 L391 340 Q392 503 420.5 576 Q449 649 557 770 Q633 854 664 918.5 Q695 983 695 1056 Q695 1183 613 1259 Q543 1323 428 1323 Q334 1323 264.5 1276.5 Q195 1230 166 1147 Q151 1102 146 1017 L70 1017 Z M483 195 L483 0 L375 0 L375 195 L483 195 Z " />
<glyph glyph-name="at" unicode="&#x40;" horiz-adv-x="1517" d="M996 966 L1070 965 L990 547 Q985 519 985 492 Q985 456 1002.5 435 Q1020 414 1051 414 Q1154 414 1245 522 Q1361 659 1361 856 Q1361 1071 1214 1201 Q1145 1263 1046 1297.5 Q947 1332 841 1332 Q563 1332 366 1131 Q160 920 160 599 Q160 373 270 228 Q324 157 387 116 Q518 30 728 30 Q852 30 955 57.5 Q1058 85 1181 151 L1202 85 Q981 -33 723 -33 Q451 -33 297 99 Q233 154 190 223 Q86 388 86 604 Q86 875 241 1091 Q320 1201 433 1274 Q622 1396 844 1396 Q1023 1396 1175 1309 Q1295 1241 1363 1123 Q1431 1005 1431 858 Q1431 689 1342 546 Q1285 453 1207 401.5 Q1129 350 1047 350 Q990 350 956 382.5 Q922 415 918 472 Q837 339 704 339 Q610 339 548 410 Q482 485 482 617 Q482 704 513.5 783.5 Q545 863 600 916 Q677 989 776 989 Q921 989 969 828 L996 966 Z M779 923 Q696 923 632 850 Q555 763 555 621 Q555 494 617 438 Q657 403 707 403 Q751 403 793 426.5 Q835 450 860 489 Q928 592 928 735 Q928 837 873 886 Q832 923 779 923 Z " />
<glyph glyph-name="A" unicode="A" horiz-adv-x="1044" d="M793 447 L252 447 L104 0 L20 0 L479 1365 L569 1365 L1023 0 L938 0 L793 447 Z M770 518 L524 1271 L275 518 L770 518 Z " />
<glyph glyph-name="B" unicode="B" horiz-adv-x="1078" d="M147 0 L147 1365 L500 1365 Q695 1365 794 1309 Q947 1223 947 1033 Q947 915 884 833 Q821 751 700 713 Q991 649 991 377 Q991 160 827 66 Q710 0 518 0 L147 0 Z M229 744 L431 744 Q677 744 768 819 Q865 899 865 1033 Q865 1184 746 1250 Q668 1294 499 1294 L229 1294 L229 744 Z M229 71 L490 71 Q683 71 775 123 Q908 199 908 377 Q908 548 776 623 Q684 674 492 674 L229 674 L229 71 Z " />
<glyph glyph-name="C" unicode="C" horiz-adv-x="1174" d="M1019 454 L1099 454 Q1079 275 992 150 Q865 -33 636 -33 Q342 -33 194 230 Q89 416 89 676 Q89 946 194 1130 Q345 1397 645 1397 Q822 1397 938 1293 Q1054 1189 1091 997 L1011 997 Q985 1114 923 1194 Q823 1326 641 1326 Q399 1326 269 1099 Q171 930 171 681 Q171 429 268 259 Q395 38 632 38 Q791 38 889 143 Q987 248 1019 454 Z " />
<glyph glyph-name="D" unicode="D" horiz-adv-x="1130" d="M148 0 L148 1365 L454 1365 Q609 1365 711 1325 Q891 1254 981 1052 Q1044 910 1044 699 Q1044 302 851 129 Q706 0 459 0 L148 0 Z M230 71 L460 71 Q686 71 796 177 Q961 334 961 695 Q961 1032 797 1183 Q675 1294 467 1294 L230 1294 L230 71 Z " />
<glyph glyph-name="E" unicode="E" horiz-adv-x="1017" d="M147 0 L147 1365 L934 1365 L934 1294 L229 1294 L229 743 L891 743 L891 672 L229 672 L229 71 L941 71 L941 0 L147 0 Z " />
<glyph glyph-name="F" unicode="F" horiz-adv-x="919" d="M147 0 L147 1365 L878 1365 L878 1294 L229 1294 L229 743 L810 743 L810 672 L229 672 L229 0 L147 0 Z " />
<glyph glyph-name="G" unicode="G" horiz-adv-x="1252" d="M1032 1004 Q1010 1108 949 1182 Q831 1326 637 1326 Q397 1326 265 1097 Q169 929 169 683 Q169 435 266 265 Q395 40 627 40 Q872 40 990 314 Q1042 436 1048 605 L634 605 L634 676 L1129 676 L1129 0 L1054 0 L1054 315 Q997 170 911 81 Q804 -31 630 -31 Q410 -31 258 142 Q175 238 130.5 378.5 Q86 519 86 690 Q86 944 192 1131 Q267 1263 388 1332 Q500 1397 638 1397 Q821 1397 950.5 1289.5 Q1080 1182 1113 1004 L1032 1004 Z " />
<glyph glyph-name="H" unicode="H" horiz-adv-x="1207" d="M147 0 L147 1365 L229 1365 L229 751 L977 751 L977 1365 L1059 1365 L1059 0 L977 0 L977 680 L229 680 L229 0 L147 0 Z " />
<glyph glyph-name="I" unicode="I" horiz-adv-x="377" d="M147 0 L147 1365 L229 1365 L229 0 L147 0 Z " />
<glyph glyph-name="J" unicode="J" horiz-adv-x="586" d="M10 54 Q70 38 126 38 Q235 38 299 104 Q342 149 357.5 230.5 Q373 312 373 490 L373 1365 L455 1365 L455 472 Q455 322 442.5 244 Q430 166 396 106 Q316 -33 125 -33 Q70 -33 10 -18 L10 54 Z " />
<glyph glyph-name="K" unicode="K" horiz-adv-x="1025" d="M147 1365 L229 1365 L229 652 L894 1365 L995 1365 L452 784 L1015 0 L921 0 L398 726 L229 545 L229 0 L147 0 L147 1365 Z " />
<glyph glyph-name="L" unicode="L" horiz-adv-x="939" d="M147 0 L147 1365 L229 1365 L229 71 L900 71 L900 0 L147 0 Z " />
<glyph glyph-name="M" unicode="M" horiz-adv-x="1415" d="M147 0 L147 1365 L254 1365 L711 108 L1159 1365 L1268 1365 L1268 0 L1188 0 L1188 1226 L752 0 L671 0 L227 1218 L227 0 L147 0 Z " />
<glyph glyph-name="N" unicode="N" horiz-adv-x="1205" d="M147 0 L147 1365 L229 1365 L975 140 L975 1365 L1057 1365 L1057 0 L975 0 L229 1217 L229 0 L147 0 Z " />
<glyph glyph-name="O" unicode="O" horiz-adv-x="1260" d="M630 1396 Q824 1396 962 1264 Q1174 1062 1174 679 Q1174 416 1067 229 Q992 99 874 31 Q763 -33 628 -33 Q389 -33 245 153 Q86 358 86 693 Q86 950 188 1125 Q345 1396 630 1396 Z M630 1325 Q444 1325 319 1177 Q169 998 169 679 Q169 432 269 257 Q331 149 432 91 Q523 38 630 38 Q789 38 905 148 Q1091 324 1091 680 Q1091 932 993 1100 Q861 1325 630 1325 Z " />
<glyph glyph-name="P" unicode="P" horiz-adv-x="1008" d="M147 0 L147 1365 L453 1365 Q561 1365 630 1352 Q699 1339 756 1307 Q835 1263 878 1185 Q926 1097 926 986 Q926 759 750 660 Q645 600 460 600 L229 600 L229 0 L147 0 Z M229 671 L433 671 Q612 671 707 723 Q767 755 800 815 Q843 892 843 986 Q843 1073 806.5 1143 Q770 1213 707 1248 Q657 1276 605.5 1285 Q554 1294 447 1294 L229 1294 L229 671 Z " />
<glyph glyph-name="Q" unicode="Q" horiz-adv-x="1260" d="M988 122 L1130 -23 L1078 -71 L936 74 Q796 -33 632 -33 Q344 -33 193 230 Q86 416 86 682 Q86 946 188 1125 Q266 1262 388 1333 Q498 1396 630 1396 Q825 1396 963 1264 Q1174 1062 1174 678 Q1174 331 988 122 Z M934 177 Q1092 359 1092 679 Q1092 928 993 1100 Q929 1212 828 1273 Q741 1325 631 1325 Q471 1325 354 1212 Q169 1036 169 687 Q169 432 269 257 Q331 149 432 91 Q524 38 634 38 Q760 38 884 129 L704 311 L755 360 L934 177 Z " />
<glyph glyph-name="R" unicode="R" horiz-adv-x="1091" d="M147 0 L147 1365 L549 1365 Q717 1365 816 1312 Q890 1273 929 1198 Q971 1114 971 1009 Q971 820 850 718 Q800 676 729 664 Q811 647 857 599 Q896 558 912.5 494 Q929 430 937 288 Q945 144 954.5 91.5 Q964 39 988 0 L899 0 Q876 42 866.5 100 Q857 158 852 287 Q844 517 759 576 Q686 628 485 628 L229 628 L229 0 L147 0 Z M229 698 L527 698 Q681 698 759 739 Q815 769 847 830 Q889 910 889 1007 Q889 1093 856.5 1159 Q824 1225 766 1255 Q691 1294 547 1294 L229 1294 L229 698 Z " />
<glyph glyph-name="S" unicode="S" horiz-adv-x="998" d="M68 383 L147 383 Q164 257 222 178 Q324 39 516 39 Q681 39 769 139 Q846 226 846 347 Q846 480 756 557 Q692 611 503 664 Q381 698 319.5 725.5 Q258 753 207 796 Q157 839 128 906.5 Q99 974 99 1048 Q99 1206 208 1306 Q308 1397 474 1397 Q644 1397 752.5 1299.5 Q861 1202 881 1032 L800 1032 Q780 1146 732 1208 Q689 1263 621 1294.5 Q553 1326 475 1326 Q394 1326 330 1295 Q258 1260 218 1196 Q178 1132 178 1051 Q178 926 261 853 Q339 785 529 734 Q665 697 736.5 662 Q808 627 850 575 Q930 479 930 351 Q930 179 807 66 Q700 -33 514 -33 Q324 -33 207 76 Q90 185 68 383 Z " />
<glyph glyph-name="T" unicode="T" horiz-adv-x="985" d="M534 0 L452 0 L452 1294 L35 1294 L35 1365 L951 1365 L951 1294 L534 1294 L534 0 Z " />
<glyph glyph-name="U" unicode="U" horiz-adv-x="1162" d="M131 1365 L213 1365 L213 551 Q213 418 227 341.5 Q241 265 276 200 Q314 131 386 90 Q477 38 587 38 Q737 38 830 122 Q894 179 921.5 274 Q949 369 949 533 L949 1365 L1031 1365 L1031 570 Q1031 417 1015 328 Q999 239 958 165 Q910 75 818 25 Q713 -33 585 -33 Q400 -33 280 75 Q200 147 165.5 257.5 Q131 368 131 555 L131 1365 Z " />
<glyph glyph-name="V" unicode="V" horiz-adv-x="987" d="M883 1365 L966 1365 L541 0 L450 0 L20 1365 L106 1365 L496 101 L883 1365 Z " />
<glyph glyph-name="W" unicode="W" horiz-adv-x="1466" d="M339 0 L25 1365 L108 1365 L388 112 L683 1365 L782 1365 L1079 113 L1363 1365 L1442 1365 L1126 0 L1033 0 L732 1252 L433 0 L339 0 Z " />
<glyph glyph-name="X" unicode="X" horiz-adv-x="961" d="M20 0 L435 703 L45 1365 L138 1365 L481 764 L833 1365 L921 1365 L529 701 L940 0 L849 0 L481 636 L108 0 L20 0 Z " />
<glyph glyph-name="Y" unicode="Y" horiz-adv-x="933" d="M425 0 L425 606 L-2 1365 L90 1365 L468 682 L844 1365 L935 1365 L507 602 L507 0 L425 0 Z " />
<glyph glyph-name="Z" unicode="Z" horiz-adv-x="1001" d="M57 0 L57 59 L837 1294 L111 1294 L111 1365 L936 1365 L936 1308 L154 71 L950 71 L950 0 L57 0 Z " />
<glyph glyph-name="bracketleft" unicode="&#x5b;" horiz-adv-x="506" d="M406 1365 L406 1298 L218 1298 L218 -288 L406 -288 L406 -355 L139 -355 L139 1365 L406 1365 Z " />
<glyph glyph-name="backslash" unicode="&#x5c;" horiz-adv-x="679" d="M658 -355 L73 1365 L144 1365 L732 -355 L658 -355 Z " />
<glyph glyph-name="bracketright" unicode="&#x5d;" horiz-adv-x="506" d="M100 -355 L100 -288 L288 -288 L288 1298 L100 1298 L100 1365 L367 1365 L367 -355 L100 -355 Z " />
<glyph glyph-name="asciicircum" unicode="&#x5e;" horiz-adv-x="989" d="M157 779 L73 779 L442 1368 L547 1368 L916 779 L832 779 L493 1311 L157 779 Z " />
<glyph glyph-name="underscore" unicode="&#x5f;" horiz-adv-x="1024" d="M68 -109 L955 -109 L955 -180 L68 -180 L68 -109 Z " />
<glyph glyph-name="grave" unicode="&#x60;" horiz-adv-x="1014" d="M295 1359 L394 1359 L566 1096 L484 1096 L295 1359 Z " />
<glyph glyph-name="a" unicode="a" horiz-adv-x="881" d="M837 68 L837 5 Q798 -10 761 -10 Q656 -10 656 134 Q656 151 657 191 Q635 131 591 81 Q494 -29 346 -29 Q223 -29 150 54 Q83 129 83 240 Q83 428 267 504 Q360 542 648 551 L648 639 Q648 764 619 814 Q566 904 416 904 Q218 904 198 757 L121 757 Q127 838 176 889 Q255 971 416 971 Q635 971 700 822 Q725 766 726 657 L727 583 L727 193 Q727 105 736.5 81 Q746 57 782 57 Q803 57 837 68 Z M648 487 Q378 475 293 435 Q162 372 162 240 Q162 153 217.5 95.5 Q273 38 357 38 Q480 38 564 140.5 Q648 243 648 392 L648 487 Z " />
<glyph glyph-name="b" unicode="b" horiz-adv-x="955" d="M137 0 L137 1365 L216 1365 L216 764 Q249 859 327 915 Q405 971 504 971 Q638 971 734 881 Q875 748 875 473 Q875 277 803 151 Q752 61 671 14 Q597 -29 509 -29 Q404 -29 327 30.5 Q250 90 213 199 L213 0 L137 0 Z M504 904 Q389 904 310 816 Q265 766 238 672.5 Q211 579 211 477 Q211 295 277 179 Q357 38 512 38 Q652 38 731 176 Q796 291 796 469 Q796 655 729 769 Q649 904 504 904 Z " />
<glyph glyph-name="c" unicode="c" horiz-adv-x="863" d="M721 302 L793 302 Q782 192 725 109 Q628 -29 456 -29 Q256 -29 156 146 Q80 278 80 471 Q80 661 155 791 Q259 971 465 971 Q626 971 717 852 Q772 780 787 679 L714 679 Q700 781 633 842.5 Q566 904 468 904 Q308 904 224 757 Q159 642 159 471 Q159 294 225 178 Q305 38 458 38 Q564 38 634 108.5 Q704 179 721 302 Z " />
<glyph glyph-name="d" unicode="d" horiz-adv-x="955" d="M818 0 L742 0 L742 199 Q714 115 664 63 Q576 -29 446 -29 Q254 -29 152 151 Q80 277 80 473 Q80 667 150 790 Q201 879 283 927 Q359 971 450 971 Q550 971 626 916.5 Q702 862 739 764 L739 1365 L818 1365 L818 0 Z M451 904 Q304 904 226 769 Q159 653 159 468 Q159 290 224 176 Q304 38 447 38 Q573 38 649 135 Q744 258 744 474 Q744 665 669 782 Q591 904 451 904 Z " />
<glyph glyph-name="e" unicode="e" horiz-adv-x="908" d="M828 469 L157 469 Q156 380 180 294 Q249 38 485 38 Q572 38 643.5 74 Q715 110 739 165 L814 165 Q789 91 727 46 Q624 -29 483 -29 Q260 -29 156 153 Q80 285 80 475 Q80 655 150 779 Q258 971 465 971 Q635 971 731.5 837.5 Q828 704 828 469 Z M750 535 Q750 605 723 692 Q693 790 629 845 Q559 905 460 905 Q335 905 253 804 Q171 703 159 535 L750 535 Z " />
<glyph glyph-name="f" unicode="f" horiz-adv-x="474" d="M184 0 L184 875 L29 875 L29 942 L184 942 L184 1081 Q184 1175 190.5 1218.5 Q197 1262 216 1296 Q265 1383 369 1383 Q407 1383 463 1366 L463 1292 Q418 1313 379 1313 Q311 1313 283 1262 Q263 1225 263 1090 L263 942 L442 942 L442 875 L263 875 L263 0 L184 0 Z " />
<glyph glyph-name="g" unicode="g" horiz-adv-x="970" d="M754 942 L833 942 L833 128 Q833 10 820.5 -57 Q808 -124 774 -180 Q671 -355 447 -355 Q317 -355 228.5 -298.5 Q140 -242 117 -145 L199 -145 Q214 -198 251 -226 Q331 -288 453 -288 Q623 -288 703 -148 Q754 -59 754 97 L754 225 Q729 156 682 107 Q589 12 454 12 Q319 12 221 104 Q81 235 81 494 Q81 669 147 786 Q197 875 281 924 Q362 971 461 971 Q671 971 754 766 L754 942 Z M465 904 Q302 904 216 753 Q159 651 159 493 Q159 389 193 294 Q227 199 281 149 Q358 79 460 79 Q579 79 659 170 Q703 221 730 311.5 Q757 402 757 503 Q757 665 699 765 Q618 904 465 904 Z " />
<glyph glyph-name="h" unicode="h" horiz-adv-x="951" d="M137 0 L137 1365 L216 1365 L216 780 Q308 971 518 971 Q730 971 796 796 Q820 731 820 577 L820 0 L741 0 L741 571 Q741 722 716 780 Q662 904 513 904 Q403 904 322 832 Q264 780 240 702 Q216 624 216 486 L216 0 L137 0 Z " />
<glyph glyph-name="i" unicode="i" horiz-adv-x="361" d="M141 1174 L141 1365 L220 1365 L220 1174 L141 1174 Z M141 0 L141 942 L220 942 L220 0 L141 0 Z " />
<glyph glyph-name="j" unicode="j" horiz-adv-x="392" d="M-8 -277 Q21 -286 48 -286 Q138 -286 160 -212 Q170 -177 171 -47 L171 942 L250 942 L250 -45 Q250 -213 216 -274 Q169 -355 50 -355 Q22 -355 -8 -346 L-8 -277 Z M171 1174 L171 1365 L250 1365 L250 1174 L171 1174 Z " />
<glyph glyph-name="k" unicode="k" horiz-adv-x="837" d="M137 0 L137 1365 L216 1365 L216 502 L691 942 L787 942 L410 587 L806 0 L717 0 L355 535 L216 404 L216 0 L137 0 Z " />
<glyph glyph-name="l" unicode="l" horiz-adv-x="361" d="M141 0 L141 1365 L220 1365 L220 0 L141 0 Z " />
<glyph glyph-name="m" unicode="m" horiz-adv-x="1418" d="M137 0 L137 942 L216 942 L216 765 Q289 971 481 971 Q664 971 727 777 Q824 971 1008 971 Q1082 971 1145.5 937.5 Q1209 904 1238 849 Q1287 758 1287 577 L1287 0 L1208 0 L1208 569 Q1208 730 1177 794 Q1125 904 1004 904 Q942 904 888 871.5 Q834 839 805 784 Q775 728 763.5 663.5 Q752 599 752 486 L752 0 L673 0 L673 569 Q673 737 634 814 Q613 855 568.5 879.5 Q524 904 471 904 Q409 904 356 871 Q303 838 273 781 Q240 720 228 655 Q216 590 216 477 L216 0 L137 0 Z " />
<glyph glyph-name="n" unicode="n" horiz-adv-x="951" d="M137 0 L137 942 L216 942 L216 761 Q309 971 517 971 Q650 971 734 884 Q782 834 801 766 Q820 698 820 577 L820 0 L741 0 L741 571 Q741 720 712 781 Q652 904 506 904 Q400 904 324 834 Q266 780 241 700.5 Q216 621 216 486 L216 0 L137 0 Z " />
<glyph glyph-name="o" unicode="o" horiz-adv-x="950" d="M475 971 Q688 971 796 785 Q870 657 870 471 Q870 286 796 156 Q690 -29 473 -29 Q304 -29 198 92 Q143 155 111.5 257.5 Q80 360 80 475 Q80 658 154 785 Q263 971 475 971 Z M475 904 Q339 904 256 799 Q159 676 159 466 Q159 301 223 189 Q309 38 475 38 Q641 38 727 189 Q791 302 791 472 Q791 640 727 750 Q638 904 475 904 Z " />
<glyph glyph-name="p" unicode="p" horiz-adv-x="954" d="M137 943 L215 943 L215 745 Q241 825 288 877 Q376 972 510 972 Q702 972 802 795 Q875 667 875 470 Q875 276 805 152 Q755 64 673 17 Q597 -27 505 -27 Q404 -27 326.5 28.5 Q249 84 216 179 L216 -399 L137 -399 L137 943 Z M510 905 Q385 905 309 808 Q214 687 214 460 Q214 351 246.5 253.5 Q279 156 332 108 Q406 40 505 40 Q652 40 729 175 Q796 292 796 474 Q796 654 730 767 Q650 905 510 905 Z " />
<glyph glyph-name="q" unicode="q" horiz-adv-x="954" d="M817 943 L817 -399 L738 -399 L738 179 Q705 84 627.5 28.5 Q550 -27 449 -27 Q315 -27 220 63 Q79 195 79 470 Q79 667 152 795 Q252 972 444 972 Q550 972 628 912 Q706 852 738 746 L738 943 L817 943 Z M441 905 Q303 905 224 767 Q158 652 158 473 Q158 291 225 175 Q303 40 449 40 Q598 40 675 176 Q740 292 740 470 Q740 651 675 764 Q593 905 441 905 Z " />
<glyph glyph-name="r" unicode="r" horiz-adv-x="557" d="M137 0 L137 942 L214 942 L214 716 Q267 845 347 901.5 Q427 958 555 958 L555 878 Q544 879 542 879 Q358 879 270 725 Q240 672 228 600 Q216 528 216 397 L216 0 L137 0 Z " />
<glyph glyph-name="s" unicode="s" horiz-adv-x="753" d="M68 265 L145 265 Q157 181 197 128 Q266 38 388 38 Q494 38 554 106 Q606 165 606 244 Q606 334 544 381 Q510 406 479 418 Q448 430 337 462 Q221 494 168 539 Q89 606 89 717 Q89 830 171 903 Q246 971 363 971 Q485 971 562.5 902 Q640 833 655 713 L577 713 Q564 787 534 827 Q475 905 367 905 Q271 905 211 840 Q165 789 165 719 Q165 638 219 596 Q252 569 284 556 Q316 543 442 505 Q554 472 604 429 Q685 360 685 244 Q685 120 599 43 Q521 -29 386 -29 Q250 -29 167 47.5 Q84 124 68 265 Z " />
<glyph glyph-name="t" unicode="t" horiz-adv-x="475" d="M6 875 L6 942 L164 942 L164 1107 L230 1229 L242 1229 L242 942 L428 942 L428 875 L242 875 L242 259 Q242 130 261 97 Q284 57 346 57 Q379 57 428 73 L428 5 Q380 -11 340 -11 Q212 -11 179 83 Q164 123 164 267 L164 875 L6 875 Z " />
<glyph glyph-name="u" unicode="u" horiz-adv-x="951" d="M814 942 L814 0 L735 0 L735 181 Q642 -29 433 -29 Q352 -29 284 6.5 Q216 42 182 103 Q131 194 131 365 L131 942 L210 942 L210 371 Q210 217 251 140 Q276 93 328 65.5 Q380 38 444 38 Q604 38 681 176 Q711 231 723 292 Q735 353 735 456 L735 942 L814 942 Z " />
<glyph glyph-name="v" unicode="v" horiz-adv-x="730" d="M330 0 L12 942 L95 942 L373 98 L636 942 L718 942 L415 0 L330 0 Z " />
<glyph glyph-name="w" unicode="w" horiz-adv-x="1178" d="M288 0 L20 942 L103 942 L333 103 L543 942 L635 942 L849 107 L1077 942 L1157 942 L891 0 L801 0 L589 825 L379 0 L288 0 Z " />
<glyph glyph-name="x" unicode="x" horiz-adv-x="750" d="M8 0 L327 496 L34 942 L128 942 L372 562 L621 942 L712 942 L419 501 L742 0 L649 0 L373 435 L99 0 L8 0 Z " />
<glyph glyph-name="y" unicode="y" horiz-adv-x="740" d="M727 942 L368 -134 Q330 -250 278 -290.5 Q226 -331 118 -331 Q96 -331 77 -325 L77 -256 Q103 -261 131 -261 Q201 -261 237.5 -231.5 Q274 -202 298 -125 L341 11 L12 942 L94 942 L380 116 L647 942 L727 942 Z " />
<glyph glyph-name="z" unicode="z" horiz-adv-x="774" d="M726 942 L726 900 L149 67 L747 67 L747 0 L49 0 L49 50 L621 875 L87 875 L87 942 L726 942 Z " />
<glyph glyph-name="braceleft" unicode="&#x7b;" horiz-adv-x="506" d="M405 1365 L405 1298 L381 1298 Q301 1298 265.5 1259 Q230 1220 230 1132 L230 749 Q230 653 207 603.5 Q184 554 125 520 Q183 487 206.5 434.5 Q230 382 230 287 L230 -91 Q230 -184 254 -225 Q286 -278 370 -280 L405 -281 L405 -352 L390 -352 Q256 -352 203.5 -293 Q151 -234 151 -83 L151 287 Q151 378 122.5 421 Q94 464 21 485 L21 561 Q92 580 121.5 623 Q151 666 151 752 L151 1109 Q151 1246 193 1298 Q248 1365 376 1365 L405 1365 Z " />
<glyph glyph-name="bar" unicode="&#x7c;" horiz-adv-x="985" d="M452 1365 L533 1365 L533 -341 L452 -341 L452 1365 Z " />
<glyph glyph-name="braceright" unicode="&#x7d;" horiz-adv-x="506" d="M101 1365 L130 1365 Q255 1365 305.5 1308 Q356 1251 356 1109 L356 752 Q356 666 385 623 Q414 580 485 561 L485 485 Q413 464 384.5 421 Q356 378 356 287 L356 -83 Q356 -229 310 -285 Q256 -352 116 -352 L101 -352 L101 -281 L136 -280 Q214 -278 245.5 -235.5 Q277 -193 277 -91 L277 287 Q277 382 300.5 434.5 Q324 487 382 520 Q341 544 322 567 Q277 620 277 749 L277 1132 Q277 1228 240 1261 Q199 1298 125 1298 L101 1298 L101 1365 Z " />
<glyph glyph-name="asciitilde" unicode="&#x7e;" horiz-adv-x="1365" d="M263 1203 L194 1256 Q248 1360 308 1414 Q371 1472 462 1472 Q549 1472 701 1390 Q837 1316 904 1316 Q963 1316 1008.5 1352.5 Q1054 1389 1103 1477 L1172 1424 Q1119 1321 1060 1266 Q994 1206 904 1206 Q824 1206 661 1293 Q530 1363 460 1363 Q402 1363 358 1327 Q314 1291 263 1203 Z " />
<glyph glyph-name="Adieresis" unicode="&#xc4;" horiz-adv-x="1044" d="M793 446 L252 446 L104 0 L20 0 L479 1365 L569 1365 L1023 0 L938 0 L793 446 Z M770 517 L524 1271 L275 517 L770 517 Z M721 1673 L721 1484 L639 1484 L639 1673 L721 1673 Z M404 1673 L404 1484 L322 1484 L322 1673 L404 1673 Z " />
<glyph glyph-name="Aring" unicode="&#xc5;" horiz-adv-x="1044" d="M793 447 L252 447 L104 0 L20 0 L479 1365 L569 1365 L1023 0 L938 0 L793 447 Z M770 518 L524 1271 L275 518 L770 518 Z M524 1793 Q601 1793 654 1734 Q699 1685 699 1618 Q699 1540 641 1489 Q590 1443 521 1443 Q440 1443 388 1501 Q343 1552 343 1619 Q343 1691 396 1742 Q449 1793 524 1793 Z M520 1737 Q473 1737 439.5 1702 Q406 1667 406 1618 Q406 1569 439.5 1534 Q473 1499 521 1499 Q569 1499 602.5 1533.5 Q636 1568 636 1618 Q636 1668 602.5 1702.5 Q569 1737 520 1737 Z " />
<glyph glyph-name="Ccedilla" unicode="&#xc7;" horiz-adv-x="1172" d="M619 -33 L580 -126 Q612 -107 648 -107 Q708 -107 749 -145.5 Q790 -184 790 -242 Q790 -305 747 -343 Q704 -381 633 -381 Q517 -381 489 -295 L563 -295 Q579 -336 630 -336 Q669 -336 692.5 -311 Q716 -286 716 -245 Q716 -203 692 -178 Q668 -153 629 -153 Q590 -153 568 -185 L499 -185 L560 -28 Q374 -3 256 137 Q86 337 86 676 Q86 946 191 1130 Q343 1397 642 1397 Q819 1397 935 1293 Q1051 1189 1088 997 L1008 997 Q982 1114 920 1194 Q820 1326 638 1326 Q396 1326 266 1099 Q168 930 168 681 Q168 429 265 259 Q392 38 629 38 Q788 38 886 143 Q984 248 1016 454 L1096 454 Q1076 275 989 150 Q862 -33 636 -33 Q631 -33 619 -33 Z " />
<glyph glyph-name="Eacute" unicode="&#xc9;" horiz-adv-x="1017" d="M147 0 L147 1365 L934 1365 L934 1294 L229 1294 L229 743 L891 743 L891 672 L229 672 L229 71 L941 71 L941 0 L147 0 Z M736 1737 L539 1479 L457 1479 L634 1737 L736 1737 Z " />
<glyph glyph-name="Ntilde" unicode="&#xd1;" horiz-adv-x="1205" d="M147 0 L147 1365 L229 1365 L975 140 L975 1365 L1057 1365 L1057 0 L975 0 L229 1217 L229 0 L147 0 Z M883 1701 Q850 1510 730 1510 Q677 1510 602 1573 Q542 1624 501 1624 Q430 1624 405 1508 L344 1508 Q379 1700 500 1700 Q536 1700 565 1684 Q594 1668 661 1612 Q693 1586 725 1586 Q795 1586 820 1701 L883 1701 Z " />
<glyph glyph-name="Odieresis" unicode="&#xd6;" horiz-adv-x="1260" d="M630 1396 Q824 1396 962 1264 Q1174 1062 1174 679 Q1174 416 1067 229 Q992 99 874 31 Q763 -33 628 -33 Q389 -33 245 153 Q86 358 86 693 Q86 950 188 1125 Q345 1396 630 1396 Z M630 1325 Q444 1325 319 1177 Q169 998 169 679 Q169 432 269 257 Q331 149 432 91 Q523 38 630 38 Q789 38 905 148 Q1091 324 1091 680 Q1091 932 993 1100 Q861 1325 630 1325 Z M833 1677 L833 1488 L744 1488 L744 1677 L833 1677 Z M516 1677 L516 1488 L427 1488 L427 1677 L516 1677 Z " />
<glyph glyph-name="Udieresis" unicode="&#xdc;" horiz-adv-x="1162" d="M131 1365 L213 1365 L213 551 Q213 418 227 341.5 Q241 265 276 200 Q314 131 386 90 Q477 38 587 38 Q737 38 830 122 Q894 179 921.5 274 Q949 369 949 533 L949 1365 L1031 1365 L1031 570 Q1031 417 1015 328 Q999 239 958 165 Q910 75 818 25 Q713 -33 585 -33 Q400 -33 280 75 Q200 147 165.5 257.5 Q131 368 131 555 L131 1365 Z M781 1677 L781 1488 L699 1488 L699 1677 L781 1677 Z M464 1677 L464 1488 L382 1488 L382 1677 L464 1677 Z " />
<glyph glyph-name="aacute" unicode="&#xe1;" horiz-adv-x="881" d="M837 68 L837 5 Q798 -10 761 -10 Q656 -10 656 134 Q656 151 657 191 Q635 131 591 81 Q494 -29 346 -29 Q223 -29 150 54 Q83 129 83 240 Q83 428 267 504 Q360 542 648 551 L648 639 Q648 764 619 814 Q566 904 416 904 Q218 904 198 757 L121 757 Q127 838 176 889 Q255 971 416 971 Q635 971 700 822 Q725 766 726 657 L727 583 L727 193 Q727 105 736.5 81 Q746 57 782 57 Q803 57 837 68 Z M648 487 Q378 475 293 435 Q162 372 162 240 Q162 153 217.5 95.5 Q273 38 357 38 Q480 38 564 140.5 Q648 243 648 392 L648 487 Z M644 1359 L455 1096 L373 1096 L545 1359 L644 1359 Z " />
<glyph glyph-name="agrave" unicode="&#xe0;" horiz-adv-x="881" d="M837 68 L837 5 Q798 -10 761 -10 Q656 -10 656 134 Q656 151 657 191 Q635 131 591 81 Q494 -29 346 -29 Q223 -29 150 54 Q83 129 83 240 Q83 428 267 504 Q360 542 648 551 L648 639 Q648 764 619 814 Q566 904 416 904 Q218 904 198 757 L121 757 Q127 838 176 889 Q255 971 416 971 Q635 971 700 822 Q725 766 726 657 L727 583 L727 193 Q727 105 736.5 81 Q746 57 782 57 Q803 57 837 68 Z M648 487 Q378 475 293 435 Q162 372 162 240 Q162 153 217.5 95.5 Q273 38 357 38 Q480 38 564 140.5 Q648 243 648 392 L648 487 Z M244 1359 L343 1359 L515 1096 L433 1096 L244 1359 Z " />
<glyph glyph-name="acircumflex" unicode="&#xe2;" horiz-adv-x="881" d="M837 68 L837 5 Q798 -10 761 -10 Q656 -10 656 134 Q656 151 657 191 Q635 131 591 81 Q494 -29 346 -29 Q223 -29 150 54 Q83 129 83 240 Q83 428 267 504 Q360 542 648 551 L648 639 Q648 764 619 814 Q566 904 416 904 Q218 904 198 757 L121 757 Q127 838 176 889 Q255 971 416 971 Q635 971 700 822 Q725 766 726 657 L727 583 L727 193 Q727 105 736.5 81 Q746 57 782 57 Q803 57 837 68 Z M648 487 Q378 475 293 435 Q162 372 162 240 Q162 153 217.5 95.5 Q273 38 357 38 Q480 38 564 140.5 Q648 243 648 392 L648 487 Z M666 1093 L584 1093 L442 1301 L294 1093 L216 1093 L401 1357 L485 1357 L666 1093 Z " />
<glyph glyph-name="adieresis" unicode="&#xe4;" horiz-adv-x="881" d="M625 1292 L625 1103 L546 1103 L546 1292 L625 1292 Z M329 1292 L329 1103 L250 1103 L250 1292 L329 1292 Z M837 68 L837 5 Q798 -10 761 -10 Q656 -10 656 134 Q656 151 657 191 Q635 131 591 81 Q494 -29 346 -29 Q223 -29 150 54 Q83 129 83 240 Q83 428 267 504 Q360 542 648 551 L648 639 Q648 764 619 814 Q566 904 416 904 Q218 904 198 757 L121 757 Q127 838 176 889 Q255 971 416 971 Q635 971 700 822 Q725 766 726 657 L727 583 L727 193 Q727 105 736.5 81 Q746 57 782 57 Q803 57 837 68 Z M648 487 Q378 475 293 435 Q162 372 162 240 Q162 153 217.5 95.5 Q273 38 357 38 Q480 38 564 140.5 Q648 243 648 392 L648 487 Z " />
<glyph glyph-name="atilde" unicode="&#xe3;" horiz-adv-x="881" d="M837 68 L837 5 Q798 -10 761 -10 Q656 -10 656 134 Q656 151 657 191 Q635 131 591 81 Q494 -29 346 -29 Q223 -29 150 54 Q83 129 83 240 Q83 428 267 504 Q360 542 648 551 L648 639 Q648 764 619 814 Q566 904 416 904 Q218 904 198 757 L121 757 Q127 838 176 889 Q255 971 416 971 Q635 971 700 822 Q725 766 726 657 L727 583 L727 193 Q727 105 736.5 81 Q746 57 782 57 Q803 57 837 68 Z M648 487 Q378 475 293 435 Q162 372 162 240 Q162 153 217.5 95.5 Q273 38 357 38 Q480 38 564 140.5 Q648 243 648 392 L648 487 Z M700 1320 Q665 1123 549 1123 Q497 1123 422 1191 Q361 1246 321 1246 Q252 1246 227 1123 L168 1123 Q202 1321 322 1321 Q381 1321 446 1259 Q510 1199 545 1199 Q614 1199 639 1320 L700 1320 Z " />
<glyph glyph-name="aring" unicode="&#xe5;" horiz-adv-x="881" d="M837 68 L837 5 Q798 -10 761 -10 Q656 -10 656 134 Q656 151 657 191 Q635 131 591 81 Q494 -29 346 -29 Q223 -29 150 54 Q83 129 83 240 Q83 428 267 504 Q360 542 648 551 L648 639 Q648 764 619 814 Q566 904 416 904 Q218 904 198 757 L121 757 Q127 838 176 889 Q255 971 416 971 Q635 971 700 822 Q725 766 726 657 L727 583 L727 193 Q727 105 736.5 81 Q746 57 782 57 Q803 57 837 68 Z M648 487 Q378 475 293 435 Q162 372 162 240 Q162 153 217.5 95.5 Q273 38 357 38 Q480 38 564 140.5 Q648 243 648 392 L648 487 Z M441 1416 Q517 1416 570 1358 Q615 1308 615 1241 Q615 1163 557 1111 Q506 1066 437 1066 Q357 1066 305 1124 Q260 1174 260 1242 Q260 1315 312.5 1365.5 Q365 1416 441 1416 Z M436 1360 Q390 1360 356.5 1325 Q323 1290 323 1241 Q323 1192 356.5 1157 Q390 1122 437 1122 Q485 1122 518.5 1157 Q552 1192 552 1242 Q552 1291 518.5 1325.5 Q485 1360 436 1360 Z " />
<glyph glyph-name="ccedilla" unicode="&#xe7;" horiz-adv-x="863" d="M481 -28 L442 -126 Q474 -108 508 -108 Q567 -108 607 -146.5 Q647 -185 647 -242 Q647 -304 605 -342 Q563 -380 493 -380 Q384 -380 354 -295 L426 -295 Q442 -336 492 -336 Q531 -336 554 -311.5 Q577 -287 577 -245 Q577 -204 553.5 -179 Q530 -154 490 -154 Q451 -154 430 -185 L362 -185 L421 -32 L423 -27 Q284 -13 199 86 Q80 224 80 471 Q80 661 155 792 Q258 971 465 971 Q625 971 717 852 Q771 783 787 679 L713 679 Q670 904 468 904 Q308 904 224 757 Q159 642 159 471 Q159 272 239.5 155 Q320 38 458 38 Q564 38 635 109.5 Q706 181 720 302 L793 302 Q780 162 695 72 Q610 -18 481 -28 Z " />
<glyph glyph-name="eacute" unicode="&#xe9;" horiz-adv-x="908" d="M828 469 L157 469 Q156 380 180 294 Q249 38 485 38 Q572 38 643.5 74 Q715 110 739 165 L814 165 Q789 91 727 46 Q624 -29 483 -29 Q260 -29 156 153 Q80 285 80 475 Q80 655 150 779 Q258 971 465 971 Q635 971 731.5 837.5 Q828 704 828 469 Z M750 535 Q750 605 723 692 Q693 790 629 845 Q559 905 460 905 Q335 905 253 804 Q171 703 159 535 L750 535 Z M661 1359 L472 1096 L390 1096 L562 1359 L661 1359 Z " />
<glyph glyph-name="egrave" unicode="&#xe8;" horiz-adv-x="908" d="M828 469 L157 469 Q156 380 180 294 Q249 38 485 38 Q572 38 643.5 74 Q715 110 739 165 L814 165 Q789 91 727 46 Q624 -29 483 -29 Q260 -29 156 153 Q80 285 80 475 Q80 655 150 779 Q258 971 465 971 Q635 971 731.5 837.5 Q828 704 828 469 Z M750 535 Q750 605 723 692 Q693 790 629 845 Q559 905 460 905 Q335 905 253 804 Q171 703 159 535 L750 535 Z M248 1359 L347 1359 L519 1096 L437 1096 L248 1359 Z " />
<glyph glyph-name="ecircumflex" unicode="&#xea;" horiz-adv-x="908" d="M828 469 L157 469 Q156 380 180 294 Q249 38 485 38 Q572 38 643.5 74 Q715 110 739 165 L814 165 Q789 91 727 46 Q624 -29 483 -29 Q260 -29 156 153 Q80 285 80 475 Q80 655 150 779 Q258 971 465 971 Q635 971 731.5 837.5 Q828 704 828 469 Z M750 535 Q750 605 723 692 Q693 790 629 845 Q559 905 460 905 Q335 905 253 804 Q171 703 159 535 L750 535 Z M682 1093 L600 1093 L458 1301 L310 1093 L232 1093 L417 1357 L501 1357 L682 1093 Z " />
<glyph glyph-name="edieresis" unicode="&#xeb;" horiz-adv-x="908" d="M645 1292 L645 1103 L566 1103 L566 1292 L645 1292 Z M343 1292 L343 1103 L264 1103 L264 1292 L343 1292 Z M828 469 L157 469 Q156 380 180 294 Q249 38 485 38 Q572 38 643.5 74 Q715 110 739 165 L814 165 Q789 91 727 46 Q624 -29 483 -29 Q260 -29 156 153 Q80 285 80 475 Q80 655 150 779 Q258 971 465 971 Q635 971 731.5 837.5 Q828 704 828 469 Z M750 535 Q750 605 723 692 Q693 790 629 845 Q559 905 460 905 Q335 905 253 804 Q171 703 159 535 L750 535 Z " />
<glyph glyph-name="iacute" unicode="&#xed;" horiz-adv-x="387" d="M143 0 L143 942 L222 942 L222 0 L143 0 Z M405 1359 L216 1096 L134 1096 L306 1359 L405 1359 Z " />
<glyph glyph-name="igrave" unicode="&#xec;" horiz-adv-x="387" d="M168 0 L168 942 L247 942 L247 0 L168 0 Z M-18 1359 L81 1359 L253 1096 L171 1096 L-18 1359 Z " />
<glyph glyph-name="icircumflex" unicode="&#xee;" horiz-adv-x="391" d="M156 0 L156 942 L235 942 L235 0 L156 0 Z M420 1093 L338 1093 L196 1301 L48 1093 L-30 1093 L155 1357 L239 1357 L420 1093 Z " />
<glyph glyph-name="idieresis" unicode="&#xef;" horiz-adv-x="381" d="M154 0 L154 942 L233 942 L233 0 L154 0 Z M363 1296 L363 1107 L284 1107 L284 1296 L363 1296 Z M96 1296 L96 1107 L17 1107 L17 1296 L96 1296 Z " />
<glyph glyph-name="ntilde" unicode="&#xf1;" horiz-adv-x="951" d="M137 0 L137 942 L216 942 L216 761 Q309 971 517 971 Q650 971 734 884 Q782 834 801 766 Q820 698 820 577 L820 0 L741 0 L741 571 Q741 720 712 781 Q652 904 506 904 Q400 904 324 834 Q266 780 241 700.5 Q216 621 216 486 L216 0 L137 0 Z M756 1320 Q721 1123 605 1123 Q553 1123 478 1191 Q417 1246 377 1246 Q308 1246 283 1123 L224 1123 Q258 1321 378 1321 Q437 1321 502 1259 Q566 1199 601 1199 Q670 1199 695 1320 L756 1320 Z " />
<glyph glyph-name="oacute" unicode="&#xf3;" horiz-adv-x="950" d="M475 971 Q688 971 796 785 Q870 657 870 471 Q870 286 796 156 Q690 -29 473 -29 Q304 -29 198 92 Q143 155 111.5 257.5 Q80 360 80 475 Q80 658 154 785 Q263 971 475 971 Z M475 904 Q339 904 256 799 Q159 676 159 466 Q159 301 223 189 Q309 38 475 38 Q641 38 727 189 Q791 302 791 472 Q791 640 727 750 Q638 904 475 904 Z M682 1359 L493 1096 L411 1096 L583 1359 L682 1359 Z " />
<glyph glyph-name="ograve" unicode="&#xf2;" horiz-adv-x="950" d="M475 971 Q688 971 796 785 Q870 657 870 471 Q870 286 796 156 Q690 -29 473 -29 Q304 -29 198 92 Q143 155 111.5 257.5 Q80 360 80 475 Q80 658 154 785 Q263 971 475 971 Z M475 904 Q339 904 256 799 Q159 676 159 466 Q159 301 223 189 Q309 38 475 38 Q641 38 727 189 Q791 302 791 472 Q791 640 727 750 Q638 904 475 904 Z M265 1359 L364 1359 L536 1096 L454 1096 L265 1359 Z " />
<glyph glyph-name="ocircumflex" unicode="&#xf4;" horiz-adv-x="950" d="M475 971 Q688 971 796 785 Q870 657 870 471 Q870 286 796 156 Q690 -29 473 -29 Q304 -29 198 92 Q143 155 111.5 257.5 Q80 360 80 475 Q80 658 154 785 Q263 971 475 971 Z M475 904 Q339 904 256 799 Q159 676 159 466 Q159 301 223 189 Q309 38 475 38 Q641 38 727 189 Q791 302 791 472 Q791 640 727 750 Q638 904 475 904 Z M697 1093 L615 1093 L473 1301 L325 1093 L247 1093 L432 1357 L516 1357 L697 1093 Z " />
<glyph glyph-name="odieresis" unicode="&#xf6;" horiz-adv-x="950" d="M475 971 Q688 971 796 785 Q870 657 870 471 Q870 286 796 156 Q690 -29 473 -29 Q304 -29 198 92 Q143 155 111.5 257.5 Q80 360 80 475 Q80 658 154 785 Q263 971 475 971 Z M475 904 Q339 904 256 799 Q159 676 159 466 Q159 301 223 189 Q309 38 475 38 Q641 38 727 189 Q791 302 791 472 Q791 640 727 750 Q638 904 475 904 Z M659 1292 L659 1103 L580 1103 L580 1292 L659 1292 Z M370 1292 L370 1103 L291 1103 L291 1292 L370 1292 Z " />
<glyph glyph-name="otilde" unicode="&#xf5;" horiz-adv-x="950" d="M475 971 Q688 971 796 785 Q870 657 870 471 Q870 286 796 156 Q690 -29 473 -29 Q304 -29 198 92 Q143 155 111.5 257.5 Q80 360 80 475 Q80 658 154 785 Q263 971 475 971 Z M475 904 Q339 904 256 799 Q159 676 159 466 Q159 301 223 189 Q309 38 475 38 Q641 38 727 189 Q791 302 791 472 Q791 640 727 750 Q638 904 475 904 Z M741 1320 Q706 1123 590 1123 Q538 1123 463 1191 Q402 1246 362 1246 Q293 1246 268 1123 L209 1123 Q243 1321 363 1321 Q422 1321 487 1259 Q551 1199 586 1199 Q655 1199 680 1320 L741 1320 Z " />
<glyph glyph-name="uacute" unicode="&#xfa;" horiz-adv-x="951" d="M814 942 L814 0 L735 0 L735 181 Q642 -29 433 -29 Q352 -29 284 6.5 Q216 42 182 103 Q131 194 131 365 L131 942 L210 942 L210 371 Q210 217 251 140 Q276 93 328 65.5 Q380 38 444 38 Q604 38 681 176 Q711 231 723 292 Q735 353 735 456 L735 942 L814 942 Z M664 1359 L475 1096 L393 1096 L565 1359 L664 1359 Z " />
<glyph glyph-name="ugrave" unicode="&#xf9;" horiz-adv-x="951" d="M814 942 L814 0 L735 0 L735 181 Q642 -29 433 -29 Q352 -29 284 6.5 Q216 42 182 103 Q131 194 131 365 L131 942 L210 942 L210 371 Q210 217 251 140 Q276 93 328 65.5 Q380 38 444 38 Q604 38 681 176 Q711 231 723 292 Q735 353 735 456 L735 942 L814 942 Z M283 1359 L382 1359 L554 1096 L472 1096 L283 1359 Z " />
<glyph glyph-name="ucircumflex" unicode="&#xfb;" horiz-adv-x="951" d="M814 942 L814 0 L735 0 L735 181 Q642 -29 433 -29 Q352 -29 284 6.5 Q216 42 182 103 Q131 194 131 365 L131 942 L210 942 L210 371 Q210 217 251 140 Q276 93 328 65.5 Q380 38 444 38 Q604 38 681 176 Q711 231 723 292 Q735 353 735 456 L735 942 L814 942 Z M698 1093 L616 1093 L474 1301 L326 1093 L248 1093 L433 1357 L517 1357 L698 1093 Z " />
<glyph glyph-name="udieresis" unicode="&#xfc;" horiz-adv-x="951" d="M814 942 L814 0 L735 0 L735 181 Q642 -29 433 -29 Q352 -29 284 6.5 Q216 42 182 103 Q131 194 131 365 L131 942 L210 942 L210 371 Q210 217 251 140 Q276 93 328 65.5 Q380 38 444 38 Q604 38 681 176 Q711 231 723 292 Q735 353 735 456 L735 942 L814 942 Z M667 1292 L667 1103 L588 1103 L588 1292 L667 1292 Z M358 1292 L358 1103 L279 1103 L279 1292 L358 1292 Z " />
<glyph glyph-name="dagger" unicode="&#x2020;" horiz-adv-x="965" d="M854 926 L854 859 L519 859 L519 -355 L440 -355 L440 859 L110 859 L110 926 L440 926 L440 1365 L519 1365 L519 926 L854 926 Z " />
<glyph glyph-name="degree" unicode="&#xb0;" horiz-adv-x="1024" d="M512 1365 Q639 1365 724 1272 Q794 1194 794 1090 Q794 970 703 888 Q621 815 510 815 Q385 815 300 908 Q230 986 230 1095 Q230 1209 321 1292 Q401 1365 512 1365 Z M512 1303 Q423 1303 361.5 1240.5 Q300 1178 300 1087 Q300 995 370 932 Q431 877 512 877 Q606 877 669 947 Q724 1008 724 1090 Q724 1184 654 1248 Q594 1303 512 1303 Z " />
<glyph glyph-name="cent" unicode="&#xa2;" horiz-adv-x="853" d="M498 191 L498 41 L416 41 L416 191 Q313 205 252 250 Q140 334 99 495 Q76 587 76 687 Q76 901 167.5 1035 Q259 1169 416 1185 L416 1323 L498 1323 L498 1187 Q621 1177 699 1101.5 Q777 1026 797 896 L720 896 Q680 1104 498 1120 L498 258 Q688 295 722 520 L799 520 Q787 384 705.5 294.5 Q624 205 498 191 Z M416 1117 Q297 1102 226 985 Q155 868 155 689 Q155 417 295 308 Q336 276 416 259 L416 1117 Z " />
<glyph glyph-name="sterling" unicode="&#xa3;" horiz-adv-x="842" d="M368 570 Q377 520 377 500 Q377 455 356 388.5 Q335 322 307 275 Q264 207 175 116 Q229 155 321 155 Q402 155 490 100 Q552 62 597 62 Q716 62 731 200 L807 200 Q800 119 765 69 Q708 -11 593 -11 Q552 -11 520 1 Q488 13 436 48 Q365 95 315 95 Q233 95 93 -4 L41 70 Q126 131 183 202 Q295 343 295 491 Q295 529 285 570 L66 570 L66 641 L261 641 Q244 677 160 790 Q67 915 67 1046 Q67 1202 179 1304 Q276 1392 430 1392 Q597 1392 695 1291 Q793 1190 797 1013 L719 1013 Q716 1132 666 1209 Q592 1324 434 1324 Q295 1324 216 1235 Q148 1158 148 1048 Q148 977 173.5 923.5 Q199 870 309 712 Q333 678 347 641 L644 641 L644 570 L368 570 Z " />
<glyph glyph-name="section" unicode="&#xa7;" horiz-adv-x="966" d="M282 919 Q195 1007 195 1126 Q195 1250 281 1327 Q357 1396 487 1396 Q658 1396 730 1273 Q776 1193 778 1079 L703 1079 Q689 1327 483 1327 Q379 1327 321 1262 Q272 1207 272 1134 Q272 1031 357 957 Q394 925 565 817 Q760 694 820 603 Q870 527 870 434 Q870 237 673 135 Q786 32 786 -98 Q786 -224 699 -303 Q625 -371 496 -371 Q356 -371 276 -285 Q198 -200 193 -55 Q192 -40 192 -30 L268 -30 Q280 -302 496 -302 Q602 -302 659 -237 Q708 -182 708 -102 Q708 -17 657.5 41.5 Q607 100 437 211 Q294 304 229 360 Q96 472 96 627 Q96 766 191 859 Q232 900 282 919 Z M334 874 Q270 840 234 802 Q172 735 172 632 Q172 553 215 490 Q263 419 417 321 Q558 231 620 179 Q702 219 747.5 284.5 Q793 350 793 427 Q793 523 717 602 Q641 681 417 818 Q364 850 334 874 Z " />
<glyph glyph-name="bullet" unicode="&#x2022;" horiz-adv-x="1365" d="M686 982 Q807 982 890 889 Q964 807 964 696 Q964 567 870 482 Q790 410 683 410 Q558 410 475 503 Q401 585 401 696 Q401 817 484 899 Q568 982 686 982 Z " />
<glyph glyph-name="paragraph" unicode="&#xb6;" horiz-adv-x="985" d="M379 -206 L379 653 Q370 653 355 653 Q208 653 123 750 Q37 848 37 1004 Q37 1087 66 1161.5 Q95 1236 145 1283 Q232 1365 406 1365 L842 1365 L842 1298 L717 1298 L717 -206 L638 -206 L638 1298 L458 1298 L458 -206 L379 -206 Z " />
<glyph glyph-name="germandbls" unicode="&#xdf;" horiz-adv-x="902" d="M230 0 L151 0 L151 861 L8 861 L8 928 L151 928 Q152 1059 165.5 1127 Q179 1195 216 1256 Q251 1315 315 1349 Q378 1383 454 1383 Q587 1383 669 1293 Q735 1220 735 1126 Q735 1066 711.5 1019.5 Q688 973 613 886 Q555 819 555 772 Q555 731 577.5 692 Q600 653 657 596 Q749 504 786.5 432 Q824 360 824 277 Q824 142 733 61 Q642 -20 491 -20 Q423 -20 359 0 L359 74 Q431 47 493 47 Q622 47 690 122 Q745 184 745 273 Q745 339 714.5 396.5 Q684 454 603 541 Q538 610 509.5 661 Q481 712 481 760 Q481 800 501.5 841.5 Q522 883 572 946 Q655 1049 655 1129 Q655 1211 594 1267 Q540 1316 452 1316 Q309 1316 256 1183 Q230 1117 230 930 L230 0 Z " />
<glyph glyph-name="registered" unicode="&#xae;" horiz-adv-x="1434" d="M727 1397 Q881 1397 1019 1316 Q1170 1227 1262 1068 Q1365 893 1365 682 Q1365 474 1265 300 Q1171 136 1018 48 Q877 -33 715 -33 Q555 -33 415 47 Q265 133 171 295 Q68 472 68 679 Q68 889 171 1068 Q265 1232 424 1320 Q564 1397 727 1397 Z M711 1333 Q572 1333 446 1259 Q312 1179 229 1039 Q133 877 133 682 Q133 490 228 326 Q313 180 448 102 Q573 31 716 31 Q964 31 1133 226 Q1300 417 1300 680 Q1300 867 1212 1026 Q1132 1171 999 1253 Q869 1333 711 1333 Z M455 259 L455 1105 L734 1105 Q1002 1105 1002 878 Q1002 730 882 667 Q913 652 930 634 Q978 583 980 443 Q982 314 1020 259 L937 259 Q908 311 905 436 Q902 562 865 596 Q821 636 693 636 L534 636 L534 259 L455 259 Z M534 703 L720 703 Q847 703 889 753 Q929 800 929 878 Q929 961 881.5 999.5 Q834 1038 733 1038 L534 1038 L534 703 Z " />
<glyph glyph-name="copyright" unicode="&#xa9;" horiz-adv-x="1434" d="M727 1397 Q881 1397 1019 1316 Q1170 1227 1262 1068 Q1365 893 1365 682 Q1365 474 1265 300 Q1171 136 1018 48 Q877 -33 715 -33 Q555 -33 415 47 Q265 133 171 295 Q68 472 68 679 Q68 889 171 1068 Q265 1232 424 1320 Q564 1397 727 1397 Z M711 1333 Q572 1333 446 1259 Q312 1179 229 1039 Q133 877 133 682 Q133 490 228 326 Q313 180 448 102 Q573 31 716 31 Q964 31 1133 226 Q1300 417 1300 680 Q1300 867 1212 1026 Q1132 1171 999 1253 Q869 1333 711 1333 Z M949 538 L1019 538 Q1010 439 958 364 Q873 242 721 242 Q579 242 490 345 Q443 399 415 491 Q387 583 387 683 Q387 844 453 958 Q546 1120 729 1120 Q844 1120 921 1050.5 Q998 981 1014 863 L942 863 Q904 1056 729 1056 Q590 1056 517 928 Q460 828 460 681 Q460 529 517 429 Q587 306 721 306 Q813 306 875 369 Q937 432 949 538 Z " />
<glyph glyph-name="trademark" unicode="&#x2122;" horiz-adv-x="1440" d="M336 546 L257 546 L257 1298 L14 1298 L14 1365 L577 1365 L577 1298 L336 1298 L336 546 Z M672 546 L672 1365 L773 1365 L1021 661 L1263 1365 L1366 1365 L1366 546 L1287 546 L1287 1226 L1054 546 L988 546 L751 1223 L751 546 L672 546 Z " />
<glyph glyph-name="acute" unicode="&#xb4;" horiz-adv-x="1014" d="M719 1359 L530 1096 L448 1096 L620 1359 L719 1359 Z " />
<glyph glyph-name="dieresis" unicode="&#xa8;" horiz-adv-x="1012" d="M704 1292 L704 1103 L617 1103 L617 1292 L704 1292 Z M394 1292 L394 1103 L307 1103 L307 1292 L394 1292 Z " />
<glyph glyph-name="notequal" unicode="&#x2260;" horiz-adv-x="1024" d="M370 517 L68 517 L68 588 L411 588 L527 790 L68 790 L68 861 L568 861 L702 1092 L765 1055 L653 861 L955 861 L955 790 L612 790 L495 588 L955 588 L955 517 L455 517 L322 286 L258 323 L370 517 Z " />
<glyph glyph-name="AE" unicode="&#xc6;" horiz-adv-x="1454" d="M1379 69 L1379 -2 L687 -2 L687 447 L267 447 L72 -2 L-14 -2 L583 1365 L1372 1365 L1372 1294 L769 1294 L769 743 L1329 743 L1329 672 L769 672 L769 69 L1379 69 Z M687 518 L687 1294 L632 1294 L298 518 L687 518 Z " />
<glyph glyph-name="Oslash" unicode="&#xd8;" horiz-adv-x="1260" d="M942 1284 L1008 1395 L1084 1395 L990 1237 Q1174 1036 1174 680 Q1174 416 1067 230 Q916 -32 624 -32 Q446 -32 303 91 L229 -32 L150 -32 L254 142 Q86 347 86 682 Q86 946 188 1126 Q265 1263 388 1333 Q499 1397 632 1397 Q803 1397 942 1284 Z M899 1220 Q783 1326 631 1326 Q471 1326 353 1213 Q169 1036 169 686 Q169 391 300 210 L899 1220 Z M347 156 Q475 39 628 39 Q790 39 906 149 Q1091 326 1091 681 Q1091 990 945 1170 L347 156 Z " />
<glyph glyph-name="infinity" unicode="&#x221e;" horiz-adv-x="1365" d="M684 640 Q630 560 586 511 Q480 392 332 392 Q198 392 115 484 Q39 569 39 700 Q39 844 133 927 Q217 1002 331 1002 Q432 1002 513.5 944 Q595 886 681 754 Q745 850 802 905 Q904 1001 1035 1001 Q1167 1001 1249 909 Q1325 825 1325 695 Q1325 550 1231 467 Q1148 393 1033 393 Q929 393 850 449 Q771 505 684 640 Z M728 698 Q789 600 842 545 Q889 498 934 477.5 Q979 457 1036 457 Q1132 457 1193 526 Q1252 592 1252 696 Q1252 816 1178 881 Q1115 937 1032 937 Q947 937 880.5 884.5 Q814 832 728 698 Z M636 696 Q575 793 522 848 Q475 896 430 917 Q385 938 327 938 Q231 938 170 869 Q112 803 112 697 Q112 576 186 511 Q248 456 332 456 Q418 456 483.5 507.5 Q549 559 636 696 Z " />
<glyph glyph-name="plusminus" unicode="&#xb1;" horiz-adv-x="1024" d="M68 784 L473 784 L473 1165 L552 1165 L552 784 L956 784 L956 717 L552 717 L552 337 L473 337 L473 717 L68 717 L68 784 Z M68 207 L955 207 L955 140 L68 140 L68 207 Z " />
<glyph glyph-name="lessequal" unicode="&#x2264;" horiz-adv-x="1024" d="M955 1173 L955 1091 L161 769 L955 448 L955 365 L68 732 L68 806 L955 1173 Z M955 252 L955 181 L68 181 L68 252 L955 252 Z " />
<glyph glyph-name="greaterequal" unicode="&#x2265;" horiz-adv-x="1024" d="M68 1173 L955 806 L955 732 L68 365 L68 448 L862 769 L68 1091 L68 1173 Z M68 252 L955 252 L955 181 L68 181 L68 252 Z " />
<glyph glyph-name="yen" unicode="&#xa5;" horiz-adv-x="975" d="M447 321 L158 321 L158 392 L447 392 L447 567 L158 567 L158 638 L447 638 L447 663 L47 1365 L140 1365 L490 738 L837 1365 L929 1365 L529 663 L529 638 L816 638 L816 567 L529 567 L529 392 L816 392 L816 321 L529 321 L529 0 L447 0 L447 321 Z " />
<glyph glyph-name="mu" unicode="&#xb5;" horiz-adv-x="951" d="M814 942 L814 0 L738 0 L738 168 Q621 -29 426 -29 Q298 -29 210 68 L210 -355 L131 -355 L131 942 L210 942 L210 365 Q210 211 247 143 Q269 101 321.5 75 Q374 49 437 49 Q550 49 630 121 Q688 172 711.5 249.5 Q735 327 735 465 L735 942 L814 942 Z " />
<glyph glyph-name="partialdiff" unicode="&#x2202;" horiz-adv-x="950" d="M636 915 Q550 1061 510 1112 Q416 1231 272 1331 L316 1394 Q431 1338 542 1231 Q685 1093 772 900 Q870 683 870 461 Q870 294 795 156 Q748 68 662 19 Q578 -29 475 -29 Q260 -29 154 156 Q80 285 80 468 Q80 645 153 784 Q200 871 292 924 Q372 971 465 971 Q559 971 636 915 Z M475 877 Q332 877 254 740 Q192 633 192 466 Q192 307 253 199 Q330 65 474 65 Q619 65 696 199 Q757 307 757 472 Q757 635 695 740 Q615 877 475 877 Z " />
<glyph glyph-name="summation" unicode="&#x2211;" horiz-adv-x="1365" d="M1210 1536 L1210 1082 L1138 1082 L1133 1464 L176 1464 L697 549 L177 -435 L1150 -435 L1153 -59 L1229 -59 L1229 -512 L71 -512 L71 -451 L600 553 L71 1475 L71 1536 L1210 1536 Z " />
<glyph glyph-name="product" unicode="&#x220f;" horiz-adv-x="1348" d="M41 1536 L1307 1536 L1307 1461 L1133 1461 L1133 -437 L1307 -437 L1307 -512 L866 -512 L866 -437 L1050 -437 L1050 1461 L298 1461 L298 -437 L480 -437 L480 -512 L41 -512 L41 -437 L215 -437 L215 1461 L41 1461 L41 1536 Z " />
<glyph glyph-name="integral" unicode="&#x222b;" horiz-adv-x="1008" d="M230 -484 L255 -416 Q300 -439 342 -439 Q417 -439 446 -386 Q459 -362 462.5 -323.5 Q466 -285 466 -177 L466 1172 Q466 1305 471.5 1354 Q477 1403 497 1443 Q517 1486 564 1511 Q611 1536 669 1536 Q710 1536 778 1508 L759 1437 Q708 1464 664 1464 Q633 1464 606 1449 Q579 1434 566 1410 Q552 1383 547.5 1342 Q543 1301 543 1205 L543 -149 Q543 -275 536.5 -325.5 Q530 -376 509 -410 Q482 -456 430.5 -483.5 Q379 -511 321 -511 Q286 -511 230 -484 Z " />
<glyph glyph-name="ordfeminine" unicode="&#xaa;" horiz-adv-x="530" d="M515 608 L515 547 Q486 537 462 537 Q394 537 390 638 Q320 526 210 526 Q131 526 82 580 Q40 627 40 696 Q40 815 156 863 Q214 887 382 893 L382 931 Q382 1007 354 1041 Q326 1075 264 1075 Q198 1075 166 1040 Q134 1005 128 927 L63 927 Q66 1003 97 1055 Q146 1136 262 1136 Q379 1136 426 1055 Q450 1013 450 896 L450 675 L449 648 Q448 598 476 598 Q489 598 515 608 Z M382 837 Q225 829 180 808 Q105 772 105 697 Q105 650 136 618.5 Q167 587 214 587 Q281 587 328 641 Q382 703 382 797 L382 837 Z " />
<glyph glyph-name="ordmasculine" unicode="&#xba;" horiz-adv-x="570" d="M286 1136 Q392 1136 460 1060 Q533 978 533 831 Q533 755 509 688.5 Q485 622 443 584 Q379 526 286 526 Q175 526 109 604 Q38 689 38 837 Q38 910 62 974.5 Q86 1039 128 1077 Q192 1136 286 1136 Z M285 1075 Q204 1075 156 1008 Q108 941 108 826 Q108 766 127 711.5 Q146 657 177 629 Q223 587 285 587 Q359 587 406 642 Q463 707 463 825 Q463 923 427 989 Q380 1075 285 1075 Z " />
<glyph glyph-name="Omega" unicode="&#x2126;" horiz-adv-x="1260" d="M100 0 L100 102 L391 102 Q310 163 253 235 Q86 450 86 734 Q86 951 182 1118 Q261 1257 390 1333 Q498 1396 630 1396 Q855 1396 1010 1219 Q1095 1121 1139 973 Q1174 857 1174 733 Q1174 537 1096 375 Q1018 213 869 102 L1160 102 L1160 0 L728 0 L728 96 Q835 173 902 263 Q1050 462 1050 724 Q1050 916 961 1080 Q901 1189 800 1250 Q726 1295 632 1295 Q469 1295 352 1157 Q281 1073 242 942 Q210 836 210 723 Q210 327 532 96 L532 0 L100 0 Z " />
<glyph glyph-name="ae" unicode="&#xe6;" horiz-adv-x="1459" d="M1378 456 L730 456 Q734 274 804 158 Q874 40 1029 40 Q1194 40 1258 165 L1336 165 Q1312 91 1254 45 Q1161 -27 1027 -27 Q783 -27 684 238 Q640 129 567 60 Q475 -29 350 -29 Q225 -29 149 57 Q83 130 83 233 Q83 350 167 425 Q210 464 267.5 484.5 Q325 505 418 514 Q497 522 661 523 L661 552 Q661 726 618 806 Q564 904 415 904 Q215 904 197 757 L122 757 Q127 838 179 890 Q259 971 418 971 Q649 971 711 761 Q825 971 1022 971 Q1242 971 1336 732 Q1378 627 1378 456 Z M661 456 Q497 453 435 447.5 Q373 442 324 427 Q162 378 162 245 Q162 158 219 98 Q276 38 359 38 Q473 38 556 135 Q621 211 646 333 Q661 408 661 448 L661 456 Z M1297 523 Q1288 726 1191 834 Q1127 905 1020 905 Q882 905 810 790 Q744 686 730 523 L1297 523 Z " />
<glyph glyph-name="oslash" unicode="&#xf8;" horiz-adv-x="950" d="M688 906 L723 967 L796 967 L737 863 Q870 720 870 474 Q870 285 796 156 Q690 -29 473 -29 Q361 -29 267 32 L231 -31 L154 -31 L215 76 Q80 218 80 469 Q80 655 154 784 Q261 970 477 970 Q591 970 688 906 Z M648 844 Q568 903 477 903 Q311 903 223 749 Q159 638 159 470 Q159 264 256 141 L648 844 Z M305 93 Q386 38 473 38 Q641 38 727 189 Q791 302 791 467 Q791 572 764.5 662.5 Q738 753 695 797 L305 93 Z " />
<glyph glyph-name="questiondown" unicode="&#xbf;" horiz-adv-x="876" d="M481 603 Q480 464 453 394 Q438 356 411.5 322.5 Q385 289 305 206 Q234 134 205.5 77.5 Q177 21 177 -45 Q177 -161 257 -235 Q325 -298 436 -298 Q563 -298 639 -217 Q679 -174 697 -120.5 Q715 -67 720 24 L793 24 Q789 -111 748 -191 Q655 -369 438 -369 Q267 -369 174 -263 Q97 -176 97 -50 Q97 37 136.5 109 Q176 181 280 283 Q361 362 379 408 Q405 469 406 603 L481 603 Z M389 747 L389 942 L497 942 L497 747 L389 747 Z " />
<glyph glyph-name="exclamdown" unicode="&#xa1;" horiz-adv-x="428" d="M251 -400 L172 -400 L172 11 L191 599 L236 599 L251 11 L251 -400 Z M268 747 L160 747 L160 942 L268 942 L268 747 Z " />
<glyph glyph-name="logicalnot" unicode="&#xac;" horiz-adv-x="1024" d="M875 0 L875 490 L68 490 L68 561 L955 561 L955 0 L875 0 Z " />
<glyph glyph-name="radical" unicode="&#x221a;" horiz-adv-x="1365" d="M1365 1693 L1365 1625 L938 1625 L449 0 L360 0 L171 640 L0 640 L0 708 L217 708 L403 98 L888 1693 L1365 1693 Z " />
<glyph glyph-name="florin" unicode="&#x192;" horiz-adv-x="524" d="M82 860 L82 931 L249 931 L270 1081 Q285 1187 295 1222.5 Q305 1258 332 1300 Q357 1339 402 1362 Q447 1385 498 1385 Q535 1385 587 1367 L587 1296 Q538 1316 497 1316 Q428 1316 393 1266 Q358 1216 343 1095 L322 931 L496 931 L496 860 L312 860 L163 -218 L84 -218 L239 860 L82 860 Z " />
<glyph glyph-name="approxequal" unicode="&#x2248;" horiz-adv-x="1024" d="M75 719 L23 752 Q76 858 136 914 Q201 975 291 975 Q380 975 529 874 Q663 782 737 782 Q795 782 841.5 823 Q888 864 939 961 L1001 940 Q946 828 885 771 Q821 710 731 710 Q646 710 486 816 Q355 903 277 903 Q219 903 174 861 Q122 812 75 719 Z M75 396 L23 428 Q76 534 136 591 Q201 652 291 652 Q380 652 529 551 Q663 459 736 459 Q795 459 841.5 500 Q888 541 939 638 L1001 617 Q947 506 885 448 Q820 387 731 387 Q646 387 486 493 Q355 580 277 580 Q218 580 174 538 Q122 489 75 396 Z " />
<glyph glyph-name="increment" unicode="&#x2206;" horiz-adv-x="1087" d="M20 0 L479 1365 L612 1365 L1066 0 L20 0 Z M544 1230 L181 105 L900 105 L544 1230 Z " />
<glyph glyph-name="guillemotleft" unicode="&#xab;" horiz-adv-x="700" d="M312 214 L90 465 L90 548 L312 797 L312 696 L146 506 L312 319 L312 214 Z M569 215 L348 463 L348 547 L569 797 L569 696 L405 505 L569 316 L569 215 Z " />
<glyph glyph-name="guillemotright" unicode="&#xbb;" horiz-adv-x="700" d="M387 796 L610 545 L610 462 L387 214 L387 314 L553 504 L387 691 L387 796 Z M131 796 L352 548 L352 464 L131 214 L131 315 L296 506 L131 694 L131 796 Z " />
<glyph glyph-name="ellipsis" unicode="&#x2026;" horiz-adv-x="1180" d="M243 195 L243 0 L135 0 L135 195 L243 195 Z M648 195 L648 0 L540 0 L540 195 L648 195 Z M1045 195 L1045 0 L937 0 L937 195 L1045 195 Z " />
<glyph glyph-name="Agrave" unicode="&#xc0;" horiz-adv-x="1044" d="M793 447 L252 447 L104 0 L20 0 L479 1365 L569 1365 L1023 0 L938 0 L793 447 Z M770 518 L524 1271 L275 518 L770 518 Z M315 1737 L417 1737 L594 1479 L512 1479 L315 1737 Z " />
<glyph glyph-name="Atilde" unicode="&#xc3;" horiz-adv-x="1044" d="M793 447 L252 447 L104 0 L20 0 L479 1365 L569 1365 L1023 0 L938 0 L793 447 Z M770 518 L524 1271 L275 518 L770 518 Z M791 1702 Q758 1511 638 1511 Q585 1511 510 1574 Q450 1625 409 1625 Q338 1625 313 1509 L252 1509 Q287 1701 408 1701 Q444 1701 473 1685 Q502 1669 569 1613 Q601 1587 633 1587 Q703 1587 728 1702 L791 1702 Z " />
<glyph glyph-name="Otilde" unicode="&#xd5;" horiz-adv-x="1260" d="M630 1396 Q824 1396 962 1264 Q1174 1062 1174 679 Q1174 416 1067 229 Q992 99 874 31 Q763 -33 628 -33 Q389 -33 245 153 Q86 358 86 693 Q86 950 188 1125 Q345 1396 630 1396 Z M630 1325 Q444 1325 319 1177 Q169 998 169 679 Q169 432 269 257 Q331 149 432 91 Q523 38 630 38 Q789 38 905 148 Q1091 324 1091 680 Q1091 932 993 1100 Q861 1325 630 1325 Z M899 1702 Q866 1511 746 1511 Q693 1511 618 1574 Q558 1625 517 1625 Q446 1625 421 1509 L360 1509 Q395 1701 516 1701 Q552 1701 581 1685 Q610 1669 677 1613 Q709 1587 741 1587 Q811 1587 836 1702 L899 1702 Z " />
<glyph glyph-name="OE" unicode="&#x152;" horiz-adv-x="1765" d="M1683 1364 L1683 1293 L1025 1293 L1025 743 L1640 743 L1640 672 L1025 672 L1025 69 L1690 69 L1690 -2 L943 -2 L943 116 Q832 -33 629 -33 Q344 -33 193 230 Q86 416 86 683 Q86 946 187 1125 Q265 1262 389 1333 Q497 1395 622 1395 Q833 1395 943 1227 L943 1364 L1683 1364 Z M943 1109 Q909 1185 855 1234 Q756 1324 622 1324 Q473 1324 356 1214 Q169 1038 169 687 Q169 434 268 261 Q330 153 434 92 Q525 38 633 38 Q829 38 943 221 L943 1109 Z " />
<glyph glyph-name="oe" unicode="&#x153;" horiz-adv-x="1494" d="M1414 456 L802 456 Q805 272 875 152 Q941 40 1082 40 Q1241 40 1306 165 L1381 165 Q1357 88 1295 41 Q1206 -27 1079 -27 Q868 -27 765 189 Q665 -29 456 -29 Q256 -29 154 148 Q80 278 80 466 Q80 659 157 794 Q259 972 456 972 Q666 972 769 742 Q877 972 1071 972 Q1190 972 1281 882 Q1390 772 1410 568 Q1414 525 1414 456 Z M454 905 Q359 905 285 835 Q159 718 159 469 Q159 294 223 182 Q304 38 461 38 Q598 38 672 169 Q738 285 738 465 Q738 652 669 771 Q590 905 454 905 Z M1340 523 Q1333 692 1258 802 Q1186 906 1074 906 Q958 906 888 807.5 Q818 709 802 523 L1340 523 Z " />
<glyph glyph-name="endash" unicode="&#x2013;" horiz-adv-x="966" d="M845 560 L845 493 L120 493 L120 560 L845 560 Z " />
<glyph glyph-name="emdash" unicode="&#x2014;" horiz-adv-x="1429" d="M1293 560 L1293 493 L141 493 L141 560 L1293 560 Z " />
<glyph glyph-name="quotedblleft" unicode="&#x201c;" horiz-adv-x="601" d="M135 932 L135 1070 Q135 1207 160.5 1274 Q186 1341 249 1372 L249 1308 Q192 1268 192 1150 L192 1127 L243 1127 L243 932 L135 932 Z M364 932 L364 1070 Q364 1207 389.5 1274.5 Q415 1342 478 1372 L478 1308 Q421 1268 421 1150 L421 1127 L472 1127 L472 932 L364 932 Z " />
<glyph glyph-name="quotedblright" unicode="&#x201d;" horiz-adv-x="601" d="M466 1365 L466 1226 Q466 1089 440.5 1022 Q415 955 352 925 L352 988 Q409 1029 409 1147 L409 1170 L358 1170 L358 1365 L466 1365 Z M237 1365 L237 1226 Q237 1089 212 1023 Q187 957 123 925 L123 988 Q180 1029 180 1147 L180 1170 L129 1170 L129 1365 L237 1365 Z " />
<glyph glyph-name="quoteleft" unicode="&#x2018;" horiz-adv-x="373" d="M135 932 L135 1070 Q135 1207 160.5 1274 Q186 1341 249 1372 L249 1308 Q192 1267 192 1150 L192 1127 L243 1127 L243 932 L135 932 Z " />
<glyph glyph-name="quoteright" unicode="&#x2019;" horiz-adv-x="373" d="M237 1365 L237 1226 Q237 1089 212 1023 Q187 957 123 925 L123 988 Q180 1029 180 1147 L180 1170 L129 1170 L129 1365 L237 1365 Z " />
<glyph glyph-name="divide" unicode="&#xf7;" horiz-adv-x="1024" d="M68 725 L955 725 L955 654 L68 654 L68 725 Z M553 1090 L553 916 L472 916 L472 1090 L553 1090 Z M553 462 L553 288 L472 288 L472 462 L553 462 Z " />
<glyph glyph-name="lozenge" unicode="&#x25ca;" horiz-adv-x="1365" d="M683 1419 L1215 683 L683 -53 L151 683 L683 1419 Z M683 1237 L279 683 L683 128 L1086 683 L683 1237 Z " />
<glyph glyph-name="ydieresis" unicode="&#xff;" horiz-adv-x="740" d="M727 942 L368 -134 Q325 -264 263 -301 Q207 -334 172 -332 Q86 -328 77 -328 L76 -260 L82 -259 L167 -263 Q188 -264 235 -233 Q272 -209 298 -125 L341 11 L12 942 L94 942 L380 116 L647 942 L727 942 Z M563 1292 L563 1103 L484 1103 L484 1292 L563 1292 Z M255 1292 L255 1103 L176 1103 L176 1292 L255 1292 Z " />
<glyph glyph-name="Ydieresis" unicode="&#x178;" horiz-adv-x="933" d="M425 0 L425 606 L-2 1365 L90 1365 L468 682 L844 1365 L935 1365 L507 602 L507 0 L425 0 Z M666 1677 L666 1488 L584 1488 L584 1677 L666 1677 Z M349 1677 L349 1488 L267 1488 L267 1677 L349 1677 Z " />
<glyph glyph-name="fraction" unicode="&#x2044;" horiz-adv-x="381" d="M-64 0 L-140 0 L448 1365 L521 1365 L-64 0 Z " />
<glyph glyph-name="Euro" unicode="&#x20ac;" horiz-adv-x="1142" d="M777 526 L239 526 Q252 417 303 305 Q423 39 689 39 Q795 39 871.5 82 Q948 125 1027 228 L1082 187 Q997 69 906 22 Q806 -30 681 -30 Q541 -30 426.5 41.5 Q312 113 241 245 Q182 354 159 526 L30 526 L55 597 L153 597 Q153 608 152 630 Q152 646 152 667 Q152 737 155 766 L30 766 L55 837 L161 837 Q174 981 238 1108 Q383 1393 697 1393 Q895 1393 1049 1261 L1024 1195 Q932 1267 859.5 1295.5 Q787 1324 695 1324 Q418 1324 295 1047 Q249 944 241 837 L892 837 L866 766 L235 766 Q232 721 232 668 Q232 633 234 597 L803 597 L777 526 Z " />
<glyph glyph-name="guilsinglleft" unicode="&#x2039;" horiz-adv-x="442" d="M311 214 L90 462 L90 546 L311 796 L311 695 L147 504 L311 316 L311 214 Z " />
<glyph glyph-name="guilsinglright" unicode="&#x203a;" horiz-adv-x="442" d="M131 796 L352 548 L352 464 L131 214 L131 315 L296 506 L131 694 L131 796 Z " />
<glyph glyph-name="&amp;#xf001;" unicode="&#xf001;" horiz-adv-x="842" d="M184 0 L184 875 L29 875 L29 942 L184 942 L184 1081 Q184 1175 190.5 1218.5 Q197 1262 216 1296 Q265 1383 369 1383 Q407 1383 463 1366 L463 1292 Q418 1313 379 1313 Q311 1313 283 1262 Q263 1225 263 1090 L263 942 L442 942 L442 875 L263 875 L263 0 L184 0 Z M621 1174 L621 1365 L700 1365 L700 1174 L621 1174 Z M621 0 L621 942 L700 942 L700 0 L621 0 Z " />
<glyph glyph-name="&amp;#xfb01;" unicode="&#xfb01;" horiz-adv-x="842" d="M184 0 L184 875 L29 875 L29 942 L184 942 L184 1081 Q184 1175 190.5 1218.5 Q197 1262 216 1296 Q265 1383 369 1383 Q407 1383 463 1366 L463 1292 Q418 1313 379 1313 Q311 1313 283 1262 Q263 1225 263 1090 L263 942 L442 942 L442 875 L263 875 L263 0 L184 0 Z M621 1174 L621 1365 L700 1365 L700 1174 L621 1174 Z M621 0 L621 942 L700 942 L700 0 L621 0 Z " />
<glyph glyph-name="&amp;#xf002;" unicode="&#xf002;" horiz-adv-x="848" d="M184 0 L184 875 L29 875 L29 942 L184 942 L184 1081 Q184 1175 190.5 1218.5 Q197 1262 216 1296 Q265 1383 369 1383 Q407 1383 463 1366 L463 1292 Q418 1313 379 1313 Q311 1313 283 1262 Q263 1225 263 1090 L263 942 L442 942 L442 875 L263 875 L263 0 L184 0 Z M627 0 L627 1365 L706 1365 L706 0 L627 0 Z " />
<glyph glyph-name="&amp;#xfb02;" unicode="&#xfb02;" horiz-adv-x="848" d="M184 0 L184 875 L29 875 L29 942 L184 942 L184 1081 Q184 1175 190.5 1218.5 Q197 1262 216 1296 Q265 1383 369 1383 Q407 1383 463 1366 L463 1292 Q418 1313 379 1313 Q311 1313 283 1262 Q263 1225 263 1090 L263 942 L442 942 L442 875 L263 875 L263 0 L184 0 Z M627 0 L627 1365 L706 1365 L706 0 L627 0 Z " />
<glyph glyph-name="daggerdbl" unicode="&#x2021;" horiz-adv-x="965" d="M854 942 L854 875 L520 875 L520 150 L854 150 L854 83 L520 83 L520 -355 L441 -355 L441 83 L111 83 L111 150 L441 150 L441 875 L111 875 L111 942 L441 942 L441 1365 L520 1365 L520 942 L854 942 Z " />
<glyph glyph-name="periodcentered" unicode="&#xb7;" horiz-adv-x="369" d="M238 599 L238 404 L131 404 L131 599 L238 599 Z " />
<glyph glyph-name="quotesinglbase" unicode="&#x201a;" horiz-adv-x="373" d="M237 195 L237 56 Q237 -81 212 -147 Q187 -213 123 -246 L123 -182 Q180 -141 180 -24 L180 0 L129 0 L129 195 L237 195 Z " />
<glyph glyph-name="quotedblbase" unicode="&#x201e;" horiz-adv-x="601" d="M466 195 L466 57 Q466 -81 440.5 -148 Q415 -215 352 -246 L352 -182 Q409 -142 409 -23 L409 0 L358 0 L358 195 L466 195 Z M237 195 L237 57 Q237 -81 212 -147 Q187 -213 123 -246 L123 -182 Q180 -142 180 -23 L180 0 L129 0 L129 195 L237 195 Z " />
<glyph glyph-name="perthousand" unicode="&#x2030;" horiz-adv-x="2451" d="M2073 838 Q2249 838 2343 674 Q2406 565 2406 408 Q2406 252 2342 142 Q2250 -19 2072 -19 Q1924 -19 1835 95 Q1740 218 1740 416 Q1740 569 1800 672 Q1897 838 2073 838 Z M2074 772 Q1940 772 1866 642 Q1814 551 1814 406 Q1814 315 1843 233 Q1872 151 1919 108 Q1986 47 2073 47 Q2205 47 2277 172 Q2332 268 2332 408 Q2332 551 2277 646 Q2203 772 2074 772 Z M378 1384 Q554 1384 648 1220 Q711 1110 711 954 Q711 798 647 687 Q555 526 378 526 Q201 526 108 688 Q45 798 45 961 Q45 1114 105 1218 Q202 1384 378 1384 Z M379 1318 Q245 1318 171 1188 Q119 1097 119 952 Q119 860 147.5 778 Q176 696 224 653 Q291 592 378 592 Q511 592 582 717 Q637 814 637 954 Q637 1096 582 1192 Q508 1318 379 1318 Z M598 -3 L519 -3 L1107 1365 L1183 1365 L598 -3 Z M1318 838 Q1493 838 1588 674 Q1651 565 1651 408 Q1651 252 1587 142 Q1494 -19 1317 -19 Q1140 -19 1048 142 Q984 253 984 416 Q984 568 1044 672 Q1141 838 1318 838 Z M1318 772 Q1184 772 1110 642 Q1058 551 1058 406 Q1058 315 1087 232.5 Q1116 150 1163 108 Q1230 47 1318 47 Q1450 47 1522 172 Q1577 269 1577 408 Q1577 551 1521 646 Q1448 772 1318 772 Z " />
<glyph glyph-name="Acircumflex" unicode="&#xc2;" horiz-adv-x="1044" d="M793 447 L252 447 L104 0 L20 0 L479 1365 L569 1365 L1023 0 L938 0 L793 447 Z M770 518 L524 1271 L275 518 L770 518 Z M753 1474 L669 1474 L519 1679 L362 1474 L283 1474 L477 1733 L562 1733 L753 1474 Z " />
<glyph glyph-name="Ecircumflex" unicode="&#xca;" horiz-adv-x="1017" d="M147 0 L147 1365 L934 1365 L934 1294 L229 1294 L229 743 L891 743 L891 672 L229 672 L229 71 L941 71 L941 0 L147 0 Z M770 1474 L686 1474 L536 1679 L379 1474 L300 1474 L494 1733 L579 1733 L770 1474 Z " />
<glyph glyph-name="Aacute" unicode="&#xc1;" horiz-adv-x="1044" d="M793 447 L252 447 L104 0 L20 0 L479 1365 L569 1365 L1023 0 L938 0 L793 447 Z M770 518 L524 1271 L275 518 L770 518 Z M747 1737 L550 1479 L468 1479 L645 1737 L747 1737 Z " />
<glyph glyph-name="Edieresis" unicode="&#xcb;" horiz-adv-x="1017" d="M147 0 L147 1365 L934 1365 L934 1294 L229 1294 L229 743 L891 743 L891 672 L229 672 L229 71 L941 71 L941 0 L147 0 Z M735 1677 L735 1488 L653 1488 L653 1677 L735 1677 Z M418 1677 L418 1488 L336 1488 L336 1677 L418 1677 Z " />
<glyph glyph-name="Egrave" unicode="&#xc8;" horiz-adv-x="1017" d="M147 0 L147 1365 L934 1365 L934 1294 L229 1294 L229 743 L891 743 L891 672 L229 672 L229 71 L941 71 L941 0 L147 0 Z M325 1737 L427 1737 L604 1479 L522 1479 L325 1737 Z " />
<glyph glyph-name="Iacute" unicode="&#xcd;" horiz-adv-x="392" d="M143 0 L143 1365 L225 1365 L225 0 L143 0 Z M410 1737 L213 1479 L131 1479 L308 1737 L410 1737 Z " />
<glyph glyph-name="Icircumflex" unicode="&#xce;" horiz-adv-x="375" d="M149 0 L149 1365 L231 1365 L231 0 L149 0 Z M422 1474 L338 1474 L188 1679 L31 1474 L-48 1474 L146 1733 L231 1733 L422 1474 Z " />
<glyph glyph-name="Idieresis" unicode="&#xcf;" horiz-adv-x="400" d="M158 0 L158 1365 L240 1365 L240 0 L158 0 Z M372 1677 L372 1488 L290 1488 L290 1677 L372 1677 Z M111 1677 L111 1488 L29 1488 L29 1677 L111 1677 Z " />
<glyph glyph-name="Igrave" unicode="&#xcc;" horiz-adv-x="392" d="M154 0 L154 1365 L236 1365 L236 0 L154 0 Z M-18 1737 L84 1737 L261 1479 L179 1479 L-18 1737 Z " />
<glyph glyph-name="Oacute" unicode="&#xd3;" horiz-adv-x="1260" d="M630 1396 Q824 1396 962 1264 Q1174 1062 1174 679 Q1174 416 1067 229 Q992 99 874 31 Q763 -33 628 -33 Q389 -33 245 153 Q86 358 86 693 Q86 950 188 1125 Q345 1396 630 1396 Z M630 1325 Q444 1325 319 1177 Q169 998 169 679 Q169 432 269 257 Q331 149 432 91 Q523 38 630 38 Q789 38 905 148 Q1091 324 1091 680 Q1091 932 993 1100 Q861 1325 630 1325 Z M827 1737 L630 1479 L548 1479 L725 1737 L827 1737 Z " />
<glyph glyph-name="Ocircumflex" unicode="&#xd4;" horiz-adv-x="1260" d="M630 1396 Q824 1396 962 1264 Q1174 1062 1174 679 Q1174 416 1067 229 Q992 99 874 31 Q763 -33 628 -33 Q389 -33 245 153 Q86 358 86 693 Q86 950 188 1125 Q345 1396 630 1396 Z M630 1325 Q444 1325 319 1177 Q169 998 169 679 Q169 432 269 257 Q331 149 432 91 Q523 38 630 38 Q789 38 905 148 Q1091 324 1091 680 Q1091 932 993 1100 Q861 1325 630 1325 Z M862 1474 L778 1474 L628 1679 L471 1474 L392 1474 L586 1733 L671 1733 L862 1474 Z " />
<glyph glyph-name="Ograve" unicode="&#xd2;" horiz-adv-x="1260" d="M630 1396 Q824 1396 962 1264 Q1174 1062 1174 679 Q1174 416 1067 229 Q992 99 874 31 Q763 -33 628 -33 Q389 -33 245 153 Q86 358 86 693 Q86 950 188 1125 Q345 1396 630 1396 Z M630 1325 Q444 1325 319 1177 Q169 998 169 679 Q169 432 269 257 Q331 149 432 91 Q523 38 630 38 Q789 38 905 148 Q1091 324 1091 680 Q1091 932 993 1100 Q861 1325 630 1325 Z M423 1737 L525 1737 L702 1479 L620 1479 L423 1737 Z " />
<glyph glyph-name="Uacute" unicode="&#xda;" horiz-adv-x="1162" d="M131 1365 L213 1365 L213 551 Q213 418 227 341.5 Q241 265 276 200 Q314 131 386 90 Q477 38 587 38 Q737 38 830 122 Q894 179 921.5 274 Q949 369 949 533 L949 1365 L1031 1365 L1031 570 Q1031 417 1015 328 Q999 239 958 165 Q910 75 818 25 Q713 -33 585 -33 Q400 -33 280 75 Q200 147 165.5 257.5 Q131 368 131 555 L131 1365 Z M775 1737 L578 1479 L496 1479 L673 1737 L775 1737 Z " />
<glyph glyph-name="Ucircumflex" unicode="&#xdb;" horiz-adv-x="1162" d="M131 1365 L213 1365 L213 551 Q213 418 227 341.5 Q241 265 276 200 Q314 131 386 90 Q477 38 587 38 Q737 38 830 122 Q894 179 921.5 274 Q949 369 949 533 L949 1365 L1031 1365 L1031 570 Q1031 417 1015 328 Q999 239 958 165 Q910 75 818 25 Q713 -33 585 -33 Q400 -33 280 75 Q200 147 165.5 257.5 Q131 368 131 555 L131 1365 Z M816 1474 L732 1474 L582 1679 L425 1474 L346 1474 L540 1733 L625 1733 L816 1474 Z " />
<glyph glyph-name="Ugrave" unicode="&#xd9;" horiz-adv-x="1162" d="M131 1365 L213 1365 L213 551 Q213 418 227 341.5 Q241 265 276 200 Q314 131 386 90 Q477 38 587 38 Q737 38 830 122 Q894 179 921.5 274 Q949 369 949 533 L949 1365 L1031 1365 L1031 570 Q1031 417 1015 328 Q999 239 958 165 Q910 75 818 25 Q713 -33 585 -33 Q400 -33 280 75 Q200 147 165.5 257.5 Q131 368 131 555 L131 1365 Z M387 1737 L489 1737 L666 1479 L584 1479 L387 1737 Z " />
<glyph glyph-name="dotlessi" unicode="&#x131;" horiz-adv-x="361" d="M141 0 L141 942 L220 942 L220 0 L141 0 Z " />
<glyph glyph-name="circumflex" unicode="&#x2c6;" horiz-adv-x="1018" d="M734 1093 L652 1093 L510 1301 L362 1093 L284 1093 L469 1357 L553 1357 L734 1093 Z " />
<glyph glyph-name="tilde" unicode="&#x2dc;" horiz-adv-x="1047" d="M789 1320 Q754 1123 638 1123 Q586 1123 511 1191 Q450 1246 410 1246 Q341 1246 316 1123 L257 1123 Q291 1321 411 1321 Q470 1321 535 1259 Q599 1199 634 1199 Q703 1199 728 1320 L789 1320 Z " />
<glyph glyph-name="uni02C9" unicode="&#x2c9;" horiz-adv-x="1046" d="M767 1217 L767 1151 L280 1151 L280 1217 L767 1217 Z " />
<glyph glyph-name="breve" unicode="&#x2d8;" horiz-adv-x="1043" d="M748 1356 Q714 1093 521 1093 Q329 1093 295 1356 L357 1356 Q388 1168 521 1168 Q655 1168 685 1356 L748 1356 Z " />
<glyph glyph-name="dotaccent" unicode="&#x2d9;" horiz-adv-x="997" d="M542 1296 L542 1107 L455 1107 L455 1296 L542 1296 Z " />
<glyph glyph-name="ring" unicode="&#x2da;" horiz-adv-x="1009" d="M508 1416 Q584 1416 637 1358 Q682 1308 682 1241 Q682 1163 624 1111 Q573 1066 504 1066 Q424 1066 372 1124 Q327 1174 327 1242 Q327 1315 379.5 1365.5 Q432 1416 508 1416 Z M503 1360 Q457 1360 423.5 1325 Q390 1290 390 1241 Q390 1192 423.5 1157 Q457 1122 504 1122 Q552 1122 585.5 1157 Q619 1192 619 1242 Q619 1291 585.5 1325.5 Q552 1360 503 1360 Z " />
<glyph glyph-name="cedilla" unicode="&#xb8;" horiz-adv-x="1017" d="M462 0 L520 0 L470 -126 Q502 -108 537 -108 Q596 -108 636 -146.5 Q676 -185 676 -242 Q676 -304 634 -342 Q592 -380 522 -380 Q412 -380 382 -295 L454 -295 Q469 -336 520 -336 Q559 -336 582.5 -311.5 Q606 -287 606 -245 Q606 -204 582 -179 Q558 -154 519 -154 Q479 -154 459 -185 L390 -185 L462 0 Z " />
<glyph glyph-name="hungarumlaut" unicode="&#x2dd;" horiz-adv-x="1022" d="M605 1359 L416 1096 L336 1096 L508 1359 L605 1359 Z M840 1359 L650 1096 L570 1096 L742 1359 L840 1359 Z " />
<glyph glyph-name="ogonek" unicode="&#x2db;" horiz-adv-x="1023" d="M896 1 Q796 -78 796 -171 Q796 -221 833 -253 Q870 -285 916 -285 Q940 -285 979 -271 L979 -323 Q926 -342 880 -342 Q808 -342 763.5 -303 Q719 -264 719 -200 Q719 -89 843 1 L896 1 Z " />
<glyph glyph-name="caron" unicode="&#x2c7;" horiz-adv-x="1018" d="M284 1357 L365 1357 L513 1149 L656 1357 L734 1357 L554 1093 L470 1093 L284 1357 Z " />
<glyph glyph-name="nbspace" unicode="&#xa0;" horiz-adv-x="512" d="" />
<glyph glyph-name="currency" unicode="&#xa4;" horiz-adv-x="1349" d="M319 1027 L130 1214 L180 1264 L367 1077 Q513 1195 673 1195 Q840 1195 980 1077 L1169 1263 L1218 1214 L1029 1027 Q1032 1025 1036 1020 Q1143 891 1143 724 Q1143 562 1030 424 L1220 235 L1171 185 L981 375 Q845 259 677 259 Q520 259 372 373 L184 186 L136 234 L321 423 Q206 555 206 728 Q206 883 319 1027 Z M668 1126 Q502 1126 385 996 Q282 882 282 727 Q282 548 413 430 Q525 329 674 329 Q848 329 966 459 Q1067 572 1067 730 Q1067 905 935 1025 Q825 1126 668 1126 Z " />
<glyph glyph-name="brokenbar" unicode="&#xa6;" horiz-adv-x="985" d="M452 1365 L533 1365 L533 690 L452 690 L452 1365 Z M452 314 L533 314 L533 -341 L452 -341 L452 314 Z " />
<glyph glyph-name="uni00AD" unicode="&#xad;" horiz-adv-x="403" d="M395 560 L395 493 L8 493 L8 560 L395 560 Z " />
<glyph glyph-name="overscore" unicode="&#xaf;" horiz-adv-x="1024" d="M68 1580 L955 1580 L955 1509 L68 1509 L68 1580 Z " />
<glyph glyph-name="twosuperior" unicode="&#xb2;" horiz-adv-x="560" d="M493 615 L493 548 L50 548 Q50 667 91.5 741 Q133 815 242 890 Q348 964 380 1003 Q435 1070 435 1155 Q435 1242 383 1288 Q340 1326 273 1326 Q125 1326 114 1146 L48 1146 Q49 1233 90 1294 Q153 1388 274 1388 Q381 1388 445 1318 Q504 1252 504 1153 Q504 1033 402 937 Q374 911 260 831 Q192 784 160 733 Q128 682 123 615 L493 615 Z " />
<glyph glyph-name="threesuperior" unicode="&#xb3;" horiz-adv-x="566" d="M41 794 L107 794 Q109 593 272 593 Q352 593 397 645 Q441 694 441 776 Q441 864 388 910 Q339 952 260 952 Q247 952 216 950 L216 1016 Q229 1016 235 1015 Q248 1015 253 1015 Q327 1015 373 1059 Q419 1103 419 1173 Q419 1240 380 1279.5 Q341 1319 274 1319 Q126 1319 121 1147 L55 1146 Q69 1381 273 1381 Q369 1381 428 1324 Q487 1267 487 1175 Q487 1050 376 988 Q509 932 509 778 Q509 655 434 586 Q372 531 274 531 Q160 531 100.5 598 Q41 665 41 794 Z " />
<glyph glyph-name="onesuperior" unicode="&#xb9;" horiz-adv-x="372" d="M228 548 L149 548 L149 1197 Q127 1175 105.5 1168.5 Q84 1162 33 1160 L33 1220 Q96 1220 124.5 1251 Q153 1282 163 1365 L228 1365 L228 548 Z " />
<glyph glyph-name="onequarter" unicode="&#xbc;" horiz-adv-x="1173" d="M234 548 L155 548 L155 1197 Q131 1175 106.5 1167.5 Q82 1160 34 1160 L34 1220 Q99 1220 128.5 1251 Q158 1282 169 1365 L234 1365 L234 548 Z M287 0 L212 0 L800 1365 L872 1365 L287 0 Z M961 0 L961 222 L656 222 L656 289 L970 818 L1040 818 L1040 289 L1139 289 L1139 222 L1040 222 L1040 0 L961 0 Z M961 289 L961 689 L724 289 L961 289 Z " />
<glyph glyph-name="onehalf" unicode="&#xbd;" horiz-adv-x="1291" d="M234 548 L155 548 L155 1197 Q131 1175 109 1168.5 Q87 1162 34 1160 L34 1220 Q99 1220 128.5 1251 Q158 1282 169 1365 L234 1365 L234 548 Z M286 0 L210 0 L798 1365 L870 1365 L286 0 Z M1223 65 L1223 -2 L781 -2 Q782 119 822.5 192 Q863 265 972 340 Q1077 413 1110 453 Q1166 520 1166 605 Q1166 691 1114 738 Q1071 776 1006 776 Q856 776 844 597 L777 597 Q785 687 821 744 Q848 788 898 813 Q948 838 1007 838 Q1112 838 1176 767 Q1235 702 1235 603 Q1235 483 1133 387 Q1105 361 990 281 Q922 234 890 183.5 Q858 133 854 65 L1223 65 Z " />
<glyph glyph-name="threequarters" unicode="&#xbe;" horiz-adv-x="1371" d="M488 0 L413 0 L1000 1365 L1073 1365 L488 0 Z M1158 0 L1158 222 L854 222 L854 289 L1167 818 L1237 818 L1237 289 L1336 289 L1336 222 L1237 222 L1237 0 L1158 0 Z M1158 289 L1158 689 L921 289 L1158 289 Z M41 794 L107 794 Q109 593 272 593 Q352 593 397 645 Q441 694 441 774 Q441 863 389 909 Q339 952 261 952 Q249 952 216 950 L216 1016 Q229 1016 235 1016 Q248 1016 255 1016 Q328 1016 373.5 1059.5 Q419 1103 419 1174 Q419 1240 380 1279.5 Q341 1319 274 1319 Q126 1319 121 1147 L55 1147 Q60 1235 89 1287 Q113 1329 164 1355 Q215 1381 275 1381 Q378 1381 437 1315 Q487 1259 487 1175 Q487 1050 376 988 Q509 932 509 778 Q509 655 434 586 Q372 531 274 531 Q41 531 41 794 Z " />
<glyph glyph-name="Eth" unicode="&#xd0;" horiz-adv-x="1132" d="M150 687 L0 687 L0 758 L150 758 L150 1365 L456 1365 Q610 1365 712 1325 Q892 1254 982 1052 Q1045 911 1045 701 Q1045 302 852 130 Q707 0 461 0 L150 0 L150 687 Z M232 687 L232 71 L461 71 Q687 71 798 177 Q963 335 963 696 Q963 1032 798 1183 Q677 1294 468 1294 L232 1294 L232 758 L590 758 L590 687 L232 687 Z " />
<glyph glyph-name="multiply" unicode="&#xd7;" horiz-adv-x="1002" d="M161 977 L213 1029 L501 742 L789 1029 L841 977 L553 689 L841 402 L789 350 L501 637 L213 350 L161 402 L449 689 L161 977 Z " />
<glyph glyph-name="Yacute" unicode="&#xdd;" horiz-adv-x="933" d="M425 0 L425 606 L-2 1365 L90 1365 L468 682 L844 1365 L935 1365 L507 602 L507 0 L425 0 Z M673 1737 L476 1479 L394 1479 L571 1737 L673 1737 Z " />
<glyph glyph-name="Thorn" unicode="&#xde;" horiz-adv-x="998" d="M147 1365 L229 1365 L229 1082 L439 1082 Q548 1082 616.5 1069 Q685 1056 742 1025 Q821 980 864 902 Q912 814 912 703 Q912 475 737 376 Q631 316 446 316 L229 316 L229 0 L147 0 L147 1365 Z M229 387 L419 387 Q599 387 693 439 Q753 471 787 532 Q829 608 829 702 Q829 789 792.5 859.5 Q756 930 694 965 Q644 992 591.5 1001.5 Q539 1011 433 1011 L229 1011 L229 387 Z " />
<glyph glyph-name="eth" unicode="&#xf0;" horiz-adv-x="950" d="M636 1385 L670 1332 L511 1241 Q688 1078 792 833 Q870 649 870 464 Q870 294 796 156 Q749 68 663 19 Q579 -29 475 -29 Q261 -29 155 156 Q80 285 80 467 Q80 642 153 779 Q200 868 294 923 Q377 971 475 971 Q588 971 680 899 Q568 1092 447 1205 L276 1106 L239 1166 L394 1252 Q347 1293 280 1335 L311 1390 Q386 1348 460 1288 L636 1385 Z M475 904 Q339 904 256 799 Q159 676 159 466 Q159 301 223 189 Q309 38 475 38 Q641 38 727 189 Q791 302 791 472 Q791 640 727 750 Q638 904 475 904 Z " />
<glyph glyph-name="yacute" unicode="&#xfd;" horiz-adv-x="740" d="M727 942 L368 -134 Q330 -250 278 -290.5 Q226 -331 118 -331 Q96 -331 77 -325 L77 -256 Q103 -261 131 -261 Q201 -261 237.5 -231.5 Q274 -202 298 -125 L341 11 L12 942 L94 942 L380 116 L647 942 L727 942 Z M573 1359 L384 1096 L302 1096 L474 1359 L573 1359 Z " />
<glyph glyph-name="thorn" unicode="&#xfe;" horiz-adv-x="954" d="M137 1364 L216 1364 L216 746 Q240 825 289 878 Q377 972 510 972 Q683 972 784 823 Q875 688 875 469 Q875 250 782 118 Q679 -27 505 -27 Q404 -27 326.5 28.5 Q249 84 216 179 L216 -399 L137 -399 L137 1364 Z M509 905 Q383 905 307 808 Q212 687 212 460 Q212 351 245 253.5 Q278 156 330 108 Q405 40 504 40 Q641 40 719 162 Q796 282 796 473 Q796 666 719 784 Q639 905 509 905 Z " />
<glyph glyph-name="Amacron" unicode="&#x100;" horiz-adv-x="1044" d="M793 446 L252 446 L104 0 L20 0 L479 1365 L569 1365 L1023 0 L938 0 L793 446 Z M770 517 L524 1271 L275 517 L770 517 Z M789 1588 L789 1517 L254 1517 L254 1588 L789 1588 Z " />
<glyph glyph-name="amacron" unicode="&#x101;" horiz-adv-x="881" d="M837 68 L837 5 Q798 -10 761 -10 Q656 -10 656 134 Q656 151 657 191 Q635 131 591 81 Q494 -29 346 -29 Q223 -29 150 54 Q83 129 83 240 Q83 428 267 504 Q360 542 648 551 L648 639 Q648 764 619 814 Q566 904 416 904 Q218 904 198 757 L121 757 Q127 838 176 889 Q255 971 416 971 Q635 971 700 822 Q725 766 726 657 L727 583 L727 193 Q727 105 736.5 81 Q746 57 782 57 Q803 57 837 68 Z M648 487 Q378 475 293 435 Q162 372 162 240 Q162 153 217.5 95.5 Q273 38 357 38 Q480 38 564 140.5 Q648 243 648 392 L648 487 Z M681 1217 L681 1151 L194 1151 L194 1217 L681 1217 Z " />
<glyph glyph-name="Abreve" unicode="&#x102;" horiz-adv-x="1044" d="M793 447 L252 447 L104 0 L20 0 L479 1365 L569 1365 L1023 0 L938 0 L793 447 Z M770 518 L524 1271 L275 518 L770 518 Z M757 1733 Q722 1474 525 1474 Q328 1474 293 1733 L357 1733 Q388 1549 525 1549 Q662 1549 693 1733 L757 1733 Z " />
<glyph glyph-name="abreve" unicode="&#x103;" horiz-adv-x="881" d="M837 68 L837 5 Q798 -10 761 -10 Q656 -10 656 134 Q656 151 657 191 Q635 131 591 81 Q494 -29 346 -29 Q223 -29 150 54 Q83 129 83 240 Q83 428 267 504 Q360 542 648 551 L648 639 Q648 764 619 814 Q566 904 416 904 Q218 904 198 757 L121 757 Q127 838 176 889 Q255 971 416 971 Q635 971 700 822 Q725 766 726 657 L727 583 L727 193 Q727 105 736.5 81 Q746 57 782 57 Q803 57 837 68 Z M648 487 Q378 475 293 435 Q162 372 162 240 Q162 153 217.5 95.5 Q273 38 357 38 Q480 38 564 140.5 Q648 243 648 392 L648 487 Z M661 1356 Q627 1093 434 1093 Q242 1093 208 1356 L270 1356 Q301 1168 434 1168 Q568 1168 598 1356 L661 1356 Z " />
<glyph glyph-name="Aogonek" unicode="&#x104;" horiz-adv-x="1043" d="M569 1365 L1023 0 L1012 0 Q912 -77 912 -170 Q912 -221 949 -253 Q987 -285 1033 -285 Q1057 -285 1097 -271 L1097 -323 Q1043 -342 997 -342 Q924 -342 879 -303 Q834 -264 834 -200 Q834 -87 958 0 L938 0 L793 446 L252 446 L104 0 L20 0 L479 1365 L569 1365 Z M770 517 L524 1271 L275 517 L770 517 Z " />
<glyph glyph-name="aogonek" unicode="&#x105;" horiz-adv-x="893" d="M755 -10 Q656 -5 656 134 Q656 151 657 191 Q635 131 591 81 Q494 -29 346 -29 Q223 -29 150 54 Q83 129 83 240 Q83 428 267 504 Q360 542 648 551 L648 639 Q648 764 619 814 Q566 904 416 904 Q218 904 198 757 L121 757 Q127 838 176 889 Q255 971 416 971 Q635 971 700 822 Q725 766 726 657 L727 583 L727 193 Q727 105 736.5 81 Q746 57 782 57 Q803 57 837 68 L837 5 Q823 -1 788 -33 Q724 -89 724 -175 Q724 -219 759.5 -252 Q795 -285 843 -285 Q867 -285 906 -271 L906 -323 Q853 -342 808 -342 Q736 -342 691 -303 Q646 -264 646 -201 Q646 -91 748 -15 Q752 -13 755 -10 Z M648 487 Q378 475 293 435 Q162 372 162 240 Q162 153 217.5 95.5 Q273 38 357 38 Q480 38 564 140.5 Q648 243 648 392 L648 487 Z " />
<glyph glyph-name="Cacute" unicode="&#x106;" horiz-adv-x="1172" d="M1016 454 L1096 454 Q1076 275 989 150 Q862 -33 633 -33 Q339 -33 191 230 Q86 416 86 676 Q86 946 191 1130 Q342 1397 642 1397 Q819 1397 935 1293 Q1051 1189 1088 997 L1008 997 Q982 1114 920 1194 Q820 1326 638 1326 Q396 1326 266 1099 Q168 930 168 681 Q168 429 265 259 Q392 38 629 38 Q788 38 886 143 Q984 248 1016 454 Z M800 1737 L603 1479 L521 1479 L698 1737 L800 1737 Z " />
<glyph glyph-name="cacute" unicode="&#x107;" horiz-adv-x="863" d="M721 302 L793 302 Q782 192 725 109 Q628 -29 456 -29 Q256 -29 156 146 Q80 278 80 471 Q80 661 155 791 Q259 971 465 971 Q626 971 717 852 Q772 780 787 679 L714 679 Q700 781 633 842.5 Q566 904 468 904 Q308 904 224 757 Q159 642 159 471 Q159 294 225 178 Q305 38 458 38 Q564 38 634 108.5 Q704 179 721 302 Z M648 1359 L459 1096 L377 1096 L549 1359 L648 1359 Z " />
<glyph glyph-name="Ccircumflex" unicode="&#x108;" horiz-adv-x="1172" d="M850 1474 L766 1474 L617 1679 L460 1474 L380 1474 L575 1733 L660 1733 L850 1474 Z M1016 454 L1096 454 Q1076 275 989 150 Q862 -33 633 -33 Q339 -33 191 230 Q86 416 86 676 Q86 946 191 1130 Q342 1397 642 1397 Q819 1397 935 1293 Q1051 1189 1088 997 L1008 997 Q982 1114 920 1194 Q820 1326 638 1326 Q396 1326 266 1099 Q168 930 168 681 Q168 429 265 259 Q392 38 629 38 Q788 38 886 143 Q984 248 1016 454 Z " />
<glyph glyph-name="ccircumflex" unicode="&#x109;" horiz-adv-x="863" d="M721 302 L793 302 Q782 192 725 109 Q628 -29 456 -29 Q256 -29 156 146 Q80 278 80 471 Q80 661 155 791 Q259 971 465 971 Q626 971 717 852 Q772 780 787 679 L714 679 Q700 781 633 842.5 Q566 904 468 904 Q308 904 224 757 Q159 642 159 471 Q159 294 225 178 Q305 38 458 38 Q564 38 634 108.5 Q704 179 721 302 Z M681 1093 L599 1093 L457 1301 L309 1093 L231 1093 L416 1357 L500 1357 L681 1093 Z " />
<glyph glyph-name="Cdotaccent" unicode="&#x10a;" horiz-adv-x="1172" d="M635 1677 L635 1488 L546 1488 L546 1677 L635 1677 Z M1016 454 L1096 454 Q1076 275 989 150 Q862 -33 633 -33 Q339 -33 191 230 Q86 416 86 676 Q86 946 191 1130 Q342 1397 642 1397 Q819 1397 935 1293 Q1051 1189 1088 997 L1008 997 Q982 1114 920 1194 Q820 1326 638 1326 Q396 1326 266 1099 Q168 930 168 681 Q168 429 265 259 Q392 38 629 38 Q788 38 886 143 Q984 248 1016 454 Z " />
<glyph glyph-name="cdotaccent" unicode="&#x10b;" horiz-adv-x="863" d="M720 302 L793 302 Q782 192 725 109 Q628 -29 456 -29 Q256 -29 156 146 Q80 278 80 471 Q80 661 155 791 Q259 971 465 971 Q625 971 717 852 Q771 783 787 679 L713 679 Q670 904 468 904 Q308 904 224 757 Q159 642 159 471 Q159 294 225 178 Q305 38 458 38 Q564 38 635 110 Q706 182 720 302 Z M481 1296 L481 1107 L402 1107 L402 1296 L481 1296 Z " />
<glyph glyph-name="Ccaron" unicode="&#x10c;" horiz-adv-x="1172" d="M1016 454 L1096 454 Q1076 275 989 150 Q862 -33 633 -33 Q339 -33 191 230 Q86 416 86 676 Q86 946 191 1130 Q342 1397 642 1397 Q819 1397 935 1293 Q1051 1189 1088 997 L1008 997 Q982 1114 920 1194 Q820 1326 638 1326 Q396 1326 266 1099 Q168 930 168 681 Q168 429 265 259 Q392 38 629 38 Q788 38 886 143 Q984 248 1016 454 Z M362 1733 L445 1733 L601 1528 L752 1733 L832 1733 L642 1474 L557 1474 L362 1733 Z " />
<glyph glyph-name="ccaron" unicode="&#x10d;" horiz-adv-x="863" d="M721 302 L793 302 Q782 192 725 109 Q628 -29 456 -29 Q256 -29 156 146 Q80 278 80 471 Q80 661 155 791 Q259 971 465 971 Q626 971 717 852 Q772 780 787 679 L714 679 Q700 781 633 842.5 Q566 904 468 904 Q308 904 224 757 Q159 642 159 471 Q159 294 225 178 Q305 38 458 38 Q564 38 634 108.5 Q704 179 721 302 Z M219 1357 L300 1357 L448 1149 L591 1357 L669 1357 L489 1093 L405 1093 L219 1357 Z " />
<glyph glyph-name="Dcaron" unicode="&#x10e;" horiz-adv-x="1130" d="M147 0 L147 1365 L453 1365 Q608 1365 710 1325 Q890 1254 980 1052 Q1043 910 1043 699 Q1043 302 850 129 Q705 0 458 0 L147 0 Z M229 71 L459 71 Q685 71 795 177 Q960 334 960 695 Q960 1032 796 1183 Q674 1294 466 1294 L229 1294 L229 71 Z M275 1733 L358 1733 L514 1528 L665 1733 L745 1733 L555 1474 L470 1474 L275 1733 Z " />
<glyph glyph-name="dcaron" unicode="&#x10f;" horiz-adv-x="975" d="M818 0 L739 0 L739 199 Q712 116 661 63 Q573 -29 445 -29 Q253 -29 151 151 Q80 277 80 473 Q80 667 150 790 Q201 879 283 927 Q359 971 451 971 Q550 971 628 915 Q706 859 739 764 L739 1365 L818 1365 L818 0 Z M450 904 Q304 904 226 769 Q159 653 159 468 Q159 290 224 176 Q303 38 445 38 Q570 38 646 135 Q741 257 741 484 Q741 595 709 690.5 Q677 786 623 836 Q549 904 450 904 Z M1084 1365 L1084 1245 Q1084 1161 1064.5 1120 Q1045 1079 998 1061 L998 1110 Q1029 1131 1029 1190 L1029 1213 L1005 1213 L1005 1365 L1084 1365 Z " />
<glyph glyph-name="Dcroat" unicode="&#x110;" horiz-adv-x="1132" d="M150 687 L0 687 L0 758 L150 758 L150 1365 L456 1365 Q610 1365 712 1325 Q892 1254 982 1052 Q1045 911 1045 701 Q1045 302 852 130 Q707 0 461 0 L150 0 L150 687 Z M232 687 L232 71 L461 71 Q687 71 798 177 Q963 335 963 696 Q963 1032 798 1183 Q677 1294 468 1294 L232 1294 L232 758 L590 758 L590 687 L232 687 Z " />
<glyph glyph-name="dcroat" unicode="&#x111;" horiz-adv-x="927" d="M819 0 L740 0 L740 199 Q713 116 662 63 Q574 -29 445 -29 Q315 -29 222 60 Q80 195 80 473 Q80 666 150 789 Q200 878 283 925 Q360 970 451 970 Q550 970 626.5 915.5 Q703 861 740 764 L740 1131 L432 1131 L432 1198 L739 1198 L739 1365 L818 1365 L818 1198 L928 1198 L928 1131 L819 1131 L819 0 Z M450 903 Q303 903 226 768 Q159 652 159 468 Q159 290 224 176 Q303 38 446 38 Q571 38 647 135 Q742 257 742 483 Q742 595 710 690 Q678 785 624 835 Q549 903 450 903 Z " />
<glyph glyph-name="Emacron" unicode="&#x112;" horiz-adv-x="1017" d="M147 0 L147 1365 L934 1365 L934 1294 L229 1294 L229 743 L891 743 L891 672 L229 672 L229 71 L941 71 L941 0 L147 0 Z M790 1588 L790 1517 L255 1517 L255 1588 L790 1588 Z " />
<glyph glyph-name="emacron" unicode="&#x113;" horiz-adv-x="908" d="M828 469 L157 469 Q156 380 180 294 Q249 38 485 38 Q572 38 643.5 74 Q715 110 739 165 L814 165 Q789 91 727 46 Q624 -29 483 -29 Q260 -29 156 153 Q80 285 80 475 Q80 655 150 779 Q258 971 465 971 Q635 971 731.5 837.5 Q828 704 828 469 Z M750 535 Q750 605 723 692 Q693 790 629 845 Q559 905 460 905 Q335 905 253 804 Q171 703 159 535 L750 535 Z M701 1217 L701 1151 L214 1151 L214 1217 L701 1217 Z " />
<glyph glyph-name="Ebreve" unicode="&#x114;" horiz-adv-x="1017" d="M147 0 L147 1365 L934 1365 L934 1294 L229 1294 L229 743 L891 743 L891 672 L229 672 L229 71 L941 71 L941 0 L147 0 Z M756 1733 Q723 1474 525 1474 Q327 1474 292 1733 L357 1733 Q388 1549 525 1549 Q661 1549 692 1733 L756 1733 Z " />
<glyph glyph-name="ebreve" unicode="&#x115;" horiz-adv-x="908" d="M681 1356 Q647 1093 454 1093 Q262 1093 228 1356 L290 1356 Q321 1168 454 1168 Q524 1168 563 1213 Q602 1258 618 1356 L681 1356 Z M828 469 L157 469 Q156 380 180 294 Q249 38 485 38 Q572 38 643.5 74 Q715 110 739 165 L814 165 Q789 91 727 46 Q624 -29 483 -29 Q260 -29 156 153 Q80 285 80 475 Q80 655 150 779 Q258 971 465 971 Q635 971 731.5 837.5 Q828 704 828 469 Z M750 535 Q750 605 723 692 Q693 790 629 845 Q559 905 460 905 Q335 905 253 804 Q171 703 159 535 L750 535 Z " />
<glyph glyph-name="Edotaccent" unicode="&#x116;" horiz-adv-x="1017" d="M147 0 L147 1365 L934 1365 L934 1294 L229 1294 L229 743 L891 743 L891 672 L229 672 L229 71 L941 71 L941 0 L147 0 Z M573 1677 L573 1488 L491 1488 L491 1677 L573 1677 Z " />
<glyph glyph-name="edotaccent" unicode="&#x117;" horiz-adv-x="908" d="M497 1296 L497 1107 L418 1107 L418 1296 L497 1296 Z M828 469 L157 469 Q156 380 180 294 Q249 38 485 38 Q572 38 643.5 74 Q715 110 739 165 L814 165 Q789 91 727 46 Q624 -29 483 -29 Q260 -29 156 153 Q80 285 80 475 Q80 655 150 779 Q258 971 465 971 Q635 971 731.5 837.5 Q828 704 828 469 Z M750 535 Q750 605 723 692 Q693 790 629 845 Q559 905 460 905 Q335 905 253 804 Q171 703 159 535 L750 535 Z " />
<glyph glyph-name="Eogonek" unicode="&#x118;" horiz-adv-x="1017" d="M928 0 Q829 -77 829 -170 Q829 -221 866 -253 Q904 -285 950 -285 Q974 -285 1014 -271 L1014 -323 Q960 -342 914 -342 Q841 -342 796 -303 Q751 -264 751 -200 Q751 -87 875 0 L147 0 L147 1365 L934 1365 L934 1294 L229 1294 L229 743 L891 743 L891 672 L229 672 L229 71 L941 71 L941 0 L928 0 Z " />
<glyph glyph-name="eogonek" unicode="&#x119;" horiz-adv-x="908" d="M505 -29 Q496 -29 483 -29 Q303 -29 200 90 Q80 230 80 475 Q80 655 150 779 Q258 971 465 971 Q635 971 731.5 837.5 Q828 704 828 469 L157 469 Q156 380 180 294 Q249 38 485 38 Q572 38 643.5 74 Q715 110 739 165 L814 165 Q791 97 731.5 49.5 Q672 2 588 -17 Q496 -94 496 -172 Q496 -219 531.5 -252 Q567 -285 616 -285 Q640 -285 679 -271 L679 -323 Q626 -342 580 -342 Q507 -342 463 -302.5 Q419 -263 419 -198 Q419 -114 505 -29 Z M750 535 Q750 605 723 692 Q693 790 629 845 Q559 905 460 905 Q335 905 253 804 Q171 703 159 535 L750 535 Z " />
<glyph glyph-name="Ecaron" unicode="&#x11a;" horiz-adv-x="1017" d="M147 0 L147 1365 L934 1365 L934 1294 L229 1294 L229 743 L891 743 L891 672 L229 672 L229 71 L941 71 L941 0 L147 0 Z M300 1733 L383 1733 L539 1528 L690 1733 L770 1733 L580 1474 L495 1474 L300 1733 Z " />
<glyph glyph-name="ecaron" unicode="&#x11b;" horiz-adv-x="908" d="M828 469 L157 469 Q156 380 180 294 Q249 38 485 38 Q572 38 643.5 74 Q715 110 739 165 L814 165 Q789 91 727 46 Q624 -29 483 -29 Q260 -29 156 153 Q80 285 80 475 Q80 655 150 779 Q258 971 465 971 Q635 971 731.5 837.5 Q828 704 828 469 Z M750 535 Q750 605 723 692 Q693 790 629 845 Q559 905 460 905 Q335 905 253 804 Q171 703 159 535 L750 535 Z M229 1357 L310 1357 L458 1149 L601 1357 L679 1357 L499 1093 L415 1093 L229 1357 Z " />
<glyph glyph-name="Gcircumflex" unicode="&#x11c;" horiz-adv-x="1252" d="M859 1474 L775 1474 L625 1679 L468 1474 L388 1474 L583 1733 L668 1733 L859 1474 Z M1032 1004 Q1010 1108 949 1182 Q831 1326 637 1326 Q397 1326 265 1097 Q169 929 169 683 Q169 435 266 265 Q395 40 627 40 Q872 40 990 314 Q1042 436 1048 605 L634 605 L634 676 L1129 676 L1129 0 L1054 0 L1054 315 Q997 170 911 81 Q804 -31 630 -31 Q410 -31 258 142 Q175 238 130.5 378.5 Q86 519 86 690 Q86 944 192 1131 Q267 1263 388 1332 Q500 1397 638 1397 Q821 1397 950.5 1289.5 Q1080 1182 1113 1004 L1032 1004 Z " />
<glyph glyph-name="gcircumflex" unicode="&#x11d;" horiz-adv-x="970" d="M701 1093 L618 1093 L477 1301 L328 1093 L250 1093 L435 1357 L519 1357 L701 1093 Z M754 942 L833 942 L833 128 Q833 10 820.5 -57 Q808 -124 774 -180 Q671 -355 447 -355 Q317 -355 228.5 -298.5 Q140 -242 117 -145 L199 -145 Q214 -198 251 -226 Q331 -288 453 -288 Q623 -288 703 -148 Q754 -59 754 97 L754 225 Q729 156 682 107 Q589 12 454 12 Q319 12 221 104 Q81 235 81 494 Q81 669 147 786 Q197 875 281 924 Q362 971 461 971 Q671 971 754 766 L754 942 Z M465 904 Q302 904 216 753 Q159 651 159 493 Q159 389 193 294 Q227 199 281 149 Q358 79 460 79 Q579 79 659 170 Q703 221 730 311.5 Q757 402 757 503 Q757 665 699 765 Q618 904 465 904 Z " />
<glyph glyph-name="Gbreve" unicode="&#x11e;" horiz-adv-x="1252" d="M1032 1004 Q1010 1108 949 1182 Q831 1326 637 1326 Q397 1326 265 1097 Q169 929 169 683 Q169 435 266 265 Q395 40 627 40 Q872 40 990 314 Q1042 436 1048 605 L634 605 L634 676 L1129 676 L1129 0 L1054 0 L1054 315 Q997 170 911 81 Q804 -31 630 -31 Q410 -31 258 142 Q175 238 130.5 378.5 Q86 519 86 690 Q86 944 192 1131 Q267 1263 388 1332 Q500 1397 638 1397 Q821 1397 950.5 1289.5 Q1080 1182 1113 1004 L1032 1004 Z M859 1733 Q824 1474 627 1474 Q430 1474 395 1733 L459 1733 Q490 1549 627 1549 Q764 1549 795 1733 L859 1733 Z " />
<glyph glyph-name="gbreve" unicode="&#x11f;" horiz-adv-x="970" d="M754 942 L833 942 L833 128 Q833 10 820.5 -57 Q808 -124 774 -180 Q671 -355 447 -355 Q317 -355 228.5 -298.5 Q140 -242 117 -145 L199 -145 Q214 -198 251 -226 Q331 -288 453 -288 Q623 -288 703 -148 Q754 -59 754 97 L754 225 Q729 156 682 107 Q589 12 454 12 Q319 12 221 104 Q81 235 81 494 Q81 669 147 786 Q197 875 281 924 Q362 971 461 971 Q671 971 754 766 L754 942 Z M465 904 Q302 904 216 753 Q159 651 159 493 Q159 389 193 294 Q227 199 281 149 Q358 79 460 79 Q579 79 659 170 Q703 221 730 311.5 Q757 402 757 503 Q757 665 699 765 Q618 904 465 904 Z M702 1356 Q668 1093 475 1093 Q283 1093 249 1356 L311 1356 Q342 1168 475 1168 Q609 1168 639 1356 L702 1356 Z " />
<glyph glyph-name="Gdotaccent" unicode="&#x120;" horiz-adv-x="1252" d="M671 1677 L671 1488 L582 1488 L582 1677 L671 1677 Z M1032 1004 Q1010 1108 949 1182 Q831 1326 637 1326 Q397 1326 265 1097 Q169 929 169 683 Q169 435 266 265 Q395 40 627 40 Q872 40 990 314 Q1042 436 1048 605 L634 605 L634 676 L1129 676 L1129 0 L1054 0 L1054 315 Q997 170 911 81 Q804 -31 630 -31 Q410 -31 258 142 Q175 238 130.5 378.5 Q86 519 86 690 Q86 944 192 1131 Q267 1263 388 1332 Q500 1397 638 1397 Q821 1397 950.5 1289.5 Q1080 1182 1113 1004 L1032 1004 Z " />
<glyph glyph-name="gdotaccent" unicode="&#x121;" horiz-adv-x="970" d="M512 1296 L512 1107 L433 1107 L433 1296 L512 1296 Z M754 942 L833 942 L833 128 Q833 10 820.5 -57 Q808 -124 774 -180 Q671 -355 447 -355 Q317 -355 228.5 -298.5 Q140 -242 117 -145 L199 -145 Q214 -198 251 -226 Q331 -288 453 -288 Q623 -288 703 -148 Q754 -59 754 97 L754 225 Q729 156 682 107 Q589 12 454 12 Q319 12 221 104 Q81 235 81 494 Q81 669 147 786 Q197 875 281 924 Q362 971 461 971 Q671 971 754 766 L754 942 Z M465 904 Q302 904 216 753 Q159 651 159 493 Q159 389 193 294 Q227 199 281 149 Q358 79 460 79 Q579 79 659 170 Q703 221 730 311.5 Q757 402 757 503 Q757 665 699 765 Q618 904 465 904 Z " />
<glyph glyph-name="Gcommaaccent" unicode="&#x122;" horiz-adv-x="1252" d="M1032 1004 Q1010 1108 949 1182 Q831 1326 637 1326 Q397 1326 265 1097 Q169 929 169 683 Q169 435 266 265 Q395 40 627 40 Q872 40 990 314 Q1042 436 1048 605 L634 605 L634 676 L1129 676 L1129 0 L1054 0 L1054 315 Q997 170 911 81 Q804 -31 630 -31 Q410 -31 258 142 Q175 238 130.5 378.5 Q86 519 86 690 Q86 944 192 1131 Q267 1263 388 1332 Q500 1397 638 1397 Q821 1397 950.5 1289.5 Q1080 1182 1113 1004 L1032 1004 Z M676 -95 L676 -215 Q676 -299 651.5 -339.5 Q627 -380 562 -400 L562 -351 Q622 -331 622 -270 L622 -247 L578 -247 L578 -95 L676 -95 Z " />
<glyph glyph-name="gcommaaccent" unicode="&#x123;" horiz-adv-x="970" d="M427 1062 L427 1182 Q427 1266 447 1306.5 Q467 1347 517 1366 L517 1316 Q469 1296 469 1236 L469 1213 L506 1213 L506 1062 L427 1062 Z M754 942 L833 942 L833 128 Q833 10 820.5 -57 Q808 -124 774 -180 Q671 -355 447 -355 Q317 -355 228.5 -298.5 Q140 -242 117 -145 L199 -145 Q214 -198 251 -226 Q331 -288 453 -288 Q623 -288 703 -148 Q754 -59 754 97 L754 225 Q729 156 682 107 Q589 12 454 12 Q319 12 221 104 Q81 235 81 494 Q81 669 147 786 Q197 875 281 924 Q362 971 461 971 Q671 971 754 766 L754 942 Z M465 904 Q302 904 216 753 Q159 651 159 493 Q159 389 193 294 Q227 199 281 149 Q358 79 460 79 Q579 79 659 170 Q703 221 730 311.5 Q757 402 757 503 Q757 665 699 765 Q618 904 465 904 Z " />
<glyph glyph-name="Hcircumflex" unicode="&#x124;" horiz-adv-x="1207" d="M147 0 L147 1365 L229 1365 L229 751 L977 751 L977 1365 L1059 1365 L1059 0 L977 0 L977 680 L229 680 L229 0 L147 0 Z M838 1474 L754 1474 L604 1679 L447 1474 L368 1474 L562 1733 L647 1733 L838 1474 Z " />
<glyph glyph-name="hcircumflex" unicode="&#x125;" horiz-adv-x="960" d="M146 0 L146 1365 L225 1365 L225 780 Q317 971 529 971 Q613 971 682 936.5 Q751 902 783 845 Q809 797 819 739.5 Q829 682 829 577 L829 0 L750 0 L750 571 Q750 736 711 810 Q689 852 637 878 Q585 904 522 904 Q412 904 331 832 Q272 779 248.5 702 Q225 625 225 486 L225 0 L146 0 Z M433 1474 L349 1474 L199 1679 L42 1474 L-37 1474 L157 1733 L242 1733 L433 1474 Z " />
<glyph glyph-name="Hbar" unicode="&#x126;" horiz-adv-x="1230" d="M158 996 L48 996 L48 1067 L158 1067 L158 1365 L240 1365 L240 1067 L988 1067 L988 1365 L1070 1365 L1070 1067 L1183 1067 L1183 996 L1070 996 L1070 0 L988 0 L988 680 L240 680 L240 0 L158 0 L158 996 Z M240 996 L240 751 L988 751 L988 996 L240 996 Z " />
<glyph glyph-name="hbar" unicode="&#x127;" horiz-adv-x="955" d="M141 1151 L28 1151 L28 1218 L141 1218 L141 1365 L220 1365 L220 1218 L498 1218 L498 1151 L220 1151 L220 779 Q310 970 521 970 Q739 970 802 785 Q823 723 823 577 L823 0 L744 0 L744 571 Q744 719 718 779 Q664 903 517 903 Q406 903 325 831 Q267 779 243.5 702 Q220 625 220 486 L220 0 L141 0 L141 1151 Z " />
<glyph glyph-name="Itilde" unicode="&#x128;" horiz-adv-x="413" d="M156 0 L156 1365 L238 1365 L238 0 L156 0 Z M476 1702 Q443 1511 323 1511 Q270 1511 195 1574 Q135 1625 94 1625 Q23 1625 -2 1509 L-63 1509 Q-28 1701 93 1701 Q129 1701 158 1685 Q187 1669 254 1613 Q286 1587 318 1587 Q388 1587 413 1702 L476 1702 Z " />
<glyph glyph-name="itilde" unicode="&#x129;" horiz-adv-x="406" d="M164 0 L164 942 L243 942 L243 0 L164 0 Z M469 1320 Q434 1123 318 1123 Q266 1123 191 1191 Q130 1246 90 1246 Q21 1246 -4 1123 L-63 1123 Q-29 1321 91 1321 Q150 1321 215 1259 Q279 1199 314 1199 Q383 1199 408 1320 L469 1320 Z " />
<glyph glyph-name="Imacron" unicode="&#x12a;" horiz-adv-x="535" d="M233 0 L233 1365 L315 1365 L315 0 L233 0 Z M535 1588 L535 1517 L0 1517 L0 1588 L535 1588 Z " />
<glyph glyph-name="imacron" unicode="&#x12b;" horiz-adv-x="487" d="M204 0 L204 942 L283 942 L283 0 L204 0 Z M487 1217 L487 1151 L0 1151 L0 1217 L487 1217 Z " />
<glyph glyph-name="Ibreve" unicode="&#x12c;" horiz-adv-x="404" d="M161 0 L161 1365 L243 1365 L243 0 L161 0 Z M434 1733 Q399 1474 202 1474 Q5 1474 -30 1733 L34 1733 Q65 1549 202 1549 Q339 1549 370 1733 L434 1733 Z " />
<glyph glyph-name="ibreve" unicode="&#x12d;" horiz-adv-x="406" d="M164 0 L164 942 L243 942 L243 0 L164 0 Z M430 1356 Q396 1093 203 1093 Q11 1093 -23 1356 L39 1356 Q70 1168 203 1168 Q337 1168 367 1356 L430 1356 Z " />
<glyph glyph-name="Iogonek" unicode="&#x12e;" horiz-adv-x="398" d="M243 1365 L243 0 Q143 -77 143 -171 Q143 -221 180 -253 Q218 -285 264 -285 Q289 -285 328 -271 L328 -323 Q273 -342 228 -342 Q155 -342 110 -303 Q65 -264 65 -200 Q65 -87 189 0 L161 0 L161 1365 L243 1365 Z " />
<glyph glyph-name="iogonek" unicode="&#x12f;" horiz-adv-x="381" d="M233 942 L233 0 Q132 -74 132 -169 Q132 -221 169 -253 Q206 -285 252 -285 Q278 -285 315 -271 L315 -323 Q261 -342 217 -342 Q144 -342 99.5 -303 Q55 -264 55 -200 Q55 -89 178 0 L154 0 L154 942 L233 942 Z M154 1174 L154 1365 L233 1365 L233 1174 L154 1174 Z " />
<glyph glyph-name="Idot" unicode="&#x130;" horiz-adv-x="385" d="M150 0 L150 1365 L232 1365 L232 0 L150 0 Z M236 1677 L236 1488 L147 1488 L147 1677 L236 1677 Z " />
<glyph glyph-name="IJ" unicode="&#x132;" horiz-adv-x="938" d="M147 0 L147 1365 L229 1365 L229 0 L147 0 Z M362 54 Q422 38 478 38 Q587 38 651 104 Q694 149 709.5 230.5 Q725 312 725 490 L725 1365 L807 1365 L807 472 Q807 322 794.5 244 Q782 166 748 106 Q668 -33 477 -33 Q422 -33 362 -18 L362 54 Z " />
<glyph glyph-name="ij" unicode="&#x133;" horiz-adv-x="761" d="M141 1174 L141 1365 L220 1365 L220 1174 L141 1174 Z M141 0 L141 942 L220 942 L220 0 L141 0 Z M361 -277 Q390 -286 417 -286 Q507 -286 529 -212 Q539 -177 540 -47 L540 942 L619 942 L619 -45 Q619 -213 585 -274 Q538 -355 419 -355 Q391 -355 361 -346 L361 -277 Z M540 1174 L540 1365 L619 1365 L619 1174 L540 1174 Z " />
<glyph glyph-name="Jcircumflex" unicode="&#x134;" horiz-adv-x="570" d="M10 54 Q70 38 126 38 Q235 38 299 104 Q342 149 357.5 230.5 Q373 312 373 490 L373 1365 L455 1365 L455 472 Q455 322 442.5 244 Q430 166 396 106 Q316 -33 125 -33 Q70 -33 10 -18 L10 54 Z M644 1474 L561 1474 L411 1679 L254 1474 L174 1474 L369 1733 L454 1733 L644 1474 Z " />
<glyph glyph-name="jcircumflex" unicode="&#x135;" horiz-adv-x="386" d="M-22 -277 Q6 -286 34 -286 Q125 -286 147 -212 Q157 -177 158 -47 L158 942 L237 942 L237 -45 Q237 -213 203 -274 Q156 -355 37 -355 Q8 -355 -22 -346 L-22 -277 Z M418 1093 L336 1093 L194 1301 L46 1093 L-32 1093 L153 1357 L237 1357 L418 1093 Z " />
<glyph glyph-name="Kcommaaccent" unicode="&#x136;" horiz-adv-x="1025" d="M147 1365 L229 1365 L229 652 L894 1365 L995 1365 L452 784 L1015 0 L921 0 L398 726 L229 545 L229 0 L147 0 L147 1365 Z M603 -95 L603 -215 Q603 -300 581.5 -340.5 Q560 -381 505 -400 L505 -351 Q557 -331 557 -270 L557 -247 L521 -247 L521 -95 L603 -95 Z " />
<glyph glyph-name="kcommaaccent" unicode="&#x137;" horiz-adv-x="837" d="M137 0 L137 1365 L216 1365 L216 502 L691 942 L787 942 L410 587 L806 0 L717 0 L355 535 L216 404 L216 0 L137 0 Z M493 -95 L493 -215 Q493 -300 468 -340 Q443 -380 378 -400 L378 -351 Q438 -331 438 -270 L438 -247 L396 -247 L396 -95 L493 -95 Z " />
<glyph glyph-name="kgreenlandic" unicode="&#x138;" horiz-adv-x="813" d="M137 942 L216 942 L216 454 L670 942 L768 942 L392 539 L783 0 L692 0 L340 484 L216 351 L216 0 L137 0 L137 942 Z " />
<glyph glyph-name="Lacute" unicode="&#x139;" horiz-adv-x="923" d="M131 0 L131 1365 L213 1365 L213 71 L884 71 L884 0 L131 0 Z M624 1737 L427 1479 L345 1479 L522 1737 L624 1737 Z " />
<glyph glyph-name="lacute" unicode="&#x13a;" horiz-adv-x="370" d="M131 0 L131 1365 L210 1365 L210 0 L131 0 Z M391 1742 L202 1479 L120 1479 L292 1742 L391 1742 Z " />
<glyph glyph-name="Lcommaaccent" unicode="&#x13b;" horiz-adv-x="939" d="M147 0 L147 1365 L229 1365 L229 71 L900 71 L900 0 L147 0 Z M553 -95 L553 -215 Q553 -300 531.5 -340.5 Q510 -381 455 -400 L455 -351 Q507 -331 507 -270 L507 -247 L471 -247 L471 -95 L553 -95 Z " />
<glyph glyph-name="lcommaaccent" unicode="&#x13c;" horiz-adv-x="358" d="M139 0 L139 1365 L218 1365 L218 0 L139 0 Z M231 -95 L231 -215 Q231 -300 206 -340 Q181 -380 116 -400 L116 -351 Q176 -331 176 -270 L176 -247 L134 -247 L134 -95 L231 -95 Z " />
<glyph glyph-name="Lcaron" unicode="&#x13d;" horiz-adv-x="939" d="M147 0 L147 1365 L229 1365 L229 71 L900 71 L900 0 L147 0 Z M618 1365 L618 1245 Q618 1161 592.5 1120 Q567 1079 503 1061 L503 1110 Q563 1131 563 1190 L563 1213 L521 1213 L521 1365 L618 1365 Z " />
<glyph glyph-name="lcaron" unicode="&#x13e;" horiz-adv-x="367" d="M141 0 L141 1365 L220 1365 L220 0 L141 0 Z M481 1365 L481 1245 Q481 1161 455.5 1120 Q430 1079 367 1061 L367 1110 Q427 1131 427 1190 L427 1213 L382 1213 L382 1365 L481 1365 Z " />
<glyph glyph-name="Ldot" unicode="&#x13f;" horiz-adv-x="939" d="M147 0 L147 1365 L226 1365 L226 67 L900 67 L900 0 L147 0 Z M571 777 L571 586 L492 586 L492 777 L571 777 Z " />
<glyph glyph-name="ldot" unicode="&#x140;" horiz-adv-x="423" d="M141 0 L141 1365 L220 1365 L220 0 L141 0 Z M415 798 L415 607 L336 607 L336 798 L415 798 Z " />
<glyph glyph-name="Lslash" unicode="&#x141;" horiz-adv-x="944" d="M153 605 L18 509 L17 596 L153 693 L153 1365 L235 1365 L235 747 L513 944 L512 856 L235 659 L235 71 L906 71 L906 0 L153 0 L153 605 Z " />
<glyph glyph-name="lslash" unicode="&#x142;" horiz-adv-x="382" d="M143 654 L0 524 L0 624 L143 754 L143 1365 L222 1365 L222 819 L383 965 L381 864 L222 720 L222 0 L143 0 L143 654 Z " />
<glyph glyph-name="Nacute" unicode="&#x143;" horiz-adv-x="1205" d="M147 0 L147 1365 L229 1365 L975 140 L975 1365 L1057 1365 L1057 0 L975 0 L229 1217 L229 0 L147 0 Z M799 1737 L602 1479 L520 1479 L697 1737 L799 1737 Z " />
<glyph glyph-name="nacute" unicode="&#x144;" horiz-adv-x="951" d="M137 0 L137 942 L216 942 L216 761 Q309 971 517 971 Q650 971 734 884 Q782 834 801 766 Q820 698 820 577 L820 0 L741 0 L741 571 Q741 720 712 781 Q652 904 506 904 Q400 904 324 834 Q266 780 241 700.5 Q216 621 216 486 L216 0 L137 0 Z M681 1359 L492 1096 L410 1096 L582 1359 L681 1359 Z " />
<glyph glyph-name="Ncommaaccent" unicode="&#x145;" horiz-adv-x="1205" d="M147 0 L147 1365 L229 1365 L975 140 L975 1365 L1057 1365 L1057 0 L975 0 L229 1217 L229 0 L147 0 Z M640 -95 L640 -215 Q640 -300 618.5 -340.5 Q597 -381 542 -400 L542 -351 Q594 -331 594 -270 L594 -247 L558 -247 L558 -95 L640 -95 Z " />
<glyph glyph-name="ncommaaccent" unicode="&#x146;" horiz-adv-x="951" d="M517 -95 L517 -215 Q517 -300 496.5 -340.5 Q476 -381 424 -400 L425 -351 Q473 -330 473 -270 L473 -247 L438 -247 L438 -95 L517 -95 Z M137 0 L137 942 L216 942 L216 761 Q309 971 517 971 Q650 971 734 884 Q782 834 801 766 Q820 698 820 577 L820 0 L741 0 L741 571 Q741 720 712 781 Q652 904 506 904 Q400 904 324 834 Q266 780 241 700.5 Q216 621 216 486 L216 0 L137 0 Z " />
<glyph glyph-name="Ncaron" unicode="&#x147;" horiz-adv-x="1205" d="M147 0 L147 1365 L229 1365 L975 140 L975 1365 L1057 1365 L1057 0 L975 0 L229 1217 L229 0 L147 0 Z M367 1733 L450 1733 L606 1528 L757 1733 L837 1733 L647 1474 L562 1474 L367 1733 Z " />
<glyph glyph-name="ncaron" unicode="&#x148;" horiz-adv-x="951" d="M137 0 L137 942 L216 942 L216 761 Q309 971 517 971 Q650 971 734 884 Q782 834 801 766 Q820 698 820 577 L820 0 L741 0 L741 571 Q741 720 712 781 Q652 904 506 904 Q400 904 324 834 Q266 780 241 700.5 Q216 621 216 486 L216 0 L137 0 Z M262 1357 L343 1357 L491 1149 L634 1357 L712 1357 L532 1093 L448 1093 L262 1357 Z " />
<glyph glyph-name="napostrophe" unicode="&#x149;" horiz-adv-x="980" d="M166 0 L166 942 L245 942 L245 761 Q338 971 547 971 Q628 971 695.5 935.5 Q763 900 798 839 Q849 748 849 577 L849 0 L770 0 L770 571 Q770 725 729 802 Q704 849 652 876.5 Q600 904 536 904 Q429 904 353 834 Q295 781 270 701 Q245 621 245 486 L245 0 L166 0 Z M110 1148 L110 1028 Q110 944 91 903.5 Q72 863 23 844 L23 893 Q69 913 69 973 L69 996 L31 996 L31 1148 L110 1148 Z " />
<glyph glyph-name="Eng" unicode="&#x14a;" horiz-adv-x="1184" d="M229 1129 Q271 1223 336 1283 Q458 1396 636 1396 Q802 1396 910 1301 Q980 1239 1012 1140 Q1044 1041 1045 884 L1047 300 L1047 257 Q1047 147 1037 87 Q1027 27 1001 -22 Q937 -140 765 -140 Q726 -140 678 -132 L678 -59 Q725 -68 760 -68 Q907 -68 947 52 Q967 112 968 311 L969 892 L969 898 Q969 1077 912 1181 Q877 1244 811 1282 Q731 1327 632 1327 Q481 1327 376 1231 Q297 1158 263 1050 Q229 942 229 764 L229 -3 L147 -3 L147 1365 L229 1365 L229 1129 Z " />
<glyph glyph-name="eng" unicode="&#x14b;" horiz-adv-x="951" d="M561 -289 L561 -221 Q590 -230 617 -230 Q708 -230 730 -156 Q740 -122 741 9 L741 571 Q741 725 700 802 Q675 849 622.5 876.5 Q570 904 507 904 Q399 904 323 834 Q265 780 240.5 700.5 Q216 621 216 486 L216 0 L137 0 L137 942 L213 942 L213 761 Q315 971 516 971 Q598 971 666 935.5 Q734 900 769 839 Q820 748 820 577 L820 11 Q820 -157 786 -218 Q740 -299 620 -299 Q590 -299 561 -289 Z " />
<glyph glyph-name="Omacron" unicode="&#x14c;" horiz-adv-x="1260" d="M630 1396 Q824 1396 962 1264 Q1174 1062 1174 679 Q1174 416 1067 229 Q992 99 874 31 Q763 -33 628 -33 Q389 -33 245 153 Q86 358 86 693 Q86 950 188 1125 Q345 1396 630 1396 Z M630 1325 Q444 1325 319 1177 Q169 998 169 679 Q169 432 269 257 Q331 149 432 91 Q523 38 630 38 Q789 38 905 148 Q1091 324 1091 680 Q1091 932 993 1100 Q861 1325 630 1325 Z M897 1588 L897 1524 L362 1524 L362 1588 L897 1588 Z " />
<glyph glyph-name="omacron" unicode="&#x14d;" horiz-adv-x="950" d="M475 971 Q688 971 796 785 Q870 657 870 471 Q870 286 796 156 Q690 -29 473 -29 Q304 -29 198 92 Q143 155 111.5 257.5 Q80 360 80 475 Q80 658 154 785 Q263 971 475 971 Z M475 904 Q339 904 256 799 Q159 676 159 466 Q159 301 223 189 Q309 38 475 38 Q641 38 727 189 Q791 302 791 472 Q791 640 727 750 Q638 904 475 904 Z M725 1217 L725 1151 L238 1151 L238 1217 L725 1217 Z " />
<glyph glyph-name="Obreve" unicode="&#x14e;" horiz-adv-x="1260" d="M630 1396 Q824 1396 962 1264 Q1174 1062 1174 679 Q1174 416 1067 229 Q992 99 874 31 Q763 -33 628 -33 Q389 -33 245 153 Q86 358 86 693 Q86 950 188 1125 Q345 1396 630 1396 Z M630 1325 Q444 1325 319 1177 Q169 998 169 679 Q169 432 269 257 Q331 149 432 91 Q523 38 630 38 Q789 38 905 148 Q1091 324 1091 680 Q1091 932 993 1100 Q861 1325 630 1325 Z M862 1733 Q827 1474 630 1474 Q433 1474 398 1733 L462 1733 Q493 1549 630 1549 Q767 1549 798 1733 L862 1733 Z " />
<glyph glyph-name="obreve" unicode="&#x14f;" horiz-adv-x="950" d="M475 971 Q688 971 796 785 Q870 657 870 471 Q870 286 796 156 Q690 -29 473 -29 Q304 -29 198 92 Q143 155 111.5 257.5 Q80 360 80 475 Q80 658 154 785 Q263 971 475 971 Z M475 904 Q339 904 256 799 Q159 676 159 466 Q159 301 223 189 Q309 38 475 38 Q641 38 727 189 Q791 302 791 472 Q791 640 727 750 Q638 904 475 904 Z M702 1356 Q668 1093 475 1093 Q283 1093 249 1356 L311 1356 Q342 1168 475 1168 Q609 1168 639 1356 L702 1356 Z " />
<glyph glyph-name="Ohungarumlaut" unicode="&#x150;" horiz-adv-x="1260" d="M630 1396 Q824 1396 962 1264 Q1174 1062 1174 679 Q1174 416 1067 229 Q992 99 874 31 Q763 -33 628 -33 Q389 -33 245 153 Q86 358 86 693 Q86 950 188 1125 Q345 1396 630 1396 Z M630 1325 Q444 1325 319 1177 Q169 998 169 679 Q169 432 269 257 Q331 149 432 91 Q523 38 630 38 Q789 38 905 148 Q1091 324 1091 680 Q1091 932 993 1100 Q861 1325 630 1325 Z M722 1737 L525 1479 L443 1479 L620 1737 L722 1737 Z M962 1737 L765 1479 L683 1479 L861 1737 L962 1737 Z " />
<glyph glyph-name="ohungarumlaut" unicode="&#x151;" horiz-adv-x="950" d="M475 971 Q688 971 796 785 Q870 657 870 471 Q870 286 796 156 Q690 -29 473 -29 Q304 -29 198 92 Q143 155 111.5 257.5 Q80 360 80 475 Q80 658 154 785 Q263 971 475 971 Z M475 904 Q339 904 256 799 Q159 676 159 466 Q159 301 223 189 Q309 38 475 38 Q641 38 727 189 Q791 302 791 472 Q791 640 727 750 Q638 904 475 904 Z M577 1359 L388 1096 L308 1096 L480 1359 L577 1359 Z M812 1359 L622 1096 L542 1096 L714 1359 L812 1359 Z " />
<glyph glyph-name="Racute" unicode="&#x154;" horiz-adv-x="1091" d="M147 0 L147 1365 L549 1365 Q717 1365 816 1312 Q890 1273 929 1198 Q971 1114 971 1009 Q971 820 850 718 Q800 676 729 664 Q811 647 857 599 Q896 558 912.5 494 Q929 430 937 288 Q945 144 954.5 91.5 Q964 39 988 0 L899 0 Q876 42 866.5 100 Q857 158 852 287 Q844 517 759 576 Q686 628 485 628 L229 628 L229 0 L147 0 Z M229 698 L527 698 Q681 698 759 739 Q815 769 847 830 Q889 910 889 1007 Q889 1093 856.5 1159 Q824 1225 766 1255 Q691 1294 547 1294 L229 1294 L229 698 Z M712 1737 L515 1479 L433 1479 L610 1737 L712 1737 Z " />
<glyph glyph-name="racute" unicode="&#x155;" horiz-adv-x="557" d="M137 0 L137 942 L214 942 L214 716 Q267 845 347 901.5 Q427 958 555 958 L555 878 Q544 879 542 879 Q358 879 270 725 Q240 672 228 600 Q216 528 216 397 L216 0 L137 0 Z M495 1359 L306 1096 L224 1096 L396 1359 L495 1359 Z " />
<glyph glyph-name="Rcommaaccent" unicode="&#x156;" horiz-adv-x="1091" d="M608 -95 L608 -215 Q608 -299 586 -340 Q564 -381 510 -400 L510 -351 Q562 -331 562 -270 L562 -247 L526 -247 L526 -95 L608 -95 Z M147 0 L147 1365 L549 1365 Q717 1365 816 1312 Q890 1273 929 1198 Q971 1114 971 1009 Q971 820 850 718 Q800 676 729 664 Q811 647 857 599 Q896 558 912.5 494 Q929 430 937 288 Q945 144 954.5 91.5 Q964 39 988 0 L899 0 Q876 42 866.5 100 Q857 158 852 287 Q844 517 759 576 Q686 628 485 628 L229 628 L229 0 L147 0 Z M229 698 L527 698 Q681 698 759 739 Q815 769 847 830 Q889 910 889 1007 Q889 1093 856.5 1159 Q824 1225 766 1255 Q691 1294 547 1294 L229 1294 L229 698 Z " />
<glyph glyph-name="rcommaaccent" unicode="&#x157;" horiz-adv-x="550" d="M130 0 L130 942 L209 942 L209 718 Q300 963 549 958 L549 878 Q538 879 536 879 Q351 879 263 725 Q233 672 221 599.5 Q209 527 209 397 L209 0 L130 0 Z M215 -95 L215 -215 Q215 -299 195.5 -340 Q176 -381 126 -400 L126 -351 Q173 -330 173 -270 L173 -247 L136 -247 L136 -95 L215 -95 Z " />
<glyph glyph-name="Rcaron" unicode="&#x158;" horiz-adv-x="1091" d="M147 0 L147 1365 L549 1365 Q717 1365 816 1312 Q890 1273 929 1198 Q971 1114 971 1009 Q971 820 850 718 Q800 676 729 664 Q811 647 857 599 Q896 558 912.5 494 Q929 430 937 288 Q945 144 954.5 91.5 Q964 39 988 0 L899 0 Q876 42 866.5 100 Q857 158 852 287 Q844 517 759 576 Q686 628 485 628 L229 628 L229 0 L147 0 Z M229 698 L527 698 Q681 698 759 739 Q815 769 847 830 Q889 910 889 1007 Q889 1093 856.5 1159 Q824 1225 766 1255 Q691 1294 547 1294 L229 1294 L229 698 Z M258 1733 L341 1733 L497 1528 L648 1733 L728 1733 L538 1474 L453 1474 L258 1733 Z " />
<glyph glyph-name="rcaron" unicode="&#x159;" horiz-adv-x="552" d="M131 0 L131 942 L208 942 L208 716 Q261 845 341 901.5 Q421 958 549 958 L549 878 Q538 879 536 879 Q352 879 264 725 Q234 672 222 600 Q210 528 210 397 L210 0 L131 0 Z M82 1357 L163 1357 L311 1149 L454 1357 L532 1357 L352 1093 L268 1093 L82 1357 Z " />
<glyph glyph-name="Sacute" unicode="&#x15a;" horiz-adv-x="998" d="M68 383 L147 383 Q164 257 222 178 Q324 39 516 39 Q681 39 769 139 Q846 226 846 347 Q846 480 756 557 Q692 611 503 664 Q381 698 319.5 725.5 Q258 753 207 796 Q157 839 128 906.5 Q99 974 99 1048 Q99 1206 208 1306 Q308 1397 474 1397 Q644 1397 752.5 1299.5 Q861 1202 881 1032 L800 1032 Q780 1146 732 1208 Q689 1263 621 1294.5 Q553 1326 475 1326 Q394 1326 330 1295 Q258 1260 218 1196 Q178 1132 178 1051 Q178 926 261 853 Q339 785 529 734 Q665 697 736.5 662 Q808 627 850 575 Q930 479 930 351 Q930 179 807 66 Q700 -33 514 -33 Q324 -33 207 76 Q90 185 68 383 Z M692 1737 L495 1479 L413 1479 L590 1737 L692 1737 Z " />
<glyph glyph-name="sacute" unicode="&#x15b;" horiz-adv-x="753" d="M68 265 L145 265 Q157 181 197 128 Q266 38 388 38 Q494 38 554 106 Q606 165 606 244 Q606 334 544 381 Q510 406 479 418 Q448 430 337 462 Q221 494 168 539 Q89 606 89 717 Q89 830 171 903 Q246 971 363 971 Q485 971 562.5 902 Q640 833 655 713 L577 713 Q564 787 534 827 Q475 905 367 905 Q271 905 211 840 Q165 789 165 719 Q165 638 219 596 Q252 569 284 556 Q316 543 442 505 Q554 472 604 429 Q685 360 685 244 Q685 120 599 43 Q521 -29 386 -29 Q250 -29 167 47.5 Q84 124 68 265 Z M573 1359 L384 1096 L302 1096 L474 1359 L573 1359 Z " />
<glyph glyph-name="Scircumflex" unicode="&#x15c;" horiz-adv-x="998" d="M734 1474 L650 1474 L500 1679 L343 1474 L264 1474 L458 1733 L543 1733 L734 1474 Z M68 383 L147 383 Q164 257 222 178 Q324 39 516 39 Q681 39 769 139 Q846 226 846 347 Q846 480 756 557 Q692 611 503 664 Q381 698 319.5 725.5 Q258 753 207 796 Q157 839 128 906.5 Q99 974 99 1048 Q99 1206 208 1306 Q308 1397 474 1397 Q644 1397 752.5 1299.5 Q861 1202 881 1032 L800 1032 Q780 1146 732 1208 Q689 1263 621 1294.5 Q553 1326 475 1326 Q394 1326 330 1295 Q258 1260 218 1196 Q178 1132 178 1051 Q178 926 261 853 Q339 785 529 734 Q665 697 736.5 662 Q808 627 850 575 Q930 479 930 351 Q930 179 807 66 Q700 -33 514 -33 Q324 -33 207 76 Q90 185 68 383 Z " />
<glyph glyph-name="scircumflex" unicode="&#x15d;" horiz-adv-x="753" d="M68 265 L145 265 Q157 181 197 128 Q266 38 388 38 Q494 38 554 106 Q606 165 606 244 Q606 334 544 381 Q510 406 479 418 Q448 430 337 462 Q221 494 168 539 Q89 606 89 717 Q89 830 171 903 Q246 971 363 971 Q485 971 562.5 902 Q640 833 655 713 L577 713 Q564 787 534 827 Q475 905 367 905 Q271 905 211 840 Q165 789 165 719 Q165 638 219 596 Q252 569 284 556 Q316 543 442 505 Q554 472 604 429 Q685 360 685 244 Q685 120 599 43 Q521 -29 386 -29 Q250 -29 167 47.5 Q84 124 68 265 Z M602 1093 L519 1093 L378 1301 L229 1093 L151 1093 L336 1357 L420 1357 L602 1093 Z " />
<glyph glyph-name="Scedilla" unicode="&#x15e;" horiz-adv-x="998" d="M481 -32 Q310 -18 205 81 Q90 188 68 383 L147 383 Q164 257 222 178 Q324 39 516 39 Q681 39 769 139 Q846 226 846 347 Q846 480 756 557 Q692 611 503 664 Q381 698 319.5 725.5 Q258 753 207 796 Q157 839 128 906.5 Q99 974 99 1048 Q99 1206 208 1306 Q308 1397 474 1397 Q644 1397 752.5 1299.5 Q861 1202 881 1032 L800 1032 Q780 1146 732 1208 Q690 1263 621.5 1294.5 Q553 1326 475 1326 Q394 1326 330 1295 Q258 1260 218 1196 Q178 1132 178 1051 Q178 926 261 854 Q340 785 529 734 Q665 697 736.5 662 Q808 627 850 575 Q930 479 930 351 Q930 186 824 82 Q718 -22 539 -32 L502 -126 Q534 -108 568 -108 Q627 -108 667 -146.5 Q707 -185 707 -242 Q707 -304 665 -342 Q623 -380 553 -380 Q444 -380 414 -295 L485 -295 Q502 -336 552 -336 Q591 -336 614 -311.5 Q637 -287 637 -245 Q637 -204 613.5 -179 Q590 -154 550 -154 Q510 -154 490 -185 L422 -185 L481 -32 Z " />
<glyph glyph-name="scedilla" unicode="&#x15f;" horiz-adv-x="753" d="M330 -24 Q97 14 68 265 L145 265 Q157 181 197 128 Q266 38 388 38 Q494 38 554 106 Q606 165 606 244 Q606 334 544 381 Q510 406 479 418 Q448 430 337 462 Q221 494 168 539 Q89 606 89 717 Q89 830 171 903 Q246 971 363 971 Q485 971 562.5 902 Q640 833 655 713 L577 713 Q564 787 534 827 Q475 905 367 905 Q270 905 211 840 Q165 789 165 719 Q165 638 219 596 Q251 570 286.5 555.5 Q322 541 442 506 Q553 472 604 430 Q685 360 685 244 Q685 120 599 43 Q520 -29 394 -29 L392 -29 L387 -28 L348 -126 Q380 -108 414 -108 Q473 -108 513 -146.5 Q553 -185 553 -242 Q553 -304 511 -342 Q469 -380 399 -380 Q290 -380 259 -295 L331 -295 Q348 -336 398 -336 Q437 -336 460 -311.5 Q483 -287 483 -245 Q483 -204 459 -179 Q435 -154 396 -154 Q356 -154 336 -185 L267 -185 L330 -24 Z " />
<glyph glyph-name="Scaron" unicode="&#x160;" horiz-adv-x="998" d="M68 383 L147 383 Q164 257 222 178 Q324 39 516 39 Q681 39 769 139 Q846 226 846 347 Q846 480 756 557 Q692 611 503 664 Q381 698 319.5 725.5 Q258 753 207 796 Q157 839 128 906.5 Q99 974 99 1048 Q99 1206 208 1306 Q308 1397 474 1397 Q644 1397 752.5 1299.5 Q861 1202 881 1032 L800 1032 Q780 1146 732 1208 Q689 1263 621 1294.5 Q553 1326 475 1326 Q394 1326 330 1295 Q258 1260 218 1196 Q178 1132 178 1051 Q178 926 261 853 Q339 785 529 734 Q665 697 736.5 662 Q808 627 850 575 Q930 479 930 351 Q930 179 807 66 Q700 -33 514 -33 Q324 -33 207 76 Q90 185 68 383 Z M264 1733 L347 1733 L503 1528 L654 1733 L734 1733 L544 1474 L459 1474 L264 1733 Z " />
<glyph glyph-name="scaron" unicode="&#x161;" horiz-adv-x="753" d="M68 265 L145 265 Q157 181 197 128 Q266 38 388 38 Q494 38 554 106 Q606 165 606 244 Q606 334 544 381 Q510 406 479 418 Q448 430 337 462 Q221 494 168 539 Q89 606 89 717 Q89 830 171 903 Q246 971 363 971 Q485 971 562.5 902 Q640 833 655 713 L577 713 Q564 787 534 827 Q475 905 367 905 Q271 905 211 840 Q165 789 165 719 Q165 638 219 596 Q252 569 284 556 Q316 543 442 505 Q554 472 604 429 Q685 360 685 244 Q685 120 599 43 Q521 -29 386 -29 Q250 -29 167 47.5 Q84 124 68 265 Z M145 1357 L226 1357 L374 1149 L517 1357 L595 1357 L415 1093 L331 1093 L145 1357 Z " />
<glyph glyph-name="Tcommaaccent" unicode="&#x162;" horiz-adv-x="985" d="M534 0 L452 0 L452 1294 L35 1294 L35 1365 L951 1365 L951 1294 L534 1294 L534 0 Z M537 -95 L537 -215 Q537 -299 515.5 -340 Q494 -381 439 -400 L439 -351 Q491 -331 491 -270 L491 -247 L455 -247 L455 -95 L537 -95 Z " />
<glyph glyph-name="tcommaaccent" unicode="&#x163;" horiz-adv-x="475" d="M6 875 L6 942 L164 942 L164 1107 L230 1229 L242 1229 L242 942 L428 942 L428 875 L242 875 L242 259 Q242 130 261 97 Q284 57 346 57 Q379 57 428 73 L428 5 Q380 -11 340 -11 Q212 -11 179 83 Q164 123 164 267 L164 875 L6 875 Z M280 -95 L280 -215 Q280 -300 255 -340 Q230 -380 165 -400 L165 -351 Q225 -331 225 -270 L225 -247 L183 -247 L183 -95 L280 -95 Z " />
<glyph glyph-name="Tcaron" unicode="&#x164;" horiz-adv-x="985" d="M534 0 L452 0 L452 1294 L35 1294 L35 1365 L951 1365 L951 1294 L534 1294 L534 0 Z M258 1733 L341 1733 L497 1528 L648 1733 L728 1733 L538 1474 L453 1474 L258 1733 Z " />
<glyph glyph-name="tcaron" unicode="&#x165;" horiz-adv-x="462" d="M6 875 L6 942 L164 942 L164 1107 L230 1229 L242 1229 L242 942 L428 942 L428 875 L242 875 L242 259 Q242 130 261 97 Q284 57 346 57 Q379 57 428 73 L428 5 Q380 -11 340 -11 Q212 -11 179 83 Q164 123 164 267 L164 875 L6 875 Z M543 1329 L543 1209 Q543 1125 524 1084.5 Q505 1044 457 1025 L457 1074 Q488 1095 488 1154 L488 1177 L464 1177 L464 1329 L543 1329 Z " />
<glyph glyph-name="Tbar" unicode="&#x166;" horiz-adv-x="985" d="M452 898 L228 898 L228 964 L452 964 L452 1294 L35 1294 L35 1365 L951 1365 L951 1294 L534 1294 L534 964 L758 964 L758 898 L534 898 L534 0 L452 0 L452 898 Z " />
<glyph glyph-name="tbar" unicode="&#x167;" horiz-adv-x="475" d="M428 875 L242 875 L242 764 L427 764 L427 697 L242 697 L242 259 Q242 130 261 97 Q284 57 346 57 Q379 57 428 73 L428 5 Q380 -11 340 -11 Q212 -11 179 83 Q164 123 164 267 L164 697 L6 697 L6 764 L164 764 L164 875 L6 875 L6 942 L164 942 L164 1107 L230 1229 L242 1229 L242 942 L428 942 L428 875 Z " />
<glyph glyph-name="Utilde" unicode="&#x168;" horiz-adv-x="1162" d="M131 1365 L213 1365 L213 551 Q213 418 227 341.5 Q241 265 276 200 Q314 131 386 90 Q477 38 587 38 Q737 38 830 122 Q894 179 921.5 274 Q949 369 949 533 L949 1365 L1031 1365 L1031 570 Q1031 417 1015 328 Q999 239 958 165 Q910 75 818 25 Q713 -33 585 -33 Q400 -33 280 75 Q200 147 165.5 257.5 Q131 368 131 555 L131 1365 Z M850 1702 Q817 1511 697 1511 Q644 1511 569 1574 Q509 1625 468 1625 Q397 1625 372 1509 L311 1509 Q346 1701 467 1701 Q503 1701 532 1685 Q561 1669 628 1613 Q660 1587 692 1587 Q762 1587 787 1702 L850 1702 Z " />
<glyph glyph-name="utilde" unicode="&#x169;" horiz-adv-x="951" d="M814 942 L814 0 L735 0 L735 181 Q642 -29 433 -29 Q352 -29 284 6.5 Q216 42 182 103 Q131 194 131 365 L131 942 L210 942 L210 371 Q210 217 251 140 Q276 93 328 65.5 Q380 38 444 38 Q604 38 681 176 Q711 231 723 292 Q735 353 735 456 L735 942 L814 942 Z M741 1320 Q706 1123 590 1123 Q538 1123 463 1191 Q402 1246 362 1246 Q293 1246 268 1123 L209 1123 Q243 1321 363 1321 Q422 1321 487 1259 Q551 1199 586 1199 Q655 1199 680 1320 L741 1320 Z " />
<glyph glyph-name="Umacron" unicode="&#x16a;" horiz-adv-x="1162" d="M131 1365 L213 1365 L213 551 Q213 418 227 341.5 Q241 265 276 200 Q314 131 386 90 Q477 38 587 38 Q737 38 830 122 Q894 179 921.5 274 Q949 369 949 533 L949 1365 L1031 1365 L1031 570 Q1031 417 1015 328 Q999 239 958 165 Q910 75 818 25 Q713 -33 585 -33 Q400 -33 280 75 Q200 147 165.5 257.5 Q131 368 131 555 L131 1365 Z M849 1588 L849 1524 L314 1524 L314 1588 L849 1588 Z " />
<glyph glyph-name="umacron" unicode="&#x16b;" horiz-adv-x="951" d="M814 942 L814 0 L735 0 L735 181 Q642 -29 433 -29 Q352 -29 284 6.5 Q216 42 182 103 Q131 194 131 365 L131 942 L210 942 L210 371 Q210 217 251 140 Q276 93 328 65.5 Q380 38 444 38 Q604 38 681 176 Q711 231 723 292 Q735 353 735 456 L735 942 L814 942 Z M717 1217 L717 1151 L230 1151 L230 1217 L717 1217 Z " />
<glyph glyph-name="Ubreve" unicode="&#x16c;" horiz-adv-x="1162" d="M131 1365 L213 1365 L213 551 Q213 418 227 341.5 Q241 265 276 200 Q314 131 386 90 Q477 38 587 38 Q737 38 830 122 Q894 179 921.5 274 Q949 369 949 533 L949 1365 L1031 1365 L1031 570 Q1031 417 1015 328 Q999 239 958 165 Q910 75 818 25 Q713 -33 585 -33 Q400 -33 280 75 Q200 147 165.5 257.5 Q131 368 131 555 L131 1365 Z M813 1733 Q778 1474 581 1474 Q384 1474 349 1733 L413 1733 Q444 1549 581 1549 Q718 1549 749 1733 L813 1733 Z " />
<glyph glyph-name="ubreve" unicode="&#x16d;" horiz-adv-x="951" d="M814 942 L814 0 L735 0 L735 181 Q642 -29 433 -29 Q352 -29 284 6.5 Q216 42 182 103 Q131 194 131 365 L131 942 L210 942 L210 371 Q210 217 251 140 Q276 93 328 65.5 Q380 38 444 38 Q604 38 681 176 Q711 231 723 292 Q735 353 735 456 L735 942 L814 942 Z M700 1356 Q666 1093 473 1093 Q281 1093 247 1356 L309 1356 Q340 1168 473 1168 Q607 1168 637 1356 L700 1356 Z " />
<glyph glyph-name="Uring" unicode="&#x16e;" horiz-adv-x="1162" d="M131 1365 L213 1365 L213 551 Q213 418 227 341.5 Q241 265 276 200 Q314 131 386 90 Q477 38 587 38 Q737 38 830 122 Q894 179 921.5 274 Q949 369 949 533 L949 1365 L1031 1365 L1031 570 Q1031 417 1015 328 Q999 239 958 165 Q910 75 818 25 Q713 -33 585 -33 Q400 -33 280 75 Q200 147 165.5 257.5 Q131 368 131 555 L131 1365 Z M584 1793 Q661 1793 714 1734 Q759 1685 759 1618 Q759 1540 701 1489 Q650 1443 581 1443 Q500 1443 448 1501 Q403 1552 403 1619 Q403 1691 456 1742 Q509 1793 584 1793 Z M580 1737 Q533 1737 499.5 1702 Q466 1667 466 1618 Q466 1569 499.5 1534 Q533 1499 581 1499 Q629 1499 662.5 1533.5 Q696 1568 696 1618 Q696 1668 662.5 1702.5 Q629 1737 580 1737 Z " />
<glyph glyph-name="uring" unicode="&#x16f;" horiz-adv-x="951" d="M814 942 L814 0 L735 0 L735 181 Q642 -29 433 -29 Q352 -29 284 6.5 Q216 42 182 103 Q131 194 131 365 L131 942 L210 942 L210 371 Q210 217 251 140 Q276 93 328 65.5 Q380 38 444 38 Q604 38 681 176 Q711 231 723 292 Q735 353 735 456 L735 942 L814 942 Z M477 1416 Q553 1416 606 1358 Q651 1308 651 1241 Q651 1163 593 1111 Q542 1066 473 1066 Q393 1066 341 1124 Q296 1174 296 1242 Q296 1315 348.5 1365.5 Q401 1416 477 1416 Z M472 1360 Q426 1360 392.5 1325 Q359 1290 359 1241 Q359 1192 392.5 1157 Q426 1122 473 1122 Q521 1122 554.5 1157 Q588 1192 588 1242 Q588 1291 554.5 1325.5 Q521 1360 472 1360 Z " />
<glyph glyph-name="Uhungarumlaut" unicode="&#x170;" horiz-adv-x="1162" d="M131 1365 L213 1365 L213 551 Q213 418 227 341.5 Q241 265 276 200 Q314 131 386 90 Q477 38 587 38 Q737 38 830 122 Q894 179 921.5 274 Q949 369 949 533 L949 1365 L1031 1365 L1031 570 Q1031 417 1015 328 Q999 239 958 165 Q910 75 818 25 Q713 -33 585 -33 Q400 -33 280 75 Q200 147 165.5 257.5 Q131 368 131 555 L131 1365 Z M661 1737 L464 1479 L382 1479 L559 1737 L661 1737 Z M901 1737 L704 1479 L622 1479 L800 1737 L901 1737 Z " />
<glyph glyph-name="uhungarumlaut" unicode="&#x171;" horiz-adv-x="951" d="M814 942 L814 0 L735 0 L735 181 Q642 -29 433 -29 Q352 -29 284 6.5 Q216 42 182 103 Q131 194 131 365 L131 942 L210 942 L210 371 Q210 217 251 140 Q276 93 328 65.5 Q380 38 444 38 Q604 38 681 176 Q711 231 723 292 Q735 353 735 456 L735 942 L814 942 Z M572 1359 L383 1096 L303 1096 L475 1359 L572 1359 Z M807 1359 L617 1096 L537 1096 L709 1359 L807 1359 Z " />
<glyph glyph-name="Uogonek" unicode="&#x172;" horiz-adv-x="1162" d="M741 -9 Q652 -85 652 -170 Q652 -221 689 -253 Q727 -285 773 -285 Q797 -285 837 -271 L837 -323 Q783 -342 737 -342 Q664 -342 619 -303 Q574 -264 574 -200 Q574 -109 664 -27 Q620 -33 584 -33 Q401 -33 281 75 Q173 172 143 349 Q131 422 131 555 L131 1365 L213 1365 L213 551 Q213 418 227 341.5 Q241 265 276 200 Q314 131 386 90 Q477 38 587 38 Q737 38 830 122 Q894 179 921.5 274 Q949 369 949 533 L949 1365 L1031 1365 L1031 570 Q1031 355 995 247 Q929 54 741 -9 Z " />
<glyph glyph-name="uogonek" unicode="&#x173;" horiz-adv-x="958" d="M813 942 L813 0 Q811 -1 809 -3 Q711 -73 711 -171 Q711 -218 746 -251.5 Q781 -285 831 -285 Q855 -285 894 -271 L894 -323 Q841 -342 795 -342 Q723 -342 678.5 -303 Q634 -264 634 -200 Q634 -86 757 0 L737 0 L737 181 Q645 -29 434 -29 Q352 -29 284.5 6.5 Q217 42 182 103 Q131 194 131 365 L131 942 L210 942 L210 371 Q210 217 251 140 Q276 93 328 65.5 Q380 38 444 38 Q604 38 681 176 Q711 231 723 292 Q735 353 735 456 L735 942 L813 942 Z " />
<glyph glyph-name="Wcircumflex" unicode="&#x174;" horiz-adv-x="1466" d="M339 0 L25 1365 L108 1365 L388 112 L683 1365 L782 1365 L1079 113 L1363 1365 L1442 1365 L1126 0 L1033 0 L732 1252 L433 0 L339 0 Z M963 1474 L879 1474 L729 1679 L572 1474 L493 1474 L687 1733 L772 1733 L963 1474 Z " />
<glyph glyph-name="wcircumflex" unicode="&#x175;" horiz-adv-x="1178" d="M288 0 L20 942 L103 942 L333 103 L543 942 L635 942 L849 107 L1077 942 L1157 942 L891 0 L801 0 L589 825 L379 0 L288 0 Z M814 1093 L732 1093 L590 1301 L441 1093 L364 1093 L549 1357 L633 1357 L814 1093 Z " />
<glyph glyph-name="Ycircumflex" unicode="&#x176;" horiz-adv-x="933" d="M425 0 L425 606 L-2 1365 L90 1365 L468 682 L844 1365 L935 1365 L507 602 L507 0 L425 0 Z M702 1474 L618 1474 L468 1679 L311 1474 L232 1474 L426 1733 L511 1733 L702 1474 Z " />
<glyph glyph-name="ycircumflex" unicode="&#x177;" horiz-adv-x="740" d="M727 942 L368 -134 Q340 -217 312 -255 Q284 -293 237 -312 Q188 -331 133 -331 Q114 -331 77 -328 L77 -259 Q107 -261 124 -261 Q197 -261 235.5 -231 Q274 -201 298 -125 L341 11 L12 942 L94 942 L380 116 L647 942 L727 942 Z M595 1093 L513 1093 L371 1301 L222 1093 L144 1093 L329 1357 L413 1357 L595 1093 Z " />
<glyph glyph-name="Zacute" unicode="&#x179;" horiz-adv-x="1001" d="M57 0 L57 59 L837 1294 L111 1294 L111 1365 L936 1365 L936 1308 L154 71 L950 71 L950 0 L57 0 Z M696 1737 L499 1479 L417 1479 L594 1737 L696 1737 Z " />
<glyph glyph-name="zacute" unicode="&#x17a;" horiz-adv-x="774" d="M726 942 L726 900 L149 67 L747 67 L747 0 L49 0 L49 50 L621 875 L87 875 L87 942 L726 942 Z M604 1359 L415 1096 L333 1096 L505 1359 L604 1359 Z " />
<glyph glyph-name="Zdotaccent" unicode="&#x17b;" horiz-adv-x="1001" d="M57 0 L57 59 L837 1294 L111 1294 L111 1365 L936 1365 L936 1308 L154 71 L950 71 L950 0 L57 0 Z M547 1677 L547 1488 L458 1488 L458 1677 L547 1677 Z " />
<glyph glyph-name="zdotaccent" unicode="&#x17c;" horiz-adv-x="774" d="M726 942 L726 900 L149 67 L747 67 L747 0 L49 0 L49 50 L621 875 L87 875 L87 942 L726 942 Z M444 1296 L444 1107 L357 1107 L357 1296 L444 1296 Z " />
<glyph glyph-name="Zcaron" unicode="&#x17d;" horiz-adv-x="1001" d="M57 0 L57 59 L837 1294 L111 1294 L111 1365 L936 1365 L936 1308 L154 71 L950 71 L950 0 L57 0 Z M264 1733 L347 1733 L503 1528 L654 1733 L734 1733 L544 1474 L459 1474 L264 1733 Z " />
<glyph glyph-name="zcaron" unicode="&#x17e;" horiz-adv-x="774" d="M726 942 L726 900 L149 67 L747 67 L747 0 L49 0 L49 50 L621 875 L87 875 L87 942 L726 942 Z M189 1357 L270 1357 L418 1149 L561 1357 L639 1357 L459 1093 L375 1093 L189 1357 Z " />
<glyph glyph-name="longs" unicode="&#x17f;" horiz-adv-x="457" d="M167 0 L167 1080 Q167 1175 173.5 1218.5 Q180 1262 199 1296 Q248 1383 353 1383 Q390 1383 447 1366 L447 1292 Q402 1313 363 1313 Q295 1313 266 1262 Q246 1225 246 1090 L246 0 L167 0 Z " />
<glyph glyph-name="uni01CD" unicode="&#x1cd;" horiz-adv-x="1044" d="M793 446 L252 446 L104 0 L20 0 L479 1365 L569 1365 L1023 0 L938 0 L793 446 Z M770 517 L524 1271 L275 517 L770 517 Z M286 1733 L369 1733 L525 1528 L676 1733 L756 1733 L567 1474 L482 1474 L286 1733 Z " />
<glyph glyph-name="uni01CE" unicode="&#x1ce;" horiz-adv-x="881" d="M212 1357 L294 1357 L441 1149 L584 1357 L663 1357 L482 1093 L398 1093 L212 1357 Z M837 68 L837 5 Q798 -10 761 -10 Q656 -10 656 134 Q656 151 657 191 Q635 131 591 81 Q494 -29 346 -29 Q223 -29 150 54 Q83 129 83 240 Q83 428 267 504 Q360 542 648 551 L648 639 Q648 764 619 814 Q566 904 416 904 Q218 904 198 757 L121 757 Q127 838 176 889 Q255 971 416 971 Q635 971 700 822 Q725 766 726 657 L727 583 L727 193 Q727 105 736.5 81 Q746 57 782 57 Q803 57 837 68 Z M648 487 Q378 475 293 435 Q162 372 162 240 Q162 153 217.5 95.5 Q273 38 357 38 Q480 38 564 140.5 Q648 243 648 392 L648 487 Z " />
<glyph glyph-name="uni01D3" unicode="&#x1d3;" horiz-adv-x="1162" d="M131 1365 L213 1365 L213 551 Q213 418 227 341.5 Q241 265 276 200 Q314 131 386 90 Q477 38 587 38 Q737 38 830 122 Q894 179 921.5 274 Q949 369 949 533 L949 1365 L1031 1365 L1031 570 Q1031 417 1015 328 Q999 239 958 165 Q910 75 818 25 Q713 -33 585 -33 Q400 -33 280 75 Q200 147 165.5 257.5 Q131 368 131 555 L131 1365 Z M346 1733 L429 1733 L585 1528 L736 1733 L816 1733 L626 1474 L541 1474 L346 1733 Z " />
<glyph glyph-name="uni01D4" unicode="&#x1d4;" horiz-adv-x="951" d="M814 942 L814 0 L735 0 L735 181 Q642 -29 433 -29 Q352 -29 284 6.5 Q216 42 182 103 Q131 194 131 365 L131 942 L210 942 L210 371 Q210 217 251 140 Q276 93 328 65.5 Q380 38 444 38 Q604 38 681 176 Q711 231 723 292 Q735 353 735 456 L735 942 L814 942 Z M248 1357 L329 1357 L477 1149 L620 1357 L698 1357 L518 1093 L434 1093 L248 1357 Z " />
<glyph glyph-name="Gcaron" unicode="&#x1e6;" horiz-adv-x="1252" d="M392 1733 L474 1733 L630 1528 L781 1733 L862 1733 L672 1474 L587 1474 L392 1733 Z M1032 1004 Q1010 1108 949 1182 Q831 1326 637 1326 Q397 1326 265 1097 Q169 929 169 683 Q169 435 266 265 Q395 40 627 40 Q872 40 990 314 Q1042 436 1048 605 L634 605 L634 676 L1129 676 L1129 0 L1054 0 L1054 315 Q997 170 911 81 Q804 -31 630 -31 Q410 -31 258 142 Q175 238 130.5 378.5 Q86 519 86 690 Q86 944 192 1131 Q267 1263 388 1332 Q500 1397 638 1397 Q821 1397 950.5 1289.5 Q1080 1182 1113 1004 L1032 1004 Z " />
<glyph glyph-name="gcaron" unicode="&#x1e7;" horiz-adv-x="970" d="M250 1357 L331 1357 L479 1149 L622 1357 L701 1357 L520 1093 L436 1093 L250 1357 Z M754 942 L833 942 L833 128 Q833 10 820.5 -57 Q808 -124 774 -180 Q671 -355 447 -355 Q317 -355 228.5 -298.5 Q140 -242 117 -145 L199 -145 Q214 -198 251 -226 Q331 -288 453 -288 Q623 -288 703 -148 Q754 -59 754 97 L754 225 Q729 156 682 107 Q589 12 454 12 Q319 12 221 104 Q81 235 81 494 Q81 669 147 786 Q197 875 281 924 Q362 971 461 971 Q671 971 754 766 L754 942 Z M465 904 Q302 904 216 753 Q159 651 159 493 Q159 389 193 294 Q227 199 281 149 Q358 79 460 79 Q579 79 659 170 Q703 221 730 311.5 Q757 402 757 503 Q757 665 699 765 Q618 904 465 904 Z " />
<glyph glyph-name="uni01F5" unicode="&#x1f5;" horiz-adv-x="970" d="M687 1267 L408 1067 L370 1114 L626 1342 L687 1267 Z M754 942 L833 942 L833 128 Q833 10 820.5 -57 Q808 -124 774 -180 Q671 -355 447 -355 Q317 -355 228.5 -298.5 Q140 -242 117 -145 L199 -145 Q214 -198 251 -226 Q331 -288 453 -288 Q623 -288 703 -148 Q754 -59 754 97 L754 225 Q729 156 682 107 Q589 12 454 12 Q319 12 221 104 Q81 235 81 494 Q81 669 147 786 Q197 875 281 924 Q362 971 461 971 Q671 971 754 766 L754 942 Z M465 904 Q302 904 216 753 Q159 651 159 493 Q159 389 193 294 Q227 199 281 149 Q358 79 460 79 Q579 79 659 170 Q703 221 730 311.5 Q757 402 757 503 Q757 665 699 765 Q618 904 465 904 Z " />
<glyph glyph-name="Scommaaccent" unicode="&#x218;" horiz-adv-x="998" d="M68 383 L147 383 Q164 257 222 178 Q324 39 516 39 Q681 39 769 139 Q846 226 846 347 Q846 480 756 557 Q692 611 503 664 Q381 698 319.5 725.5 Q258 753 207 796 Q157 839 128 906.5 Q99 974 99 1048 Q99 1206 208 1306 Q308 1397 474 1397 Q644 1397 752.5 1299.5 Q861 1202 881 1032 L800 1032 Q780 1146 732 1208 Q689 1263 621 1294.5 Q553 1326 475 1326 Q394 1326 330 1295 Q258 1260 218 1196 Q178 1132 178 1051 Q178 926 261 853 Q339 785 529 734 Q665 697 736.5 662 Q808 627 850 575 Q930 479 930 351 Q930 179 807 66 Q700 -33 514 -33 Q324 -33 207 76 Q90 185 68 383 Z M555 -95 L555 -215 Q555 -299 530.5 -339.5 Q506 -380 441 -400 L441 -351 Q501 -331 501 -270 L501 -247 L457 -247 L457 -95 L555 -95 Z " />
<glyph glyph-name="scommaaccent" unicode="&#x219;" horiz-adv-x="753" d="M68 265 L145 265 Q157 181 197 128 Q266 38 388 38 Q494 38 554 106 Q606 165 606 244 Q606 334 544 381 Q510 406 479 418 Q448 430 337 462 Q221 494 168 539 Q89 606 89 717 Q89 830 171 903 Q246 971 363 971 Q485 971 562.5 902 Q640 833 655 713 L577 713 Q564 787 534 827 Q475 905 367 905 Q271 905 211 840 Q165 789 165 719 Q165 638 219 596 Q252 569 284 556 Q316 543 442 505 Q554 472 604 429 Q685 360 685 244 Q685 120 599 43 Q521 -29 386 -29 Q250 -29 167 47.5 Q84 124 68 265 Z M453 -95 L453 -215 Q453 -300 428 -340 Q403 -380 338 -400 L338 -351 Q398 -331 398 -270 L398 -247 L356 -247 L356 -95 L453 -95 Z " />
<glyph glyph-name="uni021A" unicode="&#x21a;" horiz-adv-x="985" d="M534 0 L452 0 L452 1294 L35 1294 L35 1365 L951 1365 L951 1294 L534 1294 L534 0 Z M537 -95 L537 -215 Q537 -299 515.5 -340 Q494 -381 439 -400 L439 -351 Q491 -331 491 -270 L491 -247 L455 -247 L455 -95 L537 -95 Z " />
<glyph glyph-name="uni021B" unicode="&#x21b;" horiz-adv-x="475" d="M6 875 L6 942 L164 942 L164 1107 L230 1229 L242 1229 L242 942 L428 942 L428 875 L242 875 L242 259 Q242 130 261 97 Q284 57 346 57 Q379 57 428 73 L428 5 Q380 -11 340 -11 Q212 -11 179 83 Q164 123 164 267 L164 875 L6 875 Z M280 -95 L280 -215 Q280 -300 255 -340 Q230 -380 165 -400 L165 -351 Q225 -331 225 -270 L225 -247 L183 -247 L183 -95 L280 -95 Z " />
<glyph glyph-name="dotlessj" unicode="&#x237;" horiz-adv-x="392" d="M-9 -278 Q20 -286 46 -286 Q138 -286 160 -212 Q170 -177 171 -47 L171 942 L250 942 L250 -45 Q250 -213 215 -274 Q169 -355 50 -355 Q21 -355 -9 -346 L-9 -278 Z " />
<glyph glyph-name="afii57929" unicode="&#x2bc;" horiz-adv-x="373" d="M237 1365 L237 1226 Q237 1089 212 1023 Q187 957 123 925 L123 988 Q181 1029 181 1147 L181 1170 L129 1170 L129 1365 L237 1365 Z " />
<glyph glyph-name="uni037E" unicode="&#x37e;" horiz-adv-x="373" d="M237 195 L237 56 Q237 -81 212 -147 Q187 -213 123 -246 L123 -182 Q180 -140 180 -24 L180 0 L129 0 L129 195 L237 195 Z M237 934 L237 739 L129 739 L129 934 L237 934 Z " />
<glyph glyph-name="anoteleia" unicode="&#x387;" horiz-adv-x="369" d="M238 599 L238 404 L131 404 L131 599 L238 599 Z " />
<glyph glyph-name="afii10023" unicode="&#x401;" horiz-adv-x="1017" d="M147 0 L147 1365 L934 1365 L934 1294 L229 1294 L229 743 L891 743 L891 672 L229 672 L229 71 L941 71 L941 0 L147 0 Z M722 1677 L722 1488 L640 1488 L640 1677 L722 1677 Z M405 1677 L405 1488 L323 1488 L323 1677 L405 1677 Z " />
<glyph glyph-name="afii10051" unicode="&#x402;" horiz-adv-x="1112" d="M623 -76 Q659 -92 688 -92 Q780 -92 854 -5 Q905 55 935.5 166 Q966 277 966 399 Q966 599 915 737 Q880 831 805 877 Q756 906 690 906 Q556 906 485 791.5 Q414 677 414 461 L414 0 L332 0 L332 1294 L14 1294 L14 1365 L930 1365 L930 1294 L414 1294 L414 782 Q507 973 695 973 Q875 973 962 814 Q1044 666 1044 443 Q1044 171 947 -2 Q910 -66 842 -113 Q771 -162 692 -162 Q661 -162 623 -148 L623 -76 Z " />
<glyph glyph-name="afii10052" unicode="&#x403;" horiz-adv-x="925" d="M147 0 L147 1365 L886 1365 L886 1294 L229 1294 L229 0 L147 0 Z M702 1737 L505 1479 L423 1479 L600 1737 L702 1737 Z " />
<glyph glyph-name="afii10053" unicode="&#x404;" horiz-adv-x="1172" d="M171 743 L716 743 L716 672 L169 672 Q175 457 233 324 Q292 191 392 115 Q495 38 625 38 Q783 38 887 148.5 Q991 259 1016 454 L1100 454 Q1084 313 1021 201 Q961 94 866 34 Q760 -33 624 -33 Q430 -33 295 95 Q193 192 139.5 341 Q86 490 86 676 Q86 946 191 1130 Q267 1263 387 1333 Q499 1397 632 1397 Q812 1397 935 1290.5 Q1058 1184 1094 997 L1010 997 Q983 1116 919 1194 Q811 1326 629 1326 Q435 1326 311 1168 Q187 1010 171 743 Z " />
<glyph glyph-name="afii10054" unicode="&#x405;" horiz-adv-x="998" d="M68 383 L147 383 Q164 257 222 178 Q324 39 516 39 Q681 39 769 139 Q846 226 846 347 Q846 480 756 557 Q691 612 501 664 Q378 698 316.5 725.5 Q255 753 203 796 Q152 839 123 906 Q94 973 94 1048 Q94 1206 205 1306 Q306 1397 474 1397 Q643 1397 752 1299.5 Q861 1202 881 1032 L800 1032 Q781 1144 732 1208 Q690 1263 621 1294.5 Q552 1326 472 1326 Q326 1326 243 1233 Q173 1154 173 1049 Q173 992 196 939.5 Q219 887 257 853 Q336 785 526 734 Q663 697 735 662 Q807 627 850 575 Q930 479 930 350 Q930 179 807 66 Q700 -33 514 -33 Q324 -33 207 76 Q90 185 68 383 Z " />
<glyph glyph-name="afii10055" unicode="&#x406;" horiz-adv-x="377" d="M147 0 L147 1365 L229 1365 L229 0 L147 0 Z " />
<glyph glyph-name="afii10056" unicode="&#x407;" horiz-adv-x="416" d="M388 1677 L388 1488 L306 1488 L306 1677 L388 1677 Z M111 1677 L111 1488 L29 1488 L29 1677 L111 1677 Z M163 0 L163 1365 L245 1365 L245 0 L163 0 Z " />
<glyph glyph-name="afii10057" unicode="&#x408;" horiz-adv-x="586" d="M10 54 Q70 38 126 38 Q235 38 299 104 Q342 149 357.5 230.5 Q373 312 373 490 L373 1365 L455 1365 L455 472 Q455 322 442.5 244 Q430 166 396 106 Q316 -33 125 -33 Q70 -33 10 -18 L10 54 Z " />
<glyph glyph-name="afii10058" unicode="&#x409;" horiz-adv-x="1650" d="M823 1295 L822 1294 L420 1294 L310 353 Q292 197 263 140 Q189 -4 7 -6 L7 64 Q110 64 163.5 126 Q217 188 232 323 L348 1365 L905 1365 L905 765 L1149 765 Q1265 765 1341 747.5 Q1417 730 1477 689 Q1620 590 1620 381 Q1620 181 1493 86 Q1378 0 1146 0 L823 0 L823 1295 Z M905 71 L1121 71 Q1225 71 1287.5 82.5 Q1350 94 1404 123 Q1464 155 1497 215 Q1537 288 1537 379 Q1537 564 1401 644 Q1351 673 1299.5 683.5 Q1248 694 1153 694 L905 694 L905 71 Z " />
<glyph glyph-name="afii10059" unicode="&#x40a;" horiz-adv-x="1734" d="M903 760 L903 1365 L985 1365 L985 765 L1229 765 Q1345 765 1422 747 Q1499 729 1558 688 Q1700 589 1700 381 Q1700 181 1573 86 Q1458 0 1226 0 L903 0 L903 689 L229 689 L229 0 L147 0 L147 1365 L229 1365 L229 760 L903 760 Z M985 71 L1201 71 Q1305 71 1367.5 82.5 Q1430 94 1484 123 Q1544 155 1577 214 Q1617 288 1617 379 Q1617 564 1481 643 Q1431 673 1379 683.5 Q1327 694 1233 694 L985 694 L985 71 Z " />
<glyph glyph-name="afii10060" unicode="&#x40b;" horiz-adv-x="1135" d="M922 0 L922 508 Q922 624 913 688 Q904 752 881 798 Q857 845 806.5 873.5 Q756 902 696 902 Q597 902 521 833 Q462 781 438 699.5 Q414 618 414 472 L414 0 L332 0 L332 1294 L14 1294 L14 1365 L898 1365 L898 1294 L414 1294 L414 779 Q512 969 703 969 Q819 969 901 898 Q956 850 980 772 Q1004 694 1004 564 L1004 0 L922 0 Z " />
<glyph glyph-name="afii10061" unicode="&#x40c;" horiz-adv-x="1027" d="M152 1365 L234 1365 L234 760 L409 760 L887 1365 L978 1365 L476 726 L1025 0 L931 0 L408 689 L234 689 L234 0 L152 0 L152 1365 Z M751 1737 L554 1479 L472 1479 L649 1737 L751 1737 Z " />
<glyph glyph-name="afii10062" unicode="&#x40e;" horiz-adv-x="937" d="M483 444 L871 1365 L957 1365 L445 165 L438 146 Q402 53 351 10 Q300 -33 226 -33 Q190 -33 149 -20 L148 51 Q184 36 216 36 Q271 36 306 69.5 Q341 103 375 189 L441 352 L1 1365 L89 1365 L483 444 Z M715 1733 Q680 1474 483 1474 Q286 1474 251 1733 L315 1733 Q346 1549 483 1549 Q620 1549 651 1733 L715 1733 Z " />
<glyph glyph-name="afii10145" unicode="&#x40f;" horiz-adv-x="1207" d="M562 -2 L147 -2 L147 1365 L229 1365 L229 69 L977 69 L977 1365 L1059 1365 L1059 -2 L644 -2 L644 -205 L562 -205 L562 -2 Z " />
<glyph glyph-name="afii10017" unicode="&#x410;" horiz-adv-x="1044" d="M793 447 L252 447 L104 0 L20 0 L479 1365 L569 1365 L1023 0 L938 0 L793 447 Z M770 518 L524 1271 L275 518 L770 518 Z " />
<glyph glyph-name="afii10018" unicode="&#x411;" horiz-adv-x="1054" d="M229 1294 L229 765 L515 765 Q711 765 815 706 Q896 660 937 583 Q985 494 985 384 Q985 0 512 0 L147 0 L147 1365 L907 1365 L908 1294 L229 1294 Z M229 71 L492 71 Q594 71 655.5 82.5 Q717 94 770 122 Q830 155 862 214 Q902 289 902 381 Q902 514 830 595 Q784 648 708 671 Q632 694 504 694 L229 694 L229 71 Z " />
<glyph glyph-name="afii10019" unicode="&#x412;" horiz-adv-x="1094" d="M147 0 L147 1365 L516 1365 Q711 1365 810 1309 Q963 1223 963 1033 Q963 915 900 833.5 Q837 752 716 714 Q1007 650 1007 378 Q1007 160 843 66 Q726 0 534 0 L147 0 Z M229 745 L447 745 Q694 745 784 820 Q881 900 881 1033 Q881 1184 762 1250 Q684 1294 515 1294 L229 1294 L229 745 Z M229 71 L506 71 Q699 71 791 123 Q924 199 924 377 Q924 548 792 622 Q699 674 508 674 L229 674 L229 71 Z " />
<glyph glyph-name="afii10020" unicode="&#x413;" horiz-adv-x="925" d="M147 0 L147 1365 L886 1365 L886 1294 L229 1294 L229 0 L147 0 Z " />
<glyph glyph-name="afii10021" unicode="&#x414;" horiz-adv-x="1109" d="M332 1365 L958 1365 L958 71 L1081 71 L1081 -205 L999 -205 L999 0 L89 0 L89 -205 L7 -205 L7 71 L18 71 Q96 71 142 114 Q193 162 207 284 L332 1365 Z M194 71 L876 71 L876 1294 L405 1294 L293 323 Q280 211 258 155 Q236 99 194 71 Z " />
<glyph glyph-name="afii10022" unicode="&#x415;" horiz-adv-x="1017" d="M147 0 L147 1365 L934 1365 L934 1294 L229 1294 L229 743 L891 743 L891 672 L229 672 L229 71 L941 71 L941 0 L147 0 Z " />
<glyph glyph-name="afii10024" unicode="&#x416;" horiz-adv-x="1631" d="M1504 1365 L1600 1365 L1096 728 L1647 0 L1555 0 L1032 689 L856 689 L856 0 L774 0 L774 689 L598 689 L75 0 L-17 0 L533 728 L29 1365 L126 1365 L596 760 L774 760 L774 1365 L856 1365 L856 760 L1033 760 L1504 1365 Z " />
<glyph glyph-name="afii10025" unicode="&#x417;" horiz-adv-x="1080" d="M462 743 L546 743 Q697 743 780 791 Q921 872 921 1037 Q921 1170 828.5 1248 Q736 1326 577 1326 Q379 1326 269 1203 Q187 1112 167 997 L85 997 Q107 1153 216 1262 Q349 1397 579 1397 Q803 1397 917 1269 Q1004 1171 1004 1037 Q1004 909 934.5 824 Q865 739 739 712 Q844 684 899 635 Q1005 542 1005 372 Q1005 188 879 73 Q764 -33 565 -33 Q363 -33 234 90 Q97 220 72 451 L151 451 Q163 348 201 268 Q311 38 560 38 Q740 38 835 146 Q922 244 922 377 Q922 470 876 541.5 Q830 613 750 645 Q709 662 671 667 Q633 672 546 672 L462 672 L462 743 Z " />
<glyph glyph-name="afii10026" unicode="&#x418;" horiz-adv-x="1205" d="M147 1365 L229 1365 L229 289 L975 1201 L975 1365 L1057 1365 L1057 0 L975 0 L975 1080 L229 170 L229 0 L147 0 L147 1365 Z " />
<glyph glyph-name="afii10027" unicode="&#x419;" horiz-adv-x="1205" d="M147 1365 L229 1365 L229 289 L975 1201 L975 1365 L1057 1365 L1057 0 L975 0 L975 1080 L229 170 L229 0 L147 0 L147 1365 Z M837 1733 Q802 1474 605 1474 Q408 1474 373 1733 L437 1733 Q468 1549 605 1549 Q742 1549 773 1733 L837 1733 Z " />
<glyph glyph-name="afii10028" unicode="&#x41a;" horiz-adv-x="1027" d="M152 1365 L234 1365 L234 760 L409 760 L887 1365 L978 1365 L476 726 L1025 0 L931 0 L408 689 L234 689 L234 0 L152 0 L152 1365 Z " />
<glyph glyph-name="afii10029" unicode="&#x41b;" horiz-adv-x="1118" d="M971 1365 L971 0 L889 0 L889 1294 L420 1294 L310 353 Q292 198 262 140 Q189 -4 7 -6 L7 64 Q110 65 163.5 126.5 Q217 188 232 323 L348 1365 L971 1365 Z " />
<glyph glyph-name="afii10030" unicode="&#x41c;" horiz-adv-x="1396" d="M147 0 L147 1365 L256 1365 L701 108 L1137 1365 L1248 1365 L1248 0 L1166 0 L1166 1226 L742 0 L662 0 L229 1218 L229 0 L147 0 Z " />
<glyph glyph-name="afii10031" unicode="&#x41d;" horiz-adv-x="1207" d="M147 0 L147 1365 L229 1365 L229 751 L977 751 L977 1365 L1059 1365 L1059 0 L977 0 L977 680 L229 680 L229 0 L147 0 Z " />
<glyph glyph-name="afii10032" unicode="&#x41e;" horiz-adv-x="1260" d="M630 1396 Q824 1396 962 1264 Q1174 1062 1174 679 Q1174 416 1067 229 Q992 99 874 31 Q763 -33 628 -33 Q389 -33 245 153 Q86 358 86 693 Q86 950 188 1125 Q345 1396 630 1396 Z M630 1325 Q444 1325 319 1177 Q169 998 169 679 Q169 432 269 257 Q331 149 432 91 Q523 38 630 38 Q789 38 905 148 Q1091 324 1091 680 Q1091 932 993 1100 Q861 1325 630 1325 Z " />
<glyph glyph-name="afii10033" unicode="&#x41f;" horiz-adv-x="1205" d="M1057 1365 L1057 0 L975 0 L975 1294 L229 1294 L229 0 L147 0 L147 1365 L1057 1365 Z " />
<glyph glyph-name="afii10034" unicode="&#x420;" horiz-adv-x="1008" d="M147 0 L147 1365 L453 1365 Q561 1365 630 1352 Q699 1339 756 1307 Q835 1263 878 1185 Q926 1097 926 986 Q926 759 750 660 Q645 600 460 600 L229 600 L229 0 L147 0 Z M229 671 L433 671 Q612 671 707 723 Q767 755 800 815 Q843 892 843 986 Q843 1073 806.5 1143 Q770 1213 707 1248 Q657 1276 605.5 1285 Q554 1294 447 1294 L229 1294 L229 671 Z " />
<glyph glyph-name="afii10035" unicode="&#x421;" horiz-adv-x="1172" d="M1016 454 L1096 454 Q1076 275 989 150 Q862 -33 633 -33 Q339 -33 191 230 Q86 416 86 676 Q86 946 191 1130 Q342 1397 642 1397 Q819 1397 935 1293 Q1051 1189 1088 997 L1008 997 Q982 1114 920 1194 Q820 1326 638 1326 Q396 1326 266 1099 Q168 930 168 681 Q168 429 265 259 Q392 38 629 38 Q788 38 886 143 Q984 248 1016 454 Z " />
<glyph glyph-name="afii10036" unicode="&#x422;" horiz-adv-x="985" d="M534 0 L452 0 L452 1294 L35 1294 L35 1365 L951 1365 L951 1294 L534 1294 L534 0 Z " />
<glyph glyph-name="afii10037" unicode="&#x423;" horiz-adv-x="937" d="M483 444 L871 1365 L957 1365 L445 165 L438 146 Q402 53 351 10 Q300 -33 226 -33 Q190 -33 149 -20 L148 51 Q184 36 216 36 Q271 36 306 69.5 Q341 103 375 189 L441 352 L1 1365 L89 1365 L483 444 Z " />
<glyph glyph-name="afii10038" unicode="&#x424;" horiz-adv-x="1446" d="M764 1187 Q951 1183 1089 1124 Q1221 1067 1294 965 Q1378 846 1378 682 Q1378 452 1219 321 Q1060 190 764 179 L764 0 L682 0 L682 178 Q459 183 290 276 Q187 333 127 440 Q68 548 68 683 Q68 901 214 1034 Q376 1181 682 1187 L682 1365 L764 1365 L764 1187 Z M764 246 Q963 254 1112 337 Q1196 384 1245 471 Q1297 564 1297 681 Q1297 967 1030 1067 Q920 1108 764 1114 L764 246 Z M682 246 L682 1114 Q507 1111 380 1051 Q149 942 149 680 Q149 515 245 403 Q370 258 682 246 Z " />
<glyph glyph-name="afii10039" unicode="&#x425;" horiz-adv-x="961" d="M20 0 L435 703 L45 1365 L135 1365 L481 768 L833 1365 L921 1365 L529 701 L940 0 L849 0 L481 636 L108 0 L20 0 Z " />
<glyph glyph-name="afii10040" unicode="&#x426;" horiz-adv-x="1148" d="M1039 71 L1120 71 L1120 -205 L1039 -205 L1039 0 L147 0 L147 1365 L229 1365 L229 71 L957 71 L957 1365 L1039 1365 L1039 71 Z " />
<glyph glyph-name="afii10041" unicode="&#x427;" horiz-adv-x="1150" d="M1010 677 Q981 625 939 589 Q888 546 809 520.5 Q730 495 646 495 Q443 495 326 601 Q257 663 228 750.5 Q199 838 199 984 L199 1365 L281 1365 L281 988 Q281 887 292 828 Q303 769 332 717 Q367 656 427 621 Q524 566 646 566 Q851 566 945 699 Q1010 791 1010 997 L1010 1365 L1092 1365 L1092 0 L1010 0 L1010 677 Z " />
<glyph glyph-name="afii10042" unicode="&#x428;" horiz-adv-x="1641" d="M1493 0 L147 0 L147 1365 L229 1365 L229 71 L779 71 L779 1365 L861 1365 L861 71 L1411 71 L1411 1365 L1493 1365 L1493 0 Z " />
<glyph glyph-name="afii10043" unicode="&#x429;" horiz-adv-x="1582" d="M1473 71 L1555 71 L1555 -205 L1473 -205 L1473 0 L147 0 L147 1365 L229 1365 L229 71 L779 71 L779 1365 L861 1365 L861 71 L1391 71 L1391 1365 L1473 1365 L1473 71 Z " />
<glyph glyph-name="afii10044" unicode="&#x42a;" horiz-adv-x="1237" d="M455 1365 L455 765 L699 765 Q815 765 892 747 Q969 729 1028 688 Q1170 590 1170 381 Q1170 181 1043 86 Q928 0 696 0 L373 0 L373 1294 L14 1294 L14 1365 L455 1365 Z M455 71 L671 71 Q775 71 837.5 82.5 Q900 94 954 123 Q1014 155 1047 215 Q1087 288 1087 379 Q1087 564 951 644 Q901 673 849.5 683.5 Q798 694 703 694 L455 694 L455 71 Z " />
<glyph glyph-name="afii10045" unicode="&#x42b;" horiz-adv-x="1357" d="M1127 0 L1127 1365 L1209 1365 L1209 0 L1127 0 Z M229 1365 L229 765 L473 765 Q589 765 666 747 Q743 729 802 688 Q944 590 944 381 Q944 181 817 86 Q702 0 470 0 L147 0 L147 1365 L229 1365 Z M229 71 L445 71 Q549 71 611.5 82.5 Q674 94 728 123 Q788 155 821 215 Q861 288 861 379 Q861 564 725 644 Q675 673 623.5 683.5 Q572 694 477 694 L229 694 L229 71 Z " />
<glyph glyph-name="afii10046" unicode="&#x42c;" horiz-adv-x="1012" d="M229 1365 L229 765 L473 765 Q589 765 666 747 Q743 729 802 688 Q944 590 944 381 Q944 181 817 86 Q702 0 470 0 L147 0 L147 1365 L229 1365 Z M229 71 L445 71 Q549 71 611.5 82.5 Q674 94 728 123 Q788 155 821 215 Q861 288 861 379 Q861 564 725 644 Q675 673 623.5 683.5 Q572 694 477 694 L229 694 L229 71 Z " />
<glyph glyph-name="afii10047" unicode="&#x42d;" horiz-adv-x="1172" d="M1001 743 Q991 906 933 1041 Q810 1323 544 1323 Q400 1323 297 1237 Q248 1196 211 1130.5 Q174 1065 161 997 L78 997 Q88 1078 129 1155 Q189 1266 294 1330 Q404 1397 544 1397 Q718 1397 846 1298 Q967 1205 1033 1005 Q1086 846 1086 665 Q1086 419 981 228 Q837 -33 554 -33 Q265 -33 136 228 Q85 333 75 454 L156 454 Q176 290 254 186 Q365 38 547 38 Q749 38 876.5 214.5 Q1004 391 1004 672 L456 672 L456 743 L1001 743 Z " />
<glyph glyph-name="afii10048" unicode="&#x42e;" horiz-adv-x="1746" d="M572 686 L229 686 L229 0 L147 0 L147 1365 L229 1365 L229 757 L574 757 Q586 946 654 1085 Q724 1228 839 1309 Q965 1396 1121 1396 Q1403 1396 1556 1129 Q1659 947 1659 683 Q1659 415 1552 229 Q1477 98 1359 31 Q1249 -33 1114 -33 Q870 -33 721 164.5 Q572 362 572 686 Z M1123 1315 Q882 1315 749 1088 Q654 927 654 679 Q654 432 754 257 Q816 149 917 91 Q1008 38 1116 38 Q1274 38 1391 148 Q1577 324 1577 680 Q1577 928 1480 1094 Q1350 1315 1123 1315 Z " />
<glyph glyph-name="afii10049" unicode="&#x42f;" horiz-adv-x="1091" d="M943 0 L861 0 L861 628 L605 628 Q428 628 355 589 Q305 562 286 528 Q242 447 238 287 Q234 165 224 103.5 Q214 42 191 0 L102 0 Q145 70 153 289 Q160 477 205 558 Q250 639 361 664 Q285 684 240 718 Q187 760 157 828 Q119 914 119 1011 Q119 1365 541 1365 L943 1365 L943 0 Z M861 699 L861 1294 L543 1294 Q402 1294 324 1252 Q201 1186 201 1006 Q201 916 236.5 844 Q272 772 331 740 Q409 699 563 699 L861 699 Z " />
<glyph glyph-name="afii10065" unicode="&#x430;" horiz-adv-x="881" d="M837 68 L837 5 Q798 -10 761 -10 Q656 -10 656 134 Q656 151 657 191 Q635 131 591 81 Q494 -29 346 -29 Q223 -29 150 54 Q83 129 83 240 Q83 428 267 504 Q360 542 648 551 L648 639 Q648 764 619 814 Q566 904 416 904 Q218 904 198 757 L121 757 Q127 838 176 889 Q255 971 416 971 Q635 971 700 822 Q725 766 726 657 L727 583 L727 193 Q727 105 736.5 81 Q746 57 782 57 Q803 57 837 68 Z M648 487 Q378 475 293 435 Q162 372 162 240 Q162 153 217.5 95.5 Q273 38 357 38 Q480 38 564 140.5 Q648 243 648 392 L648 487 Z " />
<glyph glyph-name="afii10066" unicode="&#x431;" horiz-adv-x="950" d="M672 1458 L742 1458 Q742 1370 728 1338 Q708 1288 674 1266.5 Q640 1245 549 1224 Q312 1170 238 1004 Q199 917 178 795 Q209 854 254 891 Q350 971 481 971 Q689 971 795 787 Q870 657 870 471 Q870 285 795 156 Q689 -29 475 -29 Q259 -29 153 158 Q78 289 78 497 Q78 649 106.5 801.5 Q135 954 179 1041 Q276 1231 520 1286 Q592 1302 615 1312 Q638 1322 655 1344 Q671 1366 672 1458 Z M475 904 Q338 904 255 799 Q158 676 158 466 Q158 302 222 189 Q308 38 475 38 Q641 38 727 189 Q791 302 791 472 Q791 640 727 750 Q637 904 475 904 Z " />
<glyph glyph-name="afii10067" unicode="&#x432;" horiz-adv-x="784" d="M137 942 L369 942 Q517 942 590 901 Q695 842 695 711 Q695 557 525 498 Q617 474 662 431 Q729 367 729 267 Q729 123 603 49 Q555 20 502 10 Q449 0 349 0 L137 0 L137 942 Z M216 875 L216 528 L349 528 Q616 528 616 710 Q616 796 556.5 835.5 Q497 875 369 875 L216 875 Z M216 461 L216 67 L349 67 Q491 67 553 102 Q650 157 650 271 Q650 376 564 425 Q527 447 484.5 454 Q442 461 349 461 L216 461 Z " />
<glyph glyph-name="afii10068" unicode="&#x433;" horiz-adv-x="714" d="M694 875 L216 875 L216 0 L137 0 L137 942 L694 942 L694 875 Z " />
<glyph glyph-name="afii10069" unicode="&#x434;" horiz-adv-x="889" d="M251 942 L768 942 L768 67 L862 67 L862 -205 L783 -205 L783 -1 L79 -1 L79 -205 L0 -205 L0 67 L27 67 Q152 67 172 239 L251 942 Z M171 67 L689 67 L689 875 L322 875 L242 223 Q229 118 171 67 Z " />
<glyph glyph-name="afii10070" unicode="&#x435;" horiz-adv-x="908" d="M828 469 L157 469 Q156 380 180 294 Q249 38 485 38 Q572 38 643.5 74 Q715 110 739 165 L814 165 Q789 91 727 46 Q624 -29 483 -29 Q260 -29 156 153 Q80 285 80 475 Q80 655 150 779 Q258 971 465 971 Q635 971 731.5 837.5 Q828 704 828 469 Z M750 535 Q750 605 723 692 Q693 790 629 845 Q559 905 460 905 Q335 905 253 804 Q171 703 159 535 L750 535 Z " />
<glyph glyph-name="afii10072" unicode="&#x436;" horiz-adv-x="1172" d="M626 0 L547 0 L547 461 L442 461 L91 0 L7 0 L381 498 L32 942 L118 942 L441 528 L547 528 L547 942 L626 942 L626 528 L731 528 L1056 943 L1143 943 L792 498 L1163 0 L1080 0 L730 461 L626 461 L626 0 Z " />
<glyph glyph-name="afii10073" unicode="&#x437;" horiz-adv-x="828" d="M338 528 L442 528 Q571 528 629 594 Q673 644 673 717 Q673 818 585 869 Q522 904 436 904 Q319 904 252.5 850 Q186 796 158 679 L78 679 Q100 787 155 853 Q255 971 435 971 Q607 971 688 880 Q750 811 750 715 Q750 554 578 497 Q766 446 766 260 Q766 130 676 49 Q590 -29 429 -29 Q278 -29 181.5 60 Q85 149 71 302 L148 302 Q165 200 216 136 Q291 40 431 40 Q564 40 632 116 Q689 180 689 266 Q689 352 631 405 Q571 461 442 461 L338 461 L338 528 Z " />
<glyph glyph-name="afii10074" unicode="&#x438;" horiz-adv-x="957" d="M741 942 L820 942 L820 0 L741 0 L741 722 L216 110 L216 0 L137 0 L137 942 L216 942 L216 217 L741 826 L741 942 Z " />
<glyph glyph-name="afii10075" unicode="&#x439;" horiz-adv-x="957" d="M741 942 L820 942 L820 0 L741 0 L741 722 L216 110 L216 0 L137 0 L137 942 L216 942 L216 217 L741 826 L741 942 Z M711 1356 Q677 1093 484 1093 Q292 1093 258 1356 L320 1356 Q351 1168 484 1168 Q618 1168 648 1356 L711 1356 Z " />
<glyph glyph-name="afii10076" unicode="&#x43a;" horiz-adv-x="838" d="M139 0 L139 942 L218 942 L218 528 L373 528 L704 943 L792 943 L439 498 L810 0 L723 0 L372 461 L218 461 L218 0 L139 0 Z " />
<glyph glyph-name="afii10077" unicode="&#x43b;" horiz-adv-x="902" d="M326 875 L248 251 Q228 96 155 37 Q99 -9 6 -9 L6 58 Q152 57 175 265 L254 942 L765 942 L765 0 L686 0 L686 875 L326 875 Z " />
<glyph glyph-name="afii10078" unicode="&#x43c;" horiz-adv-x="1143" d="M565 97 L890 942 L1006 942 L1006 0 L927 0 L927 832 L602 0 L526 0 L216 834 L216 0 L137 0 L137 942 L256 942 L565 97 Z " />
<glyph glyph-name="afii10079" unicode="&#x43d;" horiz-adv-x="957" d="M216 461 L216 0 L137 0 L137 942 L216 942 L216 528 L741 528 L741 942 L820 942 L820 0 L741 0 L741 461 L216 461 Z " />
<glyph glyph-name="afii10080" unicode="&#x43e;" horiz-adv-x="950" d="M475 971 Q688 971 796 785 Q870 657 870 471 Q870 286 796 156 Q690 -29 473 -29 Q304 -29 198 92 Q143 155 111.5 257.5 Q80 360 80 475 Q80 658 154 785 Q263 971 475 971 Z M475 904 Q339 904 256 799 Q159 676 159 466 Q159 301 223 189 Q309 38 475 38 Q641 38 727 189 Q791 302 791 472 Q791 640 727 750 Q638 904 475 904 Z " />
<glyph glyph-name="afii10081" unicode="&#x43f;" horiz-adv-x="957" d="M216 875 L216 0 L137 0 L137 942 L820 942 L820 0 L741 0 L741 875 L216 875 Z " />
<glyph glyph-name="afii10082" unicode="&#x440;" horiz-adv-x="954" d="M137 943 L216 943 L216 746 Q241 826 289 877 Q377 972 511 972 Q702 972 802 795 Q875 667 875 470 Q875 276 805 152 Q755 64 673 17 Q597 -27 505 -27 Q404 -27 326.5 28.5 Q249 84 216 179 L216 -399 L137 -399 L137 943 Z M510 905 Q385 905 309 808 Q214 687 214 460 Q214 351 246.5 253.5 Q279 156 332 108 Q406 40 505 40 Q652 40 729 175 Q796 291 796 474 Q796 654 730 767 Q650 905 510 905 Z " />
<glyph glyph-name="afii10083" unicode="&#x441;" horiz-adv-x="863" d="M720 302 L793 302 Q782 192 725 109 Q628 -29 456 -29 Q256 -29 156 146 Q80 278 80 471 Q80 661 155 791 Q259 971 465 971 Q625 971 717 852 Q771 783 787 679 L713 679 Q670 904 468 904 Q308 904 224 757 Q159 642 159 471 Q159 294 225 178 Q305 38 458 38 Q564 38 635 110 Q706 182 720 302 Z " />
<glyph glyph-name="afii10084" unicode="&#x442;" horiz-adv-x="645" d="M362 875 L362 0 L283 0 L283 875 L7 875 L7 942 L638 942 L638 875 L362 875 Z " />
<glyph glyph-name="afii10085" unicode="&#x443;" horiz-adv-x="739" d="M76 -341 L77 -278 Q133 -294 167 -294 Q214 -294 243 -258.5 Q272 -223 301 -129 L342 2 L12 942 L96 942 L380 112 L647 942 L726 942 L373 -134 Q329 -266 291 -307 Q246 -356 176 -356 Q145 -356 76 -341 Z " />
<glyph glyph-name="afii10086" unicode="&#x444;" horiz-adv-x="1266" d="M673 784 Q699 869 759.5 920 Q820 971 895 971 Q988 971 1061 902 Q1192 776 1192 471 Q1192 249 1116 112 Q1079 46 1020.5 8.5 Q962 -29 898 -29 Q747 -29 673 155 L673 -355 L594 -355 L594 171 Q568 77 508.5 24 Q449 -29 369 -29 Q278 -29 206 40 Q75 165 75 470 Q75 693 151 828 Q188 895 246.5 933 Q305 971 371 971 Q450 971 507.5 921.5 Q565 872 594 779 L594 1365 L673 1365 L673 784 Z M374 904 Q327 904 285.5 876 Q244 848 218 799 Q154 680 154 477 Q154 263 222 142 Q280 38 374 38 Q420 38 462.5 65.5 Q505 93 532 141 Q597 255 597 471 Q597 590 583 666 Q569 742 536 800 Q478 904 374 904 Z M893 904 Q792 904 731 795 Q698 737 684.5 664.5 Q671 592 671 474 Q671 256 736 143 Q764 94 807 66 Q850 38 897 38 Q987 38 1045 140 Q1113 258 1113 477 Q1113 684 1049 800 Q992 904 893 904 Z " />
<glyph glyph-name="afii10087" unicode="&#x445;" horiz-adv-x="750" d="M8 0 L327 496 L34 942 L128 942 L372 562 L621 942 L712 942 L419 501 L742 0 L649 0 L373 435 L99 0 L8 0 Z " />
<glyph glyph-name="afii10088" unicode="&#x446;" horiz-adv-x="909" d="M803 67 L881 67 L881 -205 L803 -205 L803 0 L137 0 L137 942 L216 942 L216 67 L724 67 L724 942 L803 942 L803 67 Z " />
<glyph glyph-name="afii10089" unicode="&#x447;" horiz-adv-x="970" d="M753 484 Q657 351 458 351 Q290 351 199.5 438 Q109 525 109 686 L109 942 L188 942 L188 700 Q188 555 247 492 Q316 418 453 418 Q540 418 609 452 Q678 486 713 547 Q753 617 753 757 L753 942 L832 942 L832 0 L753 0 L753 484 Z " />
<glyph glyph-name="afii10090" unicode="&#x448;" horiz-adv-x="1309" d="M694 67 L1092 67 L1092 942 L1171 942 L1171 0 L137 0 L137 942 L216 942 L216 67 L615 67 L615 942 L694 942 L694 67 Z " />
<glyph glyph-name="afii10091" unicode="&#x449;" horiz-adv-x="1260" d="M1154 0 L137 0 L137 942 L216 942 L216 67 L615 67 L615 942 L694 942 L694 67 L1075 67 L1075 942 L1154 942 L1154 67 L1233 67 L1233 -205 L1154 -205 L1154 0 Z " />
<glyph glyph-name="afii10092" unicode="&#x44a;" horiz-adv-x="921" d="M0 942 L368 942 L368 547 L551 547 Q698 547 779 494 Q887 423 887 282 Q887 194 842.5 126.5 Q798 59 720 27 Q654 0 517 0 L289 0 L289 875 L0 875 L0 942 Z M368 480 L368 67 L515 67 Q651 67 711 101 Q808 156 808 280 Q808 384 742 432 Q676 480 534 480 L368 480 Z " />
<glyph glyph-name="afii10093" unicode="&#x44b;" horiz-adv-x="1120" d="M904 0 L904 942 L983 942 L983 0 L904 0 Z M216 942 L216 547 L399 547 Q546 547 626 494 Q735 423 735 281 Q735 194 690.5 126.5 Q646 59 568 27 Q502 0 365 0 L137 0 L137 942 L216 942 Z M216 480 L216 67 L363 67 Q499 67 559 101 Q656 156 656 280 Q656 384 590 432 Q524 480 382 480 L216 480 Z " />
<glyph glyph-name="afii10094" unicode="&#x44c;" horiz-adv-x="769" d="M216 942 L216 547 L399 547 Q546 547 626 494 Q735 423 735 281 Q735 194 690.5 126.5 Q646 59 568 27 Q502 0 365 0 L137 0 L137 942 L216 942 Z M216 480 L216 67 L363 67 Q499 67 559 101 Q656 156 656 280 Q656 384 590 432 Q524 480 382 480 L216 480 Z " />
<glyph glyph-name="afii10095" unicode="&#x44d;" horiz-adv-x="879" d="M714 528 Q704 674 635 783 Q558 904 415 904 Q318 904 251.5 844.5 Q185 785 162 679 L80 679 Q101 782 158 851 Q255 971 413 971 Q622 971 726 782 Q799 649 799 469 Q799 282 724 150 Q621 -29 415 -29 Q274 -29 179.5 62 Q85 153 71 302 L151 302 Q168 203 218 137 Q294 38 419 38 Q571 38 646 172 Q718 301 718 443 Q718 445 717 461 L339 461 L339 528 L714 528 Z " />
<glyph glyph-name="afii10096" unicode="&#x44e;" horiz-adv-x="1339" d="M216 528 L470 528 L471 527 Q484 686 556 805 Q603 883 686 927 Q767 971 864 971 Q1078 971 1185 785 Q1259 656 1259 471 Q1259 285 1185 156 Q1079 -29 864 -29 Q684 -29 581.5 98.5 Q479 226 469 461 L216 461 L216 0 L137 0 L137 942 L216 942 L216 528 Z M864 904 Q728 904 645 799 Q548 676 548 465 Q548 302 612 189 Q698 38 864 38 Q1031 38 1116 189 Q1180 302 1180 472 Q1180 640 1116 750 Q1027 904 864 904 Z " />
<glyph glyph-name="afii10097" unicode="&#x44f;" horiz-adv-x="826" d="M300 429 Q102 470 102 667 Q102 826 227 897 Q306 942 472 942 L689 942 L689 0 L610 0 L610 395 L454 395 Q314 395 257.5 347.5 Q201 300 200 179 Q199 51 166 0 L89 0 Q119 49 123 181 Q126 300 166.5 357 Q207 414 300 429 Z M610 462 L610 875 L479 875 Q336 875 272 839 Q181 787 181 671 Q181 563 249.5 512.5 Q318 462 463 462 L610 462 Z " />
<glyph glyph-name="afii10071" unicode="&#x451;" horiz-adv-x="908" d="M648 1292 L648 1103 L569 1103 L569 1292 L648 1292 Z M339 1292 L339 1103 L260 1103 L260 1292 L339 1292 Z M828 469 L157 469 Q156 380 180 294 Q249 38 485 38 Q572 38 643.5 74 Q715 110 739 165 L814 165 Q789 91 727 46 Q624 -29 483 -29 Q260 -29 156 153 Q80 285 80 475 Q80 655 150 779 Q258 971 465 971 Q635 971 731.5 837.5 Q828 704 828 469 Z M750 535 Q750 605 723 692 Q693 790 629 845 Q559 905 460 905 Q335 905 253 804 Q171 703 159 535 L750 535 Z " />
<glyph glyph-name="afii10099" unicode="&#x452;" horiz-adv-x="893" d="M233 -2 L154 -2 L154 1158 L28 1158 L28 1225 L154 1225 L154 1365 L233 1365 L233 1225 L492 1225 L492 1158 L233 1158 L233 781 Q321 968 495 968 Q603 968 681 895 Q819 767 819 439 Q819 193 721 -1 Q683 -76 618.5 -118 Q554 -160 476 -160 Q442 -160 398 -149 L398 -83 Q433 -93 462 -93 Q587 -93 654 33 Q740 194 740 448 Q740 653 683 773 Q622 901 495 901 Q409 901 343 838 Q233 731 233 452 L233 -2 Z " />
<glyph glyph-name="afii10100" unicode="&#x453;" horiz-adv-x="714" d="M694 875 L216 875 L216 0 L137 0 L137 942 L694 942 L694 875 Z M603 1359 L414 1096 L332 1096 L504 1359 L603 1359 Z " />
<glyph glyph-name="afii10101" unicode="&#x454;" horiz-adv-x="879" d="M155 528 L531 528 L531 461 L153 461 Q152 446 152 443 Q152 300 224 172 Q299 38 451 38 Q556 38 627 108 Q698 178 719 302 L799 302 Q789 193 731 111 Q632 -29 455 -29 Q249 -29 146 150 Q71 282 71 469 Q71 649 144 782 Q248 971 457 971 Q584 971 672.5 893.5 Q761 816 790 679 L708 679 Q685 785 618.5 844.5 Q552 904 455 904 Q312 904 235 783 Q165 674 155 528 Z " />
<glyph glyph-name="afii10102" unicode="&#x455;" horiz-adv-x="753" d="M68 265 L145 265 Q157 181 197 128 Q266 38 388 38 Q494 38 554 106 Q606 165 606 244 Q606 334 544 381 Q510 406 479 418 Q448 430 337 462 Q221 494 168 539 Q89 606 89 717 Q89 830 171 903 Q246 971 363 971 Q485 971 562.5 902 Q640 833 655 713 L577 713 Q564 787 534 827 Q475 905 367 905 Q271 905 211 840 Q165 789 165 719 Q165 638 219 596 Q252 569 284 556 Q316 543 442 505 Q554 472 604 429 Q685 360 685 244 Q685 120 599 43 Q521 -29 386 -29 Q250 -29 167 47.5 Q84 124 68 265 Z " />
<glyph glyph-name="afii10103" unicode="&#x456;" horiz-adv-x="361" d="M141 1174 L141 1365 L220 1365 L220 1174 L141 1174 Z M141 0 L141 942 L220 942 L220 0 L141 0 Z " />
<glyph glyph-name="afii10104" unicode="&#x457;" horiz-adv-x="381" d="M154 0 L154 942 L233 942 L233 0 L154 0 Z M363 1296 L363 1107 L284 1107 L284 1296 L363 1296 Z M96 1296 L96 1107 L17 1107 L17 1296 L96 1296 Z " />
<glyph glyph-name="afii10105" unicode="&#x458;" horiz-adv-x="392" d="M-8 -277 Q21 -286 48 -286 Q138 -286 160 -212 Q170 -177 171 -47 L171 942 L250 942 L250 -45 Q250 -213 216 -274 Q169 -355 50 -355 Q22 -355 -8 -346 L-8 -277 Z M171 1174 L171 1365 L250 1365 L250 1174 L171 1174 Z " />
<glyph glyph-name="afii10106" unicode="&#x459;" horiz-adv-x="1235" d="M0 58 Q76 58 116 107 Q156 156 169 265 L248 942 L718 942 L718 547 L892 547 Q1030 547 1107 502 Q1228 432 1228 281 Q1228 194 1183.5 126.5 Q1139 59 1061 27 Q994 0 858 0 L639 0 L639 875 L320 875 L242 251 Q222 97 149 37 Q92 -9 0 -9 L0 58 Z M718 480 L718 67 L856 67 Q992 67 1052 101 Q1149 156 1149 282 Q1149 385 1083 432.5 Q1017 480 874 480 L718 480 Z " />
<glyph glyph-name="afii10107" unicode="&#x45a;" horiz-adv-x="1279" d="M684 942 L763 942 L763 544 L936 544 Q1076 544 1153 499 Q1273 429 1273 280 Q1273 193 1228.5 126 Q1184 59 1106 27 Q1040 0 903 0 L684 0 L684 476 L216 476 L216 0 L137 0 L137 942 L216 942 L216 543 L684 543 L684 942 Z M763 477 L763 67 L900 67 Q1037 67 1098 101 Q1195 156 1195 279 Q1195 383 1129.5 430 Q1064 477 919 477 L763 477 Z " />
<glyph glyph-name="afii10108" unicode="&#x45b;" horiz-adv-x="951" d="M154 1158 L28 1158 L28 1225 L154 1225 L154 1365 L233 1365 L233 1225 L492 1225 L492 1158 L233 1158 L233 781 Q330 968 520 968 Q600 968 666 932.5 Q732 897 767 835 Q820 743 820 570 L820 0 L741 0 L741 564 Q741 702 714 768 Q689 827 633 864 Q577 901 510 901 Q416 901 339 832 Q281 780 257 700.5 Q233 621 233 479 L233 0 L154 0 L154 1158 Z " />
<glyph glyph-name="afii10109" unicode="&#x45c;" horiz-adv-x="838" d="M139 0 L139 942 L218 942 L218 528 L373 528 L704 943 L792 943 L439 498 L810 0 L723 0 L372 461 L218 461 L218 0 L139 0 Z M658 1359 L469 1096 L387 1096 L559 1359 L658 1359 Z " />
<glyph glyph-name="afii10110" unicode="&#x45e;" horiz-adv-x="739" d="M76 -341 L77 -278 Q133 -294 167 -294 Q214 -294 243 -258.5 Q272 -223 301 -129 L342 2 L12 942 L96 942 L380 112 L647 942 L726 942 L373 -134 Q329 -266 291 -307 Q246 -356 176 -356 Q145 -356 76 -341 Z M612 1356 Q578 1093 385 1093 Q193 1093 159 1356 L221 1356 Q252 1168 385 1168 Q519 1168 549 1356 L612 1356 Z " />
<glyph glyph-name="afii10193" unicode="&#x45f;" horiz-adv-x="957" d="M518 -2 L518 -205 L439 -205 L439 -2 L137 -2 L137 942 L216 942 L216 65 L741 65 L741 942 L820 942 L820 -2 L518 -2 Z " />
<glyph glyph-name="afii10050" unicode="&#x490;" horiz-adv-x="925" d="M803 1365 L803 1505 L885 1505 L885 1294 L229 1294 L229 0 L147 0 L147 1365 L803 1365 Z " />
<glyph glyph-name="afii10098" unicode="&#x491;" horiz-adv-x="714" d="M694 1055 L694 873 L216 873 L216 0 L137 0 L137 940 L615 940 L615 1055 L694 1055 Z " />
<glyph glyph-name="uni04C0" unicode="&#x4c0;" horiz-adv-x="377" d="M147 0 L147 1365 L229 1365 L229 0 L147 0 Z " />
<glyph glyph-name="Wgrave" unicode="&#x1e80;" horiz-adv-x="1466" d="M339 0 L25 1365 L108 1365 L388 112 L683 1365 L782 1365 L1079 113 L1363 1365 L1442 1365 L1126 0 L1033 0 L732 1252 L433 0 L339 0 Z M506 1737 L608 1737 L785 1479 L703 1479 L506 1737 Z " />
<glyph glyph-name="wgrave" unicode="&#x1e81;" horiz-adv-x="1178" d="M288 0 L20 942 L103 942 L333 103 L543 942 L635 942 L849 107 L1077 942 L1157 942 L891 0 L801 0 L589 825 L379 0 L288 0 Z M360 1359 L459 1359 L631 1096 L549 1096 L360 1359 Z " />
<glyph glyph-name="Wacute" unicode="&#x1e82;" horiz-adv-x="1466" d="M339 0 L25 1365 L108 1365 L388 112 L683 1365 L782 1365 L1079 113 L1363 1365 L1442 1365 L1126 0 L1033 0 L732 1252 L433 0 L339 0 Z M962 1737 L765 1479 L683 1479 L860 1737 L962 1737 Z " />
<glyph glyph-name="wacute" unicode="&#x1e83;" horiz-adv-x="1178" d="M288 0 L20 942 L103 942 L333 103 L543 942 L635 942 L849 107 L1077 942 L1157 942 L891 0 L801 0 L589 825 L379 0 L288 0 Z M816 1359 L627 1096 L545 1096 L717 1359 L816 1359 Z " />
<glyph glyph-name="Wdieresis" unicode="&#x1e84;" horiz-adv-x="1466" d="M339 0 L25 1365 L108 1365 L388 112 L683 1365 L782 1365 L1079 113 L1363 1365 L1442 1365 L1126 0 L1033 0 L732 1252 L433 0 L339 0 Z M936 1677 L936 1488 L847 1488 L847 1677 L936 1677 Z M619 1677 L619 1488 L530 1488 L530 1677 L619 1677 Z " />
<glyph glyph-name="wdieresis" unicode="&#x1e85;" horiz-adv-x="1178" d="M288 0 L20 942 L103 942 L333 103 L543 942 L635 942 L849 107 L1077 942 L1157 942 L891 0 L801 0 L589 825 L379 0 L288 0 Z M789 1292 L789 1103 L710 1103 L710 1292 L789 1292 Z M480 1292 L480 1103 L401 1103 L401 1292 L480 1292 Z " />
<glyph glyph-name="uni1E9E" unicode="&#x1e9e;" horiz-adv-x="1109" d="M573 757 Q602 758 613 758 Q709 758 794.5 728 Q880 698 937 644 Q1041 545 1041 378 Q1041 234 962 140 Q843 -1 610 -1 Q453 -1 354 50 L398 109 Q498 70 608 70 Q771 70 864.5 152.5 Q958 235 958 378 Q958 539 854 614 Q797 654 732 669.5 Q667 685 549 685 L459 685 L459 733 L838 1294 L567 1294 Q473 1294 414 1275.5 Q355 1257 305 1212 Q213 1128 213 997 L213 0 L131 0 L131 997 Q131 1126 201 1215 Q318 1365 527 1365 L939 1365 L939 1318 L573 757 Z " />
<glyph glyph-name="Ygrave" unicode="&#x1ef2;" horiz-adv-x="933" d="M425 0 L425 606 L-2 1365 L90 1365 L468 682 L844 1365 L935 1365 L507 602 L507 0 L425 0 Z M265 1737 L367 1737 L544 1479 L462 1479 L265 1737 Z " />
<glyph glyph-name="ygrave" unicode="&#x1ef3;" horiz-adv-x="740" d="M727 942 L368 -134 Q330 -250 278 -290.5 Q226 -331 118 -331 Q96 -331 77 -325 L77 -256 Q103 -261 131 -261 Q201 -261 237.5 -231.5 Q274 -202 298 -125 L341 11 L12 942 L94 942 L380 116 L647 942 L727 942 Z M165 1359 L264 1359 L436 1096 L354 1096 L165 1359 Z " />
<glyph glyph-name="uni2000" unicode="&#x2000;" horiz-adv-x="1331" d="" />
<glyph glyph-name="uni2001" unicode="&#x2001;" horiz-adv-x="2662" d="" />
<glyph glyph-name="uni2002" unicode="&#x2002;" horiz-adv-x="1331" d="" />
<glyph glyph-name="uni2003" unicode="&#x2003;" horiz-adv-x="2662" d="" />
<glyph glyph-name="uni2004" unicode="&#x2004;" horiz-adv-x="888" d="" />
<glyph glyph-name="uni2005" unicode="&#x2005;" horiz-adv-x="666" d="" />
<glyph glyph-name="uni2006" unicode="&#x2006;" horiz-adv-x="443" d="" />
<glyph glyph-name="uni2007" unicode="&#x2007;" horiz-adv-x="1467" d="" />
<glyph glyph-name="uni2008" unicode="&#x2008;" horiz-adv-x="714" d="" />
<glyph glyph-name="uni2009" unicode="&#x2009;" horiz-adv-x="533" d="" />
<glyph glyph-name="uni200A" unicode="&#x200a;" horiz-adv-x="266" d="" />
<glyph glyph-name="uni200B" unicode="&#x200b;" d="" />
<glyph glyph-name="uni2010" unicode="&#x2010;" horiz-adv-x="403" d="M395 560 L395 493 L8 493 L8 560 L395 560 Z " />
<glyph glyph-name="uni2011" unicode="&#x2011;" horiz-adv-x="403" d="M395 560 L395 493 L8 493 L8 560 L395 560 Z " />
<glyph glyph-name="figuredash" unicode="&#x2012;" horiz-adv-x="966" d="M845 560 L845 493 L120 493 L120 560 L845 560 Z " />
<glyph glyph-name="afii00208" unicode="&#x2015;" horiz-adv-x="1429" d="M1293 560 L1293 493 L141 493 L141 560 L1293 560 Z " />
<glyph glyph-name="quotereversed" unicode="&#x201b;" horiz-adv-x="512" d="" />
<glyph glyph-name="uni203E" unicode="&#x203e;" horiz-adv-x="1024" d="M68 1580 L955 1580 L955 1509 L68 1509 L68 1580 Z " />
<glyph glyph-name="zerosuperior" unicode="&#x2070;" horiz-adv-x="618" d="M310 1381 Q550 1381 550 946 Q550 748 490 644 Q425 531 309 531 Q191 531 128 642 Q68 747 68 942 Q68 1158 123 1260 Q188 1381 310 1381 Z M307 1318 Q223 1318 180 1223 Q137 1128 137 944 Q137 593 311 593 Q481 593 481 957 Q481 1318 307 1318 Z " />
<glyph glyph-name="foursuperior" unicode="&#x2074;" horiz-adv-x="540" d="M328 548 L328 769 L23 769 L23 837 L337 1365 L407 1365 L407 836 L506 836 L506 769 L407 769 L407 548 L328 548 Z M328 836 L328 1236 L90 836 L328 836 Z " />
<glyph glyph-name="fivesuperior" unicode="&#x2075;" horiz-adv-x="574" d="M135 1365 L473 1365 L473 1298 L191 1298 L149 1044 Q211 1091 283 1091 Q382 1091 444 1015 Q506 939 506 817 Q506 750 480.5 687 Q455 624 411 583 Q352 527 262 527 Q162 527 106 588 Q50 649 48 758 L113 758 Q121 589 263 589 Q337 589 382 642 Q437 706 437 817 Q437 933 378 989 Q336 1028 276 1028 Q180 1028 129 931 L70 943 L135 1365 Z " />
<glyph glyph-name="sixsuperior" unicode="&#x2076;" horiz-adv-x="604" d="M510 1177 L442 1177 L442 1182 Q422 1318 312 1318 Q220 1318 176 1210 Q145 1134 135 985 Q205 1084 310 1084 Q407 1084 470 1012 Q535 938 535 812 Q535 743 512 682 Q489 621 450 586 Q390 531 307 531 Q191 531 129.5 630 Q68 729 68 916 Q68 1164 136 1275 Q201 1381 309 1381 Q483 1381 510 1177 Z M305 1022 Q238 1022 193 970 Q144 913 144 810 Q144 716 190.5 654.5 Q237 593 308 593 Q373 593 415 642 Q466 701 466 812 Q466 929 405 984 Q364 1022 305 1022 Z " />
<glyph glyph-name="sevensuperior" unicode="&#x2077;" horiz-adv-x="527" d="M224 548 L155 548 Q157 970 407 1298 L41 1298 L41 1365 L486 1365 L486 1306 Q230 990 224 566 L224 548 Z " />
<glyph glyph-name="eightsuperior" unicode="&#x2078;" horiz-adv-x="612" d="M194 999 Q94 1055 94 1174 Q94 1269 160 1330 Q214 1381 306 1381 Q409 1381 468 1315 Q517 1260 517 1181 Q517 1059 417 999 Q543 928 543 779 Q543 668 478 599.5 Q413 531 308 531 Q194 531 130 604 Q68 674 68 777 Q68 929 194 999 Z M313 1319 Q245 1319 203 1278 Q161 1237 161 1172 Q161 1106 200.5 1066.5 Q240 1027 306 1027 Q378 1027 415 1070 Q450 1110 450 1174 Q450 1240 412.5 1279.5 Q375 1319 313 1319 Z M305 965 Q228 965 182 913 Q137 862 137 774 Q137 684 193 633 Q237 592 307 592 Q388 592 430 643 Q474 695 474 777 Q474 874 418 925 Q374 965 305 965 Z " />
<glyph glyph-name="ninesuperior" unicode="&#x2079;" horiz-adv-x="604" d="M92 734 L160 734 Q179 593 291 593 Q384 593 428 702 Q457 775 468 926 Q399 828 294 828 Q196 828 134 900 Q68 975 68 1101 Q68 1209 124 1290 Q186 1381 295 1381 Q413 1381 474 1281 Q535 1181 535 987 Q535 708 438 596 Q381 531 291 531 Q120 531 92 734 Z M294 1318 Q224 1318 180.5 1257 Q137 1196 137 1099 Q137 982 197 928 Q239 890 297 890 Q369 890 414 947 Q459 1004 459 1095 Q459 1193 412.5 1255.5 Q366 1318 294 1318 Z " />
<glyph glyph-name="parenleftsuperior" unicode="&#x207d;" horiz-adv-x="369" d="M287 1377 Q152 1129 152 863 Q152 597 287 350 L226 350 Q181 435 152 505 Q82 676 82 862 Q82 1138 227 1377 L287 1377 Z " />
<glyph glyph-name="parenrightsuperior" unicode="&#x207e;" horiz-adv-x="369" d="M82 350 Q87 359 97 377 Q153 476 185 606 Q217 736 217 862 Q217 1131 82 1377 L143 1377 Q188 1292 217 1223 Q287 1051 287 866 Q287 589 142 350 L82 350 Z " />
<glyph glyph-name="nsuperior" unicode="&#x207f;" horiz-adv-x="640" d="M109 546 L109 1119 L179 1119 L179 1052 Q242 1136 343 1136 Q455 1136 502 1052 Q520 1019 525 991 Q530 963 530 894 L530 546 L459 546 L459 891 Q459 977 438 1018 Q409 1074 338 1074 Q250 1074 209 1000 Q180 949 180 841 L180 546 L109 546 Z " />
<glyph glyph-name="zeroinferior" unicode="&#x2080;" horiz-adv-x="618" d="M309 834 Q427 834 490 723 Q550 618 550 405 Q550 203 490 97 Q426 -16 309 -16 Q192 -16 128 95 Q68 198 68 394 Q68 834 309 834 Z M314 771 Q231 771 190 691 Q137 588 137 406 Q137 46 312 46 Q481 46 481 402 Q481 771 314 771 Z " />
<glyph glyph-name="oneinferior" unicode="&#x2081;" horiz-adv-x="372" d="M228 0 L149 0 L149 649 Q127 628 105.5 621 Q84 614 33 612 L33 672 Q38 672 41 672 Q98 672 125.5 705 Q153 738 163 817 L228 817 L228 0 Z " />
<glyph glyph-name="twoinferior" unicode="&#x2082;" horiz-adv-x="560" d="M493 67 L493 1 L51 1 Q51 120 92 193.5 Q133 267 242 342 Q347 415 380 455 Q435 522 435 607 Q435 693 383 740 Q341 778 275 778 Q204 778 161.5 731 Q119 684 114 599 L47 599 Q55 689 90 746 Q118 790 167.5 815 Q217 840 276 840 Q381 840 445 769 Q504 705 504 605 Q504 485 402 389 Q374 363 260 283 Q192 236 160 185.5 Q128 135 124 67 L493 67 Z " />
<glyph glyph-name="threeinferior" unicode="&#x2083;" horiz-adv-x="566" d="M41 247 L107 247 Q109 46 272 46 Q352 46 397 97 Q441 146 441 228 Q441 316 389 361 Q339 404 259 404 Q248 404 216 403 L216 470 Q242 469 251 469 Q327 469 373 512 Q419 555 419 626 Q419 700 372 738 Q331 772 275 772 Q203 772 163.5 727.5 Q124 683 121 600 L55 599 Q60 688 89 740 Q113 782 164 808 Q215 834 275 834 Q378 834 437 768 Q487 712 487 628 Q487 502 376 441 Q509 384 509 231 Q509 108 434 39 Q372 -16 274 -16 Q160 -16 100.5 51 Q41 118 41 247 Z " />
<glyph glyph-name="fourinferior" unicode="&#x2084;" horiz-adv-x="540" d="M328 0 L328 222 L24 222 L24 289 L337 818 L407 818 L407 289 L506 289 L506 222 L407 222 L407 0 L328 0 Z M328 289 L328 689 L91 289 L328 289 Z " />
<glyph glyph-name="fiveinferior" unicode="&#x2085;" horiz-adv-x="574" d="M135 818 L473 818 L473 751 L191 751 L149 497 Q211 544 277 544 Q409 544 466 438 Q506 363 506 270 Q506 203 480.5 140 Q455 77 411 36 Q352 -20 262 -20 Q163 -20 106.5 41 Q50 102 48 211 L113 211 Q121 42 264 42 Q337 42 382 95 Q437 159 437 271 Q437 386 378 442 Q336 481 275 481 Q179 481 129 384 L70 396 L135 818 Z " />
<glyph glyph-name="sixinferior" unicode="&#x2086;" horiz-adv-x="604" d="M510 630 L442 630 L440 648 Q431 706 397 738.5 Q363 771 311 771 Q220 771 176 663 Q145 587 135 438 Q204 537 309 537 Q407 537 470 466 Q535 391 535 264 Q535 196 512 135.5 Q489 75 450 39 Q389 -16 307 -16 Q189 -16 128.5 84 Q68 184 68 378 Q68 657 165 768 Q222 834 312 834 Q483 834 510 630 Z M305 475 Q238 475 193 423 Q144 366 144 264 Q144 170 190.5 108.5 Q237 47 308 47 Q373 47 415 96 Q466 154 466 266 Q466 383 405 437 Q364 475 305 475 Z " />
<glyph glyph-name="seveninferior" unicode="&#x2087;" horiz-adv-x="527" d="M224 0 L155 0 Q157 422 407 751 L41 751 L41 818 L486 818 L486 760 Q312 542 257 294 Q226 154 224 19 L224 0 Z " />
<glyph glyph-name="eightinferior" unicode="&#x2088;" horiz-adv-x="612" d="M194 452 Q94 506 94 627 Q94 722 160 783 Q214 834 307 834 Q409 834 468 768 Q517 713 517 634 Q517 512 417 452 Q543 381 543 232 Q543 122 478 53 Q413 -16 308 -16 Q194 -16 130 57 Q68 127 68 230 Q68 382 194 452 Z M306 771 Q239 771 200 731.5 Q161 692 161 624 Q161 558 200.5 519 Q240 480 307 480 Q378 480 415 523 Q450 563 450 627 Q450 694 411 732.5 Q372 771 306 771 Z M305 418 Q228 418 182 366 Q137 315 137 228 Q137 137 193 86 Q237 45 307 45 Q388 45 430 96 Q474 148 474 230 Q474 327 418 378 Q374 418 305 418 Z " />
<glyph glyph-name="nineinferior" unicode="&#x2089;" horiz-adv-x="604" d="M92 187 L160 187 Q179 46 291 46 Q384 46 428 155 Q457 228 468 379 Q400 281 293 281 Q196 281 133 352 Q68 428 68 554 Q68 622 91 682.5 Q114 743 153 779 Q213 834 295 834 Q413 834 474 734 Q535 634 535 440 Q535 161 438 49 Q381 -16 292 -16 Q119 -16 92 187 Z M297 771 Q233 771 188 721 Q137 666 137 555 Q137 434 197 381 Q240 343 297 343 Q370 343 414.5 400.5 Q459 458 459 552 Q459 646 413 708.5 Q367 771 297 771 Z " />
<glyph glyph-name="franc" unicode="&#x20a3;" horiz-adv-x="1190" d="M111 0 L111 1365 L838 1365 L838 1294 L193 1294 L193 814 L634 814 L634 743 L193 743 L193 0 L111 0 Z M755 0 L755 829 L837 829 L837 612 Q926 850 1160 844 L1160 761 Q1149 762 1147 762 Q972 762 892 618 Q861 564 849 489.5 Q837 415 837 282 L837 0 L755 0 Z " />
<glyph glyph-name="lira" unicode="&#x20a4;" horiz-adv-x="842" d="M279 382 L66 382 L66 453 L291 453 Q295 475 295 493 Q295 522 285 570 L66 570 L66 641 L262 641 Q251 663 160 790 Q67 920 67 1045 Q67 1203 179 1304 Q276 1392 430 1392 Q597 1392 695 1291 Q793 1190 797 1013 L719 1013 Q716 1132 666 1209 Q592 1324 434 1324 Q295 1324 216 1235 Q148 1158 148 1048 Q148 991 169.5 936.5 Q191 882 242 809 Q331 681 347 641 L644 641 L644 570 L368 570 Q375 545 375 501 Q375 490 373 453 L644 453 L644 382 L359 382 Q317 240 175 116 Q230 157 321 157 Q398 157 490 101 Q553 62 597 62 Q716 62 731 200 L807 200 Q800 119 765 69 Q708 -11 593 -11 Q552 -11 520 1 Q488 13 436 48 Q365 95 315 95 Q233 95 93 -4 L41 70 Q223 202 279 382 Z " />
<glyph glyph-name="peseta" unicode="&#x20a7;" horiz-adv-x="1901" d="M959 684 L959 755 L1078 755 L1078 891 L1147 990 L1160 990 L1160 755 L1301 755 L1301 684 L1160 684 L1160 196 Q1160 106 1175 78 Q1190 50 1239 50 Q1264 50 1301 59 L1301 -11 Q1261 -23 1227 -23 Q1133 -23 1100 35 Q1078 72 1078 202 L1078 684 L959 684 Z M1316 209 L1380 209 Q1390 146 1421 105 Q1477 32 1582 32 Q1673 32 1720 85 Q1761 132 1761 196 Q1761 265 1714 300 Q1683 323 1656.5 333 Q1630 343 1532 368 Q1423 395 1371.5 444 Q1320 493 1320 568 Q1320 660 1390 723 Q1454 781 1558 781 Q1662 781 1728.5 725.5 Q1795 670 1808 572 L1743 572 Q1716 721 1561 721 Q1474 721 1428 670 Q1390 626 1390 571 Q1390 527 1417 494 Q1452 452 1572 425 Q1706 394 1762 349 Q1833 292 1833 199 Q1833 98 1761 33 Q1693 -29 1579 -29 Q1466 -29 1397.5 32.5 Q1329 94 1316 209 Z M147 0 L147 1365 L453 1365 Q561 1365 630 1352 Q699 1339 756 1307 Q835 1263 878 1185 Q926 1097 926 986 Q926 759 750 660 Q645 600 460 600 L229 600 L229 0 L147 0 Z M229 671 L433 671 Q612 671 707 723 Q767 755 800 815 Q843 892 843 986 Q843 1073 806.5 1143 Q770 1213 707 1248 Q657 1276 605.5 1285 Q554 1294 447 1294 L229 1294 L229 671 Z " />
<glyph glyph-name="uni2101" unicode="&#x2101;" horiz-adv-x="1636" d="M343 1365 L412 1365 L685 546 L609 546 L530 807 L224 807 L143 546 L68 546 L343 1365 Z M255 871 L499 871 L378 1261 L255 871 Z M1030 247 L1095 247 Q1123 45 1305 45 Q1400 45 1449 101 Q1494 153 1494 219 Q1494 296 1441 335 Q1413 356 1388.5 365 Q1364 374 1265 401 Q1154 432 1100 475 Q1031 530 1031 619 Q1031 711 1104 778 Q1170 838 1280 838 Q1392 838 1460.5 776.5 Q1529 715 1543 602 L1478 602 Q1466 667 1441 705 Q1395 774 1282 774 Q1188 774 1143 723 Q1104 678 1104 617 Q1104 558 1145.5 522.5 Q1187 487 1284 463 Q1435 425 1495 376 Q1568 317 1568 224 Q1568 116 1490 45 Q1419 -19 1303 -19 Q1184 -19 1113.5 49.5 Q1043 118 1030 247 Z M630 0 L555 0 L1121 1365 L1199 1365 L630 0 Z " />
<glyph glyph-name="afii61352" unicode="&#x2116;" horiz-adv-x="1696" d="M147 0 L147 1365 L229 1365 L958 147 L958 1365 L1040 1365 L1040 0 L958 0 L229 1211 L229 0 L147 0 Z M1642 218 L1642 147 L1138 147 L1138 218 L1642 218 Z M1390 939 Q1497 939 1566 861 Q1642 776 1642 620 Q1642 539 1617 469 Q1592 399 1549 360 Q1484 301 1389 301 Q1281 301 1214 378 Q1179 417 1158.5 484.5 Q1138 552 1138 625 Q1138 703 1163 771.5 Q1188 840 1231 879 Q1297 939 1390 939 Z M1389 873 Q1319 873 1269 817 Q1210 750 1210 614 Q1210 552 1230 495 Q1250 438 1281 409 Q1328 367 1390 367 Q1463 367 1512 422 Q1537 451 1553.5 506.5 Q1570 562 1570 618 Q1570 763 1498 830 Q1452 873 1389 873 Z " />
<glyph glyph-name="estimated" unicode="&#x212e;" horiz-adv-x="908" d="M828 469 L157 469 Q156 380 180 294 Q249 38 485 38 Q572 38 643.5 74 Q715 110 739 165 L814 165 Q789 91 727 46 Q624 -29 483 -29 Q260 -29 156 153 Q80 285 80 475 Q80 655 150 779 Q258 971 465 971 Q635 971 731.5 837.5 Q828 704 828 469 Z M750 535 Q750 605 723 692 Q693 790 629 845 Q559 905 460 905 Q335 905 253 804 Q171 703 159 535 L750 535 Z " />
<glyph glyph-name="onethird" unicode="&#x2153;" horiz-adv-x="1244" d="M234 548 L155 548 L155 1197 Q131 1175 109 1168.5 Q87 1162 34 1160 L34 1220 Q99 1220 128.5 1251 Q158 1282 169 1365 L234 1365 L234 548 Z M279 0 L203 0 L791 1365 L864 1365 L279 0 Z M706 247 L772 247 Q775 46 937 46 Q1016 46 1062 97 Q1106 146 1106 226 Q1106 316 1053 361 Q1004 404 926 404 Q923 404 882 403 L882 469 Q912 468 919 468 Q993 468 1038.5 511.5 Q1084 555 1084 626 Q1084 693 1044.5 732.5 Q1005 772 939 772 Q865 772 828 730 Q791 688 786 599 L720 599 Q725 687 755 740 Q779 782 829.5 808 Q880 834 940 834 Q1043 834 1102 768 Q1152 713 1152 628 Q1152 501 1041 441 Q1174 384 1174 231 Q1174 108 1098 40 Q1037 -16 939 -16 Q832 -16 770 46 Q706 111 706 233 Q706 235 706 247 Z " />
<glyph glyph-name="twothirds" unicode="&#x2154;" horiz-adv-x="1408" d="M494 613 L494 546 L52 546 Q52 665 93 739 Q134 813 243 888 Q348 961 381 1000 Q436 1067 436 1152 Q436 1238 384 1285 Q341 1323 277 1323 Q126 1323 115 1144 L48 1144 Q56 1235 91 1292 Q119 1335 169 1360 Q219 1385 277 1385 Q382 1385 446 1315 Q505 1250 505 1151 Q505 1030 403 935 Q376 909 261 829 Q193 782 161 731 Q129 680 125 613 L494 613 Z M456 0 L381 0 L969 1365 L1041 1365 L456 0 Z M871 247 L937 247 Q939 46 1101 46 Q1181 46 1226 97 Q1270 146 1270 227 Q1270 316 1218 362 Q1168 405 1091 405 Q1082 405 1046 403 L1046 470 Q1071 469 1080 469 Q1156 469 1202 512 Q1248 555 1248 625 Q1248 693 1209 732.5 Q1170 772 1103 772 Q983 772 956 657 Q953 645 951 599 L885 599 Q889 687 919 740 Q943 782 994 808 Q1045 834 1104 834 Q1207 834 1266 768 Q1316 712 1316 628 Q1316 501 1206 441 Q1338 384 1338 231 Q1338 108 1263 40 Q1201 -16 1103 -16 Q996 -16 935 46 Q870 111 870 233 Q870 235 871 247 Z " />
<glyph glyph-name="oneeighth" unicode="&#x215b;" horiz-adv-x="1227" d="M234 548 L155 548 L155 1197 Q131 1175 109 1168.5 Q87 1162 34 1160 L34 1220 Q99 1220 128.5 1251 Q158 1282 169 1365 L234 1365 L234 548 Z M278 0 L202 0 L790 1365 L863 1365 L278 0 Z M810 452 Q710 507 710 627 Q710 722 775 783 Q830 834 921 834 Q1025 834 1083 768 Q1133 713 1133 634 Q1133 511 1033 452 Q1160 380 1160 232 Q1160 121 1094 52.5 Q1028 -16 922 -16 Q810 -16 745 57 Q684 126 684 230 Q684 381 810 452 Z M921 771 Q855 771 816 731.5 Q777 692 777 624 Q777 558 816.5 519 Q856 480 923 480 Q993 480 1031 523 Q1066 563 1066 627 Q1066 694 1027 732.5 Q988 771 921 771 Z M921 418 Q844 418 798 366 Q753 316 753 228 Q753 136 808 86 Q853 45 923 45 Q1004 45 1047 96 Q1091 147 1091 230 Q1091 327 1035 378 Q990 418 921 418 Z " />
<glyph glyph-name="threeeighths" unicode="&#x215c;" horiz-adv-x="1367" d="M430 0 L354 0 L942 1365 L1015 1365 L430 0 Z M949 452 Q849 507 849 627 Q849 723 915 783 Q970 834 1060 834 Q1164 834 1222 768 Q1272 713 1272 634 Q1272 511 1173 452 Q1299 380 1299 232 Q1299 121 1233.5 52.5 Q1168 -16 1061 -16 Q949 -16 885 57 Q823 126 823 230 Q823 381 949 452 Z M1060 771 Q993 771 954.5 731.5 Q916 692 916 623 Q916 558 955.5 519 Q995 480 1062 480 Q1133 480 1170 523 Q1205 563 1205 627 Q1205 694 1166 732.5 Q1127 771 1060 771 Z M1061 418 Q983 418 937.5 366.5 Q892 315 892 227 Q892 136 948 86 Q993 45 1063 45 Q1143 45 1186 96 Q1230 148 1230 230 Q1230 327 1174 378 Q1129 418 1061 418 Z M68 794 L134 794 Q136 592 299 592 Q378 592 424 644 Q468 693 468 773 Q468 862 416 908 Q366 951 288 951 Q278 951 243 950 L243 1016 Q256 1016 262 1015 Q275 1015 281 1015 Q355 1015 400.5 1058.5 Q446 1102 446 1173 Q446 1240 407 1279.5 Q368 1319 301 1319 Q153 1319 148 1146 L82 1146 Q87 1235 116 1287 Q140 1329 191.5 1355 Q243 1381 302 1381 Q405 1381 464 1315 Q514 1259 514 1175 Q514 1048 403 988 Q536 931 536 777 Q536 654 461 586 Q399 530 301 530 Q187 530 127.5 597 Q68 664 68 794 Z " />
<glyph glyph-name="fiveeighths" unicode="&#x215d;" horiz-adv-x="1357" d="M155 1365 L493 1365 L493 1302 L211 1302 L169 1048 Q230 1095 298 1095 Q429 1095 486 989 Q526 914 526 821 Q526 754 500.5 691 Q475 628 431 587 Q372 531 282 531 Q183 531 126.5 592 Q70 653 68 762 L133 762 Q136 700 158 660 Q195 593 283 593 Q357 593 402 646 Q457 710 457 821 Q457 937 398 993 Q356 1032 296 1032 Q200 1032 149 935 L90 947 L155 1365 Z M425 0 L349 0 L937 1365 L1010 1365 L425 0 Z M939 452 Q839 507 839 627 Q839 723 905 783 Q960 834 1050 834 Q1154 834 1212 768 Q1262 713 1262 633 Q1262 512 1163 452 Q1289 380 1289 232 Q1289 121 1223.5 52.5 Q1158 -16 1051 -16 Q939 -16 875 57 Q813 126 813 230 Q813 381 939 452 Z M1051 771 Q984 771 945 731.5 Q906 692 906 624 Q906 558 945.5 519 Q985 480 1052 480 Q1123 480 1160 523 Q1195 563 1195 627 Q1195 694 1156.5 732.5 Q1118 771 1051 771 Z M1051 418 Q973 418 927 366 Q882 316 882 228 Q882 136 938 86 Q983 45 1053 45 Q1133 45 1176 96 Q1220 148 1220 230 Q1220 327 1164 378 Q1119 418 1051 418 Z " />
<glyph glyph-name="seveneighths" unicode="&#x215e;" horiz-adv-x="1231" d="M231 548 L162 548 Q164 970 414 1299 L48 1299 L48 1366 L493 1366 L493 1307 Q237 991 231 566 L231 548 Z M249 0 L173 0 L761 1365 L834 1365 L249 0 Z M814 452 Q714 506 714 627 Q714 722 780 783 Q835 834 925 834 Q1029 834 1087 768 Q1137 713 1137 634 Q1137 512 1037 452 Q1163 381 1163 232 Q1163 113 1084 39 Q1026 -16 928 -16 Q814 -16 750 57 Q688 126 688 230 Q688 382 814 452 Z M926 771 Q859 771 820 731.5 Q781 692 781 624 Q781 558 820.5 519 Q860 480 927 480 Q997 480 1035 523 Q1070 563 1070 627 Q1070 694 1031 732.5 Q992 771 926 771 Z M926 418 Q848 418 802.5 366.5 Q757 315 757 227 Q757 136 813 86 Q857 45 927 45 Q1008 45 1051 96 Q1094 147 1094 230 Q1094 327 1038 378 Q994 418 926 418 Z " />
<glyph glyph-name="minus" unicode="&#x2212;" horiz-adv-x="1024" d="M68 742 L955 742 L955 671 L68 671 L68 742 Z " />
<glyph glyph-name="fraction005" unicode="&#x2215;" horiz-adv-x="381" d="M-64 0 L-140 0 L448 1365 L521 1365 L-64 0 Z " />
<glyph glyph-name="middot" unicode="&#x2219;" horiz-adv-x="369" d="M238 599 L238 404 L131 404 L131 599 L238 599 Z " />
<glyph glyph-name="uni2236" unicode="&#x2236;" horiz-adv-x="1143" d="M559 1058 Q591 1058 613 1036 Q635 1014 635 983 Q635 951 613 929 Q591 907 559 907 Q528 907 506 929.5 Q484 952 484 984 Q484 1014 506.5 1036 Q529 1058 559 1058 Z M559 496 Q591 496 613 474 Q635 452 635 420 Q635 389 613 366.5 Q591 344 560 344 Q528 344 506 366.5 Q484 389 484 421 Q484 452 506.5 474 Q529 496 559 496 Z " />
<glyph glyph-name="dotmath" unicode="&#x22c5;" horiz-adv-x="369" d="M238 599 L238 404 L131 404 L131 599 L238 599 Z " />
<glyph glyph-name="uniEA31" unicode="&#xea31;" horiz-adv-x="964" d="M480 1554 Q665 1554 789 1417 Q895 1299 895 1140 Q895 956 758 832 Q640 726 478 726 Q297 726 175 862 Q68 982 68 1146 Q68 1321 206 1449 Q320 1554 480 1554 Z M481 1496 Q335 1496 234 1392 Q131 1286 131 1135 Q131 1064 163 993.5 Q195 923 249 873 Q347 784 481 784 Q637 784 741 900 Q832 1002 832 1140 Q832 1298 714 1406 Q616 1496 481 1496 Z M592 1075 L654 1075 Q646 1005 616 960 Q571 892 483 892 Q404 892 352 952 Q293 1019 293 1138 Q293 1273 366 1340 Q416 1386 485 1386 Q552 1386 596.5 1344.5 Q641 1303 651 1231 L587 1231 Q586 1237 585 1242 Q564 1331 482 1331 Q433 1331 400 1292 Q355 1238 355 1136 Q355 1052 390.5 999.5 Q426 947 483 947 Q529 947 557.5 980.5 Q586 1014 592 1075 Z " />
<glyph glyph-name="uniEA32" unicode="&#xea32;" horiz-adv-x="964" d="M480 1554 Q665 1554 789 1417 Q895 1299 895 1140 Q895 956 758 832 Q640 726 478 726 Q297 726 175 862 Q68 982 68 1146 Q68 1321 206 1449 Q320 1554 480 1554 Z M481 1496 Q335 1496 234 1392 Q131 1286 131 1135 Q131 1064 163 993.5 Q195 923 249 873 Q347 784 481 784 Q637 784 741 900 Q832 1002 832 1140 Q832 1298 714 1406 Q616 1496 481 1496 Z M342 903 L342 1374 L498 1374 Q581 1374 617 1332 Q648 1297 648 1244 Q648 1172 590 1133 Q634 1104 639 1009 Q642 937 665 903 L598 903 Q578 937 578 1006 Q577 1065 555 1085 Q533 1105 468 1105 L404 1105 L404 903 L342 903 Z M404 1160 L486 1160 Q539 1160 562.5 1179.5 Q586 1199 586 1244 Q586 1319 497 1319 L404 1319 L404 1160 Z " />
<glyph glyph-name="uniEA3F" unicode="&#xea3f;" horiz-adv-x="987" d="M544 1365 L544 1245 Q544 1161 518.5 1120 Q493 1079 430 1061 L430 1110 Q490 1131 490 1190 L490 1213 L445 1213 L445 1365 L544 1365 Z " />
<glyph glyph-name="uniEA4F" unicode="&#xea4f;" horiz-adv-x="987" d="M430 1062 L430 1182 Q430 1265 455.5 1306 Q481 1347 545 1366 L545 1316 Q485 1296 485 1236 L485 1213 L527 1213 L527 1062 L430 1062 Z " />
<glyph glyph-name="uniEA66" unicode="&#xea66;" horiz-adv-x="987" d="M544 -95 L544 -215 Q544 -299 519.5 -339.5 Q495 -380 430 -400 L430 -351 Q490 -331 490 -270 L490 -247 L446 -247 L446 -95 L544 -95 Z " />
<glyph glyph-name="uniEA67" unicode="&#xea67;" horiz-adv-x="987" d="M545 1365 L545 1245 Q545 1161 519.5 1120 Q494 1079 430 1061 L430 1110 Q490 1131 490 1190 L490 1213 L448 1213 L448 1365 L545 1365 Z " />
<glyph glyph-name="uniEA68" unicode="&#xea68;" horiz-adv-x="1020" d="M690 1677 L690 1488 L601 1488 L601 1677 L690 1677 Z M420 1677 L420 1488 L331 1488 L331 1677 L420 1677 Z " />
<glyph glyph-name="uniEA69" unicode="&#xea69;" horiz-adv-x="987" d="M545 -95 L545 -215 Q545 -300 520 -340 Q495 -380 430 -400 L430 -351 Q490 -331 490 -270 L490 -247 L448 -247 L448 -95 L545 -95 Z " />
<glyph glyph-name="uniEA6A" unicode="&#xea6a;" horiz-adv-x="1007" d="M677 1296 L677 1107 L590 1107 L590 1296 L677 1296 Z M418 1296 L418 1107 L331 1107 L331 1296 L418 1296 Z " />
<glyph glyph-name="uniEA71" unicode="&#xea71;" horiz-adv-x="1035" d="M150 953 L65 953 L65 1024 L150 1024 L150 1365 L456 1365 Q610 1365 694 1337 Q905 1265 928 1024 L1016 1024 L1016 953 L929 953 Q901 600 463 600 L232 600 L232 0 L150 0 L150 953 Z M232 953 L232 671 L436 671 Q673 671 765 762 Q833 829 846 953 L232 953 Z M845 1024 Q826 1171 736.5 1232.5 Q647 1294 450 1294 L232 1294 L232 1024 L845 1024 Z " />
<glyph glyph-name="uniEA72" unicode="&#xea72;" horiz-adv-x="548" d="M326 806 L247 806 L247 1232 Q221 1217 162 1214 L162 1274 Q215 1275 236 1296.5 Q257 1318 262 1376 L326 1376 L326 806 Z M446 67 L446 0 L124 0 Q124 99 158.5 153 Q193 207 307 284 Q384 336 384 417 Q384 466 357.5 495.5 Q331 525 286 525 Q189 525 186 408 L119 408 Q120 416 120 427 Q125 498 170.5 540.5 Q216 583 286 583 Q365 583 409 532 Q451 485 451 417 Q451 334 380 267 Q360 249 285 196 Q206 142 199 67 L446 67 Z M68 718 L480 718 L480 651 L68 651 L68 718 Z " />
<glyph glyph-name="uniEA73" unicode="&#xea73;" horiz-adv-x="548" d="M326 806 L247 806 L247 1232 Q221 1216 173 1215 L162 1214 L162 1274 Q168 1274 172 1274 Q215 1274 235 1297 Q255 1320 260 1376 L326 1376 L326 806 Z M303 0 L303 146 L95 146 L95 207 L309 571 L382 571 L382 213 L440 213 L440 146 L382 146 L382 0 L303 0 Z M303 213 L303 456 L156 213 L303 213 Z M68 718 L480 718 L480 651 L68 651 L68 718 Z " />
<glyph glyph-name="uniEA74" unicode="&#xea74;" horiz-adv-x="548" d="M126 984 L188 984 Q188 852 290 852 Q338 852 366.5 882.5 Q395 913 395 964 Q395 1079 263 1079 Q259 1079 245 1079 L245 1139 L256 1139 L261 1139 Q379 1139 379 1239 Q379 1280 354.5 1304.5 Q330 1329 289 1329 Q197 1329 197 1220 L131 1212 Q138 1387 290 1387 Q359 1387 402 1346 Q445 1305 445 1238 Q445 1156 376 1114 Q461 1071 461 971 Q461 891 414 842.5 Q367 794 290 794 Q125 794 126 984 Z M68 718 L480 718 L480 651 L68 651 L68 718 Z M303 0 L303 146 L95 146 L95 207 L309 571 L382 571 L382 213 L440 213 L440 146 L382 146 L382 0 L303 0 Z M303 213 L303 456 L156 213 L303 213 Z " />
<glyph glyph-name="Dotaccent" unicode="&#xefed;" horiz-adv-x="994" d="M542 1677 L542 1488 L453 1488 L453 1677 L542 1677 Z " />
<glyph glyph-name="Breve" unicode="&#xefee;" horiz-adv-x="1102" d="M783 1733 Q748 1474 551 1474 Q354 1474 319 1733 L383 1733 Q414 1549 551 1549 Q688 1549 719 1733 L783 1733 Z " />
<glyph glyph-name="Ogonek" unicode="&#xeff1;" horiz-adv-x="1017" d="M894 1 Q793 -79 793 -171 Q793 -221 830 -253 Q868 -285 914 -285 Q938 -285 978 -271 L978 -323 Q924 -342 878 -342 Q805 -342 760 -303 Q715 -264 715 -200 Q715 -89 840 1 L894 1 Z " />
<glyph glyph-name="Cedilla" unicode="&#xeff2;" horiz-adv-x="1015" d="M441 0 L502 0 L450 -126 Q481 -107 517 -107 Q578 -107 619 -145.5 Q660 -184 660 -242 Q660 -305 617 -343 Q574 -381 502 -381 Q387 -381 359 -295 L433 -295 Q448 -336 500 -336 Q539 -336 562.5 -311 Q586 -286 586 -245 Q586 -203 562 -178 Q538 -153 498 -153 Q459 -153 438 -185 L368 -185 L441 0 Z " />
<glyph glyph-name="Ring" unicode="&#xeff3;" horiz-adv-x="1017" d="M512 1793 Q589 1793 642 1734 Q687 1685 687 1618 Q687 1540 629 1489 Q578 1443 509 1443 Q428 1443 376 1501 Q331 1552 331 1619 Q331 1691 384 1742 Q437 1793 512 1793 Z M508 1737 Q461 1737 427.5 1702 Q394 1667 394 1618 Q394 1569 427.5 1534 Q461 1499 509 1499 Q557 1499 590.5 1533.5 Q624 1568 624 1618 Q624 1668 590.5 1702.5 Q557 1737 508 1737 Z " />
<glyph glyph-name="Tilde" unicode="&#xeff5;" horiz-adv-x="1032" d="M785 1702 Q752 1511 632 1511 Q579 1511 504 1574 Q444 1625 403 1625 Q332 1625 307 1509 L246 1509 Q281 1701 402 1701 Q438 1701 467 1685 Q496 1669 563 1613 Q595 1587 627 1587 Q697 1587 722 1702 L785 1702 Z " />
<glyph glyph-name="Circumflex" unicode="&#xeff7;" horiz-adv-x="991" d="M731 1474 L647 1474 L497 1679 L340 1474 L261 1474 L455 1733 L540 1733 L731 1474 Z " />
<glyph glyph-name="Acute" unicode="&#xf6c9;" horiz-adv-x="997" d="M712 1737 L515 1479 L433 1479 L610 1737 L712 1737 Z " />
<glyph glyph-name="Caron" unicode="&#xf6ca;" horiz-adv-x="991" d="M261 1733 L344 1733 L500 1528 L651 1733 L731 1733 L541 1474 L456 1474 L261 1733 Z " />
<glyph glyph-name="Dieresis" unicode="&#xf6cb;" horiz-adv-x="993" d="M700 1677 L700 1488 L611 1488 L611 1677 L700 1677 Z M383 1677 L383 1488 L294 1488 L294 1677 L383 1677 Z " />
<glyph glyph-name="Grave" unicode="&#xf6ce;" horiz-adv-x="997" d="M284 1737 L386 1737 L563 1479 L481 1479 L284 1737 Z " />
<glyph glyph-name="Hungarumlaut" unicode="&#xf6cf;" horiz-adv-x="991" d="M575 1737 L378 1479 L296 1479 L473 1737 L575 1737 Z M815 1737 L618 1479 L536 1479 L714 1737 L815 1737 Z " />
<glyph glyph-name="Macron" unicode="&#xf6d0;" horiz-adv-x="1036" d="M786 1588 L786 1524 L251 1524 L251 1588 L786 1588 Z " />
<glyph glyph-name="uniFEFF" unicode="&#xfeff;" d="" />
</font>
</svg>
