<?xml version="1.0" encoding="UTF-8"?>
<svg xmlns="http://www.w3.org/2000/svg" xmlns:xlink="http://www.w3.org/1999/xlink" version="1.2" >
<font id="TeleGroteskScreen Medium Italic">
<font-face  font-family="TeleGroteskScreen" units-per-em="2048" ascent="1880" descent="-369" font-style="italic" font-weight="500" font-stretch="normal" slope="-12" cap-height="1365" x-height="942" underline-position="-175" underline-thickness="132" />
<missing-glyph  horiz-adv-x="511" d="M51 0 L51 1365 L460 1365 L460 0 L51 0 Z M409 51 L409 1314 L102 1314 L102 51 L409 51 Z " />
<glyph glyph-name="space" unicode="&#x20;" horiz-adv-x="511" d="" />
<glyph glyph-name="exclam" unicode="&#x21;" horiz-adv-x="647" d="M704 1365 L614 947 L439 340 L353 340 L436 947 L525 1365 L704 1365 Z M469 213 L423 0 L224 0 L269 213 L469 213 Z " />
<glyph glyph-name="quotedbl" unicode="&#x22;" horiz-adv-x="663" d="M423 845 L310 845 L397 1365 L558 1365 L423 845 Z M713 845 L599 845 L687 1365 L847 1365 L713 845 Z " />
<glyph glyph-name="numbersign" unicode="&#x23;" horiz-adv-x="1311" d="M270 450 L295 569 L496 569 L584 819 L400 819 L425 938 L626 938 L753 1297 L887 1297 L760 938 L1008 938 L1135 1297 L1269 1297 L1142 938 L1328 938 L1303 819 L1100 819 L1012 569 L1198 569 L1173 450 L970 450 L835 68 L701 68 L836 450 L588 450 L453 68 L319 68 L454 450 L270 450 Z M966 819 L718 819 L630 569 L878 569 L966 819 Z " />
<glyph glyph-name="dollar" unicode="&#x24;" horiz-adv-x="1092" d="M887 1348 Q973 1334 1034 1299 Q1175 1218 1175 1063 Q1175 1035 1167 984 L993 984 Q999 1019 999 1041 Q999 1107 962.5 1151.5 Q926 1196 858 1211 L764 769 L849 736 Q975 687 1030.5 615.5 Q1086 544 1086 431 Q1086 245 955 132 Q824 19 603 15 L583 -82 L456 -82 L478 22 Q358 39 292 90 Q173 182 173 339 Q173 380 184 443 L350 443 Q342 399 342 366 Q342 198 507 161 L613 658 L558 680 Q440 725 383.5 798 Q327 871 327 977 Q327 1141 445.5 1244.5 Q564 1348 761 1356 L781 1447 L908 1447 L887 1348 Z M730 613 L633 154 Q744 165 813 222 Q901 295 901 409 Q901 547 730 613 Z M646 815 L732 1216 Q664 1207 613 1178 Q507 1118 507 997 Q507 872 646 815 Z " />
<glyph glyph-name="percent" unicode="&#x25;" horiz-adv-x="1851" d="M676 1384 Q804 1384 881 1301 Q962 1215 962 1065 Q962 870 860 715 Q736 526 540 526 Q393 526 315 632 Q253 716 253 839 Q253 946 286 1049 Q319 1152 377 1226 Q500 1384 676 1384 Z M674 1268 Q550 1268 464 1134 Q427 1076 405 994 Q383 912 383 834 Q383 738 432 687 Q476 641 540 641 Q664 641 749 777 Q831 908 831 1070 Q831 1162 789 1215 Q747 1268 674 1268 Z M698 0 L569 0 L1448 1365 L1573 1365 L698 0 Z M1603 838 Q1731 838 1808 755 Q1889 669 1889 519 Q1889 325 1787 170 Q1663 -19 1467 -19 Q1320 -19 1242 87 Q1180 170 1180 293 Q1180 400 1213 503 Q1246 606 1304 680 Q1427 838 1603 838 Z M1600 722 Q1477 722 1391 588 Q1355 531 1332.5 449 Q1310 367 1310 288 Q1310 193 1359 142 Q1403 96 1467 96 Q1591 96 1676 232 Q1758 362 1758 525 Q1758 616 1716 669 Q1674 722 1600 722 Z " />
<glyph glyph-name="ampersand" unicode="&#x26;" horiz-adv-x="1046" d="M1011 0 L841 0 L797 95 Q742 48 698 25 Q601 -29 485 -29 Q325 -29 232 66 Q150 149 150 277 Q150 452 292 592 Q359 658 499 749 Q491 768 463 831 Q415 937 415 1042 Q415 1212 520 1307 Q617 1394 757 1394 Q877 1394 949 1328.5 Q1021 1263 1021 1154 Q1021 996 846 850 Q791 803 677 729 L850 351 Q900 438 933 567 L1076 567 Q1016 357 912 215 L1011 0 Z M549 641 Q421 556 363 471 Q305 386 305 284 Q305 203 353 153 Q409 94 503 94 Q617 94 746 205 L549 641 Z M626 837 Q735 911 784 962 Q863 1046 863 1143 Q863 1202 829 1236.5 Q795 1271 736 1271 Q658 1271 613 1213.5 Q568 1156 568 1056 Q568 997 578.5 956.5 Q589 916 626 837 Z " />
<glyph glyph-name="quotesingle" unicode="&#x27;" horiz-adv-x="374" d="M423 845 L310 845 L397 1365 L558 1365 L423 845 Z " />
<glyph glyph-name="parenleft" unicode="&#x28;" horiz-adv-x="610" d="M646 1365 L767 1365 Q686 1263 602 1110 Q518 957 464 811 Q332 458 332 100 Q332 -150 402 -355 L281 -355 Q277 -343 246 -245 Q179 -33 179 185 Q179 520 330 860 Q387 989 474.5 1129 Q562 1269 646 1365 Z " />
<glyph glyph-name="parenright" unicode="&#x29;" horiz-adv-x="646" d="M424 1365 L545 1365 Q647 1121 647 832 Q647 538 539 254 Q479 98 410 -19 Q341 -136 188 -342 L179 -355 L58 -355 Q265 -81 379.5 248.5 Q494 578 494 897 Q494 1170 424 1365 Z " />
<glyph glyph-name="asterisk" unicode="&#x2a;" horiz-adv-x="787" d="M923 1120 L688 1045 L810 857 L732 802 L611 995 L446 802 L379 857 L546 1045 L328 1120 L366 1204 L581 1126 L605 1365 L698 1365 L670 1126 L903 1204 L923 1120 Z " />
<glyph glyph-name="plus" unicode="&#x2b;" horiz-adv-x="1065" d="M249 756 L623 756 L697 1103 L837 1103 L763 756 L1137 756 L1108 624 L735 624 L661 276 L521 276 L595 624 L221 624 L249 756 Z " />
<glyph glyph-name="comma" unicode="&#x2c;" horiz-adv-x="572" d="M431 213 L403 82 Q380 -26 355.5 -83.5 Q331 -141 289 -188 Q224 -259 125 -287 L146 -186 Q243 -158 278 -18 L282 0 L186 0 L231 213 L431 213 Z " />
<glyph glyph-name="hyphen" unicode="&#x2d;" horiz-adv-x="399" d="M524 591 L490 427 L91 427 L126 591 L524 591 Z " />
<glyph glyph-name="period" unicode="&#x2e;" horiz-adv-x="572" d="M431 213 L385 0 L186 0 L231 213 L431 213 Z " />
<glyph glyph-name="slash" unicode="&#x2f;" horiz-adv-x="778" d="M25 -355 L-105 -355 L838 1365 L964 1365 L25 -355 Z " />
<glyph glyph-name="zero" unicode="0" horiz-adv-x="1052" d="M814 1394 Q978 1394 1055 1292 Q1122 1202 1122 1048 Q1122 878 1075 651.5 Q1028 425 962 280 Q891 123 791.5 47 Q692 -29 559 -29 Q246 -29 246 328 Q246 538 314 807 Q394 1124 515 1258 Q638 1394 814 1394 Z M804 1256 Q633 1256 537 982 Q486 837 448 640 Q410 443 410 323 Q410 109 567 109 Q735 109 832 384 Q880 519 920 723.5 Q960 928 960 1036 Q960 1256 804 1256 Z " />
<glyph glyph-name="one" unicode="1" horiz-adv-x="697" d="M300 0 L527 1066 Q470 1022 419 1007 Q368 992 273 991 L300 1118 Q433 1122 503 1174.5 Q573 1227 632 1365 L751 1365 L461 0 L300 0 Z " />
<glyph glyph-name="two" unicode="2" horiz-adv-x="1015" d="M900 140 L870 0 L109 0 Q127 118 147 178.5 Q167 239 209 301 Q299 436 531 578 Q675 665 728 702.5 Q781 740 830 790 Q949 912 949 1067 Q949 1153 897 1204 Q847 1254 757 1254 Q650 1254 582 1183 Q514 1112 496 983 L318 983 Q345 1140 410 1228 Q536 1396 769 1396 Q934 1396 1028 1307 Q1124 1215 1124 1068 Q1124 885 988 732 Q905 639 684 510 Q549 432 499 398.5 Q449 365 409 325 Q331 248 304 140 L900 140 Z " />
<glyph glyph-name="three" unicode="3" horiz-adv-x="945" d="M453 1019 L300 1019 Q328 1161 394 1245 Q510 1394 708 1394 Q870 1394 957 1295 Q1027 1215 1027 1094 Q1027 966 960 872.5 Q893 779 768 733 Q943 670 943 464 Q943 283 828 141 Q692 -29 464 -29 Q294 -29 203 63 Q123 142 123 268 Q123 312 139 378 L294 378 Q286 328 286 299 Q286 217 327 168 Q376 109 471 109 Q622 109 708 239 Q777 342 777 455 Q777 654 562 654 L502 654 L532 794 L580 794 Q716 794 796 891 Q862 971 862 1084 Q862 1163 815 1209.5 Q768 1256 688 1256 Q501 1256 453 1019 Z " />
<glyph glyph-name="four" unicode="4" horiz-adv-x="912" d="M531 0 L605 345 L109 345 L141 495 L841 1365 L966 1365 L778 477 L928 477 L900 345 L749 345 L676 0 L531 0 Z M633 477 L759 1069 L286 477 L633 477 Z " />
<glyph glyph-name="five" unicode="5" horiz-adv-x="996" d="M272 640 L529 1365 L1106 1365 L1075 1222 L615 1222 L468 818 Q564 907 696 907 Q858 907 933 789 Q991 697 991 559 Q991 442 954.5 333.5 Q918 225 852 147 Q704 -29 483 -29 Q308 -29 222 82 Q164 156 164 255 Q164 282 172 330 L330 330 Q327 298 327 274 Q327 202 373.5 155.5 Q420 109 493 109 Q633 109 734 252 Q823 378 823 537 Q823 649 778 709 Q733 769 650 769 Q500 769 400 631 L272 640 Z " />
<glyph glyph-name="six" unicode="6" horiz-adv-x="1031" d="M1114 1057 L957 1057 Q958 1081 958 1096 Q958 1171 922 1213.5 Q886 1256 822 1256 Q668 1256 561 1064 Q523 997 501 934 Q479 871 446 735 Q506 810 561 841 Q641 888 737 888 Q868 888 944 802 Q1029 705 1029 548 Q1029 442 990 328.5 Q951 215 887 137 Q823 58 735.5 14.5 Q648 -29 554 -29 Q378 -29 291 108 Q232 202 232 351 Q232 617 323 890 Q421 1188 590 1311 Q705 1394 844 1394 Q964 1394 1035 1329 Q1117 1255 1117 1124 Q1117 1099 1114 1057 Z M695 750 Q553 750 460 577 Q396 458 396 321 Q396 222 441 164 Q484 109 563 109 Q699 109 789 266 Q860 389 860 542 Q860 642 817 696 Q774 750 695 750 Z " />
<glyph glyph-name="seven" unicode="7" horiz-adv-x="861" d="M357 0 L191 0 Q274 340 431 612 Q588 884 887 1207 L302 1207 L336 1365 L1079 1365 L1049 1223 Q800 954 655 720 Q450 389 357 0 Z " />
<glyph glyph-name="eight" unicode="8" horiz-adv-x="981" d="M481 749 Q365 826 365 979 Q365 1145 476 1266 Q592 1394 773 1394 Q905 1394 985 1324 Q1076 1245 1076 1107 Q1076 1032 1052.5 960.5 Q1029 889 990 842 Q937 779 838 741 Q984 657 984 465 Q984 288 883 149 Q754 -29 518 -29 Q356 -29 266.5 59 Q177 147 177 306 Q177 492 288 619 Q362 704 481 749 Z M765 1256 Q662 1256 593 1163 Q528 1076 528 963 Q528 888 566.5 845 Q605 802 672 802 Q780 802 851 912 Q909 1000 909 1105 Q909 1176 870.5 1216 Q832 1256 765 1256 Z M641 674 Q580 674 522 640 Q464 606 421 544 Q345 435 345 300 Q345 216 395 162.5 Q445 109 523 109 Q659 109 746 238 Q818 343 818 468 Q818 561 776 615 Q728 674 641 674 Z " />
<glyph glyph-name="nine" unicode="9" horiz-adv-x="1007" d="M208 309 L366 309 Q364 284 364 270 Q364 194 400 151.5 Q436 109 501 109 Q654 109 761 301 Q799 369 821 431.5 Q843 494 876 631 Q816 556 761 524 Q681 478 585 478 Q454 478 378 564 Q293 661 293 817 Q293 923 332 1036.5 Q371 1150 435 1228 Q499 1307 586.5 1350.5 Q674 1394 768 1394 Q944 1394 1031 1257 Q1090 1164 1090 1014 Q1090 749 999 476 Q900 177 732 55 Q618 -29 478 -29 Q358 -29 287 36 Q205 111 205 242 Q205 266 208 309 Z M759 1256 Q623 1256 533 1099 Q462 976 462 824 Q462 724 505 670 Q548 616 627 616 Q769 616 862 788 Q926 908 926 1044 Q926 1142 881 1201 Q838 1256 759 1256 Z " />
<glyph glyph-name="colon" unicode="&#x3a;" horiz-adv-x="572" d="M586 942 L540 729 L341 729 L386 942 L586 942 Z M431 213 L385 0 L186 0 L231 213 L431 213 Z " />
<glyph glyph-name="semicolon" unicode="&#x3b;" horiz-adv-x="572" d="M586 942 L540 729 L341 729 L386 942 L586 942 Z M431 213 L403 82 Q380 -26 355.5 -83.5 Q331 -141 289 -188 Q224 -259 125 -287 L146 -186 Q243 -158 278 -18 L282 0 L186 0 L231 213 L431 213 Z " />
<glyph glyph-name="less" unicode="&#x3c;" horiz-adv-x="1065" d="M1226 1176 L1191 1010 L412 683 L1052 356 L1017 190 L219 611 L249 755 L1226 1176 Z " />
<glyph glyph-name="equal" unicode="&#x3d;" horiz-adv-x="1065" d="M281 906 L1168 906 L1140 774 L253 774 L281 906 Z M217 606 L1105 606 L1076 474 L189 474 L217 606 Z " />
<glyph glyph-name="greater" unicode="&#x3e;" horiz-adv-x="1065" d="M340 1176 L1137 755 L1106 611 L130 190 L165 356 L944 683 L304 1010 L340 1176 Z " />
<glyph glyph-name="question" unicode="&#x3f;" horiz-adv-x="964" d="M339 965 Q353 1116 400 1198 Q511 1397 754 1397 Q915 1397 1003 1305 Q1081 1224 1081 1099 Q1081 888 867 698 Q771 613 737.5 575 Q704 537 678 485 Q654 436 640 337 L491 337 Q514 479 542 539 Q568 597 605 642 Q642 687 730 769 Q838 869 876 948 Q910 1020 910 1090 Q910 1168 858 1213 Q811 1254 736 1254 Q594 1254 528 1123 Q496 1059 488 965 L339 965 Z M639 213 L593 0 L394 0 L439 213 L639 213 Z " />
<glyph glyph-name="at" unicode="&#x40;" horiz-adv-x="1578" d="M1218 973 L1346 973 L1187 582 Q1157 497 1157 482 Q1157 448 1188 448 Q1243 448 1308.5 488 Q1374 528 1429 595 Q1551 744 1551 918 Q1551 1066 1455 1164 Q1328 1293 1091 1293 Q891 1293 719 1200 Q515 1091 421 885 Q360 752 360 599 Q360 402 457 266 Q518 181 609 131 Q720 71 850 71 Q1029 71 1170 143 Q1184 150 1245 185 L1256 82 Q1047 -33 836 -33 Q620 -33 462 84 Q233 254 233 578 Q233 917 470 1146 Q598 1270 770 1336 Q929 1397 1098 1397 Q1289 1397 1429 1319 Q1580 1236 1635 1076 Q1660 1003 1660 924 Q1660 796 1597 673 Q1505 494 1340 402 Q1239 345 1147 345 Q1046 345 1040 444 Q940 334 824 334 Q732 334 679 394 Q629 452 629 547 Q629 700 737 840 Q856 995 1015 995 Q1146 995 1179 877 L1218 973 Z M1013 886 Q968 888 916 856 Q864 824 827 771 Q755 668 755 557 Q755 441 850 441 Q901 441 952.5 476 Q1004 511 1040 570 Q1107 682 1107 783 Q1107 881 1013 886 Z " />
<glyph glyph-name="A" unicode="A" horiz-adv-x="1112" d="M773 1365 L958 1365 L1112 0 L934 0 L896 419 L433 419 L215 0 L37 0 L773 1365 Z M506 560 L884 560 L828 1179 L506 560 Z " />
<glyph glyph-name="B" unicode="B" horiz-adv-x="1212" d="M197 0 L487 1365 L919 1365 Q1091 1365 1174 1294 Q1272 1211 1272 1064 Q1272 930 1201.5 843.5 Q1131 757 997 727 Q1189 662 1189 444 Q1189 315 1131 213 Q1071 110 960 55 Q849 0 700 0 L197 0 Z M530 784 L759 784 Q855 784 909.5 797 Q964 810 1007 843 Q1096 910 1096 1038 Q1096 1135 1042 1177.5 Q988 1220 866 1220 L623 1220 L530 784 Z M394 145 L653 145 Q750 145 805.5 157.5 Q861 170 906 202 Q1018 282 1018 438 Q1018 570 921 619 Q887 635 853 640 Q819 645 734 645 L501 645 L394 145 Z " />
<glyph glyph-name="C" unicode="C" horiz-adv-x="1267" d="M1104 515 L1274 515 Q1223 317 1125 189 Q956 -33 685 -33 Q465 -33 353 102 Q301 163 271.5 263 Q242 363 242 474 Q242 683 311 877 Q395 1111 577 1261 Q740 1396 953 1396 Q1155 1396 1266 1275 Q1311 1227 1337 1159.5 Q1363 1092 1363 1024 Q1363 1002 1358 956 L1187 956 Q1188 976 1188 982 Q1188 1090 1131 1166 Q1067 1253 935 1253 Q711 1253 558 997 Q493 889 456 747 Q419 605 419 466 Q419 286 498 192 Q566 110 692 110 Q833 110 938 213.5 Q1043 317 1104 515 Z " />
<glyph glyph-name="D" unicode="D" horiz-adv-x="1278" d="M197 0 L487 1365 L851 1365 Q1049 1365 1172 1269 Q1326 1148 1326 879 Q1326 701 1275.5 532.5 Q1225 364 1136 243 Q1041 114 912.5 57 Q784 0 590 0 L197 0 Z M394 145 L592 145 Q681 145 732 153.5 Q783 162 831 184 Q973 251 1053 428 Q1152 646 1152 875 Q1152 1053 1060 1143 Q982 1220 836 1220 L623 1220 L394 145 Z " />
<glyph glyph-name="E" unicode="E" horiz-adv-x="1114" d="M197 0 L487 1365 L1276 1365 L1245 1220 L623 1220 L528 773 L1108 773 L1078 632 L498 632 L394 145 L1025 145 L994 0 L197 0 Z " />
<glyph glyph-name="F" unicode="F" horiz-adv-x="1024" d="M197 0 L487 1365 L1242 1365 L1211 1220 L623 1220 L528 774 L1044 774 L1014 633 L498 633 L364 0 L197 0 Z " />
<glyph glyph-name="G" unicode="G" horiz-adv-x="1348" d="M1183 0 L1042 0 L1079 174 Q993 66 897 16.5 Q801 -33 679 -33 Q453 -33 342 119 Q242 256 242 478 Q242 691 318 891 Q420 1164 641 1305 Q784 1397 962 1397 Q1181 1397 1291 1267 Q1379 1163 1379 1021 Q1379 997 1373 946 L1206 945 Q1208 973 1208 985 Q1208 1069 1170 1140 Q1109 1254 948 1254 Q701 1254 546 982 Q416 756 416 483 Q416 390 440 310 Q464 230 506 185 Q576 111 701 111 Q867 111 985 232 Q1103 353 1156 578 L797 578 L828 721 L1336 721 L1183 0 Z " />
<glyph glyph-name="H" unicode="H" horiz-adv-x="1311" d="M197 0 L487 1365 L654 1365 L532 791 L1115 791 L1238 1365 L1404 1365 L1114 0 L947 0 L1084 646 L501 646 L364 0 L197 0 Z " />
<glyph glyph-name="I" unicode="I" horiz-adv-x="561" d="M197 0 L487 1365 L654 1365 L364 0 L197 0 Z " />
<glyph glyph-name="J" unicode="J" horiz-adv-x="643" d="M-4 -19 L27 128 Q69 110 116 110 Q252 110 326 234 Q350 274 364.5 320 Q379 366 406 495 L591 1365 L758 1365 L567 467 Q532 305 506 234 Q480 163 433 104 Q376 33 295 0 Q214 -33 98 -33 Q50 -33 -4 -19 Z " />
<glyph glyph-name="K" unicode="K" horiz-adv-x="1138" d="M785 791 L1132 0 L943 0 L653 669 L470 501 L364 0 L197 0 L487 1365 L654 1365 L517 720 L1205 1365 L1411 1365 L785 791 Z " />
<glyph glyph-name="L" unicode="L" horiz-adv-x="962" d="M197 0 L487 1365 L654 1365 L394 145 L989 145 L958 0 L197 0 Z " />
<glyph glyph-name="M" unicode="M" horiz-adv-x="1547" d="M197 0 L487 1365 L704 1365 L820 213 L1413 1365 L1641 1365 L1350 0 L1198 0 L1445 1164 L860 0 L694 0 L588 1141 L346 0 L197 0 Z " />
<glyph glyph-name="N" unicode="N" horiz-adv-x="1320" d="M197 0 L487 1365 L667 1365 L1020 232 L1261 1365 L1413 1365 L1123 0 L943 0 L590 1133 L350 0 L197 0 Z " />
<glyph glyph-name="O" unicode="O" horiz-adv-x="1353" d="M946 1396 Q1156 1396 1277 1264 Q1343 1191 1376 1074 Q1402 985 1402 888 Q1402 732 1356 571.5 Q1310 411 1229 285 Q1024 -33 697 -33 Q460 -33 343 126 Q242 263 242 482 Q242 690 316 885 Q409 1133 596 1277 Q753 1396 946 1396 Z M931 1250 Q715 1250 562 1008 Q417 780 417 473 Q417 286 502 194 Q579 110 698 110 Q924 110 1079 359 Q1147 469 1186.5 611.5 Q1226 754 1226 890 Q1226 1072 1138 1170 Q1065 1250 931 1250 Z " />
<glyph glyph-name="P" unicode="P" horiz-adv-x="1133" d="M197 0 L487 1365 L893 1365 Q1075 1365 1168 1274 Q1261 1182 1261 1022 Q1261 912 1217 817 Q1173 722 1093 661 Q964 562 736 562 L483 562 L364 0 L197 0 Z M514 707 L747 707 Q833 707 889 724 Q945 741 988 781 Q1082 867 1082 1013 Q1082 1127 1006 1183 Q956 1220 834 1220 L623 1220 L514 707 Z " />
<glyph glyph-name="Q" unicode="Q" horiz-adv-x="1353" d="M970 34 Q848 -33 692 -33 Q461 -33 343 127 Q242 263 242 485 Q242 690 315 885 Q408 1134 596 1277 Q752 1396 945 1396 Q1159 1396 1277 1264 Q1335 1199 1368.5 1098.5 Q1402 998 1402 888 Q1402 670 1318 460.5 Q1234 251 1096 125 L1201 -18 L1080 -116 L970 34 Z M879 158 L768 309 L890 406 L1001 255 Q1075 341 1126 447 Q1226 657 1226 891 Q1226 976 1202.5 1050.5 Q1179 1125 1138 1170 Q1065 1250 931 1250 Q715 1250 562 1008 Q417 780 417 476 Q417 286 502 194 Q579 110 698 110 Q791 110 879 158 Z " />
<glyph glyph-name="R" unicode="R" horiz-adv-x="1230" d="M197 0 L487 1365 L944 1365 Q1299 1365 1299 1045 Q1299 727 978 662 Q1132 630 1132 474 Q1132 440 1125 386 L1102 208 Q1094 147 1094 106 Q1094 35 1119 0 L929 0 Q919 27 919 53 Q919 80 930 166 L957 394 Q961 423 961 461 Q961 535 918.5 563.5 Q876 592 766 592 L489 592 L364 0 L197 0 Z M520 735 L748 735 Q862 735 922 750 Q982 765 1029 804 Q1121 884 1121 1026 Q1121 1125 1064.5 1172.5 Q1008 1220 889 1220 L623 1220 L520 735 Z " />
<glyph glyph-name="S" unicode="S" horiz-adv-x="1112" d="M197 424 L361 424 Q354 375 354 341 Q354 261 391 206 Q452 115 607 115 Q773 115 859 229 Q909 297 909 387 Q909 535 736 606 L568 676 Q451 724 395 801.5 Q339 879 339 992 Q339 1158 445 1265 Q575 1397 791 1397 Q983 1397 1089 1301 Q1181 1217 1181 1084 Q1181 1055 1174 1000 L1000 1000 Q1007 1037 1007 1061 Q1007 1150 949.5 1200.5 Q892 1251 791 1251 Q663 1251 585 1179 Q518 1116 518 1014 Q518 942 555.5 894 Q593 846 676 811 L858 736 Q982 684 1037.5 607.5 Q1093 531 1093 411 Q1093 234 981 114 Q845 -32 593 -32 Q473 -32 391.5 -1 Q310 30 257 96 Q186 185 186 313 Q186 357 197 424 Z " />
<glyph glyph-name="T" unicode="T" horiz-adv-x="916" d="M366 0 L626 1220 L246 1220 L277 1365 L1203 1365 L1172 1220 L792 1220 L533 0 L366 0 Z " />
<glyph glyph-name="U" unicode="U" horiz-adv-x="1283" d="M466 1365 L630 1365 L466 594 Q431 427 431 345 Q431 227 499 167 Q563 110 678 110 Q884 110 977 283 Q1017 358 1067 594 L1231 1365 L1397 1365 L1234 596 Q1192 398 1173 341 Q1105 142 975 50 Q856 -33 675 -33 Q451 -33 344 89 Q264 181 264 317 Q264 416 303 599 L466 1365 Z " />
<glyph glyph-name="V" unicode="V" horiz-adv-x="1074" d="M444 0 L328 1365 L506 1365 L578 183 L1152 1365 L1327 1365 L631 0 L444 0 Z " />
<glyph glyph-name="W" unicode="W" horiz-adv-x="1556" d="M343 0 L338 1365 L501 1365 L480 233 L970 1365 L1159 1365 L1166 231 L1632 1365 L1798 1365 L1204 0 L1030 0 L1021 1154 L519 0 L343 0 Z " />
<glyph glyph-name="X" unicode="X" horiz-adv-x="1058" d="M32 0 L581 699 L347 1365 L535 1365 L701 837 L1104 1365 L1294 1365 L777 708 L1026 0 L836 0 L654 560 L225 0 L32 0 Z " />
<glyph glyph-name="Y" unicode="Y" horiz-adv-x="1019" d="M424 0 L543 560 L273 1365 L464 1365 L662 722 L1128 1365 L1319 1365 L710 560 L591 0 L424 0 Z " />
<glyph glyph-name="Z" unicode="Z" horiz-adv-x="1064" d="M68 0 L100 151 L1039 1220 L385 1220 L416 1365 L1251 1365 L1220 1218 L279 145 L1007 145 L976 0 L68 0 Z " />
<glyph glyph-name="bracketleft" unicode="&#x5b;" horiz-adv-x="631" d="M790 1365 L763 1238 L591 1238 L280 -227 L452 -227 L424 -355 L111 -355 L477 1365 L790 1365 Z " />
<glyph glyph-name="backslash" unicode="&#x5c;" horiz-adv-x="725" d="M548 -355 L341 1365 L467 1365 L678 -355 L548 -355 Z " />
<glyph glyph-name="bracketright" unicode="&#x5d;" horiz-adv-x="631" d="M55 -355 L82 -228 L254 -228 L565 1237 L393 1237 L421 1365 L734 1365 L368 -355 L55 -355 Z " />
<glyph glyph-name="asciicircum" unicode="&#x5e;" horiz-adv-x="1062" d="M400 764 L244 764 L727 1369 L916 1369 L1142 764 L985 764 L796 1255 L400 764 Z " />
<glyph glyph-name="underscore" unicode="&#x5f;" horiz-adv-x="1065" d="M65 -110 L953 -110 L924 -242 L37 -242 L65 -110 Z " />
<glyph glyph-name="grave" unicode="&#x60;" horiz-adv-x="1239" d="M845 1365 L949 1092 L819 1092 L699 1365 L845 1365 Z " />
<glyph glyph-name="a" unicode="a" horiz-adv-x="964" d="M945 115 L920 -3 Q871 -18 838 -18 Q778 -18 741 14.5 Q704 47 704 100 Q704 112 707 135 Q562 -29 377 -29 Q259 -29 192 36 Q128 98 128 196 Q128 301 193.5 384 Q259 467 375 510 Q445 535 531 545.5 Q617 556 797 560 L816 648 Q825 690 825 716 Q825 847 642 847 Q487 847 449 760 L284 759 Q352 971 644 971 Q781 971 866 922 Q972 862 972 736 Q972 693 947 575 L871 219 Q861 170 861 156 Q861 110 909 110 Q922 110 945 115 Z M776 458 Q584 451 486 426 Q392 403 339 348.5 Q286 294 286 221 Q286 162 322 128 Q358 94 420 94 Q565 94 673 221 Q743 304 765 406 L776 458 Z " />
<glyph glyph-name="b" unicode="b" horiz-adv-x="1082" d="M157 0 L447 1365 L600 1365 L487 833 Q612 971 786 971 Q925 971 1012 887 Q1110 793 1110 623 Q1110 498 1068 371.5 Q1026 245 955 156 Q807 -29 590 -29 Q499 -29 440 4 Q381 37 332 114 L308 0 L157 0 Z M757 848 Q683 848 613.5 806.5 Q544 765 495 692 Q449 622 421 521 Q393 420 393 324 Q393 204 461 143 Q515 94 596 94 Q751 94 858 264 Q954 418 954 608 Q954 739 888 800 Q835 848 757 848 Z " />
<glyph glyph-name="c" unicode="c" horiz-adv-x="948" d="M801 336 L965 336 Q940 226 858 130 Q722 -29 516 -29 Q350 -29 260 65 Q164 164 164 334 Q164 454 198.5 568 Q233 682 295 764 Q450 971 696 971 Q851 971 938 892 Q1026 811 1026 680 Q1026 664 1025 644 L859 644 Q858 707 849 736 Q811 848 683 848 Q518 848 410 670 Q320 521 320 332 Q320 220 374 157 Q428 94 523 94 Q648 94 736 208 Q776 259 801 336 Z " />
<glyph glyph-name="d" unicode="d" horiz-adv-x="1081" d="M923 0 L770 0 L794 114 Q672 -29 491 -29 Q345 -29 258 59 Q214 103 189 174.5 Q164 246 164 326 Q164 458 203.5 586 Q243 714 308 793 Q454 971 676 971 Q858 971 947 833 L1061 1365 L1213 1365 L923 0 Z M683 848 Q522 848 420 685 Q322 531 322 340 Q322 210 387 146 Q438 94 519 94 Q600 94 672 139 Q744 184 793 265 Q835 334 860.5 428.5 Q886 523 886 611 Q886 742 812 803 Q758 848 683 848 Z " />
<glyph glyph-name="e" unicode="e" horiz-adv-x="986" d="M995 431 L337 431 Q326 373 326 331 Q326 232 372 172 Q434 93 551 93 Q658 93 736 166 L909 166 Q850 71 755 21 Q660 -29 539 -29 Q374 -29 280 57 Q166 162 166 351 Q166 471 205 588 Q244 705 312 789 Q459 971 679 971 Q853 971 940 876 Q1022 785 1022 642 Q1022 559 995 431 Z M856 554 Q864 605 864 636 Q864 728 823 783 Q775 848 673 848 Q545 848 454 731 Q400 660 366 554 L856 554 Z " />
<glyph glyph-name="f" unicode="f" horiz-adv-x="503" d="M164 0 L337 815 L189 815 L216 942 L364 942 L405 1127 Q423 1212 442 1254 Q461 1296 495 1327 Q569 1396 691 1396 Q738 1396 803 1382 L775 1247 Q732 1261 699 1261 Q636 1261 602.5 1225 Q569 1189 551 1101 L517 942 L687 942 L660 815 L490 815 L317 0 L164 0 Z " />
<glyph glyph-name="g" unicode="g" horiz-adv-x="1059" d="M80 -147 L249 -148 Q257 -188 304.5 -210 Q352 -232 430 -232 Q561 -232 641 -156 Q721 -80 754 77 L767 139 Q660 -13 479 -13 Q340 -13 256 75 Q212 120 187 192 Q162 264 162 344 Q162 459 200.5 575.5 Q239 692 307 781 Q452 971 670 971 Q765 971 826 936 Q887 901 924 825 L948 942 L1099 942 L927 133 Q900 4 875.5 -60 Q851 -124 808 -182 Q679 -355 415 -355 Q261 -355 173.5 -301 Q86 -247 80 -147 Z M663 848 Q505 848 408 672 Q321 516 321 340 Q321 248 356 191 Q406 110 509 110 Q670 110 772 291 Q860 445 860 619 Q860 716 820 775 Q770 848 663 848 Z " />
<glyph glyph-name="h" unicode="h" horiz-adv-x="1049" d="M157 0 L447 1365 L600 1365 L485 828 Q612 971 788 971 Q909 971 976.5 909 Q1044 847 1044 737 Q1044 673 1031 612 L901 0 L748 0 L874 594 Q888 657 888 712 Q888 776 848.5 812 Q809 848 738 848 Q584 848 491 707 Q464 666 446 613 Q428 560 404 445 L310 0 L157 0 Z " />
<glyph glyph-name="i" unicode="i" horiz-adv-x="467" d="M157 0 L357 942 L510 942 L310 0 L157 0 Z M403 1157 L447 1365 L609 1365 L565 1157 L403 1157 Z " />
<glyph glyph-name="j" unicode="j" horiz-adv-x="467" d="M-60 -349 L-32 -218 Q-1 -226 22 -226 Q110 -226 136 -101 L358 942 L510 942 L293 -80 Q265 -211 212 -272 Q140 -355 9 -355 Q-20 -355 -60 -349 Z M404 1157 L448 1365 L610 1365 L565 1157 L404 1157 Z " />
<glyph glyph-name="k" unicode="k" horiz-adv-x="954" d="M659 585 L933 0 L755 0 L531 483 L388 370 L310 0 L157 0 L447 1365 L600 1365 L429 563 L900 942 L1110 942 L659 585 Z " />
<glyph glyph-name="l" unicode="l" horiz-adv-x="467" d="M157 0 L447 1365 L600 1365 L310 0 L157 0 Z " />
<glyph glyph-name="m" unicode="m" horiz-adv-x="1546" d="M157 0 L357 942 L505 942 L480 823 Q610 971 770 971 Q859 971 917 930.5 Q975 890 994 814 Q1129 971 1313 971 Q1431 971 1495 905 Q1553 846 1553 753 Q1553 709 1541 651 L1402 0 L1250 0 L1376 594 Q1394 679 1394 722 Q1394 848 1258 848 Q1111 848 1026 705 Q995 653 962 500 L856 0 L703 0 L832 606 Q849 685 849 732 Q849 849 725 849 Q655 849 590.5 810 Q526 771 484 703 Q446 641 416 499 L310 0 L157 0 Z " />
<glyph glyph-name="n" unicode="n" horiz-adv-x="1044" d="M157 0 L357 942 L510 942 L485 828 Q612 971 788 971 Q909 971 976.5 909 Q1044 847 1044 737 Q1044 673 1031 612 L901 0 L748 0 L874 594 Q888 657 888 712 Q888 776 848.5 812 Q809 848 738 848 Q584 848 491 707 Q464 666 446 613 Q428 560 404 445 L310 0 L157 0 Z " />
<glyph glyph-name="o" unicode="o" horiz-adv-x="1023" d="M703 971 Q858 971 953 887 Q1061 793 1061 604 Q1061 469 1012 337 Q935 128 775 34 Q668 -29 531 -29 Q359 -29 265 63 Q164 161 164 332 Q164 449 199.5 564 Q235 679 297 763 Q450 971 703 971 Z M694 848 Q523 848 413 675 Q320 528 320 336 Q320 195 401 134 Q455 94 535 94 Q688 94 791 239 Q842 311 872.5 410.5 Q903 510 903 606 Q903 743 826 804 Q773 848 694 848 Z " />
<glyph glyph-name="p" unicode="p" horiz-adv-x="1082" d="M83 -355 L359 942 L512 942 L487 828 Q606 971 787 971 Q938 971 1025 883 Q1068 839 1093.5 767 Q1119 695 1119 616 Q1119 490 1077.5 365 Q1036 240 967 155 Q817 -29 600 -29 Q411 -29 334 109 L236 -355 L83 -355 Z M763 848 Q683 848 610.5 803 Q538 758 488 677 Q446 609 421 513.5 Q396 418 396 329 Q396 200 470 139 Q525 94 601 94 Q760 94 863 257 Q961 410 961 599 Q961 730 896 796 Q845 848 763 848 Z " />
<glyph glyph-name="q" unicode="q" horiz-adv-x="1080" d="M847 -355 L694 -355 L793 109 Q728 35 660 3 Q592 -29 499 -29 Q349 -29 261 58 Q162 155 162 350 Q162 607 316 794 Q462 971 683 971 Q876 971 946 828 L970 942 L1123 942 L847 -355 Z M681 848 Q524 848 417 678 Q321 524 321 334 Q321 202 388 142 Q442 94 520 94 Q595 94 664 135 Q733 176 782 251 Q829 321 857 420 Q885 519 885 615 Q885 738 817 799 Q762 848 681 848 Z " />
<glyph glyph-name="r" unicode="r" horiz-adv-x="635" d="M157 0 L357 942 L501 942 L463 765 Q514 845 575 892 Q621 928 685.5 950 Q750 972 808 972 Q818 972 840 971 L804 800 Q765 804 753 804 Q634 804 543 715 Q483 658 449.5 579.5 Q416 501 381 337 L310 0 L157 0 Z " />
<glyph glyph-name="s" unicode="s" horiz-adv-x="902" d="M153 266 L319 266 Q314 239 314 225 Q314 166 358.5 132 Q403 98 480 98 Q569 98 626 142 Q686 187 686 257 Q686 324 600 372 L422 470 Q272 554 272 699 Q272 823 364.5 897 Q457 971 612 971 Q752 971 832 914 Q912 857 912 754 Q912 732 908 699 L748 699 Q751 723 751 737 Q751 791 712 820.5 Q673 850 603 850 Q527 850 480.5 814 Q434 778 434 719 Q434 651 520 603 L724 488 Q867 407 867 278 Q867 138 761 54.5 Q655 -29 478 -29 Q291 -29 209 56 Q148 118 148 214 Q148 231 153 266 Z " />
<glyph glyph-name="t" unicode="t" horiz-adv-x="547" d="M194 815 L221 942 L369 942 L399 1083 L559 1249 L587 1249 L522 942 L698 942 L671 815 L495 815 L376 258 Q365 204 365 171 Q365 141 386 123.5 Q407 106 443 106 Q471 106 523 119 L496 -7 Q438 -20 396 -20 Q206 -20 206 137 Q206 175 228 276 L342 815 L194 815 Z " />
<glyph glyph-name="u" unicode="u" horiz-adv-x="1049" d="M1092 942 L892 0 L740 0 L764 114 Q637 -29 461 -29 Q340 -29 272.5 33 Q205 95 205 205 Q205 267 218 330 L349 942 L501 942 L375 348 Q361 283 361 230 Q361 166 400.5 130 Q440 94 511 94 Q665 94 758 235 Q786 276 803.5 329 Q821 382 845 497 L940 942 L1092 942 Z " />
<glyph glyph-name="v" unicode="v" horiz-adv-x="828" d="M332 0 L207 942 L376 942 L455 184 L848 942 L1021 941 L502 0 L332 0 Z " />
<glyph glyph-name="w" unicode="w" horiz-adv-x="1255" d="M287 0 L207 942 L371 942 L408 197 L744 942 L910 942 L936 199 L1287 942 L1449 942 L970 0 L804 0 L779 718 L455 0 L287 0 Z " />
<glyph glyph-name="x" unicode="x" horiz-adv-x="862" d="M7 0 L441 496 L232 942 L416 942 L552 614 L832 942 L1017 942 L623 509 L853 0 L669 0 L508 381 L193 0 L7 0 Z " />
<glyph glyph-name="y" unicode="y" horiz-adv-x="848" d="M20 -340 L48 -208 Q60 -212 66 -215 Q102 -229 131 -229 Q217 -229 271 -140 L361 10 L207 942 L381 942 L476 211 L869 942 L1041 942 L443 -101 Q367 -234 312 -283 Q233 -355 121 -355 Q77 -355 20 -340 Z " />
<glyph glyph-name="z" unicode="z" horiz-adv-x="822" d="M48 0 L72 113 L767 815 L257 815 L284 942 L981 942 L960 841 L259 127 L828 127 L801 0 L48 0 Z " />
<glyph glyph-name="braceleft" unicode="&#x7b;" horiz-adv-x="656" d="M351 503 Q394 477 411.5 446 Q429 415 429 366 Q429 324 417 269 L349 -54 Q337 -109 337 -147 Q337 -195 383 -215 Q410 -227 482 -227 L505 -227 L477 -355 L440 -355 L386 -356 Q351 -356 309.5 -342 Q268 -328 244 -307 Q191 -262 191 -184 Q191 -128 205 -63 L275 265 Q284 309 284 344 Q284 428 198 451 L222 565 Q289 582 324 622.5 Q359 663 376 742 L451 1093 Q482 1239 564.5 1302 Q647 1365 806 1365 L843 1365 L816 1238 L793 1238 Q697 1238 652.5 1201.5 Q608 1165 587 1069 L516 733 Q496 639 460 589 Q424 539 351 503 Z " />
<glyph glyph-name="bar" unicode="&#x7c;" horiz-adv-x="1281" d="M848 1365 L1014 1365 L651 -341 L485 -341 L848 1365 Z " />
<glyph glyph-name="braceright" unicode="&#x7d;" horiz-adv-x="682" d="M519 503 Q475 531 458.5 559.5 Q442 588 442 638 Q442 685 452 733 L524 1069 Q534 1118 534 1149 Q534 1238 390 1238 L367 1238 L394 1365 L430 1365 Q682 1365 682 1188 Q682 1147 671 1093 L596 742 Q588 705 588 669 Q588 589 675 565 L650 451 Q583 434 548 392.5 Q513 351 495 265 L425 -63 Q394 -206 334 -271 Q299 -309 239 -332.5 Q179 -356 119 -356 L65 -355 L28 -355 L55 -227 L78 -227 Q176 -227 214 -198 Q242 -177 257 -146.5 Q272 -116 285 -54 L354 269 Q374 364 410.5 416 Q447 468 519 503 Z " />
<glyph glyph-name="asciitilde" unicode="&#x7e;" horiz-adv-x="1481" d="M592 1186 L518 1256 Q602 1377 680 1432 Q758 1487 844 1487 Q922 1487 1062 1409 Q1141 1365 1174 1352.5 Q1207 1340 1243 1340 Q1342 1340 1461 1492 L1534 1422 Q1374 1189 1206 1189 Q1166 1189 1123.5 1205 Q1081 1221 991 1270 Q914 1312 879.5 1324.5 Q845 1337 808 1337 Q754 1337 705.5 1303 Q657 1269 592 1186 Z " />
<glyph glyph-name="Adieresis" unicode="&#xc4;" horiz-adv-x="1112" d="M773 1365 L958 1365 L1112 0 L934 0 L896 419 L433 419 L215 0 L37 0 L773 1365 Z M506 560 L884 560 L828 1179 L506 560 Z M1133 1655 L1092 1461 L948 1461 L989 1655 L1133 1655 Z M850 1655 L808 1461 L665 1461 L706 1655 L850 1655 Z " />
<glyph glyph-name="Aring" unicode="&#xc5;" horiz-adv-x="1112" d="M773 1365 L958 1365 L1112 0 L934 0 L896 419 L433 419 L215 0 L37 0 L773 1365 Z M506 560 L884 560 L828 1179 L506 560 Z M907 1733 Q865 1733 835.5 1702 Q806 1671 806 1627 Q806 1583 835 1552 Q864 1521 905 1521 Q947 1521 976 1552 Q1005 1583 1005 1627 Q1005 1670 976 1701.5 Q947 1733 907 1733 Z M908 1821 Q988 1821 1045.5 1764 Q1103 1707 1103 1627 Q1103 1547 1045 1490.5 Q987 1434 905 1434 Q823 1434 765 1490.5 Q707 1547 707 1626 Q707 1708 765 1764.5 Q823 1821 908 1821 Z " />
<glyph glyph-name="Ccedilla" unicode="&#xc7;" horiz-adv-x="1267" d="M682 -33 L638 -106 Q665 -95 693 -95 Q753 -95 789.5 -129.5 Q826 -164 826 -222 Q826 -303 765.5 -358.5 Q705 -414 615 -414 Q550 -414 508.5 -386 Q467 -358 467 -314 Q467 -310 468 -303 L573 -303 Q574 -337 619 -337 Q659 -337 685 -306 Q711 -275 711 -229 Q711 -171 655 -171 Q612 -171 594 -201 L492 -201 L597 -26 Q512 -12 450 22 Q354 76 307 173 Q242 308 242 475 Q242 683 311 877 Q395 1111 577 1261 Q740 1396 953 1396 Q1155 1396 1266 1275 Q1311 1227 1337 1159.5 Q1363 1092 1363 1024 Q1363 1002 1358 956 L1187 956 Q1188 976 1188 982 Q1188 1090 1131 1166 Q1067 1253 935 1253 Q711 1253 558 997 Q493 889 456 747.5 Q419 606 419 467 Q419 287 498 193 Q566 111 692 111 Q833 111 938 214 Q1043 317 1104 515 L1274 515 Q1209 264 1064 119 Q911 -33 682 -33 Z " />
<glyph glyph-name="Eacute" unicode="&#xc9;" horiz-adv-x="1114" d="M197 0 L487 1365 L1276 1365 L1245 1220 L623 1220 L528 773 L1108 773 L1078 632 L498 632 L394 145 L1025 145 L994 0 L197 0 Z M1185 1734 L932 1479 L802 1479 L1033 1734 L1185 1734 Z " />
<glyph glyph-name="Ntilde" unicode="&#xd1;" horiz-adv-x="1320" d="M197 0 L487 1365 L667 1365 L1020 232 L1261 1365 L1413 1365 L1123 0 L943 0 L590 1133 L350 0 L197 0 Z M1305 1686 Q1271 1586 1213.5 1530 Q1156 1474 1088 1474 Q1031 1474 970 1531 Q923 1574 886 1574 Q826 1574 788 1481 L685 1481 Q762 1693 904 1693 Q961 1693 1022 1639 Q1071 1597 1100 1597 Q1161 1597 1199 1686 L1305 1686 Z " />
<glyph glyph-name="Odieresis" unicode="&#xd6;" horiz-adv-x="1353" d="M946 1396 Q1156 1396 1277 1264 Q1343 1191 1376 1074 Q1402 985 1402 888 Q1402 732 1356 571.5 Q1310 411 1229 285 Q1024 -33 697 -33 Q460 -33 343 126 Q242 263 242 482 Q242 690 316 885 Q409 1133 596 1277 Q753 1396 946 1396 Z M931 1250 Q715 1250 562 1008 Q417 780 417 473 Q417 286 502 194 Q579 110 698 110 Q924 110 1079 359 Q1147 469 1186.5 611.5 Q1226 754 1226 890 Q1226 1072 1138 1170 Q1065 1250 931 1250 Z M1246 1655 L1205 1461 L1061 1461 L1102 1655 L1246 1655 Z M963 1655 L921 1461 L778 1461 L819 1655 L963 1655 Z " />
<glyph glyph-name="Udieresis" unicode="&#xdc;" horiz-adv-x="1283" d="M466 1365 L630 1365 L466 594 Q431 427 431 345 Q431 227 499 167 Q563 110 678 110 Q884 110 977 283 Q1017 358 1067 594 L1231 1365 L1397 1365 L1234 596 Q1192 398 1173 341 Q1105 142 975 50 Q856 -33 675 -33 Q451 -33 344 89 Q264 181 264 317 Q264 416 303 599 L466 1365 Z M1216 1655 L1175 1461 L1031 1461 L1072 1655 L1216 1655 Z M933 1655 L891 1461 L748 1461 L789 1655 L933 1655 Z " />
<glyph glyph-name="aacute" unicode="&#xe1;" horiz-adv-x="964" d="M945 115 L920 -3 Q871 -18 838 -18 Q778 -18 741 14.5 Q704 47 704 100 Q704 112 707 135 Q562 -29 377 -29 Q259 -29 192 36 Q128 98 128 196 Q128 301 193.5 384 Q259 467 375 510 Q445 535 531 545.5 Q617 556 797 560 L816 648 Q825 690 825 716 Q825 847 642 847 Q487 847 449 760 L284 759 Q352 971 644 971 Q781 971 866 922 Q972 862 972 736 Q972 693 947 575 L871 219 Q861 170 861 156 Q861 110 909 110 Q922 110 945 115 Z M776 458 Q584 451 486 426 Q392 403 339 348.5 Q286 294 286 221 Q286 162 322 128 Q358 94 420 94 Q565 94 673 221 Q743 304 765 406 L776 458 Z M1012 1365 L775 1092 L645 1092 L866 1365 L1012 1365 Z " />
<glyph glyph-name="agrave" unicode="&#xe0;" horiz-adv-x="964" d="M945 115 L920 -3 Q871 -18 838 -18 Q778 -18 741 14.5 Q704 47 704 100 Q704 112 707 135 Q562 -29 377 -29 Q259 -29 192 36 Q128 98 128 196 Q128 301 193.5 384 Q259 467 375 510 Q445 535 531 545.5 Q617 556 797 560 L816 648 Q825 690 825 716 Q825 847 642 847 Q487 847 449 760 L284 759 Q352 971 644 971 Q781 971 866 922 Q972 862 972 736 Q972 693 947 575 L871 219 Q861 170 861 156 Q861 110 909 110 Q922 110 945 115 Z M776 458 Q584 451 486 426 Q392 403 339 348.5 Q286 294 286 221 Q286 162 322 128 Q358 94 420 94 Q565 94 673 221 Q743 304 765 406 L776 458 Z M728 1365 L832 1092 L702 1092 L582 1365 L728 1365 Z " />
<glyph glyph-name="acircumflex" unicode="&#xe2;" horiz-adv-x="964" d="M945 115 L920 -3 Q871 -18 838 -18 Q778 -18 741 14.5 Q704 47 704 100 Q704 112 707 135 Q562 -29 377 -29 Q259 -29 192 36 Q128 98 128 196 Q128 301 193.5 384 Q259 467 375 510 Q445 535 531 545.5 Q617 556 797 560 L816 648 Q825 690 825 716 Q825 847 642 847 Q487 847 449 760 L284 759 Q352 971 644 971 Q781 971 866 922 Q972 862 972 736 Q972 693 947 575 L871 219 Q861 170 861 156 Q861 110 909 110 Q922 110 945 115 Z M776 458 Q584 451 486 426 Q392 403 339 348.5 Q286 294 286 221 Q286 162 322 128 Q358 94 420 94 Q565 94 673 221 Q743 304 765 406 L776 458 Z M984 1092 L848 1092 L766 1289 L598 1092 L459 1092 L696 1365 L860 1365 L984 1092 Z " />
<glyph glyph-name="adieresis" unicode="&#xe4;" horiz-adv-x="964" d="M945 115 L920 -3 Q871 -18 838 -18 Q778 -18 741 14.5 Q704 47 704 100 Q704 112 707 135 Q562 -29 377 -29 Q259 -29 192 36 Q128 98 128 196 Q128 301 193.5 384 Q259 467 375 510 Q445 535 531 545.5 Q617 556 797 560 L816 648 Q825 690 825 716 Q825 847 642 847 Q487 847 449 760 L284 759 Q352 971 644 971 Q781 971 866 922 Q972 862 972 736 Q972 693 947 575 L871 219 Q861 170 861 156 Q861 110 909 110 Q922 110 945 115 Z M776 458 Q584 451 486 426 Q392 403 339 348.5 Q286 294 286 221 Q286 162 322 128 Q358 94 420 94 Q565 94 673 221 Q743 304 765 406 L776 458 Z M975 1297 L935 1106 L791 1106 L832 1297 L975 1297 Z M692 1297 L651 1106 L508 1106 L549 1297 L692 1297 Z " />
<glyph glyph-name="atilde" unicode="&#xe3;" horiz-adv-x="964" d="M945 115 L920 -3 Q871 -18 838 -18 Q778 -18 741 14.5 Q704 47 704 100 Q704 112 707 135 Q562 -29 377 -29 Q259 -29 192 36 Q128 98 128 196 Q128 301 193.5 384 Q259 467 375 510 Q445 535 531 545.5 Q617 556 797 560 L816 648 Q825 690 825 716 Q825 847 642 847 Q487 847 449 760 L284 759 Q352 971 644 971 Q781 971 866 922 Q972 862 972 736 Q972 693 947 575 L871 219 Q861 170 861 156 Q861 110 909 110 Q922 110 945 115 Z M776 458 Q584 451 486 426 Q392 403 339 348.5 Q286 294 286 221 Q286 162 322 128 Q358 94 420 94 Q565 94 673 221 Q743 304 765 406 L776 458 Z M1060 1317 Q985 1106 861 1106 Q812 1106 735 1162 Q677 1205 646 1205 Q595 1205 555 1113 L454 1113 Q477 1181 505 1224 Q571 1324 658 1324 Q709 1324 781 1268 Q838 1224 863 1224 Q919 1224 958 1317 L1060 1317 Z " />
<glyph glyph-name="aring" unicode="&#xe5;" horiz-adv-x="964" d="M945 115 L920 -3 Q871 -18 838 -18 Q778 -18 741 14.5 Q704 47 704 100 Q704 112 707 135 Q562 -29 377 -29 Q259 -29 192 36 Q128 98 128 196 Q128 301 193.5 384 Q259 467 375 510 Q445 535 531 545.5 Q617 556 797 560 L816 648 Q825 690 825 716 Q825 847 642 847 Q487 847 449 760 L284 759 Q352 971 644 971 Q781 971 866 922 Q972 862 972 736 Q972 693 947 575 L871 219 Q861 170 861 156 Q861 110 909 110 Q922 110 945 115 Z M776 458 Q584 451 486 426 Q392 403 339 348.5 Q286 294 286 221 Q286 162 322 128 Q358 94 420 94 Q565 94 673 221 Q743 304 765 406 L776 458 Z M745 1356 Q703 1356 674.5 1326 Q646 1296 646 1252 Q646 1209 674.5 1179 Q703 1149 743 1149 Q784 1149 812.5 1179 Q841 1209 841 1251 Q841 1295 813 1325.5 Q785 1356 745 1356 Z M747 1440 Q825 1440 880.5 1384.5 Q936 1329 936 1251 Q936 1174 879.5 1119.5 Q823 1065 743 1065 Q664 1065 607.5 1120 Q551 1175 551 1252 Q551 1331 607.5 1385.5 Q664 1440 747 1440 Z " />
<glyph glyph-name="ccedilla" unicode="&#xe7;" horiz-adv-x="948" d="M526 -28 L480 -108 Q502 -99 525 -99 Q582 -99 618.5 -134.5 Q655 -170 655 -226 Q655 -305 597.5 -357.5 Q540 -410 452 -410 Q393 -410 356 -383.5 Q319 -357 319 -313 Q319 -308 319 -301 L412 -301 Q414 -335 461 -335 Q501 -335 527 -305 Q553 -275 553 -230 Q553 -172 496 -172 Q454 -172 437 -201 L344 -201 L447 -24 Q389 -14 349 3 Q262 41 217 123 Q164 219 164 334 Q164 454 198.5 568 Q233 682 295 764 Q451 971 696 971 Q851 971 938 892 Q1026 811 1026 680 Q1026 664 1025 644 L859 644 Q858 707 849 736 Q811 848 683 848 Q518 848 410 670 Q320 521 320 332 Q320 220 374 157 Q428 94 523 94 Q648 94 736 208 Q776 259 801 336 L965 336 Q929 179 805.5 76.5 Q682 -26 526 -28 Z " />
<glyph glyph-name="eacute" unicode="&#xe9;" horiz-adv-x="986" d="M995 431 L337 431 Q326 373 326 331 Q326 232 372 172 Q434 93 551 93 Q658 93 736 166 L909 166 Q850 71 755 21 Q660 -29 539 -29 Q374 -29 280 57 Q166 162 166 351 Q166 471 205 588 Q244 705 312 789 Q459 971 679 971 Q853 971 940 876 Q1022 785 1022 642 Q1022 559 995 431 Z M856 554 Q864 605 864 636 Q864 728 823 783 Q775 848 673 848 Q545 848 454 731 Q400 660 366 554 L856 554 Z M1021 1365 L784 1092 L654 1092 L875 1365 L1021 1365 Z " />
<glyph glyph-name="egrave" unicode="&#xe8;" horiz-adv-x="986" d="M995 431 L337 431 Q326 373 326 331 Q326 232 372 172 Q434 93 551 93 Q658 93 736 166 L909 166 Q850 71 755 21 Q660 -29 539 -29 Q374 -29 280 57 Q166 162 166 351 Q166 471 205 588 Q244 705 312 789 Q459 971 679 971 Q853 971 940 876 Q1022 785 1022 642 Q1022 559 995 431 Z M856 554 Q864 605 864 636 Q864 728 823 783 Q775 848 673 848 Q545 848 454 731 Q400 660 366 554 L856 554 Z M736 1365 L840 1092 L710 1092 L590 1365 L736 1365 Z " />
<glyph glyph-name="ecircumflex" unicode="&#xea;" horiz-adv-x="986" d="M995 431 L337 431 Q326 373 326 331 Q326 232 372 172 Q434 93 551 93 Q658 93 736 166 L909 166 Q850 71 755 21 Q660 -29 539 -29 Q374 -29 280 57 Q166 162 166 351 Q166 471 205 588 Q244 705 312 789 Q459 971 679 971 Q853 971 940 876 Q1022 785 1022 642 Q1022 559 995 431 Z M856 554 Q864 605 864 636 Q864 728 823 783 Q775 848 673 848 Q545 848 454 731 Q400 660 366 554 L856 554 Z M989 1092 L853 1092 L771 1289 L603 1092 L464 1092 L701 1365 L865 1365 L989 1092 Z " />
<glyph glyph-name="edieresis" unicode="&#xeb;" horiz-adv-x="986" d="M995 431 L337 431 Q326 373 326 331 Q326 232 372 172 Q434 93 551 93 Q658 93 736 166 L909 166 Q850 71 755 21 Q660 -29 539 -29 Q374 -29 280 57 Q166 162 166 351 Q166 471 205 588 Q244 705 312 789 Q459 971 679 971 Q853 971 940 876 Q1022 785 1022 642 Q1022 559 995 431 Z M856 554 Q864 605 864 636 Q864 728 823 783 Q775 848 673 848 Q545 848 454 731 Q400 660 366 554 L856 554 Z M974 1297 L933 1106 L790 1106 L830 1297 L974 1297 Z M691 1297 L650 1106 L507 1106 L547 1297 L691 1297 Z " />
<glyph glyph-name="iacute" unicode="&#xed;" horiz-adv-x="467" d="M157 0 L357 942 L510 942 L310 0 L157 0 Z M773 1365 L536 1092 L406 1092 L627 1365 L773 1365 Z " />
<glyph glyph-name="igrave" unicode="&#xec;" horiz-adv-x="467" d="M157 0 L357 942 L510 942 L310 0 L157 0 Z M438 1365 L542 1092 L412 1092 L292 1365 L438 1365 Z " />
<glyph glyph-name="icircumflex" unicode="&#xee;" horiz-adv-x="467" d="M157 0 L357 942 L510 942 L310 0 L157 0 Z M729 1092 L593 1092 L511 1289 L343 1092 L204 1092 L441 1365 L605 1365 L729 1092 Z " />
<glyph glyph-name="idieresis" unicode="&#xef;" horiz-adv-x="467" d="M157 0 L357 942 L510 942 L310 0 L157 0 Z M696 1297 L656 1106 L512 1106 L553 1297 L696 1297 Z M454 1297 L414 1106 L270 1106 L311 1297 L454 1297 Z " />
<glyph glyph-name="ntilde" unicode="&#xf1;" horiz-adv-x="1044" d="M157 0 L357 942 L510 942 L485 828 Q612 971 788 971 Q909 971 976.5 909 Q1044 847 1044 737 Q1044 673 1031 612 L901 0 L748 0 L874 594 Q888 657 888 712 Q888 776 848.5 812 Q809 848 738 848 Q584 848 491 707 Q464 666 446 613 Q428 560 404 445 L310 0 L157 0 Z M1085 1317 Q1010 1106 886 1106 Q837 1106 760 1162 Q702 1205 671 1205 Q620 1205 580 1113 L479 1113 Q502 1181 530 1224 Q596 1324 683 1324 Q734 1324 806 1268 Q863 1224 888 1224 Q944 1224 983 1317 L1085 1317 Z " />
<glyph glyph-name="oacute" unicode="&#xf3;" horiz-adv-x="1023" d="M703 971 Q858 971 953 887 Q1061 793 1061 604 Q1061 469 1012 337 Q935 128 775 34 Q668 -29 531 -29 Q359 -29 265 63 Q164 161 164 332 Q164 449 199.5 564 Q235 679 297 763 Q450 971 703 971 Z M694 848 Q523 848 413 675 Q320 528 320 336 Q320 195 401 134 Q455 94 535 94 Q688 94 791 239 Q842 311 872.5 410.5 Q903 510 903 606 Q903 743 826 804 Q773 848 694 848 Z M1046 1365 L809 1092 L679 1092 L900 1365 L1046 1365 Z " />
<glyph glyph-name="ograve" unicode="&#xf2;" horiz-adv-x="1023" d="M703 971 Q858 971 953 887 Q1061 793 1061 604 Q1061 469 1012 337 Q935 128 775 34 Q668 -29 531 -29 Q359 -29 265 63 Q164 161 164 332 Q164 449 199.5 564 Q235 679 297 763 Q450 971 703 971 Z M694 848 Q523 848 413 675 Q320 528 320 336 Q320 195 401 134 Q455 94 535 94 Q688 94 791 239 Q842 311 872.5 410.5 Q903 510 903 606 Q903 743 826 804 Q773 848 694 848 Z M758 1365 L862 1092 L732 1092 L612 1365 L758 1365 Z " />
<glyph glyph-name="ocircumflex" unicode="&#xf4;" horiz-adv-x="1023" d="M703 971 Q858 971 953 887 Q1061 793 1061 604 Q1061 469 1012 337 Q935 128 775 34 Q668 -29 531 -29 Q359 -29 265 63 Q164 161 164 332 Q164 449 199.5 564 Q235 679 297 763 Q450 971 703 971 Z M694 848 Q523 848 413 675 Q320 528 320 336 Q320 195 401 134 Q455 94 535 94 Q688 94 791 239 Q842 311 872.5 410.5 Q903 510 903 606 Q903 743 826 804 Q773 848 694 848 Z M1024 1092 L888 1092 L806 1289 L638 1092 L499 1092 L736 1365 L900 1365 L1024 1092 Z " />
<glyph glyph-name="odieresis" unicode="&#xf6;" horiz-adv-x="1023" d="M703 971 Q858 971 953 887 Q1061 793 1061 604 Q1061 469 1012 337 Q935 128 775 34 Q668 -29 531 -29 Q359 -29 265 63 Q164 161 164 332 Q164 449 199.5 564 Q235 679 297 763 Q450 971 703 971 Z M694 848 Q523 848 413 675 Q320 528 320 336 Q320 195 401 134 Q455 94 535 94 Q688 94 791 239 Q842 311 872.5 410.5 Q903 510 903 606 Q903 743 826 804 Q773 848 694 848 Z M999 1297 L959 1106 L815 1106 L856 1297 L999 1297 Z M716 1297 L675 1106 L532 1106 L573 1297 L716 1297 Z " />
<glyph glyph-name="otilde" unicode="&#xf5;" horiz-adv-x="1023" d="M703 971 Q858 971 953 887 Q1061 793 1061 604 Q1061 469 1012 337 Q935 128 775 34 Q668 -29 531 -29 Q359 -29 265 63 Q164 161 164 332 Q164 449 199.5 564 Q235 679 297 763 Q450 971 703 971 Z M694 848 Q523 848 413 675 Q320 528 320 336 Q320 195 401 134 Q455 94 535 94 Q688 94 791 239 Q842 311 872.5 410.5 Q903 510 903 606 Q903 743 826 804 Q773 848 694 848 Z M1103 1317 Q1028 1106 904 1106 Q855 1106 778 1162 Q720 1205 689 1205 Q638 1205 598 1113 L497 1113 Q520 1181 548 1224 Q614 1324 701 1324 Q752 1324 824 1268 Q881 1224 906 1224 Q962 1224 1001 1317 L1103 1317 Z " />
<glyph glyph-name="uacute" unicode="&#xfa;" horiz-adv-x="1049" d="M1092 942 L892 0 L740 0 L764 114 Q637 -29 461 -29 Q340 -29 272.5 33 Q205 95 205 205 Q205 267 218 330 L349 942 L501 942 L375 348 Q361 283 361 230 Q361 166 400.5 130 Q440 94 511 94 Q665 94 758 235 Q786 276 803.5 329 Q821 382 845 497 L940 942 L1092 942 Z M1047 1365 L810 1092 L680 1092 L901 1365 L1047 1365 Z " />
<glyph glyph-name="ugrave" unicode="&#xf9;" horiz-adv-x="1049" d="M1092 942 L892 0 L740 0 L764 114 Q637 -29 461 -29 Q340 -29 272.5 33 Q205 95 205 205 Q205 267 218 330 L349 942 L501 942 L375 348 Q361 283 361 230 Q361 166 400.5 130 Q440 94 511 94 Q665 94 758 235 Q786 276 803.5 329 Q821 382 845 497 L940 942 L1092 942 Z M756 1365 L860 1092 L730 1092 L610 1365 L756 1365 Z " />
<glyph glyph-name="ucircumflex" unicode="&#xfb;" horiz-adv-x="1049" d="M1092 942 L892 0 L740 0 L764 114 Q637 -29 461 -29 Q340 -29 272.5 33 Q205 95 205 205 Q205 267 218 330 L349 942 L501 942 L375 348 Q361 283 361 230 Q361 166 400.5 130 Q440 94 511 94 Q665 94 758 235 Q786 276 803.5 329 Q821 382 845 497 L940 942 L1092 942 Z M1015 1092 L879 1092 L797 1289 L629 1092 L490 1092 L727 1365 L891 1365 L1015 1092 Z " />
<glyph glyph-name="udieresis" unicode="&#xfc;" horiz-adv-x="1049" d="M1092 942 L892 0 L740 0 L764 114 Q637 -29 461 -29 Q340 -29 272.5 33 Q205 95 205 205 Q205 267 218 330 L349 942 L501 942 L375 348 Q361 283 361 230 Q361 166 400.5 130 Q440 94 511 94 Q665 94 758 235 Q786 276 803.5 329 Q821 382 845 497 L940 942 L1092 942 Z M1013 1297 L972 1106 L829 1106 L869 1297 L1013 1297 Z M730 1297 L689 1106 L546 1106 L586 1297 L730 1297 Z " />
<glyph glyph-name="dagger" unicode="&#x2020;" horiz-adv-x="960" d="M1069 971 L1039 829 L724 829 L466 -385 L324 -385 L582 829 L273 829 L303 971 L613 971 L697 1365 L838 1365 L754 971 L1069 971 Z " />
<glyph glyph-name="degree" unicode="&#xb0;" horiz-adv-x="907" d="M672 1365 Q747 1365 812.5 1329.5 Q878 1294 918 1231 Q961 1163 961 1084 Q961 966 877 883 Q792 799 671 799 Q550 799 466 882.5 Q382 966 382 1086 Q382 1201 467 1282 Q554 1365 672 1365 Z M671 1265 Q597 1265 544 1211 Q492 1158 492 1085 Q492 1024 526 976 Q579 900 671 900 Q746 900 798.5 953.5 Q851 1007 851 1082 Q851 1158 798.5 1211.5 Q746 1265 671 1265 Z " />
<glyph glyph-name="cent" unicode="&#xa2;" horiz-adv-x="964" d="M829 1187 Q878 1177 915 1162 Q988 1132 1031 1068 Q1080 996 1080 903 Q1080 887 1079 867 L913 867 Q918 1020 802 1061 L645 326 Q713 343 769.5 406 Q826 469 855 559 L1019 559 Q986 414 873.5 312 Q761 210 618 196 L585 41 L444 41 L479 203 Q436 210 403 226 Q315 266 271 346 Q218 441 218 557 Q218 701 265.5 828.5 Q313 956 399 1044 Q526 1174 689 1190 L717 1324 L858 1324 L829 1187 Z M505 328 L661 1059 Q582 1035 523 970 Q453 895 413.5 784.5 Q374 674 374 555 Q374 467 408 408 Q442 349 505 328 Z " />
<glyph glyph-name="sterling" unicode="&#xa3;" horiz-adv-x="996" d="M272 559 L304 706 L409 706 Q401 731 382 789 Q351 886 351 995 Q351 1170 451 1275 Q564 1392 773 1392 Q958 1392 1055 1295 Q1132 1217 1132 1102 Q1132 1067 1122 1013 L958 1013 Q965 1053 965 1079 Q965 1261 770 1261 Q652 1261 586 1193 Q520 1125 520 1004 Q520 921 553 816 Q581 729 587 706 L919 706 L887 559 L601 559 Q592 450 540.5 365 Q489 280 362 167 Q482 230 538 230 Q580 230 628 190 Q673 152 704 152 Q790 152 829 283 L985 283 Q948 146 878 67 Q793 -29 673 -29 Q630 -29 599.5 -18.5 Q569 -8 517 23 Q447 67 399 67 Q358 67 313.5 47 Q269 27 187 -27 L123 77 Q248 161 329 270 Q433 408 433 530 Q433 541 432 559 L272 559 Z " />
<glyph glyph-name="section" unicode="&#xa7;" horiz-adv-x="1015" d="M1046 1069 L896 1068 Q901 1099 901 1119 Q901 1262 756 1262 Q680 1262 633.5 1216.5 Q587 1171 587 1096 Q587 995 722 886 L889 750 Q948 702 982 637 Q1016 572 1016 507 Q1016 366 877 239 Q826 192 757 153 Q796 106 810.5 69.5 Q825 33 825 -17 Q825 -159 736 -257 Q681 -316 618 -342.5 Q555 -369 467 -369 Q347 -369 274 -316 Q172 -243 172 -109 Q172 -75 180 -29 L332 -28 Q327 -62 327 -82 Q327 -151 368.5 -192.5 Q410 -234 481 -234 Q561 -234 612 -179 Q663 -124 663 -37 Q663 50 553 139 L374 285 Q293 351 260 412 Q227 473 227 555 Q227 675 314 772 Q362 825 485 900 Q427 983 427 1072 Q427 1217 521 1306 Q616 1396 767 1396 Q897 1396 976 1328 Q1055 1260 1055 1149 Q1055 1112 1046 1069 Z M545 817 Q470 773 426 713.5 Q382 654 382 596 Q382 527 435 467 Q462 436 585 333 Q630 295 690 234 Q764 273 808.5 337.5 Q853 402 853 469 Q853 525 806 579.5 Q759 634 595 768 Q562 796 545 817 Z " />
<glyph glyph-name="bullet" unicode="&#x2022;" horiz-adv-x="1205" d="M763 982 Q877 982 959 898 Q1041 814 1041 697 Q1041 577 958 493 Q876 410 760 410 Q686 410 622 446 Q558 482 520 546 Q478 615 478 695 Q478 817 561 899 Q645 982 763 982 Z " />
<glyph glyph-name="paragraph" unicode="&#xb6;" horiz-adv-x="1153" d="M419 -202 L599 644 Q579 644 569 644 Q427 645 343.5 725.5 Q260 806 260 942 Q260 1150 417 1267 Q548 1365 797 1365 L1345 1365 L1320 1249 L1198 1249 L889 -202 L762 -202 L1070 1249 L855 1249 L546 -202 L419 -202 Z " />
<glyph glyph-name="germandbls" unicode="&#xdf;" horiz-adv-x="993" d="M325 0 L177 0 L350 815 L197 815 L224 942 L377 942 L407 1079 Q474 1396 788 1396 Q952 1396 1039 1307 Q1102 1242 1102 1147 Q1102 1090 1074 1028.5 Q1046 967 1003 930 L879 821 Q829 777 829 739 Q829 689 905 596 Q972 514 995.5 461.5 Q1019 409 1019 345 Q1019 178 891 74 Q773 -21 577 -21 Q495 -21 439 0 L468 135 Q528 107 593 107 Q726 107 802 188 Q862 251 862 340 Q862 390 843.5 431 Q825 472 766 549 Q684 659 684 724 Q684 807 762 884 L867 987 Q944 1062 944 1140 Q944 1201 900 1237 Q856 1273 782 1273 Q663 1273 601 1183 Q576 1148 564 1108.5 Q552 1069 525 937 L325 0 Z " />
<glyph glyph-name="registered" unicode="&#xae;" horiz-adv-x="1466" d="M541 273 L716 1096 L973 1096 Q1107 1096 1169 1030 Q1221 975 1221 887 Q1221 718 1052 667 Q1123 641 1123 558 Q1123 535 1108 420 Q1101 370 1101 345 Q1101 307 1117 273 L983 273 Q975 297 975 314 Q975 335 989 420 Q999 479 999 520 Q999 576 970.5 597 Q942 618 866 618 L735 618 L661 273 L541 273 Z M757 723 L883 723 Q997 723 1040 761 Q1093 807 1093 885 Q1093 939 1058.5 964.5 Q1024 990 950 990 L813 990 L757 723 Z M892 1282 Q668 1282 513 1110 Q441 1031 400 923 Q355 806 355 681 Q355 487 457 327 Q534 208 650 143 Q759 83 883 83 Q1107 83 1262 262 Q1413 437 1413 679 Q1413 876 1313 1034 Q1244 1143 1141 1208 Q1023 1282 892 1282 Z M893 1386 Q1098 1386 1268 1245 Q1425 1114 1487 907 Q1521 796 1521 680 Q1521 396 1338 190 Q1152 -20 882 -20 Q675 -20 512 110 Q349 241 282 451 Q246 565 246 681 Q246 884 345 1059 Q437 1221 594 1309 Q732 1386 893 1386 Z " />
<glyph glyph-name="copyright" unicode="&#xa9;" horiz-adv-x="1466" d="M1078 591 L1204 591 Q1169 467 1103 386 Q994 251 836 251 Q707 251 632 335 Q562 413 562 559 Q562 780 677 941 Q801 1114 990 1114 Q1118 1114 1191 1040 Q1254 975 1254 884 Q1254 868 1250 837 L1128 837 Q1128 845 1128 850 Q1128 925 1090.5 967 Q1053 1009 986 1009 Q858 1009 771 862 Q689 724 689 559 Q689 356 845 356 Q1005 356 1078 591 Z M892 1282 Q668 1282 513 1110 Q441 1031 400 923 Q355 806 355 683 Q355 488 457 328 Q534 209 650 144 Q759 84 883 84 Q1107 84 1262 263 Q1413 438 1413 680 Q1413 876 1313 1034 Q1244 1143 1141 1208 Q1023 1282 892 1282 Z M893 1386 Q1098 1386 1268 1245 Q1425 1114 1487 907 Q1521 796 1521 680 Q1521 396 1338 190 Q1152 -20 882 -20 Q675 -20 512 110 Q349 241 282 451 Q246 565 246 681 Q246 884 345 1059 Q437 1221 594 1309 Q732 1386 893 1386 Z " />
<glyph glyph-name="trademark" unicode="&#x2122;" horiz-adv-x="1492" d="M319 546 L470 1259 L246 1259 L269 1365 L838 1365 L815 1259 L591 1259 L439 546 L319 546 Z M763 546 L937 1365 L1095 1365 L1158 701 L1496 1365 L1656 1365 L1482 546 L1370 546 L1507 1193 L1186 546 L1062 546 L1007 1181 L872 546 L763 546 Z " />
<glyph glyph-name="acute" unicode="&#xb4;" horiz-adv-x="1239" d="M1130 1365 L893 1092 L763 1092 L984 1365 L1130 1365 Z " />
<glyph glyph-name="dieresis" unicode="&#xa8;" horiz-adv-x="1203" d="M1090 1297 L1050 1106 L906 1106 L947 1297 L1090 1297 Z M807 1297 L766 1106 L623 1106 L664 1297 L807 1297 Z " />
<glyph glyph-name="notequal" unicode="&#x2260;" horiz-adv-x="1065" d="M189 474 L217 606 L536 606 L669 774 L253 774 L281 906 L773 906 L932 1107 L1033 1041 L926 906 L1168 906 L1140 774 L821 774 L689 606 L1105 606 L1076 474 L584 474 L425 273 L325 339 L431 474 L189 474 Z " />
<glyph glyph-name="AE" unicode="&#xc6;" horiz-adv-x="1579" d="M819 419 L443 419 L183 0 L0 0 L870 1365 L1741 1365 L1710 1220 L1156 1220 L1061 773 L1573 773 L1543 632 L1031 632 L928 145 L1490 145 L1459 0 L730 0 L819 419 Z M849 560 L988 1213 L934 1213 L530 560 L849 560 Z " />
<glyph glyph-name="Oslash" unicode="&#xd8;" horiz-adv-x="1353" d="M324 154 Q242 288 242 491 Q242 689 315 886 Q408 1134 596 1277 Q753 1397 945 1397 Q1132 1397 1250 1291 L1337 1397 L1472 1397 L1318 1208 Q1401 1073 1401 885 Q1401 731 1354.5 570.5 Q1308 410 1228 285 Q1023 -33 697 -33 Q511 -33 393 70 L310 -33 L172 -33 L324 154 Z M442 299 L1146 1162 Q1073 1250 931 1250 Q715 1250 562 1008 Q493 901 455 761.5 Q417 622 417 481 Q417 380 442 299 Z M1199 1060 L498 199 Q578 111 698 111 Q924 111 1078 360 Q1146 469 1185.5 611.5 Q1225 754 1225 887 Q1225 979 1199 1060 Z " />
<glyph glyph-name="infinity" unicode="&#x221e;" horiz-adv-x="1389" d="M837 617 Q785 543 742 499 Q636 387 491 387 Q358 387 274.5 475 Q191 563 191 702 Q191 832 271 915 Q358 1006 492 1006 Q678 1006 833 777 Q883 849 927 894 Q1037 1006 1178 1006 Q1323 1006 1408 904 Q1479 820 1479 694 Q1479 559 1396 475 Q1310 388 1178 388 Q1080 388 1000 442 Q920 496 837 617 Z M899 697 Q968 589 1029.5 542.5 Q1091 496 1166 496 Q1249 496 1302 552.5 Q1355 609 1355 698 Q1355 793 1292 849 Q1238 897 1164 897 Q1090 897 1030 851.5 Q970 806 899 697 Z M772 696 Q702 804 640 850.5 Q578 897 502 897 Q420 897 367.5 840.5 Q315 784 315 696 Q315 599 378 543 Q432 496 506 496 Q581 496 638.5 539.5 Q696 583 772 696 Z " />
<glyph glyph-name="plusminus" unicode="&#xb1;" horiz-adv-x="1065" d="M250 756 L624 756 L697 1103 L837 1103 L763 756 L1137 756 L1109 624 L735 624 L661 276 L521 276 L595 624 L221 624 L250 756 Z M117 132 L1005 132 L976 0 L89 0 L117 132 Z " />
<glyph glyph-name="lessequal" unicode="&#x2264;" horiz-adv-x="1065" d="M1235 1221 L1202 1064 L438 790 L1085 516 L1052 359 L241 718 L272 862 L1235 1221 Z M1039 299 L1008 153 L121 153 L152 299 L1039 299 Z " />
<glyph glyph-name="greaterequal" unicode="&#x2265;" horiz-adv-x="1065" d="M348 1221 L1159 862 L1128 718 L165 359 L198 516 L961 790 L315 1064 L348 1221 Z M152 299 L1039 299 L1008 153 L121 153 L152 299 Z " />
<glyph glyph-name="yen" unicode="&#xa5;" horiz-adv-x="1070" d="M607 0 L447 0 L510 299 L246 299 L271 417 L535 417 L562 545 L298 545 L323 663 L587 663 L348 1365 L534 1365 L701 825 L1093 1365 L1283 1365 L748 663 L1009 663 L984 545 L723 545 L696 417 L957 417 L931 299 L671 299 L607 0 Z " />
<glyph glyph-name="mu" unicode="&#xb5;" horiz-adv-x="1064" d="M100 -355 L376 942 L528 942 L410 387 Q386 273 386 222 Q386 167 412 136 Q447 94 517 94 Q586 94 648 133 Q710 172 749 241 Q792 317 828 486 L925 942 L1078 942 L877 0 L734 0 L761 127 Q629 -29 461 -29 Q386 -29 330 8 L253 -355 L100 -355 Z " />
<glyph glyph-name="partialdiff" unicode="&#x2202;" horiz-adv-x="1038" d="M845 929 Q805 1024 789 1055 Q773 1086 741 1132 Q674 1227 579 1303 L656 1394 Q806 1315 912 1153 Q975 1057 1011.5 927.5 Q1048 798 1048 672 Q1048 503 991 346 Q915 135 757 38 Q650 -29 518 -29 Q363 -29 280 58 Q195 148 195 315 Q195 431 231.5 549 Q268 667 332 757 Q405 859 510 917 Q610 971 716 971 Q788 971 845 929 Z M702 848 Q546 848 442 674 Q351 521 351 325 Q351 216 401.5 155 Q452 94 543 94 Q682 94 779 239 Q828 313 858 416 Q888 519 888 616 Q888 744 822 804 Q774 848 702 848 Z " />
<glyph glyph-name="summation" unicode="&#x2211;" horiz-adv-x="1423" d="M1572 1536 L1472 1066 L1328 1066 L1382 1389 L563 1389 L895 552 L191 -367 L1027 -367 L1105 -41 L1256 -41 L1156 -512 L-17 -512 L19 -343 L708 551 L383 1370 L418 1536 L1572 1536 Z " />
<glyph glyph-name="product" unicode="&#x220f;" horiz-adv-x="1398" d="M397 1536 L1653 1536 L1626 1407 L1475 1407 L1094 -383 L1245 -383 L1218 -512 L768 -512 L795 -383 L950 -383 L1331 1407 L665 1407 L284 -383 L437 -383 L410 -512 L-38 -512 L-11 -383 L142 -383 L522 1407 L370 1407 L397 1536 Z " />
<glyph glyph-name="integral" unicode="&#x222b;" horiz-adv-x="1098" d="M153 -490 L217 -342 Q257 -363 293 -363 Q373 -363 410 -303 Q430 -269 464 -109 L722 1105 Q767 1314 797 1375 Q834 1449 910.5 1492.5 Q987 1536 1081 1536 Q1127 1536 1208 1514 L1143 1366 Q1102 1387 1065 1387 Q992 1387 955 1333 Q931 1297 906 1177 L630 -120 Q599 -264 578 -317.5 Q557 -371 514 -413 Q468 -459 395.5 -485.5 Q323 -512 246 -512 Q214 -512 175 -498 Q161 -493 153 -490 Z " />
<glyph glyph-name="ordfeminine" unicode="&#xaa;" horiz-adv-x="617" d="M701 631 L683 546 Q650 535 620 535 Q543 535 543 598 Q543 603 544 615 Q466 529 370 529 Q301 529 259.5 570 Q218 611 218 678 Q218 741 256.5 789.5 Q295 838 364 862 Q434 886 596 890 L606 935 Q611 959 611 977 Q611 1008 585.5 1026.5 Q560 1045 517 1045 Q463 1045 435.5 1019.5 Q408 994 393 930 L291 930 Q306 1010 337 1053 Q395 1132 521 1132 Q598 1132 645 1106 Q712 1070 712 990 Q712 956 698 892 L654 682 Q648 655 648 646 Q648 626 668 626 Q679 626 701 631 Z M580 816 Q485 812 433 797 Q384 784 355.5 752.5 Q327 721 327 680 Q327 651 346 633 Q365 615 396 615 Q454 615 507 667.5 Q560 720 576 792 L580 816 Z " />
<glyph glyph-name="ordmasculine" unicode="&#xba;" horiz-adv-x="612" d="M540 1133 Q632 1133 688 1078 Q748 1020 748 919 Q748 753 658.5 641 Q569 529 436 529 Q337 529 282 585 Q225 644 225 749 Q225 897 305 1007 Q395 1133 540 1133 Z M532 1047 Q444 1047 385 949 Q332 861 332 747 Q332 615 442 615 Q521 615 576 697 Q639 790 639 914 Q639 976 610.5 1011.5 Q582 1047 532 1047 Z " />
<glyph glyph-name="Omega" unicode="&#x2126;" horiz-adv-x="1353" d="M133 0 L162 139 L453 139 Q260 318 260 627 Q260 936 448 1160 Q549 1279 686 1341 Q810 1396 945 1396 Q1214 1396 1333 1177 Q1407 1042 1407 863 Q1407 642 1296 451.5 Q1185 261 984 139 L1250 139 L1220 0 L769 0 L796 130 Q896 184 951.5 230.5 Q1007 277 1063 351 Q1225 568 1225 849 Q1225 1032 1150 1139 Q1071 1252 926 1252 Q801 1252 691 1176 Q570 1093 499 936 Q428 779 428 595 Q428 438 471.5 328 Q515 218 612 130 L585 0 L133 0 Z " />
<glyph glyph-name="ae" unicode="&#xe6;" horiz-adv-x="1486" d="M1517 438 L873 438 Q862 377 862 332 Q862 236 907 174 Q966 93 1086 93 Q1147 93 1198 113 Q1249 133 1272 166 L1438 166 Q1389 73 1296.5 22 Q1204 -29 1085 -29 Q819 -29 752 211 Q577 -29 356 -29 Q243 -29 175 32 Q107 93 107 196 Q107 302 171 385 Q235 468 348 509 Q416 534 494 542.5 Q572 551 753 554 L765 607 Q776 660 776 707 Q776 847 612 847 Q460 847 426 760 L265 761 Q333 971 616 971 Q739 971 805.5 932 Q872 893 895 808 Q1004 971 1219 971 Q1376 971 1460 880 Q1543 790 1543 650 Q1543 564 1517 438 Z M730 445 Q550 445 460 421 Q372 399 318.5 341.5 Q265 284 265 213 Q265 157 298 125.5 Q331 94 389 94 Q528 94 632 221 Q698 302 730 445 Z M1377 554 Q1384 606 1384 639 Q1384 739 1337.5 793.5 Q1291 848 1205 848 Q995 848 901 554 L1377 554 Z " />
<glyph glyph-name="oslash" unicode="&#xf8;" horiz-adv-x="1023" d="M233 100 Q164 201 164 337 Q164 450 199.5 564.5 Q235 679 297 763 Q450 971 700 971 Q825 971 916 916 L961 971 L1097 971 L992 844 Q1061 745 1061 602 Q1061 469 1012 337 Q935 129 775 34 Q668 -29 532 -29 Q402 -29 311 27 L265 -29 L126 -29 L233 100 Z M339 226 L824 807 Q772 848 692 848 Q524 848 413 675 Q320 528 320 339 Q320 278 339 226 Z M886 717 L401 134 Q454 94 537 94 Q688 94 791 239 Q842 311 872.5 410.5 Q903 510 903 605 Q903 665 886 717 Z " />
<glyph glyph-name="questiondown" unicode="&#xbf;" horiz-adv-x="964" d="M791 942 L745 729 L546 729 L591 942 L791 942 Z M861 59 Q846 -91 800 -172 Q688 -369 446 -369 Q285 -369 197 -278 Q119 -198 119 -75 Q119 64 224 187 Q261 231 399 344 Q466 399 498 456.5 Q530 514 544 604 L692 604 Q670 478 643 424 Q618 373 582.5 333.5 Q547 294 463 221 Q359 131 323 62 Q290 -2 290 -65 Q290 -142 342 -186 Q389 -227 464 -227 Q606 -227 672 -97 Q704 -34 712 59 L861 59 Z " />
<glyph glyph-name="exclamdown" unicode="&#xa1;" horiz-adv-x="647" d="M158 -355 L247 63 L408 602 L494 602 L425 63 L336 -355 L158 -355 Z M623 942 L578 729 L379 729 L424 942 L623 942 Z " />
<glyph glyph-name="logicalnot" unicode="&#xac;" horiz-adv-x="1065" d="M815 0 L905 423 L179 423 L210 569 L1098 569 L977 0 L815 0 Z " />
<glyph glyph-name="radical" unicode="&#x221a;" horiz-adv-x="1365" d="M1726 1693 L1697 1560 L1304 1560 L510 0 L338 0 L292 600 L128 600 L156 733 L414 733 L440 448 Q442 419 445 321 Q448 198 448 170 L456 170 Q473 209 542 353 L641 563 L813 900 L1215 1693 L1726 1693 Z " />
<glyph glyph-name="florin" unicode="&#x192;" horiz-adv-x="677" d="M180 -218 L27 -218 L392 815 L264 815 L291 942 L437 942 L469 1033 Q512 1156 536 1207 Q560 1258 592 1294 Q681 1396 824 1396 Q873 1396 922 1382 L873 1243 Q837 1261 806 1261 Q747 1261 711 1222.5 Q675 1184 639 1082 L589 942 L735 942 L708 815 L544 815 L180 -218 Z " />
<glyph glyph-name="approxequal" unicode="&#x2248;" horiz-adv-x="1037" d="M268 712 L192 773 Q353 1005 518 1005 Q595 1005 734 927 Q812 883 846 870 Q880 857 917 857 Q972 857 1020.5 889.5 Q1069 922 1133 1001 L1209 940 Q1147 851 1093 801 Q992 707 882 707 Q841 707 798.5 723 Q756 739 667 787 Q592 828 555.5 841.5 Q519 855 481 855 Q428 855 379.5 822.5 Q331 790 268 712 Z M193 359 L117 420 Q177 505 226 552 Q330 652 443 652 Q520 652 659 575 Q737 531 771.5 518 Q806 505 842 505 Q897 505 945.5 537 Q994 569 1058 647 L1134 587 Q1073 499 1018 448 Q918 354 806 354 Q766 354 722 370.5 Q678 387 592 434 Q516 476 480 489 Q444 502 406 502 Q353 502 305 470 Q257 438 193 359 Z " />
<glyph glyph-name="increment" unicode="&#x2206;" horiz-adv-x="1150" d="M773 1365 L958 1365 L1112 0 L37 0 L773 1365 Z M830 1179 L291 141 L924 141 L830 1179 Z " />
<glyph glyph-name="guillemotleft" unicode="&#xab;" horiz-adv-x="863" d="M881 832 L844 659 L650 511 L780 360 L744 189 L539 429 L574 593 L881 832 Z M570 832 L534 661 L335 513 L470 362 L433 186 L225 432 L259 593 L570 832 Z " />
<glyph glyph-name="guillemotright" unicode="&#xbb;" horiz-adv-x="863" d="M648 833 L855 585 L821 425 L510 186 L546 356 L743 504 L610 656 L648 833 Z M336 829 L539 588 L505 427 L200 188 L236 360 L429 506 L300 656 L336 829 Z " />
<glyph glyph-name="ellipsis" unicode="&#x2026;" horiz-adv-x="1536" d="M431 213 L385 0 L186 0 L231 213 L431 213 Z M913 213 L867 0 L668 0 L713 213 L913 213 Z M1395 213 L1349 0 L1150 0 L1195 213 L1395 213 Z " />
<glyph glyph-name="Agrave" unicode="&#xc0;" horiz-adv-x="1112" d="M773 1365 L958 1365 L1112 0 L934 0 L896 419 L433 419 L215 0 L37 0 L773 1365 Z M506 560 L884 560 L828 1179 L506 560 Z M693 1734 L845 1734 L968 1479 L838 1479 L693 1734 Z " />
<glyph glyph-name="Atilde" unicode="&#xc3;" horiz-adv-x="1112" d="M773 1365 L958 1365 L1112 0 L934 0 L896 419 L433 419 L215 0 L37 0 L773 1365 Z M506 560 L884 560 L828 1179 L506 560 Z M1215 1686 Q1181 1586 1123.5 1530 Q1066 1474 998 1474 Q941 1474 880 1531 Q833 1574 796 1574 Q736 1574 698 1481 L595 1481 Q672 1693 814 1693 Q871 1693 932 1639 Q981 1597 1010 1597 Q1071 1597 1109 1686 L1215 1686 Z " />
<glyph glyph-name="Otilde" unicode="&#xd5;" horiz-adv-x="1353" d="M946 1396 Q1156 1396 1277 1264 Q1343 1191 1376 1074 Q1402 985 1402 888 Q1402 732 1356 571.5 Q1310 411 1229 285 Q1024 -33 697 -33 Q460 -33 343 126 Q242 263 242 482 Q242 690 316 885 Q409 1133 596 1277 Q753 1396 946 1396 Z M931 1250 Q715 1250 562 1008 Q417 780 417 473 Q417 286 502 194 Q579 110 698 110 Q924 110 1079 359 Q1147 469 1186.5 611.5 Q1226 754 1226 890 Q1226 1072 1138 1170 Q1065 1250 931 1250 Z M1356 1686 Q1322 1586 1264.5 1530 Q1207 1474 1139 1474 Q1082 1474 1021 1531 Q974 1574 937 1574 Q877 1574 839 1481 L736 1481 Q813 1693 955 1693 Q1012 1693 1073 1639 Q1122 1597 1151 1597 Q1212 1597 1250 1686 L1356 1686 Z " />
<glyph glyph-name="OE" unicode="&#x152;" horiz-adv-x="1846" d="M2008 1365 L1977 1220 L1375 1220 L1280 773 L1840 773 L1810 632 L1250 632 L1147 145 L1757 145 L1726 0 L950 0 L974 115 Q838 -33 657 -33 Q455 -33 338 125 Q241 254 241 474 Q241 672 312 869 Q405 1126 584 1270 Q740 1396 922 1396 Q1115 1396 1215 1248 L1240 1365 L2008 1365 Z M1164 1010 Q1116 1250 918 1250 Q817 1250 724.5 1186.5 Q632 1123 560 1004 Q495 895 455.5 745.5 Q416 596 416 455 Q416 287 493 196 Q564 111 673 111 Q877 111 1024 350 L1164 1010 Z " />
<glyph glyph-name="oe" unicode="&#x153;" horiz-adv-x="1530" d="M1561 431 L932 431 Q920 367 920 318 Q920 220 966 164 Q1022 94 1128 94 Q1238 94 1312 165 L1481 165 Q1434 80 1333.5 25.5 Q1233 -29 1122 -29 Q894 -29 820 160 Q742 60 659 15.5 Q576 -29 467 -29 Q330 -29 253 47 Q143 154 143 342 Q143 452 177.5 566 Q212 680 271 765 Q412 971 647 971 Q852 971 933 798 Q995 873 1050 909 Q1141 971 1261 971 Q1427 971 1511 871 Q1588 778 1588 639 Q1588 552 1561 431 Z M642 848 Q491 848 390 674 Q299 518 299 319 Q299 213 347.5 153.5 Q396 94 482 94 Q616 94 710 239 Q759 314 788.5 419 Q818 524 818 623 Q818 744 756 804 Q711 848 642 848 Z M1422 554 Q1430 605 1430 640 Q1430 728 1393 783 Q1348 848 1257 848 Q1159 848 1083.5 773 Q1008 698 961 554 L1422 554 Z " />
<glyph glyph-name="endash" unicode="&#x2013;" horiz-adv-x="1049" d="M997 591 L962 427 L268 427 L303 591 L997 591 Z " />
<glyph glyph-name="emdash" unicode="&#x2014;" horiz-adv-x="1537" d="M1487 591 L1452 427 L277 427 L312 591 L1487 591 Z " />
<glyph glyph-name="quotedblleft" unicode="&#x201c;" horiz-adv-x="860" d="M381 916 L409 1047 Q430 1146 453.5 1199.5 Q477 1253 519 1296 Q582 1362 681 1387 L659 1286 Q563 1263 534 1147 L530 1129 L626 1129 L580 916 L381 916 Z M669 916 L697 1047 Q718 1146 741.5 1199.5 Q765 1253 806 1296 Q870 1362 968 1387 L947 1286 Q851 1263 821 1147 L818 1129 L913 1129 L868 916 L669 916 Z " />
<glyph glyph-name="quotedblright" unicode="&#x201d;" horiz-adv-x="860" d="M676 1365 L648 1235 Q626 1134 603 1081 Q580 1028 538 985 Q474 919 376 894 L398 995 Q500 1026 523 1134 L527 1152 L431 1152 L476 1365 L676 1365 Z M963 1365 L936 1235 Q914 1134 891 1081 Q868 1028 826 985 Q762 919 664 894 L685 995 Q788 1026 811 1134 L815 1152 L719 1152 L764 1365 L963 1365 Z " />
<glyph glyph-name="quoteleft" unicode="&#x2018;" horiz-adv-x="572" d="M381 916 L409 1047 Q430 1146 453.5 1199.5 Q477 1253 519 1296 Q582 1362 681 1387 L659 1286 Q563 1263 534 1147 L530 1129 L626 1129 L580 916 L381 916 Z " />
<glyph glyph-name="quoteright" unicode="&#x2019;" horiz-adv-x="572" d="M676 1365 L648 1235 Q626 1134 603 1081 Q580 1028 538 985 Q474 919 376 894 L398 995 Q500 1026 523 1134 L527 1152 L431 1152 L476 1365 L676 1365 Z " />
<glyph glyph-name="divide" unicode="&#xf7;" horiz-adv-x="1065" d="M249 756 L1137 756 L1108 624 L221 624 L249 756 Z M840 1104 L797 903 L651 903 L694 1104 L840 1104 Z M706 476 L664 275 L518 275 L561 476 L706 476 Z " />
<glyph glyph-name="lozenge" unicode="&#x25ca;" horiz-adv-x="1456" d="M1029 1419 L1405 683 L716 -53 L341 683 L1029 1419 Z M991 1237 L469 683 L755 128 L1276 683 L991 1237 Z " />
<glyph glyph-name="ydieresis" unicode="&#xff;" horiz-adv-x="848" d="M20 -340 L48 -208 Q60 -212 66 -215 Q102 -229 131 -229 Q217 -229 271 -140 L361 10 L207 942 L381 942 L476 211 L869 942 L1041 942 L443 -101 Q367 -234 312 -283 Q233 -355 121 -355 Q77 -355 20 -340 Z M911 1297 L871 1106 L727 1106 L768 1297 L911 1297 Z M628 1297 L587 1106 L444 1106 L485 1297 L628 1297 Z " />
<glyph glyph-name="Ydieresis" unicode="&#x178;" horiz-adv-x="1019" d="M424 0 L543 560 L273 1365 L464 1365 L662 722 L1128 1365 L1319 1365 L710 560 L591 0 L424 0 Z M1076 1655 L1035 1461 L891 1461 L933 1655 L1076 1655 Z M793 1655 L752 1461 L608 1461 L649 1655 L793 1655 Z " />
<glyph glyph-name="fraction" unicode="&#x2044;" horiz-adv-x="578" d="M50 0 L-82 0 L831 1365 L960 1365 L50 0 Z " />
<glyph glyph-name="Euro" unicode="&#x20ac;" horiz-adv-x="1198" d="M310 622 Q317 678 331 741 L214 741 L288 859 L364 859 Q414 1003 497 1114 Q707 1396 1002 1396 Q1120 1396 1205.5 1355.5 Q1291 1315 1371 1222 L1281 1080 Q1235 1143 1196 1177 Q1108 1253 990 1253 Q855 1253 735.5 1146.5 Q616 1040 550 859 L1146 859 L1073 741 L513 741 Q500 688 489 622 L1001 622 L928 504 L478 504 Q478 490 478 472 Q478 285 556 192 Q625 110 747 110 Q840 110 914.5 152 Q989 194 1083 300 L1173 197 Q1090 102 1030 59 Q903 -33 735 -33 Q529 -33 415 100.5 Q301 234 301 475 Q301 483 301 504 L164 504 L237 622 L310 622 Z " />
<glyph glyph-name="guilsinglleft" unicode="&#x2039;" horiz-adv-x="547" d="M564 831 L527 657 L332 507 L464 361 L427 188 L223 423 L258 588 L564 831 Z " />
<glyph glyph-name="guilsinglright" unicode="&#x203a;" horiz-adv-x="547" d="M337 831 L539 589 L504 424 L200 188 L237 360 L430 507 L300 656 L337 831 Z " />
<glyph glyph-name="&amp;#xf001;" unicode="&#xf001;" horiz-adv-x="988" d="M934 1157 L978 1365 L1131 1365 L1086 1157 L934 1157 Z M688 0 L888 942 L1041 942 L841 0 L688 0 Z M164 0 L337 815 L189 815 L216 942 L364 942 L405 1127 Q423 1212 442 1254 Q461 1296 495 1327 Q569 1396 691 1396 Q738 1396 803 1382 L775 1247 Q732 1261 699 1261 Q636 1261 602.5 1225 Q569 1189 551 1101 L517 942 L687 942 L660 815 L490 815 L317 0 L164 0 Z " />
<glyph glyph-name="&amp;#xfb01;" unicode="&#xfb01;" horiz-adv-x="988" d="M934 1157 L978 1365 L1131 1365 L1086 1157 L934 1157 Z M688 0 L888 942 L1041 942 L841 0 L688 0 Z M164 0 L337 815 L189 815 L216 942 L364 942 L405 1127 Q423 1212 442 1254 Q461 1296 495 1327 Q569 1396 691 1396 Q738 1396 803 1382 L775 1247 Q732 1261 699 1261 Q636 1261 602.5 1225 Q569 1189 551 1101 L517 942 L687 942 L660 815 L490 815 L317 0 L164 0 Z " />
<glyph glyph-name="&amp;#xf002;" unicode="&#xf002;" horiz-adv-x="998" d="M688 0 L978 1365 L1131 1365 L840 0 L688 0 Z M164 0 L337 815 L189 815 L216 942 L364 942 L405 1127 Q423 1212 442 1254 Q461 1296 495 1327 Q569 1396 691 1396 Q738 1396 803 1382 L775 1247 Q732 1261 699 1261 Q636 1261 602.5 1225 Q569 1189 551 1101 L517 942 L687 942 L660 815 L490 815 L317 0 L164 0 Z " />
<glyph glyph-name="&amp;#xfb02;" unicode="&#xfb02;" horiz-adv-x="998" d="M688 0 L978 1365 L1131 1365 L840 0 L688 0 Z M164 0 L337 815 L189 815 L216 942 L364 942 L405 1127 Q423 1212 442 1254 Q461 1296 495 1327 Q569 1396 691 1396 Q738 1396 803 1382 L775 1247 Q732 1261 699 1261 Q636 1261 602.5 1225 Q569 1189 551 1101 L517 942 L687 942 L660 815 L490 815 L317 0 L164 0 Z " />
<glyph glyph-name="daggerdbl" unicode="&#x2021;" horiz-adv-x="960" d="M586 177 L901 177 L871 35 L556 35 L467 -385 L325 -385 L414 35 L105 35 L135 177 L445 177 L583 827 L273 827 L304 969 L613 969 L697 1365 L839 1365 L755 969 L1070 969 L1039 827 L724 827 L586 177 Z " />
<glyph glyph-name="periodcentered" unicode="&#xb7;" horiz-adv-x="572" d="M513 598 L467 385 L268 385 L313 598 L513 598 Z " />
<glyph glyph-name="quotesinglbase" unicode="&#x201a;" horiz-adv-x="572" d="M431 213 L403 82 Q380 -26 355.5 -83.5 Q331 -141 289 -188 Q224 -259 125 -287 L146 -186 Q243 -158 278 -18 L282 0 L186 0 L231 213 L431 213 Z " />
<glyph glyph-name="quotedblbase" unicode="&#x201e;" horiz-adv-x="860" d="M431 213 L403 82 Q380 -26 355.5 -83.5 Q331 -141 289 -188 Q224 -259 125 -287 L146 -186 Q243 -158 278 -18 L282 0 L186 0 L231 213 L431 213 Z M718 213 L691 82 Q667 -26 643 -83.5 Q619 -141 576 -188 Q512 -259 413 -287 L434 -186 Q531 -158 566 -18 L570 0 L474 0 L519 213 L718 213 Z " />
<glyph glyph-name="perthousand" unicode="&#x2030;" horiz-adv-x="2629" d="M676 1384 Q804 1384 881 1301 Q962 1215 962 1065 Q962 870 860 715 Q736 526 540 526 Q393 526 315 632 Q253 716 253 839 Q253 946 286 1049 Q319 1152 377 1226 Q500 1384 676 1384 Z M674 1268 Q550 1268 464 1134 Q427 1076 405 994 Q383 912 383 834 Q383 738 432 687 Q476 641 540 641 Q664 641 749 777 Q831 908 831 1070 Q831 1162 789 1215 Q747 1268 674 1268 Z M698 0 L569 0 L1448 1365 L1573 1365 L698 0 Z M1603 838 Q1731 838 1808 755 Q1889 669 1889 519 Q1889 325 1787 170 Q1663 -19 1467 -19 Q1320 -19 1242 87 Q1180 170 1180 293 Q1180 400 1213 503 Q1246 606 1304 680 Q1427 838 1603 838 Z M1600 722 Q1477 722 1391 588 Q1355 531 1332.5 449 Q1310 367 1310 288 Q1310 193 1359 142 Q1403 96 1467 96 Q1591 96 1676 232 Q1758 362 1758 525 Q1758 616 1716 669 Q1674 722 1600 722 Z M2381 838 Q2509 838 2586 755 Q2667 669 2667 519 Q2667 325 2565 170 Q2441 -19 2245 -19 Q2099 -19 2021 87 Q1959 170 1959 293 Q1959 400 1992 503 Q2025 606 2082 680 Q2205 838 2381 838 Z M2379 722 Q2256 722 2170 588 Q2133 531 2111 449 Q2089 367 2089 288 Q2089 193 2138 142 Q2182 96 2245 96 Q2369 96 2454 232 Q2536 362 2536 525 Q2536 616 2494 669 Q2452 722 2379 722 Z " />
<glyph glyph-name="Acircumflex" unicode="&#xc2;" horiz-adv-x="1112" d="M773 1365 L958 1365 L1112 0 L934 0 L896 419 L433 419 L215 0 L37 0 L773 1365 Z M506 560 L884 560 L828 1179 L506 560 Z M1155 1475 L1004 1474 L917 1660 L750 1475 L595 1475 L833 1734 L1025 1734 L1155 1475 Z " />
<glyph glyph-name="Ecircumflex" unicode="&#xca;" horiz-adv-x="1114" d="M197 0 L487 1365 L1276 1365 L1245 1220 L623 1220 L528 773 L1108 773 L1078 632 L498 632 L394 145 L1025 145 L994 0 L197 0 Z M1173 1475 L1022 1474 L935 1660 L768 1475 L613 1475 L851 1734 L1043 1734 L1173 1475 Z " />
<glyph glyph-name="Aacute" unicode="&#xc1;" horiz-adv-x="1112" d="M773 1365 L958 1365 L1112 0 L934 0 L896 419 L433 419 L215 0 L37 0 L773 1365 Z M506 560 L884 560 L828 1179 L506 560 Z M1193 1734 L940 1479 L810 1479 L1041 1734 L1193 1734 Z " />
<glyph glyph-name="Edieresis" unicode="&#xcb;" horiz-adv-x="1114" d="M197 0 L487 1365 L1276 1365 L1245 1220 L623 1220 L528 773 L1108 773 L1078 632 L498 632 L394 145 L1025 145 L994 0 L197 0 Z M1161 1655 L1120 1461 L976 1461 L1017 1655 L1161 1655 Z M878 1655 L836 1461 L693 1461 L734 1655 L878 1655 Z " />
<glyph glyph-name="Egrave" unicode="&#xc8;" horiz-adv-x="1114" d="M197 0 L487 1365 L1276 1365 L1245 1220 L623 1220 L528 773 L1108 773 L1078 632 L498 632 L394 145 L1025 145 L994 0 L197 0 Z M724 1734 L876 1734 L999 1479 L869 1479 L724 1734 Z " />
<glyph glyph-name="Iacute" unicode="&#xcd;" horiz-adv-x="561" d="M197 0 L487 1365 L654 1365 L364 0 L197 0 Z M903 1734 L650 1479 L520 1479 L751 1734 L903 1734 Z " />
<glyph glyph-name="Icircumflex" unicode="&#xce;" horiz-adv-x="561" d="M197 0 L487 1365 L654 1365 L364 0 L197 0 Z M862 1475 L711 1474 L624 1660 L457 1475 L302 1475 L540 1734 L732 1734 L862 1475 Z " />
<glyph glyph-name="Idieresis" unicode="&#xcf;" horiz-adv-x="561" d="M197 0 L487 1365 L654 1365 L364 0 L197 0 Z M829 1655 L788 1461 L645 1461 L686 1655 L829 1655 Z M574 1655 L532 1461 L389 1461 L430 1655 L574 1655 Z " />
<glyph glyph-name="Igrave" unicode="&#xcc;" horiz-adv-x="561" d="M197 0 L487 1365 L654 1365 L364 0 L197 0 Z M400 1734 L552 1734 L675 1479 L545 1479 L400 1734 Z " />
<glyph glyph-name="Oacute" unicode="&#xd3;" horiz-adv-x="1353" d="M946 1396 Q1156 1396 1277 1264 Q1343 1191 1376 1074 Q1402 985 1402 888 Q1402 732 1356 571.5 Q1310 411 1229 285 Q1024 -33 697 -33 Q460 -33 343 126 Q242 263 242 482 Q242 690 316 885 Q409 1133 596 1277 Q753 1396 946 1396 Z M931 1250 Q715 1250 562 1008 Q417 780 417 473 Q417 286 502 194 Q579 110 698 110 Q924 110 1079 359 Q1147 469 1186.5 611.5 Q1226 754 1226 890 Q1226 1072 1138 1170 Q1065 1250 931 1250 Z M1293 1734 L1040 1479 L910 1479 L1141 1734 L1293 1734 Z " />
<glyph glyph-name="Ocircumflex" unicode="&#xd4;" horiz-adv-x="1353" d="M946 1396 Q1156 1396 1277 1264 Q1343 1191 1376 1074 Q1402 985 1402 888 Q1402 732 1356 571.5 Q1310 411 1229 285 Q1024 -33 697 -33 Q460 -33 343 126 Q242 263 242 482 Q242 690 316 885 Q409 1133 596 1277 Q753 1396 946 1396 Z M931 1250 Q715 1250 562 1008 Q417 780 417 473 Q417 286 502 194 Q579 110 698 110 Q924 110 1079 359 Q1147 469 1186.5 611.5 Q1226 754 1226 890 Q1226 1072 1138 1170 Q1065 1250 931 1250 Z M1278 1475 L1127 1474 L1040 1660 L873 1475 L718 1475 L956 1734 L1148 1734 L1278 1475 Z " />
<glyph glyph-name="Ograve" unicode="&#xd2;" horiz-adv-x="1353" d="M946 1396 Q1156 1396 1277 1264 Q1343 1191 1376 1074 Q1402 985 1402 888 Q1402 732 1356 571.5 Q1310 411 1229 285 Q1024 -33 697 -33 Q460 -33 343 126 Q242 263 242 482 Q242 690 316 885 Q409 1133 596 1277 Q753 1396 946 1396 Z M931 1250 Q715 1250 562 1008 Q417 780 417 473 Q417 286 502 194 Q579 110 698 110 Q924 110 1079 359 Q1147 469 1186.5 611.5 Q1226 754 1226 890 Q1226 1072 1138 1170 Q1065 1250 931 1250 Z M822 1734 L974 1734 L1097 1479 L967 1479 L822 1734 Z " />
<glyph glyph-name="Uacute" unicode="&#xda;" horiz-adv-x="1283" d="M466 1365 L630 1365 L466 594 Q431 427 431 345 Q431 227 499 167 Q563 110 678 110 Q884 110 977 283 Q1017 358 1067 594 L1231 1365 L1397 1365 L1234 596 Q1192 398 1173 341 Q1105 142 975 50 Q856 -33 675 -33 Q451 -33 344 89 Q264 181 264 317 Q264 416 303 599 L466 1365 Z M1263 1734 L1010 1479 L880 1479 L1111 1734 L1263 1734 Z " />
<glyph glyph-name="Ucircumflex" unicode="&#xdb;" horiz-adv-x="1283" d="M466 1365 L630 1365 L466 594 Q431 427 431 345 Q431 227 499 167 Q563 110 678 110 Q884 110 977 283 Q1017 358 1067 594 L1231 1365 L1397 1365 L1234 596 Q1192 398 1173 341 Q1105 142 975 50 Q856 -33 675 -33 Q451 -33 344 89 Q264 181 264 317 Q264 416 303 599 L466 1365 Z M1226 1475 L1075 1474 L988 1660 L821 1475 L666 1475 L904 1734 L1096 1734 L1226 1475 Z " />
<glyph glyph-name="Ugrave" unicode="&#xd9;" horiz-adv-x="1283" d="M466 1365 L630 1365 L466 594 Q431 427 431 345 Q431 227 499 167 Q563 110 678 110 Q884 110 977 283 Q1017 358 1067 594 L1231 1365 L1397 1365 L1234 596 Q1192 398 1173 341 Q1105 142 975 50 Q856 -33 675 -33 Q451 -33 344 89 Q264 181 264 317 Q264 416 303 599 L466 1365 Z M780 1734 L932 1734 L1055 1479 L925 1479 L780 1734 Z " />
<glyph glyph-name="dotlessi" unicode="&#x131;" horiz-adv-x="467" d="M157 0 L357 942 L510 942 L310 0 L157 0 Z " />
<glyph glyph-name="circumflex" unicode="&#x2c6;" horiz-adv-x="1174" d="M1082 1092 L946 1092 L864 1289 L696 1092 L557 1092 L794 1365 L958 1365 L1082 1092 Z " />
<glyph glyph-name="tilde" unicode="&#x2dc;" horiz-adv-x="1163" d="M1142 1317 Q1067 1106 943 1106 Q894 1106 817 1162 Q759 1205 728 1205 Q677 1205 637 1113 L536 1113 Q559 1181 587 1224 Q653 1324 740 1324 Q791 1324 863 1268 Q920 1224 945 1224 Q1001 1224 1040 1317 L1142 1317 Z " />
<glyph glyph-name="uni02C9" unicode="&#x2c9;" horiz-adv-x="1181" d="M1108 1252 L1084 1140 L582 1140 L606 1252 L1108 1252 Z " />
<glyph glyph-name="breve" unicode="&#x2d8;" horiz-adv-x="1186" d="M1126 1365 Q1091 1092 860 1092 Q756 1092 697 1148.5 Q638 1205 638 1304 Q638 1326 641 1365 L743 1365 Q742 1348 742 1340 Q742 1274 776 1237 Q810 1200 871 1200 Q998 1200 1024 1365 L1126 1365 Z " />
<glyph glyph-name="dotaccent" unicode="&#x2d9;" horiz-adv-x="1288" d="M992 1297 L951 1106 L808 1106 L849 1297 L992 1297 Z " />
<glyph glyph-name="ring" unicode="&#x2da;" horiz-adv-x="1216" d="M870 1356 Q828 1356 799.5 1326 Q771 1296 771 1252 Q771 1209 799.5 1179 Q828 1149 868 1149 Q909 1149 937.5 1179 Q966 1209 966 1251 Q966 1295 938 1325.5 Q910 1356 870 1356 Z M872 1440 Q950 1440 1005.5 1384.5 Q1061 1329 1061 1251 Q1061 1174 1004.5 1119.5 Q948 1065 868 1065 Q789 1065 732.5 1120 Q676 1175 676 1252 Q676 1331 732.5 1385.5 Q789 1440 872 1440 Z " />
<glyph glyph-name="cedilla" unicode="&#xb8;" horiz-adv-x="1235" d="M589 0 L671 0 L608 -108 Q631 -99 653 -99 Q710 -99 746.5 -134.5 Q783 -170 783 -226 Q783 -305 725.5 -357.5 Q668 -410 581 -410 Q521 -410 484 -383.5 Q447 -357 447 -313 Q447 -309 448 -301 L541 -301 Q542 -335 589 -335 Q629 -335 655 -305 Q681 -275 681 -230 Q681 -172 624 -172 Q583 -172 565 -201 L472 -201 L589 0 Z " />
<glyph glyph-name="hungarumlaut" unicode="&#x2dd;" horiz-adv-x="1157" d="M946 1365 L709 1092 L579 1092 L800 1365 L946 1365 Z M1219 1365 L982 1092 L852 1092 L1073 1365 L1219 1365 Z " />
<glyph glyph-name="ogonek" unicode="&#x2db;" horiz-adv-x="1241" d="M839 0 Q707 -98 707 -188 Q707 -265 798 -265 Q831 -265 877 -247 L858 -338 Q795 -360 746 -360 Q673 -360 628.5 -324 Q584 -288 584 -229 Q584 -112 744 0 L839 0 Z " />
<glyph glyph-name="caron" unicode="&#x2c7;" horiz-adv-x="1174" d="M615 1365 L751 1365 L832 1168 L1001 1365 L1140 1365 L902 1092 L738 1092 L615 1365 Z " />
<glyph glyph-name="nbspace" unicode="&#xa0;" horiz-adv-x="511" d="" />
<glyph glyph-name="currency" unicode="&#xa4;" horiz-adv-x="1431" d="M294 251 L485 445 Q381 580 381 736 Q381 886 485 1026 L289 1220 L372 1303 L566 1109 Q710 1215 862 1215 Q1015 1215 1155 1111 L1349 1303 L1432 1220 L1239 1027 Q1343 885 1343 736 Q1343 585 1241 446 L1435 252 L1353 168 L1158 362 Q1021 258 865 258 Q718 258 569 362 L376 169 L294 251 Z M866 1083 Q719 1083 618 981 Q518 879 518 736 Q518 624 584 533 Q632 466 706 428 Q780 390 862 390 Q1004 390 1106 492 Q1206 592 1206 734 Q1206 849 1141 940 Q1094 1005 1019.5 1044 Q945 1083 866 1083 Z " />
<glyph glyph-name="brokenbar" unicode="&#xa6;" horiz-adv-x="1281" d="M848 1365 L1014 1365 L868 679 L702 679 L848 1365 Z M624 314 L791 314 L651 -341 L485 -341 L624 314 Z " />
<glyph glyph-name="uni00AD" unicode="&#xad;" horiz-adv-x="399" d="M524 591 L490 427 L91 427 L126 591 L524 591 Z " />
<glyph glyph-name="overscore" unicode="&#xaf;" horiz-adv-x="1065" d="M430 1607 L1318 1607 L1289 1475 L402 1475 L430 1607 Z " />
<glyph glyph-name="twosuperior" unicode="&#xb2;" horiz-adv-x="617" d="M678 649 L656 546 L150 546 Q175 639 197 685 Q219 731 262 777 Q300 819 342 848.5 Q384 878 495 941 Q675 1044 675 1175 Q675 1223 644.5 1251 Q614 1279 563 1279 Q499 1279 465 1243.5 Q431 1208 416 1126 L280 1126 Q297 1232 337 1284 Q413 1384 561 1384 Q696 1384 762 1307 Q808 1254 808 1185 Q808 1074 723 983 Q668 925 531 852 Q415 791 368.5 749 Q322 707 306 649 L678 649 Z " />
<glyph glyph-name="threesuperior" unicode="&#xb3;" horiz-adv-x="614" d="M411 1147 L300 1147 Q319 1247 361 1296 Q435 1382 562 1382 Q679 1382 737 1319 Q785 1266 785 1187 Q785 1107 741.5 1054.5 Q698 1002 617 985 Q737 948 737 815 Q737 693 648.5 611 Q560 529 428 529 Q318 529 258 589 Q201 646 201 729 Q201 747 207 783 L319 783 Q318 765 318 752 Q318 697 350 664 Q382 631 435 631 Q512 631 564.5 684 Q617 737 617 814 Q617 932 477 932 L432 932 L452 1028 L490 1028 Q568 1028 613 1068 Q658 1108 658 1178 Q658 1225 629 1252.5 Q600 1280 550 1280 Q443 1280 411 1147 Z " />
<glyph glyph-name="onesuperior" unicode="&#xb9;" horiz-adv-x="418" d="M293 546 L425 1167 Q365 1130 281 1130 Q274 1130 259 1130 L278 1219 Q285 1219 289 1219 Q367 1219 414 1252.5 Q461 1286 493 1365 L577 1365 L402 546 L293 546 Z " />
<glyph glyph-name="onequarter" unicode="&#xbc;" horiz-adv-x="1354" d="M307 546 L439 1167 Q379 1130 295 1130 Q288 1130 273 1130 L292 1219 Q299 1219 303 1219 Q382 1219 428 1252 Q474 1285 507 1365 L591 1365 L417 546 L307 546 Z M405 0 L273 0 L1186 1365 L1315 1365 L405 0 Z M1108 0 L1151 204 L841 204 L862 302 L1296 819 L1381 819 L1270 296 L1369 296 L1350 204 L1250 204 L1207 0 L1108 0 Z M1171 296 L1240 622 L967 296 L1171 296 Z " />
<glyph glyph-name="onehalf" unicode="&#xbd;" horiz-adv-x="1444" d="M307 546 L439 1167 Q379 1130 295 1130 Q288 1130 273 1130 L292 1219 Q299 1219 303 1219 Q382 1219 428 1252 Q474 1285 507 1365 L591 1365 L417 546 L307 546 Z M405 0 L273 0 L1186 1365 L1315 1365 L405 0 Z M1395 103 L1373 0 L868 0 Q893 93 915 139 Q937 185 979 231 Q1018 273 1060.5 302.5 Q1103 332 1213 395 Q1393 497 1393 629 Q1393 677 1362.5 705 Q1332 733 1280 733 Q1217 733 1182.5 697.5 Q1148 662 1133 580 L998 580 Q1015 686 1054 738 Q1131 838 1279 838 Q1414 838 1480 761 Q1526 708 1526 638 Q1526 528 1441 437 Q1385 378 1249 306 Q1133 245 1086.5 203 Q1040 161 1024 103 L1395 103 Z " />
<glyph glyph-name="threequarters" unicode="&#xbe;" horiz-adv-x="1541" d="M563 0 L431 0 L1345 1365 L1473 1365 L563 0 Z M401 1147 L290 1147 Q309 1247 351 1296 Q425 1382 552 1382 Q669 1382 727 1319 Q775 1266 775 1187 Q775 1107 731.5 1054.5 Q688 1002 607 985 Q727 948 727 815 Q727 693 638.5 611 Q550 529 418 529 Q308 529 248 589 Q191 646 191 729 Q191 747 197 783 L309 783 Q308 765 308 752 Q308 697 340 664 Q372 631 425 631 Q502 631 554.5 684 Q607 737 607 814 Q607 932 467 932 L422 932 L442 1028 L480 1028 Q558 1028 603 1068 Q648 1108 648 1178 Q648 1225 619 1252.5 Q590 1280 540 1280 Q433 1280 401 1147 Z M1295 0 L1338 204 L1028 204 L1049 302 L1483 819 L1568 819 L1457 296 L1557 296 L1537 204 L1437 204 L1394 0 L1295 0 Z M1358 296 L1428 622 L1155 296 L1358 296 Z " />
<glyph glyph-name="Eth" unicode="&#xd0;" horiz-adv-x="1292" d="M375 773 L501 1365 L864 1365 Q1062 1365 1185 1269 Q1339 1148 1339 880 Q1339 701 1288.5 532.5 Q1238 364 1149 243 Q1054 114 926 57 Q798 0 604 0 L211 0 L345 632 L191 632 L221 773 L375 773 Z M541 773 L844 773 L814 632 L511 632 L408 145 L605 145 Q695 145 745.5 153.5 Q796 162 844 184 Q986 252 1066 428 Q1165 647 1165 876 Q1165 1053 1073 1144 Q996 1220 849 1220 L636 1220 L541 773 Z " />
<glyph glyph-name="multiply" unicode="&#xd7;" horiz-adv-x="1115" d="M1048 1050 L1121 956 L798 689 L1008 422 L895 329 L684 596 L361 329 L287 422 L611 689 L400 956 L514 1050 L724 783 L1048 1050 Z " />
<glyph glyph-name="Yacute" unicode="&#xdd;" horiz-adv-x="1019" d="M424 0 L543 560 L273 1365 L464 1365 L662 722 L1128 1365 L1319 1365 L710 560 L591 0 L424 0 Z M1139 1734 L886 1479 L756 1479 L987 1734 L1139 1734 Z " />
<glyph glyph-name="Thorn" unicode="&#xde;" horiz-adv-x="1124" d="M596 1092 L807 1092 Q990 1092 1083 1001 Q1176 909 1176 748 Q1176 638 1131.5 543 Q1087 448 1008 387 Q879 288 651 288 L425 288 L364 0 L197 0 L487 1365 L654 1365 L596 1092 Z M456 433 L661 433 Q748 433 804 450 Q860 467 903 507 Q997 594 997 740 Q997 854 921 910 Q871 947 749 947 L565 947 L456 433 Z " />
<glyph glyph-name="eth" unicode="&#xf0;" horiz-adv-x="1023" d="M841 937 L833 955 Q782 1067 726 1140 L534 1046 L494 1145 L655 1223 Q613 1262 558 1303 L639 1394 Q717 1355 791 1290 L1004 1394 L1044 1295 L869 1209 Q963 1099 1014 951 Q1065 803 1065 643 Q1065 480 1012 336 Q947 160 822 65.5 Q697 -29 529 -29 Q359 -29 265 63 Q164 161 164 335 Q164 450 199.5 564 Q235 678 297 763 Q371 864 478 919 Q580 971 692 971 Q777 971 841 937 Z M694 848 Q523 848 413 675 Q320 528 320 336 Q320 195 401 134 Q455 94 535 94 Q688 94 791 239 Q842 311 872.5 410.5 Q903 510 903 606 Q903 743 826 804 Q773 848 694 848 Z " />
<glyph glyph-name="yacute" unicode="&#xfd;" horiz-adv-x="848" d="M20 -340 L48 -208 Q60 -212 66 -215 Q102 -229 131 -229 Q217 -229 271 -140 L361 10 L207 942 L381 942 L476 211 L869 942 L1041 942 L443 -101 Q367 -234 312 -283 Q233 -355 121 -355 Q77 -355 20 -340 Z M932 1365 L695 1092 L565 1092 L786 1365 L932 1365 Z " />
<glyph glyph-name="thorn" unicode="&#xfe;" horiz-adv-x="1082" d="M487 827 Q605 971 787 971 Q938 971 1025 883 Q1068 839 1093.5 767 Q1119 695 1119 616 Q1119 490 1077.5 365 Q1036 240 967 155 Q817 -29 600 -29 Q415 -29 334 108 L236 -355 L83 -355 L449 1365 L601 1365 L487 827 Z M763 848 Q683 848 610.5 803 Q538 758 488 677 Q446 609 421 513.5 Q396 418 396 329 Q396 200 470 139 Q525 94 601 94 Q760 94 863 257 Q961 410 961 599 Q961 730 896 796 Q845 848 763 848 Z " />
<glyph glyph-name="Amacron" unicode="&#x100;" horiz-adv-x="1112" d="M773 1365 L958 1365 L1112 0 L934 0 L896 419 L433 419 L215 0 L37 0 L773 1365 Z M506 560 L884 560 L828 1179 L506 560 Z M1173 1603 L1148 1486 L588 1486 L613 1603 L1173 1603 Z " />
<glyph glyph-name="amacron" unicode="&#x101;" horiz-adv-x="964" d="M945 115 L920 -3 Q871 -18 838 -18 Q778 -18 741 14.5 Q704 47 704 100 Q704 112 707 135 Q562 -29 377 -29 Q259 -29 192 36 Q128 98 128 196 Q128 301 193.5 384 Q259 467 375 510 Q445 535 531 545.5 Q617 556 797 560 L816 648 Q825 690 825 716 Q825 847 642 847 Q487 847 449 760 L284 759 Q352 971 644 971 Q781 971 866 922 Q972 862 972 736 Q972 693 947 575 L871 219 Q861 170 861 156 Q861 110 909 110 Q922 110 945 115 Z M776 458 Q584 451 486 426 Q392 403 339 348.5 Q286 294 286 221 Q286 162 322 128 Q358 94 420 94 Q565 94 673 221 Q743 304 765 406 L776 458 Z M1003 1252 L979 1140 L477 1140 L501 1252 L1003 1252 Z " />
<glyph glyph-name="Abreve" unicode="&#x102;" horiz-adv-x="1112" d="M773 1365 L958 1365 L1112 0 L934 0 L896 419 L433 419 L215 0 L37 0 L773 1365 Z M506 560 L884 560 L828 1179 L506 560 Z M1175 1748 Q1163 1656 1134 1606 Q1059 1475 888 1475 Q776 1475 714 1534 Q652 1593 652 1700 Q652 1716 655 1748 L761 1748 Q760 1732 760 1724 Q760 1660 796.5 1623.5 Q833 1587 898 1587 Q968 1587 1008 1625 Q1048 1663 1069 1748 L1175 1748 Z " />
<glyph glyph-name="abreve" unicode="&#x103;" horiz-adv-x="964" d="M945 115 L920 -3 Q871 -18 838 -18 Q778 -18 741 14.5 Q704 47 704 100 Q704 112 707 135 Q562 -29 377 -29 Q259 -29 192 36 Q128 98 128 196 Q128 301 193.5 384 Q259 467 375 510 Q445 535 531 545.5 Q617 556 797 560 L816 648 Q825 690 825 716 Q825 847 642 847 Q487 847 449 760 L284 759 Q352 971 644 971 Q781 971 866 922 Q972 862 972 736 Q972 693 947 575 L871 219 Q861 170 861 156 Q861 110 909 110 Q922 110 945 115 Z M776 458 Q584 451 486 426 Q392 403 339 348.5 Q286 294 286 221 Q286 162 322 128 Q358 94 420 94 Q565 94 673 221 Q743 304 765 406 L776 458 Z M1018 1365 Q983 1092 752 1092 Q648 1092 589 1148.5 Q530 1205 530 1304 Q530 1326 533 1365 L635 1365 Q634 1348 634 1340 Q634 1274 668 1237 Q702 1200 763 1200 Q890 1200 916 1365 L1018 1365 Z " />
<glyph glyph-name="Aogonek" unicode="&#x104;" horiz-adv-x="1112" d="M1112 0 Q980 -102 980 -189 Q980 -224 1004 -244.5 Q1028 -265 1068 -265 Q1098 -265 1149 -247 L1131 -338 Q1072 -360 1020 -360 Q948 -360 904.5 -324.5 Q861 -289 861 -230 Q861 -114 1017 0 L934 0 L896 419 L433 419 L215 0 L37 0 L773 1365 L958 1365 L1112 0 Z M506 560 L884 560 L828 1179 L506 560 Z " />
<glyph glyph-name="aogonek" unicode="&#x105;" horiz-adv-x="964" d="M956 -247 L937 -338 Q875 -360 825 -360 Q753 -360 708.5 -324 Q664 -288 664 -229 Q664 -115 803 -14 Q704 8 704 100 Q704 112 707 135 Q562 -29 377 -29 Q259 -29 192 36 Q128 98 128 196 Q128 301 193.5 384 Q259 467 375 510 Q445 535 531 545.5 Q617 556 797 560 L816 648 Q825 690 825 716 Q825 847 642 847 Q487 847 449 760 L284 759 Q352 971 644 971 Q781 971 866 922 Q972 862 972 736 Q972 693 947 575 L871 219 Q861 170 861 156 Q861 110 909 110 Q922 110 945 115 L920 -3 Q860 -40 823.5 -90.5 Q787 -141 787 -188 Q787 -265 878 -265 Q911 -265 956 -247 Z M776 458 Q584 451 486 426 Q392 403 339 348.5 Q286 294 286 221 Q286 162 322 128 Q358 94 420 94 Q565 94 673 221 Q743 304 765 406 L776 458 Z " />
<glyph glyph-name="Cacute" unicode="&#x106;" horiz-adv-x="1267" d="M1104 515 L1274 515 Q1223 317 1125 189 Q956 -33 685 -33 Q465 -33 353 102 Q301 163 271.5 263 Q242 363 242 474 Q242 683 311 877 Q395 1111 577 1261 Q740 1396 953 1396 Q1155 1396 1266 1275 Q1311 1227 1337 1159.5 Q1363 1092 1363 1024 Q1363 1002 1358 956 L1187 956 Q1188 976 1188 982 Q1188 1090 1131 1166 Q1067 1253 935 1253 Q711 1253 558 997 Q493 889 456 747 Q419 605 419 466 Q419 286 498 192 Q566 110 692 110 Q833 110 938 213.5 Q1043 317 1104 515 Z M1286 1734 L1033 1479 L903 1479 L1134 1734 L1286 1734 Z " />
<glyph glyph-name="cacute" unicode="&#x107;" horiz-adv-x="948" d="M801 336 L965 336 Q940 226 858 130 Q722 -29 516 -29 Q350 -29 260 65 Q164 164 164 334 Q164 454 198.5 568 Q233 682 295 764 Q450 971 696 971 Q851 971 938 892 Q1026 811 1026 680 Q1026 664 1025 644 L859 644 Q858 707 849 736 Q811 848 683 848 Q518 848 410 670 Q320 521 320 332 Q320 220 374 157 Q428 94 523 94 Q648 94 736 208 Q776 259 801 336 Z M1016 1365 L779 1092 L649 1092 L870 1365 L1016 1365 Z " />
<glyph glyph-name="Ccircumflex" unicode="&#x108;" horiz-adv-x="1267" d="M1104 515 L1274 515 Q1223 317 1125 189 Q956 -33 685 -33 Q465 -33 353 102 Q301 163 271.5 263 Q242 363 242 474 Q242 683 311 877 Q395 1111 577 1261 Q740 1396 953 1396 Q1155 1396 1266 1275 Q1311 1227 1337 1159.5 Q1363 1092 1363 1024 Q1363 1002 1358 956 L1187 956 Q1188 976 1188 982 Q1188 1090 1131 1166 Q1067 1253 935 1253 Q711 1253 558 997 Q493 889 456 747 Q419 605 419 466 Q419 286 498 192 Q566 110 692 110 Q833 110 938 213.5 Q1043 317 1104 515 Z M1242 1475 L1091 1474 L1005 1660 L837 1475 L682 1475 L921 1734 L1112 1734 L1242 1475 Z " />
<glyph glyph-name="ccircumflex" unicode="&#x109;" horiz-adv-x="948" d="M801 336 L965 336 Q940 226 858 130 Q722 -29 516 -29 Q350 -29 260 65 Q164 164 164 334 Q164 454 198.5 568 Q233 682 295 764 Q450 971 696 971 Q851 971 938 892 Q1026 811 1026 680 Q1026 664 1025 644 L859 644 Q858 707 849 736 Q811 848 683 848 Q518 848 410 670 Q320 521 320 332 Q320 220 374 157 Q428 94 523 94 Q648 94 736 208 Q776 259 801 336 Z M997 1092 L861 1092 L779 1289 L611 1092 L472 1092 L709 1365 L873 1365 L997 1092 Z " />
<glyph glyph-name="Cdotaccent" unicode="&#x10a;" horiz-adv-x="1267" d="M1104 515 L1274 515 Q1223 317 1125 189 Q956 -33 685 -33 Q465 -33 353 102 Q301 163 271.5 263 Q242 363 242 474 Q242 683 311 877 Q395 1111 577 1261 Q740 1396 953 1396 Q1155 1396 1266 1275 Q1311 1227 1337 1159.5 Q1363 1092 1363 1024 Q1363 1002 1358 956 L1187 956 Q1188 976 1188 982 Q1188 1090 1131 1166 Q1067 1253 935 1253 Q711 1253 558 997 Q493 889 456 747 Q419 605 419 466 Q419 286 498 192 Q566 110 692 110 Q833 110 938 213.5 Q1043 317 1104 515 Z M1082 1655 L1040 1461 L897 1461 L938 1655 L1082 1655 Z " />
<glyph glyph-name="cdotaccent" unicode="&#x10b;" horiz-adv-x="948" d="M801 336 L965 336 Q940 226 858 130 Q722 -29 516 -29 Q350 -29 260 65 Q164 164 164 334 Q164 454 198.5 568 Q233 682 295 764 Q450 971 696 971 Q851 971 938 892 Q1026 811 1026 680 Q1026 664 1025 644 L859 644 Q858 707 849 736 Q811 848 683 848 Q518 848 410 670 Q320 521 320 332 Q320 220 374 157 Q428 94 523 94 Q648 94 736 208 Q776 259 801 336 Z M856 1297 L815 1106 L672 1106 L712 1297 L856 1297 Z " />
<glyph glyph-name="Ccaron" unicode="&#x10c;" horiz-adv-x="1267" d="M1104 515 L1274 515 Q1223 317 1125 189 Q956 -33 685 -33 Q465 -33 353 102 Q301 163 271.5 263 Q242 363 242 474 Q242 683 311 877 Q395 1111 577 1261 Q740 1396 953 1396 Q1155 1396 1266 1275 Q1311 1227 1337 1159.5 Q1363 1092 1363 1024 Q1363 1002 1358 956 L1187 956 Q1188 976 1188 982 Q1188 1090 1131 1166 Q1067 1253 935 1253 Q711 1253 558 997 Q493 889 456 747 Q419 605 419 466 Q419 286 498 192 Q566 110 692 110 Q833 110 938 213.5 Q1043 317 1104 515 Z M750 1734 L902 1735 L988 1549 L1155 1734 L1310 1734 L1072 1475 L881 1475 L750 1734 Z " />
<glyph glyph-name="ccaron" unicode="&#x10d;" horiz-adv-x="948" d="M801 336 L965 336 Q940 226 858 130 Q722 -29 516 -29 Q350 -29 260 65 Q164 164 164 334 Q164 454 198.5 568 Q233 682 295 764 Q450 971 696 971 Q851 971 938 892 Q1026 811 1026 680 Q1026 664 1025 644 L859 644 Q858 707 849 736 Q811 848 683 848 Q518 848 410 670 Q320 521 320 332 Q320 220 374 157 Q428 94 523 94 Q648 94 736 208 Q776 259 801 336 Z M527 1365 L663 1365 L744 1168 L913 1365 L1052 1365 L814 1092 L650 1092 L527 1365 Z " />
<glyph glyph-name="Dcaron" unicode="&#x10e;" horiz-adv-x="1278" d="M197 0 L487 1365 L851 1365 Q1049 1365 1172 1269 Q1326 1148 1326 879 Q1326 701 1275.5 532.5 Q1225 364 1136 243 Q1041 114 912.5 57 Q784 0 590 0 L197 0 Z M394 145 L592 145 Q681 145 732 153.5 Q783 162 831 184 Q973 251 1053 428 Q1152 646 1152 875 Q1152 1053 1060 1143 Q982 1220 836 1220 L623 1220 L394 145 Z M674 1734 L826 1735 L912 1549 L1079 1734 L1234 1734 L996 1475 L805 1475 L674 1734 Z " />
<glyph glyph-name="dcaron" unicode="&#x10f;" horiz-adv-x="1173" d="M923 0 L770 0 L794 114 Q672 -29 491 -29 Q345 -29 258 59 Q214 103 189 174.5 Q164 246 164 326 Q164 458 203.5 586 Q243 714 308 793 Q454 971 676 971 Q858 971 947 833 L1061 1365 L1213 1365 L923 0 Z M683 848 Q522 848 420 685 Q322 531 322 340 Q322 210 387 146 Q438 94 519 94 Q600 94 672 139 Q744 184 793 265 Q835 334 860.5 428.5 Q886 523 886 611 Q886 742 812 803 Q758 848 683 848 Z M1500 1365 L1472 1232 Q1428 1018 1263 1001 L1277 1070 Q1352 1088 1383 1196 L1304 1196 L1340 1365 L1500 1365 Z " />
<glyph glyph-name="Dcroat" unicode="&#x110;" horiz-adv-x="1292" d="M375 773 L501 1365 L864 1365 Q1062 1365 1185 1269 Q1339 1148 1339 880 Q1339 701 1288.5 532.5 Q1238 364 1149 243 Q1054 114 926 57 Q798 0 604 0 L211 0 L345 632 L191 632 L221 773 L375 773 Z M541 773 L844 773 L814 632 L511 632 L408 145 L605 145 Q695 145 745.5 153.5 Q796 162 844 184 Q986 252 1066 428 Q1165 647 1165 876 Q1165 1053 1073 1144 Q996 1220 849 1220 L636 1220 L541 773 Z " />
<glyph glyph-name="dcroat" unicode="&#x111;" horiz-adv-x="1045" d="M1026 1200 L1061 1365 L1213 1365 L1178 1200 L1295 1200 L1271 1088 L1154 1088 L923 0 L770 0 L794 114 Q672 -29 491 -29 Q345 -29 258 59 Q214 103 189 174.5 Q164 246 164 326 Q164 458 203.5 586 Q243 714 308 793 Q454 971 676 971 Q858 971 947 833 L1002 1088 L731 1088 L755 1200 L1026 1200 Z M683 848 Q522 848 420 685 Q322 531 322 340 Q322 210 387 146 Q438 94 519 94 Q600 94 672 139 Q744 184 793 265 Q835 334 860.5 428.5 Q886 523 886 611 Q886 742 812 803 Q758 848 683 848 Z " />
<glyph glyph-name="Emacron" unicode="&#x112;" horiz-adv-x="1114" d="M197 0 L487 1365 L1276 1365 L1245 1220 L623 1220 L528 773 L1108 773 L1078 632 L498 632 L394 145 L1025 145 L994 0 L197 0 Z M1197 1603 L1172 1486 L612 1486 L637 1603 L1197 1603 Z " />
<glyph glyph-name="emacron" unicode="&#x113;" horiz-adv-x="986" d="M995 431 L337 431 Q326 373 326 331 Q326 232 372 172 Q434 93 551 93 Q658 93 736 166 L909 166 Q850 71 755 21 Q660 -29 539 -29 Q374 -29 280 57 Q166 162 166 351 Q166 471 205 588 Q244 705 312 789 Q459 971 679 971 Q853 971 940 876 Q1022 785 1022 642 Q1022 559 995 431 Z M856 554 Q864 605 864 636 Q864 728 823 783 Q775 848 673 848 Q545 848 454 731 Q400 660 366 554 L856 554 Z M1015 1252 L991 1140 L489 1140 L513 1252 L1015 1252 Z " />
<glyph glyph-name="Ebreve" unicode="&#x114;" horiz-adv-x="1114" d="M197 0 L487 1365 L1276 1365 L1245 1220 L623 1220 L528 773 L1108 773 L1078 632 L498 632 L394 145 L1025 145 L994 0 L197 0 Z M1208 1748 Q1196 1656 1167 1606 Q1092 1475 921 1475 Q809 1475 747 1534 Q685 1593 685 1700 Q685 1716 688 1748 L794 1748 Q793 1731 793 1724 Q793 1660 829.5 1623.5 Q866 1587 931 1587 Q1000 1587 1040.5 1625 Q1081 1663 1102 1748 L1208 1748 Z " />
<glyph glyph-name="ebreve" unicode="&#x115;" horiz-adv-x="986" d="M995 431 L337 431 Q326 373 326 331 Q326 232 372 172 Q434 93 551 93 Q658 93 736 166 L909 166 Q850 71 755 21 Q660 -29 539 -29 Q374 -29 280 57 Q166 162 166 351 Q166 471 205 588 Q244 705 312 789 Q459 971 679 971 Q853 971 940 876 Q1022 785 1022 642 Q1022 559 995 431 Z M856 554 Q864 605 864 636 Q864 728 823 783 Q775 848 673 848 Q545 848 454 731 Q400 660 366 554 L856 554 Z M1027 1365 Q993 1092 762 1092 Q657 1092 598 1148.5 Q539 1205 539 1304 Q539 1325 543 1365 L644 1365 Q643 1348 643 1340 Q643 1274 677 1237 Q711 1200 772 1200 Q900 1200 925 1365 L1027 1365 Z " />
<glyph glyph-name="Edotaccent" unicode="&#x116;" horiz-adv-x="1114" d="M197 0 L487 1365 L1276 1365 L1245 1220 L623 1220 L528 773 L1108 773 L1078 632 L498 632 L394 145 L1025 145 L994 0 L197 0 Z M1016 1655 L974 1461 L831 1461 L872 1655 L1016 1655 Z " />
<glyph glyph-name="edotaccent" unicode="&#x117;" horiz-adv-x="986" d="M995 431 L337 431 Q326 373 326 331 Q326 232 372 172 Q434 93 551 93 Q658 93 736 166 L909 166 Q850 71 755 21 Q660 -29 539 -29 Q374 -29 280 57 Q166 162 166 351 Q166 471 205 588 Q244 705 312 789 Q459 971 679 971 Q853 971 940 876 Q1022 785 1022 642 Q1022 559 995 431 Z M856 554 Q864 605 864 636 Q864 728 823 783 Q775 848 673 848 Q545 848 454 731 Q400 660 366 554 L856 554 Z M836 1297 L795 1106 L652 1106 L693 1297 L836 1297 Z " />
<glyph glyph-name="Eogonek" unicode="&#x118;" horiz-adv-x="1114" d="M994 0 Q862 -102 862 -189 Q862 -224 886 -244.5 Q910 -265 950 -265 Q980 -265 1031 -247 L1012 -338 Q953 -360 902 -360 Q829 -360 786 -324.5 Q743 -289 743 -230 Q743 -114 899 0 L197 0 L487 1365 L1276 1365 L1245 1220 L623 1220 L528 773 L1108 773 L1078 632 L498 632 L394 145 L1025 145 L994 0 Z " />
<glyph glyph-name="eogonek" unicode="&#x119;" horiz-adv-x="986" d="M766 -247 L747 -338 Q685 -360 635 -360 Q563 -360 518.5 -324 Q474 -288 474 -229 Q474 -123 598 -26 Q567 -29 541 -29 Q374 -29 280 57 Q166 162 166 351 Q166 471 205 588 Q244 705 312 789 Q459 971 679 971 Q853 971 940 876 Q1022 785 1022 642 Q1022 559 995 431 L337 431 Q326 373 326 331 Q326 232 372 172 Q434 93 551 93 Q658 93 736 166 L909 166 Q881 121 851.5 93 Q822 65 747 13 Q597 -92 597 -189 Q597 -265 688 -265 Q721 -265 766 -247 Z M856 554 Q864 605 864 636 Q864 728 823 783 Q775 848 673 848 Q545 848 454 731 Q400 660 366 554 L856 554 Z " />
<glyph glyph-name="Ecaron" unicode="&#x11a;" horiz-adv-x="1114" d="M197 0 L487 1365 L1276 1365 L1245 1220 L623 1220 L528 773 L1108 773 L1078 632 L498 632 L394 145 L1025 145 L994 0 L197 0 Z M681 1734 L833 1735 L919 1549 L1086 1734 L1241 1734 L1003 1475 L812 1475 L681 1734 Z " />
<glyph glyph-name="ecaron" unicode="&#x11b;" horiz-adv-x="986" d="M995 431 L337 431 Q326 373 326 331 Q326 232 372 172 Q434 93 551 93 Q658 93 736 166 L909 166 Q850 71 755 21 Q660 -29 539 -29 Q374 -29 280 57 Q166 162 166 351 Q166 471 205 588 Q244 705 312 789 Q459 971 679 971 Q853 971 940 876 Q1022 785 1022 642 Q1022 559 995 431 Z M856 554 Q864 605 864 636 Q864 728 823 783 Q775 848 673 848 Q545 848 454 731 Q400 660 366 554 L856 554 Z M522 1365 L658 1365 L739 1168 L908 1365 L1047 1365 L809 1092 L645 1092 L522 1365 Z " />
<glyph glyph-name="Gcircumflex" unicode="&#x11c;" horiz-adv-x="1348" d="M1183 0 L1042 0 L1079 174 Q993 66 897 16.5 Q801 -33 679 -33 Q453 -33 342 119 Q242 256 242 478 Q242 691 318 891 Q420 1164 641 1305 Q784 1397 962 1397 Q1181 1397 1291 1267 Q1379 1163 1379 1021 Q1379 997 1373 946 L1206 945 Q1208 973 1208 985 Q1208 1069 1170 1140 Q1109 1254 948 1254 Q701 1254 546 982 Q416 756 416 483 Q416 390 440 310 Q464 230 506 185 Q576 111 701 111 Q867 111 985 232 Q1103 353 1156 578 L797 578 L828 721 L1336 721 L1183 0 Z M1260 1475 L1108 1474 L1022 1660 L854 1475 L700 1475 L938 1734 L1129 1734 L1260 1475 Z " />
<glyph glyph-name="gcircumflex" unicode="&#x11d;" horiz-adv-x="1059" d="M80 -147 L249 -148 Q257 -188 304.5 -210 Q352 -232 430 -232 Q561 -232 641 -156 Q721 -80 754 77 L767 139 Q660 -13 479 -13 Q340 -13 256 75 Q212 120 187 192 Q162 264 162 344 Q162 459 200.5 575.5 Q239 692 307 781 Q452 971 670 971 Q765 971 826 936 Q887 901 924 825 L948 942 L1099 942 L927 133 Q900 4 875.5 -60 Q851 -124 808 -182 Q679 -355 415 -355 Q261 -355 173.5 -301 Q86 -247 80 -147 Z M663 848 Q505 848 408 672 Q321 516 321 340 Q321 248 356 191 Q406 110 509 110 Q670 110 772 291 Q860 445 860 619 Q860 716 820 775 Q770 848 663 848 Z M1017 1092 L881 1092 L800 1289 L632 1092 L492 1092 L730 1365 L894 1365 L1017 1092 Z " />
<glyph glyph-name="Gbreve" unicode="&#x11e;" horiz-adv-x="1348" d="M1183 0 L1042 0 L1079 174 Q993 66 897 16.5 Q801 -33 679 -33 Q453 -33 342 119 Q242 256 242 478 Q242 691 318 891 Q420 1164 641 1305 Q784 1397 962 1397 Q1181 1397 1291 1267 Q1379 1163 1379 1021 Q1379 997 1373 946 L1206 945 Q1208 973 1208 985 Q1208 1069 1170 1140 Q1109 1254 948 1254 Q701 1254 546 982 Q416 756 416 483 Q416 390 440 310 Q464 230 506 185 Q576 111 701 111 Q867 111 985 232 Q1103 353 1156 578 L797 578 L828 721 L1336 721 L1183 0 Z M1279 1748 Q1267 1656 1238 1606 Q1163 1475 992 1475 Q880 1475 818 1534 Q756 1593 756 1700 Q756 1716 759 1748 L865 1748 Q864 1732 864 1724 Q864 1660 900.5 1623.5 Q937 1587 1002 1587 Q1072 1587 1112 1625 Q1152 1663 1173 1748 L1279 1748 Z " />
<glyph glyph-name="gbreve" unicode="&#x11f;" horiz-adv-x="1059" d="M80 -147 L249 -148 Q257 -188 304.5 -210 Q352 -232 430 -232 Q561 -232 641 -156 Q721 -80 754 77 L767 139 Q660 -13 479 -13 Q340 -13 256 75 Q212 120 187 192 Q162 264 162 344 Q162 459 200.5 575.5 Q239 692 307 781 Q452 971 670 971 Q765 971 826 936 Q887 901 924 825 L948 942 L1099 942 L927 133 Q900 4 875.5 -60 Q851 -124 808 -182 Q679 -355 415 -355 Q261 -355 173.5 -301 Q86 -247 80 -147 Z M663 848 Q505 848 408 672 Q321 516 321 340 Q321 248 356 191 Q406 110 509 110 Q670 110 772 291 Q860 445 860 619 Q860 716 820 775 Q770 848 663 848 Z M1020 1365 Q985 1092 754 1092 Q650 1092 591 1148.5 Q532 1205 532 1304 Q532 1326 535 1365 L637 1365 Q636 1348 636 1340 Q636 1274 670 1237 Q704 1200 765 1200 Q892 1200 918 1365 L1020 1365 Z " />
<glyph glyph-name="Gdotaccent" unicode="&#x120;" horiz-adv-x="1348" d="M1183 0 L1042 0 L1079 174 Q993 66 897 16.5 Q801 -33 679 -33 Q453 -33 342 119 Q242 256 242 478 Q242 691 318 891 Q420 1164 641 1305 Q784 1397 962 1397 Q1181 1397 1291 1267 Q1379 1163 1379 1021 Q1379 997 1373 946 L1206 945 Q1208 973 1208 985 Q1208 1069 1170 1140 Q1109 1254 948 1254 Q701 1254 546 982 Q416 756 416 483 Q416 390 440 310 Q464 230 506 185 Q576 111 701 111 Q867 111 985 232 Q1103 353 1156 578 L797 578 L828 721 L1336 721 L1183 0 Z M1109 1655 L1068 1461 L924 1461 L965 1655 L1109 1655 Z " />
<glyph glyph-name="gdotaccent" unicode="&#x121;" horiz-adv-x="1059" d="M80 -147 L249 -148 Q257 -188 304.5 -210 Q352 -232 430 -232 Q561 -232 641 -156 Q721 -80 754 77 L767 139 Q660 -13 479 -13 Q340 -13 256 75 Q212 120 187 192 Q162 264 162 344 Q162 459 200.5 575.5 Q239 692 307 781 Q452 971 670 971 Q765 971 826 936 Q887 901 924 825 L948 942 L1099 942 L927 133 Q900 4 875.5 -60 Q851 -124 808 -182 Q679 -355 415 -355 Q261 -355 173.5 -301 Q86 -247 80 -147 Z M663 848 Q505 848 408 672 Q321 516 321 340 Q321 248 356 191 Q406 110 509 110 Q670 110 772 291 Q860 445 860 619 Q860 716 820 775 Q770 848 663 848 Z M873 1297 L833 1106 L689 1106 L730 1297 L873 1297 Z " />
<glyph glyph-name="Gcommaaccent" unicode="&#x122;" horiz-adv-x="1348" d="M1183 0 L1042 0 L1079 174 Q993 66 897 16.5 Q801 -33 679 -33 Q453 -33 342 119 Q242 256 242 478 Q242 691 318 891 Q420 1164 641 1305 Q784 1397 962 1397 Q1181 1397 1291 1267 Q1379 1163 1379 1021 Q1379 997 1373 946 L1206 945 Q1208 973 1208 985 Q1208 1069 1170 1140 Q1109 1254 948 1254 Q701 1254 546 982 Q416 756 416 483 Q416 390 440 310 Q464 230 506 185 Q576 111 701 111 Q867 111 985 232 Q1103 353 1156 578 L797 578 L828 721 L1336 721 L1183 0 Z M748 -84 L720 -217 Q697 -326 646.5 -382 Q596 -438 511 -448 L525 -379 Q600 -359 631 -253 L552 -253 L588 -84 L748 -84 Z " />
<glyph glyph-name="gcommaaccent" unicode="&#x123;" horiz-adv-x="1059" d="M80 -147 L249 -148 Q257 -188 304.5 -210 Q352 -232 430 -232 Q561 -232 641 -156 Q721 -80 754 77 L767 139 Q660 -13 479 -13 Q340 -13 256 75 Q212 120 187 192 Q162 264 162 344 Q162 459 200.5 575.5 Q239 692 307 781 Q452 971 670 971 Q765 971 826 936 Q887 901 924 825 L948 942 L1099 942 L927 133 Q900 4 875.5 -60 Q851 -124 808 -182 Q679 -355 415 -355 Q261 -355 173.5 -301 Q86 -247 80 -147 Z M663 848 Q505 848 408 672 Q321 516 321 340 Q321 248 356 191 Q406 110 509 110 Q670 110 772 291 Q860 445 860 619 Q860 716 820 775 Q770 848 663 848 Z M670 1093 L698 1226 Q742 1440 907 1457 L893 1388 L887 1387 Q820 1368 788 1262 L866 1262 L830 1093 L670 1093 Z " />
<glyph glyph-name="Hcircumflex" unicode="&#x124;" horiz-adv-x="1311" d="M197 0 L487 1365 L654 1365 L532 791 L1115 791 L1238 1365 L1404 1365 L1114 0 L947 0 L1084 646 L501 646 L364 0 L197 0 Z M1247 1475 L1096 1474 L1009 1660 L842 1475 L687 1475 L925 1734 L1117 1734 L1247 1475 Z " />
<glyph glyph-name="hcircumflex" unicode="&#x125;" horiz-adv-x="1049" d="M157 0 L447 1365 L600 1365 L485 828 Q612 971 788 971 Q909 971 976.5 909 Q1044 847 1044 737 Q1044 673 1031 612 L901 0 L748 0 L874 594 Q888 657 888 712 Q888 776 848.5 812 Q809 848 738 848 Q584 848 491 707 Q464 666 446 613 Q428 560 404 445 L310 0 L157 0 Z M823 1475 L671 1474 L585 1660 L418 1475 L263 1475 L501 1734 L692 1734 L823 1475 Z " />
<glyph glyph-name="Hbar" unicode="&#x126;" horiz-adv-x="1313" d="M406 976 L296 976 L321 1093 L430 1093 L488 1365 L655 1365 L597 1093 L1181 1093 L1239 1365 L1405 1365 L1347 1093 L1456 1093 L1432 976 L1322 976 L1115 0 L948 0 L1085 646 L502 646 L365 0 L198 0 L406 976 Z M572 976 L533 791 L1116 791 L1156 976 L572 976 Z " />
<glyph glyph-name="hbar" unicode="&#x127;" horiz-adv-x="1050" d="M424 1252 L448 1365 L601 1365 L577 1252 L837 1252 L813 1140 L553 1140 L486 828 Q613 971 789 971 Q910 971 977.5 909 Q1045 847 1045 737 Q1045 673 1032 612 L902 0 L749 0 L875 594 Q889 657 889 712 Q889 776 849.5 812 Q810 848 739 848 Q585 848 492 707 Q465 666 447 613 Q429 560 405 445 L311 0 L158 0 L400 1140 L278 1140 L302 1252 L424 1252 Z " />
<glyph glyph-name="Itilde" unicode="&#x128;" horiz-adv-x="561" d="M197 0 L487 1365 L654 1365 L364 0 L197 0 Z M909 1686 Q875 1586 817.5 1530 Q760 1474 692 1474 Q635 1474 574 1531 Q527 1574 490 1574 Q430 1574 392 1481 L289 1481 Q366 1693 508 1693 Q565 1693 626 1639 Q675 1597 704 1597 Q765 1597 803 1686 L909 1686 Z " />
<glyph glyph-name="itilde" unicode="&#x129;" horiz-adv-x="467" d="M157 0 L357 942 L510 942 L310 0 L157 0 Z M802 1317 Q727 1106 603 1106 Q554 1106 477 1162 Q419 1205 388 1205 Q337 1205 297 1113 L196 1113 Q219 1181 247 1224 Q313 1324 400 1324 Q451 1324 523 1268 Q580 1224 605 1224 Q661 1224 700 1317 L802 1317 Z " />
<glyph glyph-name="Imacron" unicode="&#x12a;" horiz-adv-x="561" d="M197 0 L487 1365 L654 1365 L364 0 L197 0 Z M905 1603 L880 1486 L320 1486 L345 1603 L905 1603 Z " />
<glyph glyph-name="imacron" unicode="&#x12b;" horiz-adv-x="467" d="M157 0 L357 942 L510 942 L310 0 L157 0 Z M745 1252 L721 1140 L219 1140 L243 1252 L745 1252 Z " />
<glyph glyph-name="Ibreve" unicode="&#x12c;" horiz-adv-x="561" d="M197 0 L487 1365 L654 1365 L364 0 L197 0 Z M878 1748 Q866 1656 837 1606 Q762 1475 591 1475 Q479 1475 417 1534 Q355 1593 355 1700 Q355 1717 358 1748 L464 1748 Q463 1733 463 1724 Q463 1660 499.5 1623.5 Q536 1587 601 1587 Q670 1587 710 1625 Q750 1663 772 1748 L878 1748 Z " />
<glyph glyph-name="ibreve" unicode="&#x12d;" horiz-adv-x="467" d="M157 0 L357 942 L510 942 L310 0 L157 0 Z M738 1365 Q703 1092 472 1092 Q368 1092 309 1148.5 Q250 1205 250 1304 Q250 1326 253 1365 L355 1365 Q354 1349 354 1340 Q354 1274 388 1237 Q422 1200 483 1200 Q610 1200 636 1365 L738 1365 Z " />
<glyph glyph-name="Iogonek" unicode="&#x12e;" horiz-adv-x="561" d="M364 0 Q232 -102 232 -189 Q232 -224 256 -244.5 Q280 -265 320 -265 Q350 -265 401 -247 L383 -338 Q324 -360 272 -360 Q200 -360 156.5 -324.5 Q113 -289 113 -230 Q113 -114 269 0 L197 0 L488 1365 L654 1365 L364 0 Z " />
<glyph glyph-name="iogonek" unicode="&#x12f;" horiz-adv-x="467" d="M309 0 Q177 -99 177 -189 Q177 -265 268 -265 Q301 -265 347 -247 L328 -338 Q265 -360 216 -360 Q143 -360 98.5 -324 Q54 -288 54 -229 Q54 -113 214 0 L157 0 L357 942 L509 942 L309 0 Z M403 1157 L447 1365 L608 1365 L564 1157 L403 1157 Z " />
<glyph glyph-name="Idot" unicode="&#x130;" horiz-adv-x="561" d="M197 0 L487 1365 L654 1365 L364 0 L197 0 Z M702 1655 L660 1461 L517 1461 L558 1655 L702 1655 Z " />
<glyph glyph-name="IJ" unicode="&#x132;" horiz-adv-x="1112" d="M197 0 L487 1365 L654 1365 L364 0 L197 0 Z M464 -19 L495 128 Q537 110 584 110 Q720 110 794 234 Q818 274 832.5 320 Q847 366 874 495 L1059 1365 L1226 1365 L1035 467 Q1000 305 974 234 Q948 163 901 104 Q844 33 763 0 Q682 -33 566 -33 Q518 -33 464 -19 Z " />
<glyph glyph-name="ij" unicode="&#x133;" horiz-adv-x="941" d="M157 0 L357 942 L510 942 L310 0 L157 0 Z M403 1157 L447 1365 L609 1365 L565 1157 L403 1157 Z M413 -349 L441 -218 Q472 -226 495 -226 Q583 -226 609 -101 L831 942 L983 942 L766 -80 Q738 -211 685 -272 Q613 -355 482 -355 Q453 -355 413 -349 Z M877 1157 L921 1365 L1083 1365 L1038 1157 L877 1157 Z " />
<glyph glyph-name="Jcircumflex" unicode="&#x134;" horiz-adv-x="643" d="M-4 -19 L27 128 Q69 110 116 110 Q252 110 326 234 Q350 274 364.5 320 Q379 366 406 495 L591 1365 L758 1365 L567 467 Q532 305 506 234 Q480 163 433 104 Q376 33 295 0 Q214 -33 98 -33 Q50 -33 -4 -19 Z M964 1475 L813 1474 L726 1660 L559 1475 L404 1475 L642 1734 L834 1734 L964 1475 Z " />
<glyph glyph-name="jcircumflex" unicode="&#x135;" horiz-adv-x="459" d="M-69 -349 L-41 -218 Q-10 -226 13 -226 Q101 -226 127 -101 L349 942 L501 942 L284 -80 Q256 -211 203 -272 Q131 -355 0 -355 Q-29 -355 -69 -349 Z M711 1092 L575 1092 L493 1289 L325 1092 L186 1092 L424 1365 L588 1365 L711 1092 Z " />
<glyph glyph-name="Kcommaaccent" unicode="&#x136;" horiz-adv-x="1138" d="M785 791 L1132 0 L943 0 L653 669 L470 501 L364 0 L197 0 L487 1365 L654 1365 L517 720 L1205 1365 L1411 1365 L785 791 Z M700 -84 L672 -217 Q649 -326 598.5 -382 Q548 -438 463 -448 L477 -379 Q552 -359 583 -253 L504 -253 L540 -84 L700 -84 Z " />
<glyph glyph-name="kcommaaccent" unicode="&#x137;" horiz-adv-x="954" d="M659 585 L933 0 L755 0 L531 483 L388 370 L310 0 L157 0 L447 1365 L600 1365 L429 563 L900 942 L1110 942 L659 585 Z M590 -84 L562 -217 Q518 -431 353 -448 L367 -379 Q442 -359 473 -253 L394 -253 L430 -84 L590 -84 Z " />
<glyph glyph-name="kgreenlandic" unicode="&#x138;" horiz-adv-x="940" d="M654 552 L933 0 L755 0 L534 447 L375 309 L310 0 L157 0 L357 942 L510 942 L416 503 L900 942 L1103 942 L654 552 Z " />
<glyph glyph-name="Lacute" unicode="&#x139;" horiz-adv-x="962" d="M197 0 L487 1365 L654 1365 L394 145 L989 145 L958 0 L197 0 Z M920 1734 L667 1479 L537 1479 L768 1734 L920 1734 Z " />
<glyph glyph-name="lacute" unicode="&#x13a;" horiz-adv-x="467" d="M157 0 L447 1365 L600 1365 L310 0 L157 0 Z M865 1734 L612 1479 L482 1479 L713 1734 L865 1734 Z " />
<glyph glyph-name="Lcommaaccent" unicode="&#x13b;" horiz-adv-x="962" d="M197 0 L487 1365 L654 1365 L394 145 L989 145 L958 0 L197 0 Z M640 -84 L612 -217 Q589 -326 538.5 -382 Q488 -438 403 -448 L417 -379 Q492 -359 523 -253 L444 -253 L480 -84 L640 -84 Z " />
<glyph glyph-name="lcommaaccent" unicode="&#x13c;" horiz-adv-x="467" d="M157 0 L447 1365 L600 1365 L310 0 L157 0 Z M303 -84 L275 -217 Q231 -431 66 -448 L80 -379 Q155 -359 186 -253 L107 -253 L143 -84 L303 -84 Z " />
<glyph glyph-name="Lcaron" unicode="&#x13d;" horiz-adv-x="962" d="M197 0 L487 1365 L654 1365 L394 145 L989 145 L958 0 L197 0 Z M1084 1365 L1056 1232 Q1033 1122 982.5 1066.5 Q932 1011 847 1001 L861 1070 Q936 1088 967 1196 L888 1196 L924 1365 L1084 1365 Z " />
<glyph glyph-name="lcaron" unicode="&#x13e;" horiz-adv-x="559" d="M157 0 L447 1365 L600 1365 L310 0 L157 0 Z M859 1365 L831 1232 Q787 1018 622 1001 L636 1070 Q711 1088 742 1196 L663 1196 L699 1365 L859 1365 Z " />
<glyph glyph-name="Ldot" unicode="&#x13f;" horiz-adv-x="962" d="M197 0 L487 1365 L654 1365 L394 145 L989 145 L958 0 L197 0 Z M851 775 L810 584 L667 584 L707 775 L851 775 Z " />
<glyph glyph-name="ldot" unicode="&#x140;" horiz-adv-x="589" d="M157 0 L447 1365 L600 1365 L310 0 L157 0 Z M726 804 L685 613 L542 613 L582 804 L726 804 Z " />
<glyph glyph-name="Lslash" unicode="&#x141;" horiz-adv-x="976" d="M150 426 L182 578 L358 690 L501 1365 L668 1365 L547 796 L865 997 L833 845 L515 644 L408 145 L1003 145 L972 0 L211 0 L325 538 L150 426 Z " />
<glyph glyph-name="lslash" unicode="&#x142;" horiz-adv-x="455" d="M91 471 L122 614 L310 744 L442 1365 L595 1365 L488 863 L676 993 L646 850 L457 720 L304 0 L152 0 L280 601 L91 471 Z " />
<glyph glyph-name="Nacute" unicode="&#x143;" horiz-adv-x="1320" d="M197 0 L487 1365 L667 1365 L1020 232 L1261 1365 L1413 1365 L1123 0 L943 0 L590 1133 L350 0 L197 0 Z M1282 1734 L1029 1479 L899 1479 L1130 1734 L1282 1734 Z " />
<glyph glyph-name="nacute" unicode="&#x144;" horiz-adv-x="1044" d="M157 0 L357 942 L510 942 L485 828 Q612 971 788 971 Q909 971 976.5 909 Q1044 847 1044 737 Q1044 673 1031 612 L901 0 L748 0 L874 594 Q888 657 888 712 Q888 776 848.5 812 Q809 848 738 848 Q584 848 491 707 Q464 666 446 613 Q428 560 404 445 L310 0 L157 0 Z M1076 1365 L839 1092 L709 1092 L930 1365 L1076 1365 Z " />
<glyph glyph-name="Ncommaaccent" unicode="&#x145;" horiz-adv-x="1320" d="M197 0 L487 1365 L667 1365 L1020 232 L1261 1365 L1413 1365 L1123 0 L943 0 L590 1133 L350 0 L197 0 Z M746 -84 L718 -217 Q695 -326 644.5 -382 Q594 -438 509 -448 L523 -379 Q598 -359 629 -253 L550 -253 L586 -84 L746 -84 Z " />
<glyph glyph-name="ncommaaccent" unicode="&#x146;" horiz-adv-x="1044" d="M157 0 L357 942 L510 942 L485 828 Q612 971 788 971 Q909 971 976.5 909 Q1044 847 1044 737 Q1044 673 1031 612 L901 0 L748 0 L874 594 Q888 657 888 712 Q888 776 848.5 812 Q809 848 738 848 Q584 848 491 707 Q464 666 446 613 Q428 560 404 445 L310 0 L157 0 Z M603 -84 L575 -217 Q531 -431 366 -448 L380 -379 Q455 -359 486 -253 L407 -253 L443 -84 L603 -84 Z " />
<glyph glyph-name="Ncaron" unicode="&#x147;" horiz-adv-x="1320" d="M197 0 L487 1365 L667 1365 L1020 232 L1261 1365 L1413 1365 L1123 0 L943 0 L590 1133 L350 0 L197 0 Z M762 1734 L914 1735 L1000 1549 L1167 1734 L1322 1734 L1084 1475 L893 1475 L762 1734 Z " />
<glyph glyph-name="ncaron" unicode="&#x148;" horiz-adv-x="1044" d="M157 0 L357 942 L510 942 L485 828 Q612 971 788 971 Q909 971 976.5 909 Q1044 847 1044 737 Q1044 673 1031 612 L901 0 L748 0 L874 594 Q888 657 888 712 Q888 776 848.5 812 Q809 848 738 848 Q584 848 491 707 Q464 666 446 613 Q428 560 404 445 L310 0 L157 0 Z M571 1365 L707 1365 L788 1168 L957 1365 L1096 1365 L858 1092 L694 1092 L571 1365 Z " />
<glyph glyph-name="napostrophe" unicode="&#x149;" horiz-adv-x="1101" d="M411 1143 L383 1010 Q339 796 164 779 L178 848 L185 849 Q256 868 288 974 L205 974 L241 1143 L411 1143 Z M213 0 L414 942 L566 942 L542 828 Q669 971 845 971 Q966 971 1033.5 909 Q1101 847 1101 737 Q1101 676 1088 612 L957 0 L805 0 L931 594 Q945 660 945 712 Q945 776 905.5 812 Q866 848 795 848 Q641 848 548 707 Q520 666 502.5 612.5 Q485 559 461 445 L366 0 L213 0 Z " />
<glyph glyph-name="Eng" unicode="&#x14a;" horiz-adv-x="1310" d="M487 1365 L654 1365 L617 1190 Q692 1269 745 1305 Q867 1388 1016 1388 Q1195 1388 1299 1281 Q1376 1202 1376 1068 Q1376 976 1346 837 L1237 321 Q1188 94 1093 -5 Q960 -142 761 -142 Q688 -142 604 -113 L635 34 Q709 1 776 1 Q902 1 970 68 Q1003 100 1024.5 153.5 Q1046 207 1069 316 L1186 866 Q1211 985 1211 1045 Q1211 1121 1163 1173 Q1098 1242 963 1242 Q837 1242 737 1170 Q658 1112 608 1012.5 Q558 913 521 742 L364 0 L197 0 L487 1365 Z " />
<glyph glyph-name="eng" unicode="&#x14b;" horiz-adv-x="1051" d="M310 0 L157 0 L357 942 L510 942 L485 828 Q612 971 788 971 Q909 971 976.5 909 Q1044 847 1044 737 Q1044 673 1031 612 L937 171 Q894 -32 860 -86 Q788 -201 629 -201 Q597 -201 555 -195 L583 -64 Q615 -72 643 -72 Q706 -72 726 -36.5 Q746 -1 783 170 L874 594 Q888 656 888 712 Q888 776 848.5 812 Q809 848 738 848 Q584 848 491 707 Q464 666 446 613 Q428 560 404 445 L310 0 Z " />
<glyph glyph-name="Omacron" unicode="&#x14c;" horiz-adv-x="1353" d="M946 1396 Q1156 1396 1277 1264 Q1343 1191 1376 1074 Q1402 985 1402 888 Q1402 732 1356 571.5 Q1310 411 1229 285 Q1024 -33 697 -33 Q460 -33 343 126 Q242 263 242 482 Q242 690 316 885 Q409 1133 596 1277 Q753 1396 946 1396 Z M931 1250 Q715 1250 562 1008 Q417 780 417 473 Q417 286 502 194 Q579 110 698 110 Q924 110 1079 359 Q1147 469 1186.5 611.5 Q1226 754 1226 890 Q1226 1072 1138 1170 Q1065 1250 931 1250 Z M1295 1603 L1270 1486 L710 1486 L735 1603 L1295 1603 Z " />
<glyph glyph-name="omacron" unicode="&#x14d;" horiz-adv-x="1023" d="M703 971 Q858 971 953 887 Q1061 793 1061 604 Q1061 469 1012 337 Q935 128 775 34 Q668 -29 531 -29 Q359 -29 265 63 Q164 161 164 332 Q164 449 199.5 564 Q235 679 297 763 Q450 971 703 971 Z M694 848 Q523 848 413 675 Q320 528 320 336 Q320 195 401 134 Q455 94 535 94 Q688 94 791 239 Q842 311 872.5 410.5 Q903 510 903 606 Q903 743 826 804 Q773 848 694 848 Z M1028 1252 L1004 1140 L502 1140 L526 1252 L1028 1252 Z " />
<glyph glyph-name="Obreve" unicode="&#x14e;" horiz-adv-x="1353" d="M946 1396 Q1156 1396 1277 1264 Q1343 1191 1376 1074 Q1402 985 1402 888 Q1402 732 1356 571.5 Q1310 411 1229 285 Q1024 -33 697 -33 Q460 -33 343 126 Q242 263 242 482 Q242 690 316 885 Q409 1133 596 1277 Q753 1396 946 1396 Z M931 1250 Q715 1250 562 1008 Q417 780 417 473 Q417 286 502 194 Q579 110 698 110 Q924 110 1079 359 Q1147 469 1186.5 611.5 Q1226 754 1226 890 Q1226 1072 1138 1170 Q1065 1250 931 1250 Z M1294 1748 Q1282 1656 1253 1606 Q1178 1475 1007 1475 Q895 1475 833 1534 Q771 1593 771 1700 Q771 1716 774 1748 L880 1748 Q879 1732 879 1724 Q879 1660 915.5 1623.5 Q952 1587 1017 1587 Q1087 1587 1127 1625 Q1167 1663 1188 1748 L1294 1748 Z " />
<glyph glyph-name="obreve" unicode="&#x14f;" horiz-adv-x="1023" d="M703 971 Q858 971 953 887 Q1061 793 1061 604 Q1061 469 1012 337 Q935 128 775 34 Q668 -29 531 -29 Q359 -29 265 63 Q164 161 164 332 Q164 449 199.5 564 Q235 679 297 763 Q450 971 703 971 Z M694 848 Q523 848 413 675 Q320 528 320 336 Q320 195 401 134 Q455 94 535 94 Q688 94 791 239 Q842 311 872.5 410.5 Q903 510 903 606 Q903 743 826 804 Q773 848 694 848 Z M1020 1365 Q985 1092 754 1092 Q650 1092 591 1148.5 Q532 1205 532 1304 Q532 1326 535 1365 L637 1365 Q636 1348 636 1340 Q636 1274 670 1237 Q704 1200 765 1200 Q892 1200 918 1365 L1020 1365 Z " />
<glyph glyph-name="Ohungarumlaut" unicode="&#x150;" horiz-adv-x="1353" d="M946 1396 Q1156 1396 1277 1264 Q1343 1191 1376 1074 Q1402 985 1402 888 Q1402 732 1356 571.5 Q1310 411 1229 285 Q1024 -33 697 -33 Q460 -33 343 126 Q242 263 242 482 Q242 690 316 885 Q409 1133 596 1277 Q753 1396 946 1396 Z M931 1250 Q715 1250 562 1008 Q417 780 417 473 Q417 286 502 194 Q579 110 698 110 Q924 110 1079 359 Q1147 469 1186.5 611.5 Q1226 754 1226 890 Q1226 1072 1138 1170 Q1065 1250 931 1250 Z M1178 1734 L925 1479 L795 1479 L1026 1734 L1178 1734 Z M1451 1734 L1198 1479 L1068 1479 L1299 1734 L1451 1734 Z " />
<glyph glyph-name="ohungarumlaut" unicode="&#x151;" horiz-adv-x="1023" d="M703 971 Q858 971 953 887 Q1061 793 1061 604 Q1061 469 1012 337 Q935 128 775 34 Q668 -29 531 -29 Q359 -29 265 63 Q164 161 164 332 Q164 449 199.5 564 Q235 679 297 763 Q450 971 703 971 Z M694 848 Q523 848 413 675 Q320 528 320 336 Q320 195 401 134 Q455 94 535 94 Q688 94 791 239 Q842 311 872.5 410.5 Q903 510 903 606 Q903 743 826 804 Q773 848 694 848 Z M900 1365 L663 1092 L533 1092 L754 1365 L900 1365 Z M1173 1365 L936 1092 L806 1092 L1027 1365 L1173 1365 Z " />
<glyph glyph-name="Racute" unicode="&#x154;" horiz-adv-x="1230" d="M197 0 L487 1365 L944 1365 Q1299 1365 1299 1045 Q1299 727 978 662 Q1132 630 1132 474 Q1132 440 1125 386 L1102 208 Q1094 147 1094 106 Q1094 35 1119 0 L929 0 Q919 27 919 53 Q919 80 930 166 L957 394 Q961 423 961 461 Q961 535 918.5 563.5 Q876 592 766 592 L489 592 L364 0 L197 0 Z M520 735 L748 735 Q862 735 922 750 Q982 765 1029 804 Q1121 884 1121 1026 Q1121 1125 1064.5 1172.5 Q1008 1220 889 1220 L623 1220 L520 735 Z M1180 1734 L927 1479 L797 1479 L1028 1734 L1180 1734 Z " />
<glyph glyph-name="racute" unicode="&#x155;" horiz-adv-x="635" d="M157 0 L357 942 L501 942 L463 765 Q514 845 575 892 Q621 928 685.5 950 Q750 972 808 972 Q818 972 840 971 L804 800 Q765 804 753 804 Q634 804 543 715 Q483 658 449.5 579.5 Q416 501 381 337 L310 0 L157 0 Z M910 1365 L673 1092 L543 1092 L764 1365 L910 1365 Z " />
<glyph glyph-name="Rcommaaccent" unicode="&#x156;" horiz-adv-x="1230" d="M197 0 L487 1365 L944 1365 Q1299 1365 1299 1045 Q1299 727 978 662 Q1132 630 1132 474 Q1132 440 1125 386 L1102 208 Q1094 147 1094 106 Q1094 35 1119 0 L929 0 Q919 27 919 53 Q919 80 930 166 L957 394 Q961 423 961 461 Q961 535 918.5 563.5 Q876 592 766 592 L489 592 L364 0 L197 0 Z M520 735 L748 735 Q862 735 922 750 Q982 765 1029 804 Q1121 884 1121 1026 Q1121 1125 1064.5 1172.5 Q1008 1220 889 1220 L623 1220 L520 735 Z M702 -84 L674 -217 Q651 -326 600.5 -382 Q550 -438 465 -448 L479 -379 Q554 -359 585 -253 L506 -253 L542 -84 L702 -84 Z " />
<glyph glyph-name="rcommaaccent" unicode="&#x157;" horiz-adv-x="635" d="M157 0 L357 942 L501 942 L463 765 Q514 845 575 892 Q621 928 685.5 950 Q750 972 808 972 Q818 972 840 971 L804 800 Q765 804 753 804 Q634 804 543 715 Q483 658 449.5 579.5 Q416 501 381 337 L310 0 L157 0 Z M308 -84 L280 -217 Q236 -431 71 -448 L85 -379 Q160 -359 191 -253 L112 -253 L148 -84 L308 -84 Z " />
<glyph glyph-name="Rcaron" unicode="&#x158;" horiz-adv-x="1230" d="M197 0 L487 1365 L944 1365 Q1299 1365 1299 1045 Q1299 727 978 662 Q1132 630 1132 474 Q1132 440 1125 386 L1102 208 Q1094 147 1094 106 Q1094 35 1119 0 L929 0 Q919 27 919 53 Q919 80 930 166 L957 394 Q961 423 961 461 Q961 535 918.5 563.5 Q876 592 766 592 L489 592 L364 0 L197 0 Z M520 735 L748 735 Q862 735 922 750 Q982 765 1029 804 Q1121 884 1121 1026 Q1121 1125 1064.5 1172.5 Q1008 1220 889 1220 L623 1220 L520 735 Z M667 1734 L819 1735 L905 1549 L1072 1734 L1227 1734 L989 1475 L798 1475 L667 1734 Z " />
<glyph glyph-name="rcaron" unicode="&#x159;" horiz-adv-x="635" d="M157 0 L357 942 L501 942 L463 765 Q514 845 575 892 Q621 928 685.5 950 Q750 972 808 972 Q818 972 840 971 L804 800 Q765 804 753 804 Q634 804 543 715 Q483 658 449.5 579.5 Q416 501 381 337 L310 0 L157 0 Z M427 1365 L563 1365 L644 1168 L813 1365 L952 1365 L714 1092 L550 1092 L427 1365 Z " />
<glyph glyph-name="Sacute" unicode="&#x15a;" horiz-adv-x="1112" d="M197 424 L361 424 Q354 375 354 341 Q354 261 391 206 Q452 115 607 115 Q773 115 859 229 Q909 297 909 387 Q909 535 736 606 L568 676 Q451 724 395 801.5 Q339 879 339 992 Q339 1158 445 1265 Q575 1397 791 1397 Q983 1397 1089 1301 Q1181 1217 1181 1084 Q1181 1055 1174 1000 L1000 1000 Q1007 1037 1007 1061 Q1007 1150 949.5 1200.5 Q892 1251 791 1251 Q663 1251 585 1179 Q518 1116 518 1014 Q518 942 555.5 894 Q593 846 676 811 L858 736 Q982 684 1037.5 607.5 Q1093 531 1093 411 Q1093 234 981 114 Q845 -32 593 -32 Q473 -32 391.5 -1 Q310 30 257 96 Q186 185 186 313 Q186 357 197 424 Z M1126 1734 L873 1479 L743 1479 L974 1734 L1126 1734 Z " />
<glyph glyph-name="sacute" unicode="&#x15b;" horiz-adv-x="902" d="M153 266 L319 266 Q314 239 314 225 Q314 166 358.5 132 Q403 98 480 98 Q569 98 626 142 Q686 187 686 257 Q686 324 600 372 L422 470 Q272 554 272 699 Q272 823 364.5 897 Q457 971 612 971 Q752 971 832 914 Q912 857 912 754 Q912 732 908 699 L748 699 Q751 723 751 737 Q751 791 712 820.5 Q673 850 603 850 Q527 850 480.5 814 Q434 778 434 719 Q434 651 520 603 L724 488 Q867 407 867 278 Q867 138 761 54.5 Q655 -29 478 -29 Q291 -29 209 56 Q148 118 148 214 Q148 231 153 266 Z M948 1365 L711 1092 L581 1092 L802 1365 L948 1365 Z " />
<glyph glyph-name="Scircumflex" unicode="&#x15c;" horiz-adv-x="1112" d="M197 424 L361 424 Q354 375 354 341 Q354 261 391 206 Q452 115 607 115 Q773 115 859 229 Q909 297 909 387 Q909 535 736 606 L568 676 Q451 724 395 801.5 Q339 879 339 992 Q339 1158 445 1265 Q575 1397 791 1397 Q983 1397 1089 1301 Q1181 1217 1181 1084 Q1181 1055 1174 1000 L1000 1000 Q1007 1037 1007 1061 Q1007 1150 949.5 1200.5 Q892 1251 791 1251 Q663 1251 585 1179 Q518 1116 518 1014 Q518 942 555.5 894 Q593 846 676 811 L858 736 Q982 684 1037.5 607.5 Q1093 531 1093 411 Q1093 234 981 114 Q845 -32 593 -32 Q473 -32 391.5 -1 Q310 30 257 96 Q186 185 186 313 Q186 357 197 424 Z M1111 1475 L959 1474 L873 1660 L705 1475 L551 1475 L789 1734 L980 1734 L1111 1475 Z " />
<glyph glyph-name="scircumflex" unicode="&#x15d;" horiz-adv-x="902" d="M153 266 L319 266 Q314 239 314 225 Q314 166 358.5 132 Q403 98 480 98 Q569 98 626 142 Q686 187 686 257 Q686 324 600 372 L422 470 Q272 554 272 699 Q272 823 364.5 897 Q457 971 612 971 Q752 971 832 914 Q912 857 912 754 Q912 732 908 699 L748 699 Q751 723 751 737 Q751 791 712 820.5 Q673 850 603 850 Q527 850 480.5 814 Q434 778 434 719 Q434 651 520 603 L724 488 Q867 407 867 278 Q867 138 761 54.5 Q655 -29 478 -29 Q291 -29 209 56 Q148 118 148 214 Q148 231 153 266 Z M919 1092 L783 1092 L702 1289 L534 1092 L394 1092 L632 1365 L796 1365 L919 1092 Z " />
<glyph glyph-name="Scedilla" unicode="&#x15e;" horiz-adv-x="1112" d="M593 -32 L548 -106 Q575 -95 603 -95 Q663 -95 699.5 -129.5 Q736 -164 736 -222 Q736 -303 675.5 -358.5 Q615 -414 525 -414 Q460 -414 418.5 -386 Q377 -358 377 -314 Q377 -310 378 -303 L483 -303 Q484 -337 529 -337 Q569 -337 595 -306 Q621 -275 621 -229 Q621 -171 565 -171 Q522 -171 504 -201 L402 -201 L507 -27 Q377 -11 304 49 Q186 146 186 313 Q186 357 197 424 L361 424 Q354 375 354 341 Q354 261 391 206 Q452 115 607 115 Q773 115 859 229 Q909 297 909 387 Q909 535 736 606 L568 676 Q451 724 395 801.5 Q339 879 339 992 Q339 1158 445 1265 Q575 1397 791 1397 Q983 1397 1089 1301 Q1181 1217 1181 1084 Q1181 1055 1174 1000 L1000 1000 Q1007 1037 1007 1061 Q1007 1150 949.5 1200.5 Q892 1251 791 1251 Q663 1251 585 1179 Q518 1116 518 1014 Q518 942 555.5 894 Q593 846 676 811 L858 736 Q982 684 1037.5 607.5 Q1093 531 1093 411 Q1093 196 934 71 Q805 -32 593 -32 Z " />
<glyph glyph-name="scedilla" unicode="&#x15f;" horiz-adv-x="902" d="M484 -29 L437 -108 Q460 -99 483 -99 Q540 -99 576.5 -134.5 Q613 -170 613 -226 Q613 -305 555 -357.5 Q497 -410 410 -410 Q350 -410 313 -383.5 Q276 -357 276 -313 Q276 -309 277 -301 L370 -301 Q371 -335 419 -335 Q459 -335 485 -305 Q511 -275 511 -230 Q511 -172 453 -172 Q412 -172 395 -201 L301 -201 L404 -24 Q308 -13 251 23 Q203 51 175.5 103 Q148 155 148 214 Q148 231 153 266 L319 266 Q314 239 314 225 Q314 166 358.5 132 Q403 98 480 98 Q569 98 626 142 Q686 187 686 257 Q686 324 600 372 L422 470 Q272 554 272 699 Q272 823 364.5 897 Q457 971 612 971 Q752 971 832 914 Q912 857 912 754 Q912 732 908 699 L748 699 Q751 723 751 737 Q751 791 712 820.5 Q673 850 603 850 Q527 850 480.5 814 Q434 778 434 719 Q434 651 520 603 L724 488 Q867 407 867 278 Q867 185 813 110.5 Q759 36 667 1 Q594 -26 484 -29 Z " />
<glyph glyph-name="Scaron" unicode="&#x160;" horiz-adv-x="1112" d="M197 424 L361 424 Q354 375 354 341 Q354 261 391 206 Q452 115 607 115 Q773 115 859 229 Q909 297 909 387 Q909 535 736 606 L568 676 Q451 724 395 801.5 Q339 879 339 992 Q339 1158 445 1265 Q575 1397 791 1397 Q983 1397 1089 1301 Q1181 1217 1181 1084 Q1181 1055 1174 1000 L1000 1000 Q1007 1037 1007 1061 Q1007 1150 949.5 1200.5 Q892 1251 791 1251 Q663 1251 585 1179 Q518 1116 518 1014 Q518 942 555.5 894 Q593 846 676 811 L858 736 Q982 684 1037.5 607.5 Q1093 531 1093 411 Q1093 234 981 114 Q845 -32 593 -32 Q473 -32 391.5 -1 Q310 30 257 96 Q186 185 186 313 Q186 357 197 424 Z M618 1734 L770 1735 L856 1549 L1023 1734 L1178 1734 L940 1475 L749 1475 L618 1734 Z " />
<glyph glyph-name="scaron" unicode="&#x161;" horiz-adv-x="902" d="M153 266 L319 266 Q314 239 314 225 Q314 166 358.5 132 Q403 98 480 98 Q569 98 626 142 Q686 187 686 257 Q686 324 600 372 L422 470 Q272 554 272 699 Q272 823 364.5 897 Q457 971 612 971 Q752 971 832 914 Q912 857 912 754 Q912 732 908 699 L748 699 Q751 723 751 737 Q751 791 712 820.5 Q673 850 603 850 Q527 850 480.5 814 Q434 778 434 719 Q434 651 520 603 L724 488 Q867 407 867 278 Q867 138 761 54.5 Q655 -29 478 -29 Q291 -29 209 56 Q148 118 148 214 Q148 231 153 266 Z M446 1365 L582 1365 L663 1168 L832 1365 L971 1365 L733 1092 L569 1092 L446 1365 Z " />
<glyph glyph-name="Tcommaaccent" unicode="&#x162;" horiz-adv-x="916" d="M366 0 L626 1220 L246 1220 L277 1365 L1203 1365 L1172 1220 L792 1220 L533 0 L366 0 Z M522 -84 L494 -217 Q471 -326 420.5 -382 Q370 -438 285 -448 L299 -379 Q374 -359 405 -253 L326 -253 L362 -84 L522 -84 Z " />
<glyph glyph-name="tcommaaccent" unicode="&#x163;" horiz-adv-x="547" d="M193 815 L220 942 L368 942 L398 1083 L558 1249 L586 1249 L521 942 L697 942 L670 815 L494 815 L375 258 Q364 204 364 171 Q364 141 385 123.5 Q406 106 442 106 Q470 106 522 119 L495 -7 Q437 -20 395 -20 Q205 -20 205 137 Q205 175 227 276 L341 815 L193 815 Z M409 -84 L381 -217 Q337 -431 172 -448 L186 -379 Q261 -359 292 -253 L213 -253 L249 -84 L409 -84 Z " />
<glyph glyph-name="Tcaron" unicode="&#x164;" horiz-adv-x="916" d="M366 0 L626 1220 L246 1220 L277 1365 L1203 1365 L1172 1220 L792 1220 L533 0 L366 0 Z M531 1734 L683 1735 L769 1549 L936 1734 L1091 1734 L853 1475 L662 1475 L531 1734 Z " />
<glyph glyph-name="tcaron" unicode="&#x165;" horiz-adv-x="623" d="M194 815 L221 942 L369 942 L399 1083 L559 1249 L587 1249 L522 942 L698 942 L671 815 L495 815 L376 258 Q365 204 365 171 Q365 141 386 123.5 Q407 106 443 106 Q471 106 523 119 L496 -7 Q438 -20 396 -20 Q206 -20 206 137 Q206 175 228 276 L342 815 L194 815 Z M924 1381 L896 1248 Q852 1034 687 1017 L701 1086 Q776 1104 807 1212 L728 1212 L764 1381 L924 1381 Z " />
<glyph glyph-name="Tbar" unicode="&#x166;" horiz-adv-x="972" d="M578 868 L396 868 L420 980 L602 980 L653 1220 L246 1220 L277 1365 L1259 1365 L1228 1220 L820 1220 L769 980 L952 980 L928 868 L745 868 L561 0 L394 0 L578 868 Z " />
<glyph glyph-name="tbar" unicode="&#x167;" horiz-adv-x="571" d="M465 629 L386 257 Q374 202 374 171 Q374 141 395 123.5 Q416 106 452 106 Q481 106 532 119 L505 -7 Q448 -20 405 -20 Q215 -20 215 137 Q215 175 237 276 L312 629 L164 629 L191 756 L339 756 L352 815 L203 815 L230 942 L379 942 L409 1083 L569 1249 L597 1249 L531 942 L707 942 L680 815 L504 815 L492 756 L668 756 L641 629 L465 629 Z " />
<glyph glyph-name="Utilde" unicode="&#x168;" horiz-adv-x="1283" d="M466 1365 L630 1365 L466 594 Q431 427 431 345 Q431 227 499 167 Q563 110 678 110 Q884 110 977 283 Q1017 358 1067 594 L1231 1365 L1397 1365 L1234 596 Q1192 398 1173 341 Q1105 142 975 50 Q856 -33 675 -33 Q451 -33 344 89 Q264 181 264 317 Q264 416 303 599 L466 1365 Z M1292 1686 Q1258 1586 1200.5 1530 Q1143 1474 1075 1474 Q1018 1474 957 1531 Q910 1574 873 1574 Q813 1574 775 1481 L672 1481 Q749 1693 891 1693 Q948 1693 1009 1639 Q1058 1597 1087 1597 Q1148 1597 1186 1686 L1292 1686 Z " />
<glyph glyph-name="utilde" unicode="&#x169;" horiz-adv-x="1049" d="M1092 942 L892 0 L740 0 L764 114 Q637 -29 461 -29 Q340 -29 272.5 33 Q205 95 205 205 Q205 267 218 330 L349 942 L501 942 L375 348 Q361 283 361 230 Q361 166 400.5 130 Q440 94 511 94 Q665 94 758 235 Q786 276 803.5 329 Q821 382 845 497 L940 942 L1092 942 Z M1085 1317 Q1010 1106 886 1106 Q837 1106 760 1162 Q702 1205 671 1205 Q620 1205 580 1113 L479 1113 Q502 1181 530 1224 Q596 1324 683 1324 Q734 1324 806 1268 Q863 1224 888 1224 Q944 1224 983 1317 L1085 1317 Z " />
<glyph glyph-name="Umacron" unicode="&#x16a;" horiz-adv-x="1283" d="M466 1365 L630 1365 L466 594 Q431 427 431 345 Q431 227 499 167 Q563 110 678 110 Q884 110 977 283 Q1017 358 1067 594 L1231 1365 L1397 1365 L1234 596 Q1192 398 1173 341 Q1105 142 975 50 Q856 -33 675 -33 Q451 -33 344 89 Q264 181 264 317 Q264 416 303 599 L466 1365 Z M1269 1603 L1244 1486 L684 1486 L709 1603 L1269 1603 Z " />
<glyph glyph-name="umacron" unicode="&#x16b;" horiz-adv-x="1049" d="M1092 942 L892 0 L740 0 L764 114 Q637 -29 461 -29 Q340 -29 272.5 33 Q205 95 205 205 Q205 267 218 330 L349 942 L501 942 L375 348 Q361 283 361 230 Q361 166 400.5 130 Q440 94 511 94 Q665 94 758 235 Q786 276 803.5 329 Q821 382 845 497 L940 942 L1092 942 Z M1032 1252 L1008 1140 L506 1140 L530 1252 L1032 1252 Z " />
<glyph glyph-name="Ubreve" unicode="&#x16c;" horiz-adv-x="1283" d="M466 1365 L630 1365 L466 594 Q431 427 431 345 Q431 227 499 167 Q563 110 678 110 Q884 110 977 283 Q1017 358 1067 594 L1231 1365 L1397 1365 L1234 596 Q1192 398 1173 341 Q1105 142 975 50 Q856 -33 675 -33 Q451 -33 344 89 Q264 181 264 317 Q264 416 303 599 L466 1365 Z M1261 1748 Q1249 1656 1220 1606 Q1145 1475 974 1475 Q862 1475 800 1534 Q738 1593 738 1700 Q738 1716 741 1748 L847 1748 Q846 1732 846 1724 Q846 1660 882.5 1623.5 Q919 1587 984 1587 Q1054 1587 1094 1625 Q1134 1663 1155 1748 L1261 1748 Z " />
<glyph glyph-name="ubreve" unicode="&#x16d;" horiz-adv-x="1049" d="M1092 942 L892 0 L740 0 L764 114 Q637 -29 461 -29 Q340 -29 272.5 33 Q205 95 205 205 Q205 267 218 330 L349 942 L501 942 L375 348 Q361 283 361 230 Q361 166 400.5 130 Q440 94 511 94 Q665 94 758 235 Q786 276 803.5 329 Q821 382 845 497 L940 942 L1092 942 Z M1037 1365 Q1003 1092 771 1092 Q667 1092 608 1148.5 Q549 1205 549 1304 Q549 1325 553 1365 L654 1365 Q653 1348 653 1340 Q653 1274 687 1237 Q721 1200 782 1200 Q910 1200 935 1365 L1037 1365 Z " />
<glyph glyph-name="Uring" unicode="&#x16e;" horiz-adv-x="1283" d="M466 1365 L630 1365 L466 594 Q431 427 431 345 Q431 227 499 167 Q563 110 678 110 Q884 110 977 283 Q1017 358 1067 594 L1231 1365 L1397 1365 L1234 596 Q1192 398 1173 341 Q1105 142 975 50 Q856 -33 675 -33 Q451 -33 344 89 Q264 181 264 317 Q264 416 303 599 L466 1365 Z M971 1733 Q929 1733 899.5 1702 Q870 1671 870 1627 Q870 1583 899 1552 Q928 1521 969 1521 Q1011 1521 1040 1552 Q1069 1583 1069 1627 Q1069 1670 1040 1701.5 Q1011 1733 971 1733 Z M972 1821 Q1052 1821 1109.5 1764 Q1167 1707 1167 1627 Q1167 1547 1109 1490.5 Q1051 1434 969 1434 Q887 1434 829 1490.5 Q771 1547 771 1626 Q771 1708 829 1764.5 Q887 1821 972 1821 Z " />
<glyph glyph-name="uring" unicode="&#x16f;" horiz-adv-x="1049" d="M1092 942 L892 0 L740 0 L764 114 Q637 -29 461 -29 Q340 -29 272.5 33 Q205 95 205 205 Q205 267 218 330 L349 942 L501 942 L375 348 Q361 283 361 230 Q361 166 400.5 130 Q440 94 511 94 Q665 94 758 235 Q786 276 803.5 329 Q821 382 845 497 L940 942 L1092 942 Z M773 1356 Q731 1356 702.5 1326 Q674 1296 674 1252 Q674 1209 702.5 1179 Q731 1149 771 1149 Q812 1149 840.5 1179 Q869 1209 869 1251 Q869 1295 841 1325.5 Q813 1356 773 1356 Z M775 1440 Q853 1440 908.5 1384.5 Q964 1329 964 1251 Q964 1174 907.5 1119.5 Q851 1065 771 1065 Q692 1065 635.5 1120 Q579 1175 579 1252 Q579 1331 635.5 1385.5 Q692 1440 775 1440 Z " />
<glyph glyph-name="Uhungarumlaut" unicode="&#x170;" horiz-adv-x="1283" d="M466 1365 L630 1365 L466 594 Q431 427 431 345 Q431 227 499 167 Q563 110 678 110 Q884 110 977 283 Q1017 358 1067 594 L1231 1365 L1397 1365 L1234 596 Q1192 398 1173 341 Q1105 142 975 50 Q856 -33 675 -33 Q451 -33 344 89 Q264 181 264 317 Q264 416 303 599 L466 1365 Z M1130 1734 L877 1479 L747 1479 L978 1734 L1130 1734 Z M1403 1734 L1150 1479 L1020 1479 L1251 1734 L1403 1734 Z " />
<glyph glyph-name="uhungarumlaut" unicode="&#x171;" horiz-adv-x="1049" d="M1092 942 L892 0 L740 0 L764 114 Q637 -29 461 -29 Q340 -29 272.5 33 Q205 95 205 205 Q205 267 218 330 L349 942 L501 942 L375 348 Q361 283 361 230 Q361 166 400.5 130 Q440 94 511 94 Q665 94 758 235 Q786 276 803.5 329 Q821 382 845 497 L940 942 L1092 942 Z M914 1365 L677 1092 L547 1092 L768 1365 L914 1365 Z M1187 1365 L950 1092 L820 1092 L1041 1365 L1187 1365 Z " />
<glyph glyph-name="Uogonek" unicode="&#x172;" horiz-adv-x="1283" d="M850 -9 Q730 -105 730 -189 Q730 -224 754 -244.5 Q778 -265 818 -265 Q849 -265 899 -247 L881 -338 Q822 -360 770 -360 Q698 -360 654.5 -324.5 Q611 -289 611 -230 Q611 -125 726 -31 Q705 -33 677 -33 Q561 -33 480.5 -3.5 Q400 26 344 89 Q264 182 264 317 Q264 416 303 599 L466 1365 L630 1365 L466 594 Q431 427 431 345 Q431 227 499 167 Q563 110 678 110 Q884 110 977 283 Q1017 358 1067 594 L1231 1365 L1397 1365 L1234 596 Q1192 398 1173 341 Q1076 56 850 -9 Z " />
<glyph glyph-name="uogonek" unicode="&#x173;" horiz-adv-x="1049" d="M892 0 Q760 -99 760 -189 Q760 -265 852 -265 Q884 -265 930 -247 L911 -338 Q849 -360 799 -360 Q726 -360 681.5 -324 Q637 -288 637 -229 Q637 -113 797 0 L740 0 L764 114 Q637 -29 461 -29 Q340 -29 272.5 33 Q205 95 205 205 Q205 267 218 330 L349 942 L501 942 L375 348 Q361 283 361 230 Q361 166 400.5 130 Q440 94 511 94 Q665 94 758 235 Q786 276 803.5 329 Q821 382 845 497 L940 942 L1092 942 L892 0 Z " />
<glyph glyph-name="Wcircumflex" unicode="&#x174;" horiz-adv-x="1556" d="M343 0 L338 1365 L501 1365 L480 233 L970 1365 L1159 1365 L1166 231 L1632 1365 L1798 1365 L1204 0 L1030 0 L1021 1154 L519 0 L343 0 Z M1348 1475 L1196 1474 L1110 1660 L942 1475 L787 1475 L1026 1734 L1217 1734 L1348 1475 Z " />
<glyph glyph-name="wcircumflex" unicode="&#x175;" horiz-adv-x="1255" d="M287 0 L207 942 L371 942 L408 197 L744 942 L910 942 L936 199 L1287 942 L1449 942 L970 0 L804 0 L779 718 L455 0 L287 0 Z M1105 1092 L969 1092 L887 1289 L719 1092 L580 1092 L817 1365 L981 1365 L1105 1092 Z " />
<glyph glyph-name="Ycircumflex" unicode="&#x176;" horiz-adv-x="1019" d="M424 0 L543 560 L273 1365 L464 1365 L662 722 L1128 1365 L1319 1365 L710 560 L591 0 L424 0 Z M1086 1475 L934 1474 L848 1660 L680 1475 L525 1475 L764 1734 L955 1734 L1086 1475 Z " />
<glyph glyph-name="ycircumflex" unicode="&#x177;" horiz-adv-x="848" d="M20 -340 L48 -208 Q60 -212 66 -215 Q102 -229 131 -229 Q217 -229 271 -140 L361 10 L207 942 L381 942 L476 211 L869 942 L1041 942 L443 -101 Q367 -234 312 -283 Q233 -355 121 -355 Q77 -355 20 -340 Z M894 1092 L758 1092 L677 1289 L509 1092 L369 1092 L607 1365 L771 1365 L894 1092 Z " />
<glyph glyph-name="Zacute" unicode="&#x179;" horiz-adv-x="1064" d="M68 0 L100 151 L1039 1220 L385 1220 L416 1365 L1251 1365 L1220 1218 L279 145 L1007 145 L976 0 L68 0 Z M1156 1734 L903 1479 L773 1479 L1004 1734 L1156 1734 Z " />
<glyph glyph-name="zacute" unicode="&#x17a;" horiz-adv-x="822" d="M48 0 L72 113 L767 815 L257 815 L284 942 L981 942 L960 841 L259 127 L828 127 L801 0 L48 0 Z M942 1365 L705 1092 L575 1092 L796 1365 L942 1365 Z " />
<glyph glyph-name="Zdotaccent" unicode="&#x17b;" horiz-adv-x="1064" d="M68 0 L100 151 L1039 1220 L385 1220 L416 1365 L1251 1365 L1220 1218 L279 145 L1007 145 L976 0 L68 0 Z M962 1655 L920 1461 L777 1461 L818 1655 L962 1655 Z " />
<glyph glyph-name="zdotaccent" unicode="&#x17c;" horiz-adv-x="822" d="M48 0 L72 113 L767 815 L257 815 L284 942 L981 942 L960 841 L259 127 L828 127 L801 0 L48 0 Z M772 1297 L731 1106 L588 1106 L629 1297 L772 1297 Z " />
<glyph glyph-name="Zcaron" unicode="&#x17d;" horiz-adv-x="1064" d="M68 0 L100 151 L1039 1220 L385 1220 L416 1365 L1251 1365 L1220 1218 L279 145 L1007 145 L976 0 L68 0 Z M636 1734 L788 1735 L874 1549 L1041 1734 L1196 1734 L958 1475 L767 1475 L636 1734 Z " />
<glyph glyph-name="zcaron" unicode="&#x17e;" horiz-adv-x="822" d="M48 0 L72 113 L767 815 L257 815 L284 942 L981 942 L960 841 L259 127 L828 127 L801 0 L48 0 Z M440 1365 L576 1365 L657 1168 L826 1365 L965 1365 L727 1092 L563 1092 L440 1365 Z " />
<glyph glyph-name="longs" unicode="&#x17f;" horiz-adv-x="503" d="M157 0 L377 1033 Q418 1226 466 1289 Q550 1396 697 1396 Q746 1396 800 1382 L771 1243 Q728 1261 693 1261 Q627 1261 594 1222.5 Q561 1184 539 1082 L310 0 L157 0 Z " />
<glyph glyph-name="uni01CD" unicode="&#x1cd;" horiz-adv-x="1112" d="M773 1365 L958 1365 L1112 0 L934 0 L896 419 L433 419 L215 0 L37 0 L773 1365 Z M506 560 L884 560 L828 1179 L506 560 Z M654 1734 L805 1735 L892 1549 L1059 1734 L1214 1734 L976 1475 L784 1475 L654 1734 Z " />
<glyph glyph-name="uni01CE" unicode="&#x1ce;" horiz-adv-x="964" d="M945 115 L920 -3 Q871 -18 838 -18 Q778 -18 741 14.5 Q704 47 704 100 Q704 112 707 135 Q562 -29 377 -29 Q259 -29 192 36 Q128 98 128 196 Q128 301 193.5 384 Q259 467 375 510 Q445 535 531 545.5 Q617 556 797 560 L816 648 Q825 690 825 716 Q825 847 642 847 Q487 847 449 760 L284 759 Q352 971 644 971 Q781 971 866 922 Q972 862 972 736 Q972 693 947 575 L871 219 Q861 170 861 156 Q861 110 909 110 Q922 110 945 115 Z M776 458 Q584 451 486 426 Q392 403 339 348.5 Q286 294 286 221 Q286 162 322 128 Q358 94 420 94 Q565 94 673 221 Q743 304 765 406 L776 458 Z M495 1365 L631 1365 L712 1168 L880 1365 L1020 1365 L782 1092 L618 1092 L495 1365 Z " />
<glyph glyph-name="uni01D2" unicode="&#x1d2;" horiz-adv-x="1023" d="M703 971 Q858 971 953 887 Q1061 793 1061 604 Q1061 469 1012 337 Q935 128 775 34 Q668 -29 531 -29 Q359 -29 265 63 Q164 161 164 332 Q164 449 199.5 564 Q235 679 297 763 Q450 971 703 971 Z M694 848 Q523 848 413 675 Q320 528 320 336 Q320 195 401 134 Q455 94 535 94 Q688 94 791 239 Q842 311 872.5 410.5 Q903 510 903 606 Q903 743 826 804 Q773 848 694 848 Z M529 1365 L664 1365 L746 1168 L914 1365 L1053 1365 L816 1092 L652 1092 L529 1365 Z " />
<glyph glyph-name="uni01D3" unicode="&#x1d3;" horiz-adv-x="1283" d="M466 1365 L630 1365 L466 594 Q431 427 431 345 Q431 227 499 167 Q563 110 678 110 Q884 110 977 283 Q1017 358 1067 594 L1231 1365 L1397 1365 L1234 596 Q1192 398 1173 341 Q1105 142 975 50 Q856 -33 675 -33 Q451 -33 344 89 Q264 181 264 317 Q264 416 303 599 L466 1365 Z M721 1734 L873 1735 L959 1549 L1126 1734 L1281 1734 L1043 1475 L852 1475 L721 1734 Z " />
<glyph glyph-name="uni01D4" unicode="&#x1d4;" horiz-adv-x="1049" d="M1092 942 L892 0 L740 0 L764 114 Q637 -29 461 -29 Q340 -29 272.5 33 Q205 95 205 205 Q205 267 218 330 L349 942 L501 942 L375 348 Q361 283 361 230 Q361 166 400.5 130 Q440 94 511 94 Q665 94 758 235 Q786 276 803.5 329 Q821 382 845 497 L940 942 L1092 942 Z M546 1365 L682 1365 L763 1168 L932 1365 L1071 1365 L833 1092 L669 1092 L546 1365 Z " />
<glyph glyph-name="Gcaron" unicode="&#x1e6;" horiz-adv-x="1348" d="M1183 0 L1042 0 L1079 174 Q993 66 897 16.5 Q801 -33 679 -33 Q453 -33 342 119 Q242 256 242 478 Q242 691 318 891 Q420 1164 641 1305 Q784 1397 962 1397 Q1181 1397 1291 1267 Q1379 1163 1379 1021 Q1379 997 1373 946 L1206 945 Q1208 973 1208 985 Q1208 1069 1170 1140 Q1109 1254 948 1254 Q701 1254 546 982 Q416 756 416 483 Q416 390 440 310 Q464 230 506 185 Q576 111 701 111 Q867 111 985 232 Q1103 353 1156 578 L797 578 L828 721 L1336 721 L1183 0 Z M768 1734 L919 1735 L1005 1549 L1173 1734 L1328 1734 L1089 1475 L898 1475 L768 1734 Z " />
<glyph glyph-name="gcaron" unicode="&#x1e7;" horiz-adv-x="1059" d="M80 -147 L249 -148 Q257 -188 304.5 -210 Q352 -232 430 -232 Q561 -232 641 -156 Q721 -80 754 77 L767 139 Q660 -13 479 -13 Q340 -13 256 75 Q212 120 187 192 Q162 264 162 344 Q162 459 200.5 575.5 Q239 692 307 781 Q452 971 670 971 Q765 971 826 936 Q887 901 924 825 L948 942 L1099 942 L927 133 Q900 4 875.5 -60 Q851 -124 808 -182 Q679 -355 415 -355 Q261 -355 173.5 -301 Q86 -247 80 -147 Z M663 848 Q505 848 408 672 Q321 516 321 340 Q321 248 356 191 Q406 110 509 110 Q670 110 772 291 Q860 445 860 619 Q860 716 820 775 Q770 848 663 848 Z M519 1365 L654 1365 L736 1168 L904 1365 L1043 1365 L806 1092 L642 1092 L519 1365 Z " />
<glyph glyph-name="uni01F5" unicode="&#x1f5;" horiz-adv-x="1059" d="M80 -147 L249 -148 Q257 -188 304.5 -210 Q352 -232 430 -232 Q561 -232 641 -156 Q721 -80 754 77 L767 139 Q660 -13 479 -13 Q340 -13 256 75 Q212 120 187 192 Q162 264 162 344 Q162 459 200.5 575.5 Q239 692 307 781 Q452 971 670 971 Q765 971 826 936 Q887 901 924 825 L948 942 L1099 942 L927 133 Q900 4 875.5 -60 Q851 -124 808 -182 Q679 -355 415 -355 Q261 -355 173.5 -301 Q86 -247 80 -147 Z M663 848 Q505 848 408 672 Q321 516 321 340 Q321 248 356 191 Q406 110 509 110 Q670 110 772 291 Q860 445 860 619 Q860 716 820 775 Q770 848 663 848 Z M1036 1365 L799 1092 L669 1092 L890 1365 L1036 1365 Z " />
<glyph glyph-name="Scommaaccent" unicode="&#x218;" horiz-adv-x="1112" d="M197 424 L361 424 Q354 375 354 341 Q354 261 391 206 Q452 115 607 115 Q773 115 859 229 Q909 297 909 387 Q909 535 736 606 L568 676 Q451 724 395 801.5 Q339 879 339 992 Q339 1158 445 1265 Q575 1397 791 1397 Q983 1397 1089 1301 Q1181 1217 1181 1084 Q1181 1055 1174 1000 L1000 1000 Q1007 1037 1007 1061 Q1007 1150 949.5 1200.5 Q892 1251 791 1251 Q663 1251 585 1179 Q518 1116 518 1014 Q518 942 555.5 894 Q593 846 676 811 L858 736 Q982 684 1037.5 607.5 Q1093 531 1093 411 Q1093 234 981 114 Q845 -32 593 -32 Q473 -32 391.5 -1 Q310 30 257 96 Q186 185 186 313 Q186 357 197 424 Z M641 -84 L613 -217 Q590 -326 539.5 -382 Q489 -438 404 -448 L418 -379 Q493 -359 524 -253 L445 -253 L481 -84 L641 -84 Z " />
<glyph glyph-name="scommaaccent" unicode="&#x219;" horiz-adv-x="902" d="M153 266 L319 266 Q314 239 314 225 Q314 166 358.5 132 Q403 98 480 98 Q569 98 626 142 Q686 187 686 257 Q686 324 600 372 L422 470 Q272 554 272 699 Q272 823 364.5 897 Q457 971 612 971 Q752 971 832 914 Q912 857 912 754 Q912 732 908 699 L748 699 Q751 723 751 737 Q751 791 712 820.5 Q673 850 603 850 Q527 850 480.5 814 Q434 778 434 719 Q434 651 520 603 L724 488 Q867 407 867 278 Q867 138 761 54.5 Q655 -29 478 -29 Q291 -29 209 56 Q148 118 148 214 Q148 231 153 266 Z M526 -84 L498 -217 Q454 -431 289 -448 L303 -379 Q378 -359 409 -253 L330 -253 L366 -84 L526 -84 Z " />
<glyph glyph-name="uni021A" unicode="&#x21a;" horiz-adv-x="916" d="M366 0 L626 1220 L246 1220 L277 1365 L1203 1365 L1172 1220 L792 1220 L533 0 L366 0 Z M522 -84 L494 -217 Q471 -326 420.5 -382 Q370 -438 285 -448 L299 -379 Q374 -359 405 -253 L326 -253 L362 -84 L522 -84 Z " />
<glyph glyph-name="uni021B" unicode="&#x21b;" horiz-adv-x="547" d="M193 815 L220 942 L368 942 L398 1083 L558 1249 L586 1249 L521 942 L697 942 L670 815 L494 815 L375 258 Q364 204 364 171 Q364 141 385 123.5 Q406 106 442 106 Q470 106 522 119 L495 -7 Q437 -20 395 -20 Q205 -20 205 137 Q205 175 227 276 L341 815 L193 815 Z M409 -84 L381 -217 Q337 -431 172 -448 L186 -379 Q261 -359 292 -253 L213 -253 L249 -84 L409 -84 Z " />
<glyph glyph-name="dotlessj" unicode="&#x237;" horiz-adv-x="459" d="M-69 -349 L-41 -218 Q-10 -226 13 -226 Q101 -226 127 -101 L349 942 L501 942 L284 -80 Q256 -211 203 -272 Q131 -355 0 -355 Q-29 -355 -69 -349 Z " />
<glyph glyph-name="afii57929" unicode="&#x2bc;" horiz-adv-x="572" d="M676 1365 L648 1235 Q626 1134 603 1081 Q580 1028 538 985 Q474 919 376 894 L398 995 Q500 1026 523 1134 L527 1152 L431 1152 L476 1365 L676 1365 Z " />
<glyph glyph-name="uni037E" unicode="&#x37e;" horiz-adv-x="572" d="M586 942 L540 729 L341 729 L386 942 L586 942 Z M431 213 L403 82 Q380 -26 355.5 -83.5 Q331 -141 289 -188 Q224 -259 125 -287 L146 -186 Q243 -158 278 -18 L282 0 L186 0 L231 213 L431 213 Z " />
<glyph glyph-name="anoteleia" unicode="&#x387;" horiz-adv-x="572" d="M513 598 L467 385 L268 385 L313 598 L513 598 Z " />
<glyph glyph-name="afii10023" unicode="&#x401;" horiz-adv-x="1114" d="M197 0 L487 1365 L1276 1365 L1245 1220 L623 1220 L528 773 L1108 773 L1078 632 L498 632 L394 145 L1025 145 L994 0 L197 0 Z M1151 1655 L1110 1461 L966 1461 L1007 1655 L1151 1655 Z M868 1655 L826 1461 L683 1461 L724 1655 L868 1655 Z " />
<glyph glyph-name="afii10051" unicode="&#x402;" horiz-adv-x="1148" d="M421 0 L254 0 L514 1220 L246 1220 L277 1365 L1203 1365 L1172 1220 L680 1220 L597 828 Q717 971 877 971 Q991 971 1054 905 Q1144 809 1144 635 Q1144 511 1108.5 370 Q1073 229 1012 111 Q928 -51 824.5 -125.5 Q721 -200 578 -200 Q532 -200 484 -184 L512 -53 Q561 -71 602 -71 Q728 -71 819 60 Q897 173 946 351 Q990 513 990 638 Q990 848 826 848 Q716 848 634 754 Q591 705 568 644.5 Q545 584 516 445 L421 0 Z " />
<glyph glyph-name="afii10052" unicode="&#x403;" horiz-adv-x="1003" d="M487 1365 L1249 1365 L1218 1220 L623 1220 L364 0 L197 0 L487 1365 Z M1193 1734 L940 1479 L810 1479 L1041 1734 L1193 1734 Z " />
<glyph glyph-name="afii10053" unicode="&#x404;" horiz-adv-x="1267" d="M463 773 L952 773 L922 632 L432 632 Q419 543 419 461 Q419 287 498 192 Q566 110 692 110 Q833 110 938 213.5 Q1043 317 1104 515 L1274 515 Q1223 317 1125 189 Q956 -33 685 -33 Q465 -33 353 102 Q301 163 271.5 262.5 Q242 362 242 473 Q242 683 311 877 Q395 1111 577 1261 Q740 1396 953 1396 Q1155 1396 1266 1275 Q1311 1227 1337 1159.5 Q1363 1092 1363 1024 Q1363 1002 1358 956 L1187 956 Q1188 976 1188 982 Q1188 1090 1131 1166 Q1066 1253 935 1253 Q780 1253 650.5 1121.5 Q521 990 463 773 Z " />
<glyph glyph-name="afii10054" unicode="&#x405;" horiz-adv-x="1112" d="M197 424 L361 424 Q354 375 354 341 Q354 261 391 206 Q452 115 607 115 Q773 115 859 229 Q909 297 909 387 Q909 535 736 606 L568 676 Q451 724 395 801.5 Q339 879 339 992 Q339 1158 445 1265 Q575 1397 791 1397 Q983 1397 1089 1301 Q1181 1217 1181 1084 Q1181 1055 1174 1000 L1000 1000 Q1007 1037 1007 1061 Q1007 1150 949.5 1200.5 Q892 1251 791 1251 Q663 1251 585 1179 Q518 1116 518 1014 Q518 942 555.5 894 Q593 846 676 811 L858 736 Q982 684 1037.5 607.5 Q1093 531 1093 411 Q1093 234 981 114 Q845 -32 593 -32 Q473 -32 391.5 -1 Q310 30 257 96 Q186 185 186 313 Q186 357 197 424 Z " />
<glyph glyph-name="afii10055" unicode="&#x406;" horiz-adv-x="561" d="M197 0 L487 1365 L654 1365 L364 0 L197 0 Z " />
<glyph glyph-name="afii10056" unicode="&#x407;" horiz-adv-x="572" d="M197 0 L487 1365 L654 1365 L364 0 L197 0 Z M831 1655 L790 1461 L647 1461 L688 1655 L831 1655 Z M576 1655 L534 1461 L391 1461 L432 1655 L576 1655 Z " />
<glyph glyph-name="afii10057" unicode="&#x408;" horiz-adv-x="643" d="M-4 -19 L27 128 Q69 110 116 110 Q252 110 326 234 Q350 274 364.5 320 Q379 366 406 495 L591 1365 L758 1365 L567 467 Q532 305 506 234 Q480 163 433 104 Q376 33 295 0 Q214 -33 98 -33 Q50 -33 -4 -19 Z " />
<glyph glyph-name="afii10058" unicode="&#x409;" horiz-adv-x="1677" d="M1285 1365 L1166 804 L1377 804 Q1559 804 1652 712 Q1745 621 1745 460 Q1745 350 1701 255 Q1657 160 1577 99 Q1449 0 1221 0 L828 0 L1088 1220 L718 1220 L430 323 Q325 -19 4 -23 L34 120 Q202 130 267 331 L599 1365 L1285 1365 Z M1026 145 L1231 145 Q1318 145 1373.5 162 Q1429 179 1473 220 Q1566 306 1566 452 Q1566 566 1490 622 Q1440 659 1319 659 L1135 659 L1026 145 Z " />
<glyph glyph-name="afii10059" unicode="&#x40a;" horiz-adv-x="1768" d="M1059 652 L502 652 L364 0 L197 0 L487 1365 L654 1365 L533 797 L1090 797 L1210 1365 L1377 1365 L1256 797 L1468 797 Q1649 797 1743 706 Q1836 616 1836 455 Q1836 346 1792 252 Q1748 158 1669 98 Q1541 0 1312 0 L920 0 L1059 652 Z M1117 145 L1323 145 Q1410 145 1465.5 162 Q1521 179 1564 219 Q1657 303 1657 447 Q1657 560 1581 616 Q1530 652 1409 652 L1225 652 L1117 145 Z " />
<glyph glyph-name="afii10060" unicode="&#x40b;" horiz-adv-x="1176" d="M421 0 L254 0 L514 1220 L246 1220 L277 1365 L1203 1365 L1172 1220 L680 1220 L597 828 Q724 971 900 971 Q1021 971 1088.5 909 Q1156 847 1156 737 Q1156 676 1142 612 L1012 0 L860 0 L986 594 Q1000 660 1000 712 Q1000 776 960.5 812 Q921 848 850 848 Q696 848 603 707 Q575 666 557.5 612.5 Q540 559 516 445 L421 0 Z " />
<glyph glyph-name="afii10061" unicode="&#x40c;" horiz-adv-x="1121" d="M487 1365 L654 1365 L529 780 L620 780 L1220 1365 L1394 1365 L742 730 L1153 0 L982 0 L599 669 L506 669 L364 0 L197 0 L487 1365 Z M1268 1734 L1015 1479 L885 1479 L1116 1734 L1268 1734 Z " />
<glyph glyph-name="afii10062" unicode="&#x40e;" horiz-adv-x="1040" d="M533 342 L308 1365 L484 1365 L650 533 L1148 1365 L1335 1365 L705 363 Q579 162 524 98 Q409 -33 236 -33 Q193 -33 130 -19 L161 128 Q212 110 252 110 Q356 110 438 206 Q468 242 533 342 Z M1123 1748 Q1111 1656 1082 1606 Q1007 1475 836 1475 Q724 1475 662 1534 Q600 1593 600 1700 Q600 1716 603 1748 L709 1748 Q708 1732 708 1724 Q708 1660 744.5 1623.5 Q781 1587 846 1587 Q916 1587 956 1625 Q996 1663 1017 1748 L1123 1748 Z " />
<glyph glyph-name="afii10145" unicode="&#x40f;" horiz-adv-x="1311" d="M572 0 L197 0 L487 1365 L654 1365 L394 145 L978 145 L1238 1365 L1404 1365 L1114 0 L739 0 L695 -205 L529 -205 L572 0 Z " />
<glyph glyph-name="afii10017" unicode="&#x410;" horiz-adv-x="1112" d="M773 1365 L958 1365 L1112 0 L934 0 L896 419 L433 419 L215 0 L37 0 L773 1365 Z M506 560 L884 560 L828 1179 L506 560 Z " />
<glyph glyph-name="afii10018" unicode="&#x411;" horiz-adv-x="1140" d="M487 1365 L1249 1365 L1218 1220 L623 1220 L535 804 L773 804 Q956 804 1049 713 Q1142 621 1142 460 Q1142 350 1098 255 Q1054 160 974 99 Q845 0 617 0 L197 0 L487 1365 Z M394 145 L627 145 Q714 145 770 162 Q826 179 869 220 Q963 306 963 452 Q963 566 887 622 Q836 659 715 659 L504 659 L394 145 Z " />
<glyph glyph-name="afii10019" unicode="&#x412;" horiz-adv-x="1212" d="M197 0 L487 1365 L919 1365 Q1091 1365 1174 1294 Q1272 1211 1272 1064 Q1272 930 1201.5 843.5 Q1131 757 997 727 Q1189 662 1189 444 Q1189 315 1131 213 Q1071 110 960 55 Q849 0 700 0 L197 0 Z M530 784 L759 784 Q855 784 909.5 797 Q964 810 1007 843 Q1096 910 1096 1038 Q1096 1135 1042 1177.5 Q988 1220 866 1220 L623 1220 L530 784 Z M394 145 L653 145 Q750 145 805.5 157.5 Q861 170 906 202 Q1018 282 1018 438 Q1018 570 921 619 Q887 635 853 640 Q819 645 734 645 L501 645 L394 145 Z " />
<glyph glyph-name="afii10020" unicode="&#x413;" horiz-adv-x="1003" d="M487 1365 L1249 1365 L1218 1220 L623 1220 L364 0 L197 0 L487 1365 Z " />
<glyph glyph-name="afii10021" unicode="&#x414;" horiz-adv-x="1247" d="M1069 145 L1206 145 L1131 -205 L965 -205 L1008 0 L166 0 L123 -205 L-44 -205 L30 145 L56 145 Q220 145 288 356 L615 1365 L1328 1365 L1069 145 Z M902 145 L1131 1220 L734 1220 L452 348 Q409 218 328 145 L902 145 Z " />
<glyph glyph-name="afii10022" unicode="&#x415;" horiz-adv-x="1114" d="M197 0 L487 1365 L1276 1365 L1245 1220 L623 1220 L528 773 L1108 773 L1078 632 L498 632 L394 145 L1025 145 L994 0 L197 0 Z " />
<glyph glyph-name="afii10024" unicode="&#x416;" horiz-adv-x="1735" d="M1093 669 L951 0 L784 0 L926 669 L833 669 L185 0 L-6 0 L709 730 L333 1365 L513 1365 L852 780 L950 780 L1074 1365 L1241 1365 L1117 780 L1206 780 L1794 1365 L1981 1365 L1336 730 L1740 0 L1559 0 L1192 669 L1093 669 Z " />
<glyph glyph-name="afii10025" unicode="&#x417;" horiz-adv-x="1177" d="M644 773 L764 773 Q943 773 1030 857 Q1108 932 1108 1046 Q1108 1138 1049 1192 Q984 1253 865 1253 Q594 1253 486 956 L316 956 Q371 1152 521 1275 Q668 1396 879 1396 Q1037 1396 1143 1328 Q1288 1235 1288 1047 Q1288 905 1198.5 810 Q1109 715 953 692 Q1041 659 1084 612 Q1153 535 1153 411 Q1153 194 980 66 Q847 -33 643 -33 Q432 -33 319 75 Q203 186 203 400 Q203 445 212 515 L382 515 Q375 454 375 416 Q375 110 652 110 Q801 110 892 202 Q975 285 975 408 Q975 515 907.5 573.5 Q840 632 718 632 L614 632 L644 773 Z " />
<glyph glyph-name="afii10026" unicode="&#x418;" horiz-adv-x="1320" d="M487 1365 L640 1365 L418 322 L1244 1288 L1261 1365 L1413 1365 L1123 0 L970 0 L1192 1040 L368 87 L350 0 L197 0 L487 1365 Z " />
<glyph glyph-name="afii10027" unicode="&#x419;" horiz-adv-x="1320" d="M487 1365 L640 1365 L418 322 L1244 1288 L1261 1365 L1413 1365 L1123 0 L970 0 L1192 1040 L368 87 L350 0 L197 0 L487 1365 Z M1292 1748 Q1280 1656 1251 1606 Q1176 1475 1005 1475 Q893 1475 831 1534 Q769 1593 769 1700 Q769 1716 772 1748 L878 1748 Q877 1732 877 1724 Q877 1660 913.5 1623.5 Q950 1587 1015 1587 Q1085 1587 1125 1625 Q1165 1663 1186 1748 L1292 1748 Z " />
<glyph glyph-name="afii10028" unicode="&#x41a;" horiz-adv-x="1154" d="M487 1365 L654 1365 L529 780 L620 780 L1220 1365 L1394 1365 L742 730 L1153 0 L982 0 L599 669 L506 669 L364 0 L197 0 L487 1365 Z " />
<glyph glyph-name="afii10029" unicode="&#x41b;" horiz-adv-x="1219" d="M718 1220 L430 323 Q324 -19 4 -23 L34 120 Q202 131 267 331 L599 1365 L1312 1365 L1022 0 L855 0 L1115 1220 L718 1220 Z " />
<glyph glyph-name="afii10030" unicode="&#x41c;" horiz-adv-x="1547" d="M197 0 L487 1365 L704 1365 L820 213 L1413 1365 L1641 1365 L1350 0 L1198 0 L1445 1164 L860 0 L694 0 L588 1141 L346 0 L197 0 Z " />
<glyph glyph-name="afii10031" unicode="&#x41d;" horiz-adv-x="1311" d="M197 0 L487 1365 L654 1365 L532 791 L1115 791 L1238 1365 L1404 1365 L1114 0 L947 0 L1084 646 L501 646 L364 0 L197 0 Z " />
<glyph glyph-name="afii10032" unicode="&#x41e;" horiz-adv-x="1353" d="M946 1396 Q1156 1396 1277 1264 Q1343 1191 1376 1074 Q1402 985 1402 888 Q1402 732 1356 571.5 Q1310 411 1229 285 Q1024 -33 697 -33 Q460 -33 343 126 Q242 263 242 482 Q242 690 316 885 Q409 1133 596 1277 Q753 1396 946 1396 Z M931 1250 Q715 1250 562 1008 Q417 780 417 473 Q417 286 502 194 Q579 110 698 110 Q924 110 1079 359 Q1147 469 1186.5 611.5 Q1226 754 1226 890 Q1226 1072 1138 1170 Q1065 1250 931 1250 Z " />
<glyph glyph-name="afii10033" unicode="&#x41f;" horiz-adv-x="1311" d="M1404 1365 L1114 0 L947 0 L1207 1220 L623 1220 L364 0 L197 0 L487 1365 L1404 1365 Z " />
<glyph glyph-name="afii10034" unicode="&#x420;" horiz-adv-x="1133" d="M197 0 L487 1365 L893 1365 Q1075 1365 1168 1274 Q1261 1182 1261 1022 Q1261 912 1217 817 Q1173 722 1093 661 Q964 562 736 562 L483 562 L364 0 L197 0 Z M514 707 L747 707 Q833 707 889 724 Q945 741 988 781 Q1082 867 1082 1013 Q1082 1127 1006 1183 Q956 1220 834 1220 L623 1220 L514 707 Z " />
<glyph glyph-name="afii10035" unicode="&#x421;" horiz-adv-x="1267" d="M1104 515 L1274 515 Q1223 317 1125 189 Q956 -33 685 -33 Q465 -33 353 102 Q301 163 271.5 263 Q242 363 242 474 Q242 683 311 877 Q395 1111 577 1261 Q740 1396 953 1396 Q1155 1396 1266 1275 Q1311 1227 1337 1159.5 Q1363 1092 1363 1024 Q1363 1002 1358 956 L1187 956 Q1188 976 1188 982 Q1188 1090 1131 1166 Q1067 1253 935 1253 Q711 1253 558 997 Q493 889 456 747 Q419 605 419 466 Q419 286 498 192 Q566 110 692 110 Q833 110 938 213.5 Q1043 317 1104 515 Z " />
<glyph glyph-name="afii10036" unicode="&#x422;" horiz-adv-x="916" d="M366 0 L626 1220 L246 1220 L277 1365 L1203 1365 L1172 1220 L792 1220 L533 0 L366 0 Z " />
<glyph glyph-name="afii10037" unicode="&#x423;" horiz-adv-x="1040" d="M533 342 L308 1365 L484 1365 L650 533 L1148 1365 L1335 1365 L705 363 Q579 162 524 98 Q409 -33 236 -33 Q193 -33 130 -19 L161 128 Q212 110 252 110 Q356 110 438 206 Q468 242 533 342 Z " />
<glyph glyph-name="afii10038" unicode="&#x424;" horiz-adv-x="1636" d="M1158 1207 Q1406 1199 1547 1076.5 Q1688 954 1688 745 Q1688 519 1532 362 Q1337 165 935 157 L901 0 L735 0 L768 157 Q520 179 389 290 Q238 418 238 635 Q238 757 292 866.5 Q346 976 444 1050 Q648 1206 991 1207 L1025 1365 L1191 1365 L1158 1207 Z M965 301 Q1188 304 1330 390 Q1512 500 1512 738 Q1512 1050 1127 1060 L965 301 Z M960 1060 Q736 1059 597 973 Q511 920 462 828 Q413 736 413 629 Q413 448 556 362 Q653 304 798 301 L960 1060 Z " />
<glyph glyph-name="afii10039" unicode="&#x425;" horiz-adv-x="1058" d="M32 0 L581 699 L347 1365 L535 1365 L701 837 L1104 1365 L1294 1365 L777 708 L1026 0 L836 0 L654 560 L225 0 L32 0 Z " />
<glyph glyph-name="afii10040" unicode="&#x426;" horiz-adv-x="1322" d="M1145 145 L1281 145 L1207 -205 L1040 -205 L1084 0 L197 0 L487 1365 L654 1365 L394 145 L978 145 L1238 1365 L1404 1365 L1145 145 Z " />
<glyph glyph-name="afii10041" unicode="&#x427;" horiz-adv-x="1229" d="M991 594 Q861 476 674 476 Q480 476 376 591 Q300 674 300 809 Q300 871 324 986 L405 1365 L570 1365 L487 978 Q470 896 470 845 Q470 761 506 708 Q566 620 707 620 Q851 620 939 707 Q978 746 1014 807 Q1050 868 1059 912 L1155 1365 L1322 1365 L1032 0 L865 0 L991 594 Z " />
<glyph glyph-name="afii10042" unicode="&#x428;" horiz-adv-x="1788" d="M1591 0 L197 0 L487 1365 L654 1365 L394 145 L842 145 L1101 1365 L1268 1365 L1008 145 L1455 145 L1715 1365 L1881 1365 L1591 0 Z " />
<glyph glyph-name="afii10043" unicode="&#x429;" horiz-adv-x="1799" d="M1622 145 L1758 145 L1684 -205 L1517 -205 L1561 0 L197 0 L487 1365 L654 1365 L394 145 L842 145 L1101 1365 L1268 1365 L1008 145 L1455 145 L1715 1365 L1881 1365 L1622 145 Z " />
<glyph glyph-name="afii10044" unicode="&#x42a;" horiz-adv-x="1275" d="M617 1220 L268 1220 L299 1365 L814 1365 L695 804 L934 804 Q1116 804 1209 713 Q1302 621 1302 460 Q1302 350 1258 255 Q1214 160 1134 99 Q1006 0 777 0 L357 0 L617 1220 Z M555 145 L788 145 Q874 145 930 162 Q986 179 1029 220 Q1123 306 1123 452 Q1123 566 1047 622 Q996 659 875 659 L664 659 L555 145 Z " />
<glyph glyph-name="afii10045" unicode="&#x42b;" horiz-adv-x="1530" d="M1167 0 L1457 1365 L1624 1365 L1333 0 L1167 0 Z M487 1365 L654 1365 L535 804 L773 804 Q956 804 1049 713 Q1142 621 1142 460 Q1142 350 1098 255 Q1054 160 974 99 Q845 0 617 0 L197 0 L487 1365 Z M394 145 L627 145 Q714 145 770 162 Q826 179 869 220 Q963 306 963 452 Q963 566 887 622 Q836 659 715 659 L504 659 L394 145 Z " />
<glyph glyph-name="afii10046" unicode="&#x42c;" horiz-adv-x="1114" d="M487 1365 L654 1365 L535 804 L773 804 Q956 804 1049 713 Q1142 621 1142 460 Q1142 350 1098 255 Q1054 160 974 99 Q845 0 617 0 L197 0 L487 1365 Z M394 145 L627 145 Q714 145 770 162 Q826 179 869 220 Q963 306 963 452 Q963 566 887 622 Q836 659 715 659 L504 659 L394 145 Z " />
<glyph glyph-name="afii10047" unicode="&#x42d;" horiz-adv-x="1265" d="M1130 773 Q1137 829 1137 888 Q1137 1076 1056 1172 Q987 1254 858 1254 Q729 1254 633 1177 Q537 1100 486 956 L316 956 Q361 1122 477 1235 Q644 1397 860 1397 Q1090 1397 1204 1247 Q1255 1181 1283.5 1086 Q1312 991 1312 889 Q1312 699 1249 505 Q1164 245 981 96 Q823 -33 613 -33 Q384 -33 281 119 Q203 234 203 399 Q203 446 212 515 L382 515 Q375 454 375 416 Q375 313 409 237 Q466 111 624 111 Q785 111 909 245.5 Q1033 380 1103 632 L614 632 L644 773 L1130 773 Z " />
<glyph glyph-name="afii10048" unicode="&#x42e;" horiz-adv-x="1847" d="M747 646 L501 646 L364 0 L197 0 L487 1365 L654 1365 L532 791 L777 791 Q830 983 944 1131 Q1149 1396 1438 1396 Q1651 1396 1770 1264 Q1828 1199 1861.5 1098.5 Q1895 998 1895 888 Q1895 733 1848.5 572 Q1802 411 1722 285 Q1517 -33 1189 -33 Q953 -33 836 127 Q735 264 735 485 Q735 562 747 646 Z M1424 1250 Q1208 1250 1055 1008 Q910 780 910 474 Q910 288 995 195 Q1072 111 1191 111 Q1417 111 1572 360 Q1640 470 1679.5 612.5 Q1719 755 1719 891 Q1719 1072 1631 1170 Q1559 1250 1424 1250 Z " />
<glyph glyph-name="afii10049" unicode="&#x42f;" horiz-adv-x="1228" d="M1031 0 L864 0 L990 592 L748 592 Q649 592 592 572.5 Q535 553 499 508 Q458 456 434.5 392 Q411 328 353 115 Q334 43 299 0 L109 0 Q152 36 178.5 98.5 Q205 161 265 364 Q336 640 534 675 Q352 744 352 968 Q352 1154 476 1260 Q598 1365 840 1365 L1321 1365 L1031 0 Z M1020 735 L1124 1220 L857 1220 Q690 1220 618 1166 Q524 1095 524 957 Q524 840 600 782 Q634 756 677 745.5 Q720 735 793 735 L1020 735 Z " />
<glyph glyph-name="afii10065" unicode="&#x430;" horiz-adv-x="964" d="M945 115 L920 -3 Q871 -18 838 -18 Q778 -18 741 14.5 Q704 47 704 100 Q704 112 707 135 Q562 -29 377 -29 Q259 -29 192 36 Q128 98 128 196 Q128 301 193.5 384 Q259 467 375 510 Q445 535 531 545.5 Q617 556 797 560 L816 648 Q825 690 825 716 Q825 847 642 847 Q487 847 449 760 L284 759 Q352 971 644 971 Q781 971 866 922 Q972 862 972 736 Q972 693 947 575 L871 219 Q861 170 861 156 Q861 110 909 110 Q922 110 945 115 Z M776 458 Q584 451 486 426 Q392 403 339 348.5 Q286 294 286 221 Q286 162 322 128 Q358 94 420 94 Q565 94 673 221 Q743 304 765 406 L776 458 Z " />
<glyph glyph-name="afii10066" unicode="&#x431;" horiz-adv-x="1026" d="M480 898 Q585 971 718 971 Q860 971 954 887 Q1061 791 1061 603 Q1061 469 1012 337 Q946 160 821.5 65.5 Q697 -29 529 -29 Q359 -29 265 63 Q164 161 164 335 Q164 491 226 679.5 Q288 868 383 1002 Q463 1115 561.5 1176 Q660 1237 812 1269 Q887 1285 910.5 1294.5 Q934 1304 951 1325 Q977 1356 991 1438 L1120 1438 Q1103 1302 1046 1242.5 Q989 1183 846 1151 Q731 1125 676.5 1101.5 Q622 1078 574 1031 Q515 974 480 898 Z M694 848 Q523 848 413 675 Q320 528 320 336 Q320 195 401 134 Q455 94 535 94 Q688 94 791 239 Q842 311 872.5 410.5 Q903 510 903 606 Q903 743 826 804 Q773 848 694 848 Z " />
<glyph glyph-name="afii10067" unicode="&#x432;" horiz-adv-x="949" d="M413 431 L348 127 L557 127 Q659 127 711 163 Q784 213 784 304 Q784 371 742 401 Q700 431 608 431 L413 431 Z M780 496 Q845 476 877 448 Q938 395 938 300 Q938 228 905 165 Q872 102 814 61 Q763 26 704.5 13 Q646 0 541 0 L157 0 L357 942 L720 942 Q874 942 937 891 Q1005 837 1005 741 Q1005 650 948 588 Q891 526 780 496 Z M483 815 L428 558 L655 558 Q740 558 790.5 599 Q841 640 841 709 Q841 815 690 815 L483 815 Z " />
<glyph glyph-name="afii10068" unicode="&#x433;" horiz-adv-x="752" d="M483 815 L310 0 L157 0 L357 942 L963 942 L936 815 L483 815 Z " />
<glyph glyph-name="afii10069" unicode="&#x434;" horiz-adv-x="1049" d="M438 942 L1077 942 L903 127 L1019 127 L948 -205 L796 -205 L839 0 L132 0 L89 -205 L-64 -205 L7 127 L27 127 Q103 127 147 169 Q191 211 227 319 L438 942 Z M271 127 L751 127 L897 815 L567 815 L399 341 Q348 197 271 127 Z " />
<glyph glyph-name="afii10070" unicode="&#x435;" horiz-adv-x="986" d="M995 431 L337 431 Q326 373 326 331 Q326 232 372 172 Q434 93 551 93 Q658 93 736 166 L909 166 Q850 71 755 21 Q660 -29 539 -29 Q374 -29 280 57 Q166 162 166 351 Q166 471 205 588 Q244 705 312 789 Q459 971 679 971 Q853 971 940 876 Q1022 785 1022 642 Q1022 559 995 431 Z M856 554 Q864 605 864 636 Q864 728 823 783 Q775 848 673 848 Q545 848 454 731 Q400 660 366 554 L856 554 Z " />
<glyph glyph-name="afii10072" unicode="&#x436;" horiz-adv-x="1303" d="M839 544 L904 544 L1323 943 L1508 943 L1027 497 L1333 0 L1163 0 L889 446 L818 446 L723 0 L571 0 L665 446 L583 446 L138 0 L-41 0 L472 510 L187 942 L359 942 L607 544 L686 544 L771 942 L923 942 L839 544 Z " />
<glyph glyph-name="afii10073" unicode="&#x437;" horiz-adv-x="883" d="M362 644 L198 644 Q233 773 312 851 Q433 971 628 971 Q776 971 871 910 Q969 848 969 730 Q969 638 915 577 Q861 516 761 495 Q895 441 895 299 Q895 174 805 85 Q690 -29 481 -29 Q289 -29 199 79 Q124 167 124 292 Q124 307 126 336 L289 336 Q287 307 287 293 Q287 197 338 145.5 Q389 94 485 94 Q591 94 660 147 Q739 208 739 295 Q739 431 553 431 L461 431 L488 558 L577 558 Q666 558 722 586 Q809 629 809 719 Q809 782 761 814 Q709 848 623 848 Q497 848 428 771 Q388 725 362 644 Z " />
<glyph glyph-name="afii10074" unicode="&#x438;" horiz-adv-x="1058" d="M949 942 L1101 942 L901 0 L748 0 L892 676 L321 55 L310 0 L157 0 L357 942 L510 942 L366 266 L937 887 L949 942 Z " />
<glyph glyph-name="afii10075" unicode="&#x439;" horiz-adv-x="1058" d="M949 942 L1101 942 L901 0 L748 0 L892 676 L321 55 L310 0 L157 0 L357 942 L510 942 L366 266 L937 887 L949 942 Z M1055 1365 Q1020 1092 789 1092 Q685 1092 626 1148.5 Q567 1205 567 1304 Q567 1326 570 1365 L672 1365 Q671 1348 671 1340 Q671 1274 705 1237 Q739 1200 800 1200 Q927 1200 953 1365 L1055 1365 Z " />
<glyph glyph-name="afii10076" unicode="&#x43a;" horiz-adv-x="935" d="M157 0 L357 942 L510 942 L425 544 L491 544 L906 943 L1099 943 L621 500 L923 0 L752 0 L486 446 L404 446 L309 0 L157 0 Z " />
<glyph glyph-name="afii10077" unicode="&#x43b;" horiz-adv-x="1017" d="M1060 942 L859 0 L707 0 L880 815 L556 815 L386 326 Q315 121 213 52 Q167 21 121 9.5 Q75 -2 -17 -5 L8 111 Q88 113 134 154 Q182 195 218 304 L430 942 L1060 942 Z " />
<glyph glyph-name="afii10078" unicode="&#x43c;" horiz-adv-x="1277" d="M666 149 L1107 942 L1320 942 L1120 0 L976 0 L1141 776 L706 0 L563 0 L465 776 L300 0 L157 0 L357 942 L578 942 L666 149 Z " />
<glyph glyph-name="afii10079" unicode="&#x43d;" horiz-adv-x="1058" d="M401 431 L310 0 L157 0 L357 942 L510 942 L428 558 L867 558 L949 942 L1101 942 L901 0 L748 0 L840 431 L401 431 Z " />
<glyph glyph-name="afii10080" unicode="&#x43e;" horiz-adv-x="1023" d="M703 971 Q858 971 953 887 Q1061 793 1061 604 Q1061 469 1012 337 Q935 128 775 34 Q668 -29 531 -29 Q359 -29 265 63 Q164 161 164 332 Q164 449 199.5 564 Q235 679 297 763 Q450 971 703 971 Z M694 848 Q523 848 413 675 Q320 528 320 336 Q320 195 401 134 Q455 94 535 94 Q688 94 791 239 Q842 311 872.5 410.5 Q903 510 903 606 Q903 743 826 804 Q773 848 694 848 Z " />
<glyph glyph-name="afii10081" unicode="&#x43f;" horiz-adv-x="1058" d="M483 815 L310 0 L157 0 L357 942 L1101 942 L901 0 L748 0 L922 815 L483 815 Z " />
<glyph glyph-name="afii10082" unicode="&#x440;" horiz-adv-x="1082" d="M83 -355 L359 942 L512 942 L487 828 Q606 971 787 971 Q938 971 1025 883 Q1068 839 1093.5 767 Q1119 695 1119 616 Q1119 490 1077.5 365 Q1036 240 967 155 Q817 -29 600 -29 Q411 -29 334 109 L236 -355 L83 -355 Z M763 848 Q683 848 610.5 803 Q538 758 488 677 Q446 609 421 513.5 Q396 418 396 329 Q396 200 470 139 Q525 94 601 94 Q760 94 863 257 Q961 410 961 599 Q961 730 896 796 Q845 848 763 848 Z " />
<glyph glyph-name="afii10083" unicode="&#x441;" horiz-adv-x="951" d="M801 336 L965 336 Q940 226 858 130 Q722 -29 516 -29 Q350 -29 260 65 Q164 164 164 334 Q164 454 198.5 568 Q233 682 295 764 Q450 971 696 971 Q851 971 938 892 Q1026 811 1026 680 Q1026 664 1025 644 L859 644 Q858 707 849 736 Q811 848 683 848 Q518 848 410 670 Q320 521 320 332 Q320 220 374 157 Q428 94 523 94 Q648 94 736 208 Q776 259 801 336 Z " />
<glyph glyph-name="afii10084" unicode="&#x442;" horiz-adv-x="686" d="M593 815 L419 0 L267 0 L440 815 L175 815 L202 942 L885 942 L858 815 L593 815 Z " />
<glyph glyph-name="afii10085" unicode="&#x443;" horiz-adv-x="848" d="M20 -340 L48 -208 Q60 -212 66 -215 Q102 -229 131 -229 Q217 -229 271 -140 L361 10 L207 942 L381 942 L476 211 L869 942 L1041 942 L443 -101 Q367 -234 312 -283 Q233 -355 121 -355 Q77 -355 20 -340 Z " />
<glyph glyph-name="afii10086" unicode="&#x444;" horiz-adv-x="1357" d="M923 800 Q1025 971 1184 971 Q1263 971 1316 922 Q1419 828 1419 637 Q1419 517 1383.5 390.5 Q1348 264 1287 171 Q1221 69 1131 17 Q1053 -29 974 -29 Q904 -29 858.5 7.5 Q813 44 780 128 L677 -355 L532 -355 L634 126 Q593 59 558 30 Q490 -29 399 -29 Q281 -29 209 64 Q142 150 142 304 Q142 424 176 546 Q210 668 269 762 Q332 860 416.5 915.5 Q501 971 590 971 Q663 971 708 929.5 Q753 888 777 798 L898 1365 L1043 1365 L923 800 Z M594 848 Q538 851 482.5 804.5 Q427 758 384 673 Q344 596 320 491 Q296 386 296 292 Q296 200 333 147 Q370 94 434 94 Q542 94 625 240 Q670 320 699 434 Q728 548 728 646 Q728 736 692 790.5 Q656 845 594 848 Z M1130 848 Q1013 848 927 686 Q884 606 859 498.5 Q834 391 834 290 Q834 198 869 146 Q904 94 966 94 Q1085 94 1171 256 Q1212 333 1238.5 442.5 Q1265 552 1265 643 Q1265 746 1222 802 Q1187 848 1130 848 Z " />
<glyph glyph-name="afii10087" unicode="&#x445;" horiz-adv-x="862" d="M7 0 L441 496 L232 942 L416 942 L552 614 L832 942 L1017 942 L623 509 L853 0 L669 0 L508 381 L193 0 L7 0 Z " />
<glyph glyph-name="afii10088" unicode="&#x446;" horiz-adv-x="1072" d="M926 127 L1044 127 L973 -205 L819 -205 L862 0 L157 0 L357 942 L510 942 L337 127 L773 127 L947 942 L1099 942 L926 127 Z " />
<glyph glyph-name="afii10089" unicode="&#x447;" horiz-adv-x="988" d="M770 431 Q666 342 510 342 Q366 342 282 419 Q218 478 218 572 Q218 617 234 691 L287 942 L440 942 L383 675 Q375 639 375 610 Q375 544 423.5 504.5 Q472 465 553 465 Q682 465 758 552 Q807 609 823 682 L878 942 L1031 942 L831 0 L678 0 L770 431 Z " />
<glyph glyph-name="afii10090" unicode="&#x448;" horiz-adv-x="1409" d="M810 127 L1117 127 L1290 942 L1452 942 L1252 0 L157 0 L357 942 L510 942 L337 127 L648 127 L822 942 L983 942 L810 127 Z " />
<glyph glyph-name="afii10091" unicode="&#x449;" horiz-adv-x="1428" d="M1215 0 L157 0 L357 942 L510 942 L337 127 L650 127 L823 942 L985 942 L812 127 L1121 127 L1294 942 L1456 942 L1282 127 L1394 127 L1324 -205 L1171 -205 L1215 0 Z " />
<glyph glyph-name="afii10092" unicode="&#x44a;" horiz-adv-x="962" d="M420 815 L153 815 L180 942 L599 942 L521 573 L700 573 Q837 573 907 533 Q1017 470 1017 322 Q1017 237 977.5 167.5 Q938 98 867 59 Q805 24 743 12 Q681 0 564 0 L246 0 L420 815 Z M494 446 L426 127 L594 127 Q716 127 779 167 Q859 217 859 310 Q859 446 666 446 L494 446 Z " />
<glyph glyph-name="afii10093" unicode="&#x44b;" horiz-adv-x="1292" d="M982 0 L1183 942 L1335 942 L1135 0 L982 0 Z M157 0 L357 942 L510 942 L431 573 L611 573 Q748 573 817 533 Q928 470 928 322 Q928 237 888.5 167.5 Q849 98 778 59 Q716 24 654 12 Q592 0 475 0 L157 0 Z M404 446 L337 127 L505 127 Q627 127 690 167 Q770 217 770 310 Q770 446 577 446 L404 446 Z " />
<glyph glyph-name="afii10094" unicode="&#x44c;" horiz-adv-x="873" d="M157 0 L357 942 L510 942 L431 573 L611 573 Q748 573 817 533 Q928 470 928 322 Q928 237 888.5 167.5 Q849 98 778 59 Q716 24 654 12 Q592 0 475 0 L157 0 Z M404 446 L337 127 L505 127 Q627 127 690 167 Q770 217 770 310 Q770 446 577 446 L404 446 Z " />
<glyph glyph-name="afii10095" unicode="&#x44d;" horiz-adv-x="951" d="M817 558 Q820 580 820 602 Q820 709 774 771 Q717 848 606 848 Q426 848 362 644 L198 644 Q233 773 312 851 Q433 971 618 971 Q805 971 902 853 Q984 753 984 608 Q984 493 948 377 Q912 261 848 173 Q703 -29 471 -29 Q289 -29 199 79 Q124 167 124 292 Q124 307 126 336 L289 336 Q287 307 287 293 Q287 199 337 146.5 Q387 94 476 94 Q584 94 669.5 184.5 Q755 275 794 431 L459 431 L486 558 L817 558 Z " />
<glyph glyph-name="afii10096" unicode="&#x44e;" horiz-adv-x="1403" d="M550 431 L401 431 L310 0 L157 0 L357 942 L510 942 L428 558 L578 558 Q611 672 677 763 Q829 971 1083 971 Q1239 971 1333 888 Q1441 792 1441 604 Q1441 469 1392 336 Q1326 160 1201.5 65.5 Q1077 -29 910 -29 Q739 -29 645 63 Q544 160 544 342 Q544 387 550 431 Z M1074 848 Q903 848 793 675 Q700 528 700 336 Q700 195 781 134 Q835 94 915 94 Q1068 94 1171 239 Q1222 311 1252.5 410.5 Q1283 510 1283 606 Q1283 742 1206 804 Q1153 848 1074 848 Z " />
<glyph glyph-name="afii10097" unicode="&#x44f;" horiz-adv-x="977" d="M1020 942 L819 0 L667 0 L745 369 L583 369 Q472 369 427.5 328.5 Q383 288 346 153 Q312 28 287 0 L105 0 Q133 22 148.5 58.5 Q164 95 204 225 Q224 291 242.5 323.5 Q261 356 293 381 Q341 417 415 427 Q317 463 286 517 Q257 569 257 636 Q257 716 296.5 782 Q336 848 407 886 Q469 919 531 930.5 Q593 942 710 942 L1020 942 Z M772 496 L840 815 L680 815 Q558 815 495 775 Q415 725 415 632 Q415 496 608 496 L772 496 Z " />
<glyph glyph-name="afii10071" unicode="&#x451;" horiz-adv-x="986" d="M994 1297 L954 1106 L802 1106 L842 1297 L994 1297 Z M686 1297 L645 1106 L502 1106 L542 1297 L686 1297 Z M995 431 L337 431 Q326 373 326 331 Q326 232 372 172 Q434 93 551 93 Q658 93 736 166 L909 166 Q850 71 755 21 Q660 -29 539 -29 Q374 -29 280 57 Q166 162 166 351 Q166 471 205 588 Q244 705 312 789 Q459 971 679 971 Q853 971 940 876 Q1022 785 1022 642 Q1022 559 995 431 Z M856 554 Q864 605 864 636 Q864 728 823 783 Q775 848 673 848 Q545 848 454 731 Q400 660 366 554 L856 554 Z " />
<glyph glyph-name="afii10099" unicode="&#x452;" horiz-adv-x="995" d="M490 828 Q608 971 765 971 Q878 971 940 905 Q1030 809 1030 636 Q1030 449 963 256.5 Q896 64 791 -50 Q654 -200 463 -200 Q424 -200 383 -184 L411 -53 Q450 -71 488 -71 Q608 -71 697 58 Q775 169 823 343 Q867 504 867 629 Q867 848 708 848 Q602 848 522 754 Q479 705 456.5 645 Q434 585 404 445 L310 0 L157 0 L399 1140 L279 1140 L303 1252 L423 1252 L447 1365 L600 1365 L576 1252 L835 1252 L811 1140 L556 1140 L490 828 Z " />
<glyph glyph-name="afii10100" unicode="&#x453;" horiz-adv-x="752" d="M483 815 L310 0 L157 0 L357 942 L963 942 L936 815 L483 815 Z M974 1365 L737 1092 L607 1092 L828 1365 L974 1365 Z " />
<glyph glyph-name="afii10101" unicode="&#x454;" horiz-adv-x="951" d="M358 558 L702 558 L675 431 L327 431 Q320 381 320 332 Q320 220 373.5 157 Q427 94 523 94 Q648 94 736 208 Q776 259 801 336 L965 336 Q940 226 858 130 Q722 -29 516 -29 Q350 -29 260 65 Q164 164 164 334 Q164 454 198.5 568 Q233 682 295 764 Q450 971 696 971 Q851 971 938 892 Q1026 811 1026 680 Q1026 664 1025 644 L859 644 Q858 707 849 736 Q811 848 683 848 Q578 848 491 770 Q404 692 358 558 Z " />
<glyph glyph-name="afii10102" unicode="&#x455;" horiz-adv-x="902" d="M153 266 L319 266 Q314 239 314 225 Q314 166 358.5 132 Q403 98 480 98 Q569 98 626 142 Q686 187 686 257 Q686 324 600 372 L422 470 Q272 554 272 699 Q272 823 364.5 897 Q457 971 612 971 Q752 971 832 914 Q912 857 912 754 Q912 732 908 699 L748 699 Q751 723 751 737 Q751 791 712 820.5 Q673 850 603 850 Q527 850 480.5 814 Q434 778 434 719 Q434 651 520 603 L724 488 Q867 407 867 278 Q867 138 761 54.5 Q655 -29 478 -29 Q291 -29 209 56 Q148 118 148 214 Q148 231 153 266 Z " />
<glyph glyph-name="afii10103" unicode="&#x456;" horiz-adv-x="467" d="M403 1157 L447 1365 L609 1365 L565 1157 L403 1157 Z M157 0 L357 942 L510 942 L310 0 L157 0 Z " />
<glyph glyph-name="afii10104" unicode="&#x457;" horiz-adv-x="467" d="M157 0 L357 942 L510 942 L310 0 L157 0 Z M696 1297 L656 1106 L512 1106 L553 1297 L696 1297 Z M454 1297 L414 1106 L270 1106 L311 1297 L454 1297 Z " />
<glyph glyph-name="afii10105" unicode="&#x458;" horiz-adv-x="467" d="M-60 -349 L-32 -218 Q-1 -226 22 -226 Q110 -226 136 -101 L358 942 L510 942 L293 -80 Q265 -211 212 -272 Q140 -355 9 -355 Q-20 -355 -60 -349 Z M404 1157 L448 1365 L610 1365 L565 1157 L404 1157 Z " />
<glyph glyph-name="afii10106" unicode="&#x459;" horiz-adv-x="1343" d="M1021 942 L942 573 L1095 573 Q1231 573 1301 533 Q1411 470 1411 322 Q1411 237 1371.5 167.5 Q1332 98 1261 59 Q1199 24 1137 12 Q1075 0 959 0 L668 0 L841 815 L548 815 L378 326 Q307 121 206 52 Q160 21 114 9.5 Q68 -2 -23 -5 L2 111 Q82 113 128 154 Q175 195 211 304 L423 942 L1021 942 Z M915 446 L848 127 L989 127 Q1111 127 1174 167 Q1253 217 1253 310 Q1253 446 1061 446 L915 446 Z " />
<glyph glyph-name="afii10107" unicode="&#x45a;" horiz-adv-x="1389" d="M835 565 L915 942 L1068 942 L988 565 L1140 565 Q1277 565 1346 526 Q1457 463 1457 316 Q1457 233 1418 165 Q1379 97 1308 58 Q1246 24 1184 12 Q1122 0 1006 0 L715 0 L808 438 L403 438 L310 0 L157 0 L357 942 L510 942 L430 565 L835 565 Z M961 438 L895 127 L1036 127 Q1157 127 1220 166 Q1299 214 1299 305 Q1299 438 1106 438 L961 438 Z " />
<glyph glyph-name="afii10108" unicode="&#x45b;" horiz-adv-x="1044" d="M417 1252 L441 1365 L594 1365 L570 1252 L837 1252 L813 1140 L546 1140 L479 828 Q606 971 782 971 Q903 971 970.5 909 Q1038 847 1038 737 Q1038 673 1025 612 L895 0 L742 0 L868 594 Q882 657 882 712 Q882 776 842.5 812 Q803 848 732 848 Q578 848 485 707 Q458 666 440 613 Q422 560 398 445 L304 0 L151 0 L393 1140 L278 1140 L301 1252 L417 1252 Z " />
<glyph glyph-name="afii10109" unicode="&#x45c;" horiz-adv-x="935" d="M1058 1365 L807 1092 L667 1092 L901 1365 L1058 1365 Z M157 0 L357 942 L510 942 L425 544 L491 544 L906 943 L1099 943 L621 500 L923 0 L752 0 L486 446 L404 446 L309 0 L157 0 Z " />
<glyph glyph-name="afii10110" unicode="&#x45e;" horiz-adv-x="848" d="M20 -340 L48 -208 Q60 -212 66 -215 Q102 -229 131 -229 Q217 -229 271 -140 L361 10 L207 942 L381 942 L476 211 L869 942 L1041 942 L443 -101 Q367 -234 312 -283 Q233 -355 121 -355 Q77 -355 20 -340 Z M928 1365 Q893 1092 662 1092 Q558 1092 499 1148.5 Q440 1205 440 1304 Q440 1326 443 1365 L545 1365 Q544 1348 544 1340 Q544 1274 578 1237 Q612 1200 673 1200 Q800 1200 826 1365 L928 1365 Z " />
<glyph glyph-name="afii10193" unicode="&#x45f;" horiz-adv-x="1058" d="M606 0 L563 -205 L408 -205 L452 0 L157 0 L357 942 L510 942 L337 127 L775 127 L949 942 L1101 942 L901 0 L606 0 Z " />
<glyph glyph-name="afii10050" unicode="&#x490;" horiz-adv-x="1029" d="M1275 1488 L1218 1220 L623 1220 L364 0 L197 0 L487 1365 L1082 1365 L1108 1488 L1275 1488 Z " />
<glyph glyph-name="afii10098" unicode="&#x491;" horiz-adv-x="752" d="M986 1051 L936 815 L483 815 L310 0 L157 0 L357 942 L801 942 L824 1051 L986 1051 Z " />
<glyph glyph-name="uni0492" unicode="&#x492;" horiz-adv-x="1011" d="M369 773 L495 1365 L1257 1365 L1226 1220 L631 1220 L536 773 L878 773 L850 641 L508 641 L372 0 L205 0 L341 641 L210 641 L238 773 L369 773 Z " />
<glyph glyph-name="uni0493" unicode="&#x493;" horiz-adv-x="752" d="M277 565 L357 942 L963 942 L936 815 L483 815 L430 565 L700 565 L675 450 L405 450 L309 0 L157 0 L253 450 L125 450 L150 565 L277 565 Z " />
<glyph glyph-name="uni0496" unicode="&#x496;" horiz-adv-x="1736" d="M1618 0 L1559 0 L1192 669 L1093 669 L951 0 L784 0 L926 669 L833 669 L185 0 L-6 0 L709 730 L333 1365 L513 1365 L852 780 L950 780 L1074 1365 L1241 1365 L1117 780 L1206 780 L1794 1365 L1981 1365 L1336 730 L1659 145 L1815 145 L1741 -205 L1574 -205 L1618 0 Z " />
<glyph glyph-name="uni0497" unicode="&#x497;" horiz-adv-x="1317" d="M1255 127 L1403 127 L1333 -205 L1185 -205 L1229 0 L1163 0 L889 446 L818 446 L723 0 L571 0 L665 446 L583 446 L138 0 L-41 0 L472 510 L187 942 L359 942 L607 544 L686 544 L771 942 L923 942 L839 544 L904 544 L1323 943 L1508 943 L1027 497 L1255 127 Z " />
<glyph glyph-name="uni049A" unicode="&#x49a;" horiz-adv-x="1192" d="M1068 145 L1223 145 L1149 -205 L982 -205 L1026 0 L943 0 L653 668 L470 501 L364 0 L197 0 L487 1365 L654 1365 L517 720 L1205 1365 L1411 1365 L785 790 L1068 145 Z " />
<glyph glyph-name="uni049B" unicode="&#x49b;" horiz-adv-x="976" d="M847 127 L990 127 L919 -205 L765 -205 L809 0 L809 1 L752 1 L486 446 L404 446 L309 0 L157 0 L357 942 L510 942 L425 544 L491 544 L906 943 L1099 943 L621 500 L847 127 Z " />
<glyph glyph-name="uni049C" unicode="&#x49c;" horiz-adv-x="1373" d="M641 669 L506 669 L364 0 L197 0 L487 1365 L654 1365 L529 780 L665 780 L734 1107 L871 1107 L801 780 L871 780 L1472 1365 L1646 1365 L994 730 L1404 0 L1233 0 L850 669 L778 669 L708 342 L572 342 L641 669 Z " />
<glyph glyph-name="uni049D" unicode="&#x49d;" horiz-adv-x="1059" d="M630 446 L580 211 L464 211 L513 446 L404 446 L309 0 L157 0 L357 942 L510 942 L425 544 L534 544 L583 774 L700 774 L651 544 L711 544 L712 547 L1047 943 L1223 943 L822 494 L1063 0 L900 0 L691 446 L630 446 Z " />
<glyph glyph-name="uni04A2" unicode="&#x4a2;" horiz-adv-x="1322" d="M197 0 L487 1365 L654 1365 L532 791 L1115 791 L1238 1365 L1404 1365 L1145 145 L1281 145 L1207 -205 L1040 -205 L1084 0 L947 0 L1084 646 L501 646 L364 0 L197 0 Z " />
<glyph glyph-name="uni04A3" unicode="&#x4a3;" horiz-adv-x="1074" d="M401 431 L310 0 L157 0 L357 942 L510 942 L428 558 L867 558 L949 942 L1101 942 L928 127 L1046 127 L975 -205 L821 -205 L864 0 L748 0 L840 431 L401 431 Z " />
<glyph glyph-name="uni04AE" unicode="&#x4ae;" horiz-adv-x="1057" d="M447 0 L566 560 L296 1365 L487 1365 L685 722 L1151 1365 L1342 1365 L733 560 L614 0 L447 0 Z " />
<glyph glyph-name="uni04AF" unicode="&#x4af;" horiz-adv-x="828" d="M495 0 L419 -355 L267 -355 L342 0 L207 942 L376 942 L453 169 L848 942 L1021 941 L495 0 Z " />
<glyph glyph-name="uni04B0" unicode="&#x4b0;" horiz-adv-x="1019" d="M515 428 L281 428 L309 560 L543 560 L273 1365 L464 1365 L662 722 L1128 1365 L1319 1365 L710 560 L949 560 L920 428 L682 428 L591 0 L424 0 L515 428 Z " />
<glyph glyph-name="uni04B1" unicode="&#x4b1;" horiz-adv-x="828" d="M471 -115 L420 -355 L267 -355 L318 -115 L122 -115 L147 0 L343 0 L208 942 L376 942 L454 169 L849 942 L1022 941 L496 0 L697 0 L672 -115 L471 -115 Z " />
<glyph glyph-name="uni04B2" unicode="&#x4b2;" horiz-adv-x="1103" d="M975 145 L1129 145 L1054 -205 L888 -205 L931 0 L836 0 L654 560 L225 0 L32 0 L581 699 L347 1365 L535 1365 L701 837 L1104 1365 L1294 1365 L777 707 L975 145 Z " />
<glyph glyph-name="uni04B3" unicode="&#x4b3;" horiz-adv-x="880" d="M795 127 L921 127 L850 -205 L696 -205 L740 0 L669 0 L508 381 L193 0 L7 0 L441 496 L232 942 L416 942 L552 614 L832 942 L1017 942 L623 509 L795 127 Z " />
<glyph glyph-name="uni04B8" unicode="&#x4b8;" horiz-adv-x="1229" d="M788 628 Q850 642 899 674 Q955 711 1003 789 Q1048 861 1059 912 L1155 1365 L1322 1365 L1032 0 L865 0 L991 594 Q891 504 757 482 L700 213 L563 213 L620 479 Q505 492 430 543 Q300 631 300 809 Q300 871 324 986 L405 1365 L570 1365 L487 978 Q470 897 470 845 Q470 655 651 624 L705 881 L842 881 L788 628 Z " />
<glyph glyph-name="uni04B9" unicode="&#x4b9;" horiz-adv-x="988" d="M617 471 Q695 486 750.5 543 Q806 600 823 683 L878 942 L1031 942 L831 0 L678 0 L770 431 Q696 367 592 349 L549 147 L432 147 L474 343 Q411 348 358 371 Q218 431 218 572 Q218 617 234 692 L287 942 L440 942 L383 676 Q375 639 375 610 Q375 498 501 470 L541 661 L658 661 L617 471 Z " />
<glyph glyph-name="uni04BA" unicode="&#x4ba;" horiz-adv-x="1205" d="M528 771 Q559 799 577 811 Q686 889 845 889 Q1039 889 1143 774 Q1219 691 1219 556 Q1219 494 1195 379 L1114 0 L949 0 L1032 387 Q1049 468 1049 520 Q1049 603 1013 657 Q953 745 812 745 Q668 745 580 658 Q541 619 505 558 Q469 497 460 453 L364 0 L197 0 L487 1365 L654 1365 L528 771 Z " />
<glyph glyph-name="uni04BB" unicode="&#x4bb;" horiz-adv-x="1049" d="M157 0 L447 1365 L600 1365 L485 828 Q612 971 788 971 Q909 971 976.5 909 Q1044 847 1044 737 Q1044 673 1031 612 L901 0 L748 0 L874 594 Q888 657 888 712 Q888 776 848.5 812 Q809 848 738 848 Q584 848 491 707 Q464 666 446 613 Q428 560 404 445 L310 0 L157 0 Z " />
<glyph glyph-name="uni04C0" unicode="&#x4c0;" horiz-adv-x="561" d="M197 0 L487 1365 L654 1365 L364 0 L197 0 Z " />
<glyph glyph-name="uni04D8" unicode="&#x4d8;" horiz-adv-x="1353" d="M450 1101 Q495 1186 546 1239 Q700 1397 938 1397 Q1149 1397 1272 1268 Q1341 1195 1376 1075 Q1402 986 1402 889 Q1402 733 1356 572.5 Q1310 412 1229 285 Q1024 -33 696 -33 Q460 -33 343 127 Q242 263 242 490 Q242 608 275 755 L1216 755 Q1226 824 1226 889 Q1226 1082 1132 1173 Q1051 1251 919 1251 Q743 1251 653 1101 L450 1101 Z M1186 610 L425 610 Q417 543 417 477 Q417 287 502 195 Q579 111 698 111 Q860 111 988.5 242.5 Q1117 374 1186 610 Z " />
<glyph glyph-name="afii10846" unicode="&#x4d9;" horiz-adv-x="984" d="M192 511 L851 511 Q862 569 862 611 Q862 710 816 770 Q754 849 637 849 Q530 849 451 776 L279 776 Q337 871 432.5 921 Q528 971 648 971 Q814 971 908 885 Q1022 780 1022 591 Q1022 471 983 354.5 Q944 238 876 153 Q729 -29 509 -29 Q335 -29 248 66 Q166 157 166 300 Q166 383 192 511 Z M331 388 Q324 337 324 306 Q324 214 365 159 Q414 94 514 94 Q643 94 733 211 Q787 282 821 388 L331 388 Z " />
<glyph glyph-name="uni04E8" unicode="&#x4e8;" horiz-adv-x="1353" d="M453 755 L1216 755 Q1226 824 1226 887 Q1226 1075 1138 1171 Q1065 1251 931 1251 Q715 1251 562 1009 Q493 900 453 755 Z M1186 610 L425 610 Q417 543 417 477 Q417 287 502 195 Q579 111 698 111 Q860 111 988.5 242.5 Q1117 374 1186 610 Z M946 1396 Q1156 1396 1277 1264 Q1343 1191 1376 1074 Q1402 985 1402 888 Q1402 732 1356 571.5 Q1310 411 1229 285 Q1024 -33 697 -33 Q460 -33 343 126 Q242 263 242 482 Q242 690 316 885 Q409 1133 596 1277 Q753 1396 946 1396 Z " />
<glyph glyph-name="uni04E9" unicode="&#x4e9;" horiz-adv-x="1023" d="M351 535 L899 535 Q903 577 903 609 Q903 743 826 804 Q772 848 694 848 Q579 848 486.5 763.5 Q394 679 351 535 Z M872 408 L324 408 Q320 373 320 340 Q320 196 401 135 Q455 95 536 95 Q688 95 791 239 Q841 310 872 408 Z M703 971 Q858 971 953 887 Q1061 793 1061 604 Q1061 469 1012 337 Q935 128 775 34 Q668 -29 531 -29 Q359 -29 265 63 Q164 161 164 332 Q164 449 199.5 564 Q235 679 297 763 Q450 971 703 971 Z " />
<glyph glyph-name="Wgrave" unicode="&#x1e80;" horiz-adv-x="1556" d="M343 0 L338 1365 L501 1365 L480 233 L970 1365 L1159 1365 L1166 231 L1632 1365 L1798 1365 L1204 0 L1030 0 L1021 1154 L519 0 L343 0 Z M887 1734 L1039 1734 L1162 1479 L1032 1479 L887 1734 Z " />
<glyph glyph-name="wgrave" unicode="&#x1e81;" horiz-adv-x="1255" d="M799 1365 L914 1092 L776 1092 L645 1365 L799 1365 Z M287 0 L207 942 L371 942 L408 197 L744 942 L910 942 L936 199 L1287 942 L1449 942 L970 0 L804 0 L779 718 L455 0 L287 0 Z " />
<glyph glyph-name="Wacute" unicode="&#x1e82;" horiz-adv-x="1556" d="M343 0 L338 1365 L501 1365 L480 233 L970 1365 L1159 1365 L1166 231 L1632 1365 L1798 1365 L1204 0 L1030 0 L1021 1154 L519 0 L343 0 Z M1381 1730 L1128 1475 L998 1475 L1229 1730 L1381 1730 Z " />
<glyph glyph-name="wacute" unicode="&#x1e83;" horiz-adv-x="1255" d="M287 0 L207 942 L371 942 L408 197 L744 942 L910 942 L936 199 L1287 942 L1449 942 L970 0 L804 0 L779 718 L455 0 L287 0 Z M1123 1365 L886 1092 L756 1092 L977 1365 L1123 1365 Z " />
<glyph glyph-name="Wdieresis" unicode="&#x1e84;" horiz-adv-x="1556" d="M343 0 L338 1365 L501 1365 L480 233 L970 1365 L1159 1365 L1166 231 L1632 1365 L1798 1365 L1204 0 L1030 0 L1021 1154 L519 0 L343 0 Z M1325 1655 L1284 1461 L1141 1461 L1182 1655 L1325 1655 Z M1042 1655 L1001 1461 L858 1461 L899 1655 L1042 1655 Z " />
<glyph glyph-name="wdieresis" unicode="&#x1e85;" horiz-adv-x="1255" d="M287 0 L207 942 L371 942 L408 197 L744 942 L910 942 L936 199 L1287 942 L1449 942 L970 0 L804 0 L779 718 L455 0 L287 0 Z M1099 1297 L1059 1106 L915 1106 L956 1297 L1099 1297 Z M816 1297 L775 1106 L632 1106 L673 1297 L816 1297 Z " />
<glyph glyph-name="uni1E9E" unicode="&#x1e9e;" horiz-adv-x="1183" d="M855 778 Q875 779 885 779 Q1022 779 1100 695.5 Q1178 612 1178 466 Q1178 235 1022 107 Q892 0 679 0 Q527 0 422 58 L546 183 Q615 145 700 145 Q858 145 946 261 Q1006 342 1006 447 Q1006 567 922 619 Q885 642 843.5 650 Q802 658 717 658 L644 658 L666 764 L1084 1220 L851 1220 Q736 1220 654.5 1152.5 Q573 1085 549 969 L343 0 L176 0 L386 986 Q421 1154 530 1250 Q660 1365 855 1365 L1275 1365 L1238 1195 L855 778 Z " />
<glyph glyph-name="Ygrave" unicode="&#x1ef2;" horiz-adv-x="1019" d="M424 0 L543 560 L273 1365 L464 1365 L662 722 L1128 1365 L1319 1365 L710 560 L591 0 L424 0 Z M629 1734 L781 1734 L904 1479 L774 1479 L629 1734 Z " />
<glyph glyph-name="ygrave" unicode="&#x1ef3;" horiz-adv-x="848" d="M624 1365 L739 1092 L601 1092 L470 1365 L624 1365 Z M20 -340 L48 -208 Q60 -212 66 -215 Q102 -229 131 -229 Q217 -229 271 -140 L361 10 L207 942 L381 942 L476 211 L869 942 L1041 942 L443 -101 Q367 -234 312 -283 Q233 -355 121 -355 Q77 -355 20 -340 Z " />
<glyph glyph-name="uni2000" unicode="&#x2000;" horiz-adv-x="1331" d="" />
<glyph glyph-name="uni2001" unicode="&#x2001;" horiz-adv-x="2662" d="" />
<glyph glyph-name="uni2002" unicode="&#x2002;" horiz-adv-x="1331" d="" />
<glyph glyph-name="uni2003" unicode="&#x2003;" horiz-adv-x="2662" d="" />
<glyph glyph-name="uni2004" unicode="&#x2004;" horiz-adv-x="888" d="" />
<glyph glyph-name="uni2005" unicode="&#x2005;" horiz-adv-x="666" d="" />
<glyph glyph-name="uni2006" unicode="&#x2006;" horiz-adv-x="443" d="" />
<glyph glyph-name="uni2007" unicode="&#x2007;" horiz-adv-x="1467" d="" />
<glyph glyph-name="uni2008" unicode="&#x2008;" horiz-adv-x="714" d="" />
<glyph glyph-name="uni2009" unicode="&#x2009;" horiz-adv-x="533" d="" />
<glyph glyph-name="uni200A" unicode="&#x200a;" horiz-adv-x="266" d="" />
<glyph glyph-name="uni200B" unicode="&#x200b;" d="" />
<glyph glyph-name="uni2010" unicode="&#x2010;" horiz-adv-x="399" d="M524 591 L490 427 L91 427 L126 591 L524 591 Z " />
<glyph glyph-name="uni2011" unicode="&#x2011;" horiz-adv-x="399" d="M524 591 L490 427 L91 427 L126 591 L524 591 Z " />
<glyph glyph-name="figuredash" unicode="&#x2012;" horiz-adv-x="1049" d="M997 591 L962 427 L268 427 L303 591 L997 591 Z " />
<glyph glyph-name="afii00208" unicode="&#x2015;" horiz-adv-x="1537" d="M1487 591 L1452 427 L277 427 L312 591 L1487 591 Z " />
<glyph glyph-name="quotereversed" unicode="&#x201b;" horiz-adv-x="511" d="" />
<glyph glyph-name="uni203E" unicode="&#x203e;" horiz-adv-x="1065" d="M430 1607 L1318 1607 L1289 1475 L402 1475 L430 1607 Z " />
<glyph glyph-name="zerosuperior" unicode="&#x2070;" horiz-adv-x="676" d="M618 1382 Q818 1382 818 1152 Q818 1060 789 925.5 Q760 791 724 716 Q635 529 466 529 Q369 529 315 584.5 Q261 640 261 741 Q261 837 286.5 964 Q312 1091 348 1177 Q436 1382 618 1382 Z M609 1287 Q500 1287 442 1114 Q415 1031 394 923.5 Q373 816 373 754 Q373 624 473 624 Q575 624 633 781 Q661 855 684.5 971.5 Q708 1088 708 1153 Q708 1287 609 1287 Z " />
<glyph glyph-name="foursuperior" unicode="&#x2074;" horiz-adv-x="590" d="M458 546 L501 750 L191 750 L212 848 L646 1365 L731 1365 L619 842 L719 842 L700 750 L600 750 L557 546 L458 546 Z M521 842 L590 1168 L317 842 L521 842 Z " />
<glyph glyph-name="fivesuperior" unicode="&#x2075;" horiz-adv-x="642" d="M287 925 L447 1365 L821 1365 L800 1267 L516 1267 L437 1055 Q491 1095 557 1095 Q652 1095 703 1036.5 Q754 978 754 871 Q754 733 668 635 Q575 529 432 529 Q339 529 283.5 580.5 Q228 632 228 718 Q228 734 231 755 L343 755 Q341 738 341 726 Q341 680 368 652 Q395 624 439 624 Q526 624 583 705 Q634 778 634 867 Q634 1000 521 1000 Q440 1000 379 919 L287 925 Z " />
<glyph glyph-name="sixsuperior" unicode="&#x2076;" horiz-adv-x="644" d="M806 1170 L693 1170 Q694 1185 694 1193 Q694 1287 614 1287 Q476 1287 398 1010 Q471 1084 567 1084 Q665 1084 715 1016 Q757 959 757 880 Q757 736 671 633 Q583 529 456 529 Q354 529 299 597 Q246 660 246 766 Q246 894 287 1034 Q328 1174 390 1254 Q488 1382 626 1382 Q709 1382 758.5 1335.5 Q808 1289 808 1210 Q808 1194 806 1170 Z M538 989 Q465 989 410.5 918 Q356 847 356 751 Q356 691 384.5 657.5 Q413 624 462 624 Q536 624 589.5 695 Q643 766 643 865 Q643 989 538 989 Z " />
<glyph glyph-name="sevensuperior" unicode="&#x2077;" horiz-adv-x="563" d="M364 546 L246 546 Q295 721 379 875 Q492 1079 666 1258 L307 1258 L330 1365 L809 1365 L789 1272 Q497 975 364 546 Z " />
<glyph glyph-name="eightsuperior" unicode="&#x2078;" horiz-adv-x="625" d="M402 999 Q330 1047 330 1142 Q330 1245 402.5 1313.5 Q475 1382 584 1382 Q678 1382 733.5 1331 Q789 1280 789 1195 Q789 1040 645 990 Q736 935 736 819 Q736 712 674 633 Q636 584 574 556.5 Q512 529 442 529 Q340 529 279 586.5 Q218 644 218 739 Q218 828 267.5 897.5 Q317 967 402 999 Z M577 1287 Q519 1287 479.5 1244.5 Q440 1202 440 1138 Q440 1091 467 1062 Q494 1033 537 1033 Q594 1033 635.5 1079.5 Q677 1126 677 1188 Q677 1287 577 1287 Z M512 944 Q436 944 383.5 884.5 Q331 825 331 738 Q331 686 362 655 Q393 624 446 624 Q530 624 580 691 Q624 751 624 823 Q624 880 594 912 Q564 944 512 944 Z " />
<glyph glyph-name="ninesuperior" unicode="&#x2079;" horiz-adv-x="674" d="M264 742 L376 742 Q375 726 375 719 Q375 624 455 624 Q593 624 672 902 Q599 828 502 828 Q405 828 354 896 Q312 952 312 1032 Q312 1176 398 1278 Q486 1382 613 1382 Q715 1382 770 1314 Q823 1251 823 1146 Q823 1017 782 877.5 Q741 738 679 657 Q581 529 443 529 Q360 529 310.5 575.5 Q261 622 261 702 Q261 717 264 742 Z M607 1287 Q533 1287 479.5 1216 Q426 1145 426 1047 Q426 923 531 923 Q604 923 658.5 994 Q713 1065 713 1161 Q713 1220 684.5 1253.5 Q656 1287 607 1287 Z " />
<glyph glyph-name="parenleftsuperior" unicode="&#x207d;" horiz-adv-x="411" d="M530 1372 L623 1372 Q500 1235 424 1035.5 Q348 836 348 651 Q348 566 363.5 481 Q379 396 404 344 L311 344 Q309 350 308 355 Q305 364 288 413 Q242 540 242 684 Q242 855 318.5 1037.5 Q395 1220 530 1372 Z " />
<glyph glyph-name="parenrightsuperior" unicode="&#x207e;" horiz-adv-x="410" d="M372 1372 L463 1372 Q533 1224 533 1041 Q533 851 451 665 Q415 585 378 526.5 Q341 468 251 351 L245 344 L153 344 Q280 502 351 695.5 Q422 889 422 1077 Q422 1229 372 1372 Z " />
<glyph glyph-name="nsuperior" unicode="&#x207f;" horiz-adv-x="598" d="M188 546 L309 1116 L410 1116 L398 1056 Q477 1133 576 1133 Q654 1133 696 1088 Q730 1051 730 997 Q730 963 719 913 L641 546 L538 546 L609 881 Q622 942 622 973 Q622 1047 540 1047 Q448 1047 398 964 Q371 921 350 822 L292 546 L188 546 Z " />
<glyph glyph-name="zeroinferior" unicode="&#x2080;" horiz-adv-x="676" d="M502 836 Q702 836 702 606 Q702 514 673 379.5 Q644 245 608 170 Q519 -17 350 -17 Q253 -17 199 38.5 Q145 94 145 195 Q145 291 170.5 418 Q196 545 232 631 Q320 836 502 836 Z M493 741 Q384 741 326 568 Q299 485 278 377.5 Q257 270 257 208 Q257 78 357 78 Q459 78 517 235 Q545 309 568.5 425.5 Q592 542 592 607 Q592 741 493 741 Z " />
<glyph glyph-name="oneinferior" unicode="&#x2081;" horiz-adv-x="424" d="M184 0 L315 621 Q257 584 172 584 Q165 584 150 584 L169 673 Q176 673 180 673 Q258 673 305 707 Q352 741 384 819 L468 819 L293 0 L184 0 Z " />
<glyph glyph-name="twoinferior" unicode="&#x2082;" horiz-adv-x="631" d="M583 103 L561 0 L55 0 Q80 93 102 139 Q124 185 167 231 Q205 273 247 302.5 Q289 332 400 395 Q580 497 580 629 Q580 677 549.5 705 Q519 733 468 733 Q404 733 370 697.5 Q336 662 321 580 L185 580 Q202 686 242 738 Q318 838 466 838 Q601 838 667 761 Q713 708 713 638 Q713 528 628 437 Q573 378 436 306 Q321 245 274 203 Q227 161 211 103 L583 103 Z " />
<glyph glyph-name="threeinferior" unicode="&#x2083;" horiz-adv-x="611" d="M292 601 L181 601 Q200 701 242 750 Q316 836 443 836 Q560 836 618 773 Q666 720 666 641 Q666 561 622.5 508.5 Q579 456 498 439 Q618 402 618 269 Q618 147 529.5 65 Q441 -17 309 -17 Q200 -17 139 43 Q82 100 82 183 Q82 201 88 237 L200 237 Q199 219 199 206 Q199 151 231 118 Q263 85 316 85 Q393 85 445.5 138 Q498 191 498 268 Q498 386 358 386 L313 386 L333 482 L371 482 Q449 482 494 522 Q539 562 539 632 Q539 679 510 706.5 Q481 734 431 734 Q324 734 292 601 Z " />
<glyph glyph-name="fourinferior" unicode="&#x2084;" horiz-adv-x="567" d="M322 0 L365 204 L55 204 L76 302 L510 819 L595 819 L483 296 L583 296 L564 204 L464 204 L421 0 L322 0 Z M385 296 L454 622 L181 296 L385 296 Z " />
<glyph glyph-name="fiveinferior" unicode="&#x2085;" horiz-adv-x="634" d="M168 379 L328 819 L702 819 L681 721 L393 721 L314 509 Q370 549 438 549 Q533 549 584 491 Q635 433 635 325 Q635 185 550 89 Q507 40 442 11.5 Q377 -17 310 -17 Q220 -17 164.5 35 Q109 87 109 172 Q109 188 112 209 L224 209 Q222 192 222 180 Q222 134 249 106 Q276 78 321 78 Q397 78 456 152 Q515 226 515 321 Q515 454 402 454 Q321 454 260 373 L168 379 Z " />
<glyph glyph-name="sixinferior" unicode="&#x2086;" horiz-adv-x="644" d="M697 624 L584 624 Q585 639 585 647 Q585 742 505 742 Q367 742 289 464 Q362 538 458 538 Q556 538 606 470 Q648 413 648 334 Q648 190 562 87 Q474 -17 347 -17 Q246 -17 190 51 Q137 114 137 220 Q137 348 178 488 Q219 628 281 709 Q379 837 517 837 Q600 837 649.5 790.5 Q699 744 699 665 Q699 648 697 624 Z M429 443 Q356 443 301.5 372 Q247 301 247 205 Q247 145 275.5 111.5 Q304 78 353 78 Q427 78 480.5 149 Q534 220 534 319 Q534 443 429 443 Z " />
<glyph glyph-name="seveninferior" unicode="&#x2087;" horiz-adv-x="557" d="M262 0 L144 0 Q193 175 277 329 Q390 533 564 712 L205 712 L228 819 L707 819 L687 726 Q395 429 262 0 Z " />
<glyph glyph-name="eightinferior" unicode="&#x2088;" horiz-adv-x="659" d="M313 453 Q241 501 241 596 Q241 699 313.5 767.5 Q386 836 495 836 Q589 836 644.5 785 Q700 734 700 649 Q700 494 556 444 Q647 389 647 273 Q647 166 585 87 Q547 38 485 10.5 Q423 -17 353 -17 Q251 -17 190 40.5 Q129 98 129 193 Q129 282 178.5 351.5 Q228 421 313 453 Z M488 741 Q430 741 390.5 698.5 Q351 656 351 592 Q351 545 378 516 Q405 487 448 487 Q505 487 546.5 533.5 Q588 580 588 642 Q588 741 488 741 Z M423 398 Q347 398 294.5 338.5 Q242 279 242 192 Q242 140 273 109 Q304 78 357 78 Q441 78 491 145 Q535 205 535 277 Q535 334 505 366 Q475 398 423 398 Z " />
<glyph glyph-name="nineinferior" unicode="&#x2089;" horiz-adv-x="665" d="M146 196 L258 196 Q257 180 257 173 Q257 78 337 78 Q476 78 554 356 Q480 282 384 282 Q286 282 236 350 Q194 407 194 486 Q194 631 280 733 Q368 837 495 837 Q597 837 652 769 Q705 706 705 600 Q705 472 664 332 Q623 192 561 111 Q463 -17 325 -17 Q242 -17 192.5 29.5 Q143 76 143 156 Q143 171 146 196 Z M489 742 Q415 742 361.5 671 Q308 600 308 501 Q308 377 413 377 Q486 377 540.5 448 Q595 519 595 615 Q595 674 566.5 708 Q538 742 489 742 Z " />
<glyph glyph-name="franc" unicode="&#x20a3;" horiz-adv-x="1402" d="M197 0 L487 1365 L1236 1365 L1207 1228 L619 1228 L531 815 L965 815 L937 682 L503 682 L358 0 L197 0 Z M929 0 L1102 815 L1244 815 L1207 638 Q1344 851 1558 844 L1522 676 Q1488 680 1472 680 Q1366 680 1279 591 Q1223 533 1190.5 454 Q1158 375 1123 210 L1078 0 L929 0 Z " />
<glyph glyph-name="lira" unicode="&#x20a4;" horiz-adv-x="1009" d="M542 344 Q499 277 376 167 Q496 230 552 230 Q594 230 642 190 Q687 152 718 152 Q804 152 843 283 L999 283 Q962 146 892 67 Q807 -29 687 -29 Q644 -29 613.5 -18.5 Q583 -8 531 23 Q461 67 413 67 Q372 67 327.5 47 Q283 27 201 -27 L137 77 Q310 193 391 344 L241 344 L272 491 L444 491 Q447 511 447 530 Q447 540 446 559 L286 559 L318 706 L423 706 Q415 731 396 789 Q365 886 365 995 Q365 1170 465 1275 Q578 1392 787 1392 Q972 1392 1069 1295 Q1146 1217 1146 1102 Q1146 1067 1136 1013 L972 1013 Q979 1053 979 1079 Q979 1261 784 1261 Q666 1261 600 1193 Q534 1125 534 1004 Q534 921 567 816 Q595 729 601 706 L933 706 L901 559 L615 559 Q612 519 605 491 L887 491 L856 344 L542 344 Z " />
</font>
</svg>
